<svg version="1.1" viewBox="0.0 0.0 777.0 480.0" fill="none" stroke="none" stroke-linecap="square" stroke-miterlimit="10" width="777" height="480" xmlns:xlink="http://www.w3.org/1999/xlink" xmlns="http://www.w3.org/2000/svg"><path fill="#ffffff" d="M0 0L777.0 0L777.0 480.0L0 480.0L0 0Z" fill-rule="nonzero"/><path stroke="#cccccc" stroke-width="1.0" stroke-linecap="butt" d="M172.5 31.5L172.5 404.5" fill-rule="nonzero"/><path stroke="#cccccc" stroke-width="1.0" stroke-linecap="butt" d="M284.5 31.5L284.5 404.5" fill-rule="nonzero"/><path stroke="#cccccc" stroke-width="1.0" stroke-linecap="butt" d="M395.5 31.5L395.5 404.5" fill-rule="nonzero"/><path stroke="#cccccc" stroke-width="1.0" stroke-linecap="butt" d="M507.5 31.5L507.5 404.5" fill-rule="nonzero"/><path stroke="#cccccc" stroke-width="1.0" stroke-linecap="butt" d="M619.5 31.5L619.5 404.5" fill-rule="nonzero"/><path stroke="#333333" stroke-width="1.0" stroke-linecap="butt" d="M83.5 404.5L619.5 404.5" fill-rule="nonzero"/><path stroke="#cccccc" stroke-width="1.0" stroke-linecap="butt" d="M83.5 329.5L619.5 329.5" fill-rule="nonzero"/><path stroke="#cccccc" stroke-width="1.0" stroke-linecap="butt" d="M83.5 254.5L619.5 254.5" fill-rule="nonzero"/><path stroke="#cccccc" stroke-width="1.0" stroke-linecap="butt" d="M83.5 180.5L619.5 180.5" fill-rule="nonzero"/><path stroke="#cccccc" stroke-width="1.0" stroke-linecap="butt" d="M83.5 105.5L619.5 105.5" fill-rule="nonzero"/><path stroke="#cccccc" stroke-width="1.0" stroke-linecap="butt" d="M83.5 31.5L619.5 31.5" fill-rule="nonzero"/><clipPath id="id_0"><path d="M83.0 31.0L619.2 31.0L619.2 404.0L83.0 404.0L83.0 31.0Z" clip-rule="nonzero"/></clipPath><path stroke="#4285f4" stroke-width="2.0" stroke-linecap="butt" clip-path="url(#id_0)" d="M83.0 401.016C83.0 401.016 105.34167 398.97693 116.5125 398.032C127.683334 397.08707 153.74861 395.048 172.36667 393.556C190.98473 392.064 209.60278 390.572 228.22084 389.08C246.83888 387.588 265.45694 386.05457 284.075 384.604C302.69305 383.15344 619.2 359.24 619.2 359.24" fill-rule="nonzero"/><path stroke="#ea4335" stroke-width="2.0" stroke-linecap="butt" clip-path="url(#id_0)" d="M83.0 381.62C83.0 381.62 105.34167 379.28253 116.5125 378.636C127.683334 377.98947 153.74861 377.39267 172.36667 377.144C190.98473 376.89532 209.60278 377.39267 228.22084 377.144C246.83888 376.89532 265.45694 376.2322 284.075 375.652C302.69305 375.07178 619.2 363.716 619.2 363.716" fill-rule="nonzero"/><path stroke="#fbbc04" stroke-width="2.0" stroke-linecap="butt" clip-path="url(#id_0)" d="M83.0 399.524C83.0 399.524 105.34167 399.6732 116.5125 399.524C127.683334 399.3748 153.74861 398.778 172.36667 398.032C190.98473 397.286 209.60278 396.29132 228.22084 395.048C246.83888 393.80466 265.45694 391.93967 284.075 390.572C302.69305 389.20435 619.2 368.192 619.2 368.192" fill-rule="nonzero"/><path stroke="#34a853" stroke-width="2.0" stroke-linecap="butt" clip-path="url(#id_0)" d="M83.0 402.508C83.0 402.508 105.34167 400.02133 116.5125 399.524C127.683334 399.02667 153.74861 400.02133 172.36667 399.524C190.98473 399.02667 209.60278 397.78333 228.22084 396.54C246.83888 395.29666 265.45694 393.3488 284.075 392.064C302.69305 390.77924 619.2 372.668 619.2 372.668" fill-rule="nonzero"/><path stroke="#ff6d01" stroke-width="2.0" stroke-linecap="butt" clip-path="url(#id_0)" d="M83.0 402.508C83.0 402.508 105.34167 401.86148 116.5125 401.016C127.683334 400.17053 153.74861 398.778 172.36667 395.048C190.98473 391.318 209.60278 381.62 228.22084 378.636C246.83888 375.652 265.45694 380.33524 284.075 377.144C302.69305 373.9528 619.2 271.212 619.2 271.212" fill-rule="nonzero"/><path stroke="#46bdc6" stroke-width="2.0" stroke-linecap="butt" clip-path="url(#id_0)" d="M83.0 402.508C83.0 402.508 105.34167 401.41388 116.5125 401.016C127.683334 400.61813 153.74861 400.27 172.36667 399.524C190.98473 398.778 209.60278 397.286 228.22084 396.54C246.83888 395.794 265.45694 395.66968 284.075 395.048C302.69305 394.42633 619.2 381.62 619.2 381.62" fill-rule="nonzero"/><path stroke="#7baaf7" stroke-width="2.0" stroke-linecap="butt" clip-path="url(#id_0)" d="M83.0 401.016C83.0 401.016 105.34167 400.51868 116.5125 399.524C127.683334 398.52933 153.74861 395.29666 172.36667 392.064C190.98473 388.83133 209.60278 384.35535 228.22084 380.128C246.83888 375.90067 265.45694 373.787 284.075 366.7C302.69305 359.613 619.2 192.136 619.2 192.136" fill-rule="nonzero"/><path stroke="#f07b72" stroke-width="2.0" stroke-linecap="butt" clip-path="url(#id_0)" d="M83.0 402.508C83.0 402.508 105.34167 401.86148 116.5125 401.016C127.683334 400.17053 153.74861 398.032 172.36667 395.048C190.98473 392.064 209.60278 387.588 228.22084 383.112C246.83888 378.636 265.45694 375.11322 284.075 368.192C302.69305 361.27078 619.2 208.548 619.2 208.548" fill-rule="nonzero"/><path stroke="#fcd04f" stroke-width="2.0" stroke-linecap="butt" clip-path="url(#id_0)" d="M83.0 402.508C83.0 402.508 105.34167 401.86148 116.5125 401.016C127.683334 400.17053 153.74861 397.53467 172.36667 395.048C190.98473 392.56134 209.60278 389.08 228.22084 386.096C246.83888 383.112 265.45694 382.69757 284.075 377.144C302.69305 371.59045 619.2 230.928 619.2 230.928" fill-rule="nonzero"/><path stroke="#71c287" stroke-width="2.0" stroke-linecap="butt" clip-path="url(#id_0)" d="M83.0 402.508C83.0 402.508 105.34167 400.17053 116.5125 399.524C127.683334 398.87747 153.74861 399.27533 172.36667 398.032C190.98473 396.78867 209.60278 394.302 228.22084 392.064C246.83888 389.826 265.45694 395.3381 284.075 384.604C302.69305 373.8699 619.2 42.936 619.2 42.936" fill-rule="nonzero"/><path stroke="#ff994d" stroke-width="2.0" stroke-linecap="butt" clip-path="url(#id_0)" d="M83.0 402.508C83.0 402.508 105.34167 401.86148 116.5125 401.016C127.683334 400.17053 153.74861 396.78867 172.36667 395.048C190.98473 393.30734 209.60278 392.81 228.22084 390.572C246.83888 388.334 265.45694 385.6401 284.075 381.62C302.69305 377.59988 619.2 290.608 619.2 290.608" fill-rule="nonzero"/><path fill="#000000" fill-opacity="0.0" clip-path="url(#id_0)" d="M86.0 401.016C86.0 402.67285 84.65685 404.016 83.0 404.016C81.34315 404.016 80.0 402.67285 80.0 401.016C80.0 399.35913 81.34315 398.016 83.0 398.016C84.65685 398.016 86.0 399.35913 86.0 401.016Z" fill-rule="nonzero"/><path fill="#000000" fill-opacity="0.0" clip-path="url(#id_0)" d="M119.5125 398.032C119.5125 399.68884 118.16936 401.032 116.5125 401.032C114.855644 401.032 113.5125 399.68884 113.5125 398.032C113.5125 396.37515 114.855644 395.032 116.5125 395.032C118.16936 395.032 119.5125 396.37515 119.5125 398.032Z" fill-rule="nonzero"/><path fill="#000000" fill-opacity="0.0" clip-path="url(#id_0)" d="M175.36667 393.556C175.36667 395.21286 174.02351 396.556 172.36667 396.556C170.70981 396.556 169.36667 395.21286 169.36667 393.556C169.36667 391.89914 170.70981 390.556 172.36667 390.556C174.02351 390.556 175.36667 391.89914 175.36667 393.556Z" fill-rule="nonzero"/><path fill="#000000" fill-opacity="0.0" clip-path="url(#id_0)" d="M231.22084 389.08C231.22084 390.73685 229.87769 392.08 228.22084 392.08C226.56398 392.08 225.22084 390.73685 225.22084 389.08C225.22084 387.42316 226.56398 386.08 228.22084 386.08C229.87769 386.08 231.22084 387.42316 231.22084 389.08Z" fill-rule="nonzero"/><path fill="#000000" fill-opacity="0.0" clip-path="url(#id_0)" d="M287.075 384.604C287.075 386.26086 285.73184 387.604 284.075 387.604C282.41815 387.604 281.075 386.26086 281.075 384.604C281.075 382.94714 282.41815 381.604 284.075 381.604C285.73184 381.604 287.075 382.94714 287.075 384.604Z" fill-rule="nonzero"/><path fill="#000000" fill-opacity="0.0" clip-path="url(#id_0)" d="M622.2 359.24C622.2 360.89685 620.8569 362.24 619.2 362.24C617.54315 362.24 616.2 360.89685 616.2 359.24C616.2 357.58316 617.54315 356.24 619.2 356.24C620.8569 356.24 622.2 357.58316 622.2 359.24Z" fill-rule="nonzero"/><path fill="#000000" fill-opacity="0.0" clip-path="url(#id_0)" d="M86.0 381.62C86.0 383.27686 84.65685 384.62 83.0 384.62C81.34315 384.62 80.0 383.27686 80.0 381.62C80.0 379.96313 81.34315 378.62 83.0 378.62C84.65685 378.62 86.0 379.96313 86.0 381.62Z" fill-rule="nonzero"/><path fill="#000000" fill-opacity="0.0" clip-path="url(#id_0)" d="M119.5125 378.636C119.5125 380.29285 118.16936 381.636 116.5125 381.636C114.855644 381.636 113.5125 380.29285 113.5125 378.636C113.5125 376.97916 114.855644 375.636 116.5125 375.636C118.16936 375.636 119.5125 376.97916 119.5125 378.636Z" fill-rule="nonzero"/><path fill="#000000" fill-opacity="0.0" clip-path="url(#id_0)" d="M175.36667 377.144C175.36667 378.80084 174.02351 380.144 172.36667 380.144C170.70981 380.144 169.36667 378.80084 169.36667 377.144C169.36667 375.48715 170.70981 374.144 172.36667 374.144C174.02351 374.144 175.36667 375.48715 175.36667 377.144Z" fill-rule="nonzero"/><path fill="#000000" fill-opacity="0.0" clip-path="url(#id_0)" d="M231.22084 377.144C231.22084 378.80084 229.87769 380.144 228.22084 380.144C226.56398 380.144 225.22084 378.80084 225.22084 377.144C225.22084 375.48715 226.56398 374.144 228.22084 374.144C229.87769 374.144 231.22084 375.48715 231.22084 377.144Z" fill-rule="nonzero"/><path fill="#000000" fill-opacity="0.0" clip-path="url(#id_0)" d="M287.075 375.652C287.075 377.30887 285.73184 378.652 284.075 378.652C282.41815 378.652 281.075 377.30887 281.075 375.652C281.075 373.99515 282.41815 372.652 284.075 372.652C285.73184 372.652 287.075 373.99515 287.075 375.652Z" fill-rule="nonzero"/><path fill="#000000" fill-opacity="0.0" clip-path="url(#id_0)" d="M622.2 363.716C622.2 365.37286 620.8569 366.716 619.2 366.716C617.54315 366.716 616.2 365.37286 616.2 363.716C616.2 362.05914 617.54315 360.716 619.2 360.716C620.8569 360.716 622.2 362.05914 622.2 363.716Z" fill-rule="nonzero"/><path fill="#000000" fill-opacity="0.0" clip-path="url(#id_0)" d="M86.0 399.524C86.0 401.18085 84.65685 402.524 83.0 402.524C81.34315 402.524 80.0 401.18085 80.0 399.524C80.0 397.86716 81.34315 396.524 83.0 396.524C84.65685 396.524 86.0 397.86716 86.0 399.524Z" fill-rule="nonzero"/><path fill="#000000" fill-opacity="0.0" clip-path="url(#id_0)" d="M119.5125 399.524C119.5125 401.18085 118.16936 402.524 116.5125 402.524C114.855644 402.524 113.5125 401.18085 113.5125 399.524C113.5125 397.86716 114.855644 396.524 116.5125 396.524C118.16936 396.524 119.5125 397.86716 119.5125 399.524Z" fill-rule="nonzero"/><path fill="#000000" fill-opacity="0.0" clip-path="url(#id_0)" d="M175.36667 398.032C175.36667 399.68884 174.02351 401.032 172.36667 401.032C170.70981 401.032 169.36667 399.68884 169.36667 398.032C169.36667 396.37515 170.70981 395.032 172.36667 395.032C174.02351 395.032 175.36667 396.37515 175.36667 398.032Z" fill-rule="nonzero"/><path fill="#000000" fill-opacity="0.0" clip-path="url(#id_0)" d="M231.22084 395.048C231.22084 396.70486 229.87769 398.048 228.22084 398.048C226.56398 398.048 225.22084 396.70486 225.22084 395.048C225.22084 393.39114 226.56398 392.048 228.22084 392.048C229.87769 392.048 231.22084 393.39114 231.22084 395.048Z" fill-rule="nonzero"/><path fill="#000000" fill-opacity="0.0" clip-path="url(#id_0)" d="M287.075 390.572C287.075 392.22885 285.73184 393.572 284.075 393.572C282.41815 393.572 281.075 392.22885 281.075 390.572C281.075 388.91513 282.41815 387.572 284.075 387.572C285.73184 387.572 287.075 388.91513 287.075 390.572Z" fill-rule="nonzero"/><path fill="#000000" fill-opacity="0.0" clip-path="url(#id_0)" d="M622.2 368.192C622.2 369.84885 620.8569 371.192 619.2 371.192C617.54315 371.192 616.2 369.84885 616.2 368.192C616.2 366.53516 617.54315 365.192 619.2 365.192C620.8569 365.192 622.2 366.53516 622.2 368.192Z" fill-rule="nonzero"/><path fill="#000000" fill-opacity="0.0" clip-path="url(#id_0)" d="M86.0 402.508C86.0 404.16486 84.65685 405.508 83.0 405.508C81.34315 405.508 80.0 404.16486 80.0 402.508C80.0 400.85114 81.34315 399.508 83.0 399.508C84.65685 399.508 86.0 400.85114 86.0 402.508Z" fill-rule="nonzero"/><path fill="#000000" fill-opacity="0.0" clip-path="url(#id_0)" d="M119.5125 399.524C119.5125 401.18085 118.16936 402.524 116.5125 402.524C114.855644 402.524 113.5125 401.18085 113.5125 399.524C113.5125 397.86716 114.855644 396.524 116.5125 396.524C118.16936 396.524 119.5125 397.86716 119.5125 399.524Z" fill-rule="nonzero"/><path fill="#000000" fill-opacity="0.0" clip-path="url(#id_0)" d="M175.36667 399.524C175.36667 401.18085 174.02351 402.524 172.36667 402.524C170.70981 402.524 169.36667 401.18085 169.36667 399.524C169.36667 397.86716 170.70981 396.524 172.36667 396.524C174.02351 396.524 175.36667 397.86716 175.36667 399.524Z" fill-rule="nonzero"/><path fill="#000000" fill-opacity="0.0" clip-path="url(#id_0)" d="M231.22084 396.54C231.22084 398.19687 229.87769 399.54 228.22084 399.54C226.56398 399.54 225.22084 398.19687 225.22084 396.54C225.22084 394.88315 226.56398 393.54 228.22084 393.54C229.87769 393.54 231.22084 394.88315 231.22084 396.54Z" fill-rule="nonzero"/><path fill="#000000" fill-opacity="0.0" clip-path="url(#id_0)" d="M287.075 392.064C287.075 393.72086 285.73184 395.064 284.075 395.064C282.41815 395.064 281.075 393.72086 281.075 392.064C281.075 390.40714 282.41815 389.064 284.075 389.064C285.73184 389.064 287.075 390.40714 287.075 392.064Z" fill-rule="nonzero"/><path fill="#000000" fill-opacity="0.0" clip-path="url(#id_0)" d="M622.2 372.668C622.2 374.32486 620.8569 375.668 619.2 375.668C617.54315 375.668 616.2 374.32486 616.2 372.668C616.2 371.01114 617.54315 369.668 619.2 369.668C620.8569 369.668 622.2 371.01114 622.2 372.668Z" fill-rule="nonzero"/><path fill="#000000" fill-opacity="0.0" clip-path="url(#id_0)" d="M86.0 402.508C86.0 404.16486 84.65685 405.508 83.0 405.508C81.34315 405.508 80.0 404.16486 80.0 402.508C80.0 400.85114 81.34315 399.508 83.0 399.508C84.65685 399.508 86.0 400.85114 86.0 402.508Z" fill-rule="nonzero"/><path fill="#000000" fill-opacity="0.0" clip-path="url(#id_0)" d="M119.5125 401.016C119.5125 402.67285 118.16936 404.016 116.5125 404.016C114.855644 404.016 113.5125 402.67285 113.5125 401.016C113.5125 399.35913 114.855644 398.016 116.5125 398.016C118.16936 398.016 119.5125 399.35913 119.5125 401.016Z" fill-rule="nonzero"/><path fill="#000000" fill-opacity="0.0" clip-path="url(#id_0)" d="M175.36667 395.048C175.36667 396.70486 174.02351 398.048 172.36667 398.048C170.70981 398.048 169.36667 396.70486 169.36667 395.048C169.36667 393.39114 170.70981 392.048 172.36667 392.048C174.02351 392.048 175.36667 393.39114 175.36667 395.048Z" fill-rule="nonzero"/><path fill="#000000" fill-opacity="0.0" clip-path="url(#id_0)" d="M231.22084 378.636C231.22084 380.29285 229.87769 381.636 228.22084 381.636C226.56398 381.636 225.22084 380.29285 225.22084 378.636C225.22084 376.97916 226.56398 375.636 228.22084 375.636C229.87769 375.636 231.22084 376.97916 231.22084 378.636Z" fill-rule="nonzero"/><path fill="#000000" fill-opacity="0.0" clip-path="url(#id_0)" d="M287.075 377.144C287.075 378.80084 285.73184 380.144 284.075 380.144C282.41815 380.144 281.075 378.80084 281.075 377.144C281.075 375.48715 282.41815 374.144 284.075 374.144C285.73184 374.144 287.075 375.48715 287.075 377.144Z" fill-rule="nonzero"/><path fill="#000000" fill-opacity="0.0" clip-path="url(#id_0)" d="M622.2 271.212C622.2 272.86887 620.8569 274.212 619.2 274.212C617.54315 274.212 616.2 272.86887 616.2 271.212C616.2 269.55515 617.54315 268.212 619.2 268.212C620.8569 268.212 622.2 269.55515 622.2 271.212Z" fill-rule="nonzero"/><path fill="#000000" fill-opacity="0.0" clip-path="url(#id_0)" d="M86.0 402.508C86.0 404.16486 84.65685 405.508 83.0 405.508C81.34315 405.508 80.0 404.16486 80.0 402.508C80.0 400.85114 81.34315 399.508 83.0 399.508C84.65685 399.508 86.0 400.85114 86.0 402.508Z" fill-rule="nonzero"/><path fill="#000000" fill-opacity="0.0" clip-path="url(#id_0)" d="M119.5125 401.016C119.5125 402.67285 118.16936 404.016 116.5125 404.016C114.855644 404.016 113.5125 402.67285 113.5125 401.016C113.5125 399.35913 114.855644 398.016 116.5125 398.016C118.16936 398.016 119.5125 399.35913 119.5125 401.016Z" fill-rule="nonzero"/><path fill="#000000" fill-opacity="0.0" clip-path="url(#id_0)" d="M175.36667 399.524C175.36667 401.18085 174.02351 402.524 172.36667 402.524C170.70981 402.524 169.36667 401.18085 169.36667 399.524C169.36667 397.86716 170.70981 396.524 172.36667 396.524C174.02351 396.524 175.36667 397.86716 175.36667 399.524Z" fill-rule="nonzero"/><path fill="#000000" fill-opacity="0.0" clip-path="url(#id_0)" d="M231.22084 396.54C231.22084 398.19687 229.87769 399.54 228.22084 399.54C226.56398 399.54 225.22084 398.19687 225.22084 396.54C225.22084 394.88315 226.56398 393.54 228.22084 393.54C229.87769 393.54 231.22084 394.88315 231.22084 396.54Z" fill-rule="nonzero"/><path fill="#000000" fill-opacity="0.0" clip-path="url(#id_0)" d="M287.075 395.048C287.075 396.70486 285.73184 398.048 284.075 398.048C282.41815 398.048 281.075 396.70486 281.075 395.048C281.075 393.39114 282.41815 392.048 284.075 392.048C285.73184 392.048 287.075 393.39114 287.075 395.048Z" fill-rule="nonzero"/><path fill="#000000" fill-opacity="0.0" clip-path="url(#id_0)" d="M622.2 381.62C622.2 383.27686 620.8569 384.62 619.2 384.62C617.54315 384.62 616.2 383.27686 616.2 381.62C616.2 379.96313 617.54315 378.62 619.2 378.62C620.8569 378.62 622.2 379.96313 622.2 381.62Z" fill-rule="nonzero"/><path fill="#000000" fill-opacity="0.0" clip-path="url(#id_0)" d="M86.0 401.016C86.0 402.67285 84.65685 404.016 83.0 404.016C81.34315 404.016 80.0 402.67285 80.0 401.016C80.0 399.35913 81.34315 398.016 83.0 398.016C84.65685 398.016 86.0 399.35913 86.0 401.016Z" fill-rule="nonzero"/><path fill="#000000" fill-opacity="0.0" clip-path="url(#id_0)" d="M119.5125 399.524C119.5125 401.18085 118.16936 402.524 116.5125 402.524C114.855644 402.524 113.5125 401.18085 113.5125 399.524C113.5125 397.86716 114.855644 396.524 116.5125 396.524C118.16936 396.524 119.5125 397.86716 119.5125 399.524Z" fill-rule="nonzero"/><path fill="#000000" fill-opacity="0.0" clip-path="url(#id_0)" d="M175.36667 392.064C175.36667 393.72086 174.02351 395.064 172.36667 395.064C170.70981 395.064 169.36667 393.72086 169.36667 392.064C169.36667 390.40714 170.70981 389.064 172.36667 389.064C174.02351 389.064 175.36667 390.40714 175.36667 392.064Z" fill-rule="nonzero"/><path fill="#000000" fill-opacity="0.0" clip-path="url(#id_0)" d="M231.22084 380.128C231.22084 381.78485 229.87769 383.128 228.22084 383.128C226.56398 383.128 225.22084 381.78485 225.22084 380.128C225.22084 378.47116 226.56398 377.128 228.22084 377.128C229.87769 377.128 231.22084 378.47116 231.22084 380.128Z" fill-rule="nonzero"/><path fill="#000000" fill-opacity="0.0" clip-path="url(#id_0)" d="M287.075 366.7C287.075 368.35684 285.73184 369.7 284.075 369.7C282.41815 369.7 281.075 368.35684 281.075 366.7C281.075 365.04315 282.41815 363.7 284.075 363.7C285.73184 363.7 287.075 365.04315 287.075 366.7Z" fill-rule="nonzero"/><path fill="#000000" fill-opacity="0.0" clip-path="url(#id_0)" d="M622.2 192.136C622.2 193.79285 620.8569 195.136 619.2 195.136C617.54315 195.136 616.2 193.79285 616.2 192.136C616.2 190.47914 617.54315 189.136 619.2 189.136C620.8569 189.136 622.2 190.47914 622.2 192.136Z" fill-rule="nonzero"/><path fill="#000000" fill-opacity="0.0" clip-path="url(#id_0)" d="M86.0 402.508C86.0 404.16486 84.65685 405.508 83.0 405.508C81.34315 405.508 80.0 404.16486 80.0 402.508C80.0 400.85114 81.34315 399.508 83.0 399.508C84.65685 399.508 86.0 400.85114 86.0 402.508Z" fill-rule="nonzero"/><path fill="#000000" fill-opacity="0.0" clip-path="url(#id_0)" d="M119.5125 401.016C119.5125 402.67285 118.16936 404.016 116.5125 404.016C114.855644 404.016 113.5125 402.67285 113.5125 401.016C113.5125 399.35913 114.855644 398.016 116.5125 398.016C118.16936 398.016 119.5125 399.35913 119.5125 401.016Z" fill-rule="nonzero"/><path fill="#000000" fill-opacity="0.0" clip-path="url(#id_0)" d="M175.36667 395.048C175.36667 396.70486 174.02351 398.048 172.36667 398.048C170.70981 398.048 169.36667 396.70486 169.36667 395.048C169.36667 393.39114 170.70981 392.048 172.36667 392.048C174.02351 392.048 175.36667 393.39114 175.36667 395.048Z" fill-rule="nonzero"/><path fill="#000000" fill-opacity="0.0" clip-path="url(#id_0)" d="M231.22084 383.112C231.22084 384.76886 229.87769 386.112 228.22084 386.112C226.56398 386.112 225.22084 384.76886 225.22084 383.112C225.22084 381.45514 226.56398 380.112 228.22084 380.112C229.87769 380.112 231.22084 381.45514 231.22084 383.112Z" fill-rule="nonzero"/><path fill="#000000" fill-opacity="0.0" clip-path="url(#id_0)" d="M287.075 368.192C287.075 369.84885 285.73184 371.192 284.075 371.192C282.41815 371.192 281.075 369.84885 281.075 368.192C281.075 366.53516 282.41815 365.192 284.075 365.192C285.73184 365.192 287.075 366.53516 287.075 368.192Z" fill-rule="nonzero"/><path fill="#000000" fill-opacity="0.0" clip-path="url(#id_0)" d="M622.2 208.548C622.2 210.20485 620.8569 211.548 619.2 211.548C617.54315 211.548 616.2 210.20485 616.2 208.548C616.2 206.89114 617.54315 205.548 619.2 205.548C620.8569 205.548 622.2 206.89114 622.2 208.548Z" fill-rule="nonzero"/><path fill="#000000" fill-opacity="0.0" clip-path="url(#id_0)" d="M86.0 402.508C86.0 404.16486 84.65685 405.508 83.0 405.508C81.34315 405.508 80.0 404.16486 80.0 402.508C80.0 400.85114 81.34315 399.508 83.0 399.508C84.65685 399.508 86.0 400.85114 86.0 402.508Z" fill-rule="nonzero"/><path fill="#000000" fill-opacity="0.0" clip-path="url(#id_0)" d="M119.5125 401.016C119.5125 402.67285 118.16936 404.016 116.5125 404.016C114.855644 404.016 113.5125 402.67285 113.5125 401.016C113.5125 399.35913 114.855644 398.016 116.5125 398.016C118.16936 398.016 119.5125 399.35913 119.5125 401.016Z" fill-rule="nonzero"/><path fill="#000000" fill-opacity="0.0" clip-path="url(#id_0)" d="M175.36667 395.048C175.36667 396.70486 174.02351 398.048 172.36667 398.048C170.70981 398.048 169.36667 396.70486 169.36667 395.048C169.36667 393.39114 170.70981 392.048 172.36667 392.048C174.02351 392.048 175.36667 393.39114 175.36667 395.048Z" fill-rule="nonzero"/><path fill="#000000" fill-opacity="0.0" clip-path="url(#id_0)" d="M231.22084 386.096C231.22084 387.75287 229.87769 389.096 228.22084 389.096C226.56398 389.096 225.22084 387.75287 225.22084 386.096C225.22084 384.43915 226.56398 383.096 228.22084 383.096C229.87769 383.096 231.22084 384.43915 231.22084 386.096Z" fill-rule="nonzero"/><path fill="#000000" fill-opacity="0.0" clip-path="url(#id_0)" d="M287.075 377.144C287.075 378.80084 285.73184 380.144 284.075 380.144C282.41815 380.144 281.075 378.80084 281.075 377.144C281.075 375.48715 282.41815 374.144 284.075 374.144C285.73184 374.144 287.075 375.48715 287.075 377.144Z" fill-rule="nonzero"/><path fill="#000000" fill-opacity="0.0" clip-path="url(#id_0)" d="M622.2 230.928C622.2 232.58485 620.8569 233.928 619.2 233.928C617.54315 233.928 616.2 232.58485 616.2 230.928C616.2 229.27115 617.54315 227.928 619.2 227.928C620.8569 227.928 622.2 229.27115 622.2 230.928Z" fill-rule="nonzero"/><path fill="#000000" fill-opacity="0.0" clip-path="url(#id_0)" d="M86.0 402.508C86.0 404.16486 84.65685 405.508 83.0 405.508C81.34315 405.508 80.0 404.16486 80.0 402.508C80.0 400.85114 81.34315 399.508 83.0 399.508C84.65685 399.508 86.0 400.85114 86.0 402.508Z" fill-rule="nonzero"/><path fill="#000000" fill-opacity="0.0" clip-path="url(#id_0)" d="M119.5125 399.524C119.5125 401.18085 118.16936 402.524 116.5125 402.524C114.855644 402.524 113.5125 401.18085 113.5125 399.524C113.5125 397.86716 114.855644 396.524 116.5125 396.524C118.16936 396.524 119.5125 397.86716 119.5125 399.524Z" fill-rule="nonzero"/><path fill="#000000" fill-opacity="0.0" clip-path="url(#id_0)" d="M175.36667 398.032C175.36667 399.68884 174.02351 401.032 172.36667 401.032C170.70981 401.032 169.36667 399.68884 169.36667 398.032C169.36667 396.37515 170.70981 395.032 172.36667 395.032C174.02351 395.032 175.36667 396.37515 175.36667 398.032Z" fill-rule="nonzero"/><path fill="#000000" fill-opacity="0.0" clip-path="url(#id_0)" d="M231.22084 392.064C231.22084 393.72086 229.87769 395.064 228.22084 395.064C226.56398 395.064 225.22084 393.72086 225.22084 392.064C225.22084 390.40714 226.56398 389.064 228.22084 389.064C229.87769 389.064 231.22084 390.40714 231.22084 392.064Z" fill-rule="nonzero"/><path fill="#000000" fill-opacity="0.0" clip-path="url(#id_0)" d="M287.075 384.604C287.075 386.26086 285.73184 387.604 284.075 387.604C282.41815 387.604 281.075 386.26086 281.075 384.604C281.075 382.94714 282.41815 381.604 284.075 381.604C285.73184 381.604 287.075 382.94714 287.075 384.604Z" fill-rule="nonzero"/><path fill="#000000" fill-opacity="0.0" clip-path="url(#id_0)" d="M622.2 42.936C622.2 44.592854 620.8569 45.936 619.2 45.936C617.54315 45.936 616.2 44.592854 616.2 42.936C616.2 41.279144 617.54315 39.936 619.2 39.936C620.8569 39.936 622.2 41.279144 622.2 42.936Z" fill-rule="nonzero"/><path fill="#000000" fill-opacity="0.0" clip-path="url(#id_0)" d="M86.0 402.508C86.0 404.16486 84.65685 405.508 83.0 405.508C81.34315 405.508 80.0 404.16486 80.0 402.508C80.0 400.85114 81.34315 399.508 83.0 399.508C84.65685 399.508 86.0 400.85114 86.0 402.508Z" fill-rule="nonzero"/><path fill="#000000" fill-opacity="0.0" clip-path="url(#id_0)" d="M119.5125 401.016C119.5125 402.67285 118.16936 404.016 116.5125 404.016C114.855644 404.016 113.5125 402.67285 113.5125 401.016C113.5125 399.35913 114.855644 398.016 116.5125 398.016C118.16936 398.016 119.5125 399.35913 119.5125 401.016Z" fill-rule="nonzero"/><path fill="#000000" fill-opacity="0.0" clip-path="url(#id_0)" d="M175.36667 395.048C175.36667 396.70486 174.02351 398.048 172.36667 398.048C170.70981 398.048 169.36667 396.70486 169.36667 395.048C169.36667 393.39114 170.70981 392.048 172.36667 392.048C174.02351 392.048 175.36667 393.39114 175.36667 395.048Z" fill-rule="nonzero"/><path fill="#000000" fill-opacity="0.0" clip-path="url(#id_0)" d="M231.22084 390.572C231.22084 392.22885 229.87769 393.572 228.22084 393.572C226.56398 393.572 225.22084 392.22885 225.22084 390.572C225.22084 388.91513 226.56398 387.572 228.22084 387.572C229.87769 387.572 231.22084 388.91513 231.22084 390.572Z" fill-rule="nonzero"/><path fill="#000000" fill-opacity="0.0" clip-path="url(#id_0)" d="M287.075 381.62C287.075 383.27686 285.73184 384.62 284.075 384.62C282.41815 384.62 281.075 383.27686 281.075 381.62C281.075 379.96313 282.41815 378.62 284.075 378.62C285.73184 378.62 287.075 379.96313 287.075 381.62Z" fill-rule="nonzero"/><path fill="#000000" fill-opacity="0.0" clip-path="url(#id_0)" d="M622.2 290.608C622.2 292.26486 620.8569 293.608 619.2 293.608C617.54315 293.608 616.2 292.26486 616.2 290.608C616.2 288.95114 617.54315 287.608 619.2 287.608C620.8569 287.608 622.2 288.95114 622.2 290.608Z" fill-rule="nonzero"/><path fill="#000000" d="M348.39688 453.0L348.39688 446.78125L349.33438 446.78125L349.33438 447.65625Q350.02188 446.64062 351.31876 446.64062Q351.88126 446.64062 352.35 446.84375Q352.83438 447.04688 353.06876 447.375Q353.30313 447.70312 353.39688 448.14062Q353.44376 448.4375 353.44376 449.17188L353.44376 453.0L352.39688 453.0L352.39688 449.21875Q352.39688 448.5625 352.27188 448.25Q352.14688 447.9375 351.83438 447.75Q351.52188 447.54688 351.1 447.54688Q350.42813 447.54688 349.92813 447.98438Q349.44376 448.40625 349.44376 449.59375L349.44376 453.0L348.39688 453.0Z" fill-rule="nonzero"/><path fill="#000000" d="M35.0 241.20312L28.78125 241.20312L28.78125 240.26562L29.65625 240.26562Q29.1875 239.96875 28.921875 239.48438Q28.640625 239.0 28.640625 238.375Q28.640625 237.6875 28.921875 237.25Q29.203125 236.79688 29.71875 236.625Q28.640625 235.875 28.640625 234.70312Q28.640625 233.76562 29.15625 233.28125Q29.65625 232.78125 30.734375 232.78125L35.0 232.78125L35.0 233.82812L31.078125 233.82812Q30.453125 233.82812 30.171875 233.9375Q29.890625 234.03125 29.71875 234.29688Q29.546875 234.5625 29.546875 234.9375Q29.546875 235.59375 29.984375 236.03125Q30.421875 236.45312 31.390625 236.45312L35.0 236.45312L35.0 237.51562L30.953125 237.51562Q30.25 237.51562 29.90625 237.78125Q29.546875 238.03125 29.546875 238.60938Q29.546875 239.0625 29.78125 239.4375Q30.015625 239.8125 30.46875 239.98438Q30.921875 240.15625 31.765625 240.15625L35.0 240.15625L35.0 241.20312ZM27.625 231.20312L26.40625 231.20312L26.40625 230.14062L27.625 230.14062L27.625 231.20312ZM35.0 231.20312L28.78125 231.20312L28.78125 230.14062L35.0 230.14062L35.0 231.20312ZM32.71875 224.14062L32.859375 223.10938Q33.921875 223.28125 34.53125 223.98438Q35.140625 224.6875 35.140625 225.70312Q35.140625 226.98438 34.3125 227.76562Q33.46875 228.53125 31.90625 228.53125Q30.90625 228.53125 30.15625 228.20312Q29.390625 227.85938 29.015625 227.1875Q28.640625 226.5 28.640625 225.6875Q28.640625 224.6875 29.15625 224.04688Q29.65625 223.39062 30.609375 223.20312L30.765625 224.23438Q30.140625 224.375 29.828125 224.75Q29.5 225.125 29.5 225.65625Q29.5 226.45312 30.078125 226.95312Q30.640625 227.45312 31.875 227.45312Q33.140625 227.45312 33.703125 226.96875Q34.265625 226.48438 34.265625 225.71875Q34.265625 225.09375 33.890625 224.6875Q33.515625 224.26562 32.71875 224.14062ZM35.0 222.21875L28.78125 222.21875L28.78125 221.26562L29.71875 221.26562Q29.0625 220.90625 28.859375 220.60938Q28.640625 220.29688 28.640625 219.92188Q28.640625 219.39062 28.96875 218.84375L29.953125 219.20312Q29.71875 219.59375 29.71875 219.96875Q29.71875 220.32812 29.9375 220.60938Q30.140625 220.875 30.515625 220.98438Q31.078125 221.17188 31.734375 221.17188L35.0 221.17188L35.0 222.21875ZM31.890625 218.59375Q30.15625 218.59375 29.328125 217.64062Q28.640625 216.84375 28.640625 215.6875Q28.640625 214.40625 29.484375 213.59375Q30.3125 212.76562 31.796875 212.76562Q33.0 212.76562 33.6875 213.125Q34.375 213.48438 34.765625 214.1875Q35.140625 214.875 35.140625 215.6875Q35.140625 216.98438 34.3125 217.79688Q33.46875 218.59375 31.890625 218.59375ZM31.890625 217.51562Q33.078125 217.51562 33.671875 217.0Q34.265625 216.46875 34.265625 215.6875Q34.265625 214.89062 33.671875 214.375Q33.078125 213.85938 31.859375 213.85938Q30.703125 213.85938 30.109375 214.39062Q29.515625 214.90625 29.515625 215.6875Q29.515625 216.46875 30.109375 217.0Q30.6875 217.51562 31.890625 217.51562ZM33.140625 211.625L32.984375 210.59375Q33.609375 210.5 33.9375 210.10938Q34.265625 209.70312 34.265625 208.96875Q34.265625 208.25 33.984375 207.90625Q33.6875 207.54688 33.28125 207.54688Q32.921875 207.54688 32.71875 207.85938Q32.578125 208.07812 32.359375 208.9375Q32.0625 210.09375 31.859375 210.54688Q31.640625 210.98438 31.265625 211.21875Q30.890625 211.45312 30.421875 211.45312Q30.015625 211.45312 29.65625 211.26562Q29.296875 211.07812 29.0625 210.75Q28.890625 210.5 28.765625 210.07812Q28.640625 209.65625 28.640625 209.15625Q28.640625 208.4375 28.859375 207.89062Q29.0625 207.32812 29.421875 207.0625Q29.78125 206.79688 30.375 206.70312L30.515625 207.73438Q30.046875 207.79688 29.78125 208.14062Q29.5 208.46875 29.5 209.09375Q29.5 209.8125 29.75 210.125Q29.984375 210.4375 30.3125 210.4375Q30.515625 210.4375 30.671875 210.3125Q30.84375 210.17188 30.953125 209.90625Q31.015625 209.75 31.21875 208.96875Q31.53125 207.84375 31.71875 207.40625Q31.90625 206.96875 32.265625 206.71875Q32.625 206.46875 33.171875 206.46875Q33.703125 206.46875 34.171875 206.78125Q34.625 207.07812 34.890625 207.65625Q35.140625 208.23438 35.140625 208.96875Q35.140625 210.1875 34.640625 210.82812Q34.125 211.45312 33.140625 211.625Z" fill-rule="nonzero"/><path fill="#000000" d="M70.5 403.76562Q70.5 402.23438 70.8125 401.3125Q71.125 400.375 71.734375 399.875Q72.359375 399.375 73.296875 399.375Q73.984375 399.375 74.5 399.65625Q75.03125 399.9375 75.375 400.46875Q75.71875 400.98438 75.90625 401.73438Q76.09375 402.48438 76.09375 403.76562Q76.09375 405.28125 75.78125 406.20312Q75.484375 407.125 74.859375 407.64062Q74.25 408.14062 73.296875 408.14062Q72.0625 408.14062 71.34375 407.25Q70.5 406.1875 70.5 403.76562ZM71.578125 403.76562Q71.578125 405.875 72.078125 406.57812Q72.578125 407.28125 73.296875 407.28125Q74.03125 407.28125 74.515625 406.57812Q75.015625 405.875 75.015625 403.76562Q75.015625 401.64062 74.515625 400.95312Q74.03125 400.25 73.28125 400.25Q72.5625 400.25 72.125 400.85938Q71.578125 401.64062 71.578125 403.76562Z" fill-rule="nonzero"/><path fill="#000000" d="M63.5 331.15L64.609375 331.05624Q64.734375 331.86874 65.171875 332.275Q65.625 332.68124 66.265625 332.68124Q67.015625 332.68124 67.546875 332.10312Q68.078125 331.525 68.078125 330.5875Q68.078125 329.68124 67.5625 329.16562Q67.0625 328.63437 66.234375 328.63437Q65.734375 328.63437 65.3125 328.86874Q64.90625 329.10312 64.671875 329.4625L63.6875 329.3375L64.515625 324.93124L68.796875 324.93124L68.796875 325.93124L65.359375 325.93124L64.90625 328.24374Q65.671875 327.69687 66.515625 327.69687Q67.640625 327.69687 68.40625 328.47812Q69.1875 329.25937 69.1875 330.49374Q69.1875 331.65 68.515625 332.50937Q67.6875 333.54062 66.265625 333.54062Q65.09375 333.54062 64.34375 332.88437Q63.609375 332.22812 63.5 331.15ZM70.5 329.16562Q70.5 327.63437 70.8125 326.7125Q71.125 325.775 71.734375 325.275Q72.359375 324.775 73.296875 324.775Q73.984375 324.775 74.5 325.05624Q75.03125 325.3375 75.375 325.86874Q75.71875 326.38437 75.90625 327.13437Q76.09375 327.88437 76.09375 329.16562Q76.09375 330.68124 75.78125 331.60312Q75.484375 332.525 74.859375 333.04062Q74.25 333.54062 73.296875 333.54062Q72.0625 333.54062 71.34375 332.65Q70.5 331.5875 70.5 329.16562ZM71.578125 329.16562Q71.578125 331.275 72.078125 331.97812Q72.578125 332.68124 73.296875 332.68124Q74.03125 332.68124 74.515625 331.97812Q75.015625 331.275 75.015625 329.16562Q75.015625 327.04062 74.515625 326.35312Q74.03125 325.65 73.28125 325.65Q72.5625 325.65 72.125 326.25937Q71.578125 327.04062 71.578125 329.16562Z" fill-rule="nonzero"/><path fill="#000000" d="M60.46875 258.8L59.421875 258.8L59.421875 252.08124Q59.03125 252.44061 58.40625 252.81561Q57.796875 253.17499 57.3125 253.34686L57.3125 252.33124Q58.1875 251.90936 58.84375 251.33124Q59.515625 250.73749 59.796875 250.17499L60.46875 250.17499L60.46875 258.8ZM63.5 254.56561Q63.5 253.03436 63.8125 252.11249Q64.125 251.17499 64.734375 250.67499Q65.359375 250.17499 66.296875 250.17499Q66.984375 250.17499 67.5 250.45624Q68.03125 250.73749 68.375 251.26874Q68.71875 251.78436 68.90625 252.53436Q69.09375 253.28436 69.09375 254.56561Q69.09375 256.08124 68.78125 257.0031Q68.484375 257.925 67.859375 258.4406Q67.25 258.9406 66.296875 258.9406Q65.0625 258.9406 64.34375 258.05Q63.5 256.9875 63.5 254.56561ZM64.578125 254.56561Q64.578125 256.675 65.078125 257.3781Q65.578125 258.08124 66.296875 258.08124Q67.03125 258.08124 67.515625 257.3781Q68.015625 256.675 68.015625 254.56561Q68.015625 252.44061 67.515625 251.75311Q67.03125 251.04999 66.28125 251.04999Q65.5625 251.04999 65.125 251.65936Q64.578125 252.44061 64.578125 254.56561ZM70.5 254.56561Q70.5 253.03436 70.8125 252.11249Q71.125 251.17499 71.734375 250.67499Q72.359375 250.17499 73.296875 250.17499Q73.984375 250.17499 74.5 250.45624Q75.03125 250.73749 75.375 251.26874Q75.71875 251.78436 75.90625 252.53436Q76.09375 253.28436 76.09375 254.56561Q76.09375 256.08124 75.78125 257.0031Q75.484375 257.925 74.859375 258.4406Q74.25 258.9406 73.296875 258.9406Q72.0625 258.9406 71.34375 258.05Q70.5 256.9875 70.5 254.56561ZM71.578125 254.56561Q71.578125 256.675 72.078125 257.3781Q72.578125 258.08124 73.296875 258.08124Q74.03125 258.08124 74.515625 257.3781Q75.015625 256.675 75.015625 254.56561Q75.015625 252.44061 74.515625 251.75311Q74.03125 251.04999 73.28125 251.04999Q72.5625 251.04999 72.125 251.65936Q71.578125 252.44061 71.578125 254.56561Z" fill-rule="nonzero"/><path fill="#000000" d="M60.46875 184.2L59.421875 184.2L59.421875 177.48125Q59.03125 177.84062 58.40625 178.21562Q57.796875 178.575 57.3125 178.74687L57.3125 177.73125Q58.1875 177.30937 58.84375 176.73125Q59.515625 176.1375 59.796875 175.575L60.46875 175.575L60.46875 184.2ZM63.5 181.95L64.609375 181.85625Q64.734375 182.66875 65.171875 183.075Q65.625 183.48125 66.265625 183.48125Q67.015625 183.48125 67.546875 182.90312Q68.078125 182.325 68.078125 181.3875Q68.078125 180.48125 67.5625 179.96562Q67.0625 179.43437 66.234375 179.43437Q65.734375 179.43437 65.3125 179.66875Q64.90625 179.90312 64.671875 180.2625L63.6875 180.1375L64.515625 175.73125L68.796875 175.73125L68.796875 176.73125L65.359375 176.73125L64.90625 179.04375Q65.671875 178.49687 66.515625 178.49687Q67.640625 178.49687 68.40625 179.27812Q69.1875 180.05937 69.1875 181.29375Q69.1875 182.45 68.515625 183.30937Q67.6875 184.34062 66.265625 184.34062Q65.09375 184.34062 64.34375 183.68437Q63.609375 183.02812 63.5 181.95ZM70.5 179.96562Q70.5 178.43437 70.8125 177.5125Q71.125 176.575 71.734375 176.075Q72.359375 175.575 73.296875 175.575Q73.984375 175.575 74.5 175.85625Q75.03125 176.1375 75.375 176.66875Q75.71875 177.18437 75.90625 177.93437Q76.09375 178.68437 76.09375 179.96562Q76.09375 181.48125 75.78125 182.40312Q75.484375 183.325 74.859375 183.84062Q74.25 184.34062 73.296875 184.34062Q72.0625 184.34062 71.34375 183.45Q70.5 182.3875 70.5 179.96562ZM71.578125 179.96562Q71.578125 182.075 72.078125 182.77812Q72.578125 183.48125 73.296875 183.48125Q74.03125 183.48125 74.515625 182.77812Q75.015625 182.075 75.015625 179.96562Q75.015625 177.84062 74.515625 177.15312Q74.03125 176.45 73.28125 176.45Q72.5625 176.45 72.125 177.05937Q71.578125 177.84062 71.578125 179.96562Z" fill-rule="nonzero"/><path fill="#000000" d="M62.046875 108.58437L62.046875 109.6L56.359375 109.6Q56.359375 109.225 56.484375 108.86562Q56.703125 108.2875 57.171875 107.725Q57.65625 107.1625 58.5625 106.42812Q59.96875 105.27187 60.453125 104.6Q60.953125 103.92812 60.953125 103.33437Q60.953125 102.70937 60.5 102.2875Q60.046875 101.85 59.328125 101.85Q58.5625 101.85 58.109375 102.30312Q57.65625 102.75625 57.640625 103.56875L56.5625 103.45937Q56.671875 102.24062 57.390625 101.61562Q58.125 100.975 59.359375 100.975Q60.59375 100.975 61.3125 101.6625Q62.03125 102.35 62.03125 103.36562Q62.03125 103.88125 61.8125 104.38125Q61.609375 104.86562 61.109375 105.42812Q60.625 105.975 59.5 106.92812Q58.546875 107.725 58.265625 108.02187Q58.0 108.30312 57.828125 108.58437L62.046875 108.58437ZM63.5 105.36562Q63.5 103.83437 63.8125 102.9125Q64.125 101.975 64.734375 101.475Q65.359375 100.975 66.296875 100.975Q66.984375 100.975 67.5 101.25625Q68.03125 101.5375 68.375 102.06875Q68.71875 102.58437 68.90625 103.33437Q69.09375 104.08437 69.09375 105.36562Q69.09375 106.88125 68.78125 107.80312Q68.484375 108.725 67.859375 109.24062Q67.25 109.74062 66.296875 109.74062Q65.0625 109.74062 64.34375 108.85Q63.5 107.7875 63.5 105.36562ZM64.578125 105.36562Q64.578125 107.475 65.078125 108.17812Q65.578125 108.88125 66.296875 108.88125Q67.03125 108.88125 67.515625 108.17812Q68.015625 107.475 68.015625 105.36562Q68.015625 103.24062 67.515625 102.55312Q67.03125 101.85 66.28125 101.85Q65.5625 101.85 65.125 102.45937Q64.578125 103.24062 64.578125 105.36562ZM70.5 105.36562Q70.5 103.83437 70.8125 102.9125Q71.125 101.975 71.734375 101.475Q72.359375 100.975 73.296875 100.975Q73.984375 100.975 74.5 101.25625Q75.03125 101.5375 75.375 102.06875Q75.71875 102.58437 75.90625 103.33437Q76.09375 104.08437 76.09375 105.36562Q76.09375 106.88125 75.78125 107.80312Q75.484375 108.725 74.859375 109.24062Q74.25 109.74062 73.296875 109.74062Q72.0625 109.74062 71.34375 108.85Q70.5 107.7875 70.5 105.36562ZM71.578125 105.36562Q71.578125 107.475 72.078125 108.17812Q72.578125 108.88125 73.296875 108.88125Q74.03125 108.88125 74.515625 108.17812Q75.015625 107.475 75.015625 105.36562Q75.015625 103.24062 74.515625 102.55312Q74.03125 101.85 73.28125 101.85Q72.5625 101.85 72.125 102.45937Q71.578125 103.24062 71.578125 105.36562Z" fill-rule="nonzero"/><path fill="#000000" d="M62.046875 33.984375L62.046875 35.0L56.359375 35.0Q56.359375 34.625 56.484375 34.265625Q56.703125 33.6875 57.171875 33.125Q57.65625 32.5625 58.5625 31.828125Q59.96875 30.671875 60.453125 30.0Q60.953125 29.328125 60.953125 28.734375Q60.953125 28.109375 60.5 27.6875Q60.046875 27.25 59.328125 27.25Q58.5625 27.25 58.109375 27.703125Q57.65625 28.15625 57.640625 28.96875L56.5625 28.859375Q56.671875 27.640625 57.390625 27.015625Q58.125 26.375 59.359375 26.375Q60.59375 26.375 61.3125 27.0625Q62.03125 27.75 62.03125 28.765625Q62.03125 29.28125 61.8125 29.78125Q61.609375 30.265625 61.109375 30.828125Q60.625 31.375 59.5 32.328125Q58.546875 33.125 58.265625 33.421875Q58.0 33.703125 57.828125 33.984375L62.046875 33.984375ZM63.5 32.75L64.609375 32.65625Q64.734375 33.46875 65.171875 33.875Q65.625 34.28125 66.265625 34.28125Q67.015625 34.28125 67.546875 33.703125Q68.078125 33.125 68.078125 32.1875Q68.078125 31.28125 67.5625 30.765625Q67.0625 30.234375 66.234375 30.234375Q65.734375 30.234375 65.3125 30.46875Q64.90625 30.703125 64.671875 31.0625L63.6875 30.9375L64.515625 26.53125L68.796875 26.53125L68.796875 27.53125L65.359375 27.53125L64.90625 29.84375Q65.671875 29.296875 66.515625 29.296875Q67.640625 29.296875 68.40625 30.078125Q69.1875 30.859375 69.1875 32.09375Q69.1875 33.25 68.515625 34.109375Q67.6875 35.140625 66.265625 35.140625Q65.09375 35.140625 64.34375 34.484375Q63.609375 33.828125 63.5 32.75ZM70.5 30.765625Q70.5 29.234375 70.8125 28.3125Q71.125 27.375 71.734375 26.875Q72.359375 26.375 73.296875 26.375Q73.984375 26.375 74.5 26.65625Q75.03125 26.9375 75.375 27.46875Q75.71875 27.984375 75.90625 28.734375Q76.09375 29.484375 76.09375 30.765625Q76.09375 32.28125 75.78125 33.203125Q75.484375 34.125 74.859375 34.640625Q74.25 35.140625 73.296875 35.140625Q72.0625 35.140625 71.34375 34.25Q70.5 33.1875 70.5 30.765625ZM71.578125 30.765625Q71.578125 32.875 72.078125 33.578125Q72.578125 34.28125 73.296875 34.28125Q74.03125 34.28125 74.515625 33.578125Q75.015625 32.875 75.015625 30.765625Q75.015625 28.640625 74.515625 27.953125Q74.03125 27.25 73.28125 27.25Q72.5625 27.25 72.125 27.859375Q71.578125 28.640625 71.578125 30.765625Z" fill-rule="nonzero"/><path fill="#000000" d="M165.86667 418.75L166.97604 418.65625Q167.10104 419.46875 167.53854 419.875Q167.99167 420.28125 168.6323 420.28125Q169.3823 420.28125 169.91354 419.70312Q170.4448 419.125 170.4448 418.1875Q170.4448 417.28125 169.92917 416.76562Q169.42917 416.23438 168.60104 416.23438Q168.10104 416.23438 167.67917 416.46875Q167.27292 416.70312 167.03854 417.0625L166.05417 416.9375L166.8823 412.53125L171.16354 412.53125L171.16354 413.53125L167.72604 413.53125L167.27292 415.84375Q168.03854 415.29688 168.8823 415.29688Q170.0073 415.29688 170.77292 416.07812Q171.55417 416.85938 171.55417 418.09375Q171.55417 419.25 170.8823 420.10938Q170.05417 421.14062 168.6323 421.14062Q167.46042 421.14062 166.71042 420.48438Q165.97604 419.82812 165.86667 418.75ZM172.86667 416.76562Q172.86667 415.23438 173.17917 414.3125Q173.49167 413.375 174.10104 412.875Q174.72604 412.375 175.66354 412.375Q176.35104 412.375 176.86667 412.65625Q177.39792 412.9375 177.74167 413.46875Q178.08542 413.98438 178.27292 414.73438Q178.46042 415.48438 178.46042 416.76562Q178.46042 418.28125 178.14792 419.20312Q177.85104 420.125 177.22604 420.64062Q176.61667 421.14062 175.66354 421.14062Q174.42917 421.14062 173.71042 420.25Q172.86667 419.1875 172.86667 416.76562ZM173.9448 416.76562Q173.9448 418.875 174.4448 419.57812Q174.9448 420.28125 175.66354 420.28125Q176.39792 420.28125 176.8823 419.57812Q177.3823 418.875 177.3823 416.76562Q177.3823 414.64062 176.8823 413.95312Q176.39792 413.25 175.64792 413.25Q174.92917 413.25 174.49167 413.85938Q173.9448 414.64062 173.9448 416.76562Z" fill-rule="nonzero"/><path fill="#000000" d="M278.04376 421.0L276.9969 421.0L276.9969 414.28125Q276.60626 414.64062 275.98126 415.01562Q275.3719 415.375 274.8875 415.54688L274.8875 414.53125Q275.7625 414.10938 276.41876 413.53125Q277.09064 412.9375 277.3719 412.375L278.04376 412.375L278.04376 421.0ZM281.075 416.76562Q281.075 415.23438 281.3875 414.3125Q281.7 413.375 282.3094 412.875Q282.9344 412.375 283.8719 412.375Q284.5594 412.375 285.075 412.65625Q285.60626 412.9375 285.95 413.46875Q286.29376 413.98438 286.48126 414.73438Q286.66876 415.48438 286.66876 416.76562Q286.66876 418.28125 286.35626 419.20312Q286.0594 420.125 285.4344 420.64062Q284.825 421.14062 283.8719 421.14062Q282.6375 421.14062 281.91876 420.25Q281.075 419.1875 281.075 416.76562ZM282.15314 416.76562Q282.15314 418.875 282.65314 419.57812Q283.15314 420.28125 283.8719 420.28125Q284.60626 420.28125 285.09064 419.57812Q285.59064 418.875 285.59064 416.76562Q285.59064 414.64062 285.09064 413.95312Q284.60626 413.25 283.85626 413.25Q283.1375 413.25 282.7 413.85938Q282.15314 414.64062 282.15314 416.76562ZM288.075 416.76562Q288.075 415.23438 288.3875 414.3125Q288.7 413.375 289.3094 412.875Q289.9344 412.375 290.8719 412.375Q291.5594 412.375 292.075 412.65625Q292.60626 412.9375 292.95 413.46875Q293.29376 413.98438 293.48126 414.73438Q293.66876 415.48438 293.66876 416.76562Q293.66876 418.28125 293.35626 419.20312Q293.0594 420.125 292.4344 420.64062Q291.825 421.14062 290.8719 421.14062Q289.6375 421.14062 288.91876 420.25Q288.075 419.1875 288.075 416.76562ZM289.15314 416.76562Q289.15314 418.875 289.65314 419.57812Q290.15314 420.28125 290.8719 420.28125Q291.60626 420.28125 292.09064 419.57812Q292.59064 418.875 292.59064 416.76562Q292.59064 414.64062 292.09064 413.95312Q291.60626 413.25 290.85626 413.25Q290.1375 413.25 289.7 413.85938Q289.15314 414.64062 289.15314 416.76562Z" fill-rule="nonzero"/><path fill="#000000" d="M389.75208 421.0L388.7052 421.0L388.7052 414.28125Q388.31458 414.64062 387.68958 415.01562Q387.0802 415.375 386.59583 415.54688L386.59583 414.53125Q387.47083 414.10938 388.12708 413.53125Q388.79895 412.9375 389.0802 412.375L389.75208 412.375L389.75208 421.0ZM392.78333 418.75L393.8927 418.65625Q394.0177 419.46875 394.4552 419.875Q394.90833 420.28125 395.54895 420.28125Q396.29895 420.28125 396.8302 419.70312Q397.36145 419.125 397.36145 418.1875Q397.36145 417.28125 396.84583 416.76562Q396.34583 416.23438 395.5177 416.23438Q395.0177 416.23438 394.59583 416.46875Q394.18958 416.70312 393.9552 417.0625L392.97083 416.9375L393.79895 412.53125L398.0802 412.53125L398.0802 413.53125L394.6427 413.53125L394.18958 415.84375Q394.9552 415.29688 395.79895 415.29688Q396.92395 415.29688 397.68958 416.07812Q398.47083 416.85938 398.47083 418.09375Q398.47083 419.25 397.79895 420.10938Q396.97083 421.14062 395.54895 421.14062Q394.37708 421.14062 393.62708 420.48438Q392.8927 419.82812 392.78333 418.75ZM399.78333 416.76562Q399.78333 415.23438 400.09583 414.3125Q400.40833 413.375 401.0177 412.875Q401.6427 412.375 402.5802 412.375Q403.2677 412.375 403.78333 412.65625Q404.31458 412.9375 404.65833 413.46875Q405.00208 413.98438 405.18958 414.73438Q405.37708 415.48438 405.37708 416.76562Q405.37708 418.28125 405.06458 419.20312Q404.7677 420.125 404.1427 420.64062Q403.53333 421.14062 402.5802 421.14062Q401.34583 421.14062 400.62708 420.25Q399.78333 419.1875 399.78333 416.76562ZM400.86145 416.76562Q400.86145 418.875 401.36145 419.57812Q401.86145 420.28125 402.5802 420.28125Q403.31458 420.28125 403.79895 419.57812Q404.29895 418.875 404.29895 416.76562Q404.29895 414.64062 403.79895 413.95312Q403.31458 413.25 402.56458 413.25Q401.84583 413.25 401.40833 413.85938Q400.86145 414.64062 400.86145 416.76562Z" fill-rule="nonzero"/><path fill="#000000" d="M503.03854 419.98438L503.03854 421.0L497.35104 421.0Q497.35104 420.625 497.47604 420.26562Q497.6948 419.6875 498.16354 419.125Q498.64792 418.5625 499.55417 417.82812Q500.96042 416.67188 501.4448 416.0Q501.9448 415.32812 501.9448 414.73438Q501.9448 414.10938 501.49167 413.6875Q501.03854 413.25 500.3198 413.25Q499.55417 413.25 499.10104 413.70312Q498.64792 414.15625 498.6323 414.96875L497.55417 414.85938Q497.66354 413.64062 498.3823 413.01562Q499.11667 412.375 500.35104 412.375Q501.58542 412.375 502.30417 413.0625Q503.02292 413.75 503.02292 414.76562Q503.02292 415.28125 502.80417 415.78125Q502.60104 416.26562 502.10104 416.82812Q501.61667 417.375 500.49167 418.32812Q499.53854 419.125 499.2573 419.42188Q498.99167 419.70312 498.8198 419.98438L503.03854 419.98438ZM504.49167 416.76562Q504.49167 415.23438 504.80417 414.3125Q505.11667 413.375 505.72604 412.875Q506.35104 412.375 507.28854 412.375Q507.97604 412.375 508.49167 412.65625Q509.02292 412.9375 509.36667 413.46875Q509.71042 413.98438 509.89792 414.73438Q510.08542 415.48438 510.08542 416.76562Q510.08542 418.28125 509.77292 419.20312Q509.47604 420.125 508.85104 420.64062Q508.24167 421.14062 507.28854 421.14062Q506.05417 421.14062 505.33542 420.25Q504.49167 419.1875 504.49167 416.76562ZM505.5698 416.76562Q505.5698 418.875 506.0698 419.57812Q506.5698 420.28125 507.28854 420.28125Q508.02292 420.28125 508.5073 419.57812Q509.0073 418.875 509.0073 416.76562Q509.0073 414.64062 508.5073 413.95312Q508.02292 413.25 507.27292 413.25Q506.55417 413.25 506.11667 413.85938Q505.5698 414.64062 505.5698 416.76562ZM511.49167 416.76562Q511.49167 415.23438 511.80417 414.3125Q512.1167 413.375 512.7261 412.875Q513.3511 412.375 514.2886 412.375Q514.9761 412.375 515.4917 412.65625Q516.02295 412.9375 516.3667 413.46875Q516.71045 413.98438 516.89795 414.73438Q517.08545 415.48438 517.08545 416.76562Q517.08545 418.28125 516.77295 419.20312Q516.4761 420.125 515.8511 420.64062Q515.2417 421.14062 514.2886 421.14062Q513.0542 421.14062 512.33545 420.25Q511.49167 419.1875 511.49167 416.76562ZM512.5698 416.76562Q512.5698 418.875 513.0698 419.57812Q513.5698 420.28125 514.2886 420.28125Q515.02295 420.28125 515.5073 419.57812Q516.0073 418.875 516.0073 416.76562Q516.0073 414.64062 515.5073 413.95312Q515.02295 413.25 514.27295 413.25Q513.5542 413.25 513.1167 413.85938Q512.5698 414.64062 512.5698 416.76562Z" fill-rule="nonzero"/><path fill="#000000" d="M614.7469 419.98438L614.7469 421.0L609.0594 421.0Q609.0594 420.625 609.1844 420.26562Q609.40314 419.6875 609.8719 419.125Q610.35626 418.5625 611.2625 417.82812Q612.66876 416.67188 613.15314 416.0Q613.65314 415.32812 613.65314 414.73438Q613.65314 414.10938 613.2 413.6875Q612.7469 413.25 612.02814 413.25Q611.2625 413.25 610.8094 413.70312Q610.35626 414.15625 610.34064 414.96875L609.2625 414.85938Q609.3719 413.64062 610.09064 413.01562Q610.825 412.375 612.0594 412.375Q613.29376 412.375 614.0125 413.0625Q614.73126 413.75 614.73126 414.76562Q614.73126 415.28125 614.5125 415.78125Q614.3094 416.26562 613.8094 416.82812Q613.325 417.375 612.2 418.32812Q611.2469 419.125 610.96564 419.42188Q610.7 419.70312 610.52814 419.98438L614.7469 419.98438ZM616.2 418.75L617.3094 418.65625Q617.4344 419.46875 617.8719 419.875Q618.325 420.28125 618.96564 420.28125Q619.71564 420.28125 620.2469 419.70312Q620.77814 419.125 620.77814 418.1875Q620.77814 417.28125 620.2625 416.76562Q619.7625 416.23438 618.9344 416.23438Q618.4344 416.23438 618.0125 416.46875Q617.60626 416.70312 617.3719 417.0625L616.3875 416.9375L617.21564 412.53125L621.4969 412.53125L621.4969 413.53125L618.0594 413.53125L617.60626 415.84375Q618.3719 415.29688 619.21564 415.29688Q620.34064 415.29688 621.10626 416.07812Q621.8875 416.85938 621.8875 418.09375Q621.8875 419.25 621.21564 420.10938Q620.3875 421.14062 618.96564 421.14062Q617.79376 421.14062 617.04376 420.48438Q616.3094 419.82812 616.2 418.75ZM623.2 416.76562Q623.2 415.23438 623.5125 414.3125Q623.825 413.375 624.4344 412.875Q625.0594 412.375 625.9969 412.375Q626.6844 412.375 627.2 412.65625Q627.73126 412.9375 628.075 413.46875Q628.41876 413.98438 628.60626 414.73438Q628.79376 415.48438 628.79376 416.76562Q628.79376 418.28125 628.48126 419.20312Q628.1844 420.125 627.5594 420.64062Q626.95 421.14062 625.9969 421.14062Q624.7625 421.14062 624.04376 420.25Q623.2 419.1875 623.2 416.76562ZM624.27814 416.76562Q624.27814 418.875 624.77814 419.57812Q625.27814 420.28125 625.9969 420.28125Q626.73126 420.28125 627.21564 419.57812Q627.71564 418.875 627.71564 416.76562Q627.71564 414.64062 627.21564 413.95312Q626.73126 413.25 625.98126 413.25Q625.2625 413.25 624.825 413.85938Q624.27814 414.64062 624.27814 416.76562Z" fill-rule="nonzero"/><path stroke="#4285f4" stroke-width="4.0" stroke-linecap="butt" d="M648.0 31.0L660.0 31.0" fill-rule="nonzero"/><path fill="#1a1a1a" d="M668.78125 35.0L668.78125 28.78125L669.7344 28.78125L669.7344 29.71875Q670.09375 29.0625 670.3906 28.859375Q670.7031 28.640625 671.0781 28.640625Q671.6094 28.640625 672.15625 28.96875L671.7969 29.953125Q671.40625 29.71875 671.03125 29.71875Q670.6719 29.71875 670.3906 29.9375Q670.125 30.140625 670.0156 30.515625Q669.8281 31.078125 669.8281 31.734375L669.8281 35.0L668.78125 35.0ZM676.8594 34.234375Q676.2656 34.734375 675.71875 34.9375Q675.1875 35.140625 674.5625 35.140625Q673.53125 35.140625 672.9844 34.640625Q672.4375 34.140625 672.4375 33.359375Q672.4375 32.90625 672.6406 32.53125Q672.84375 32.140625 673.1875 31.921875Q673.53125 31.6875 673.9531 31.578125Q674.25 31.484375 674.8906 31.40625Q676.15625 31.265625 676.7656 31.046875Q676.7656 30.828125 676.7656 30.78125Q676.7656 30.125 676.46875 29.859375Q676.0625 29.515625 675.2656 29.515625Q674.53125 29.515625 674.1719 29.78125Q673.8125 30.03125 673.6406 30.6875L672.6094 30.546875Q672.75 29.890625 673.0781 29.484375Q673.40625 29.078125 674.0156 28.859375Q674.625 28.640625 675.4219 28.640625Q676.21875 28.640625 676.71875 28.828125Q677.21875 29.015625 677.4531 29.296875Q677.6875 29.578125 677.78125 30.015625Q677.8281 30.28125 677.8281 30.984375L677.8281 32.390625Q677.8281 33.859375 677.8906 34.25Q677.96875 34.640625 678.1719 35.0L677.0625 35.0Q676.90625 34.671875 676.8594 34.234375ZM676.7656 31.875Q676.1875 32.109375 675.0469 32.28125Q674.3906 32.375 674.125 32.5Q673.8594 32.609375 673.7031 32.828125Q673.5625 33.046875 673.5625 33.328125Q673.5625 33.75 673.875 34.03125Q674.2031 34.3125 674.8125 34.3125Q675.4219 34.3125 675.8906 34.046875Q676.375 33.78125 676.59375 33.3125Q676.7656 32.953125 676.7656 32.265625L676.7656 31.875ZM683.8281 35.0L683.8281 34.21875Q683.2344 35.140625 682.09375 35.140625Q681.34375 35.140625 680.71875 34.734375Q680.09375 34.3125 679.75 33.578125Q679.40625 32.84375 679.40625 31.890625Q679.40625 30.96875 679.71875 30.203125Q680.03125 29.4375 680.65625 29.046875Q681.28125 28.640625 682.0469 28.640625Q682.6094 28.640625 683.0469 28.875Q683.4844 29.109375 683.7656 29.484375L683.7656 26.40625L684.8125 26.40625L684.8125 35.0L683.8281 35.0ZM680.5 31.890625Q680.5 33.09375 681.0 33.6875Q681.5 34.265625 682.1875 34.265625Q682.875 34.265625 683.3594 33.703125Q683.84375 33.140625 683.84375 31.984375Q683.84375 30.703125 683.34375 30.109375Q682.8594 29.515625 682.1406 29.515625Q681.4375 29.515625 680.96875 30.09375Q680.5 30.65625 680.5 31.890625ZM686.7969 27.625L686.7969 26.40625L687.8594 26.40625L687.8594 27.625L686.7969 27.625ZM686.7969 35.0L686.7969 28.78125L687.8594 28.78125L687.8594 35.0L686.7969 35.0ZM689.09375 35.0L691.3594 31.765625L689.2656 28.78125L690.5781 28.78125L691.53125 30.234375Q691.7969 30.65625 691.96875 30.9375Q692.21875 30.546875 692.4375 30.25L693.4844 28.78125L694.75 28.78125L692.59375 31.703125L694.90625 35.0L693.625 35.0L692.34375 33.0625L692.0 32.546875L690.3594 35.0L689.09375 35.0Z" fill-rule="nonzero"/><path stroke="#ea4335" stroke-width="4.0" stroke-linecap="butt" d="M648.0 55.0L660.0 55.0" fill-rule="nonzero"/><path fill="#1a1a1a" d="M668.375 57.140625L669.40625 56.984375Q669.5 57.609375 669.8906 57.9375Q670.2969 58.265625 671.03125 58.265625Q671.75 58.265625 672.09375 57.984375Q672.4531 57.6875 672.4531 57.28125Q672.4531 56.921875 672.1406 56.71875Q671.9219 56.578125 671.0625 56.359375Q669.90625 56.0625 669.4531 55.859375Q669.0156 55.640625 668.78125 55.265625Q668.5469 54.890625 668.5469 54.421875Q668.5469 54.015625 668.7344 53.65625Q668.9219 53.296875 669.25 53.0625Q669.5 52.890625 669.9219 52.765625Q670.34375 52.640625 670.84375 52.640625Q671.5625 52.640625 672.1094 52.859375Q672.6719 53.0625 672.9375 53.421875Q673.2031 53.78125 673.2969 54.375L672.2656 54.515625Q672.2031 54.046875 671.8594 53.78125Q671.53125 53.5 670.90625 53.5Q670.1875 53.5 669.875 53.75Q669.5625 53.984375 669.5625 54.3125Q669.5625 54.515625 669.6875 54.671875Q669.8281 54.84375 670.09375 54.953125Q670.25 55.015625 671.03125 55.21875Q672.15625 55.53125 672.59375 55.71875Q673.03125 55.90625 673.28125 56.265625Q673.53125 56.625 673.53125 57.171875Q673.53125 57.703125 673.21875 58.171875Q672.9219 58.625 672.34375 58.890625Q671.7656 59.140625 671.03125 59.140625Q669.8125 59.140625 669.1719 58.640625Q668.5469 58.125 668.375 57.140625ZM677.09375 58.0625L677.25 58.984375Q676.7969 59.078125 676.4531 59.078125Q675.875 59.078125 675.5625 58.90625Q675.25 58.71875 675.1094 58.421875Q674.9844 58.125 674.9844 57.171875L674.9844 53.59375L674.21875 53.59375L674.21875 52.78125L674.9844 52.78125L674.9844 51.234375L676.03125 50.609375L676.03125 52.78125L677.09375 52.78125L677.09375 53.59375L676.03125 53.59375L676.03125 57.234375Q676.03125 57.6875 676.0781 57.8125Q676.1406 57.9375 676.2656 58.015625Q676.3906 58.09375 676.625 58.09375Q676.8125 58.09375 677.09375 58.0625ZM681.8281 59.0L681.8281 58.21875Q681.2344 59.140625 680.09375 59.140625Q679.34375 59.140625 678.71875 58.734375Q678.09375 58.3125 677.75 57.578125Q677.40625 56.84375 677.40625 55.890625Q677.40625 54.96875 677.71875 54.203125Q678.03125 53.4375 678.65625 53.046875Q679.28125 52.640625 680.0469 52.640625Q680.6094 52.640625 681.0469 52.875Q681.4844 53.109375 681.7656 53.484375L681.7656 50.40625L682.8125 50.40625L682.8125 59.0L681.8281 59.0ZM678.5 55.890625Q678.5 57.09375 679.0 57.6875Q679.5 58.265625 680.1875 58.265625Q680.875 58.265625 681.3594 57.703125Q681.84375 57.140625 681.84375 55.984375Q681.84375 54.703125 681.34375 54.109375Q680.8594 53.515625 680.1406 53.515625Q679.4375 53.515625 678.96875 54.09375Q678.5 54.65625 678.5 55.890625Z" fill-rule="nonzero"/><path stroke="#fbbc04" stroke-width="4.0" stroke-linecap="butt" d="M648.0 79.0L660.0 79.0" fill-rule="nonzero"/><path fill="#1a1a1a" d="M668.7969 83.0L668.7969 76.78125L669.7344 76.78125L669.7344 77.65625Q670.03125 77.1875 670.5156 76.921875Q671.0 76.640625 671.625 76.640625Q672.3125 76.640625 672.75 76.921875Q673.2031 77.203125 673.375 77.71875Q674.125 76.640625 675.2969 76.640625Q676.2344 76.640625 676.71875 77.15625Q677.21875 77.65625 677.21875 78.734375L677.21875 83.0L676.1719 83.0L676.1719 79.078125Q676.1719 78.453125 676.0625 78.171875Q675.96875 77.890625 675.7031 77.71875Q675.4375 77.546875 675.0625 77.546875Q674.40625 77.546875 673.96875 77.984375Q673.5469 78.421875 673.5469 79.390625L673.5469 83.0L672.4844 83.0L672.4844 78.953125Q672.4844 78.25 672.21875 77.90625Q671.96875 77.546875 671.3906 77.546875Q670.9375 77.546875 670.5625 77.78125Q670.1875 78.015625 670.0156 78.46875Q669.84375 78.921875 669.84375 79.765625L669.84375 83.0L668.7969 83.0ZM683.0469 81.0L684.1406 81.125Q683.8906 82.078125 683.1875 82.609375Q682.4844 83.140625 681.40625 83.140625Q680.0469 83.140625 679.2344 82.296875Q678.4375 81.453125 678.4375 79.9375Q678.4375 78.375 679.25 77.515625Q680.0625 76.640625 681.34375 76.640625Q682.59375 76.640625 683.375 77.484375Q684.1719 78.328125 684.1719 79.875Q684.1719 79.96875 684.1719 80.15625L679.53125 80.15625Q679.59375 81.1875 680.1094 81.734375Q680.625 82.265625 681.40625 82.265625Q681.9844 82.265625 682.3906 81.96875Q682.8125 81.65625 683.0469 81.0ZM679.59375 79.296875L683.0625 79.296875Q683.0 78.5 682.6719 78.109375Q682.15625 77.5 681.3594 77.5Q680.625 77.5 680.125 77.984375Q679.6406 78.46875 679.59375 79.296875ZM685.78125 83.0L685.78125 76.78125L686.7344 76.78125L686.7344 77.71875Q687.09375 77.0625 687.3906 76.859375Q687.7031 76.640625 688.0781 76.640625Q688.6094 76.640625 689.15625 76.96875L688.7969 77.953125Q688.40625 77.71875 688.03125 77.71875Q687.6719 77.71875 687.3906 77.9375Q687.125 78.140625 687.0156 78.515625Q686.8281 79.078125 686.8281 79.734375L686.8281 83.0L685.78125 83.0ZM689.59375 83.515625L690.625 83.671875Q690.6875 84.140625 690.9844 84.359375Q691.375 84.65625 692.0469 84.65625Q692.78125 84.65625 693.1719 84.359375Q693.5781 84.0625 693.71875 83.546875Q693.8125 83.21875 693.7969 82.1875Q693.1094 83.0 692.0781 83.0Q690.7969 83.0 690.09375 82.078125Q689.3906 81.140625 689.3906 79.859375Q689.3906 78.96875 689.7031 78.21875Q690.03125 77.453125 690.6406 77.046875Q691.25 76.640625 692.0781 76.640625Q693.1875 76.640625 693.90625 77.53125L693.90625 76.78125L694.875 76.78125L694.875 82.15625Q694.875 83.609375 694.5781 84.21875Q694.28125 84.828125 693.6406 85.171875Q693.0 85.53125 692.0625 85.53125Q690.9531 85.53125 690.2656 85.03125Q689.5781 84.53125 689.59375 83.515625ZM690.46875 79.78125Q690.46875 81.0 690.9531 81.5625Q691.4375 82.125 692.1719 82.125Q692.90625 82.125 693.3906 81.5625Q693.8906 81.0 693.8906 79.8125Q693.8906 78.671875 693.375 78.09375Q692.875 77.515625 692.15625 77.515625Q691.4531 77.515625 690.9531 78.09375Q690.46875 78.65625 690.46875 79.78125ZM701.0469 81.0L702.1406 81.125Q701.8906 82.078125 701.1875 82.609375Q700.4844 83.140625 699.40625 83.140625Q698.0469 83.140625 697.2344 82.296875Q696.4375 81.453125 696.4375 79.9375Q696.4375 78.375 697.25 77.515625Q698.0625 76.640625 699.34375 76.640625Q700.59375 76.640625 701.375 77.484375Q702.1719 78.328125 702.1719 79.875Q702.1719 79.96875 702.1719 80.15625L697.53125 80.15625Q697.59375 81.1875 698.1094 81.734375Q698.625 82.265625 699.40625 82.265625Q699.9844 82.265625 700.3906 81.96875Q700.8125 81.65625 701.0469 81.0ZM697.59375 79.296875L701.0625 79.296875Q701.0 78.5 700.6719 78.109375Q700.15625 77.5 699.3594 77.5Q698.625 77.5 698.125 77.984375Q697.6406 78.46875 697.59375 79.296875Z" fill-rule="nonzero"/><path stroke="#34a853" stroke-width="4.0" stroke-linecap="butt" d="M648.0 103.0L660.0 103.0" fill-rule="nonzero"/><path fill="#1a1a1a" d="M668.375 105.140625L669.40625 104.984375Q669.5 105.609375 669.8906 105.9375Q670.2969 106.265625 671.03125 106.265625Q671.75 106.265625 672.09375 105.984375Q672.4531 105.6875 672.4531 105.28125Q672.4531 104.921875 672.1406 104.71875Q671.9219 104.578125 671.0625 104.359375Q669.90625 104.0625 669.4531 103.859375Q669.0156 103.640625 668.78125 103.265625Q668.5469 102.890625 668.5469 102.421875Q668.5469 102.015625 668.7344 101.65625Q668.9219 101.296875 669.25 101.0625Q669.5 100.890625 669.9219 100.765625Q670.34375 100.640625 670.84375 100.640625Q671.5625 100.640625 672.1094 100.859375Q672.6719 101.0625 672.9375 101.421875Q673.2031 101.78125 673.2969 102.375L672.2656 102.515625Q672.2031 102.046875 671.8594 101.78125Q671.53125 101.5 670.90625 101.5Q670.1875 101.5 669.875 101.75Q669.5625 101.984375 669.5625 102.3125Q669.5625 102.515625 669.6875 102.671875Q669.8281 102.84375 670.09375 102.953125Q670.25 103.015625 671.03125 103.21875Q672.15625 103.53125 672.59375 103.71875Q673.03125 103.90625 673.28125 104.265625Q673.53125 104.625 673.53125 105.171875Q673.53125 105.703125 673.21875 106.171875Q672.9219 106.625 672.34375 106.890625Q671.7656 107.140625 671.03125 107.140625Q669.8125 107.140625 669.1719 106.640625Q668.5469 106.125 668.375 105.140625ZM674.7969 107.0L674.7969 98.40625L675.84375 98.40625L675.84375 101.484375Q676.5781 100.640625 677.7031 100.640625Q678.40625 100.640625 678.90625 100.921875Q679.4219 101.1875 679.6406 101.671875Q679.8594 102.140625 679.8594 103.0625L679.8594 107.0L678.8125 107.0L678.8125 103.0625Q678.8125 102.265625 678.46875 101.90625Q678.125 101.546875 677.5 101.546875Q677.03125 101.546875 676.6094 101.796875Q676.2031 102.03125 676.0156 102.453125Q675.84375 102.859375 675.84375 103.59375L675.84375 107.0L674.7969 107.0ZM686.0469 105.0L687.1406 105.125Q686.8906 106.078125 686.1875 106.609375Q685.4844 107.140625 684.40625 107.140625Q683.0469 107.140625 682.2344 106.296875Q681.4375 105.453125 681.4375 103.9375Q681.4375 102.375 682.25 101.515625Q683.0625 100.640625 684.34375 100.640625Q685.59375 100.640625 686.375 101.484375Q687.1719 102.328125 687.1719 103.875Q687.1719 103.96875 687.1719 104.15625L682.53125 104.15625Q682.59375 105.1875 683.1094 105.734375Q683.625 106.265625 684.40625 106.265625Q684.9844 106.265625 685.3906 105.96875Q685.8125 105.65625 686.0469 105.0ZM682.59375 103.296875L686.0625 103.296875Q686.0 102.5 685.6719 102.109375Q685.15625 101.5 684.3594 101.5Q683.625 101.5 683.125 101.984375Q682.6406 102.46875 682.59375 103.296875ZM688.7656 107.0L688.7656 98.40625L689.8281 98.40625L689.8281 107.0L688.7656 107.0ZM691.7656 107.0L691.7656 98.40625L692.8281 98.40625L692.8281 107.0L691.7656 107.0Z" fill-rule="nonzero"/><path stroke="#ff6d01" stroke-width="4.0" stroke-linecap="butt" d="M648.0 127.0L660.0 127.0" fill-rule="nonzero"/><path fill="#1a1a1a" d="M668.7969 131.0L668.7969 122.40625L669.84375 122.40625L669.84375 125.484375Q670.5781 124.640625 671.7031 124.640625Q672.40625 124.640625 672.90625 124.921875Q673.4219 125.1875 673.6406 125.671875Q673.8594 126.140625 673.8594 127.0625L673.8594 131.0L672.8125 131.0L672.8125 127.0625Q672.8125 126.265625 672.46875 125.90625Q672.125 125.546875 671.5 125.546875Q671.03125 125.546875 670.6094 125.796875Q670.2031 126.03125 670.0156 126.453125Q669.84375 126.859375 669.84375 127.59375L669.84375 131.0L668.7969 131.0ZM680.0469 129.0L681.1406 129.125Q680.8906 130.07812 680.1875 130.60938Q679.4844 131.14062 678.40625 131.14062Q677.0469 131.14062 676.2344 130.29688Q675.4375 129.45312 675.4375 127.9375Q675.4375 126.375 676.25 125.515625Q677.0625 124.640625 678.34375 124.640625Q679.59375 124.640625 680.375 125.484375Q681.1719 126.328125 681.1719 127.875Q681.1719 127.96875 681.1719 128.15625L676.53125 128.15625Q676.59375 129.1875 677.1094 129.73438Q677.625 130.26562 678.40625 130.26562Q678.9844 130.26562 679.3906 129.96875Q679.8125 129.65625 680.0469 129.0ZM676.59375 127.296875L680.0625 127.296875Q680.0 126.5 679.6719 126.109375Q679.15625 125.5 678.3594 125.5Q677.625 125.5 677.125 125.984375Q676.6406 126.46875 676.59375 127.296875ZM686.8594 130.23438Q686.2656 130.73438 685.71875 130.9375Q685.1875 131.14062 684.5625 131.14062Q683.53125 131.14062 682.9844 130.64062Q682.4375 130.14062 682.4375 129.35938Q682.4375 128.90625 682.6406 128.53125Q682.84375 128.14062 683.1875 127.921875Q683.53125 127.6875 683.9531 127.578125Q684.25 127.484375 684.8906 127.40625Q686.15625 127.265625 686.7656 127.046875Q686.7656 126.828125 686.7656 126.78125Q686.7656 126.125 686.46875 125.859375Q686.0625 125.515625 685.2656 125.515625Q684.53125 125.515625 684.1719 125.78125Q683.8125 126.03125 683.6406 126.6875L682.6094 126.546875Q682.75 125.890625 683.0781 125.484375Q683.40625 125.078125 684.0156 124.859375Q684.625 124.640625 685.4219 124.640625Q686.21875 124.640625 686.71875 124.828125Q687.21875 125.015625 687.4531 125.296875Q687.6875 125.578125 687.78125 126.015625Q687.8281 126.28125 687.8281 126.984375L687.8281 128.39062Q687.8281 129.85938 687.8906 130.25Q687.96875 130.64062 688.1719 131.0L687.0625 131.0Q686.90625 130.67188 686.8594 130.23438ZM686.7656 127.875Q686.1875 128.10938 685.0469 128.28125Q684.3906 128.375 684.125 128.5Q683.8594 128.60938 683.7031 128.82812Q683.5625 129.04688 683.5625 129.32812Q683.5625 129.75 683.875 130.03125Q684.2031 130.3125 684.8125 130.3125Q685.4219 130.3125 685.8906 130.04688Q686.375 129.78125 686.59375 129.3125Q686.7656 128.95312 686.7656 128.26562L686.7656 127.875ZM689.7969 133.39062L689.7969 124.78125L690.75 124.78125L690.75 125.578125Q691.09375 125.109375 691.5156 124.875Q691.9531 124.640625 692.5625 124.640625Q693.3594 124.640625 693.96875 125.046875Q694.5781 125.453125 694.875 126.203125Q695.1875 126.953125 695.1875 127.84375Q695.1875 128.79688 694.84375 129.5625Q694.5156 130.32812 693.8594 130.73438Q693.2031 131.14062 692.4844 131.14062Q691.9531 131.14062 691.53125 130.92188Q691.1094 130.6875 690.84375 130.35938L690.84375 133.39062L689.7969 133.39062ZM690.75 127.921875Q690.75 129.125 691.2344 129.70312Q691.71875 130.26562 692.40625 130.26562Q693.1094 130.26562 693.6094 129.67188Q694.1094 129.07812 694.1094 127.828125Q694.1094 126.640625 693.625 126.0625Q693.1406 125.46875 692.4531 125.46875Q691.78125 125.46875 691.2656 126.09375Q690.75 126.71875 690.75 127.921875Z" fill-rule="nonzero"/><path stroke="#46bdc6" stroke-width="4.0" stroke-linecap="butt" d="M648.0 151.0L660.0 151.0" fill-rule="nonzero"/><path fill="#1a1a1a" d="M672.7656 157.39062L672.7656 154.34375Q672.5156 154.6875 672.0625 154.92188Q671.625 155.14062 671.125 155.14062Q670.0156 155.14062 669.21875 154.26562Q668.4219 153.375 668.4219 151.82812Q668.4219 150.89062 668.75 150.15625Q669.0781 149.40625 669.6875 149.03125Q670.3125 148.64062 671.0469 148.64062Q672.2031 148.64062 672.8594 149.60938L672.8594 148.78125L673.8125 148.78125L673.8125 157.39062L672.7656 157.39062ZM669.5 151.875Q669.5 153.07812 670.0 153.67188Q670.5156 154.26562 671.21875 154.26562Q671.8906 154.26562 672.375 153.70312Q672.8594 153.125 672.8594 151.96875Q672.8594 150.71875 672.34375 150.09375Q671.84375 149.46875 671.1406 149.46875Q670.46875 149.46875 669.9844 150.0625Q669.5 150.64062 669.5 151.875ZM679.875 155.0L679.875 154.07812Q679.1406 155.14062 677.8906 155.14062Q677.34375 155.14062 676.8594 154.9375Q676.3906 154.71875 676.15625 154.40625Q675.9219 154.07812 675.8281 153.60938Q675.7656 153.3125 675.7656 152.625L675.7656 148.78125L676.8281 148.78125L676.8281 152.23438Q676.8281 153.04688 676.8906 153.34375Q676.9844 153.75 677.2969 154.0Q677.625 154.23438 678.1094 154.23438Q678.5781 154.23438 678.9844 154.0Q679.40625 153.75 679.5781 153.32812Q679.7656 152.90625 679.7656 152.10938L679.7656 148.78125L680.8125 148.78125L680.8125 155.0L679.875 155.0ZM682.7969 147.625L682.7969 146.40625L683.8594 146.40625L683.8594 147.625L682.7969 147.625ZM682.7969 155.0L682.7969 148.78125L683.8594 148.78125L683.8594 155.0L682.7969 155.0ZM689.8594 152.71875L690.8906 152.85938Q690.71875 153.92188 690.0156 154.53125Q689.3125 155.14062 688.2969 155.14062Q687.0156 155.14062 686.2344 154.3125Q685.46875 153.46875 685.46875 151.90625Q685.46875 150.90625 685.7969 150.15625Q686.1406 149.39062 686.8125 149.01562Q687.5 148.64062 688.3125 148.64062Q689.3125 148.64062 689.9531 149.15625Q690.6094 149.65625 690.7969 150.60938L689.7656 150.76562Q689.625 150.14062 689.25 149.82812Q688.875 149.5 688.34375 149.5Q687.5469 149.5 687.0469 150.07812Q686.5469 150.64062 686.5469 151.875Q686.5469 153.14062 687.03125 153.70312Q687.5156 154.26562 688.28125 154.26562Q688.90625 154.26562 689.3125 153.89062Q689.7344 153.51562 689.8594 152.71875ZM691.7969 155.0L691.7969 146.40625L692.8594 146.40625L692.8594 151.3125L695.34375 148.78125L696.71875 148.78125L694.3281 151.07812L696.9531 155.0L695.65625 155.0L693.59375 151.8125L692.8594 152.53125L692.8594 155.0L691.7969 155.0Z" fill-rule="nonzero"/><path stroke="#7baaf7" stroke-width="4.0" stroke-linecap="butt" d="M648.0 175.0L660.0 175.0" fill-rule="nonzero"/><path fill="#1a1a1a" d="M669.7656 179.0L668.78125 179.0L668.78125 170.40625L669.84375 170.40625L669.84375 173.46875Q670.5156 172.64062 671.5469 172.64062Q672.125 172.64062 672.625 172.875Q673.1406 173.09375 673.46875 173.51562Q673.8125 173.9375 674.0 174.53125Q674.1875 175.125 674.1875 175.79688Q674.1875 177.39062 673.3906 178.26562Q672.59375 179.14062 671.5 179.14062Q670.3906 179.14062 669.7656 178.21875L669.7656 179.0ZM669.75 175.84375Q669.75 176.95312 670.0625 177.45312Q670.5625 178.26562 671.40625 178.26562Q672.09375 178.26562 672.59375 177.67188Q673.1094 177.07812 673.1094 175.875Q673.1094 174.65625 672.625 174.07812Q672.1406 173.5 671.4531 173.5Q670.7656 173.5 670.25 174.10938Q669.75 174.70312 669.75 175.84375ZM679.875 179.0L679.875 178.07812Q679.1406 179.14062 677.8906 179.14062Q677.34375 179.14062 676.8594 178.9375Q676.3906 178.71875 676.15625 178.40625Q675.9219 178.07812 675.8281 177.60938Q675.7656 177.3125 675.7656 176.625L675.7656 172.78125L676.8281 172.78125L676.8281 176.23438Q676.8281 177.04688 676.8906 177.34375Q676.9844 177.75 677.2969 178.0Q677.625 178.23438 678.1094 178.23438Q678.5781 178.23438 678.9844 178.0Q679.40625 177.75 679.5781 177.32812Q679.7656 176.90625 679.7656 176.10938L679.7656 172.78125L680.8125 172.78125L680.8125 179.0L679.875 179.0ZM683.7656 179.0L682.78125 179.0L682.78125 170.40625L683.84375 170.40625L683.84375 173.46875Q684.5156 172.64062 685.5469 172.64062Q686.125 172.64062 686.625 172.875Q687.1406 173.09375 687.46875 173.51562Q687.8125 173.9375 688.0 174.53125Q688.1875 175.125 688.1875 175.79688Q688.1875 177.39062 687.3906 178.26562Q686.59375 179.14062 685.5 179.14062Q684.3906 179.14062 683.7656 178.21875L683.7656 179.0ZM683.75 175.84375Q683.75 176.95312 684.0625 177.45312Q684.5625 178.26562 685.40625 178.26562Q686.09375 178.26562 686.59375 177.67188Q687.1094 177.07812 687.1094 175.875Q687.1094 174.65625 686.625 174.07812Q686.1406 173.5 685.4531 173.5Q684.7656 173.5 684.25 174.10938Q683.75 174.70312 683.75 175.84375ZM690.7656 179.0L689.78125 179.0L689.78125 170.40625L690.84375 170.40625L690.84375 173.46875Q691.5156 172.64062 692.5469 172.64062Q693.125 172.64062 693.625 172.875Q694.1406 173.09375 694.46875 173.51562Q694.8125 173.9375 695.0 174.53125Q695.1875 175.125 695.1875 175.79688Q695.1875 177.39062 694.3906 178.26562Q693.59375 179.14062 692.5 179.14062Q691.3906 179.14062 690.7656 178.21875L690.7656 179.0ZM690.75 175.84375Q690.75 176.95312 691.0625 177.45312Q691.5625 178.26562 692.40625 178.26562Q693.09375 178.26562 693.59375 177.67188Q694.1094 177.07812 694.1094 175.875Q694.1094 174.65625 693.625 174.07812Q693.1406 173.5 692.4531 173.5Q691.7656 173.5 691.25 174.10938Q690.75 174.70312 690.75 175.84375ZM696.7656 179.0L696.7656 170.40625L697.8281 170.40625L697.8281 179.0L696.7656 179.0ZM704.0469 177.0L705.1406 177.125Q704.8906 178.07812 704.1875 178.60938Q703.4844 179.14062 702.40625 179.14062Q701.0469 179.14062 700.2344 178.29688Q699.4375 177.45312 699.4375 175.9375Q699.4375 174.375 700.25 173.51562Q701.0625 172.64062 702.34375 172.64062Q703.59375 172.64062 704.375 173.48438Q705.1719 174.32812 705.1719 175.875Q705.1719 175.96875 705.1719 176.15625L700.53125 176.15625Q700.59375 177.1875 701.1094 177.73438Q701.625 178.26562 702.40625 178.26562Q702.9844 178.26562 703.3906 177.96875Q703.8125 177.65625 704.0469 177.0ZM700.59375 175.29688L704.0625 175.29688Q704.0 174.5 703.6719 174.10938Q703.15625 173.5 702.3594 173.5Q701.625 173.5 701.125 173.98438Q700.6406 174.46875 700.59375 175.29688Z" fill-rule="nonzero"/><path stroke="#f07b72" stroke-width="4.0" stroke-linecap="butt" d="M648.0 199.0L660.0 199.0" fill-rule="nonzero"/><path fill="#1a1a1a" d="M672.8594 200.71875L673.8906 200.85938Q673.71875 201.92188 673.0156 202.53125Q672.3125 203.14062 671.2969 203.14062Q670.0156 203.14062 669.2344 202.3125Q668.46875 201.46875 668.46875 199.90625Q668.46875 198.90625 668.7969 198.15625Q669.1406 197.39062 669.8125 197.01562Q670.5 196.64062 671.3125 196.64062Q672.3125 196.64062 672.9531 197.15625Q673.6094 197.65625 673.7969 198.60938L672.7656 198.76562Q672.625 198.14062 672.25 197.82812Q671.875 197.5 671.34375 197.5Q670.5469 197.5 670.0469 198.07812Q669.5469 198.64062 669.5469 199.875Q669.5469 201.14062 670.03125 201.70312Q670.5156 202.26562 671.28125 202.26562Q671.90625 202.26562 672.3125 201.89062Q672.7344 201.51562 672.8594 200.71875ZM674.40625 199.89062Q674.40625 198.15625 675.3594 197.32812Q676.15625 196.64062 677.3125 196.64062Q678.59375 196.64062 679.40625 197.48438Q680.2344 198.3125 680.2344 199.79688Q680.2344 201.0 679.875 201.6875Q679.5156 202.375 678.8125 202.76562Q678.125 203.14062 677.3125 203.14062Q676.0156 203.14062 675.2031 202.3125Q674.40625 201.46875 674.40625 199.89062ZM675.4844 199.89062Q675.4844 201.07812 676.0 201.67188Q676.53125 202.26562 677.3125 202.26562Q678.1094 202.26562 678.625 201.67188Q679.1406 201.07812 679.1406 199.85938Q679.1406 198.70312 678.6094 198.10938Q678.09375 197.51562 677.3125 197.51562Q676.53125 197.51562 676.0 198.10938Q675.4844 198.6875 675.4844 199.89062ZM685.8594 200.71875L686.8906 200.85938Q686.71875 201.92188 686.0156 202.53125Q685.3125 203.14062 684.2969 203.14062Q683.0156 203.14062 682.2344 202.3125Q681.46875 201.46875 681.46875 199.90625Q681.46875 198.90625 681.7969 198.15625Q682.1406 197.39062 682.8125 197.01562Q683.5 196.64062 684.3125 196.64062Q685.3125 196.64062 685.9531 197.15625Q686.6094 197.65625 686.7969 198.60938L685.7656 198.76562Q685.625 198.14062 685.25 197.82812Q684.875 197.5 684.34375 197.5Q683.5469 197.5 683.0469 198.07812Q682.5469 198.64062 682.5469 199.875Q682.5469 201.14062 683.03125 201.70312Q683.5156 202.26562 684.28125 202.26562Q684.90625 202.26562 685.3125 201.89062Q685.7344 201.51562 685.8594 200.71875ZM687.7969 203.0L687.7969 194.40625L688.8594 194.40625L688.8594 199.3125L691.34375 196.78125L692.71875 196.78125L690.3281 199.07812L692.9531 203.0L691.65625 203.0L689.59375 199.8125L688.8594 200.53125L688.8594 203.0L687.7969 203.0ZM696.09375 202.0625L696.25 202.98438Q695.7969 203.07812 695.4531 203.07812Q694.875 203.07812 694.5625 202.90625Q694.25 202.71875 694.1094 202.42188Q693.9844 202.125 693.9844 201.17188L693.9844 197.59375L693.21875 197.59375L693.21875 196.78125L693.9844 196.78125L693.9844 195.23438L695.03125 194.60938L695.03125 196.78125L696.09375 196.78125L696.09375 197.59375L695.03125 197.59375L695.03125 201.23438Q695.03125 201.6875 695.0781 201.8125Q695.1406 201.9375 695.2656 202.01562Q695.3906 202.09375 695.625 202.09375Q695.8125 202.09375 696.09375 202.0625ZM700.8594 202.23438Q700.2656 202.73438 699.71875 202.9375Q699.1875 203.14062 698.5625 203.14062Q697.53125 203.14062 696.9844 202.64062Q696.4375 202.14062 696.4375 201.35938Q696.4375 200.90625 696.6406 200.53125Q696.84375 200.14062 697.1875 199.92188Q697.53125 199.6875 697.9531 199.57812Q698.25 199.48438 698.8906 199.40625Q700.15625 199.26562 700.7656 199.04688Q700.7656 198.82812 700.7656 198.78125Q700.7656 198.125 700.46875 197.85938Q700.0625 197.51562 699.2656 197.51562Q698.53125 197.51562 698.1719 197.78125Q697.8125 198.03125 697.6406 198.6875L696.6094 198.54688Q696.75 197.89062 697.0781 197.48438Q697.40625 197.07812 698.0156 196.85938Q698.625 196.64062 699.4219 196.64062Q700.21875 196.64062 700.71875 196.82812Q701.21875 197.01562 701.4531 197.29688Q701.6875 197.57812 701.78125 198.01562Q701.8281 198.28125 701.8281 198.98438L701.8281 200.39062Q701.8281 201.85938 701.8906 202.25Q701.96875 202.64062 702.1719 203.0L701.0625 203.0Q700.90625 202.67188 700.8594 202.23438ZM700.7656 199.875Q700.1875 200.10938 699.0469 200.28125Q698.3906 200.375 698.125 200.5Q697.8594 200.60938 697.7031 200.82812Q697.5625 201.04688 697.5625 201.32812Q697.5625 201.75 697.875 202.03125Q698.2031 202.3125 698.8125 202.3125Q699.4219 202.3125 699.8906 202.04688Q700.375 201.78125 700.59375 201.3125Q700.7656 200.95312 700.7656 200.26562L700.7656 199.875ZM703.7969 195.625L703.7969 194.40625L704.8594 194.40625L704.8594 195.625L703.7969 195.625ZM703.7969 203.0L703.7969 196.78125L704.8594 196.78125L704.8594 203.0L703.7969 203.0ZM706.7656 203.0L706.7656 194.40625L707.8281 194.40625L707.8281 203.0L706.7656 203.0ZM708.8125 205.39062L708.8125 204.625L715.8125 204.625L715.8125 205.39062L708.8125 205.39062ZM716.375 201.14062L717.40625 200.98438Q717.5 201.60938 717.8906 201.9375Q718.2969 202.26562 719.03125 202.26562Q719.75 202.26562 720.09375 201.98438Q720.4531 201.6875 720.4531 201.28125Q720.4531 200.92188 720.1406 200.71875Q719.9219 200.57812 719.0625 200.35938Q717.90625 200.0625 717.4531 199.85938Q717.0156 199.64062 716.78125 199.26562Q716.5469 198.89062 716.5469 198.42188Q716.5469 198.01562 716.7344 197.65625Q716.9219 197.29688 717.25 197.0625Q717.5 196.89062 717.9219 196.76562Q718.34375 196.64062 718.84375 196.64062Q719.5625 196.64062 720.1094 196.85938Q720.6719 197.0625 720.9375 197.42188Q721.2031 197.78125 721.2969 198.375L720.2656 198.51562Q720.2031 198.04688 719.8594 197.78125Q719.53125 197.5 718.90625 197.5Q718.1875 197.5 717.875 197.75Q717.5625 197.98438 717.5625 198.3125Q717.5625 198.51562 717.6875 198.67188Q717.8281 198.84375 718.09375 198.95312Q718.25 199.01562 719.03125 199.21875Q720.15625 199.53125 720.59375 199.71875Q721.03125 199.90625 721.28125 200.26562Q721.53125 200.625 721.53125 201.17188Q721.53125 201.70312 721.21875 202.17188Q720.9219 202.625 720.34375 202.89062Q719.7656 203.14062 719.03125 203.14062Q717.8125 203.14062 717.1719 202.64062Q716.5469 202.125 716.375 201.14062ZM722.7969 203.0L722.7969 194.40625L723.84375 194.40625L723.84375 197.48438Q724.5781 196.64062 725.7031 196.64062Q726.40625 196.64062 726.90625 196.92188Q727.4219 197.1875 727.6406 197.67188Q727.8594 198.14062 727.8594 199.0625L727.8594 203.0L726.8125 203.0L726.8125 199.0625Q726.8125 198.26562 726.46875 197.90625Q726.125 197.54688 725.5 197.54688Q725.03125 197.54688 724.6094 197.79688Q724.2031 198.03125 724.0156 198.45312Q723.84375 198.85938 723.84375 199.59375L723.84375 203.0L722.7969 203.0ZM733.8594 202.23438Q733.2656 202.73438 732.71875 202.9375Q732.1875 203.14062 731.5625 203.14062Q730.53125 203.14062 729.9844 202.64062Q729.4375 202.14062 729.4375 201.35938Q729.4375 200.90625 729.6406 200.53125Q729.84375 200.14062 730.1875 199.92188Q730.53125 199.6875 730.9531 199.57812Q731.25 199.48438 731.8906 199.40625Q733.15625 199.26562 733.7656 199.04688Q733.7656 198.82812 733.7656 198.78125Q733.7656 198.125 733.46875 197.85938Q733.0625 197.51562 732.2656 197.51562Q731.53125 197.51562 731.1719 197.78125Q730.8125 198.03125 730.6406 198.6875L729.6094 198.54688Q729.75 197.89062 730.0781 197.48438Q730.40625 197.07812 731.0156 196.85938Q731.625 196.64062 732.4219 196.64062Q733.21875 196.64062 733.71875 196.82812Q734.21875 197.01562 734.4531 197.29688Q734.6875 197.57812 734.78125 198.01562Q734.8281 198.28125 734.8281 198.98438L734.8281 200.39062Q734.8281 201.85938 734.8906 202.25Q734.96875 202.64062 735.1719 203.0L734.0625 203.0Q733.90625 202.67188 733.8594 202.23438ZM733.7656 199.875Q733.1875 200.10938 732.0469 200.28125Q731.3906 200.375 731.125 200.5Q730.8594 200.60938 730.7031 200.82812Q730.5625 201.04688 730.5625 201.32812Q730.5625 201.75 730.875 202.03125Q731.2031 202.3125 731.8125 202.3125Q732.4219 202.3125 732.8906 202.04688Q733.375 201.78125 733.59375 201.3125Q733.7656 200.95312 733.7656 200.26562L733.7656 199.875ZM736.7969 203.0L736.7969 194.40625L737.8594 194.40625L737.8594 199.3125L740.34375 196.78125L741.71875 196.78125L739.3281 199.07812L741.9531 203.0L740.65625 203.0L738.59375 199.8125L737.8594 200.53125L737.8594 203.0L736.7969 203.0ZM747.0469 201.0L748.1406 201.125Q747.8906 202.07812 747.1875 202.60938Q746.4844 203.14062 745.40625 203.14062Q744.0469 203.14062 743.2344 202.29688Q742.4375 201.45312 742.4375 199.9375Q742.4375 198.375 743.25 197.51562Q744.0625 196.64062 745.34375 196.64062Q746.59375 196.64062 747.375 197.48438Q748.1719 198.32812 748.1719 199.875Q748.1719 199.96875 748.1719 200.15625L743.53125 200.15625Q743.59375 201.1875 744.1094 201.73438Q744.625 202.26562 745.40625 202.26562Q745.9844 202.26562 746.3906 201.96875Q746.8125 201.65625 747.0469 201.0ZM743.59375 199.29688L747.0625 199.29688Q747.0 198.5 746.6719 198.10938Q746.15625 197.5 745.3594 197.5Q744.625 197.5 744.125 197.98438Q743.6406 198.46875 743.59375 199.29688ZM749.78125 203.0L749.78125 196.78125L750.7344 196.78125L750.7344 197.71875Q751.09375 197.0625 751.3906 196.85938Q751.7031 196.64062 752.0781 196.64062Q752.6094 196.64062 753.15625 196.96875L752.7969 197.95312Q752.40625 197.71875 752.03125 197.71875Q751.6719 197.71875 751.3906 197.9375Q751.125 198.14062 751.0156 198.51562Q750.8281 199.07812 750.8281 199.73438L750.8281 203.0L749.78125 203.0Z" fill-rule="nonzero"/><path stroke="#fcd04f" stroke-width="4.0" stroke-linecap="butt" d="M648.0 223.0L660.0 223.0" fill-rule="nonzero"/><path fill="#1a1a1a" d="M668.59375 227.51562L669.625 227.67188Q669.6875 228.14062 669.9844 228.35938Q670.375 228.65625 671.0469 228.65625Q671.78125 228.65625 672.1719 228.35938Q672.5781 228.0625 672.71875 227.54688Q672.8125 227.21875 672.7969 226.1875Q672.1094 227.0 671.0781 227.0Q669.7969 227.0 669.09375 226.07812Q668.3906 225.14062 668.3906 223.85938Q668.3906 222.96875 668.7031 222.21875Q669.03125 221.45312 669.6406 221.04688Q670.25 220.64062 671.0781 220.64062Q672.1875 220.64062 672.90625 221.53125L672.90625 220.78125L673.875 220.78125L673.875 226.15625Q673.875 227.60938 673.5781 228.21875Q673.28125 228.82812 672.6406 229.17188Q672.0 229.53125 671.0625 229.53125Q669.9531 229.53125 669.2656 229.03125Q668.5781 228.53125 668.59375 227.51562ZM669.46875 223.78125Q669.46875 225.0 669.9531 225.5625Q670.4375 226.125 671.1719 226.125Q671.90625 226.125 672.3906 225.5625Q672.8906 225.0 672.8906 223.8125Q672.8906 222.67188 672.375 222.09375Q671.875 221.51562 671.15625 221.51562Q670.4531 221.51562 669.9531 222.09375Q669.46875 222.65625 669.46875 223.78125ZM675.7969 227.0L675.7969 220.78125L676.7344 220.78125L676.7344 221.65625Q677.4219 220.64062 678.71875 220.64062Q679.28125 220.64062 679.75 220.84375Q680.2344 221.04688 680.46875 221.375Q680.7031 221.70312 680.7969 222.14062Q680.84375 222.4375 680.84375 223.17188L680.84375 227.0L679.7969 227.0L679.7969 223.21875Q679.7969 222.5625 679.6719 222.25Q679.5469 221.9375 679.2344 221.75Q678.9219 221.54688 678.5 221.54688Q677.8281 221.54688 677.3281 221.98438Q676.84375 222.40625 676.84375 223.59375L676.84375 227.0L675.7969 227.0ZM682.40625 223.89062Q682.40625 222.15625 683.3594 221.32812Q684.15625 220.64062 685.3125 220.64062Q686.59375 220.64062 687.40625 221.48438Q688.2344 222.3125 688.2344 223.79688Q688.2344 225.0 687.875 225.6875Q687.5156 226.375 686.8125 226.76562Q686.125 227.14062 685.3125 227.14062Q684.0156 227.14062 683.2031 226.3125Q682.40625 225.46875 682.40625 223.89062ZM683.4844 223.89062Q683.4844 225.07812 684.0 225.67188Q684.53125 226.26562 685.3125 226.26562Q686.1094 226.26562 686.625 225.67188Q687.1406 225.07812 687.1406 223.85938Q687.1406 222.70312 686.6094 222.10938Q686.09375 221.51562 685.3125 221.51562Q684.53125 221.51562 684.0 222.10938Q683.4844 222.6875 683.4844 223.89062ZM689.7969 227.0L689.7969 220.78125L690.7344 220.78125L690.7344 221.65625Q691.03125 221.1875 691.5156 220.92188Q692.0 220.64062 692.625 220.64062Q693.3125 220.64062 693.75 220.92188Q694.2031 221.20312 694.375 221.71875Q695.125 220.64062 696.2969 220.64062Q697.2344 220.64062 697.71875 221.15625Q698.21875 221.65625 698.21875 222.73438L698.21875 227.0L697.1719 227.0L697.1719 223.07812Q697.1719 222.45312 697.0625 222.17188Q696.96875 221.89062 696.7031 221.71875Q696.4375 221.54688 696.0625 221.54688Q695.40625 221.54688 694.96875 221.98438Q694.5469 222.42188 694.5469 223.39062L694.5469 227.0L693.4844 227.0L693.4844 222.95312Q693.4844 222.25 693.21875 221.90625Q692.96875 221.54688 692.3906 221.54688Q691.9375 221.54688 691.5625 221.78125Q691.1875 222.01562 691.0156 222.46875Q690.84375 222.92188 690.84375 223.76562L690.84375 227.0L689.7969 227.0ZM704.0469 225.0L705.1406 225.125Q704.8906 226.07812 704.1875 226.60938Q703.4844 227.14062 702.40625 227.14062Q701.0469 227.14062 700.2344 226.29688Q699.4375 225.45312 699.4375 223.9375Q699.4375 222.375 700.25 221.51562Q701.0625 220.64062 702.34375 220.64062Q703.59375 220.64062 704.375 221.48438Q705.1719 222.32812 705.1719 223.875Q705.1719 223.96875 705.1719 224.15625L700.53125 224.15625Q700.59375 225.1875 701.1094 225.73438Q701.625 226.26562 702.40625 226.26562Q702.9844 226.26562 703.3906 225.96875Q703.8125 225.65625 704.0469 225.0ZM700.59375 223.29688L704.0625 223.29688Q704.0 222.5 703.6719 222.10938Q703.15625 221.5 702.3594 221.5Q701.625 221.5 701.125 221.98438Q700.6406 222.46875 700.59375 223.29688Z" fill-rule="nonzero"/><path stroke="#71c287" stroke-width="4.0" stroke-linecap="butt" d="M648.0 247.0L660.0 247.0" fill-rule="nonzero"/><path fill="#1a1a1a" d="M668.7969 243.625L668.7969 242.40625L669.8594 242.40625L669.8594 243.625L668.7969 243.625ZM668.7969 251.0L668.7969 244.78125L669.8594 244.78125L669.8594 251.0L668.7969 251.0ZM671.7969 251.0L671.7969 244.78125L672.7344 244.78125L672.7344 245.65625Q673.4219 244.64062 674.71875 244.64062Q675.28125 244.64062 675.75 244.84375Q676.2344 245.04688 676.46875 245.375Q676.7031 245.70312 676.7969 246.14062Q676.84375 246.4375 676.84375 247.17188L676.84375 251.0L675.7969 251.0L675.7969 247.21875Q675.7969 246.5625 675.6719 246.25Q675.5469 245.9375 675.2344 245.75Q674.9219 245.54688 674.5 245.54688Q673.8281 245.54688 673.3281 245.98438Q672.84375 246.40625 672.84375 247.59375L672.84375 251.0L671.7969 251.0ZM678.375 249.14062L679.40625 248.98438Q679.5 249.60938 679.8906 249.9375Q680.2969 250.26562 681.03125 250.26562Q681.75 250.26562 682.09375 249.98438Q682.4531 249.6875 682.4531 249.28125Q682.4531 248.92188 682.1406 248.71875Q681.9219 248.57812 681.0625 248.35938Q679.90625 248.0625 679.4531 247.85938Q679.0156 247.64062 678.78125 247.26562Q678.5469 246.89062 678.5469 246.42188Q678.5469 246.01562 678.7344 245.65625Q678.9219 245.29688 679.25 245.0625Q679.5 244.89062 679.9219 244.76562Q680.34375 244.64062 680.84375 244.64062Q681.5625 244.64062 682.1094 244.85938Q682.6719 245.0625 682.9375 245.42188Q683.2031 245.78125 683.2969 246.375L682.2656 246.51562Q682.2031 246.04688 681.8594 245.78125Q681.53125 245.5 680.90625 245.5Q680.1875 245.5 679.875 245.75Q679.5625 245.98438 679.5625 246.3125Q679.5625 246.51562 679.6875 246.67188Q679.8281 246.84375 680.09375 246.95312Q680.25 247.01562 681.03125 247.21875Q682.15625 247.53125 682.59375 247.71875Q683.03125 247.90625 683.28125 248.26562Q683.53125 248.625 683.53125 249.17188Q683.53125 249.70312 683.21875 250.17188Q682.9219 250.625 682.34375 250.89062Q681.7656 251.14062 681.03125 251.14062Q679.8125 251.14062 679.1719 250.64062Q678.5469 250.125 678.375 249.14062ZM689.0469 249.0L690.1406 249.125Q689.8906 250.07812 689.1875 250.60938Q688.4844 251.14062 687.40625 251.14062Q686.0469 251.14062 685.2344 250.29688Q684.4375 249.45312 684.4375 247.9375Q684.4375 246.375 685.25 245.51562Q686.0625 244.64062 687.34375 244.64062Q688.59375 244.64062 689.375 245.48438Q690.1719 246.32812 690.1719 247.875Q690.1719 247.96875 690.1719 248.15625L685.53125 248.15625Q685.59375 249.1875 686.1094 249.73438Q686.625 250.26562 687.40625 250.26562Q687.9844 250.26562 688.3906 249.96875Q688.8125 249.65625 689.0469 249.0ZM685.59375 247.29688L689.0625 247.29688Q689.0 246.5 688.6719 246.10938Q688.15625 245.5 687.3594 245.5Q686.625 245.5 686.125 245.98438Q685.6406 246.46875 685.59375 247.29688ZM691.78125 251.0L691.78125 244.78125L692.7344 244.78125L692.7344 245.71875Q693.09375 245.0625 693.3906 244.85938Q693.7031 244.64062 694.0781 244.64062Q694.6094 244.64062 695.15625 244.96875L694.7969 245.95312Q694.40625 245.71875 694.03125 245.71875Q693.6719 245.71875 693.3906 245.9375Q693.125 246.14062 693.0156 246.51562Q692.8281 247.07812 692.8281 247.73438L692.8281 251.0L691.78125 251.0ZM698.09375 250.0625L698.25 250.98438Q697.7969 251.07812 697.4531 251.07812Q696.875 251.07812 696.5625 250.90625Q696.25 250.71875 696.1094 250.42188Q695.9844 250.125 695.9844 249.17188L695.9844 245.59375L695.21875 245.59375L695.21875 244.78125L695.9844 244.78125L695.9844 243.23438L697.03125 242.60938L697.03125 244.78125L698.09375 244.78125L698.09375 245.59375L697.03125 245.59375L697.03125 249.23438Q697.03125 249.6875 697.0781 249.8125Q697.1406 249.9375 697.2656 250.01562Q697.3906 250.09375 697.625 250.09375Q697.8125 250.09375 698.09375 250.0625ZM698.7969 243.625L698.7969 242.40625L699.8594 242.40625L699.8594 243.625L698.7969 243.625ZM698.7969 251.0L698.7969 244.78125L699.8594 244.78125L699.8594 251.0L698.7969 251.0ZM701.40625 247.89062Q701.40625 246.15625 702.3594 245.32812Q703.15625 244.64062 704.3125 244.64062Q705.59375 244.64062 706.40625 245.48438Q707.2344 246.3125 707.2344 247.79688Q707.2344 249.0 706.875 249.6875Q706.5156 250.375 705.8125 250.76562Q705.125 251.14062 704.3125 251.14062Q703.0156 251.14062 702.2031 250.3125Q701.40625 249.46875 701.40625 247.89062ZM702.4844 247.89062Q702.4844 249.07812 703.0 249.67188Q703.53125 250.26562 704.3125 250.26562Q705.1094 250.26562 705.625 249.67188Q706.1406 249.07812 706.1406 247.85938Q706.1406 246.70312 705.6094 246.10938Q705.09375 245.51562 704.3125 245.51562Q703.53125 245.51562 703.0 246.10938Q702.4844 246.6875 702.4844 247.89062ZM708.7969 251.0L708.7969 244.78125L709.7344 244.78125L709.7344 245.65625Q710.4219 244.64062 711.71875 244.64062Q712.28125 244.64062 712.75 244.84375Q713.2344 245.04688 713.46875 245.375Q713.7031 245.70312 713.7969 246.14062Q713.84375 246.4375 713.84375 247.17188L713.84375 251.0L712.7969 251.0L712.7969 247.21875Q712.7969 246.5625 712.6719 246.25Q712.5469 245.9375 712.2344 245.75Q711.9219 245.54688 711.5 245.54688Q710.8281 245.54688 710.3281 245.98438Q709.84375 246.40625 709.84375 247.59375L709.84375 251.0L708.7969 251.0Z" fill-rule="nonzero"/><path stroke="#ff994d" stroke-width="4.0" stroke-linecap="butt" d="M648.0 271.0L660.0 271.0" fill-rule="nonzero"/><path fill="#1a1a1a" d="M668.375 273.14062L669.40625 272.98438Q669.5 273.60938 669.8906 273.9375Q670.2969 274.26562 671.03125 274.26562Q671.75 274.26562 672.09375 273.98438Q672.4531 273.6875 672.4531 273.28125Q672.4531 272.92188 672.1406 272.71875Q671.9219 272.57812 671.0625 272.35938Q669.90625 272.0625 669.4531 271.85938Q669.0156 271.64062 668.78125 271.26562Q668.5469 270.89062 668.5469 270.42188Q668.5469 270.01562 668.7344 269.65625Q668.9219 269.29688 669.25 269.0625Q669.5 268.89062 669.9219 268.76562Q670.34375 268.64062 670.84375 268.64062Q671.5625 268.64062 672.1094 268.85938Q672.6719 269.0625 672.9375 269.42188Q673.2031 269.78125 673.2969 270.375L672.2656 270.51562Q672.2031 270.04688 671.8594 269.78125Q671.53125 269.5 670.90625 269.5Q670.1875 269.5 669.875 269.75Q669.5625 269.98438 669.5625 270.3125Q669.5625 270.51562 669.6875 270.67188Q669.8281 270.84375 670.09375 270.95312Q670.25 271.01562 671.03125 271.21875Q672.15625 271.53125 672.59375 271.71875Q673.03125 271.90625 673.28125 272.26562Q673.53125 272.625 673.53125 273.17188Q673.53125 273.70312 673.21875 274.17188Q672.9219 274.625 672.34375 274.89062Q671.7656 275.14062 671.03125 275.14062Q669.8125 275.14062 669.1719 274.64062Q668.5469 274.125 668.375 273.14062ZM679.0469 273.0L680.1406 273.125Q679.8906 274.07812 679.1875 274.60938Q678.4844 275.14062 677.40625 275.14062Q676.0469 275.14062 675.2344 274.29688Q674.4375 273.45312 674.4375 271.9375Q674.4375 270.375 675.25 269.51562Q676.0625 268.64062 677.34375 268.64062Q678.59375 268.64062 679.375 269.48438Q680.1719 270.32812 680.1719 271.875Q680.1719 271.96875 680.1719 272.15625L675.53125 272.15625Q675.59375 273.1875 676.1094 273.73438Q676.625 274.26562 677.40625 274.26562Q677.9844 274.26562 678.3906 273.96875Q678.8125 273.65625 679.0469 273.0ZM675.59375 271.29688L679.0625 271.29688Q679.0 270.5 678.6719 270.10938Q678.15625 269.5 677.3594 269.5Q676.625 269.5 676.125 269.98438Q675.6406 270.46875 675.59375 271.29688ZM681.7656 275.0L681.7656 266.40625L682.8281 266.40625L682.8281 275.0L681.7656 275.0ZM689.0469 273.0L690.1406 273.125Q689.8906 274.07812 689.1875 274.60938Q688.4844 275.14062 687.40625 275.14062Q686.0469 275.14062 685.2344 274.29688Q684.4375 273.45312 684.4375 271.9375Q684.4375 270.375 685.25 269.51562Q686.0625 268.64062 687.34375 268.64062Q688.59375 268.64062 689.375 269.48438Q690.1719 270.32812 690.1719 271.875Q690.1719 271.96875 690.1719 272.15625L685.53125 272.15625Q685.59375 273.1875 686.1094 273.73438Q686.625 274.26562 687.40625 274.26562Q687.9844 274.26562 688.3906 273.96875Q688.8125 273.65625 689.0469 273.0ZM685.59375 271.29688L689.0625 271.29688Q689.0 270.5 688.6719 270.10938Q688.15625 269.5 687.3594 269.5Q686.625 269.5 686.125 269.98438Q685.6406 270.46875 685.59375 271.29688ZM695.8594 272.71875L696.8906 272.85938Q696.71875 273.92188 696.0156 274.53125Q695.3125 275.14062 694.2969 275.14062Q693.0156 275.14062 692.2344 274.3125Q691.46875 273.46875 691.46875 271.90625Q691.46875 270.90625 691.7969 270.15625Q692.1406 269.39062 692.8125 269.01562Q693.5 268.64062 694.3125 268.64062Q695.3125 268.64062 695.9531 269.15625Q696.6094 269.65625 696.7969 270.60938L695.7656 270.76562Q695.625 270.14062 695.25 269.82812Q694.875 269.5 694.34375 269.5Q693.5469 269.5 693.0469 270.07812Q692.5469 270.64062 692.5469 271.875Q692.5469 273.14062 693.03125 273.70312Q693.5156 274.26562 694.28125 274.26562Q694.90625 274.26562 695.3125 273.89062Q695.7344 273.51562 695.8594 272.71875ZM700.09375 274.0625L700.25 274.98438Q699.7969 275.07812 699.4531 275.07812Q698.875 275.07812 698.5625 274.90625Q698.25 274.71875 698.1094 274.42188Q697.9844 274.125 697.9844 273.17188L697.9844 269.59375L697.21875 269.59375L697.21875 268.78125L697.9844 268.78125L697.9844 267.23438L699.03125 266.60938L699.03125 268.78125L700.09375 268.78125L700.09375 269.59375L699.03125 269.59375L699.03125 273.23438Q699.03125 273.6875 699.0781 273.8125Q699.1406 273.9375 699.2656 274.01562Q699.3906 274.09375 699.625 274.09375Q699.8125 274.09375 700.09375 274.0625ZM700.7969 267.625L700.7969 266.40625L701.8594 266.40625L701.8594 267.625L700.7969 267.625ZM700.7969 275.0L700.7969 268.78125L701.8594 268.78125L701.8594 275.0L700.7969 275.0ZM703.40625 271.89062Q703.40625 270.15625 704.3594 269.32812Q705.15625 268.64062 706.3125 268.64062Q707.59375 268.64062 708.40625 269.48438Q709.2344 270.3125 709.2344 271.79688Q709.2344 273.0 708.875 273.6875Q708.5156 274.375 707.8125 274.76562Q707.125 275.14062 706.3125 275.14062Q705.0156 275.14062 704.2031 274.3125Q703.40625 273.46875 703.40625 271.89062ZM704.4844 271.89062Q704.4844 273.07812 705.0 273.67188Q705.53125 274.26562 706.3125 274.26562Q707.1094 274.26562 707.625 273.67188Q708.1406 273.07812 708.1406 271.85938Q708.1406 270.70312 707.6094 270.10938Q707.09375 269.51562 706.3125 269.51562Q705.53125 269.51562 705.0 270.10938Q704.4844 270.6875 704.4844 271.89062ZM710.7969 275.0L710.7969 268.78125L711.7344 268.78125L711.7344 269.65625Q712.4219 268.64062 713.71875 268.64062Q714.28125 268.64062 714.75 268.84375Q715.2344 269.04688 715.46875 269.375Q715.7031 269.70312 715.7969 270.14062Q715.84375 270.4375 715.84375 271.17188L715.84375 275.0L714.7969 275.0L714.7969 271.21875Q714.7969 270.5625 714.6719 270.25Q714.5469 269.9375 714.2344 269.75Q713.9219 269.54688 713.5 269.54688Q712.8281 269.54688 712.3281 269.98438Q711.84375 270.40625 711.84375 271.59375L711.84375 275.0L710.7969 275.0Z" fill-rule="nonzero"/></svg>