<svg version="1.1" viewBox="0.0 0.0 819.0 506.0" fill="none" stroke="none" stroke-linecap="square" stroke-miterlimit="10" width="819" height="506" xmlns:xlink="http://www.w3.org/1999/xlink" xmlns="http://www.w3.org/2000/svg"><path fill="#ffffff" d="M0 0L819.0 0L819.0 506.0L0 506.0L0 0Z" fill-rule="nonzero"/><path stroke="#cccccc" stroke-width="1.0" stroke-linecap="butt" d="M259.5 73.5L259.5 428.5" fill-rule="nonzero"/><path stroke="#cccccc" stroke-width="1.0" stroke-linecap="butt" d="M393.5 73.5L393.5 428.5" fill-rule="nonzero"/><path stroke="#cccccc" stroke-width="1.0" stroke-linecap="butt" d="M526.5 73.5L526.5 428.5" fill-rule="nonzero"/><path stroke="#cccccc" stroke-width="1.0" stroke-linecap="butt" d="M660.5 73.5L660.5 428.5" fill-rule="nonzero"/><path stroke="#cccccc" stroke-width="1.0" stroke-linecap="butt" d="M793.5 73.5L793.5 428.5" fill-rule="nonzero"/><path stroke="#333333" stroke-width="1.0" stroke-linecap="butt" d="M126.5 428.5L793.5 428.5" fill-rule="nonzero"/><path stroke="#cccccc" stroke-width="1.0" stroke-linecap="butt" d="M126.5 339.5L793.5 339.5" fill-rule="nonzero"/><path stroke="#cccccc" stroke-width="1.0" stroke-linecap="butt" d="M126.5 250.5L793.5 250.5" fill-rule="nonzero"/><path stroke="#cccccc" stroke-width="1.0" stroke-linecap="butt" d="M126.5 162.5L793.5 162.5" fill-rule="nonzero"/><path stroke="#cccccc" stroke-width="1.0" stroke-linecap="butt" d="M126.5 73.5L793.5 73.5" fill-rule="nonzero"/><clipPath id="id_0"><path d="M126.3 73.166664L793.7 73.166664L793.7 428.7L126.3 428.7L126.3 73.166664Z" clip-rule="nonzero"/></clipPath><path stroke="#4285f4" stroke-width="2.0" stroke-linecap="butt" clip-path="url(#id_0)" d="M126.3 428.7C126.3 428.7 126.31335 428.7 126.32002 428.7C126.3267 428.7 126.34227 428.7 126.35339 428.7C126.36452 428.69998 126.37564 428.69998 126.386765 428.69998C126.39789 428.69998 126.40901 428.69998 126.420135 428.69998C126.43126 428.69998 126.55362 428.69995 126.62036 428.69995C126.6871 428.69992 126.84283 428.69986 126.95406 428.69977C127.0653 428.6997 127.17654 428.69965 127.28777 428.69952C127.39901 428.6994 127.51025 428.69925 127.621475 428.69907C127.73271 428.69885 128.9563 428.6971 129.62372 428.6947C130.29114 428.69226 131.84843 428.6854 132.96078 428.6777C134.07314 428.67 135.1855 428.66083 136.29785 428.64847C137.4102 428.6361 138.52257 428.62656 139.63492 428.60364C140.74727 428.5807 152.98318 428.34225 159.65732 428.04733C166.33145 427.75244 181.90443 426.91812 193.02798 426.02554C204.15154 425.13293 215.2751 424.05014 226.39865 422.69177C237.52222 421.3334 248.64577 420.24396 259.76932 417.87537C270.89288 415.5068 393.25198 390.9728 459.99332 361.50488C526.7347 332.03696 793.7 160.77654 793.7 160.77654" fill-rule="nonzero"/><path fill="#000000" fill-opacity="0.0" clip-path="url(#id_0)" d="M129.3 428.7C129.3 430.35684 127.956856 431.7 126.3 431.7C124.64314 431.7 123.3 430.35684 123.3 428.7C123.3 427.04315 124.64314 425.7 126.3 425.7C127.956856 425.7 129.3 427.04315 129.3 428.7Z" fill-rule="nonzero"/><path fill="#000000" fill-opacity="0.0" clip-path="url(#id_0)" d="M129.32002 428.7C129.32002 430.35684 127.976875 431.7 126.32002 431.7C124.66317 431.7 123.32002 430.35684 123.32002 428.7C123.32002 427.04315 124.66317 425.7 126.32002 425.7C127.976875 425.7 129.32002 427.04315 129.32002 428.7Z" fill-rule="nonzero"/><path fill="#000000" fill-opacity="0.0" clip-path="url(#id_0)" d="M129.3534 428.7C129.3534 430.35684 128.01025 431.7 126.35339 431.7C124.69654 431.7 123.35339 430.35684 123.35339 428.7C123.35339 427.04315 124.69654 425.7 126.35339 425.7C128.01025 425.7 129.3534 427.04315 129.3534 428.7Z" fill-rule="nonzero"/><path fill="#000000" fill-opacity="0.0" clip-path="url(#id_0)" d="M129.38676 428.69998C129.38676 430.35684 128.04362 431.69998 126.386765 431.69998C124.72991 431.69998 123.386765 430.35684 123.386765 428.69998C123.386765 427.04315 124.72991 425.69998 126.386765 425.69998C128.04362 425.69998 129.38676 427.04315 129.38676 428.69998Z" fill-rule="nonzero"/><path fill="#000000" fill-opacity="0.0" clip-path="url(#id_0)" d="M129.42014 428.69998C129.42014 430.35684 128.077 431.69998 126.420135 431.69998C124.76328 431.69998 123.420135 430.35684 123.420135 428.69998C123.420135 427.04312 124.76328 425.69998 126.420135 425.69998C128.077 425.69998 129.42014 427.04312 129.42014 428.69998Z" fill-rule="nonzero"/><path fill="#000000" fill-opacity="0.0" clip-path="url(#id_0)" d="M129.62036 428.69995C129.62036 430.35678 128.2772 431.69995 126.62036 431.69995C124.9635 431.69995 123.62036 430.35678 123.62036 428.69995C123.62036 427.0431 124.9635 425.69995 126.62036 425.69995C128.2772 425.69995 129.62036 427.0431 129.62036 428.69995Z" fill-rule="nonzero"/><path fill="#000000" fill-opacity="0.0" clip-path="url(#id_0)" d="M129.95407 428.69977C129.95407 430.35663 128.61092 431.69977 126.95406 431.69977C125.29721 431.69977 123.95406 430.35663 123.95406 428.69977C123.95406 427.04294 125.29721 425.69977 126.95406 425.69977C128.61092 425.69977 129.95407 427.04294 129.95407 428.69977Z" fill-rule="nonzero"/><path fill="#000000" fill-opacity="0.0" clip-path="url(#id_0)" d="M130.28777 428.69952C130.28777 430.35638 128.94463 431.69952 127.28777 431.69952C125.63092 431.69952 124.28777 430.35638 124.28777 428.69952C124.28777 427.04266 125.63092 425.69952 127.28777 425.69952C128.94463 425.69952 130.28777 427.04266 130.28777 428.69952Z" fill-rule="nonzero"/><path fill="#000000" fill-opacity="0.0" clip-path="url(#id_0)" d="M130.62148 428.69907C130.62148 430.3559 129.27834 431.69907 127.621475 431.69907C125.96462 431.69907 124.621475 430.3559 124.621475 428.69907C124.621475 427.0422 125.96462 425.69907 127.621475 425.69907C129.27834 425.69907 130.62148 427.0422 130.62148 428.69907Z" fill-rule="nonzero"/><path fill="#000000" fill-opacity="0.0" clip-path="url(#id_0)" d="M132.62372 428.6947C132.62372 430.35153 131.28058 431.6947 129.62372 431.6947C127.966866 431.6947 126.62372 430.35153 126.62372 428.6947C126.62372 427.03784 127.966866 425.6947 129.62372 425.6947C131.28058 425.6947 132.62372 427.03784 132.62372 428.6947Z" fill-rule="nonzero"/><path fill="#000000" fill-opacity="0.0" clip-path="url(#id_0)" d="M135.96078 428.6777C135.96078 430.33456 134.61765 431.6777 132.96078 431.6777C131.30392 431.6777 129.96078 430.33456 129.96078 428.6777C129.96078 427.02084 131.30392 425.6777 132.96078 425.6777C134.61765 425.6777 135.96078 427.02084 135.96078 428.6777Z" fill-rule="nonzero"/><path fill="#000000" fill-opacity="0.0" clip-path="url(#id_0)" d="M139.29785 428.64847C139.29785 430.30533 137.95471 431.64847 136.29785 431.64847C134.64099 431.64847 133.29785 430.30533 133.29785 428.64847C133.29785 426.9916 134.64099 425.64847 136.29785 425.64847C137.95471 425.64847 139.29785 426.9916 139.29785 428.64847Z" fill-rule="nonzero"/><path fill="#000000" fill-opacity="0.0" clip-path="url(#id_0)" d="M142.63492 428.60364C142.63492 430.26047 141.29178 431.60364 139.63492 431.60364C137.97806 431.60364 136.63492 430.26047 136.63492 428.60364C136.63492 426.94678 137.97806 425.60364 139.63492 425.60364C141.29178 425.60364 142.63492 426.94678 142.63492 428.60364Z" fill-rule="nonzero"/><path fill="#000000" fill-opacity="0.0" clip-path="url(#id_0)" d="M162.65732 428.04733C162.65732 429.7042 161.31418 431.04733 159.65732 431.04733C158.00046 431.04733 156.65732 429.7042 156.65732 428.04733C156.65732 426.3905 158.00046 425.04733 159.65732 425.04733C161.31418 425.04733 162.65732 426.3905 162.65732 428.04733Z" fill-rule="nonzero"/><path fill="#000000" fill-opacity="0.0" clip-path="url(#id_0)" d="M196.02798 426.02554C196.02798 427.68237 194.68484 429.02554 193.02798 429.02554C191.37114 429.02554 190.02798 427.68237 190.02798 426.02554C190.02798 424.36868 191.37114 423.02554 193.02798 423.02554C194.68484 423.02554 196.02798 424.36868 196.02798 426.02554Z" fill-rule="nonzero"/><path fill="#000000" fill-opacity="0.0" clip-path="url(#id_0)" d="M229.39865 422.69177C229.39865 424.34863 228.05551 425.69177 226.39865 425.69177C224.7418 425.69177 223.39865 424.34863 223.39865 422.69177C223.39865 421.0349 224.7418 419.69177 226.39865 419.69177C228.05551 419.69177 229.39865 421.0349 229.39865 422.69177Z" fill-rule="nonzero"/><path fill="#000000" fill-opacity="0.0" clip-path="url(#id_0)" d="M262.76932 417.87537C262.76932 419.53223 261.42618 420.87537 259.76932 420.87537C258.11246 420.87537 256.76932 419.53223 256.76932 417.87537C256.76932 416.21854 258.11246 414.87537 259.76932 414.87537C261.42618 414.87537 262.76932 416.21854 262.76932 417.87537Z" fill-rule="nonzero"/><path fill="#000000" fill-opacity="0.0" clip-path="url(#id_0)" d="M462.99332 361.50488C462.99332 363.16174 461.65018 364.50488 459.99332 364.50488C458.3365 364.50488 456.99332 363.16174 456.99332 361.50488C456.99332 359.84802 458.3365 358.50488 459.99332 358.50488C461.65018 358.50488 462.99332 359.84802 462.99332 361.50488Z" fill-rule="nonzero"/><path fill="#000000" fill-opacity="0.0" clip-path="url(#id_0)" d="M796.7 160.77654C796.7 162.4334 795.3569 163.77654 793.7 163.77654C792.04315 163.77654 790.7 162.4334 790.7 160.77654C790.7 159.11969 792.04315 157.77654 793.7 157.77654C795.3569 157.77654 796.7 159.11969 796.7 160.77654Z" fill-rule="nonzero"/><path fill="#000000" d="M457.29688 477.7L457.29688 471.48126L458.23438 471.48126L458.23438 472.35626Q458.92188 471.34064 460.21875 471.34064Q460.78125 471.34064 461.25 471.54376Q461.73438 471.7469 461.96875 472.075Q462.20312 472.40314 462.29688 472.84064Q462.34375 473.1375 462.34375 473.8719L462.34375 477.7L461.29688 477.7L461.29688 473.91876Q461.29688 473.2625 461.17188 472.95Q461.04688 472.6375 460.73438 472.45Q460.42188 472.2469 460.0 472.2469Q459.32812 472.2469 458.82812 472.6844Q458.34375 473.10626 458.34375 474.29376L458.34375 477.7L457.29688 477.7Z" fill-rule="nonzero"/><path fill="#000000" d="M36.30001 274.63644L30.081263 274.63644L30.081263 273.69894L30.956263 273.69894Q30.487513 273.40207 30.221888 272.9177Q29.940638 272.43332 29.940638 271.80832Q29.940638 271.12082 30.221888 270.68332Q30.503138 270.2302 31.018763 270.05832Q29.940638 269.30832 29.940638 268.13644Q29.940638 267.19894 30.456263 266.71457Q30.956263 266.21457 32.034386 266.21457L36.30001 266.21457L36.30001 267.26144L32.378136 267.26144Q31.753138 267.26144 31.471888 267.37082Q31.190638 267.46457 31.018763 267.7302Q30.846888 267.99582 30.846888 268.37082Q30.846888 269.02707 31.284388 269.46457Q31.721888 269.88644 32.690636 269.88644L36.30001 269.88644L36.30001 270.94894L32.253136 270.94894Q31.550013 270.94894 31.206263 271.21457Q30.846888 271.46457 30.846888 272.0427Q30.846888 272.49582 31.081263 272.87082Q31.315638 273.24582 31.768763 273.4177Q32.221886 273.58957 33.065636 273.58957L36.30001 273.58957L36.30001 274.63644ZM28.925013 264.63644L27.706263 264.63644L27.706263 263.57394L28.925013 263.57394L28.925013 264.63644ZM36.30001 264.63644L30.081263 264.63644L30.081263 263.57394L36.30001 263.57394L36.30001 264.63644ZM34.01876 257.57394L34.159386 256.5427Q35.221886 256.71457 35.83126 257.4177Q36.440636 258.12082 36.440636 259.13644Q36.440636 260.4177 35.61251 261.19894Q34.76876 261.96457 33.20626 261.96457Q32.20626 261.96457 31.456263 261.63644Q30.690638 261.2927 30.315638 260.62082Q29.940638 259.93332 29.940638 259.12082Q29.940638 258.12082 30.456263 257.4802Q30.956263 256.82394 31.909388 256.63644L32.065636 257.6677Q31.440638 257.80832 31.128138 258.18332Q30.800013 258.55832 30.800013 259.08957Q30.800013 259.88644 31.378138 260.38644Q31.940638 260.88644 33.17501 260.88644Q34.440636 260.88644 35.003136 260.40207Q35.565636 259.9177 35.565636 259.15207Q35.565636 258.52707 35.190636 258.12082Q34.815636 257.69894 34.01876 257.57394ZM36.30001 255.65208L30.081263 255.65208L30.081263 254.69896L31.018763 254.69896Q30.362513 254.33958 30.159388 254.04271Q29.940638 253.73021 29.940638 253.35521Q29.940638 252.82396 30.268763 252.27708L31.253138 252.63646Q31.018763 253.02708 31.018763 253.40208Q31.018763 253.76146 31.237513 254.04271Q31.440638 254.30833 31.815638 254.41771Q32.378136 254.60521 33.034386 254.60521L36.30001 254.60521L36.30001 255.65208ZM33.190636 252.02708Q31.456263 252.02708 30.628138 251.07396Q29.940638 250.27708 29.940638 249.12083Q29.940638 247.83958 30.784388 247.02708Q31.612513 246.19896 33.096886 246.19896Q34.30001 246.19896 34.98751 246.55833Q35.67501 246.91771 36.065636 247.62083Q36.440636 248.30833 36.440636 249.12083Q36.440636 250.41771 35.61251 251.23021Q34.76876 252.02708 33.190636 252.02708ZM33.190636 250.94896Q34.378136 250.94896 34.971886 250.43333Q35.565636 249.90208 35.565636 249.12083Q35.565636 248.32396 34.971886 247.80833Q34.378136 247.29271 33.159386 247.29271Q32.003136 247.29271 31.409388 247.82396Q30.815638 248.33958 30.815638 249.12083Q30.815638 249.90208 31.409388 250.43333Q31.987513 250.94896 33.190636 250.94896ZM34.440636 245.05833L34.284386 244.02708Q34.909386 243.93333 35.23751 243.54271Q35.565636 243.13646 35.565636 242.40208Q35.565636 241.68333 35.284386 241.33958Q34.98751 240.98021 34.58126 240.98021Q34.221886 240.98021 34.01876 241.29271Q33.878136 241.51146 33.659386 242.37083Q33.36251 243.52708 33.159386 243.98021Q32.940636 244.41771 32.565636 244.65208Q32.190636 244.88646 31.721888 244.88646Q31.315638 244.88646 30.956263 244.69896Q30.596888 244.51146 30.362513 244.18333Q30.190638 243.93333 30.065638 243.51146Q29.940638 243.08958 29.940638 242.58958Q29.940638 241.87083 30.159388 241.32396Q30.362513 240.76146 30.721888 240.49583Q31.081263 240.23021 31.675013 240.13646L31.815638 241.16771Q31.346888 241.23021 31.081263 241.57396Q30.800013 241.90208 30.800013 242.52708Q30.800013 243.24583 31.050013 243.55833Q31.284388 243.87083 31.612513 243.87083Q31.815638 243.87083 31.971888 243.74583Q32.14376 243.60521 32.253136 243.33958Q32.315636 243.18333 32.51876 242.40208Q32.83126 241.27708 33.01876 240.83958Q33.20626 240.40208 33.565636 240.15208Q33.92501 239.90208 34.471886 239.90208Q35.003136 239.90208 35.471886 240.21458Q35.92501 240.51146 36.190636 241.08958Q36.440636 241.66771 36.440636 242.40208Q36.440636 243.62083 35.940636 244.26146Q35.42501 244.88646 34.440636 245.05833Z" fill-rule="nonzero"/><path fill="#000000" d="M113.8 428.46564Q113.8 426.9344 114.1125 426.0125Q114.425 425.075 115.03438 424.575Q115.65938 424.075 116.59688 424.075Q117.28438 424.075 117.8 424.35626Q118.33125 424.6375 118.675 425.16876Q119.01875 425.6844 119.20625 426.4344Q119.39375 427.1844 119.39375 428.46564Q119.39375 429.98126 119.08125 430.90314Q118.78438 431.825 118.15938 432.34064Q117.55 432.84064 116.59688 432.84064Q115.3625 432.84064 114.64375 431.95Q113.8 430.8875 113.8 428.46564ZM114.87813 428.46564Q114.87813 430.575 115.37813 431.27814Q115.87813 431.98126 116.59688 431.98126Q117.33125 431.98126 117.81563 431.27814Q118.31563 430.575 118.31563 428.46564Q118.31563 426.34064 117.81563 425.65314Q117.33125 424.95 116.58125 424.95Q115.8625 424.95 115.425 425.5594Q114.87813 426.34064 114.87813 428.46564Z" fill-rule="nonzero"/><path fill="#000000" d="M63.346874 342.80106L63.346874 343.81668L57.659374 343.81668Q57.659374 343.44168 57.784374 343.0823Q58.003124 342.50418 58.471874 341.94168Q58.95625 341.37918 59.8625 340.6448Q61.26875 339.48856 61.753124 338.81668Q62.253124 338.1448 62.253124 337.55106Q62.253124 336.92606 61.8 336.50418Q61.346874 336.06668 60.628124 336.06668Q59.8625 336.06668 59.409374 336.5198Q58.95625 336.97293 58.940624 337.78543L57.8625 337.67606Q57.971874 336.4573 58.690624 335.8323Q59.425 335.19168 60.659374 335.19168Q61.89375 335.19168 62.6125 335.87918Q63.33125 336.56668 63.33125 337.5823Q63.33125 338.09793 63.1125 338.59793Q62.909374 339.0823 62.409374 339.6448Q61.925 340.19168 60.8 341.1448Q59.846874 341.94168 59.565624 342.23856Q59.3 342.5198 59.128124 342.80106L63.346874 342.80106ZM64.8 339.5823Q64.8 338.05106 65.1125 337.12918Q65.425 336.19168 66.03438 335.69168Q66.65938 335.19168 67.59688 335.19168Q68.28438 335.19168 68.8 335.47293Q69.33125 335.75418 69.675 336.28543Q70.01875 336.80106 70.20625 337.55106Q70.39375 338.30106 70.39375 339.5823Q70.39375 341.09793 70.08125 342.0198Q69.78438 342.94168 69.15938 343.4573Q68.55 343.9573 67.59688 343.9573Q66.3625 343.9573 65.64375 343.06668Q64.8 342.00418 64.8 339.5823ZM65.87813 339.5823Q65.87813 341.69168 66.37813 342.3948Q66.87813 343.09793 67.59688 343.09793Q68.33125 343.09793 68.81563 342.3948Q69.31563 341.69168 69.31563 339.5823Q69.31563 337.4573 68.81563 336.7698Q68.33125 336.06668 67.58125 336.06668Q66.8625 336.06668 66.425 336.67606Q65.87813 337.4573 65.87813 339.5823ZM71.8 339.5823Q71.8 338.05106 72.1125 337.12918Q72.425 336.19168 73.03438 335.69168Q73.65938 335.19168 74.59688 335.19168Q75.28438 335.19168 75.8 335.47293Q76.33125 335.75418 76.675 336.28543Q77.01875 336.80106 77.20625 337.55106Q77.39375 338.30106 77.39375 339.5823Q77.39375 341.09793 77.08125 342.0198Q76.78438 342.94168 76.15938 343.4573Q75.55 343.9573 74.59688 343.9573Q73.3625 343.9573 72.64375 343.06668Q71.8 342.00418 71.8 339.5823ZM72.87813 339.5823Q72.87813 341.69168 73.37813 342.3948Q73.87813 343.09793 74.59688 343.09793Q75.33125 343.09793 75.81563 342.3948Q76.31563 341.69168 76.31563 339.5823Q76.31563 337.4573 75.81563 336.7698Q75.33125 336.06668 74.58125 336.06668Q73.8625 336.06668 73.425 336.67606Q72.87813 337.4573 72.87813 339.5823ZM78.8 339.5823Q78.8 338.05106 79.1125 337.12918Q79.425 336.19168 80.03438 335.69168Q80.65938 335.19168 81.59688 335.19168Q82.28438 335.19168 82.8 335.47293Q83.33125 335.75418 83.675 336.28543Q84.01875 336.80106 84.20625 337.55106Q84.39375 338.30106 84.39375 339.5823Q84.39375 341.09793 84.08125 342.0198Q83.78438 342.94168 83.15938 343.4573Q82.55 343.9573 81.59688 343.9573Q80.3625 343.9573 79.64375 343.06668Q78.8 342.00418 78.8 339.5823ZM79.87813 339.5823Q79.87813 341.69168 80.37813 342.3948Q80.87813 343.09793 81.59688 343.09793Q82.33125 343.09793 82.81563 342.3948Q83.31563 341.69168 83.31563 339.5823Q83.31563 337.4573 82.81563 336.7698Q82.33125 336.06668 81.58125 336.06668Q80.8625 336.06668 80.425 336.67606Q79.87813 337.4573 79.87813 339.5823ZM85.8 339.5823Q85.8 338.05106 86.1125 337.12918Q86.425 336.19168 87.03438 335.69168Q87.65938 335.19168 88.59688 335.19168Q89.28438 335.19168 89.8 335.47293Q90.33125 335.75418 90.675 336.28543Q91.01875 336.80106 91.20625 337.55106Q91.39375 338.30106 91.39375 339.5823Q91.39375 341.09793 91.08125 342.0198Q90.78438 342.94168 90.15938 343.4573Q89.55 343.9573 88.59688 343.9573Q87.3625 343.9573 86.64375 343.06668Q85.8 342.00418 85.8 339.5823ZM86.87813 339.5823Q86.87813 341.69168 87.37813 342.3948Q87.87813 343.09793 88.59688 343.09793Q89.33125 343.09793 89.81563 342.3948Q90.31563 341.69168 90.31563 339.5823Q90.31563 337.4573 89.81563 336.7698Q89.33125 336.06668 88.58125 336.06668Q87.8625 336.06668 87.425 336.67606Q86.87813 337.4573 86.87813 339.5823ZM92.8 339.5823Q92.8 338.05106 93.1125 337.12918Q93.425 336.19168 94.03438 335.69168Q94.65938 335.19168 95.59688 335.19168Q96.28438 335.19168 96.8 335.47293Q97.33125 335.75418 97.675 336.28543Q98.01875 336.80106 98.20625 337.55106Q98.39375 338.30106 98.39375 339.5823Q98.39375 341.09793 98.08125 342.0198Q97.78438 342.94168 97.15938 343.4573Q96.55 343.9573 95.59688 343.9573Q94.3625 343.9573 93.64375 343.06668Q92.8 342.00418 92.8 339.5823ZM93.87813 339.5823Q93.87813 341.69168 94.37813 342.3948Q94.87813 343.09793 95.59688 343.09793Q96.33125 343.09793 96.81563 342.3948Q97.31563 341.69168 97.31563 339.5823Q97.31563 337.4573 96.81563 336.7698Q96.33125 336.06668 95.58125 336.06668Q94.8625 336.06668 94.425 336.67606Q93.87813 337.4573 93.87813 339.5823ZM99.8 339.5823Q99.8 338.05106 100.1125 337.12918Q100.425 336.19168 101.03438 335.69168Q101.65938 335.19168 102.59688 335.19168Q103.28438 335.19168 103.8 335.47293Q104.33125 335.75418 104.675 336.28543Q105.01875 336.80106 105.20625 337.55106Q105.39375 338.30106 105.39375 339.5823Q105.39375 341.09793 105.08125 342.0198Q104.78438 342.94168 104.15938 343.4573Q103.55 343.9573 102.59688 343.9573Q101.3625 343.9573 100.64375 343.06668Q99.8 342.00418 99.8 339.5823ZM100.87813 339.5823Q100.87813 341.69168 101.37813 342.3948Q101.87813 343.09793 102.59688 343.09793Q103.33125 343.09793 103.81563 342.3948Q104.31563 341.69168 104.31563 339.5823Q104.31563 337.4573 103.81563 336.7698Q103.33125 336.06668 102.58125 336.06668Q101.8625 336.06668 101.425 336.67606Q100.87813 337.4573 100.87813 339.5823ZM106.8 339.5823Q106.8 338.05106 107.1125 337.12918Q107.425 336.19168 108.03438 335.69168Q108.65938 335.19168 109.59688 335.19168Q110.28438 335.19168 110.8 335.47293Q111.33125 335.75418 111.675 336.28543Q112.01875 336.80106 112.20625 337.55106Q112.39375 338.30106 112.39375 339.5823Q112.39375 341.09793 112.08125 342.0198Q111.78438 342.94168 111.15938 343.4573Q110.55 343.9573 109.59688 343.9573Q108.3625 343.9573 107.64375 343.06668Q106.8 342.00418 106.8 339.5823ZM107.87813 339.5823Q107.87813 341.69168 108.37813 342.3948Q108.87813 343.09793 109.59688 343.09793Q110.33125 343.09793 110.81563 342.3948Q111.31563 341.69168 111.31563 339.5823Q111.31563 337.4573 110.81563 336.7698Q110.33125 336.06668 109.58125 336.06668Q108.8625 336.06668 108.425 336.67606Q107.87813 337.4573 107.87813 339.5823ZM113.8 339.5823Q113.8 338.05106 114.1125 337.12918Q114.425 336.19168 115.03438 335.69168Q115.65938 335.19168 116.59688 335.19168Q117.28438 335.19168 117.8 335.47293Q118.33125 335.75418 118.675 336.28543Q119.01875 336.80106 119.20625 337.55106Q119.39375 338.30106 119.39375 339.5823Q119.39375 341.09793 119.08125 342.0198Q118.78438 342.94168 118.15938 343.4573Q117.55 343.9573 116.59688 343.9573Q115.3625 343.9573 114.64375 343.06668Q113.8 342.00418 113.8 339.5823ZM114.87813 339.5823Q114.87813 341.69168 115.37813 342.3948Q115.87813 343.09793 116.59688 343.09793Q117.33125 343.09793 117.81563 342.3948Q118.31563 341.69168 118.31563 339.5823Q118.31563 337.4573 117.81563 336.7698Q117.33125 336.06668 116.58125 336.06668Q115.8625 336.06668 115.425 336.67606Q114.87813 337.4573 114.87813 339.5823Z" fill-rule="nonzero"/><path fill="#000000" d="M61.175 254.93333L61.175 252.87083L57.45625 252.87083L57.45625 251.90208L61.378124 246.33958L62.2375 246.33958L62.2375 251.90208L63.39375 251.90208L63.39375 252.87083L62.2375 252.87083L62.2375 254.93333L61.175 254.93333ZM61.175 251.90208L61.175 248.04271L58.4875 251.90208L61.175 251.90208ZM64.8 250.69896Q64.8 249.16771 65.1125 248.24583Q65.425 247.30833 66.03438 246.80833Q66.65938 246.30833 67.59688 246.30833Q68.28438 246.30833 68.8 246.58958Q69.33125 246.87083 69.675 247.40208Q70.01875 247.91771 70.20625 248.66771Q70.39375 249.41771 70.39375 250.69896Q70.39375 252.21458 70.08125 253.13646Q69.78438 254.05833 69.15938 254.57396Q68.55 255.07396 67.59688 255.07396Q66.3625 255.07396 65.64375 254.18333Q64.8 253.12083 64.8 250.69896ZM65.87813 250.69896Q65.87813 252.80833 66.37813 253.51146Q66.87813 254.21458 67.59688 254.21458Q68.33125 254.21458 68.81563 253.51146Q69.31563 252.80833 69.31563 250.69896Q69.31563 248.57396 68.81563 247.88646Q68.33125 247.18333 67.58125 247.18333Q66.8625 247.18333 66.425 247.79271Q65.87813 248.57396 65.87813 250.69896ZM71.8 250.69896Q71.8 249.16771 72.1125 248.24583Q72.425 247.30833 73.03438 246.80833Q73.65938 246.30833 74.59688 246.30833Q75.28438 246.30833 75.8 246.58958Q76.33125 246.87083 76.675 247.40208Q77.01875 247.91771 77.20625 248.66771Q77.39375 249.41771 77.39375 250.69896Q77.39375 252.21458 77.08125 253.13646Q76.78438 254.05833 76.15938 254.57396Q75.55 255.07396 74.59688 255.07396Q73.3625 255.07396 72.64375 254.18333Q71.8 253.12083 71.8 250.69896ZM72.87813 250.69896Q72.87813 252.80833 73.37813 253.51146Q73.87813 254.21458 74.59688 254.21458Q75.33125 254.21458 75.81563 253.51146Q76.31563 252.80833 76.31563 250.69896Q76.31563 248.57396 75.81563 247.88646Q75.33125 247.18333 74.58125 247.18333Q73.8625 247.18333 73.425 247.79271Q72.87813 248.57396 72.87813 250.69896ZM78.8 250.69896Q78.8 249.16771 79.1125 248.24583Q79.425 247.30833 80.03438 246.80833Q80.65938 246.30833 81.59688 246.30833Q82.28438 246.30833 82.8 246.58958Q83.33125 246.87083 83.675 247.40208Q84.01875 247.91771 84.20625 248.66771Q84.39375 249.41771 84.39375 250.69896Q84.39375 252.21458 84.08125 253.13646Q83.78438 254.05833 83.15938 254.57396Q82.55 255.07396 81.59688 255.07396Q80.3625 255.07396 79.64375 254.18333Q78.8 253.12083 78.8 250.69896ZM79.87813 250.69896Q79.87813 252.80833 80.37813 253.51146Q80.87813 254.21458 81.59688 254.21458Q82.33125 254.21458 82.81563 253.51146Q83.31563 252.80833 83.31563 250.69896Q83.31563 248.57396 82.81563 247.88646Q82.33125 247.18333 81.58125 247.18333Q80.8625 247.18333 80.425 247.79271Q79.87813 248.57396 79.87813 250.69896ZM85.8 250.69896Q85.8 249.16771 86.1125 248.24583Q86.425 247.30833 87.03438 246.80833Q87.65938 246.30833 88.59688 246.30833Q89.28438 246.30833 89.8 246.58958Q90.33125 246.87083 90.675 247.40208Q91.01875 247.91771 91.20625 248.66771Q91.39375 249.41771 91.39375 250.69896Q91.39375 252.21458 91.08125 253.13646Q90.78438 254.05833 90.15938 254.57396Q89.55 255.07396 88.59688 255.07396Q87.3625 255.07396 86.64375 254.18333Q85.8 253.12083 85.8 250.69896ZM86.87813 250.69896Q86.87813 252.80833 87.37813 253.51146Q87.87813 254.21458 88.59688 254.21458Q89.33125 254.21458 89.81563 253.51146Q90.31563 252.80833 90.31563 250.69896Q90.31563 248.57396 89.81563 247.88646Q89.33125 247.18333 88.58125 247.18333Q87.8625 247.18333 87.425 247.79271Q86.87813 248.57396 86.87813 250.69896ZM92.8 250.69896Q92.8 249.16771 93.1125 248.24583Q93.425 247.30833 94.03438 246.80833Q94.65938 246.30833 95.59688 246.30833Q96.28438 246.30833 96.8 246.58958Q97.33125 246.87083 97.675 247.40208Q98.01875 247.91771 98.20625 248.66771Q98.39375 249.41771 98.39375 250.69896Q98.39375 252.21458 98.08125 253.13646Q97.78438 254.05833 97.15938 254.57396Q96.55 255.07396 95.59688 255.07396Q94.3625 255.07396 93.64375 254.18333Q92.8 253.12083 92.8 250.69896ZM93.87813 250.69896Q93.87813 252.80833 94.37813 253.51146Q94.87813 254.21458 95.59688 254.21458Q96.33125 254.21458 96.81563 253.51146Q97.31563 252.80833 97.31563 250.69896Q97.31563 248.57396 96.81563 247.88646Q96.33125 247.18333 95.58125 247.18333Q94.8625 247.18333 94.425 247.79271Q93.87813 248.57396 93.87813 250.69896ZM99.8 250.69896Q99.8 249.16771 100.1125 248.24583Q100.425 247.30833 101.03438 246.80833Q101.65938 246.30833 102.59688 246.30833Q103.28438 246.30833 103.8 246.58958Q104.33125 246.87083 104.675 247.40208Q105.01875 247.91771 105.20625 248.66771Q105.39375 249.41771 105.39375 250.69896Q105.39375 252.21458 105.08125 253.13646Q104.78438 254.05833 104.15938 254.57396Q103.55 255.07396 102.59688 255.07396Q101.3625 255.07396 100.64375 254.18333Q99.8 253.12083 99.8 250.69896ZM100.87813 250.69896Q100.87813 252.80833 101.37813 253.51146Q101.87813 254.21458 102.59688 254.21458Q103.33125 254.21458 103.81563 253.51146Q104.31563 252.80833 104.31563 250.69896Q104.31563 248.57396 103.81563 247.88646Q103.33125 247.18333 102.58125 247.18333Q101.8625 247.18333 101.425 247.79271Q100.87813 248.57396 100.87813 250.69896ZM106.8 250.69896Q106.8 249.16771 107.1125 248.24583Q107.425 247.30833 108.03438 246.80833Q108.65938 246.30833 109.59688 246.30833Q110.28438 246.30833 110.8 246.58958Q111.33125 246.87083 111.675 247.40208Q112.01875 247.91771 112.20625 248.66771Q112.39375 249.41771 112.39375 250.69896Q112.39375 252.21458 112.08125 253.13646Q111.78438 254.05833 111.15938 254.57396Q110.55 255.07396 109.59688 255.07396Q108.3625 255.07396 107.64375 254.18333Q106.8 253.12083 106.8 250.69896ZM107.87813 250.69896Q107.87813 252.80833 108.37813 253.51146Q108.87813 254.21458 109.59688 254.21458Q110.33125 254.21458 110.81563 253.51146Q111.31563 252.80833 111.31563 250.69896Q111.31563 248.57396 110.81563 247.88646Q110.33125 247.18333 109.58125 247.18333Q108.8625 247.18333 108.425 247.79271Q107.87813 248.57396 107.87813 250.69896ZM113.8 250.69896Q113.8 249.16771 114.1125 248.24583Q114.425 247.30833 115.03438 246.80833Q115.65938 246.30833 116.59688 246.30833Q117.28438 246.30833 117.8 246.58958Q118.33125 246.87083 118.675 247.40208Q119.01875 247.91771 119.20625 248.66771Q119.39375 249.41771 119.39375 250.69896Q119.39375 252.21458 119.08125 253.13646Q118.78438 254.05833 118.15938 254.57396Q117.55 255.07396 116.59688 255.07396Q115.3625 255.07396 114.64375 254.18333Q113.8 253.12083 113.8 250.69896ZM114.87813 250.69896Q114.87813 252.80833 115.37813 253.51146Q115.87813 254.21458 116.59688 254.21458Q117.33125 254.21458 117.81563 253.51146Q118.31563 252.80833 118.31563 250.69896Q118.31563 248.57396 117.81563 247.88646Q117.33125 247.18333 116.58125 247.18333Q115.8625 247.18333 115.425 247.79271Q114.87813 248.57396 114.87813 250.69896Z" fill-rule="nonzero"/><path fill="#000000" d="M63.26875 159.56563L62.221874 159.64375Q62.08125 159.01875 61.83125 158.7375Q61.39375 158.28438 60.76875 158.28438Q60.26875 158.28438 59.878124 158.56563Q59.39375 158.94063 59.096874 159.64375Q58.815624 160.33125 58.8 161.6125Q59.175 161.03438 59.721874 160.75313Q60.284374 160.47188 60.89375 160.47188Q61.940624 160.47188 62.675 161.25313Q63.425 162.03438 63.425 163.25313Q63.425 164.06563 63.065624 164.76875Q62.721874 165.45625 62.1125 165.83125Q61.503124 166.19063 60.7375 166.19063Q59.409374 166.19063 58.58125 165.22188Q57.753124 164.25313 57.753124 162.03438Q57.753124 159.53438 58.675 158.40938Q59.471874 157.425 60.83125 157.425Q61.846874 157.425 62.4875 158.00313Q63.14375 158.56563 63.26875 159.56563ZM58.971874 163.26875Q58.971874 163.81563 59.190624 164.31563Q59.425 164.8 59.83125 165.06563Q60.253124 165.33125 60.721874 165.33125Q61.378124 165.33125 61.8625 164.8Q62.346874 164.25313 62.346874 163.33125Q62.346874 162.44063 61.8625 161.925Q61.39375 161.40938 60.675 161.40938Q59.95625 161.40938 59.45625 161.925Q58.971874 162.44063 58.971874 163.26875ZM64.8 161.81563Q64.8 160.28438 65.1125 159.3625Q65.425 158.425 66.03438 157.925Q66.65938 157.425 67.59688 157.425Q68.28438 157.425 68.8 157.70625Q69.33125 157.9875 69.675 158.51875Q70.01875 159.03438 70.20625 159.78438Q70.39375 160.53438 70.39375 161.81563Q70.39375 163.33125 70.08125 164.25313Q69.78438 165.175 69.15938 165.69063Q68.55 166.19063 67.59688 166.19063Q66.3625 166.19063 65.64375 165.3Q64.8 164.2375 64.8 161.81563ZM65.87813 161.81563Q65.87813 163.925 66.37813 164.62813Q66.87813 165.33125 67.59688 165.33125Q68.33125 165.33125 68.81563 164.62813Q69.31563 163.925 69.31563 161.81563Q69.31563 159.69063 68.81563 159.00313Q68.33125 158.3 67.58125 158.3Q66.8625 158.3 66.425 158.90938Q65.87813 159.69063 65.87813 161.81563ZM71.8 161.81563Q71.8 160.28438 72.1125 159.3625Q72.425 158.425 73.03438 157.925Q73.65938 157.425 74.59688 157.425Q75.28438 157.425 75.8 157.70625Q76.33125 157.9875 76.675 158.51875Q77.01875 159.03438 77.20625 159.78438Q77.39375 160.53438 77.39375 161.81563Q77.39375 163.33125 77.08125 164.25313Q76.78438 165.175 76.15938 165.69063Q75.55 166.19063 74.59688 166.19063Q73.3625 166.19063 72.64375 165.3Q71.8 164.2375 71.8 161.81563ZM72.87813 161.81563Q72.87813 163.925 73.37813 164.62813Q73.87813 165.33125 74.59688 165.33125Q75.33125 165.33125 75.81563 164.62813Q76.31563 163.925 76.31563 161.81563Q76.31563 159.69063 75.81563 159.00313Q75.33125 158.3 74.58125 158.3Q73.8625 158.3 73.425 158.90938Q72.87813 159.69063 72.87813 161.81563ZM78.8 161.81563Q78.8 160.28438 79.1125 159.3625Q79.425 158.425 80.03438 157.925Q80.65938 157.425 81.59688 157.425Q82.28438 157.425 82.8 157.70625Q83.33125 157.9875 83.675 158.51875Q84.01875 159.03438 84.20625 159.78438Q84.39375 160.53438 84.39375 161.81563Q84.39375 163.33125 84.08125 164.25313Q83.78438 165.175 83.15938 165.69063Q82.55 166.19063 81.59688 166.19063Q80.3625 166.19063 79.64375 165.3Q78.8 164.2375 78.8 161.81563ZM79.87813 161.81563Q79.87813 163.925 80.37813 164.62813Q80.87813 165.33125 81.59688 165.33125Q82.33125 165.33125 82.81563 164.62813Q83.31563 163.925 83.31563 161.81563Q83.31563 159.69063 82.81563 159.00313Q82.33125 158.3 81.58125 158.3Q80.8625 158.3 80.425 158.90938Q79.87813 159.69063 79.87813 161.81563ZM85.8 161.81563Q85.8 160.28438 86.1125 159.3625Q86.425 158.425 87.03438 157.925Q87.65938 157.425 88.59688 157.425Q89.28438 157.425 89.8 157.70625Q90.33125 157.9875 90.675 158.51875Q91.01875 159.03438 91.20625 159.78438Q91.39375 160.53438 91.39375 161.81563Q91.39375 163.33125 91.08125 164.25313Q90.78438 165.175 90.15938 165.69063Q89.55 166.19063 88.59688 166.19063Q87.3625 166.19063 86.64375 165.3Q85.8 164.2375 85.8 161.81563ZM86.87813 161.81563Q86.87813 163.925 87.37813 164.62813Q87.87813 165.33125 88.59688 165.33125Q89.33125 165.33125 89.81563 164.62813Q90.31563 163.925 90.31563 161.81563Q90.31563 159.69063 89.81563 159.00313Q89.33125 158.3 88.58125 158.3Q87.8625 158.3 87.425 158.90938Q86.87813 159.69063 86.87813 161.81563ZM92.8 161.81563Q92.8 160.28438 93.1125 159.3625Q93.425 158.425 94.03438 157.925Q94.65938 157.425 95.59688 157.425Q96.28438 157.425 96.8 157.70625Q97.33125 157.9875 97.675 158.51875Q98.01875 159.03438 98.20625 159.78438Q98.39375 160.53438 98.39375 161.81563Q98.39375 163.33125 98.08125 164.25313Q97.78438 165.175 97.15938 165.69063Q96.55 166.19063 95.59688 166.19063Q94.3625 166.19063 93.64375 165.3Q92.8 164.2375 92.8 161.81563ZM93.87813 161.81563Q93.87813 163.925 94.37813 164.62813Q94.87813 165.33125 95.59688 165.33125Q96.33125 165.33125 96.81563 164.62813Q97.31563 163.925 97.31563 161.81563Q97.31563 159.69063 96.81563 159.00313Q96.33125 158.3 95.58125 158.3Q94.8625 158.3 94.425 158.90938Q93.87813 159.69063 93.87813 161.81563ZM99.8 161.81563Q99.8 160.28438 100.1125 159.3625Q100.425 158.425 101.03438 157.925Q101.65938 157.425 102.59688 157.425Q103.28438 157.425 103.8 157.70625Q104.33125 157.9875 104.675 158.51875Q105.01875 159.03438 105.20625 159.78438Q105.39375 160.53438 105.39375 161.81563Q105.39375 163.33125 105.08125 164.25313Q104.78438 165.175 104.15938 165.69063Q103.55 166.19063 102.59688 166.19063Q101.3625 166.19063 100.64375 165.3Q99.8 164.2375 99.8 161.81563ZM100.87813 161.81563Q100.87813 163.925 101.37813 164.62813Q101.87813 165.33125 102.59688 165.33125Q103.33125 165.33125 103.81563 164.62813Q104.31563 163.925 104.31563 161.81563Q104.31563 159.69063 103.81563 159.00313Q103.33125 158.3 102.58125 158.3Q101.8625 158.3 101.425 158.90938Q100.87813 159.69063 100.87813 161.81563ZM106.8 161.81563Q106.8 160.28438 107.1125 159.3625Q107.425 158.425 108.03438 157.925Q108.65938 157.425 109.59688 157.425Q110.28438 157.425 110.8 157.70625Q111.33125 157.9875 111.675 158.51875Q112.01875 159.03438 112.20625 159.78438Q112.39375 160.53438 112.39375 161.81563Q112.39375 163.33125 112.08125 164.25313Q111.78438 165.175 111.15938 165.69063Q110.55 166.19063 109.59688 166.19063Q108.3625 166.19063 107.64375 165.3Q106.8 164.2375 106.8 161.81563ZM107.87813 161.81563Q107.87813 163.925 108.37813 164.62813Q108.87813 165.33125 109.59688 165.33125Q110.33125 165.33125 110.81563 164.62813Q111.31563 163.925 111.31563 161.81563Q111.31563 159.69063 110.81563 159.00313Q110.33125 158.3 109.58125 158.3Q108.8625 158.3 108.425 158.90938Q107.87813 159.69063 107.87813 161.81563ZM113.8 161.81563Q113.8 160.28438 114.1125 159.3625Q114.425 158.425 115.03438 157.925Q115.65938 157.425 116.59688 157.425Q117.28438 157.425 117.8 157.70625Q118.33125 157.9875 118.675 158.51875Q119.01875 159.03438 119.20625 159.78438Q119.39375 160.53438 119.39375 161.81563Q119.39375 163.33125 119.08125 164.25313Q118.78438 165.175 118.15938 165.69063Q117.55 166.19063 116.59688 166.19063Q115.3625 166.19063 114.64375 165.3Q113.8 164.2375 113.8 161.81563ZM114.87813 161.81563Q114.87813 163.925 115.37813 164.62813Q115.87813 165.33125 116.59688 165.33125Q117.33125 165.33125 117.81563 164.62813Q118.31563 163.925 118.31563 161.81563Q118.31563 159.69063 117.81563 159.00313Q117.33125 158.3 116.58125 158.3Q115.8625 158.3 115.425 158.90938Q114.87813 159.69063 114.87813 161.81563Z" fill-rule="nonzero"/><path fill="#000000" d="M59.425 72.510414Q58.76875 72.260414 58.440624 71.822914Q58.128124 71.36979 58.128124 70.760414Q58.128124 69.822914 58.8 69.18229Q59.4875 68.541664 60.596874 68.541664Q61.721874 68.541664 62.409374 69.197914Q63.096874 69.854164 63.096874 70.791664Q63.096874 71.385414 62.784374 71.822914Q62.471874 72.260414 61.83125 72.510414Q62.628124 72.760414 63.034374 73.33854Q63.440624 73.916664 63.440624 74.71354Q63.440624 75.80729 62.659374 76.55729Q61.89375 77.30729 60.6125 77.30729Q59.346874 77.30729 58.565624 76.55729Q57.784374 75.80729 57.784374 74.68229Q57.784374 73.83854 58.20625 73.27604Q58.64375 72.71354 59.425 72.510414ZM59.20625 70.71354Q59.20625 71.322914 59.596874 71.71354Q60.003124 72.104164 60.628124 72.104164Q61.2375 72.104164 61.628124 71.729164Q62.01875 71.33854 62.01875 70.77604Q62.01875 70.197914 61.6125 69.80729Q61.20625 69.40104 60.6125 69.40104Q60.003124 69.40104 59.596874 69.791664Q59.20625 70.18229 59.20625 70.71354ZM58.878124 74.68229Q58.878124 75.135414 59.08125 75.55729Q59.3 75.979164 59.721874 76.21354Q60.14375 76.447914 60.628124 76.447914Q61.378124 76.447914 61.8625 75.96354Q62.3625 75.479164 62.3625 74.729164Q62.3625 73.96354 61.8625 73.46354Q61.3625 72.96354 60.596874 72.96354Q59.846874 72.96354 59.3625 73.46354Q58.878124 73.947914 58.878124 74.68229ZM64.8 72.93229Q64.8 71.40104 65.1125 70.479164Q65.425 69.541664 66.03438 69.041664Q66.65938 68.541664 67.59688 68.541664Q68.28438 68.541664 68.8 68.822914Q69.33125 69.104164 69.675 69.635414Q70.01875 70.15104 70.20625 70.90104Q70.39375 71.65104 70.39375 72.93229Q70.39375 74.447914 70.08125 75.36979Q69.78438 76.291664 69.15938 76.80729Q68.55 77.30729 67.59688 77.30729Q66.3625 77.30729 65.64375 76.416664Q64.8 75.354164 64.8 72.93229ZM65.87813 72.93229Q65.87813 75.041664 66.37813 75.74479Q66.87813 76.447914 67.59688 76.447914Q68.33125 76.447914 68.81563 75.74479Q69.31563 75.041664 69.31563 72.93229Q69.31563 70.80729 68.81563 70.11979Q68.33125 69.416664 67.58125 69.416664Q66.8625 69.416664 66.425 70.02604Q65.87813 70.80729 65.87813 72.93229ZM71.8 72.93229Q71.8 71.40104 72.1125 70.479164Q72.425 69.541664 73.03438 69.041664Q73.65938 68.541664 74.59688 68.541664Q75.28438 68.541664 75.8 68.822914Q76.33125 69.104164 76.675 69.635414Q77.01875 70.15104 77.20625 70.90104Q77.39375 71.65104 77.39375 72.93229Q77.39375 74.447914 77.08125 75.36979Q76.78438 76.291664 76.15938 76.80729Q75.55 77.30729 74.59688 77.30729Q73.3625 77.30729 72.64375 76.416664Q71.8 75.354164 71.8 72.93229ZM72.87813 72.93229Q72.87813 75.041664 73.37813 75.74479Q73.87813 76.447914 74.59688 76.447914Q75.33125 76.447914 75.81563 75.74479Q76.31563 75.041664 76.31563 72.93229Q76.31563 70.80729 75.81563 70.11979Q75.33125 69.416664 74.58125 69.416664Q73.8625 69.416664 73.425 70.02604Q72.87813 70.80729 72.87813 72.93229ZM78.8 72.93229Q78.8 71.40104 79.1125 70.479164Q79.425 69.541664 80.03438 69.041664Q80.65938 68.541664 81.59688 68.541664Q82.28438 68.541664 82.8 68.822914Q83.33125 69.104164 83.675 69.635414Q84.01875 70.15104 84.20625 70.90104Q84.39375 71.65104 84.39375 72.93229Q84.39375 74.447914 84.08125 75.36979Q83.78438 76.291664 83.15938 76.80729Q82.55 77.30729 81.59688 77.30729Q80.3625 77.30729 79.64375 76.416664Q78.8 75.354164 78.8 72.93229ZM79.87813 72.93229Q79.87813 75.041664 80.37813 75.74479Q80.87813 76.447914 81.59688 76.447914Q82.33125 76.447914 82.81563 75.74479Q83.31563 75.041664 83.31563 72.93229Q83.31563 70.80729 82.81563 70.11979Q82.33125 69.416664 81.58125 69.416664Q80.8625 69.416664 80.425 70.02604Q79.87813 70.80729 79.87813 72.93229ZM85.8 72.93229Q85.8 71.40104 86.1125 70.479164Q86.425 69.541664 87.03438 69.041664Q87.65938 68.541664 88.59688 68.541664Q89.28438 68.541664 89.8 68.822914Q90.33125 69.104164 90.675 69.635414Q91.01875 70.15104 91.20625 70.90104Q91.39375 71.65104 91.39375 72.93229Q91.39375 74.447914 91.08125 75.36979Q90.78438 76.291664 90.15938 76.80729Q89.55 77.30729 88.59688 77.30729Q87.3625 77.30729 86.64375 76.416664Q85.8 75.354164 85.8 72.93229ZM86.87813 72.93229Q86.87813 75.041664 87.37813 75.74479Q87.87813 76.447914 88.59688 76.447914Q89.33125 76.447914 89.81563 75.74479Q90.31563 75.041664 90.31563 72.93229Q90.31563 70.80729 89.81563 70.11979Q89.33125 69.416664 88.58125 69.416664Q87.8625 69.416664 87.425 70.02604Q86.87813 70.80729 86.87813 72.93229ZM92.8 72.93229Q92.8 71.40104 93.1125 70.479164Q93.425 69.541664 94.03438 69.041664Q94.65938 68.541664 95.59688 68.541664Q96.28438 68.541664 96.8 68.822914Q97.33125 69.104164 97.675 69.635414Q98.01875 70.15104 98.20625 70.90104Q98.39375 71.65104 98.39375 72.93229Q98.39375 74.447914 98.08125 75.36979Q97.78438 76.291664 97.15938 76.80729Q96.55 77.30729 95.59688 77.30729Q94.3625 77.30729 93.64375 76.416664Q92.8 75.354164 92.8 72.93229ZM93.87813 72.93229Q93.87813 75.041664 94.37813 75.74479Q94.87813 76.447914 95.59688 76.447914Q96.33125 76.447914 96.81563 75.74479Q97.31563 75.041664 97.31563 72.93229Q97.31563 70.80729 96.81563 70.11979Q96.33125 69.416664 95.58125 69.416664Q94.8625 69.416664 94.425 70.02604Q93.87813 70.80729 93.87813 72.93229ZM99.8 72.93229Q99.8 71.40104 100.1125 70.479164Q100.425 69.541664 101.03438 69.041664Q101.65938 68.541664 102.59688 68.541664Q103.28438 68.541664 103.8 68.822914Q104.33125 69.104164 104.675 69.635414Q105.01875 70.15104 105.20625 70.90104Q105.39375 71.65104 105.39375 72.93229Q105.39375 74.447914 105.08125 75.36979Q104.78438 76.291664 104.15938 76.80729Q103.55 77.30729 102.59688 77.30729Q101.3625 77.30729 100.64375 76.416664Q99.8 75.354164 99.8 72.93229ZM100.87813 72.93229Q100.87813 75.041664 101.37813 75.74479Q101.87813 76.447914 102.59688 76.447914Q103.33125 76.447914 103.81563 75.74479Q104.31563 75.041664 104.31563 72.93229Q104.31563 70.80729 103.81563 70.11979Q103.33125 69.416664 102.58125 69.416664Q101.8625 69.416664 101.425 70.02604Q100.87813 70.80729 100.87813 72.93229ZM106.8 72.93229Q106.8 71.40104 107.1125 70.479164Q107.425 69.541664 108.03438 69.041664Q108.65938 68.541664 109.59688 68.541664Q110.28438 68.541664 110.8 68.822914Q111.33125 69.104164 111.675 69.635414Q112.01875 70.15104 112.20625 70.90104Q112.39375 71.65104 112.39375 72.93229Q112.39375 74.447914 112.08125 75.36979Q111.78438 76.291664 111.15938 76.80729Q110.55 77.30729 109.59688 77.30729Q108.3625 77.30729 107.64375 76.416664Q106.8 75.354164 106.8 72.93229ZM107.87813 72.93229Q107.87813 75.041664 108.37813 75.74479Q108.87813 76.447914 109.59688 76.447914Q110.33125 76.447914 110.81563 75.74479Q111.31563 75.041664 111.31563 72.93229Q111.31563 70.80729 110.81563 70.11979Q110.33125 69.416664 109.58125 69.416664Q108.8625 69.416664 108.425 70.02604Q107.87813 70.80729 107.87813 72.93229ZM113.8 72.93229Q113.8 71.40104 114.1125 70.479164Q114.425 69.541664 115.03438 69.041664Q115.65938 68.541664 116.59688 68.541664Q117.28438 68.541664 117.8 68.822914Q118.33125 69.104164 118.675 69.635414Q119.01875 70.15104 119.20625 70.90104Q119.39375 71.65104 119.39375 72.93229Q119.39375 74.447914 119.08125 75.36979Q118.78438 76.291664 118.15938 76.80729Q117.55 77.30729 116.59688 77.30729Q115.3625 77.30729 114.64375 76.416664Q113.8 75.354164 113.8 72.93229ZM114.87813 72.93229Q114.87813 75.041664 115.37813 75.74479Q115.87813 76.447914 116.59688 76.447914Q117.33125 76.447914 117.81563 75.74479Q118.31563 75.041664 118.31563 72.93229Q118.31563 70.80729 117.81563 70.11979Q117.33125 69.416664 116.58125 69.416664Q115.8625 69.416664 115.425 70.02604Q114.87813 70.80729 114.87813 72.93229Z" fill-rule="nonzero"/><path fill="#000000" d="M241.73807 445.7L240.6912 445.7L240.6912 438.98126Q240.30057 439.34064 239.67557 439.71564Q239.0662 440.075 238.58182 440.2469L238.58182 439.23126Q239.45682 438.8094 240.11307 438.23126Q240.78494 437.6375 241.0662 437.075L241.73807 437.075L241.73807 445.7ZM244.76932 441.46564Q244.76932 439.9344 245.08182 439.0125Q245.39432 438.075 246.0037 437.575Q246.6287 437.075 247.5662 437.075Q248.2537 437.075 248.76932 437.35626Q249.30057 437.6375 249.64432 438.16876Q249.98807 438.6844 250.17557 439.4344Q250.36307 440.1844 250.36307 441.46564Q250.36307 442.98126 250.05057 443.90314Q249.7537 444.825 249.1287 445.34064Q248.51932 445.84064 247.5662 445.84064Q246.33182 445.84064 245.61307 444.95Q244.76932 443.8875 244.76932 441.46564ZM245.84744 441.46564Q245.84744 443.575 246.34744 444.27814Q246.84744 444.98126 247.5662 444.98126Q248.30057 444.98126 248.78494 444.27814Q249.28494 443.575 249.28494 441.46564Q249.28494 439.34064 248.78494 438.65314Q248.30057 437.95 247.55057 437.95Q246.83182 437.95 246.39432 438.5594Q245.84744 439.34064 245.84744 441.46564ZM251.76932 441.46564Q251.76932 439.9344 252.08182 439.0125Q252.39432 438.075 253.0037 437.575Q253.6287 437.075 254.5662 437.075Q255.2537 437.075 255.76932 437.35626Q256.30057 437.6375 256.64432 438.16876Q256.98807 438.6844 257.17557 439.4344Q257.36307 440.1844 257.36307 441.46564Q257.36307 442.98126 257.05057 443.90314Q256.7537 444.825 256.1287 445.34064Q255.51932 445.84064 254.5662 445.84064Q253.33182 445.84064 252.61307 444.95Q251.76932 443.8875 251.76932 441.46564ZM252.84744 441.46564Q252.84744 443.575 253.34744 444.27814Q253.84744 444.98126 254.5662 444.98126Q255.30057 444.98126 255.78494 444.27814Q256.28494 443.575 256.28494 441.46564Q256.28494 439.34064 255.78494 438.65314Q255.30057 437.95 254.55057 437.95Q253.83182 437.95 253.39432 438.5594Q252.84744 439.34064 252.84744 441.46564ZM259.36307 445.7L259.36307 444.4969L260.5662 444.4969L260.5662 445.7L259.36307 445.7ZM261.76932 441.46564Q261.76932 439.9344 262.08182 439.0125Q262.39432 438.075 263.0037 437.575Q263.6287 437.075 264.5662 437.075Q265.2537 437.075 265.76932 437.35626Q266.30057 437.6375 266.64432 438.16876Q266.98807 438.6844 267.17557 439.4344Q267.36307 440.1844 267.36307 441.46564Q267.36307 442.98126 267.05057 443.90314Q266.7537 444.825 266.1287 445.34064Q265.51932 445.84064 264.5662 445.84064Q263.33182 445.84064 262.61307 444.95Q261.76932 443.8875 261.76932 441.46564ZM262.84744 441.46564Q262.84744 443.575 263.34744 444.27814Q263.84744 444.98126 264.5662 444.98126Q265.30057 444.98126 265.78494 444.27814Q266.28494 443.575 266.28494 441.46564Q266.28494 439.34064 265.78494 438.65314Q265.30057 437.95 264.55057 437.95Q263.83182 437.95 263.39432 438.5594Q262.84744 439.34064 262.84744 441.46564ZM268.76932 441.46564Q268.76932 439.9344 269.08182 439.0125Q269.39432 438.075 270.0037 437.575Q270.6287 437.075 271.5662 437.075Q272.2537 437.075 272.76932 437.35626Q273.30057 437.6375 273.64432 438.16876Q273.98807 438.6844 274.17557 439.4344Q274.36307 440.1844 274.36307 441.46564Q274.36307 442.98126 274.05057 443.90314Q273.7537 444.825 273.1287 445.34064Q272.51932 445.84064 271.5662 445.84064Q270.33182 445.84064 269.61307 444.95Q268.76932 443.8875 268.76932 441.46564ZM269.84744 441.46564Q269.84744 443.575 270.34744 444.27814Q270.84744 444.98126 271.5662 444.98126Q272.30057 444.98126 272.78494 444.27814Q273.28494 443.575 273.28494 441.46564Q273.28494 439.34064 272.78494 438.65314Q272.30057 437.95 271.55057 437.95Q270.83182 437.95 270.39432 438.5594Q269.84744 439.34064 269.84744 441.46564ZM275.76932 441.46564Q275.76932 439.9344 276.08182 439.0125Q276.39432 438.075 277.0037 437.575Q277.6287 437.075 278.5662 437.075Q279.2537 437.075 279.76932 437.35626Q280.30057 437.6375 280.64432 438.16876Q280.98807 438.6844 281.17557 439.4344Q281.36307 440.1844 281.36307 441.46564Q281.36307 442.98126 281.05057 443.90314Q280.7537 444.825 280.1287 445.34064Q279.51932 445.84064 278.5662 445.84064Q277.33182 445.84064 276.61307 444.95Q275.76932 443.8875 275.76932 441.46564ZM276.84744 441.46564Q276.84744 443.575 277.34744 444.27814Q277.84744 444.98126 278.5662 444.98126Q279.30057 444.98126 279.78494 444.27814Q280.28494 443.575 280.28494 441.46564Q280.28494 439.34064 279.78494 438.65314Q279.30057 437.95 278.55057 437.95Q277.83182 437.95 277.39432 438.5594Q276.84744 439.34064 276.84744 441.46564Z" fill-rule="nonzero"/><path fill="#000000" d="M376.79886 444.6844L376.79886 445.7L371.11136 445.7Q371.11136 445.325 371.23636 444.96564Q371.4551 444.3875 371.92386 443.825Q372.40823 443.2625 373.31448 442.52814Q374.72073 441.3719 375.2051 440.7Q375.7051 440.02814 375.7051 439.4344Q375.7051 438.8094 375.25198 438.3875Q374.79886 437.95 374.0801 437.95Q373.31448 437.95 372.86136 438.40314Q372.40823 438.85626 372.3926 439.66876L371.31448 439.5594Q371.42386 438.34064 372.1426 437.71564Q372.87698 437.075 374.11136 437.075Q375.34573 437.075 376.06448 437.7625Q376.78323 438.45 376.78323 439.46564Q376.78323 439.98126 376.56448 440.48126Q376.36136 440.96564 375.86136 441.52814Q375.37698 442.075 374.25198 443.02814Q373.29886 443.825 373.0176 444.1219Q372.75198 444.40314 372.5801 444.6844L376.79886 444.6844ZM378.25198 441.46564Q378.25198 439.9344 378.56448 439.0125Q378.87698 438.075 379.48636 437.575Q380.11136 437.075 381.04886 437.075Q381.73636 437.075 382.25198 437.35626Q382.78323 437.6375 383.12698 438.16876Q383.47073 438.6844 383.65823 439.4344Q383.84573 440.1844 383.84573 441.46564Q383.84573 442.98126 383.53323 443.90314Q383.23636 444.825 382.61136 445.34064Q382.00198 445.84064 381.04886 445.84064Q379.81448 445.84064 379.09573 444.95Q378.25198 443.8875 378.25198 441.46564ZM379.3301 441.46564Q379.3301 443.575 379.8301 444.27814Q380.3301 444.98126 381.04886 444.98126Q381.78323 444.98126 382.2676 444.27814Q382.7676 443.575 382.7676 441.46564Q382.7676 439.34064 382.2676 438.65314Q381.78323 437.95 381.03323 437.95Q380.31448 437.95 379.87698 438.5594Q379.3301 439.34064 379.3301 441.46564ZM385.25198 441.46564Q385.25198 439.9344 385.56448 439.0125Q385.87698 438.075 386.48636 437.575Q387.11136 437.075 388.04886 437.075Q388.73636 437.075 389.25198 437.35626Q389.78323 437.6375 390.12698 438.16876Q390.47073 438.6844 390.65823 439.4344Q390.84573 440.1844 390.84573 441.46564Q390.84573 442.98126 390.53323 443.90314Q390.23636 444.825 389.61136 445.34064Q389.00198 445.84064 388.04886 445.84064Q386.81448 445.84064 386.09573 444.95Q385.25198 443.8875 385.25198 441.46564ZM386.3301 441.46564Q386.3301 443.575 386.8301 444.27814Q387.3301 444.98126 388.04886 444.98126Q388.78323 444.98126 389.2676 444.27814Q389.7676 443.575 389.7676 441.46564Q389.7676 439.34064 389.2676 438.65314Q388.78323 437.95 388.03323 437.95Q387.31448 437.95 386.87698 438.5594Q386.3301 439.34064 386.3301 441.46564ZM392.84573 445.7L392.84573 444.4969L394.04886 444.4969L394.04886 445.7L392.84573 445.7ZM395.25198 441.46564Q395.25198 439.9344 395.56448 439.0125Q395.87698 438.075 396.48636 437.575Q397.11136 437.075 398.04886 437.075Q398.73636 437.075 399.25198 437.35626Q399.78323 437.6375 400.12698 438.16876Q400.47073 438.6844 400.65823 439.4344Q400.84573 440.1844 400.84573 441.46564Q400.84573 442.98126 400.53323 443.90314Q400.23636 444.825 399.61136 445.34064Q399.00198 445.84064 398.04886 445.84064Q396.81448 445.84064 396.09573 444.95Q395.25198 443.8875 395.25198 441.46564ZM396.3301 441.46564Q396.3301 443.575 396.8301 444.27814Q397.3301 444.98126 398.04886 444.98126Q398.78323 444.98126 399.2676 444.27814Q399.7676 443.575 399.7676 441.46564Q399.7676 439.34064 399.2676 438.65314Q398.78323 437.95 398.03323 437.95Q397.31448 437.95 396.87698 438.5594Q396.3301 439.34064 396.3301 441.46564ZM402.25198 441.46564Q402.25198 439.9344 402.56448 439.0125Q402.87698 438.075 403.48636 437.575Q404.11136 437.075 405.04886 437.075Q405.73636 437.075 406.25198 437.35626Q406.78323 437.6375 407.12698 438.16876Q407.47073 438.6844 407.65823 439.4344Q407.84573 440.1844 407.84573 441.46564Q407.84573 442.98126 407.53323 443.90314Q407.23636 444.825 406.61136 445.34064Q406.00198 445.84064 405.04886 445.84064Q403.81448 445.84064 403.09573 444.95Q402.25198 443.8875 402.25198 441.46564ZM403.3301 441.46564Q403.3301 443.575 403.8301 444.27814Q404.3301 444.98126 405.04886 444.98126Q405.78323 444.98126 406.2676 444.27814Q406.7676 443.575 406.7676 441.46564Q406.7676 439.34064 406.2676 438.65314Q405.78323 437.95 405.03323 437.95Q404.31448 437.95 403.87698 438.5594Q403.3301 439.34064 403.3301 441.46564ZM409.25198 441.46564Q409.25198 439.9344 409.56448 439.0125Q409.87698 438.075 410.48636 437.575Q411.11136 437.075 412.04886 437.075Q412.73636 437.075 413.25198 437.35626Q413.78323 437.6375 414.12698 438.16876Q414.47073 438.6844 414.65823 439.4344Q414.84573 440.1844 414.84573 441.46564Q414.84573 442.98126 414.53323 443.90314Q414.23636 444.825 413.61136 445.34064Q413.00198 445.84064 412.04886 445.84064Q410.81448 445.84064 410.09573 444.95Q409.25198 443.8875 409.25198 441.46564ZM410.3301 441.46564Q410.3301 443.575 410.8301 444.27814Q411.3301 444.98126 412.04886 444.98126Q412.78323 444.98126 413.2676 444.27814Q413.7676 443.575 413.7676 441.46564Q413.7676 439.34064 413.2676 438.65314Q412.78323 437.95 412.03323 437.95Q411.31448 437.95 410.87698 438.5594Q410.3301 439.34064 410.3301 441.46564Z" fill-rule="nonzero"/><path fill="#000000" d="M504.73465 443.4344L505.79715 443.29376Q505.96902 444.1844 506.40652 444.59064Q506.84402 444.98126 507.46902 444.98126Q508.21902 444.98126 508.73465 444.46564Q509.25027 443.95 509.25027 443.1844Q509.25027 442.46564 508.7659 441.9969Q508.29715 441.5125 507.56277 441.5125Q507.2659 441.5125 506.81277 441.6375L506.93777 440.7Q507.04715 440.71564 507.10965 440.71564Q507.78152 440.71564 508.31277 440.3719Q508.85965 440.0125 508.85965 439.27814Q508.85965 438.7 508.46902 438.325Q508.0784 437.9344 507.4534 437.9344Q506.84402 437.9344 506.42215 438.325Q506.0159 438.71564 505.90652 439.48126L504.84402 439.29376Q505.03152 438.2469 505.71902 437.66876Q506.40652 437.075 507.42215 437.075Q508.12527 437.075 508.71902 437.3875Q509.31277 437.6844 509.62527 438.2Q509.93777 438.71564 509.93777 439.3094Q509.93777 439.85626 509.6409 440.325Q509.34402 440.77814 508.7659 441.04376Q509.5159 441.21564 509.93777 441.77814Q510.35965 442.325 510.35965 443.16876Q510.35965 444.29376 509.53152 445.075Q508.71902 445.85626 507.46902 445.85626Q506.34402 445.85626 505.59402 445.1844Q504.84402 444.4969 504.73465 443.4344ZM511.73465 441.46564Q511.73465 439.9344 512.0471 439.0125Q512.3596 438.075 512.969 437.575Q513.594 437.075 514.5315 437.075Q515.219 437.075 515.7346 437.35626Q516.26587 437.6375 516.6096 438.16876Q516.95337 438.6844 517.14087 439.4344Q517.32837 440.1844 517.32837 441.46564Q517.32837 442.98126 517.01587 443.90314Q516.719 444.825 516.094 445.34064Q515.4846 445.84064 514.5315 445.84064Q513.2971 445.84064 512.57837 444.95Q511.73465 443.8875 511.73465 441.46564ZM512.81274 441.46564Q512.81274 443.575 513.31274 444.27814Q513.81274 444.98126 514.5315 444.98126Q515.26587 444.98126 515.75024 444.27814Q516.25024 443.575 516.25024 441.46564Q516.25024 439.34064 515.75024 438.65314Q515.26587 437.95 514.51587 437.95Q513.7971 437.95 513.3596 438.5594Q512.81274 439.34064 512.81274 441.46564ZM518.7346 441.46564Q518.7346 439.9344 519.0471 439.0125Q519.3596 438.075 519.969 437.575Q520.594 437.075 521.5315 437.075Q522.219 437.075 522.7346 437.35626Q523.26587 437.6375 523.6096 438.16876Q523.95337 438.6844 524.14087 439.4344Q524.32837 440.1844 524.32837 441.46564Q524.32837 442.98126 524.01587 443.90314Q523.719 444.825 523.094 445.34064Q522.4846 445.84064 521.5315 445.84064Q520.2971 445.84064 519.57837 444.95Q518.7346 443.8875 518.7346 441.46564ZM519.81274 441.46564Q519.81274 443.575 520.31274 444.27814Q520.81274 444.98126 521.5315 444.98126Q522.26587 444.98126 522.75024 444.27814Q523.25024 443.575 523.25024 441.46564Q523.25024 439.34064 522.75024 438.65314Q522.26587 437.95 521.51587 437.95Q520.7971 437.95 520.3596 438.5594Q519.81274 439.34064 519.81274 441.46564ZM526.32837 445.7L526.32837 444.4969L527.5315 444.4969L527.5315 445.7L526.32837 445.7ZM528.7346 441.46564Q528.7346 439.9344 529.0471 439.0125Q529.3596 438.075 529.969 437.575Q530.594 437.075 531.5315 437.075Q532.219 437.075 532.7346 437.35626Q533.26587 437.6375 533.6096 438.16876Q533.95337 438.6844 534.14087 439.4344Q534.32837 440.1844 534.32837 441.46564Q534.32837 442.98126 534.01587 443.90314Q533.719 444.825 533.094 445.34064Q532.4846 445.84064 531.5315 445.84064Q530.2971 445.84064 529.57837 444.95Q528.7346 443.8875 528.7346 441.46564ZM529.81274 441.46564Q529.81274 443.575 530.31274 444.27814Q530.81274 444.98126 531.5315 444.98126Q532.26587 444.98126 532.75024 444.27814Q533.25024 443.575 533.25024 441.46564Q533.25024 439.34064 532.75024 438.65314Q532.26587 437.95 531.51587 437.95Q530.7971 437.95 530.3596 438.5594Q529.81274 439.34064 529.81274 441.46564ZM535.7346 441.46564Q535.7346 439.9344 536.0471 439.0125Q536.3596 438.075 536.969 437.575Q537.594 437.075 538.5315 437.075Q539.219 437.075 539.7346 437.35626Q540.26587 437.6375 540.6096 438.16876Q540.95337 438.6844 541.14087 439.4344Q541.32837 440.1844 541.32837 441.46564Q541.32837 442.98126 541.01587 443.90314Q540.719 444.825 540.094 445.34064Q539.4846 445.84064 538.5315 445.84064Q537.2971 445.84064 536.57837 444.95Q535.7346 443.8875 535.7346 441.46564ZM536.81274 441.46564Q536.81274 443.575 537.31274 444.27814Q537.81274 444.98126 538.5315 444.98126Q539.26587 444.98126 539.75024 444.27814Q540.25024 443.575 540.25024 441.46564Q540.25024 439.34064 539.75024 438.65314Q539.26587 437.95 538.51587 437.95Q537.7971 437.95 537.3596 438.5594Q536.81274 439.34064 536.81274 441.46564ZM542.7346 441.46564Q542.7346 439.9344 543.0471 439.0125Q543.3596 438.075 543.969 437.575Q544.594 437.075 545.5315 437.075Q546.219 437.075 546.7346 437.35626Q547.26587 437.6375 547.6096 438.16876Q547.95337 438.6844 548.14087 439.4344Q548.32837 440.1844 548.32837 441.46564Q548.32837 442.98126 548.01587 443.90314Q547.719 444.825 547.094 445.34064Q546.4846 445.84064 545.5315 445.84064Q544.2971 445.84064 543.57837 444.95Q542.7346 443.8875 542.7346 441.46564ZM543.81274 441.46564Q543.81274 443.575 544.31274 444.27814Q544.81274 444.98126 545.5315 444.98126Q546.26587 444.98126 546.75024 444.27814Q547.25024 443.575 547.25024 441.46564Q547.25024 439.34064 546.75024 438.65314Q546.26587 437.95 545.51587 437.95Q544.7971 437.95 544.3596 438.5594Q543.81274 439.34064 543.81274 441.46564Z" fill-rule="nonzero"/><path fill="#000000" d="M641.59235 445.7L641.59235 443.6375L637.8736 443.6375L637.8736 442.66876L641.7955 437.10626L642.65485 437.10626L642.65485 442.66876L643.8111 442.66876L643.8111 443.6375L642.65485 443.6375L642.65485 445.7L641.59235 445.7ZM641.59235 442.66876L641.59235 438.8094L638.90485 442.66876L641.59235 442.66876ZM645.21735 441.46564Q645.21735 439.9344 645.52985 439.0125Q645.84235 438.075 646.4517 437.575Q647.0767 437.075 648.0142 437.075Q648.7017 437.075 649.21735 437.35626Q649.7486 437.6375 650.09235 438.16876Q650.4361 438.6844 650.6236 439.4344Q650.8111 440.1844 650.8111 441.46564Q650.8111 442.98126 650.4986 443.90314Q650.2017 444.825 649.5767 445.34064Q648.96735 445.84064 648.0142 445.84064Q646.77985 445.84064 646.0611 444.95Q645.21735 443.8875 645.21735 441.46564ZM646.2955 441.46564Q646.2955 443.575 646.7955 444.27814Q647.2955 444.98126 648.0142 444.98126Q648.7486 444.98126 649.233 444.27814Q649.733 443.575 649.733 441.46564Q649.733 439.34064 649.233 438.65314Q648.7486 437.95 647.9986 437.95Q647.27985 437.95 646.84235 438.5594Q646.2955 439.34064 646.2955 441.46564ZM652.21735 441.46564Q652.21735 439.9344 652.52985 439.0125Q652.84235 438.075 653.4517 437.575Q654.0767 437.075 655.0142 437.075Q655.7017 437.075 656.21735 437.35626Q656.7486 437.6375 657.09235 438.16876Q657.4361 438.6844 657.6236 439.4344Q657.8111 440.1844 657.8111 441.46564Q657.8111 442.98126 657.4986 443.90314Q657.2017 444.825 656.5767 445.34064Q655.96735 445.84064 655.0142 445.84064Q653.77985 445.84064 653.0611 444.95Q652.21735 443.8875 652.21735 441.46564ZM653.2955 441.46564Q653.2955 443.575 653.7955 444.27814Q654.2955 444.98126 655.0142 444.98126Q655.7486 444.98126 656.233 444.27814Q656.733 443.575 656.733 441.46564Q656.733 439.34064 656.233 438.65314Q655.7486 437.95 654.9986 437.95Q654.27985 437.95 653.84235 438.5594Q653.2955 439.34064 653.2955 441.46564ZM659.8111 445.7L659.8111 444.4969L661.0142 444.4969L661.0142 445.7L659.8111 445.7ZM662.21735 441.46564Q662.21735 439.9344 662.52985 439.0125Q662.84235 438.075 663.4517 437.575Q664.0767 437.075 665.0142 437.075Q665.7017 437.075 666.21735 437.35626Q666.7486 437.6375 667.09235 438.16876Q667.4361 438.6844 667.6236 439.4344Q667.8111 440.1844 667.8111 441.46564Q667.8111 442.98126 667.4986 443.90314Q667.2017 444.825 666.5767 445.34064Q665.96735 445.84064 665.0142 445.84064Q663.77985 445.84064 663.0611 444.95Q662.21735 443.8875 662.21735 441.46564ZM663.2955 441.46564Q663.2955 443.575 663.7955 444.27814Q664.2955 444.98126 665.0142 444.98126Q665.7486 444.98126 666.233 444.27814Q666.733 443.575 666.733 441.46564Q666.733 439.34064 666.233 438.65314Q665.7486 437.95 664.9986 437.95Q664.27985 437.95 663.84235 438.5594Q663.2955 439.34064 663.2955 441.46564ZM669.21735 441.46564Q669.21735 439.9344 669.52985 439.0125Q669.84235 438.075 670.4517 437.575Q671.0767 437.075 672.0142 437.075Q672.7017 437.075 673.21735 437.35626Q673.7486 437.6375 674.09235 438.16876Q674.4361 438.6844 674.6236 439.4344Q674.8111 440.1844 674.8111 441.46564Q674.8111 442.98126 674.4986 443.90314Q674.2017 444.825 673.5767 445.34064Q672.96735 445.84064 672.0142 445.84064Q670.77985 445.84064 670.0611 444.95Q669.21735 443.8875 669.21735 441.46564ZM670.2955 441.46564Q670.2955 443.575 670.7955 444.27814Q671.2955 444.98126 672.0142 444.98126Q672.7486 444.98126 673.233 444.27814Q673.733 443.575 673.733 441.46564Q673.733 439.34064 673.233 438.65314Q672.7486 437.95 671.9986 437.95Q671.27985 437.95 670.84235 438.5594Q670.2955 439.34064 670.2955 441.46564ZM676.21735 441.46564Q676.21735 439.9344 676.52985 439.0125Q676.84235 438.075 677.4517 437.575Q678.0767 437.075 679.0142 437.075Q679.7017 437.075 680.21735 437.35626Q680.7486 437.6375 681.09235 438.16876Q681.4361 438.6844 681.6236 439.4344Q681.8111 440.1844 681.8111 441.46564Q681.8111 442.98126 681.4986 443.90314Q681.2017 444.825 680.5767 445.34064Q679.96735 445.84064 679.0142 445.84064Q677.77985 445.84064 677.0611 444.95Q676.21735 443.8875 676.21735 441.46564ZM677.2955 441.46564Q677.2955 443.575 677.7955 444.27814Q678.2955 444.98126 679.0142 444.98126Q679.7486 444.98126 680.233 444.27814Q680.733 443.575 680.733 441.46564Q680.733 439.34064 680.233 438.65314Q679.7486 437.95 678.9986 437.95Q678.27985 437.95 677.84235 438.5594Q677.2955 439.34064 677.2955 441.46564Z" fill-rule="nonzero"/><path fill="#000000" d="M771.7 443.45L772.8094 443.35626Q772.9344 444.16876 773.3719 444.575Q773.825 444.98126 774.46564 444.98126Q775.21564 444.98126 775.7469 444.40314Q776.27814 443.825 776.27814 442.8875Q776.27814 441.98126 775.7625 441.46564Q775.2625 440.9344 774.4344 440.9344Q773.9344 440.9344 773.5125 441.16876Q773.10626 441.40314 772.8719 441.7625L771.8875 441.6375L772.71564 437.23126L776.9969 437.23126L776.9969 438.23126L773.5594 438.23126L773.10626 440.54376Q773.8719 439.9969 774.71564 439.9969Q775.84064 439.9969 776.60626 440.77814Q777.3875 441.5594 777.3875 442.79376Q777.3875 443.95 776.71564 444.8094Q775.8875 445.84064 774.46564 445.84064Q773.29376 445.84064 772.54376 445.1844Q771.8094 444.52814 771.7 443.45ZM778.7 441.46564Q778.7 439.9344 779.0125 439.0125Q779.325 438.075 779.9344 437.575Q780.5594 437.075 781.4969 437.075Q782.1844 437.075 782.7 437.35626Q783.23126 437.6375 783.575 438.16876Q783.91876 438.6844 784.10626 439.4344Q784.29376 440.1844 784.29376 441.46564Q784.29376 442.98126 783.98126 443.90314Q783.6844 444.825 783.0594 445.34064Q782.45 445.84064 781.4969 445.84064Q780.2625 445.84064 779.54376 444.95Q778.7 443.8875 778.7 441.46564ZM779.77814 441.46564Q779.77814 443.575 780.27814 444.27814Q780.77814 444.98126 781.4969 444.98126Q782.23126 444.98126 782.71564 444.27814Q783.21564 443.575 783.21564 441.46564Q783.21564 439.34064 782.71564 438.65314Q782.23126 437.95 781.48126 437.95Q780.7625 437.95 780.325 438.5594Q779.77814 439.34064 779.77814 441.46564ZM785.7 441.46564Q785.7 439.9344 786.0125 439.0125Q786.325 438.075 786.9344 437.575Q787.5594 437.075 788.4969 437.075Q789.1844 437.075 789.7 437.35626Q790.23126 437.6375 790.575 438.16876Q790.91876 438.6844 791.10626 439.4344Q791.29376 440.1844 791.29376 441.46564Q791.29376 442.98126 790.98126 443.90314Q790.6844 444.825 790.0594 445.34064Q789.45 445.84064 788.4969 445.84064Q787.2625 445.84064 786.54376 444.95Q785.7 443.8875 785.7 441.46564ZM786.77814 441.46564Q786.77814 443.575 787.27814 444.27814Q787.77814 444.98126 788.4969 444.98126Q789.23126 444.98126 789.71564 444.27814Q790.21564 443.575 790.21564 441.46564Q790.21564 439.34064 789.71564 438.65314Q789.23126 437.95 788.48126 437.95Q787.7625 437.95 787.325 438.5594Q786.77814 439.34064 786.77814 441.46564ZM793.29376 445.7L793.29376 444.4969L794.4969 444.4969L794.4969 445.7L793.29376 445.7ZM795.7 441.46564Q795.7 439.9344 796.0125 439.0125Q796.325 438.075 796.9344 437.575Q797.5594 437.075 798.4969 437.075Q799.1844 437.075 799.7 437.35626Q800.23126 437.6375 800.575 438.16876Q800.91876 438.6844 801.10626 439.4344Q801.29376 440.1844 801.29376 441.46564Q801.29376 442.98126 800.98126 443.90314Q800.6844 444.825 800.0594 445.34064Q799.45 445.84064 798.4969 445.84064Q797.2625 445.84064 796.54376 444.95Q795.7 443.8875 795.7 441.46564ZM796.77814 441.46564Q796.77814 443.575 797.27814 444.27814Q797.77814 444.98126 798.4969 444.98126Q799.23126 444.98126 799.71564 444.27814Q800.21564 443.575 800.21564 441.46564Q800.21564 439.34064 799.71564 438.65314Q799.23126 437.95 798.48126 437.95Q797.7625 437.95 797.325 438.5594Q796.77814 439.34064 796.77814 441.46564ZM802.7 441.46564Q802.7 439.9344 803.0125 439.0125Q803.325 438.075 803.9344 437.575Q804.5594 437.075 805.4969 437.075Q806.1844 437.075 806.7 437.35626Q807.23126 437.6375 807.575 438.16876Q807.91876 438.6844 808.10626 439.4344Q808.29376 440.1844 808.29376 441.46564Q808.29376 442.98126 807.98126 443.90314Q807.6844 444.825 807.0594 445.34064Q806.45 445.84064 805.4969 445.84064Q804.2625 445.84064 803.54376 444.95Q802.7 443.8875 802.7 441.46564ZM803.77814 441.46564Q803.77814 443.575 804.27814 444.27814Q804.77814 444.98126 805.4969 444.98126Q806.23126 444.98126 806.71564 444.27814Q807.21564 443.575 807.21564 441.46564Q807.21564 439.34064 806.71564 438.65314Q806.23126 437.95 805.48126 437.95Q804.7625 437.95 804.325 438.5594Q803.77814 439.34064 803.77814 441.46564ZM809.7 441.46564Q809.7 439.9344 810.0125 439.0125Q810.325 438.075 810.9344 437.575Q811.5594 437.075 812.4969 437.075Q813.1844 437.075 813.7 437.35626Q814.23126 437.6375 814.575 438.16876Q814.91876 438.6844 815.10626 439.4344Q815.29376 440.1844 815.29376 441.46564Q815.29376 442.98126 814.98126 443.90314Q814.6844 444.825 814.0594 445.34064Q813.45 445.84064 812.4969 445.84064Q811.2625 445.84064 810.54376 444.95Q809.7 443.8875 809.7 441.46564ZM810.77814 441.46564Q810.77814 443.575 811.27814 444.27814Q811.77814 444.98126 812.4969 444.98126Q813.23126 444.98126 813.71564 444.27814Q814.21564 443.575 814.21564 441.46564Q814.21564 439.34064 813.71564 438.65314Q813.23126 437.95 812.48126 437.95Q811.7625 437.95 811.325 438.5594Q810.77814 439.34064 810.77814 441.46564Z" fill-rule="nonzero"/><path fill="#757575" d="M33.39375 40.503124L35.1125 40.721874Q34.83125 42.51875 33.659374 43.534374Q32.503124 44.534374 30.8 44.534374Q28.675 44.534374 27.378124 43.14375Q26.08125 41.753124 26.08125 39.159374Q26.08125 37.471874 26.628124 36.221874Q27.190624 34.95625 28.33125 34.33125Q29.471874 33.690624 30.815624 33.690624Q32.503124 33.690624 33.565624 34.55Q34.64375 35.409374 34.95625 36.971874L33.2375 37.2375Q33.003124 36.190624 32.378124 35.675Q31.753124 35.14375 30.878124 35.14375Q29.55 35.14375 28.721874 36.096874Q27.89375 37.05 27.89375 39.096874Q27.89375 41.190624 28.690624 42.14375Q29.4875 43.08125 30.784374 43.08125Q31.815624 43.08125 32.503124 42.45625Q33.20625 41.815624 33.39375 40.503124ZM35.971874 39.1125Q35.971874 36.2375 37.565624 34.846874Q38.909374 33.690624 40.83125 33.690624Q42.971874 33.690624 44.315624 35.096874Q45.675 36.503124 45.675 38.971874Q45.675 40.971874 45.08125 42.128124Q44.4875 43.26875 43.33125 43.909374Q42.190624 44.534374 40.83125 44.534374Q38.64375 44.534374 37.3 43.14375Q35.971874 41.7375 35.971874 39.1125ZM37.76875 39.1125Q37.76875 41.1125 38.628124 42.096874Q39.503124 43.08125 40.83125 43.08125Q42.14375 43.08125 43.003124 42.096874Q43.878124 41.096874 43.878124 39.05Q43.878124 37.128124 43.003124 36.14375Q42.128124 35.14375 40.83125 35.14375Q39.503124 35.14375 38.628124 36.14375Q37.76875 37.128124 37.76875 39.1125ZM54.39375 40.503124L56.1125 40.721874Q55.83125 42.51875 54.659374 43.534374Q53.503124 44.534374 51.8 44.534374Q49.675 44.534374 48.378124 43.14375Q47.08125 41.753124 47.08125 39.159374Q47.08125 37.471874 47.628124 36.221874Q48.190624 34.95625 49.33125 34.33125Q50.471874 33.690624 51.815624 33.690624Q53.503124 33.690624 54.565624 34.55Q55.64375 35.409374 55.95625 36.971874L54.2375 37.2375Q54.003124 36.190624 53.378124 35.675Q52.753124 35.14375 51.878124 35.14375Q50.55 35.14375 49.721874 36.096874Q48.89375 37.05 48.89375 39.096874Q48.89375 41.190624 49.690624 42.14375Q50.4875 43.08125 51.784374 43.08125Q52.815624 43.08125 53.503124 42.45625Q54.20625 41.815624 54.39375 40.503124ZM57.628124 44.3L57.628124 29.9875L59.39375 29.9875L59.39375 38.14375L63.55 33.925L65.81563 33.925L61.8625 37.76875L66.22188 44.3L64.05 44.3L60.628124 39.003124L59.39375 40.190624L59.39375 44.3L57.628124 44.3ZM71.45625 42.721874L71.70625 44.284374Q70.97188 44.440624 70.37813 44.440624Q69.425 44.440624 68.89375 44.14375Q68.37813 43.83125 68.15938 43.346874Q67.94063 42.846874 67.94063 41.26875L67.94063 35.3L66.65938 35.3L66.65938 33.925L67.94063 33.925L67.94063 31.3625L69.69063 30.3L69.69063 33.925L71.45625 33.925L71.45625 35.3L69.69063 35.3L69.69063 41.3625Q69.69063 42.1125 69.78438 42.33125Q69.87813 42.534374 70.08125 42.675Q70.3 42.8 70.69063 42.8Q70.97188 42.8 71.45625 42.721874ZM80.39375 43.01875Q79.40938 43.846874 78.50313 44.190624Q77.59688 44.534374 76.56563 44.534374Q74.8625 44.534374 73.94063 43.70625Q73.01875 42.8625 73.01875 41.565624Q73.01875 40.8 73.3625 40.175Q73.72188 39.55 74.28438 39.175Q74.84688 38.784374 75.55 38.58125Q76.06563 38.45625 77.1125 38.315624Q79.2375 38.065624 80.2375 37.721874Q80.25313 37.3625 80.25313 37.253124Q80.25313 36.190624 79.75313 35.7375Q79.08125 35.14375 77.75313 35.14375Q76.50313 35.14375 75.90938 35.58125Q75.33125 36.01875 75.05 37.128124L73.33125 36.89375Q73.56563 35.784374 74.09688 35.1125Q74.62813 34.425 75.64375 34.065624Q76.65938 33.690624 78.00313 33.690624Q79.33125 33.690624 80.15938 34.003124Q80.9875 34.315624 81.37813 34.8Q81.76875 35.26875 81.925 35.9875Q82.01875 36.440624 82.01875 37.6125L82.01875 39.95625Q82.01875 42.409374 82.12813 43.065624Q82.2375 43.70625 82.58125 44.3L80.7375 44.3Q80.47188 43.753124 80.39375 43.01875ZM80.2375 39.096874Q79.28438 39.4875 77.3625 39.753124Q76.28438 39.909374 75.83125 40.1125Q75.39375 40.3 75.14375 40.675Q74.89375 41.05 74.89375 41.51875Q74.89375 42.221874 75.425 42.690624Q75.95625 43.159374 76.9875 43.159374Q78.00313 43.159374 78.78438 42.721874Q79.58125 42.26875 79.95625 41.503124Q80.2375 40.89375 80.2375 39.7375L80.2375 39.096874ZM84.62813 32.003124L84.62813 29.9875L86.39375 29.9875L86.39375 32.003124L84.62813 32.003124ZM84.62813 44.3L84.62813 33.925L86.39375 33.925L86.39375 44.3L84.62813 44.3ZM88.58125 44.3L88.58125 29.9875L90.33125 29.9875L90.33125 44.3L88.58125 44.3ZM91.00313 48.26875L91.00313 47.003124L102.64375 47.003124L102.64375 48.26875L91.00313 48.26875ZM102.90938 41.20625L104.65938 40.925Q104.8 41.971874 105.47188 42.534374Q106.14375 43.08125 107.34688 43.08125Q108.55 43.08125 109.12813 42.596874Q109.72188 42.096874 109.72188 41.440624Q109.72188 40.846874 109.20625 40.503124Q108.84688 40.26875 107.40938 39.909374Q105.47188 39.409374 104.72188 39.065624Q103.9875 38.70625 103.59688 38.08125Q103.20625 37.440624 103.20625 36.675Q103.20625 35.9875 103.51875 35.39375Q103.84688 34.8 104.39375 34.409374Q104.8 34.1125 105.50313 33.909374Q106.22188 33.690624 107.03438 33.690624Q108.25313 33.690624 109.175 34.05Q110.09688 34.39375 110.53438 35.003124Q110.97188 35.596874 111.14375 36.596874L109.425 36.83125Q109.3 36.034374 108.7375 35.596874Q108.175 35.14375 107.15938 35.14375Q105.94063 35.14375 105.425 35.55Q104.90938 35.940624 104.90938 36.471874Q104.90938 36.815624 105.12813 37.096874Q105.33125 37.378124 105.8 37.565624Q106.06563 37.659374 107.34688 38.003124Q109.22188 38.503124 109.95625 38.83125Q110.69063 39.14375 111.1125 39.753124Q111.53438 40.346874 111.53438 41.253124Q111.53438 42.128124 111.01875 42.909374Q110.50313 43.690624 109.53438 44.1125Q108.56563 44.534374 107.34688 44.534374Q105.33125 44.534374 104.26875 43.690624Q103.20625 42.846874 102.90938 41.20625ZM113.6125 44.3L113.6125 29.9875L115.37813 29.9875L115.37813 35.1125Q116.6125 33.690624 118.4875 33.690624Q119.62813 33.690624 120.47188 34.14375Q121.33125 34.596874 121.69063 35.409374Q122.06563 36.20625 122.06563 37.721874L122.06563 44.3L120.31563 44.3L120.31563 37.721874Q120.31563 36.409374 119.7375 35.815624Q119.15938 35.20625 118.12813 35.20625Q117.34688 35.20625 116.64375 35.6125Q115.95625 36.01875 115.65938 36.721874Q115.37813 37.409374 115.37813 38.628124L115.37813 44.3L113.6125 44.3ZM131.39375 43.01875Q130.40938 43.846874 129.50313 44.190624Q128.59688 44.534374 127.56563 44.534374Q125.8625 44.534374 124.94063 43.70625Q124.01875 42.8625 124.01875 41.565624Q124.01875 40.8 124.3625 40.175Q124.72188 39.55 125.28438 39.175Q125.84688 38.784374 126.55 38.58125Q127.06563 38.45625 128.1125 38.315624Q130.2375 38.065624 131.2375 37.721874Q131.25313 37.3625 131.25313 37.253124Q131.25313 36.190624 130.75313 35.7375Q130.08125 35.14375 128.75313 35.14375Q127.50313 35.14375 126.90938 35.58125Q126.33125 36.01875 126.05 37.128124L124.33125 36.89375Q124.56563 35.784374 125.09688 35.1125Q125.62813 34.425 126.64375 34.065624Q127.65938 33.690624 129.00313 33.690624Q130.33125 33.690624 131.15938 34.003124Q131.9875 34.315624 132.37813 34.8Q132.76875 35.26875 132.925 35.9875Q133.01875 36.440624 133.01875 37.6125L133.01875 39.95625Q133.01875 42.409374 133.12813 43.065624Q133.2375 43.70625 133.58125 44.3L131.7375 44.3Q131.47188 43.753124 131.39375 43.01875ZM131.2375 39.096874Q130.28438 39.4875 128.3625 39.753124Q127.28438 39.909374 126.83125 40.1125Q126.39375 40.3 126.14375 40.675Q125.89375 41.05 125.89375 41.51875Q125.89375 42.221874 126.425 42.690624Q126.95625 43.159374 127.9875 43.159374Q129.00313 43.159374 129.78438 42.721874Q130.58125 42.26875 130.95625 41.503124Q131.2375 40.89375 131.2375 39.7375L131.2375 39.096874ZM135.62813 44.3L135.62813 29.9875L137.39375 29.9875L137.39375 38.14375L141.55 33.925L143.81563 33.925L139.8625 37.76875L144.22188 44.3L142.05 44.3L138.62813 39.003124L137.39375 40.190624L137.39375 44.3L135.62813 44.3ZM152.72188 40.95625L154.53438 41.190624Q154.1125 42.76875 152.94063 43.659374Q151.78438 44.534374 149.97188 44.534374Q147.70625 44.534374 146.3625 43.14375Q145.03438 41.7375 145.03438 39.20625Q145.03438 36.58125 146.37813 35.14375Q147.72188 33.690624 149.87813 33.690624Q151.95625 33.690624 153.26875 35.1125Q154.59688 36.51875 154.59688 39.096874Q154.59688 39.253124 154.58125 39.565624L146.84688 39.565624Q146.94063 41.26875 147.81563 42.175Q148.69063 43.08125 149.9875 43.08125Q150.95625 43.08125 151.62813 42.58125Q152.31563 42.065624 152.72188 40.95625ZM146.94063 38.1125L152.7375 38.1125Q152.62813 36.815624 152.08125 36.159374Q151.2375 35.14375 149.89375 35.14375Q148.69063 35.14375 147.8625 35.95625Q147.03438 36.753124 146.94063 38.1125ZM156.59688 44.3L156.59688 33.925L158.175 33.925L158.175 35.503124Q158.78438 34.39375 159.3 34.05Q159.81563 33.690624 160.425 33.690624Q161.31563 33.690624 162.2375 34.253124L161.62813 35.89375Q160.9875 35.503124 160.34688 35.503124Q159.76875 35.503124 159.3 35.8625Q158.84688 36.20625 158.64375 36.815624Q158.3625 37.753124 158.3625 38.8625L158.3625 44.3L156.59688 44.3ZM162.00313 48.26875L162.00313 47.003124L173.64375 47.003124L173.64375 48.26875L162.00313 48.26875ZM173.90938 41.20625L175.65938 40.925Q175.8 41.971874 176.47188 42.534374Q177.14375 43.08125 178.34688 43.08125Q179.55 43.08125 180.12813 42.596874Q180.72188 42.096874 180.72188 41.440624Q180.72188 40.846874 180.20625 40.503124Q179.84688 40.26875 178.40938 39.909374Q176.47188 39.409374 175.72188 39.065624Q174.9875 38.70625 174.59688 38.08125Q174.20625 37.440624 174.20625 36.675Q174.20625 35.9875 174.51875 35.39375Q174.84688 34.8 175.39375 34.409374Q175.8 34.1125 176.50313 33.909374Q177.22188 33.690624 178.03438 33.690624Q179.25313 33.690624 180.175 34.05Q181.09688 34.39375 181.53438 35.003124Q181.97188 35.596874 182.14375 36.596874L180.425 36.83125Q180.3 36.034374 179.7375 35.596874Q179.175 35.14375 178.15938 35.14375Q176.94063 35.14375 176.425 35.55Q175.90938 35.940624 175.90938 36.471874Q175.90938 36.815624 176.12813 37.096874Q176.33125 37.378124 176.8 37.565624Q177.06563 37.659374 178.34688 38.003124Q180.22188 38.503124 180.95625 38.83125Q181.69063 39.14375 182.1125 39.753124Q182.53438 40.346874 182.53438 41.253124Q182.53438 42.128124 182.01875 42.909374Q181.50313 43.690624 180.53438 44.1125Q179.56563 44.534374 178.34688 44.534374Q176.33125 44.534374 175.26875 43.690624Q174.20625 42.846874 173.90938 41.20625ZM183.97188 39.1125Q183.97188 36.2375 185.56563 34.846874Q186.90938 33.690624 188.83125 33.690624Q190.97188 33.690624 192.31563 35.096874Q193.675 36.503124 193.675 38.971874Q193.675 40.971874 193.08125 42.128124Q192.4875 43.26875 191.33125 43.909374Q190.19063 44.534374 188.83125 44.534374Q186.64375 44.534374 185.3 43.14375Q183.97188 41.7375 183.97188 39.1125ZM185.76875 39.1125Q185.76875 41.1125 186.62813 42.096874Q187.50313 43.08125 188.83125 43.08125Q190.14375 43.08125 191.00313 42.096874Q191.87813 41.096874 191.87813 39.05Q191.87813 37.128124 191.00313 36.14375Q190.12813 35.14375 188.83125 35.14375Q187.50313 35.14375 186.62813 36.14375Q185.76875 37.128124 185.76875 39.1125ZM195.59688 44.3L195.59688 33.925L197.175 33.925L197.175 35.503124Q197.78438 34.39375 198.3 34.05Q198.81563 33.690624 199.425 33.690624Q200.31563 33.690624 201.2375 34.253124L200.62813 35.89375Q199.9875 35.503124 199.34688 35.503124Q198.76875 35.503124 198.3 35.8625Q197.84688 36.20625 197.64375 36.815624Q197.3625 37.753124 197.3625 38.8625L197.3625 44.3L195.59688 44.3ZM206.45625 42.721874L206.70625 44.284374Q205.97188 44.440624 205.37813 44.440624Q204.425 44.440624 203.89375 44.14375Q203.37813 43.83125 203.15938 43.346874Q202.94063 42.846874 202.94063 41.26875L202.94063 35.3L201.65938 35.3L201.65938 33.925L202.94063 33.925L202.94063 31.3625L204.69063 30.3L204.69063 33.925L206.45625 33.925L206.45625 35.3L204.69063 35.3L204.69063 41.3625Q204.69063 42.1125 204.78438 42.33125Q204.87813 42.534374 205.08125 42.675Q205.3 42.8 205.69063 42.8Q205.97188 42.8 206.45625 42.721874Z" fill-rule="nonzero"/></svg>