<svg version="1.1" viewBox="0.0 0.0 749.0 463.0" fill="none" stroke="none" stroke-linecap="square" stroke-miterlimit="10" width="749" height="463" xmlns:xlink="http://www.w3.org/1999/xlink" xmlns="http://www.w3.org/2000/svg"><path fill="#ffffff" d="M0 0L749.0 0L749.0 463.0L0 463.0L0 0Z" fill-rule="nonzero"/><path stroke="#cccccc" stroke-width="1.0" stroke-linecap="butt" d="M222.5 69.5L222.5 387.5" fill-rule="nonzero"/><path stroke="#cccccc" stroke-width="1.0" stroke-linecap="butt" d="M348.5 69.5L348.5 387.5" fill-rule="nonzero"/><path stroke="#cccccc" stroke-width="1.0" stroke-linecap="butt" d="M473.5 69.5L473.5 387.5" fill-rule="nonzero"/><path stroke="#cccccc" stroke-width="1.0" stroke-linecap="butt" d="M599.5 69.5L599.5 387.5" fill-rule="nonzero"/><path stroke="#cccccc" stroke-width="1.0" stroke-linecap="butt" d="M725.5 69.5L725.5 387.5" fill-rule="nonzero"/><path stroke="#333333" stroke-width="1.0" stroke-linecap="butt" d="M96.5 387.5L725.5 387.5" fill-rule="nonzero"/><path stroke="#cccccc" stroke-width="1.0" stroke-linecap="butt" d="M96.5 308.5L725.5 308.5" fill-rule="nonzero"/><path stroke="#cccccc" stroke-width="1.0" stroke-linecap="butt" d="M96.5 228.5L725.5 228.5" fill-rule="nonzero"/><path stroke="#cccccc" stroke-width="1.0" stroke-linecap="butt" d="M96.5 149.5L725.5 149.5" fill-rule="nonzero"/><path stroke="#cccccc" stroke-width="1.0" stroke-linecap="butt" d="M96.5 69.5L725.5 69.5" fill-rule="nonzero"/><clipPath id="id_0"><path d="M96.15 69.583336L725.85 69.583336L725.85 387.85L96.15 387.85L96.15 69.583336Z" clip-rule="nonzero"/></clipPath><path stroke="#4285f4" stroke-width="2.0" stroke-linecap="butt" clip-path="url(#id_0)" d="M96.15 336.97507L96.15945 335.702L96.175186 334.7154L96.19093 334.33347L96.20667 334.06293L96.30113 333.26727L96.45856 333.49005L96.61598 333.47415L96.77341 332.8217L97.71797 332.13742L99.29224 330.83252L100.8665 330.6734L102.440765 326.91785L111.88636 325.96304L127.62902 315.47617L143.37167 306.26233L159.11433 297.09625L253.57028 267.11554L410.99686 212.5328L725.85 108.793785" fill-rule="nonzero"/><path fill="#000000" fill-opacity="0.0" clip-path="url(#id_0)" d="M99.15 336.97507C99.15 338.63193 97.806854 339.97507 96.15 339.97507C94.49315 339.97507 93.15 338.63193 93.15 336.97507C93.15 335.3182 94.49315 333.97507 96.15 333.97507C97.806854 333.97507 99.15 335.3182 99.15 336.97507Z" fill-rule="nonzero"/><path fill="#000000" fill-opacity="0.0" clip-path="url(#id_0)" d="M99.15945 335.702C99.15945 337.35886 97.8163 338.702 96.15945 338.702C94.502594 338.702 93.15945 337.35886 93.15945 335.702C93.15945 334.04517 94.502594 332.702 96.15945 332.702C97.8163 332.702 99.15945 334.04517 99.15945 335.702Z" fill-rule="nonzero"/><path fill="#000000" fill-opacity="0.0" clip-path="url(#id_0)" d="M99.175186 334.7154C99.175186 336.37222 97.83204 337.7154 96.175186 337.7154C94.51833 337.7154 93.175186 336.37222 93.175186 334.7154C93.175186 333.05853 94.51833 331.7154 96.175186 331.7154C97.83204 331.7154 99.175186 333.05853 99.175186 334.7154Z" fill-rule="nonzero"/><path fill="#000000" fill-opacity="0.0" clip-path="url(#id_0)" d="M99.19093 334.33347C99.19093 335.99033 97.847786 337.33347 96.19093 337.33347C94.53407 337.33347 93.19093 335.99033 93.19093 334.33347C93.19093 332.6766 94.53407 331.33347 96.19093 331.33347C97.847786 331.33347 99.19093 332.6766 99.19093 334.33347Z" fill-rule="nonzero"/><path fill="#000000" fill-opacity="0.0" clip-path="url(#id_0)" d="M99.20667 334.06293C99.20667 335.7198 97.863525 337.06293 96.20667 337.06293C94.54982 337.06293 93.20667 335.7198 93.20667 334.06293C93.20667 332.40607 94.54982 331.06293 96.20667 331.06293C97.863525 331.06293 99.20667 332.40607 99.20667 334.06293Z" fill-rule="nonzero"/><path fill="#000000" fill-opacity="0.0" clip-path="url(#id_0)" d="M99.30113 333.26727C99.30113 334.92413 97.957985 336.26727 96.30113 336.26727C94.64427 336.26727 93.30113 334.92413 93.30113 333.26727C93.30113 331.6104 94.64427 330.26727 96.30113 330.26727C97.957985 330.26727 99.30113 331.6104 99.30113 333.26727Z" fill-rule="nonzero"/><path fill="#000000" fill-opacity="0.0" clip-path="url(#id_0)" d="M99.45856 333.49005C99.45856 335.1469 98.11541 336.49005 96.45856 336.49005C94.801704 336.49005 93.45856 335.1469 93.45856 333.49005C93.45856 331.8332 94.801704 330.49005 96.45856 330.49005C98.11541 330.49005 99.45856 331.8332 99.45856 333.49005Z" fill-rule="nonzero"/><path fill="#000000" fill-opacity="0.0" clip-path="url(#id_0)" d="M99.61598 333.47415C99.61598 335.13098 98.272835 336.47415 96.61598 336.47415C94.95913 336.47415 93.61598 335.13098 93.61598 333.47415C93.61598 331.8173 94.95913 330.47415 96.61598 330.47415C98.272835 330.47415 99.61598 331.8173 99.61598 333.47415Z" fill-rule="nonzero"/><path fill="#000000" fill-opacity="0.0" clip-path="url(#id_0)" d="M99.77341 332.8217C99.77341 334.47855 98.43026 335.8217 96.77341 335.8217C95.116554 335.8217 93.77341 334.47855 93.77341 332.8217C93.77341 331.16483 95.116554 329.8217 96.77341 329.8217C98.43026 329.8217 99.77341 331.16483 99.77341 332.8217Z" fill-rule="nonzero"/><path fill="#000000" fill-opacity="0.0" clip-path="url(#id_0)" d="M100.71797 332.13742C100.71797 333.79428 99.374825 335.13742 97.71797 335.13742C96.06111 335.13742 94.71797 333.79428 94.71797 332.13742C94.71797 330.48056 96.06111 329.13742 97.71797 329.13742C99.374825 329.13742 100.71797 330.48056 100.71797 332.13742Z" fill-rule="nonzero"/><path fill="#000000" fill-opacity="0.0" clip-path="url(#id_0)" d="M102.29224 330.83252C102.29224 332.48938 100.94909 333.83252 99.29224 333.83252C97.63538 333.83252 96.29224 332.48938 96.29224 330.83252C96.29224 329.17566 97.63538 327.83252 99.29224 327.83252C100.94909 327.83252 102.29224 329.17566 102.29224 330.83252Z" fill-rule="nonzero"/><path fill="#000000" fill-opacity="0.0" clip-path="url(#id_0)" d="M103.8665 330.6734C103.8665 332.33026 102.52335 333.6734 100.8665 333.6734C99.20965 333.6734 97.8665 332.33026 97.8665 330.6734C97.8665 329.01654 99.20965 327.6734 100.8665 327.6734C102.52335 327.6734 103.8665 329.01654 103.8665 330.6734Z" fill-rule="nonzero"/><path fill="#000000" fill-opacity="0.0" clip-path="url(#id_0)" d="M105.440765 326.91785C105.440765 328.5747 104.09762 329.91785 102.440765 329.91785C100.78391 329.91785 99.440765 328.5747 99.440765 326.91785C99.440765 325.261 100.78391 323.91785 102.440765 323.91785C104.09762 323.91785 105.440765 325.261 105.440765 326.91785Z" fill-rule="nonzero"/><path fill="#000000" fill-opacity="0.0" clip-path="url(#id_0)" d="M114.88636 325.96304C114.88636 327.6199 113.54321 328.96304 111.88636 328.96304C110.22951 328.96304 108.88636 327.6199 108.88636 325.96304C108.88636 324.30618 110.22951 322.96304 111.88636 322.96304C113.54321 322.96304 114.88636 324.30618 114.88636 325.96304Z" fill-rule="nonzero"/><path fill="#000000" fill-opacity="0.0" clip-path="url(#id_0)" d="M130.62901 315.47617C130.62901 317.13303 129.28587 318.47617 127.62902 318.47617C125.97216 318.47617 124.62902 317.13303 124.62902 315.47617C124.62902 313.8193 125.97216 312.47617 127.62902 312.47617C129.28587 312.47617 130.62901 313.8193 130.62901 315.47617Z" fill-rule="nonzero"/><path fill="#000000" fill-opacity="0.0" clip-path="url(#id_0)" d="M146.37167 306.26233C146.37167 307.9192 145.02853 309.26233 143.37167 309.26233C141.71483 309.26233 140.37167 307.9192 140.37167 306.26233C140.37167 304.6055 141.71483 303.26233 143.37167 303.26233C145.02853 303.26233 146.37167 304.6055 146.37167 306.26233Z" fill-rule="nonzero"/><path fill="#000000" fill-opacity="0.0" clip-path="url(#id_0)" d="M162.11433 297.09625C162.11433 298.7531 160.7712 300.09625 159.11433 300.09625C157.45747 300.09625 156.11433 298.7531 156.11433 297.09625C156.11433 295.4394 157.45747 294.09625 159.11433 294.09625C160.7712 294.09625 162.11433 295.4394 162.11433 297.09625Z" fill-rule="nonzero"/><path fill="#000000" fill-opacity="0.0" clip-path="url(#id_0)" d="M256.57028 267.11554C256.57028 268.7724 255.22713 270.11554 253.57028 270.11554C251.91342 270.11554 250.57028 268.7724 250.57028 267.11554C250.57028 265.45868 251.91342 264.11554 253.57028 264.11554C255.22713 264.11554 256.57028 265.45868 256.57028 267.11554Z" fill-rule="nonzero"/><path fill="#000000" fill-opacity="0.0" clip-path="url(#id_0)" d="M413.99686 212.5328C413.99686 214.18967 412.65372 215.5328 410.99686 215.5328C409.34 215.5328 407.99686 214.18967 407.99686 212.5328C407.99686 210.87595 409.34 209.5328 410.99686 209.5328C412.65372 209.5328 413.99686 210.87595 413.99686 212.5328Z" fill-rule="nonzero"/><path fill="#000000" fill-opacity="0.0" clip-path="url(#id_0)" d="M728.85 108.793785C728.85 110.45064 727.50684 111.793785 725.85 111.793785C724.1931 111.793785 722.85 110.45064 722.85 108.793785C722.85 107.13693 724.1931 105.793785 725.85 105.793785C727.50684 105.793785 728.85 107.13693 728.85 108.793785Z" fill-rule="nonzero"/><path fill="#000000" d="M408.29688 436.85L408.29688 430.63126L409.23438 430.63126L409.23438 431.50626Q409.92188 430.49063 411.21875 430.49063Q411.78125 430.49063 412.25 430.69376Q412.73438 430.89688 412.96875 431.225Q413.20312 431.55313 413.29688 431.99063Q413.34375 432.2875 413.34375 433.02188L413.34375 436.85L412.29688 436.85L412.29688 433.06876Q412.29688 432.4125 412.17188 432.1Q412.04688 431.7875 411.73438 431.6Q411.42188 431.39688 411.0 431.39688Q410.32812 431.39688 409.82812 431.83438Q409.34375 432.25626 409.34375 433.44376L409.34375 436.85L408.29688 436.85Z" fill-rule="nonzero"/><path fill="#000000" d="M34.150005 252.41978L27.931255 252.41978L27.931255 251.48228L28.806255 251.48228Q28.337505 251.18541 28.07188 250.70103Q27.79063 250.21666 27.79063 249.59166Q27.79063 248.90416 28.07188 248.46666Q28.35313 248.01353 28.868755 247.84166Q27.79063 247.09166 27.79063 245.91978Q27.79063 244.98228 28.306255 244.49791Q28.806255 243.99791 29.88438 243.99791L34.150005 243.99791L34.150005 245.04478L30.22813 245.04478Q29.60313 245.04478 29.32188 245.15416Q29.04063 245.24791 28.868755 245.51353Q28.69688 245.77916 28.69688 246.15416Q28.69688 246.81041 29.13438 247.24791Q29.57188 247.66978 30.54063 247.66978L34.150005 247.66978L34.150005 248.73228L30.10313 248.73228Q29.400005 248.73228 29.056255 248.99791Q28.69688 249.24791 28.69688 249.82603Q28.69688 250.27916 28.931255 250.65416Q29.16563 251.02916 29.618755 251.20103Q30.07188 251.37291 30.91563 251.37291L34.150005 251.37291L34.150005 252.41978ZM26.775005 242.41978L25.556255 242.41978L25.556255 241.35728L26.775005 241.35728L26.775005 242.41978ZM34.150005 242.41978L27.931255 242.41978L27.931255 241.35728L34.150005 241.35728L34.150005 242.41978ZM31.868755 235.35728L32.00938 234.32603Q33.07188 234.49791 33.681255 235.20103Q34.29063 235.90416 34.29063 236.91978Q34.29063 238.20103 33.462505 238.98228Q32.618755 239.74791 31.056255 239.74791Q30.056255 239.74791 29.306255 239.41978Q28.54063 239.07603 28.16563 238.40416Q27.79063 237.71666 27.79063 236.90416Q27.79063 235.90416 28.306255 235.26353Q28.806255 234.60728 29.75938 234.41978L29.91563 235.45103Q29.29063 235.59166 28.97813 235.96666Q28.650005 236.34166 28.650005 236.87291Q28.650005 237.66978 29.22813 238.16978Q29.79063 238.66978 31.025005 238.66978Q32.29063 238.66978 32.85313 238.18541Q33.41563 237.70103 33.41563 236.93541Q33.41563 236.31041 33.04063 235.90416Q32.66563 235.48228 31.868755 235.35728ZM34.150005 233.43541L27.931255 233.43541L27.931255 232.48228L28.868755 232.48228Q28.212505 232.12291 28.00938 231.82603Q27.79063 231.51353 27.79063 231.13853Q27.79063 230.60728 28.118755 230.06041L29.10313 230.41978Q28.868755 230.81041 28.868755 231.18541Q28.868755 231.54478 29.087505 231.82603Q29.29063 232.09166 29.66563 232.20103Q30.22813 232.38853 30.88438 232.38853L34.150005 232.38853L34.150005 233.43541ZM31.04063 229.81041Q29.306255 229.81041 28.47813 228.85728Q27.79063 228.06041 27.79063 226.90416Q27.79063 225.62291 28.63438 224.81041Q29.462505 223.98228 30.94688 223.98228Q32.150005 223.98228 32.837505 224.34166Q33.525005 224.70103 33.91563 225.40416Q34.29063 226.09166 34.29063 226.90416Q34.29063 228.20103 33.462505 229.01353Q32.618755 229.81041 31.04063 229.81041ZM31.04063 228.73228Q32.22813 228.73228 32.82188 228.21666Q33.41563 227.68541 33.41563 226.90416Q33.41563 226.10728 32.82188 225.59166Q32.22813 225.07603 31.00938 225.07603Q29.85313 225.07603 29.25938 225.60728Q28.66563 226.12291 28.66563 226.90416Q28.66563 227.68541 29.25938 228.21666Q29.837505 228.73228 31.04063 228.73228ZM32.29063 222.84166L32.13438 221.81041Q32.75938 221.71666 33.087505 221.32603Q33.41563 220.91978 33.41563 220.18541Q33.41563 219.46666 33.13438 219.12291Q32.837505 218.76353 32.431255 218.76353Q32.07188 218.76353 31.868755 219.07603Q31.72813 219.29478 31.50938 220.15416Q31.212505 221.31041 31.00938 221.76353Q30.79063 222.20103 30.41563 222.43541Q30.04063 222.66978 29.57188 222.66978Q29.16563 222.66978 28.806255 222.48228Q28.44688 222.29478 28.212505 221.96666Q28.04063 221.71666 27.91563 221.29478Q27.79063 220.87291 27.79063 220.37291Q27.79063 219.65416 28.00938 219.10728Q28.212505 218.54478 28.57188 218.27916Q28.931255 218.01353 29.525005 217.91978L29.66563 218.95103Q29.19688 219.01353 28.931255 219.35728Q28.650005 219.68541 28.650005 220.31041Q28.650005 221.02916 28.900005 221.34166Q29.13438 221.65416 29.462505 221.65416Q29.66563 221.65416 29.82188 221.52916Q29.993755 221.38853 30.10313 221.12291Q30.16563 220.96666 30.368755 220.18541Q30.681255 219.06041 30.868755 218.62291Q31.056255 218.18541 31.41563 217.93541Q31.775005 217.68541 32.32188 217.68541Q32.85313 217.68541 33.32188 217.99791Q33.775005 218.29478 34.04063 218.87291Q34.29063 219.45103 34.29063 220.18541Q34.29063 221.40416 33.79063 222.04478Q33.275005 222.66978 32.29063 222.84166Z" fill-rule="nonzero"/><path fill="#000000" d="M83.65 387.61563Q83.65 386.08438 83.9625 385.1625Q84.275 384.225 84.88438 383.725Q85.50938 383.225 86.44688 383.225Q87.13438 383.225 87.65 383.50626Q88.18125 383.7875 88.525 384.31876Q88.86875 384.83438 89.05625 385.58438Q89.24375 386.33438 89.24375 387.61563Q89.24375 389.13126 88.93125 390.05313Q88.63438 390.975 88.00938 391.49063Q87.4 391.99063 86.44688 391.99063Q85.2125 391.99063 84.49375 391.1Q83.65 390.0375 83.65 387.61563ZM84.72813 387.61563Q84.72813 389.725 85.22813 390.42813Q85.72813 391.13126 86.44688 391.13126Q87.18125 391.13126 87.66563 390.42813Q88.16563 389.725 88.16563 387.61563Q88.16563 385.49063 87.66563 384.80313Q87.18125 384.1 86.43125 384.1Q85.7125 384.1 85.275 384.70938Q84.72813 385.49063 84.72813 387.61563Z" fill-rule="nonzero"/><path fill="#000000" d="M62.65 310.03333L63.759377 309.93958Q63.884377 310.75208 64.32188 311.15833Q64.775 311.56458 65.41563 311.56458Q66.16563 311.56458 66.69688 310.98645Q67.22813 310.40833 67.22813 309.47083Q67.22813 308.56458 66.7125 308.04895Q66.2125 307.5177 65.38438 307.5177Q64.88438 307.5177 64.4625 307.75208Q64.05625 307.98645 63.821877 308.34583L62.8375 308.22083L63.665627 303.81458L67.94688 303.81458L67.94688 304.81458L64.50938 304.81458L64.05625 307.12708Q64.82188 306.5802 65.66563 306.5802Q66.79063 306.5802 67.55625 307.36145Q68.3375 308.1427 68.3375 309.37708Q68.3375 310.53333 67.66563 311.3927Q66.8375 312.42395 65.41563 312.42395Q64.24375 312.42395 63.49375 311.7677Q62.759377 311.11145 62.65 310.03333ZM69.65 308.04895Q69.65 306.5177 69.9625 305.59583Q70.275 304.65833 70.88438 304.15833Q71.50938 303.65833 72.44688 303.65833Q73.13438 303.65833 73.65 303.93958Q74.18125 304.22083 74.525 304.75208Q74.86875 305.2677 75.05625 306.0177Q75.24375 306.7677 75.24375 308.04895Q75.24375 309.56458 74.93125 310.48645Q74.63438 311.40833 74.00938 311.92395Q73.4 312.42395 72.44688 312.42395Q71.2125 312.42395 70.49375 311.53333Q69.65 310.47083 69.65 308.04895ZM70.72813 308.04895Q70.72813 310.15833 71.22813 310.86145Q71.72813 311.56458 72.44688 311.56458Q73.18125 311.56458 73.66563 310.86145Q74.16563 310.15833 74.16563 308.04895Q74.16563 305.92395 73.66563 305.23645Q73.18125 304.53333 72.43125 304.53333Q71.7125 304.53333 71.275 305.1427Q70.72813 305.92395 70.72813 308.04895ZM76.65 308.04895Q76.65 306.5177 76.9625 305.59583Q77.275 304.65833 77.88438 304.15833Q78.50938 303.65833 79.44688 303.65833Q80.13438 303.65833 80.65 303.93958Q81.18125 304.22083 81.525 304.75208Q81.86875 305.2677 82.05625 306.0177Q82.24375 306.7677 82.24375 308.04895Q82.24375 309.56458 81.93125 310.48645Q81.63438 311.40833 81.00938 311.92395Q80.4 312.42395 79.44688 312.42395Q78.2125 312.42395 77.49375 311.53333Q76.65 310.47083 76.65 308.04895ZM77.72813 308.04895Q77.72813 310.15833 78.22813 310.86145Q78.72813 311.56458 79.44688 311.56458Q80.18125 311.56458 80.66563 310.86145Q81.16563 310.15833 81.16563 308.04895Q81.16563 305.92395 80.66563 305.23645Q80.18125 304.53333 79.43125 304.53333Q78.7125 304.53333 78.275 305.1427Q77.72813 305.92395 77.72813 308.04895ZM83.65 308.04895Q83.65 306.5177 83.9625 305.59583Q84.275 304.65833 84.88438 304.15833Q85.50938 303.65833 86.44688 303.65833Q87.13438 303.65833 87.65 303.93958Q88.18125 304.22083 88.525 304.75208Q88.86875 305.2677 89.05625 306.0177Q89.24375 306.7677 89.24375 308.04895Q89.24375 309.56458 88.93125 310.48645Q88.63438 311.40833 88.00938 311.92395Q87.4 312.42395 86.44688 312.42395Q85.2125 312.42395 84.49375 311.53333Q83.65 310.47083 83.65 308.04895ZM84.72813 308.04895Q84.72813 310.15833 85.22813 310.86145Q85.72813 311.56458 86.44688 311.56458Q87.18125 311.56458 87.66563 310.86145Q88.16563 310.15833 88.16563 308.04895Q88.16563 305.92395 87.66563 305.23645Q87.18125 304.53333 86.43125 304.53333Q85.7125 304.53333 85.275 305.1427Q84.72813 305.92395 84.72813 308.04895Z" fill-rule="nonzero"/><path fill="#000000" d="M59.61875 232.71666L58.571877 232.71666L58.571877 225.99791Q58.18125 226.35728 57.55625 226.73228Q56.946877 227.09166 56.4625 227.26353L56.4625 226.24791Q57.3375 225.82603 57.99375 225.24791Q58.665627 224.65416 58.946877 224.09166L59.61875 224.09166L59.61875 232.71666ZM62.65 228.48228Q62.65 226.95103 62.9625 226.02916Q63.275 225.09166 63.884377 224.59166Q64.50938 224.09166 65.44688 224.09166Q66.13438 224.09166 66.65 224.37291Q67.18125 224.65416 67.525 225.18541Q67.86875 225.70103 68.05625 226.45103Q68.24375 227.20103 68.24375 228.48228Q68.24375 229.99791 67.93125 230.91978Q67.63438 231.84166 67.00938 232.35728Q66.4 232.85728 65.44688 232.85728Q64.2125 232.85728 63.49375 231.96666Q62.65 230.90416 62.65 228.48228ZM63.728127 228.48228Q63.728127 230.59166 64.22813 231.29478Q64.72813 231.99791 65.44688 231.99791Q66.18125 231.99791 66.66563 231.29478Q67.16563 230.59166 67.16563 228.48228Q67.16563 226.35728 66.66563 225.66978Q66.18125 224.96666 65.43125 224.96666Q64.7125 224.96666 64.275 225.57603Q63.728127 226.35728 63.728127 228.48228ZM69.65 228.48228Q69.65 226.95103 69.9625 226.02916Q70.275 225.09166 70.88438 224.59166Q71.50938 224.09166 72.44688 224.09166Q73.13438 224.09166 73.65 224.37291Q74.18125 224.65416 74.525 225.18541Q74.86875 225.70103 75.05625 226.45103Q75.24375 227.20103 75.24375 228.48228Q75.24375 229.99791 74.93125 230.91978Q74.63438 231.84166 74.00938 232.35728Q73.4 232.85728 72.44688 232.85728Q71.2125 232.85728 70.49375 231.96666Q69.65 230.90416 69.65 228.48228ZM70.72813 228.48228Q70.72813 230.59166 71.22813 231.29478Q71.72813 231.99791 72.44688 231.99791Q73.18125 231.99791 73.66563 231.29478Q74.16563 230.59166 74.16563 228.48228Q74.16563 226.35728 73.66563 225.66978Q73.18125 224.96666 72.43125 224.96666Q71.7125 224.96666 71.275 225.57603Q70.72813 226.35728 70.72813 228.48228ZM76.65 228.48228Q76.65 226.95103 76.9625 226.02916Q77.275 225.09166 77.88438 224.59166Q78.50938 224.09166 79.44688 224.09166Q80.13438 224.09166 80.65 224.37291Q81.18125 224.65416 81.525 225.18541Q81.86875 225.70103 82.05625 226.45103Q82.24375 227.20103 82.24375 228.48228Q82.24375 229.99791 81.93125 230.91978Q81.63438 231.84166 81.00938 232.35728Q80.4 232.85728 79.44688 232.85728Q78.2125 232.85728 77.49375 231.96666Q76.65 230.90416 76.65 228.48228ZM77.72813 228.48228Q77.72813 230.59166 78.22813 231.29478Q78.72813 231.99791 79.44688 231.99791Q80.18125 231.99791 80.66563 231.29478Q81.16563 230.59166 81.16563 228.48228Q81.16563 226.35728 80.66563 225.66978Q80.18125 224.96666 79.43125 224.96666Q78.7125 224.96666 78.275 225.57603Q77.72813 226.35728 77.72813 228.48228ZM83.65 228.48228Q83.65 226.95103 83.9625 226.02916Q84.275 225.09166 84.88438 224.59166Q85.50938 224.09166 86.44688 224.09166Q87.13438 224.09166 87.65 224.37291Q88.18125 224.65416 88.525 225.18541Q88.86875 225.70103 89.05625 226.45103Q89.24375 227.20103 89.24375 228.48228Q89.24375 229.99791 88.93125 230.91978Q88.63438 231.84166 88.00938 232.35728Q87.4 232.85728 86.44688 232.85728Q85.2125 232.85728 84.49375 231.96666Q83.65 230.90416 83.65 228.48228ZM84.72813 228.48228Q84.72813 230.59166 85.22813 231.29478Q85.72813 231.99791 86.44688 231.99791Q87.18125 231.99791 87.66563 231.29478Q88.16563 230.59166 88.16563 228.48228Q88.16563 226.35728 87.66563 225.66978Q87.18125 224.96666 86.43125 224.96666Q85.7125 224.96666 85.275 225.57603Q84.72813 226.35728 84.72813 228.48228Z" fill-rule="nonzero"/><path fill="#000000" d="M59.61875 153.15L58.571877 153.15L58.571877 146.43124Q58.18125 146.79062 57.55625 147.16562Q56.946877 147.525 56.4625 147.69687L56.4625 146.68124Q57.3375 146.25937 57.99375 145.68124Q58.665627 145.0875 58.946877 144.525L59.61875 144.525L59.61875 153.15ZM62.65 150.9L63.759377 150.80624Q63.884377 151.61874 64.32188 152.025Q64.775 152.43124 65.41563 152.43124Q66.16563 152.43124 66.69688 151.85312Q67.22813 151.275 67.22813 150.3375Q67.22813 149.43124 66.7125 148.91562Q66.2125 148.38437 65.38438 148.38437Q64.88438 148.38437 64.4625 148.61874Q64.05625 148.85312 63.821877 149.2125L62.8375 149.0875L63.665627 144.68124L67.94688 144.68124L67.94688 145.68124L64.50938 145.68124L64.05625 147.99374Q64.82188 147.44687 65.66563 147.44687Q66.79063 147.44687 67.55625 148.22812Q68.3375 149.00937 68.3375 150.24374Q68.3375 151.4 67.66563 152.25937Q66.8375 153.29062 65.41563 153.29062Q64.24375 153.29062 63.49375 152.63437Q62.759377 151.97812 62.65 150.9ZM69.65 148.91562Q69.65 147.38437 69.9625 146.4625Q70.275 145.525 70.88438 145.025Q71.50938 144.525 72.44688 144.525Q73.13438 144.525 73.65 144.80624Q74.18125 145.0875 74.525 145.61874Q74.86875 146.13437 75.05625 146.88437Q75.24375 147.63437 75.24375 148.91562Q75.24375 150.43124 74.93125 151.35312Q74.63438 152.275 74.00938 152.79062Q73.4 153.29062 72.44688 153.29062Q71.2125 153.29062 70.49375 152.4Q69.65 151.3375 69.65 148.91562ZM70.72813 148.91562Q70.72813 151.025 71.22813 151.72812Q71.72813 152.43124 72.44688 152.43124Q73.18125 152.43124 73.66563 151.72812Q74.16563 151.025 74.16563 148.91562Q74.16563 146.79062 73.66563 146.10312Q73.18125 145.4 72.43125 145.4Q71.7125 145.4 71.275 146.00937Q70.72813 146.79062 70.72813 148.91562ZM76.65 148.91562Q76.65 147.38437 76.9625 146.4625Q77.275 145.525 77.88438 145.025Q78.50938 144.525 79.44688 144.525Q80.13438 144.525 80.65 144.80624Q81.18125 145.0875 81.525 145.61874Q81.86875 146.13437 82.05625 146.88437Q82.24375 147.63437 82.24375 148.91562Q82.24375 150.43124 81.93125 151.35312Q81.63438 152.275 81.00938 152.79062Q80.4 153.29062 79.44688 153.29062Q78.2125 153.29062 77.49375 152.4Q76.65 151.3375 76.65 148.91562ZM77.72813 148.91562Q77.72813 151.025 78.22813 151.72812Q78.72813 152.43124 79.44688 152.43124Q80.18125 152.43124 80.66563 151.72812Q81.16563 151.025 81.16563 148.91562Q81.16563 146.79062 80.66563 146.10312Q80.18125 145.4 79.43125 145.4Q78.7125 145.4 78.275 146.00937Q77.72813 146.79062 77.72813 148.91562ZM83.65 148.91562Q83.65 147.38437 83.9625 146.4625Q84.275 145.525 84.88438 145.025Q85.50938 144.525 86.44688 144.525Q87.13438 144.525 87.65 144.80624Q88.18125 145.0875 88.525 145.61874Q88.86875 146.13437 89.05625 146.88437Q89.24375 147.63437 89.24375 148.91562Q89.24375 150.43124 88.93125 151.35312Q88.63438 152.275 88.00938 152.79062Q87.4 153.29062 86.44688 153.29062Q85.2125 153.29062 84.49375 152.4Q83.65 151.3375 83.65 148.91562ZM84.72813 148.91562Q84.72813 151.025 85.22813 151.72812Q85.72813 152.43124 86.44688 152.43124Q87.18125 152.43124 87.66563 151.72812Q88.16563 151.025 88.16563 148.91562Q88.16563 146.79062 87.66563 146.10312Q87.18125 145.4 86.43125 145.4Q85.7125 145.4 85.275 146.00937Q84.72813 146.79062 84.72813 148.91562Z" fill-rule="nonzero"/><path fill="#000000" d="M61.196877 72.56771L61.196877 73.583336L55.509377 73.583336Q55.509377 73.208336 55.634377 72.84896Q55.853127 72.270836 56.321877 71.708336Q56.80625 71.145836 57.7125 70.41146Q59.11875 69.25521 59.603127 68.583336Q60.103127 67.91146 60.103127 67.31771Q60.103127 66.69271 59.65 66.270836Q59.196877 65.833336 58.478127 65.833336Q57.7125 65.833336 57.259377 66.28646Q56.80625 66.739586 56.790627 67.552086L55.7125 67.44271Q55.821877 66.22396 56.540627 65.59896Q57.275 64.958336 58.509377 64.958336Q59.74375 64.958336 60.4625 65.645836Q61.18125 66.333336 61.18125 67.34896Q61.18125 67.864586 60.9625 68.364586Q60.759377 68.84896 60.259377 69.41146Q59.775 69.958336 58.65 70.91146Q57.696877 71.708336 57.415627 72.00521Q57.15 72.28646 56.978127 72.56771L61.196877 72.56771ZM62.65 69.34896Q62.65 67.81771 62.9625 66.895836Q63.275 65.958336 63.884377 65.458336Q64.50938 64.958336 65.44688 64.958336Q66.13438 64.958336 66.65 65.239586Q67.18125 65.520836 67.525 66.052086Q67.86875 66.56771 68.05625 67.31771Q68.24375 68.06771 68.24375 69.34896Q68.24375 70.864586 67.93125 71.78646Q67.63438 72.708336 67.00938 73.22396Q66.4 73.72396 65.44688 73.72396Q64.2125 73.72396 63.49375 72.833336Q62.65 71.770836 62.65 69.34896ZM63.728127 69.34896Q63.728127 71.458336 64.22813 72.16146Q64.72813 72.864586 65.44688 72.864586Q66.18125 72.864586 66.66563 72.16146Q67.16563 71.458336 67.16563 69.34896Q67.16563 67.22396 66.66563 66.53646Q66.18125 65.833336 65.43125 65.833336Q64.7125 65.833336 64.275 66.44271Q63.728127 67.22396 63.728127 69.34896ZM69.65 69.34896Q69.65 67.81771 69.9625 66.895836Q70.275 65.958336 70.88438 65.458336Q71.50938 64.958336 72.44688 64.958336Q73.13438 64.958336 73.65 65.239586Q74.18125 65.520836 74.525 66.052086Q74.86875 66.56771 75.05625 67.31771Q75.24375 68.06771 75.24375 69.34896Q75.24375 70.864586 74.93125 71.78646Q74.63438 72.708336 74.00938 73.22396Q73.4 73.72396 72.44688 73.72396Q71.2125 73.72396 70.49375 72.833336Q69.65 71.770836 69.65 69.34896ZM70.72813 69.34896Q70.72813 71.458336 71.22813 72.16146Q71.72813 72.864586 72.44688 72.864586Q73.18125 72.864586 73.66563 72.16146Q74.16563 71.458336 74.16563 69.34896Q74.16563 67.22396 73.66563 66.53646Q73.18125 65.833336 72.43125 65.833336Q71.7125 65.833336 71.275 66.44271Q70.72813 67.22396 70.72813 69.34896ZM76.65 69.34896Q76.65 67.81771 76.9625 66.895836Q77.275 65.958336 77.88438 65.458336Q78.50938 64.958336 79.44688 64.958336Q80.13438 64.958336 80.65 65.239586Q81.18125 65.520836 81.525 66.052086Q81.86875 66.56771 82.05625 67.31771Q82.24375 68.06771 82.24375 69.34896Q82.24375 70.864586 81.93125 71.78646Q81.63438 72.708336 81.00938 73.22396Q80.4 73.72396 79.44688 73.72396Q78.2125 73.72396 77.49375 72.833336Q76.65 71.770836 76.65 69.34896ZM77.72813 69.34896Q77.72813 71.458336 78.22813 72.16146Q78.72813 72.864586 79.44688 72.864586Q80.18125 72.864586 80.66563 72.16146Q81.16563 71.458336 81.16563 69.34896Q81.16563 67.22396 80.66563 66.53646Q80.18125 65.833336 79.43125 65.833336Q78.7125 65.833336 78.275 66.44271Q77.72813 67.22396 77.72813 69.34896ZM83.65 69.34896Q83.65 67.81771 83.9625 66.895836Q84.275 65.958336 84.88438 65.458336Q85.50938 64.958336 86.44688 64.958336Q87.13438 64.958336 87.65 65.239586Q88.18125 65.520836 88.525 66.052086Q88.86875 66.56771 89.05625 67.31771Q89.24375 68.06771 89.24375 69.34896Q89.24375 70.864586 88.93125 71.78646Q88.63438 72.708336 88.00938 73.22396Q87.4 73.72396 86.44688 73.72396Q85.2125 73.72396 84.49375 72.833336Q83.65 71.770836 83.65 69.34896ZM84.72813 69.34896Q84.72813 71.458336 85.22813 72.16146Q85.72813 72.864586 86.44688 72.864586Q87.18125 72.864586 87.66563 72.16146Q88.16563 71.458336 88.16563 69.34896Q88.16563 67.22396 87.66563 66.53646Q87.18125 65.833336 86.43125 65.833336Q85.7125 65.833336 85.275 66.44271Q84.72813 67.22396 84.72813 69.34896Z" fill-rule="nonzero"/><path fill="#000000" d="M205.63184 403.83438L205.63184 404.85L199.94434 404.85Q199.94434 404.475 200.06934 404.11563Q200.28809 403.5375 200.75684 402.975Q201.24121 402.4125 202.14746 401.67813Q203.55371 400.52188 204.03809 399.85Q204.53809 399.17813 204.53809 398.58438Q204.53809 397.95938 204.08496 397.5375Q203.63184 397.1 202.91309 397.1Q202.14746 397.1 201.69434 397.55313Q201.24121 398.00626 201.22559 398.81876L200.14746 398.70938Q200.25684 397.49063 200.97559 396.86563Q201.70996 396.225 202.94434 396.225Q204.17871 396.225 204.89746 396.9125Q205.61621 397.6 205.61621 398.61563Q205.61621 399.13126 205.39746 399.63126Q205.19434 400.11563 204.69434 400.67813Q204.20996 401.225 203.08496 402.17813Q202.13184 402.975 201.85059 403.27188Q201.58496 403.55313 201.41309 403.83438L205.63184 403.83438ZM207.08496 400.61563Q207.08496 399.08438 207.39746 398.1625Q207.70996 397.225 208.31934 396.725Q208.94434 396.225 209.88184 396.225Q210.56934 396.225 211.08496 396.50626Q211.61621 396.7875 211.95996 397.31876Q212.30371 397.83438 212.49121 398.58438Q212.67871 399.33438 212.67871 400.61563Q212.67871 402.13126 212.36621 403.05313Q212.06934 403.975 211.44434 404.49063Q210.83496 404.99063 209.88184 404.99063Q208.64746 404.99063 207.92871 404.1Q207.08496 403.0375 207.08496 400.61563ZM208.16309 400.61563Q208.16309 402.725 208.66309 403.42813Q209.16309 404.13126 209.88184 404.13126Q210.61621 404.13126 211.10059 403.42813Q211.60059 402.725 211.60059 400.61563Q211.60059 398.49063 211.10059 397.80313Q210.61621 397.1 209.86621 397.1Q209.14746 397.1 208.70996 397.70938Q208.16309 398.49063 208.16309 400.61563ZM214.08496 400.61563Q214.08496 399.08438 214.39746 398.1625Q214.70996 397.225 215.31934 396.725Q215.94434 396.225 216.88184 396.225Q217.56934 396.225 218.08496 396.50626Q218.61621 396.7875 218.95996 397.31876Q219.30371 397.83438 219.49121 398.58438Q219.67871 399.33438 219.67871 400.61563Q219.67871 402.13126 219.36621 403.05313Q219.06934 403.975 218.44434 404.49063Q217.83496 404.99063 216.88184 404.99063Q215.64746 404.99063 214.92871 404.1Q214.08496 403.0375 214.08496 400.61563ZM215.16309 400.61563Q215.16309 402.725 215.66309 403.42813Q216.16309 404.13126 216.88184 404.13126Q217.61621 404.13126 218.10059 403.42813Q218.60059 402.725 218.60059 400.61563Q218.60059 398.49063 218.10059 397.80313Q217.61621 397.1 216.86621 397.1Q216.14746 397.1 215.70996 397.70938Q215.16309 398.49063 215.16309 400.61563ZM221.67871 404.85L221.67871 403.64688L222.88184 403.64688L222.88184 404.85L221.67871 404.85ZM224.08496 400.61563Q224.08496 399.08438 224.39746 398.1625Q224.70996 397.225 225.31934 396.725Q225.94434 396.225 226.88184 396.225Q227.56934 396.225 228.08496 396.50626Q228.61621 396.7875 228.95996 397.31876Q229.30371 397.83438 229.49121 398.58438Q229.67871 399.33438 229.67871 400.61563Q229.67871 402.13126 229.36621 403.05313Q229.06934 403.975 228.44434 404.49063Q227.83496 404.99063 226.88184 404.99063Q225.64746 404.99063 224.92871 404.1Q224.08496 403.0375 224.08496 400.61563ZM225.16309 400.61563Q225.16309 402.725 225.66309 403.42813Q226.16309 404.13126 226.88184 404.13126Q227.61621 404.13126 228.10059 403.42813Q228.60059 402.725 228.60059 400.61563Q228.60059 398.49063 228.10059 397.80313Q227.61621 397.1 226.86621 397.1Q226.14746 397.1 225.70996 397.70938Q225.16309 398.49063 225.16309 400.61563ZM231.08496 400.61563Q231.08496 399.08438 231.39746 398.1625Q231.70996 397.225 232.31934 396.725Q232.94434 396.225 233.88184 396.225Q234.56934 396.225 235.08496 396.50626Q235.61621 396.7875 235.95996 397.31876Q236.30371 397.83438 236.49121 398.58438Q236.67871 399.33438 236.67871 400.61563Q236.67871 402.13126 236.36621 403.05313Q236.06934 403.975 235.44434 404.49063Q234.83496 404.99063 233.88184 404.99063Q232.64746 404.99063 231.92871 404.1Q231.08496 403.0375 231.08496 400.61563ZM232.16309 400.61563Q232.16309 402.725 232.66309 403.42813Q233.16309 404.13126 233.88184 404.13126Q234.61621 404.13126 235.10059 403.42813Q235.60059 402.725 235.60059 400.61563Q235.60059 398.49063 235.10059 397.80313Q234.61621 397.1 233.86621 397.1Q233.14746 397.1 232.70996 397.70938Q232.16309 398.49063 232.16309 400.61563ZM238.08496 400.61563Q238.08496 399.08438 238.39746 398.1625Q238.70996 397.225 239.31934 396.725Q239.94434 396.225 240.88184 396.225Q241.56934 396.225 242.08496 396.50626Q242.61621 396.7875 242.95996 397.31876Q243.30371 397.83438 243.49121 398.58438Q243.67871 399.33438 243.67871 400.61563Q243.67871 402.13126 243.36621 403.05313Q243.06934 403.975 242.44434 404.49063Q241.83496 404.99063 240.88184 404.99063Q239.64746 404.99063 238.92871 404.1Q238.08496 403.0375 238.08496 400.61563ZM239.16309 400.61563Q239.16309 402.725 239.66309 403.42813Q240.16309 404.13126 240.88184 404.13126Q241.61621 404.13126 242.10059 403.42813Q242.60059 402.725 242.60059 400.61563Q242.60059 398.49063 242.10059 397.80313Q241.61621 397.1 240.86621 397.1Q240.14746 397.1 239.70996 397.70938Q239.16309 398.49063 239.16309 400.61563Z" fill-rule="nonzero"/><path fill="#000000" d="M329.4012 404.85L329.4012 402.7875L325.68246 402.7875L325.68246 401.81876L329.60434 396.25626L330.4637 396.25626L330.4637 401.81876L331.61996 401.81876L331.61996 402.7875L330.4637 402.7875L330.4637 404.85L329.4012 404.85ZM329.4012 401.81876L329.4012 397.95938L326.7137 401.81876L329.4012 401.81876ZM333.0262 400.61563Q333.0262 399.08438 333.3387 398.1625Q333.6512 397.225 334.2606 396.725Q334.8856 396.225 335.8231 396.225Q336.5106 396.225 337.0262 396.50626Q337.55746 396.7875 337.9012 397.31876Q338.24496 397.83438 338.43246 398.58438Q338.61996 399.33438 338.61996 400.61563Q338.61996 402.13126 338.30746 403.05313Q338.0106 403.975 337.3856 404.49063Q336.7762 404.99063 335.8231 404.99063Q334.5887 404.99063 333.86996 404.1Q333.0262 403.0375 333.0262 400.61563ZM334.10434 400.61563Q334.10434 402.725 334.60434 403.42813Q335.10434 404.13126 335.8231 404.13126Q336.55746 404.13126 337.04184 403.42813Q337.54184 402.725 337.54184 400.61563Q337.54184 398.49063 337.04184 397.80313Q336.55746 397.1 335.80746 397.1Q335.0887 397.1 334.6512 397.70938Q334.10434 398.49063 334.10434 400.61563ZM340.0262 400.61563Q340.0262 399.08438 340.3387 398.1625Q340.6512 397.225 341.2606 396.725Q341.8856 396.225 342.8231 396.225Q343.5106 396.225 344.0262 396.50626Q344.55746 396.7875 344.9012 397.31876Q345.24496 397.83438 345.43246 398.58438Q345.61996 399.33438 345.61996 400.61563Q345.61996 402.13126 345.30746 403.05313Q345.0106 403.975 344.3856 404.49063Q343.7762 404.99063 342.8231 404.99063Q341.5887 404.99063 340.86996 404.1Q340.0262 403.0375 340.0262 400.61563ZM341.10434 400.61563Q341.10434 402.725 341.60434 403.42813Q342.10434 404.13126 342.8231 404.13126Q343.55746 404.13126 344.04184 403.42813Q344.54184 402.725 344.54184 400.61563Q344.54184 398.49063 344.04184 397.80313Q343.55746 397.1 342.80746 397.1Q342.0887 397.1 341.6512 397.70938Q341.10434 398.49063 341.10434 400.61563ZM347.61996 404.85L347.61996 403.64688L348.8231 403.64688L348.8231 404.85L347.61996 404.85ZM350.0262 400.61563Q350.0262 399.08438 350.3387 398.1625Q350.6512 397.225 351.2606 396.725Q351.8856 396.225 352.8231 396.225Q353.5106 396.225 354.0262 396.50626Q354.55746 396.7875 354.9012 397.31876Q355.24496 397.83438 355.43246 398.58438Q355.61996 399.33438 355.61996 400.61563Q355.61996 402.13126 355.30746 403.05313Q355.0106 403.975 354.3856 404.49063Q353.7762 404.99063 352.8231 404.99063Q351.5887 404.99063 350.86996 404.1Q350.0262 403.0375 350.0262 400.61563ZM351.10434 400.61563Q351.10434 402.725 351.60434 403.42813Q352.10434 404.13126 352.8231 404.13126Q353.55746 404.13126 354.04184 403.42813Q354.54184 402.725 354.54184 400.61563Q354.54184 398.49063 354.04184 397.80313Q353.55746 397.1 352.80746 397.1Q352.0887 397.1 351.6512 397.70938Q351.10434 398.49063 351.10434 400.61563ZM357.0262 400.61563Q357.0262 399.08438 357.3387 398.1625Q357.6512 397.225 358.2606 396.725Q358.8856 396.225 359.8231 396.225Q360.5106 396.225 361.0262 396.50626Q361.55746 396.7875 361.9012 397.31876Q362.24496 397.83438 362.43246 398.58438Q362.61996 399.33438 362.61996 400.61563Q362.61996 402.13126 362.30746 403.05313Q362.0106 403.975 361.3856 404.49063Q360.7762 404.99063 359.8231 404.99063Q358.5887 404.99063 357.86996 404.1Q357.0262 403.0375 357.0262 400.61563ZM358.10434 400.61563Q358.10434 402.725 358.60434 403.42813Q359.10434 404.13126 359.8231 404.13126Q360.55746 404.13126 361.04184 403.42813Q361.54184 402.725 361.54184 400.61563Q361.54184 398.49063 361.04184 397.80313Q360.55746 397.1 359.80746 397.1Q359.0887 397.1 358.6512 397.70938Q358.10434 398.49063 358.10434 400.61563ZM364.0262 400.61563Q364.0262 399.08438 364.3387 398.1625Q364.6512 397.225 365.2606 396.725Q365.8856 396.225 366.8231 396.225Q367.5106 396.225 368.0262 396.50626Q368.55746 396.7875 368.9012 397.31876Q369.24496 397.83438 369.43246 398.58438Q369.61996 399.33438 369.61996 400.61563Q369.61996 402.13126 369.30746 403.05313Q369.0106 403.975 368.3856 404.49063Q367.7762 404.99063 366.8231 404.99063Q365.5887 404.99063 364.86996 404.1Q364.0262 403.0375 364.0262 400.61563ZM365.10434 400.61563Q365.10434 402.725 365.60434 403.42813Q366.10434 404.13126 366.8231 404.13126Q367.55746 404.13126 368.04184 403.42813Q368.54184 402.725 368.54184 400.61563Q368.54184 398.49063 368.04184 397.80313Q367.55746 397.1 366.80746 397.1Q366.0887 397.1 365.6512 397.70938Q365.10434 398.49063 365.10434 400.61563Z" fill-rule="nonzero"/><path fill="#000000" d="M457.43622 398.36563L456.38934 398.44376Q456.24872 397.81876 455.99872 397.5375Q455.56122 397.08438 454.93622 397.08438Q454.43622 397.08438 454.0456 397.36563Q453.56122 397.74063 453.26434 398.44376Q452.9831 399.13126 452.96747 400.4125Q453.34247 399.83438 453.88934 399.55313Q454.45184 399.27188 455.06122 399.27188Q456.1081 399.27188 456.84247 400.05313Q457.59247 400.83438 457.59247 402.05313Q457.59247 402.86563 457.2331 403.56876Q456.88934 404.25626 456.27997 404.63126Q455.6706 404.99063 454.90497 404.99063Q453.57684 404.99063 452.74872 404.02188Q451.9206 403.05313 451.9206 400.83438Q451.9206 398.33438 452.84247 397.20938Q453.63934 396.225 454.99872 396.225Q456.01434 396.225 456.65497 396.80313Q457.31122 397.36563 457.43622 398.36563ZM453.13934 402.06876Q453.13934 402.61563 453.3581 403.11563Q453.59247 403.6 453.99872 403.86563Q454.4206 404.13126 454.88934 404.13126Q455.5456 404.13126 456.02997 403.6Q456.51434 403.05313 456.51434 402.13126Q456.51434 401.24063 456.02997 400.725Q455.56122 400.20938 454.84247 400.20938Q454.12372 400.20938 453.62372 400.725Q453.13934 401.24063 453.13934 402.06876ZM458.96747 400.61563Q458.96747 399.08438 459.27997 398.1625Q459.59247 397.225 460.20184 396.725Q460.82684 396.225 461.76434 396.225Q462.45184 396.225 462.96747 396.50626Q463.49872 396.7875 463.84247 397.31876Q464.18622 397.83438 464.37372 398.58438Q464.56122 399.33438 464.56122 400.61563Q464.56122 402.13126 464.24872 403.05313Q463.95184 403.975 463.32684 404.49063Q462.71747 404.99063 461.76434 404.99063Q460.52997 404.99063 459.81122 404.1Q458.96747 403.0375 458.96747 400.61563ZM460.0456 400.61563Q460.0456 402.725 460.5456 403.42813Q461.0456 404.13126 461.76434 404.13126Q462.49872 404.13126 462.9831 403.42813Q463.4831 402.725 463.4831 400.61563Q463.4831 398.49063 462.9831 397.80313Q462.49872 397.1 461.74872 397.1Q461.02997 397.1 460.59247 397.70938Q460.0456 398.49063 460.0456 400.61563ZM465.96747 400.61563Q465.96747 399.08438 466.27997 398.1625Q466.59247 397.225 467.20184 396.725Q467.82684 396.225 468.76434 396.225Q469.45184 396.225 469.96747 396.50626Q470.49872 396.7875 470.84247 397.31876Q471.18622 397.83438 471.37372 398.58438Q471.56122 399.33438 471.56122 400.61563Q471.56122 402.13126 471.24872 403.05313Q470.95184 403.975 470.32684 404.49063Q469.71747 404.99063 468.76434 404.99063Q467.52997 404.99063 466.81122 404.1Q465.96747 403.0375 465.96747 400.61563ZM467.0456 400.61563Q467.0456 402.725 467.5456 403.42813Q468.0456 404.13126 468.76434 404.13126Q469.49872 404.13126 469.9831 403.42813Q470.4831 402.725 470.4831 400.61563Q470.4831 398.49063 469.9831 397.80313Q469.49872 397.1 468.74872 397.1Q468.02997 397.1 467.59247 397.70938Q467.0456 398.49063 467.0456 400.61563ZM473.56122 404.85L473.56122 403.64688L474.76434 403.64688L474.76434 404.85L473.56122 404.85ZM475.96747 400.61563Q475.96747 399.08438 476.27997 398.1625Q476.59247 397.225 477.20184 396.725Q477.82684 396.225 478.76434 396.225Q479.45184 396.225 479.96747 396.50626Q480.49872 396.7875 480.84247 397.31876Q481.18622 397.83438 481.37372 398.58438Q481.56122 399.33438 481.56122 400.61563Q481.56122 402.13126 481.24872 403.05313Q480.95184 403.975 480.32684 404.49063Q479.71747 404.99063 478.76434 404.99063Q477.52997 404.99063 476.81122 404.1Q475.96747 403.0375 475.96747 400.61563ZM477.0456 400.61563Q477.0456 402.725 477.5456 403.42813Q478.0456 404.13126 478.76434 404.13126Q479.49872 404.13126 479.9831 403.42813Q480.4831 402.725 480.4831 400.61563Q480.4831 398.49063 479.9831 397.80313Q479.49872 397.1 478.74872 397.1Q478.02997 397.1 477.59247 397.70938Q477.0456 398.49063 477.0456 400.61563ZM482.96747 400.61563Q482.96747 399.08438 483.27997 398.1625Q483.59247 397.225 484.20184 396.725Q484.82684 396.225 485.76434 396.225Q486.45184 396.225 486.96747 396.50626Q487.49872 396.7875 487.84247 397.31876Q488.18622 397.83438 488.37372 398.58438Q488.56122 399.33438 488.56122 400.61563Q488.56122 402.13126 488.24872 403.05313Q487.95184 403.975 487.32684 404.49063Q486.71747 404.99063 485.76434 404.99063Q484.52997 404.99063 483.81122 404.1Q482.96747 403.0375 482.96747 400.61563ZM484.0456 400.61563Q484.0456 402.725 484.5456 403.42813Q485.0456 404.13126 485.76434 404.13126Q486.49872 404.13126 486.9831 403.42813Q487.4831 402.725 487.4831 400.61563Q487.4831 398.49063 486.9831 397.80313Q486.49872 397.1 485.74872 397.1Q485.02997 397.1 484.59247 397.70938Q484.0456 398.49063 484.0456 400.61563ZM489.96747 400.61563Q489.96747 399.08438 490.27997 398.1625Q490.59247 397.225 491.20184 396.725Q491.82684 396.225 492.76434 396.225Q493.45184 396.225 493.96747 396.50626Q494.49872 396.7875 494.84247 397.31876Q495.18622 397.83438 495.37372 398.58438Q495.56122 399.33438 495.56122 400.61563Q495.56122 402.13126 495.24872 403.05313Q494.95184 403.975 494.32684 404.49063Q493.71747 404.99063 492.76434 404.99063Q491.52997 404.99063 490.81122 404.1Q489.96747 403.0375 489.96747 400.61563ZM491.0456 400.61563Q491.0456 402.725 491.5456 403.42813Q492.0456 404.13126 492.76434 404.13126Q493.49872 404.13126 493.9831 403.42813Q494.4831 402.725 494.4831 400.61563Q494.4831 398.49063 493.9831 397.80313Q493.49872 397.1 492.74872 397.1Q492.02997 397.1 491.59247 397.70938Q491.0456 398.49063 491.0456 400.61563Z" fill-rule="nonzero"/><path fill="#000000" d="M579.53375 400.19376Q578.8775 399.94376 578.5494 399.50626Q578.2369 399.05313 578.2369 398.44376Q578.2369 397.50626 578.90875 396.86563Q579.59625 396.225 580.7056 396.225Q581.8306 396.225 582.5181 396.88126Q583.2056 397.5375 583.2056 398.475Q583.2056 399.06876 582.8931 399.50626Q582.5806 399.94376 581.94 400.19376Q582.7369 400.44376 583.1431 401.02188Q583.5494 401.6 583.5494 402.39688Q583.5494 403.49063 582.7681 404.24063Q582.0025 404.99063 580.72125 404.99063Q579.4556 404.99063 578.6744 404.24063Q577.8931 403.49063 577.8931 402.36563Q577.8931 401.52188 578.315 400.95938Q578.7525 400.39688 579.53375 400.19376ZM579.315 398.39688Q579.315 399.00626 579.7056 399.39688Q580.1119 399.7875 580.7369 399.7875Q581.34625 399.7875 581.7369 399.4125Q582.1275 399.02188 582.1275 398.45938Q582.1275 397.88126 581.72125 397.49063Q581.315 397.08438 580.72125 397.08438Q580.1119 397.08438 579.7056 397.475Q579.315 397.86563 579.315 398.39688ZM578.9869 402.36563Q578.9869 402.81876 579.19 403.24063Q579.40875 403.6625 579.8306 403.89688Q580.2525 404.13126 580.7369 404.13126Q581.4869 404.13126 581.97125 403.64688Q582.47125 403.1625 582.47125 402.4125Q582.47125 401.64688 581.97125 401.14688Q581.47125 400.64688 580.7056 400.64688Q579.9556 400.64688 579.47125 401.14688Q578.9869 401.63126 578.9869 402.36563ZM584.90875 400.61563Q584.90875 399.08438 585.22125 398.1625Q585.53375 397.225 586.1431 396.725Q586.7681 396.225 587.7056 396.225Q588.3931 396.225 588.90875 396.50626Q589.44 396.7875 589.78375 397.31876Q590.1275 397.83438 590.315 398.58438Q590.5025 399.33438 590.5025 400.61563Q590.5025 402.13126 590.19 403.05313Q589.8931 403.975 589.2681 404.49063Q588.65875 404.99063 587.7056 404.99063Q586.47125 404.99063 585.7525 404.1Q584.90875 403.0375 584.90875 400.61563ZM585.9869 400.61563Q585.9869 402.725 586.4869 403.42813Q586.9869 404.13126 587.7056 404.13126Q588.44 404.13126 588.9244 403.42813Q589.4244 402.725 589.4244 400.61563Q589.4244 398.49063 588.9244 397.80313Q588.44 397.1 587.69 397.1Q586.97125 397.1 586.53375 397.70938Q585.9869 398.49063 585.9869 400.61563ZM591.90875 400.61563Q591.90875 399.08438 592.22125 398.1625Q592.53375 397.225 593.1431 396.725Q593.7681 396.225 594.7056 396.225Q595.3931 396.225 595.90875 396.50626Q596.44 396.7875 596.78375 397.31876Q597.1275 397.83438 597.315 398.58438Q597.5025 399.33438 597.5025 400.61563Q597.5025 402.13126 597.19 403.05313Q596.8931 403.975 596.2681 404.49063Q595.65875 404.99063 594.7056 404.99063Q593.47125 404.99063 592.7525 404.1Q591.90875 403.0375 591.90875 400.61563ZM592.9869 400.61563Q592.9869 402.725 593.4869 403.42813Q593.9869 404.13126 594.7056 404.13126Q595.44 404.13126 595.9244 403.42813Q596.4244 402.725 596.4244 400.61563Q596.4244 398.49063 595.9244 397.80313Q595.44 397.1 594.69 397.1Q593.97125 397.1 593.53375 397.70938Q592.9869 398.49063 592.9869 400.61563ZM599.5025 404.85L599.5025 403.64688L600.7056 403.64688L600.7056 404.85L599.5025 404.85ZM601.90875 400.61563Q601.90875 399.08438 602.22125 398.1625Q602.53375 397.225 603.1431 396.725Q603.7681 396.225 604.7056 396.225Q605.3931 396.225 605.90875 396.50626Q606.44 396.7875 606.78375 397.31876Q607.1275 397.83438 607.315 398.58438Q607.5025 399.33438 607.5025 400.61563Q607.5025 402.13126 607.19 403.05313Q606.8931 403.975 606.2681 404.49063Q605.65875 404.99063 604.7056 404.99063Q603.47125 404.99063 602.7525 404.1Q601.90875 403.0375 601.90875 400.61563ZM602.9869 400.61563Q602.9869 402.725 603.4869 403.42813Q603.9869 404.13126 604.7056 404.13126Q605.44 404.13126 605.9244 403.42813Q606.4244 402.725 606.4244 400.61563Q606.4244 398.49063 605.9244 397.80313Q605.44 397.1 604.69 397.1Q603.97125 397.1 603.53375 397.70938Q602.9869 398.49063 602.9869 400.61563ZM608.90875 400.61563Q608.90875 399.08438 609.22125 398.1625Q609.53375 397.225 610.1431 396.725Q610.7681 396.225 611.7056 396.225Q612.3931 396.225 612.90875 396.50626Q613.44 396.7875 613.78375 397.31876Q614.1275 397.83438 614.315 398.58438Q614.5025 399.33438 614.5025 400.61563Q614.5025 402.13126 614.19 403.05313Q613.8931 403.975 613.2681 404.49063Q612.65875 404.99063 611.7056 404.99063Q610.47125 404.99063 609.7525 404.1Q608.90875 403.0375 608.90875 400.61563ZM609.9869 400.61563Q609.9869 402.725 610.4869 403.42813Q610.9869 404.13126 611.7056 404.13126Q612.44 404.13126 612.9244 403.42813Q613.4244 402.725 613.4244 400.61563Q613.4244 398.49063 612.9244 397.80313Q612.44 397.1 611.69 397.1Q610.97125 397.1 610.53375 397.70938Q609.9869 398.49063 609.9869 400.61563ZM615.90875 400.61563Q615.90875 399.08438 616.22125 398.1625Q616.53375 397.225 617.1431 396.725Q617.7681 396.225 618.7056 396.225Q619.3931 396.225 619.90875 396.50626Q620.44 396.7875 620.78375 397.31876Q621.1275 397.83438 621.315 398.58438Q621.5025 399.33438 621.5025 400.61563Q621.5025 402.13126 621.19 403.05313Q620.8931 403.975 620.2681 404.49063Q619.65875 404.99063 618.7056 404.99063Q617.47125 404.99063 616.7525 404.1Q615.90875 403.0375 615.90875 400.61563ZM616.9869 400.61563Q616.9869 402.725 617.4869 403.42813Q617.9869 404.13126 618.7056 404.13126Q619.44 404.13126 619.9244 403.42813Q620.4244 402.725 620.4244 400.61563Q620.4244 398.49063 619.9244 397.80313Q619.44 397.1 618.69 397.1Q617.97125 397.1 617.53375 397.70938Q616.9869 398.49063 616.9869 400.61563Z" fill-rule="nonzero"/><path fill="#757575" d="M31.24375 38.353127L32.9625 38.571877Q32.68125 40.36875 31.509375 41.384377Q30.353125 42.384377 28.65 42.384377Q26.525 42.384377 25.228125 40.99375Q23.93125 39.603127 23.93125 37.009377Q23.93125 35.321877 24.478125 34.071877Q25.040625 32.80625 26.18125 32.18125Q27.321875 31.540627 28.665625 31.540627Q30.353125 31.540627 31.415625 32.4Q32.49375 33.259377 32.80625 34.821877L31.0875 35.0875Q30.853125 34.040627 30.228125 33.525Q29.603125 32.99375 28.728125 32.99375Q27.4 32.99375 26.571875 33.946877Q25.74375 34.9 25.74375 36.946877Q25.74375 39.040627 26.540625 39.99375Q27.3375 40.93125 28.634375 40.93125Q29.665625 40.93125 30.353125 40.30625Q31.05625 39.665627 31.24375 38.353127ZM33.821877 36.9625Q33.821877 34.0875 35.415627 32.696877Q36.759377 31.540627 38.68125 31.540627Q40.821877 31.540627 42.165627 32.946877Q43.525 34.353127 43.525 36.821877Q43.525 38.821877 42.93125 39.978127Q42.3375 41.11875 41.18125 41.759377Q40.040627 42.384377 38.68125 42.384377Q36.49375 42.384377 35.15 40.99375Q33.821877 39.5875 33.821877 36.9625ZM35.61875 36.9625Q35.61875 38.9625 36.478127 39.946877Q37.353127 40.93125 38.68125 40.93125Q39.99375 40.93125 40.853127 39.946877Q41.728127 38.946877 41.728127 36.9Q41.728127 34.978127 40.853127 33.99375Q39.978127 32.99375 38.68125 32.99375Q37.353127 32.99375 36.478127 33.99375Q35.61875 34.978127 35.61875 36.9625ZM52.259377 42.15L52.259377 40.61875Q51.05625 42.384377 48.978127 42.384377Q48.05625 42.384377 47.259377 42.040627Q46.4625 41.68125 46.071877 41.15Q45.696877 40.61875 45.540627 39.8375Q45.43125 39.321877 45.43125 38.196877L45.43125 31.775002L47.18125 31.775002L47.18125 37.525Q47.18125 38.9 47.290627 39.384377Q47.4625 40.071877 47.99375 40.478127Q48.540627 40.86875 49.321877 40.86875Q50.11875 40.86875 50.80625 40.4625Q51.509377 40.05625 51.790627 39.36875Q52.0875 38.665627 52.0875 37.3375L52.0875 31.775002L53.8375 31.775002L53.8375 42.15L52.259377 42.15ZM56.4625 42.15L56.4625 31.775002L58.05625 31.775002L58.05625 33.259377Q59.196877 31.540627 61.353127 31.540627Q62.290627 31.540627 63.071877 31.884377Q63.86875 32.2125 64.25938 32.759377Q64.65 33.30625 64.80625 34.05625Q64.9 34.55625 64.9 35.775L64.9 42.15L63.134377 42.15L63.134377 35.8375Q63.134377 34.759377 62.93125 34.228127Q62.728127 33.696877 62.196877 33.384377Q61.68125 33.071877 60.978127 33.071877Q59.853127 33.071877 59.040627 33.790627Q58.228127 34.49375 58.228127 36.478127L58.228127 42.15L56.4625 42.15ZM71.30625 40.571877L71.55625 42.134377Q70.82188 42.290627 70.22813 42.290627Q69.275 42.290627 68.74375 41.99375Q68.22813 41.68125 68.00938 41.196877Q67.79063 40.696877 67.79063 39.11875L67.79063 33.15L66.50938 33.15L66.50938 31.775002L67.79063 31.775002L67.79063 29.212502L69.54063 28.150002L69.54063 31.775002L71.30625 31.775002L71.30625 33.15L69.54063 33.15L69.54063 39.2125Q69.54063 39.9625 69.63438 40.18125Q69.72813 40.384377 69.93125 40.525Q70.15 40.65 70.54063 40.65Q70.82188 40.65 71.30625 40.571877ZM73.47813 29.853127L73.47813 27.837502L75.24375 27.837502L75.24375 29.853127L73.47813 29.853127ZM73.47813 42.15L73.47813 31.775002L75.24375 31.775002L75.24375 42.15L73.47813 42.15ZM77.4625 42.15L77.4625 31.775002L79.05625 31.775002L79.05625 33.259377Q80.19688 31.540627 82.35313 31.540627Q83.29063 31.540627 84.07188 31.884377Q84.86875 32.2125 85.25938 32.759377Q85.65 33.30625 85.80625 34.05625Q85.9 34.55625 85.9 35.775L85.9 42.15L84.13438 42.15L84.13438 35.8375Q84.13438 34.759377 83.93125 34.228127Q83.72813 33.696877 83.19688 33.384377Q82.68125 33.071877 81.97813 33.071877Q80.85313 33.071877 80.04063 33.790627Q79.22813 34.49375 79.22813 36.478127L79.22813 42.15L77.4625 42.15ZM88.15 43.009377L89.85313 43.259377Q89.9625 44.05625 90.44688 44.415627Q91.10313 44.9 92.24375 44.9Q93.4625 44.9 94.11875 44.415627Q94.79063 43.93125 95.025 43.05625Q95.16563 42.509377 95.15 40.790627Q93.99375 42.15 92.275 42.15Q90.13438 42.15 88.9625 40.603127Q87.79063 39.05625 87.79063 36.9Q87.79063 35.415627 88.32188 34.165627Q88.86875 32.915627 89.88438 32.228127Q90.91563 31.540627 92.29063 31.540627Q94.11875 31.540627 95.32188 33.025L95.32188 31.775002L96.93125 31.775002L96.93125 40.74375Q96.93125 43.165627 96.43125 44.165627Q95.94688 45.18125 94.86875 45.759377Q93.80625 46.353127 92.24375 46.353127Q90.4 46.353127 89.24375 45.525Q88.10313 44.696877 88.15 43.009377ZM89.60313 36.775Q89.60313 38.821877 90.41563 39.759377Q91.22813 40.696877 92.44688 40.696877Q93.65 40.696877 94.4625 39.759377Q95.29063 38.821877 95.29063 36.8375Q95.29063 34.93125 94.44688 33.9625Q93.60313 32.99375 92.41563 32.99375Q91.24375 32.99375 90.41563 33.946877Q89.60313 34.9 89.60313 36.775ZM97.85313 46.11875L97.85313 44.853127L109.49375 44.853127L109.49375 46.11875L97.85313 46.11875ZM109.75938 39.05625L111.50938 38.775Q111.65 39.821877 112.32188 40.384377Q112.99375 40.93125 114.19688 40.93125Q115.4 40.93125 115.97813 40.446877Q116.57188 39.946877 116.57188 39.290627Q116.57188 38.696877 116.05625 38.353127Q115.69688 38.11875 114.25938 37.759377Q112.32188 37.259377 111.57188 36.915627Q110.8375 36.55625 110.44688 35.93125Q110.05625 35.290627 110.05625 34.525Q110.05625 33.8375 110.36875 33.24375Q110.69688 32.65 111.24375 32.259377Q111.65 31.962502 112.35313 31.759377Q113.07188 31.540627 113.88438 31.540627Q115.10313 31.540627 116.025 31.900002Q116.94688 32.24375 117.38438 32.853127Q117.82188 33.446877 117.99375 34.446877L116.275 34.68125Q116.15 33.884377 115.5875 33.446877Q115.025 32.99375 114.00938 32.99375Q112.79063 32.99375 112.275 33.4Q111.75938 33.790627 111.75938 34.321877Q111.75938 34.665627 111.97813 34.946877Q112.18125 35.228127 112.65 35.415627Q112.91563 35.509377 114.19688 35.853127Q116.07188 36.353127 116.80625 36.68125Q117.54063 36.99375 117.9625 37.603127Q118.38438 38.196877 118.38438 39.103127Q118.38438 39.978127 117.86875 40.759377Q117.35313 41.540627 116.38438 41.9625Q115.41563 42.384377 114.19688 42.384377Q112.18125 42.384377 111.11875 41.540627Q110.05625 40.696877 109.75938 39.05625ZM119.82188 36.9625Q119.82188 34.0875 121.41563 32.696877Q122.75938 31.540627 124.68125 31.540627Q126.82188 31.540627 128.16562 32.946877Q129.525 34.353127 129.525 36.821877Q129.525 38.821877 128.93124 39.978127Q128.3375 41.11875 127.18125 41.759377Q126.04063 42.384377 124.68125 42.384377Q122.49375 42.384377 121.15 40.99375Q119.82188 39.5875 119.82188 36.9625ZM121.61875 36.9625Q121.61875 38.9625 122.47813 39.946877Q123.35313 40.93125 124.68125 40.93125Q125.99375 40.93125 126.85313 39.946877Q127.72813 38.946877 127.72813 36.9Q127.72813 34.978127 126.85313 33.99375Q125.97813 32.99375 124.68125 32.99375Q123.35313 32.99375 122.47813 33.99375Q121.61875 34.978127 121.61875 36.9625ZM131.44687 42.15L131.44687 31.775002L133.025 31.775002L133.025 33.353127Q133.63437 32.24375 134.15 31.900002Q134.66562 31.540627 135.275 31.540627Q136.16562 31.540627 137.0875 32.103127L136.47812 33.74375Q135.8375 33.353127 135.19687 33.353127Q134.61874 33.353127 134.15 33.7125Q133.69687 34.05625 133.49374 34.665627Q133.2125 35.603127 133.2125 36.7125L133.2125 42.15L131.44687 42.15ZM142.30624 40.571877L142.55624 42.134377Q141.82187 42.290627 141.22812 42.290627Q140.275 42.290627 139.74374 41.99375Q139.22812 41.68125 139.00937 41.196877Q138.79062 40.696877 138.79062 39.11875L138.79062 33.15L137.50937 33.15L137.50937 31.775002L138.79062 31.775002L138.79062 29.212502L140.54062 28.150002L140.54062 31.775002L142.30624 31.775002L142.30624 33.15L140.54062 33.15L140.54062 39.2125Q140.54062 39.9625 140.63437 40.18125Q140.72812 40.384377 140.93124 40.525Q141.15 40.65 141.54062 40.65Q141.82187 40.65 142.30624 40.571877Z" fill-rule="nonzero"/></svg>