<svg version="1.1" viewBox="0.0 0.0 819.0 506.0" fill="none" stroke="none" stroke-linecap="square" stroke-miterlimit="10" width="819" height="506" xmlns:xlink="http://www.w3.org/1999/xlink" xmlns="http://www.w3.org/2000/svg"><path fill="#ffffff" d="M0 0L819.0 0L819.0 506.0L0 506.0L0 0Z" fill-rule="nonzero"/><path stroke="#cccccc" stroke-width="1.0" stroke-linecap="butt" d="M259.5 73.5L259.5 428.5" fill-rule="nonzero"/><path stroke="#cccccc" stroke-width="1.0" stroke-linecap="butt" d="M393.5 73.5L393.5 428.5" fill-rule="nonzero"/><path stroke="#cccccc" stroke-width="1.0" stroke-linecap="butt" d="M526.5 73.5L526.5 428.5" fill-rule="nonzero"/><path stroke="#cccccc" stroke-width="1.0" stroke-linecap="butt" d="M660.5 73.5L660.5 428.5" fill-rule="nonzero"/><path stroke="#cccccc" stroke-width="1.0" stroke-linecap="butt" d="M793.5 73.5L793.5 428.5" fill-rule="nonzero"/><path stroke="#333333" stroke-width="1.0" stroke-linecap="butt" d="M126.5 428.5L793.5 428.5" fill-rule="nonzero"/><path stroke="#cccccc" stroke-width="1.0" stroke-linecap="butt" d="M126.5 357.5L793.5 357.5" fill-rule="nonzero"/><path stroke="#cccccc" stroke-width="1.0" stroke-linecap="butt" d="M126.5 286.5L793.5 286.5" fill-rule="nonzero"/><path stroke="#cccccc" stroke-width="1.0" stroke-linecap="butt" d="M126.5 215.5L793.5 215.5" fill-rule="nonzero"/><path stroke="#cccccc" stroke-width="1.0" stroke-linecap="butt" d="M126.5 144.5L793.5 144.5" fill-rule="nonzero"/><path stroke="#cccccc" stroke-width="1.0" stroke-linecap="butt" d="M126.5 73.5L793.5 73.5" fill-rule="nonzero"/><clipPath id="id_0"><path d="M126.3 73.166664L793.7 73.166664L793.7 428.7L126.3 428.7L126.3 73.166664Z" clip-rule="nonzero"/></clipPath><path stroke="#4285f4" stroke-width="2.0" stroke-linecap="butt" clip-path="url(#id_0)" d="M126.3 428.7C126.3 428.7 126.31335 428.7 126.32002 428.7C126.3267 428.7 126.34227 428.69998 126.35339 428.69998C126.36452 428.69998 126.37564 428.69998 126.386765 428.69998C126.39789 428.69998 126.40901 428.69998 126.420135 428.69998C126.43126 428.69998 126.55362 428.69995 126.62036 428.69992C126.6871 428.6999 126.84283 428.69977 126.95406 428.69968C127.0653 428.69955 127.17654 428.69946 127.28777 428.69928C127.39901 428.6991 127.51025 428.69888 127.621475 428.6986C127.73271 428.6983 128.9563 428.6956 129.62372 428.6921C130.29114 428.68863 131.84843 428.67856 132.96078 428.66803C134.07314 428.65747 135.1855 428.64478 136.29785 428.62885C137.4102 428.6129 138.52257 428.6 139.63492 428.57245C140.74727 428.5449 152.98318 428.2661 159.65732 427.91867C166.33145 427.5712 181.90443 426.58054 193.02798 425.53378C204.15154 424.48703 215.2751 423.21884 226.39865 421.63812C237.52222 420.05737 248.64577 418.82205 259.76932 416.0494C270.89288 413.27673 393.25198 384.81595 459.99332 349.76602C526.7347 314.7161 793.7 109.73908 793.7 109.73908" fill-rule="nonzero"/><path fill="#000000" fill-opacity="0.0" clip-path="url(#id_0)" d="M129.3 428.7C129.3 430.35684 127.956856 431.7 126.3 431.7C124.64314 431.7 123.3 430.35684 123.3 428.7C123.3 427.04315 124.64314 425.7 126.3 425.7C127.956856 425.7 129.3 427.04315 129.3 428.7Z" fill-rule="nonzero"/><path fill="#000000" fill-opacity="0.0" clip-path="url(#id_0)" d="M129.32002 428.7C129.32002 430.35684 127.976875 431.7 126.32002 431.7C124.66317 431.7 123.32002 430.35684 123.32002 428.7C123.32002 427.04315 124.66317 425.7 126.32002 425.7C127.976875 425.7 129.32002 427.04315 129.32002 428.7Z" fill-rule="nonzero"/><path fill="#000000" fill-opacity="0.0" clip-path="url(#id_0)" d="M129.3534 428.69998C129.3534 430.35684 128.01025 431.69998 126.35339 431.69998C124.69654 431.69998 123.35339 430.35684 123.35339 428.69998C123.35339 427.04315 124.69654 425.69998 126.35339 425.69998C128.01025 425.69998 129.3534 427.04315 129.3534 428.69998Z" fill-rule="nonzero"/><path fill="#000000" fill-opacity="0.0" clip-path="url(#id_0)" d="M129.38676 428.69998C129.38676 430.35684 128.04362 431.69998 126.386765 431.69998C124.72991 431.69998 123.386765 430.35684 123.386765 428.69998C123.386765 427.04315 124.72991 425.69998 126.386765 425.69998C128.04362 425.69998 129.38676 427.04315 129.38676 428.69998Z" fill-rule="nonzero"/><path fill="#000000" fill-opacity="0.0" clip-path="url(#id_0)" d="M129.42014 428.69998C129.42014 430.35684 128.077 431.69998 126.420135 431.69998C124.76328 431.69998 123.420135 430.35684 123.420135 428.69998C123.420135 427.04312 124.76328 425.69998 126.420135 425.69998C128.077 425.69998 129.42014 427.04312 129.42014 428.69998Z" fill-rule="nonzero"/><path fill="#000000" fill-opacity="0.0" clip-path="url(#id_0)" d="M129.62036 428.69992C129.62036 430.35678 128.2772 431.69992 126.62036 431.69992C124.9635 431.69992 123.62036 430.35678 123.62036 428.69992C123.62036 427.04306 124.9635 425.69992 126.62036 425.69992C128.2772 425.69992 129.62036 427.04306 129.62036 428.69992Z" fill-rule="nonzero"/><path fill="#000000" fill-opacity="0.0" clip-path="url(#id_0)" d="M129.95407 428.69968C129.95407 430.3565 128.61092 431.69968 126.95406 431.69968C125.29721 431.69968 123.95406 430.3565 123.95406 428.69968C123.95406 427.04282 125.29721 425.69968 126.95406 425.69968C128.61092 425.69968 129.95407 427.04282 129.95407 428.69968Z" fill-rule="nonzero"/><path fill="#000000" fill-opacity="0.0" clip-path="url(#id_0)" d="M130.28777 428.69928C130.28777 430.35614 128.94463 431.69928 127.28777 431.69928C125.63092 431.69928 124.28777 430.35614 124.28777 428.69928C124.28777 427.04242 125.63092 425.69928 127.28777 425.69928C128.94463 425.69928 130.28777 427.04242 130.28777 428.69928Z" fill-rule="nonzero"/><path fill="#000000" fill-opacity="0.0" clip-path="url(#id_0)" d="M130.62148 428.6986C130.62148 430.35547 129.27834 431.6986 127.621475 431.6986C125.96462 431.6986 124.621475 430.35547 124.621475 428.6986C124.621475 427.04175 125.96462 425.6986 127.621475 425.6986C129.27834 425.6986 130.62148 427.04175 130.62148 428.6986Z" fill-rule="nonzero"/><path fill="#000000" fill-opacity="0.0" clip-path="url(#id_0)" d="M132.62372 428.6921C132.62372 430.34897 131.28058 431.6921 129.62372 431.6921C127.966866 431.6921 126.62372 430.34897 126.62372 428.6921C126.62372 427.03525 127.966866 425.6921 129.62372 425.6921C131.28058 425.6921 132.62372 427.03525 132.62372 428.6921Z" fill-rule="nonzero"/><path fill="#000000" fill-opacity="0.0" clip-path="url(#id_0)" d="M135.96078 428.66803C135.96078 430.32486 134.61765 431.66803 132.96078 431.66803C131.30392 431.66803 129.96078 430.32486 129.96078 428.66803C129.96078 427.01117 131.30392 425.66803 132.96078 425.66803C134.61765 425.66803 135.96078 427.01117 135.96078 428.66803Z" fill-rule="nonzero"/><path fill="#000000" fill-opacity="0.0" clip-path="url(#id_0)" d="M139.29785 428.62885C139.29785 430.2857 137.95471 431.62885 136.29785 431.62885C134.64099 431.62885 133.29785 430.2857 133.29785 428.62885C133.29785 426.972 134.64099 425.62885 136.29785 425.62885C137.95471 425.62885 139.29785 426.972 139.29785 428.62885Z" fill-rule="nonzero"/><path fill="#000000" fill-opacity="0.0" clip-path="url(#id_0)" d="M142.63492 428.57245C142.63492 430.2293 141.29178 431.57245 139.63492 431.57245C137.97806 431.57245 136.63492 430.2293 136.63492 428.57245C136.63492 426.9156 137.97806 425.57245 139.63492 425.57245C141.29178 425.57245 142.63492 426.9156 142.63492 428.57245Z" fill-rule="nonzero"/><path fill="#000000" fill-opacity="0.0" clip-path="url(#id_0)" d="M162.65732 427.91867C162.65732 429.57553 161.31418 430.91867 159.65732 430.91867C158.00046 430.91867 156.65732 429.57553 156.65732 427.91867C156.65732 426.2618 158.00046 424.91867 159.65732 424.91867C161.31418 424.91867 162.65732 426.2618 162.65732 427.91867Z" fill-rule="nonzero"/><path fill="#000000" fill-opacity="0.0" clip-path="url(#id_0)" d="M196.02798 425.53378C196.02798 427.19064 194.68484 428.53378 193.02798 428.53378C191.37114 428.53378 190.02798 427.19064 190.02798 425.53378C190.02798 423.87692 191.37114 422.53378 193.02798 422.53378C194.68484 422.53378 196.02798 423.87692 196.02798 425.53378Z" fill-rule="nonzero"/><path fill="#000000" fill-opacity="0.0" clip-path="url(#id_0)" d="M229.39865 421.63812C229.39865 423.29498 228.05551 424.63812 226.39865 424.63812C224.7418 424.63812 223.39865 423.29498 223.39865 421.63812C223.39865 419.98126 224.7418 418.63812 226.39865 418.63812C228.05551 418.63812 229.39865 419.98126 229.39865 421.63812Z" fill-rule="nonzero"/><path fill="#000000" fill-opacity="0.0" clip-path="url(#id_0)" d="M262.76932 416.0494C262.76932 417.70627 261.42618 419.0494 259.76932 419.0494C258.11246 419.0494 256.76932 417.70627 256.76932 416.0494C256.76932 414.39255 258.11246 413.0494 259.76932 413.0494C261.42618 413.0494 262.76932 414.39255 262.76932 416.0494Z" fill-rule="nonzero"/><path fill="#000000" fill-opacity="0.0" clip-path="url(#id_0)" d="M462.99332 349.76602C462.99332 351.42288 461.65018 352.76602 459.99332 352.76602C458.3365 352.76602 456.99332 351.42288 456.99332 349.76602C456.99332 348.10916 458.3365 346.76602 459.99332 346.76602C461.65018 346.76602 462.99332 348.10916 462.99332 349.76602Z" fill-rule="nonzero"/><path fill="#000000" fill-opacity="0.0" clip-path="url(#id_0)" d="M796.7 109.73908C796.7 111.395935 795.3569 112.73908 793.7 112.73908C792.04315 112.73908 790.7 111.395935 790.7 109.73908C790.7 108.08222 792.04315 106.73908 793.7 106.73908C795.3569 106.73908 796.7 108.08222 796.7 109.73908Z" fill-rule="nonzero"/><path fill="#000000" d="M457.29688 477.7L457.29688 471.48126L458.23438 471.48126L458.23438 472.35626Q458.92188 471.34064 460.21875 471.34064Q460.78125 471.34064 461.25 471.54376Q461.73438 471.7469 461.96875 472.075Q462.20312 472.40314 462.29688 472.84064Q462.34375 473.1375 462.34375 473.8719L462.34375 477.7L461.29688 477.7L461.29688 473.91876Q461.29688 473.2625 461.17188 472.95Q461.04688 472.6375 460.73438 472.45Q460.42188 472.2469 460.0 472.2469Q459.32812 472.2469 458.82812 472.6844Q458.34375 473.10626 458.34375 474.29376L458.34375 477.7L457.29688 477.7Z" fill-rule="nonzero"/><path fill="#000000" d="M36.30001 274.63644L30.081263 274.63644L30.081263 273.69894L30.956263 273.69894Q30.487513 273.40207 30.221888 272.9177Q29.940638 272.43332 29.940638 271.80832Q29.940638 271.12082 30.221888 270.68332Q30.503138 270.2302 31.018763 270.05832Q29.940638 269.30832 29.940638 268.13644Q29.940638 267.19894 30.456263 266.71457Q30.956263 266.21457 32.034386 266.21457L36.30001 266.21457L36.30001 267.26144L32.378136 267.26144Q31.753138 267.26144 31.471888 267.37082Q31.190638 267.46457 31.018763 267.7302Q30.846888 267.99582 30.846888 268.37082Q30.846888 269.02707 31.284388 269.46457Q31.721888 269.88644 32.690636 269.88644L36.30001 269.88644L36.30001 270.94894L32.253136 270.94894Q31.550013 270.94894 31.206263 271.21457Q30.846888 271.46457 30.846888 272.0427Q30.846888 272.49582 31.081263 272.87082Q31.315638 273.24582 31.768763 273.4177Q32.221886 273.58957 33.065636 273.58957L36.30001 273.58957L36.30001 274.63644ZM28.925013 264.63644L27.706263 264.63644L27.706263 263.57394L28.925013 263.57394L28.925013 264.63644ZM36.30001 264.63644L30.081263 264.63644L30.081263 263.57394L36.30001 263.57394L36.30001 264.63644ZM34.01876 257.57394L34.159386 256.5427Q35.221886 256.71457 35.83126 257.4177Q36.440636 258.12082 36.440636 259.13644Q36.440636 260.4177 35.61251 261.19894Q34.76876 261.96457 33.20626 261.96457Q32.20626 261.96457 31.456263 261.63644Q30.690638 261.2927 30.315638 260.62082Q29.940638 259.93332 29.940638 259.12082Q29.940638 258.12082 30.456263 257.4802Q30.956263 256.82394 31.909388 256.63644L32.065636 257.6677Q31.440638 257.80832 31.128138 258.18332Q30.800013 258.55832 30.800013 259.08957Q30.800013 259.88644 31.378138 260.38644Q31.940638 260.88644 33.17501 260.88644Q34.440636 260.88644 35.003136 260.40207Q35.565636 259.9177 35.565636 259.15207Q35.565636 258.52707 35.190636 258.12082Q34.815636 257.69894 34.01876 257.57394ZM36.30001 255.65208L30.081263 255.65208L30.081263 254.69896L31.018763 254.69896Q30.362513 254.33958 30.159388 254.04271Q29.940638 253.73021 29.940638 253.35521Q29.940638 252.82396 30.268763 252.27708L31.253138 252.63646Q31.018763 253.02708 31.018763 253.40208Q31.018763 253.76146 31.237513 254.04271Q31.440638 254.30833 31.815638 254.41771Q32.378136 254.60521 33.034386 254.60521L36.30001 254.60521L36.30001 255.65208ZM33.190636 252.02708Q31.456263 252.02708 30.628138 251.07396Q29.940638 250.27708 29.940638 249.12083Q29.940638 247.83958 30.784388 247.02708Q31.612513 246.19896 33.096886 246.19896Q34.30001 246.19896 34.98751 246.55833Q35.67501 246.91771 36.065636 247.62083Q36.440636 248.30833 36.440636 249.12083Q36.440636 250.41771 35.61251 251.23021Q34.76876 252.02708 33.190636 252.02708ZM33.190636 250.94896Q34.378136 250.94896 34.971886 250.43333Q35.565636 249.90208 35.565636 249.12083Q35.565636 248.32396 34.971886 247.80833Q34.378136 247.29271 33.159386 247.29271Q32.003136 247.29271 31.409388 247.82396Q30.815638 248.33958 30.815638 249.12083Q30.815638 249.90208 31.409388 250.43333Q31.987513 250.94896 33.190636 250.94896ZM34.440636 245.05833L34.284386 244.02708Q34.909386 243.93333 35.23751 243.54271Q35.565636 243.13646 35.565636 242.40208Q35.565636 241.68333 35.284386 241.33958Q34.98751 240.98021 34.58126 240.98021Q34.221886 240.98021 34.01876 241.29271Q33.878136 241.51146 33.659386 242.37083Q33.36251 243.52708 33.159386 243.98021Q32.940636 244.41771 32.565636 244.65208Q32.190636 244.88646 31.721888 244.88646Q31.315638 244.88646 30.956263 244.69896Q30.596888 244.51146 30.362513 244.18333Q30.190638 243.93333 30.065638 243.51146Q29.940638 243.08958 29.940638 242.58958Q29.940638 241.87083 30.159388 241.32396Q30.362513 240.76146 30.721888 240.49583Q31.081263 240.23021 31.675013 240.13646L31.815638 241.16771Q31.346888 241.23021 31.081263 241.57396Q30.800013 241.90208 30.800013 242.52708Q30.800013 243.24583 31.050013 243.55833Q31.284388 243.87083 31.612513 243.87083Q31.815638 243.87083 31.971888 243.74583Q32.14376 243.60521 32.253136 243.33958Q32.315636 243.18333 32.51876 242.40208Q32.83126 241.27708 33.01876 240.83958Q33.20626 240.40208 33.565636 240.15208Q33.92501 239.90208 34.471886 239.90208Q35.003136 239.90208 35.471886 240.21458Q35.92501 240.51146 36.190636 241.08958Q36.440636 241.66771 36.440636 242.40208Q36.440636 243.62083 35.940636 244.26146Q35.42501 244.88646 34.440636 245.05833Z" fill-rule="nonzero"/><path fill="#000000" d="M113.8 428.46564Q113.8 426.9344 114.1125 426.0125Q114.425 425.075 115.03438 424.575Q115.65938 424.075 116.59688 424.075Q117.28438 424.075 117.8 424.35626Q118.33125 424.6375 118.675 425.16876Q119.01875 425.6844 119.20625 426.4344Q119.39375 427.1844 119.39375 428.46564Q119.39375 429.98126 119.08125 430.90314Q118.78438 431.825 118.15938 432.34064Q117.55 432.84064 116.59688 432.84064Q115.3625 432.84064 114.64375 431.95Q113.8 430.8875 113.8 428.46564ZM114.87813 428.46564Q114.87813 430.575 115.37813 431.27814Q115.87813 431.98126 116.59688 431.98126Q117.33125 431.98126 117.81563 431.27814Q118.31563 430.575 118.31563 428.46564Q118.31563 426.34064 117.81563 425.65314Q117.33125 424.95 116.58125 424.95Q115.8625 424.95 115.425 425.5594Q114.87813 426.34064 114.87813 428.46564Z" fill-rule="nonzero"/><path fill="#000000" d="M61.76875 361.59332L60.721874 361.59332L60.721874 354.87457Q60.33125 355.23395 59.70625 355.60895Q59.096874 355.96832 58.6125 356.1402L58.6125 355.12457Q59.4875 354.7027 60.14375 354.12457Q60.815624 353.53082 61.096874 352.96832L61.76875 352.96832L61.76875 361.59332ZM64.8 357.35895Q64.8 355.8277 65.1125 354.90582Q65.425 353.96832 66.03438 353.46832Q66.65938 352.96832 67.59688 352.96832Q68.28438 352.96832 68.8 353.24957Q69.33125 353.53082 69.675 354.06207Q70.01875 354.5777 70.20625 355.3277Q70.39375 356.0777 70.39375 357.35895Q70.39375 358.87457 70.08125 359.79645Q69.78438 360.71832 69.15938 361.23395Q68.55 361.73395 67.59688 361.73395Q66.3625 361.73395 65.64375 360.84332Q64.8 359.78082 64.8 357.35895ZM65.87813 357.35895Q65.87813 359.46832 66.37813 360.17145Q66.87813 360.87457 67.59688 360.87457Q68.33125 360.87457 68.81563 360.17145Q69.31563 359.46832 69.31563 357.35895Q69.31563 355.23395 68.81563 354.54645Q68.33125 353.84332 67.58125 353.84332Q66.8625 353.84332 66.425 354.4527Q65.87813 355.23395 65.87813 357.35895ZM71.8 357.35895Q71.8 355.8277 72.1125 354.90582Q72.425 353.96832 73.03438 353.46832Q73.65938 352.96832 74.59688 352.96832Q75.28438 352.96832 75.8 353.24957Q76.33125 353.53082 76.675 354.06207Q77.01875 354.5777 77.20625 355.3277Q77.39375 356.0777 77.39375 357.35895Q77.39375 358.87457 77.08125 359.79645Q76.78438 360.71832 76.15938 361.23395Q75.55 361.73395 74.59688 361.73395Q73.3625 361.73395 72.64375 360.84332Q71.8 359.78082 71.8 357.35895ZM72.87813 357.35895Q72.87813 359.46832 73.37813 360.17145Q73.87813 360.87457 74.59688 360.87457Q75.33125 360.87457 75.81563 360.17145Q76.31563 359.46832 76.31563 357.35895Q76.31563 355.23395 75.81563 354.54645Q75.33125 353.84332 74.58125 353.84332Q73.8625 353.84332 73.425 354.4527Q72.87813 355.23395 72.87813 357.35895ZM78.8 357.35895Q78.8 355.8277 79.1125 354.90582Q79.425 353.96832 80.03438 353.46832Q80.65938 352.96832 81.59688 352.96832Q82.28438 352.96832 82.8 353.24957Q83.33125 353.53082 83.675 354.06207Q84.01875 354.5777 84.20625 355.3277Q84.39375 356.0777 84.39375 357.35895Q84.39375 358.87457 84.08125 359.79645Q83.78438 360.71832 83.15938 361.23395Q82.55 361.73395 81.59688 361.73395Q80.3625 361.73395 79.64375 360.84332Q78.8 359.78082 78.8 357.35895ZM79.87813 357.35895Q79.87813 359.46832 80.37813 360.17145Q80.87813 360.87457 81.59688 360.87457Q82.33125 360.87457 82.81563 360.17145Q83.31563 359.46832 83.31563 357.35895Q83.31563 355.23395 82.81563 354.54645Q82.33125 353.84332 81.58125 353.84332Q80.8625 353.84332 80.425 354.4527Q79.87813 355.23395 79.87813 357.35895ZM85.8 357.35895Q85.8 355.8277 86.1125 354.90582Q86.425 353.96832 87.03438 353.46832Q87.65938 352.96832 88.59688 352.96832Q89.28438 352.96832 89.8 353.24957Q90.33125 353.53082 90.675 354.06207Q91.01875 354.5777 91.20625 355.3277Q91.39375 356.0777 91.39375 357.35895Q91.39375 358.87457 91.08125 359.79645Q90.78438 360.71832 90.15938 361.23395Q89.55 361.73395 88.59688 361.73395Q87.3625 361.73395 86.64375 360.84332Q85.8 359.78082 85.8 357.35895ZM86.87813 357.35895Q86.87813 359.46832 87.37813 360.17145Q87.87813 360.87457 88.59688 360.87457Q89.33125 360.87457 89.81563 360.17145Q90.31563 359.46832 90.31563 357.35895Q90.31563 355.23395 89.81563 354.54645Q89.33125 353.84332 88.58125 353.84332Q87.8625 353.84332 87.425 354.4527Q86.87813 355.23395 86.87813 357.35895ZM92.8 357.35895Q92.8 355.8277 93.1125 354.90582Q93.425 353.96832 94.03438 353.46832Q94.65938 352.96832 95.59688 352.96832Q96.28438 352.96832 96.8 353.24957Q97.33125 353.53082 97.675 354.06207Q98.01875 354.5777 98.20625 355.3277Q98.39375 356.0777 98.39375 357.35895Q98.39375 358.87457 98.08125 359.79645Q97.78438 360.71832 97.15938 361.23395Q96.55 361.73395 95.59688 361.73395Q94.3625 361.73395 93.64375 360.84332Q92.8 359.78082 92.8 357.35895ZM93.87813 357.35895Q93.87813 359.46832 94.37813 360.17145Q94.87813 360.87457 95.59688 360.87457Q96.33125 360.87457 96.81563 360.17145Q97.31563 359.46832 97.31563 357.35895Q97.31563 355.23395 96.81563 354.54645Q96.33125 353.84332 95.58125 353.84332Q94.8625 353.84332 94.425 354.4527Q93.87813 355.23395 93.87813 357.35895ZM99.8 357.35895Q99.8 355.8277 100.1125 354.90582Q100.425 353.96832 101.03438 353.46832Q101.65938 352.96832 102.59688 352.96832Q103.28438 352.96832 103.8 353.24957Q104.33125 353.53082 104.675 354.06207Q105.01875 354.5777 105.20625 355.3277Q105.39375 356.0777 105.39375 357.35895Q105.39375 358.87457 105.08125 359.79645Q104.78438 360.71832 104.15938 361.23395Q103.55 361.73395 102.59688 361.73395Q101.3625 361.73395 100.64375 360.84332Q99.8 359.78082 99.8 357.35895ZM100.87813 357.35895Q100.87813 359.46832 101.37813 360.17145Q101.87813 360.87457 102.59688 360.87457Q103.33125 360.87457 103.81563 360.17145Q104.31563 359.46832 104.31563 357.35895Q104.31563 355.23395 103.81563 354.54645Q103.33125 353.84332 102.58125 353.84332Q101.8625 353.84332 101.425 354.4527Q100.87813 355.23395 100.87813 357.35895ZM106.8 357.35895Q106.8 355.8277 107.1125 354.90582Q107.425 353.96832 108.03438 353.46832Q108.65938 352.96832 109.59688 352.96832Q110.28438 352.96832 110.8 353.24957Q111.33125 353.53082 111.675 354.06207Q112.01875 354.5777 112.20625 355.3277Q112.39375 356.0777 112.39375 357.35895Q112.39375 358.87457 112.08125 359.79645Q111.78438 360.71832 111.15938 361.23395Q110.55 361.73395 109.59688 361.73395Q108.3625 361.73395 107.64375 360.84332Q106.8 359.78082 106.8 357.35895ZM107.87813 357.35895Q107.87813 359.46832 108.37813 360.17145Q108.87813 360.87457 109.59688 360.87457Q110.33125 360.87457 110.81563 360.17145Q111.31563 359.46832 111.31563 357.35895Q111.31563 355.23395 110.81563 354.54645Q110.33125 353.84332 109.58125 353.84332Q108.8625 353.84332 108.425 354.4527Q107.87813 355.23395 107.87813 357.35895ZM113.8 357.35895Q113.8 355.8277 114.1125 354.90582Q114.425 353.96832 115.03438 353.46832Q115.65938 352.96832 116.59688 352.96832Q117.28438 352.96832 117.8 353.24957Q118.33125 353.53082 118.675 354.06207Q119.01875 354.5777 119.20625 355.3277Q119.39375 356.0777 119.39375 357.35895Q119.39375 358.87457 119.08125 359.79645Q118.78438 360.71832 118.15938 361.23395Q117.55 361.73395 116.59688 361.73395Q115.3625 361.73395 114.64375 360.84332Q113.8 359.78082 113.8 357.35895ZM114.87813 357.35895Q114.87813 359.46832 115.37813 360.17145Q115.87813 360.87457 116.59688 360.87457Q117.33125 360.87457 117.81563 360.17145Q118.31563 359.46832 118.31563 357.35895Q118.31563 355.23395 117.81563 354.54645Q117.33125 353.84332 116.58125 353.84332Q115.8625 353.84332 115.425 354.4527Q114.87813 355.23395 114.87813 357.35895Z" fill-rule="nonzero"/><path fill="#000000" d="M63.346874 289.47104L63.346874 290.48666L57.659374 290.48666Q57.659374 290.11166 57.784374 289.7523Q58.003124 289.17416 58.471874 288.61166Q58.95625 288.04916 59.8625 287.3148Q61.26875 286.15854 61.753124 285.48666Q62.253124 284.8148 62.253124 284.22104Q62.253124 283.59604 61.8 283.17416Q61.346874 282.73666 60.628124 282.73666Q59.8625 282.73666 59.409374 283.1898Q58.95625 283.6429 58.940624 284.4554L57.8625 284.34604Q57.971874 283.1273 58.690624 282.5023Q59.425 281.86166 60.659374 281.86166Q61.89375 281.86166 62.6125 282.54916Q63.33125 283.23666 63.33125 284.2523Q63.33125 284.7679 63.1125 285.2679Q62.909374 285.7523 62.409374 286.3148Q61.925 286.86166 60.8 287.8148Q59.846874 288.61166 59.565624 288.90854Q59.3 289.1898 59.128124 289.47104L63.346874 289.47104ZM64.8 286.2523Q64.8 284.72104 65.1125 283.79916Q65.425 282.86166 66.03438 282.36166Q66.65938 281.86166 67.59688 281.86166Q68.28438 281.86166 68.8 282.1429Q69.33125 282.42416 69.675 282.9554Q70.01875 283.47104 70.20625 284.22104Q70.39375 284.97104 70.39375 286.2523Q70.39375 287.7679 70.08125 288.6898Q69.78438 289.61166 69.15938 290.1273Q68.55 290.6273 67.59688 290.6273Q66.3625 290.6273 65.64375 289.73666Q64.8 288.67416 64.8 286.2523ZM65.87813 286.2523Q65.87813 288.36166 66.37813 289.0648Q66.87813 289.7679 67.59688 289.7679Q68.33125 289.7679 68.81563 289.0648Q69.31563 288.36166 69.31563 286.2523Q69.31563 284.1273 68.81563 283.4398Q68.33125 282.73666 67.58125 282.73666Q66.8625 282.73666 66.425 283.34604Q65.87813 284.1273 65.87813 286.2523ZM71.8 286.2523Q71.8 284.72104 72.1125 283.79916Q72.425 282.86166 73.03438 282.36166Q73.65938 281.86166 74.59688 281.86166Q75.28438 281.86166 75.8 282.1429Q76.33125 282.42416 76.675 282.9554Q77.01875 283.47104 77.20625 284.22104Q77.39375 284.97104 77.39375 286.2523Q77.39375 287.7679 77.08125 288.6898Q76.78438 289.61166 76.15938 290.1273Q75.55 290.6273 74.59688 290.6273Q73.3625 290.6273 72.64375 289.73666Q71.8 288.67416 71.8 286.2523ZM72.87813 286.2523Q72.87813 288.36166 73.37813 289.0648Q73.87813 289.7679 74.59688 289.7679Q75.33125 289.7679 75.81563 289.0648Q76.31563 288.36166 76.31563 286.2523Q76.31563 284.1273 75.81563 283.4398Q75.33125 282.73666 74.58125 282.73666Q73.8625 282.73666 73.425 283.34604Q72.87813 284.1273 72.87813 286.2523ZM78.8 286.2523Q78.8 284.72104 79.1125 283.79916Q79.425 282.86166 80.03438 282.36166Q80.65938 281.86166 81.59688 281.86166Q82.28438 281.86166 82.8 282.1429Q83.33125 282.42416 83.675 282.9554Q84.01875 283.47104 84.20625 284.22104Q84.39375 284.97104 84.39375 286.2523Q84.39375 287.7679 84.08125 288.6898Q83.78438 289.61166 83.15938 290.1273Q82.55 290.6273 81.59688 290.6273Q80.3625 290.6273 79.64375 289.73666Q78.8 288.67416 78.8 286.2523ZM79.87813 286.2523Q79.87813 288.36166 80.37813 289.0648Q80.87813 289.7679 81.59688 289.7679Q82.33125 289.7679 82.81563 289.0648Q83.31563 288.36166 83.31563 286.2523Q83.31563 284.1273 82.81563 283.4398Q82.33125 282.73666 81.58125 282.73666Q80.8625 282.73666 80.425 283.34604Q79.87813 284.1273 79.87813 286.2523ZM85.8 286.2523Q85.8 284.72104 86.1125 283.79916Q86.425 282.86166 87.03438 282.36166Q87.65938 281.86166 88.59688 281.86166Q89.28438 281.86166 89.8 282.1429Q90.33125 282.42416 90.675 282.9554Q91.01875 283.47104 91.20625 284.22104Q91.39375 284.97104 91.39375 286.2523Q91.39375 287.7679 91.08125 288.6898Q90.78438 289.61166 90.15938 290.1273Q89.55 290.6273 88.59688 290.6273Q87.3625 290.6273 86.64375 289.73666Q85.8 288.67416 85.8 286.2523ZM86.87813 286.2523Q86.87813 288.36166 87.37813 289.0648Q87.87813 289.7679 88.59688 289.7679Q89.33125 289.7679 89.81563 289.0648Q90.31563 288.36166 90.31563 286.2523Q90.31563 284.1273 89.81563 283.4398Q89.33125 282.73666 88.58125 282.73666Q87.8625 282.73666 87.425 283.34604Q86.87813 284.1273 86.87813 286.2523ZM92.8 286.2523Q92.8 284.72104 93.1125 283.79916Q93.425 282.86166 94.03438 282.36166Q94.65938 281.86166 95.59688 281.86166Q96.28438 281.86166 96.8 282.1429Q97.33125 282.42416 97.675 282.9554Q98.01875 283.47104 98.20625 284.22104Q98.39375 284.97104 98.39375 286.2523Q98.39375 287.7679 98.08125 288.6898Q97.78438 289.61166 97.15938 290.1273Q96.55 290.6273 95.59688 290.6273Q94.3625 290.6273 93.64375 289.73666Q92.8 288.67416 92.8 286.2523ZM93.87813 286.2523Q93.87813 288.36166 94.37813 289.0648Q94.87813 289.7679 95.59688 289.7679Q96.33125 289.7679 96.81563 289.0648Q97.31563 288.36166 97.31563 286.2523Q97.31563 284.1273 96.81563 283.4398Q96.33125 282.73666 95.58125 282.73666Q94.8625 282.73666 94.425 283.34604Q93.87813 284.1273 93.87813 286.2523ZM99.8 286.2523Q99.8 284.72104 100.1125 283.79916Q100.425 282.86166 101.03438 282.36166Q101.65938 281.86166 102.59688 281.86166Q103.28438 281.86166 103.8 282.1429Q104.33125 282.42416 104.675 282.9554Q105.01875 283.47104 105.20625 284.22104Q105.39375 284.97104 105.39375 286.2523Q105.39375 287.7679 105.08125 288.6898Q104.78438 289.61166 104.15938 290.1273Q103.55 290.6273 102.59688 290.6273Q101.3625 290.6273 100.64375 289.73666Q99.8 288.67416 99.8 286.2523ZM100.87813 286.2523Q100.87813 288.36166 101.37813 289.0648Q101.87813 289.7679 102.59688 289.7679Q103.33125 289.7679 103.81563 289.0648Q104.31563 288.36166 104.31563 286.2523Q104.31563 284.1273 103.81563 283.4398Q103.33125 282.73666 102.58125 282.73666Q101.8625 282.73666 101.425 283.34604Q100.87813 284.1273 100.87813 286.2523ZM106.8 286.2523Q106.8 284.72104 107.1125 283.79916Q107.425 282.86166 108.03438 282.36166Q108.65938 281.86166 109.59688 281.86166Q110.28438 281.86166 110.8 282.1429Q111.33125 282.42416 111.675 282.9554Q112.01875 283.47104 112.20625 284.22104Q112.39375 284.97104 112.39375 286.2523Q112.39375 287.7679 112.08125 288.6898Q111.78438 289.61166 111.15938 290.1273Q110.55 290.6273 109.59688 290.6273Q108.3625 290.6273 107.64375 289.73666Q106.8 288.67416 106.8 286.2523ZM107.87813 286.2523Q107.87813 288.36166 108.37813 289.0648Q108.87813 289.7679 109.59688 289.7679Q110.33125 289.7679 110.81563 289.0648Q111.31563 288.36166 111.31563 286.2523Q111.31563 284.1273 110.81563 283.4398Q110.33125 282.73666 109.58125 282.73666Q108.8625 282.73666 108.425 283.34604Q107.87813 284.1273 107.87813 286.2523ZM113.8 286.2523Q113.8 284.72104 114.1125 283.79916Q114.425 282.86166 115.03438 282.36166Q115.65938 281.86166 116.59688 281.86166Q117.28438 281.86166 117.8 282.1429Q118.33125 282.42416 118.675 282.9554Q119.01875 283.47104 119.20625 284.22104Q119.39375 284.97104 119.39375 286.2523Q119.39375 287.7679 119.08125 288.6898Q118.78438 289.61166 118.15938 290.1273Q117.55 290.6273 116.59688 290.6273Q115.3625 290.6273 114.64375 289.73666Q113.8 288.67416 113.8 286.2523ZM114.87813 286.2523Q114.87813 288.36166 115.37813 289.0648Q115.87813 289.7679 116.59688 289.7679Q117.33125 289.7679 117.81563 289.0648Q118.31563 288.36166 118.31563 286.2523Q118.31563 284.1273 117.81563 283.4398Q117.33125 282.73666 116.58125 282.73666Q115.8625 282.73666 115.425 283.34604Q114.87813 284.1273 114.87813 286.2523Z" fill-rule="nonzero"/><path fill="#000000" d="M57.8 217.11438L58.8625 216.97375Q59.034374 217.86438 59.471874 218.27063Q59.909374 218.66125 60.534374 218.66125Q61.284374 218.66125 61.8 218.14563Q62.315624 217.63 62.315624 216.86438Q62.315624 216.14563 61.83125 215.67688Q61.3625 215.1925 60.628124 215.1925Q60.33125 215.1925 59.878124 215.3175L60.003124 214.38Q60.1125 214.39563 60.175 214.39563Q60.846874 214.39563 61.378124 214.05188Q61.925 213.6925 61.925 212.95813Q61.925 212.38 61.534374 212.005Q61.14375 211.61438 60.51875 211.61438Q59.909374 211.61438 59.4875 212.005Q59.08125 212.39563 58.971874 213.16125L57.909374 212.97375Q58.096874 211.92688 58.784374 211.34875Q59.471874 210.755 60.4875 210.755Q61.190624 210.755 61.784374 211.0675Q62.378124 211.36438 62.690624 211.88Q63.003124 212.39563 63.003124 212.98938Q63.003124 213.53625 62.70625 214.005Q62.409374 214.45813 61.83125 214.72375Q62.58125 214.89563 63.003124 215.45813Q63.425 216.005 63.425 216.84875Q63.425 217.97375 62.596874 218.755Q61.784374 219.53625 60.534374 219.53625Q59.409374 219.53625 58.659374 218.86438Q57.909374 218.17688 57.8 217.11438ZM64.8 215.14563Q64.8 213.61438 65.1125 212.6925Q65.425 211.755 66.03438 211.255Q66.65938 210.755 67.59688 210.755Q68.28438 210.755 68.8 211.03625Q69.33125 211.3175 69.675 211.84875Q70.01875 212.36438 70.20625 213.11438Q70.39375 213.86438 70.39375 215.14563Q70.39375 216.66125 70.08125 217.58313Q69.78438 218.505 69.15938 219.02063Q68.55 219.52063 67.59688 219.52063Q66.3625 219.52063 65.64375 218.63Q64.8 217.5675 64.8 215.14563ZM65.87813 215.14563Q65.87813 217.255 66.37813 217.95813Q66.87813 218.66125 67.59688 218.66125Q68.33125 218.66125 68.81563 217.95813Q69.31563 217.255 69.31563 215.14563Q69.31563 213.02063 68.81563 212.33313Q68.33125 211.63 67.58125 211.63Q66.8625 211.63 66.425 212.23938Q65.87813 213.02063 65.87813 215.14563ZM71.8 215.14563Q71.8 213.61438 72.1125 212.6925Q72.425 211.755 73.03438 211.255Q73.65938 210.755 74.59688 210.755Q75.28438 210.755 75.8 211.03625Q76.33125 211.3175 76.675 211.84875Q77.01875 212.36438 77.20625 213.11438Q77.39375 213.86438 77.39375 215.14563Q77.39375 216.66125 77.08125 217.58313Q76.78438 218.505 76.15938 219.02063Q75.55 219.52063 74.59688 219.52063Q73.3625 219.52063 72.64375 218.63Q71.8 217.5675 71.8 215.14563ZM72.87813 215.14563Q72.87813 217.255 73.37813 217.95813Q73.87813 218.66125 74.59688 218.66125Q75.33125 218.66125 75.81563 217.95813Q76.31563 217.255 76.31563 215.14563Q76.31563 213.02063 75.81563 212.33313Q75.33125 211.63 74.58125 211.63Q73.8625 211.63 73.425 212.23938Q72.87813 213.02063 72.87813 215.14563ZM78.8 215.14563Q78.8 213.61438 79.1125 212.6925Q79.425 211.755 80.03438 211.255Q80.65938 210.755 81.59688 210.755Q82.28438 210.755 82.8 211.03625Q83.33125 211.3175 83.675 211.84875Q84.01875 212.36438 84.20625 213.11438Q84.39375 213.86438 84.39375 215.14563Q84.39375 216.66125 84.08125 217.58313Q83.78438 218.505 83.15938 219.02063Q82.55 219.52063 81.59688 219.52063Q80.3625 219.52063 79.64375 218.63Q78.8 217.5675 78.8 215.14563ZM79.87813 215.14563Q79.87813 217.255 80.37813 217.95813Q80.87813 218.66125 81.59688 218.66125Q82.33125 218.66125 82.81563 217.95813Q83.31563 217.255 83.31563 215.14563Q83.31563 213.02063 82.81563 212.33313Q82.33125 211.63 81.58125 211.63Q80.8625 211.63 80.425 212.23938Q79.87813 213.02063 79.87813 215.14563ZM85.8 215.14563Q85.8 213.61438 86.1125 212.6925Q86.425 211.755 87.03438 211.255Q87.65938 210.755 88.59688 210.755Q89.28438 210.755 89.8 211.03625Q90.33125 211.3175 90.675 211.84875Q91.01875 212.36438 91.20625 213.11438Q91.39375 213.86438 91.39375 215.14563Q91.39375 216.66125 91.08125 217.58313Q90.78438 218.505 90.15938 219.02063Q89.55 219.52063 88.59688 219.52063Q87.3625 219.52063 86.64375 218.63Q85.8 217.5675 85.8 215.14563ZM86.87813 215.14563Q86.87813 217.255 87.37813 217.95813Q87.87813 218.66125 88.59688 218.66125Q89.33125 218.66125 89.81563 217.95813Q90.31563 217.255 90.31563 215.14563Q90.31563 213.02063 89.81563 212.33313Q89.33125 211.63 88.58125 211.63Q87.8625 211.63 87.425 212.23938Q86.87813 213.02063 86.87813 215.14563ZM92.8 215.14563Q92.8 213.61438 93.1125 212.6925Q93.425 211.755 94.03438 211.255Q94.65938 210.755 95.59688 210.755Q96.28438 210.755 96.8 211.03625Q97.33125 211.3175 97.675 211.84875Q98.01875 212.36438 98.20625 213.11438Q98.39375 213.86438 98.39375 215.14563Q98.39375 216.66125 98.08125 217.58313Q97.78438 218.505 97.15938 219.02063Q96.55 219.52063 95.59688 219.52063Q94.3625 219.52063 93.64375 218.63Q92.8 217.5675 92.8 215.14563ZM93.87813 215.14563Q93.87813 217.255 94.37813 217.95813Q94.87813 218.66125 95.59688 218.66125Q96.33125 218.66125 96.81563 217.95813Q97.31563 217.255 97.31563 215.14563Q97.31563 213.02063 96.81563 212.33313Q96.33125 211.63 95.58125 211.63Q94.8625 211.63 94.425 212.23938Q93.87813 213.02063 93.87813 215.14563ZM99.8 215.14563Q99.8 213.61438 100.1125 212.6925Q100.425 211.755 101.03438 211.255Q101.65938 210.755 102.59688 210.755Q103.28438 210.755 103.8 211.03625Q104.33125 211.3175 104.675 211.84875Q105.01875 212.36438 105.20625 213.11438Q105.39375 213.86438 105.39375 215.14563Q105.39375 216.66125 105.08125 217.58313Q104.78438 218.505 104.15938 219.02063Q103.55 219.52063 102.59688 219.52063Q101.3625 219.52063 100.64375 218.63Q99.8 217.5675 99.8 215.14563ZM100.87813 215.14563Q100.87813 217.255 101.37813 217.95813Q101.87813 218.66125 102.59688 218.66125Q103.33125 218.66125 103.81563 217.95813Q104.31563 217.255 104.31563 215.14563Q104.31563 213.02063 103.81563 212.33313Q103.33125 211.63 102.58125 211.63Q101.8625 211.63 101.425 212.23938Q100.87813 213.02063 100.87813 215.14563ZM106.8 215.14563Q106.8 213.61438 107.1125 212.6925Q107.425 211.755 108.03438 211.255Q108.65938 210.755 109.59688 210.755Q110.28438 210.755 110.8 211.03625Q111.33125 211.3175 111.675 211.84875Q112.01875 212.36438 112.20625 213.11438Q112.39375 213.86438 112.39375 215.14563Q112.39375 216.66125 112.08125 217.58313Q111.78438 218.505 111.15938 219.02063Q110.55 219.52063 109.59688 219.52063Q108.3625 219.52063 107.64375 218.63Q106.8 217.5675 106.8 215.14563ZM107.87813 215.14563Q107.87813 217.255 108.37813 217.95813Q108.87813 218.66125 109.59688 218.66125Q110.33125 218.66125 110.81563 217.95813Q111.31563 217.255 111.31563 215.14563Q111.31563 213.02063 110.81563 212.33313Q110.33125 211.63 109.58125 211.63Q108.8625 211.63 108.425 212.23938Q107.87813 213.02063 107.87813 215.14563ZM113.8 215.14563Q113.8 213.61438 114.1125 212.6925Q114.425 211.755 115.03438 211.255Q115.65938 210.755 116.59688 210.755Q117.28438 210.755 117.8 211.03625Q118.33125 211.3175 118.675 211.84875Q119.01875 212.36438 119.20625 213.11438Q119.39375 213.86438 119.39375 215.14563Q119.39375 216.66125 119.08125 217.58313Q118.78438 218.505 118.15938 219.02063Q117.55 219.52063 116.59688 219.52063Q115.3625 219.52063 114.64375 218.63Q113.8 217.5675 113.8 215.14563ZM114.87813 215.14563Q114.87813 217.255 115.37813 217.95813Q115.87813 218.66125 116.59688 218.66125Q117.33125 218.66125 117.81563 217.95813Q118.31563 217.255 118.31563 215.14563Q118.31563 213.02063 117.81563 212.33313Q117.33125 211.63 116.58125 211.63Q115.8625 211.63 115.425 212.23938Q114.87813 213.02063 114.87813 215.14563Z" fill-rule="nonzero"/><path fill="#000000" d="M61.175 148.27333L61.175 146.21083L57.45625 146.21083L57.45625 145.24208L61.378124 139.67958L62.2375 139.67958L62.2375 145.24208L63.39375 145.24208L63.39375 146.21083L62.2375 146.21083L62.2375 148.27333L61.175 148.27333ZM61.175 145.24208L61.175 141.3827L58.4875 145.24208L61.175 145.24208ZM64.8 144.03896Q64.8 142.5077 65.1125 141.58583Q65.425 140.64833 66.03438 140.14833Q66.65938 139.64833 67.59688 139.64833Q68.28438 139.64833 68.8 139.92958Q69.33125 140.21083 69.675 140.74208Q70.01875 141.2577 70.20625 142.0077Q70.39375 142.7577 70.39375 144.03896Q70.39375 145.55458 70.08125 146.47646Q69.78438 147.39833 69.15938 147.91396Q68.55 148.41396 67.59688 148.41396Q66.3625 148.41396 65.64375 147.52333Q64.8 146.46083 64.8 144.03896ZM65.87813 144.03896Q65.87813 146.14833 66.37813 146.85146Q66.87813 147.55458 67.59688 147.55458Q68.33125 147.55458 68.81563 146.85146Q69.31563 146.14833 69.31563 144.03896Q69.31563 141.91396 68.81563 141.22646Q68.33125 140.52333 67.58125 140.52333Q66.8625 140.52333 66.425 141.1327Q65.87813 141.91396 65.87813 144.03896ZM71.8 144.03896Q71.8 142.5077 72.1125 141.58583Q72.425 140.64833 73.03438 140.14833Q73.65938 139.64833 74.59688 139.64833Q75.28438 139.64833 75.8 139.92958Q76.33125 140.21083 76.675 140.74208Q77.01875 141.2577 77.20625 142.0077Q77.39375 142.7577 77.39375 144.03896Q77.39375 145.55458 77.08125 146.47646Q76.78438 147.39833 76.15938 147.91396Q75.55 148.41396 74.59688 148.41396Q73.3625 148.41396 72.64375 147.52333Q71.8 146.46083 71.8 144.03896ZM72.87813 144.03896Q72.87813 146.14833 73.37813 146.85146Q73.87813 147.55458 74.59688 147.55458Q75.33125 147.55458 75.81563 146.85146Q76.31563 146.14833 76.31563 144.03896Q76.31563 141.91396 75.81563 141.22646Q75.33125 140.52333 74.58125 140.52333Q73.8625 140.52333 73.425 141.1327Q72.87813 141.91396 72.87813 144.03896ZM78.8 144.03896Q78.8 142.5077 79.1125 141.58583Q79.425 140.64833 80.03438 140.14833Q80.65938 139.64833 81.59688 139.64833Q82.28438 139.64833 82.8 139.92958Q83.33125 140.21083 83.675 140.74208Q84.01875 141.2577 84.20625 142.0077Q84.39375 142.7577 84.39375 144.03896Q84.39375 145.55458 84.08125 146.47646Q83.78438 147.39833 83.15938 147.91396Q82.55 148.41396 81.59688 148.41396Q80.3625 148.41396 79.64375 147.52333Q78.8 146.46083 78.8 144.03896ZM79.87813 144.03896Q79.87813 146.14833 80.37813 146.85146Q80.87813 147.55458 81.59688 147.55458Q82.33125 147.55458 82.81563 146.85146Q83.31563 146.14833 83.31563 144.03896Q83.31563 141.91396 82.81563 141.22646Q82.33125 140.52333 81.58125 140.52333Q80.8625 140.52333 80.425 141.1327Q79.87813 141.91396 79.87813 144.03896ZM85.8 144.03896Q85.8 142.5077 86.1125 141.58583Q86.425 140.64833 87.03438 140.14833Q87.65938 139.64833 88.59688 139.64833Q89.28438 139.64833 89.8 139.92958Q90.33125 140.21083 90.675 140.74208Q91.01875 141.2577 91.20625 142.0077Q91.39375 142.7577 91.39375 144.03896Q91.39375 145.55458 91.08125 146.47646Q90.78438 147.39833 90.15938 147.91396Q89.55 148.41396 88.59688 148.41396Q87.3625 148.41396 86.64375 147.52333Q85.8 146.46083 85.8 144.03896ZM86.87813 144.03896Q86.87813 146.14833 87.37813 146.85146Q87.87813 147.55458 88.59688 147.55458Q89.33125 147.55458 89.81563 146.85146Q90.31563 146.14833 90.31563 144.03896Q90.31563 141.91396 89.81563 141.22646Q89.33125 140.52333 88.58125 140.52333Q87.8625 140.52333 87.425 141.1327Q86.87813 141.91396 86.87813 144.03896ZM92.8 144.03896Q92.8 142.5077 93.1125 141.58583Q93.425 140.64833 94.03438 140.14833Q94.65938 139.64833 95.59688 139.64833Q96.28438 139.64833 96.8 139.92958Q97.33125 140.21083 97.675 140.74208Q98.01875 141.2577 98.20625 142.0077Q98.39375 142.7577 98.39375 144.03896Q98.39375 145.55458 98.08125 146.47646Q97.78438 147.39833 97.15938 147.91396Q96.55 148.41396 95.59688 148.41396Q94.3625 148.41396 93.64375 147.52333Q92.8 146.46083 92.8 144.03896ZM93.87813 144.03896Q93.87813 146.14833 94.37813 146.85146Q94.87813 147.55458 95.59688 147.55458Q96.33125 147.55458 96.81563 146.85146Q97.31563 146.14833 97.31563 144.03896Q97.31563 141.91396 96.81563 141.22646Q96.33125 140.52333 95.58125 140.52333Q94.8625 140.52333 94.425 141.1327Q93.87813 141.91396 93.87813 144.03896ZM99.8 144.03896Q99.8 142.5077 100.1125 141.58583Q100.425 140.64833 101.03438 140.14833Q101.65938 139.64833 102.59688 139.64833Q103.28438 139.64833 103.8 139.92958Q104.33125 140.21083 104.675 140.74208Q105.01875 141.2577 105.20625 142.0077Q105.39375 142.7577 105.39375 144.03896Q105.39375 145.55458 105.08125 146.47646Q104.78438 147.39833 104.15938 147.91396Q103.55 148.41396 102.59688 148.41396Q101.3625 148.41396 100.64375 147.52333Q99.8 146.46083 99.8 144.03896ZM100.87813 144.03896Q100.87813 146.14833 101.37813 146.85146Q101.87813 147.55458 102.59688 147.55458Q103.33125 147.55458 103.81563 146.85146Q104.31563 146.14833 104.31563 144.03896Q104.31563 141.91396 103.81563 141.22646Q103.33125 140.52333 102.58125 140.52333Q101.8625 140.52333 101.425 141.1327Q100.87813 141.91396 100.87813 144.03896ZM106.8 144.03896Q106.8 142.5077 107.1125 141.58583Q107.425 140.64833 108.03438 140.14833Q108.65938 139.64833 109.59688 139.64833Q110.28438 139.64833 110.8 139.92958Q111.33125 140.21083 111.675 140.74208Q112.01875 141.2577 112.20625 142.0077Q112.39375 142.7577 112.39375 144.03896Q112.39375 145.55458 112.08125 146.47646Q111.78438 147.39833 111.15938 147.91396Q110.55 148.41396 109.59688 148.41396Q108.3625 148.41396 107.64375 147.52333Q106.8 146.46083 106.8 144.03896ZM107.87813 144.03896Q107.87813 146.14833 108.37813 146.85146Q108.87813 147.55458 109.59688 147.55458Q110.33125 147.55458 110.81563 146.85146Q111.31563 146.14833 111.31563 144.03896Q111.31563 141.91396 110.81563 141.22646Q110.33125 140.52333 109.58125 140.52333Q108.8625 140.52333 108.425 141.1327Q107.87813 141.91396 107.87813 144.03896ZM113.8 144.03896Q113.8 142.5077 114.1125 141.58583Q114.425 140.64833 115.03438 140.14833Q115.65938 139.64833 116.59688 139.64833Q117.28438 139.64833 117.8 139.92958Q118.33125 140.21083 118.675 140.74208Q119.01875 141.2577 119.20625 142.0077Q119.39375 142.7577 119.39375 144.03896Q119.39375 145.55458 119.08125 146.47646Q118.78438 147.39833 118.15938 147.91396Q117.55 148.41396 116.59688 148.41396Q115.3625 148.41396 114.64375 147.52333Q113.8 146.46083 113.8 144.03896ZM114.87813 144.03896Q114.87813 146.14833 115.37813 146.85146Q115.87813 147.55458 116.59688 147.55458Q117.33125 147.55458 117.81563 146.85146Q118.31563 146.14833 118.31563 144.03896Q118.31563 141.91396 117.81563 141.22646Q117.33125 140.52333 116.58125 140.52333Q115.8625 140.52333 115.425 141.1327Q114.87813 141.91396 114.87813 144.03896Z" fill-rule="nonzero"/><path fill="#000000" d="M57.8 74.916664L58.909374 74.822914Q59.034374 75.635414 59.471874 76.041664Q59.925 76.447914 60.565624 76.447914Q61.315624 76.447914 61.846874 75.86979Q62.378124 75.291664 62.378124 74.354164Q62.378124 73.447914 61.8625 72.93229Q61.3625 72.40104 60.534374 72.40104Q60.034374 72.40104 59.6125 72.635414Q59.20625 72.86979 58.971874 73.229164L57.9875 73.104164L58.815624 68.697914L63.096874 68.697914L63.096874 69.697914L59.659374 69.697914L59.20625 72.010414Q59.971874 71.46354 60.815624 71.46354Q61.940624 71.46354 62.70625 72.24479Q63.4875 73.02604 63.4875 74.260414Q63.4875 75.416664 62.815624 76.27604Q61.9875 77.30729 60.565624 77.30729Q59.39375 77.30729 58.64375 76.65104Q57.909374 75.99479 57.8 74.916664ZM64.8 72.93229Q64.8 71.40104 65.1125 70.479164Q65.425 69.541664 66.03438 69.041664Q66.65938 68.541664 67.59688 68.541664Q68.28438 68.541664 68.8 68.822914Q69.33125 69.104164 69.675 69.635414Q70.01875 70.15104 70.20625 70.90104Q70.39375 71.65104 70.39375 72.93229Q70.39375 74.447914 70.08125 75.36979Q69.78438 76.291664 69.15938 76.80729Q68.55 77.30729 67.59688 77.30729Q66.3625 77.30729 65.64375 76.416664Q64.8 75.354164 64.8 72.93229ZM65.87813 72.93229Q65.87813 75.041664 66.37813 75.74479Q66.87813 76.447914 67.59688 76.447914Q68.33125 76.447914 68.81563 75.74479Q69.31563 75.041664 69.31563 72.93229Q69.31563 70.80729 68.81563 70.11979Q68.33125 69.416664 67.58125 69.416664Q66.8625 69.416664 66.425 70.02604Q65.87813 70.80729 65.87813 72.93229ZM71.8 72.93229Q71.8 71.40104 72.1125 70.479164Q72.425 69.541664 73.03438 69.041664Q73.65938 68.541664 74.59688 68.541664Q75.28438 68.541664 75.8 68.822914Q76.33125 69.104164 76.675 69.635414Q77.01875 70.15104 77.20625 70.90104Q77.39375 71.65104 77.39375 72.93229Q77.39375 74.447914 77.08125 75.36979Q76.78438 76.291664 76.15938 76.80729Q75.55 77.30729 74.59688 77.30729Q73.3625 77.30729 72.64375 76.416664Q71.8 75.354164 71.8 72.93229ZM72.87813 72.93229Q72.87813 75.041664 73.37813 75.74479Q73.87813 76.447914 74.59688 76.447914Q75.33125 76.447914 75.81563 75.74479Q76.31563 75.041664 76.31563 72.93229Q76.31563 70.80729 75.81563 70.11979Q75.33125 69.416664 74.58125 69.416664Q73.8625 69.416664 73.425 70.02604Q72.87813 70.80729 72.87813 72.93229ZM78.8 72.93229Q78.8 71.40104 79.1125 70.479164Q79.425 69.541664 80.03438 69.041664Q80.65938 68.541664 81.59688 68.541664Q82.28438 68.541664 82.8 68.822914Q83.33125 69.104164 83.675 69.635414Q84.01875 70.15104 84.20625 70.90104Q84.39375 71.65104 84.39375 72.93229Q84.39375 74.447914 84.08125 75.36979Q83.78438 76.291664 83.15938 76.80729Q82.55 77.30729 81.59688 77.30729Q80.3625 77.30729 79.64375 76.416664Q78.8 75.354164 78.8 72.93229ZM79.87813 72.93229Q79.87813 75.041664 80.37813 75.74479Q80.87813 76.447914 81.59688 76.447914Q82.33125 76.447914 82.81563 75.74479Q83.31563 75.041664 83.31563 72.93229Q83.31563 70.80729 82.81563 70.11979Q82.33125 69.416664 81.58125 69.416664Q80.8625 69.416664 80.425 70.02604Q79.87813 70.80729 79.87813 72.93229ZM85.8 72.93229Q85.8 71.40104 86.1125 70.479164Q86.425 69.541664 87.03438 69.041664Q87.65938 68.541664 88.59688 68.541664Q89.28438 68.541664 89.8 68.822914Q90.33125 69.104164 90.675 69.635414Q91.01875 70.15104 91.20625 70.90104Q91.39375 71.65104 91.39375 72.93229Q91.39375 74.447914 91.08125 75.36979Q90.78438 76.291664 90.15938 76.80729Q89.55 77.30729 88.59688 77.30729Q87.3625 77.30729 86.64375 76.416664Q85.8 75.354164 85.8 72.93229ZM86.87813 72.93229Q86.87813 75.041664 87.37813 75.74479Q87.87813 76.447914 88.59688 76.447914Q89.33125 76.447914 89.81563 75.74479Q90.31563 75.041664 90.31563 72.93229Q90.31563 70.80729 89.81563 70.11979Q89.33125 69.416664 88.58125 69.416664Q87.8625 69.416664 87.425 70.02604Q86.87813 70.80729 86.87813 72.93229ZM92.8 72.93229Q92.8 71.40104 93.1125 70.479164Q93.425 69.541664 94.03438 69.041664Q94.65938 68.541664 95.59688 68.541664Q96.28438 68.541664 96.8 68.822914Q97.33125 69.104164 97.675 69.635414Q98.01875 70.15104 98.20625 70.90104Q98.39375 71.65104 98.39375 72.93229Q98.39375 74.447914 98.08125 75.36979Q97.78438 76.291664 97.15938 76.80729Q96.55 77.30729 95.59688 77.30729Q94.3625 77.30729 93.64375 76.416664Q92.8 75.354164 92.8 72.93229ZM93.87813 72.93229Q93.87813 75.041664 94.37813 75.74479Q94.87813 76.447914 95.59688 76.447914Q96.33125 76.447914 96.81563 75.74479Q97.31563 75.041664 97.31563 72.93229Q97.31563 70.80729 96.81563 70.11979Q96.33125 69.416664 95.58125 69.416664Q94.8625 69.416664 94.425 70.02604Q93.87813 70.80729 93.87813 72.93229ZM99.8 72.93229Q99.8 71.40104 100.1125 70.479164Q100.425 69.541664 101.03438 69.041664Q101.65938 68.541664 102.59688 68.541664Q103.28438 68.541664 103.8 68.822914Q104.33125 69.104164 104.675 69.635414Q105.01875 70.15104 105.20625 70.90104Q105.39375 71.65104 105.39375 72.93229Q105.39375 74.447914 105.08125 75.36979Q104.78438 76.291664 104.15938 76.80729Q103.55 77.30729 102.59688 77.30729Q101.3625 77.30729 100.64375 76.416664Q99.8 75.354164 99.8 72.93229ZM100.87813 72.93229Q100.87813 75.041664 101.37813 75.74479Q101.87813 76.447914 102.59688 76.447914Q103.33125 76.447914 103.81563 75.74479Q104.31563 75.041664 104.31563 72.93229Q104.31563 70.80729 103.81563 70.11979Q103.33125 69.416664 102.58125 69.416664Q101.8625 69.416664 101.425 70.02604Q100.87813 70.80729 100.87813 72.93229ZM106.8 72.93229Q106.8 71.40104 107.1125 70.479164Q107.425 69.541664 108.03438 69.041664Q108.65938 68.541664 109.59688 68.541664Q110.28438 68.541664 110.8 68.822914Q111.33125 69.104164 111.675 69.635414Q112.01875 70.15104 112.20625 70.90104Q112.39375 71.65104 112.39375 72.93229Q112.39375 74.447914 112.08125 75.36979Q111.78438 76.291664 111.15938 76.80729Q110.55 77.30729 109.59688 77.30729Q108.3625 77.30729 107.64375 76.416664Q106.8 75.354164 106.8 72.93229ZM107.87813 72.93229Q107.87813 75.041664 108.37813 75.74479Q108.87813 76.447914 109.59688 76.447914Q110.33125 76.447914 110.81563 75.74479Q111.31563 75.041664 111.31563 72.93229Q111.31563 70.80729 110.81563 70.11979Q110.33125 69.416664 109.58125 69.416664Q108.8625 69.416664 108.425 70.02604Q107.87813 70.80729 107.87813 72.93229ZM113.8 72.93229Q113.8 71.40104 114.1125 70.479164Q114.425 69.541664 115.03438 69.041664Q115.65938 68.541664 116.59688 68.541664Q117.28438 68.541664 117.8 68.822914Q118.33125 69.104164 118.675 69.635414Q119.01875 70.15104 119.20625 70.90104Q119.39375 71.65104 119.39375 72.93229Q119.39375 74.447914 119.08125 75.36979Q118.78438 76.291664 118.15938 76.80729Q117.55 77.30729 116.59688 77.30729Q115.3625 77.30729 114.64375 76.416664Q113.8 75.354164 113.8 72.93229ZM114.87813 72.93229Q114.87813 75.041664 115.37813 75.74479Q115.87813 76.447914 116.59688 76.447914Q117.33125 76.447914 117.81563 75.74479Q118.31563 75.041664 118.31563 72.93229Q118.31563 70.80729 117.81563 70.11979Q117.33125 69.416664 116.58125 69.416664Q115.8625 69.416664 115.425 70.02604Q114.87813 70.80729 114.87813 72.93229Z" fill-rule="nonzero"/><path fill="#000000" d="M241.73807 445.7L240.6912 445.7L240.6912 438.98126Q240.30057 439.34064 239.67557 439.71564Q239.0662 440.075 238.58182 440.2469L238.58182 439.23126Q239.45682 438.8094 240.11307 438.23126Q240.78494 437.6375 241.0662 437.075L241.73807 437.075L241.73807 445.7ZM244.76932 441.46564Q244.76932 439.9344 245.08182 439.0125Q245.39432 438.075 246.0037 437.575Q246.6287 437.075 247.5662 437.075Q248.2537 437.075 248.76932 437.35626Q249.30057 437.6375 249.64432 438.16876Q249.98807 438.6844 250.17557 439.4344Q250.36307 440.1844 250.36307 441.46564Q250.36307 442.98126 250.05057 443.90314Q249.7537 444.825 249.1287 445.34064Q248.51932 445.84064 247.5662 445.84064Q246.33182 445.84064 245.61307 444.95Q244.76932 443.8875 244.76932 441.46564ZM245.84744 441.46564Q245.84744 443.575 246.34744 444.27814Q246.84744 444.98126 247.5662 444.98126Q248.30057 444.98126 248.78494 444.27814Q249.28494 443.575 249.28494 441.46564Q249.28494 439.34064 248.78494 438.65314Q248.30057 437.95 247.55057 437.95Q246.83182 437.95 246.39432 438.5594Q245.84744 439.34064 245.84744 441.46564ZM251.76932 441.46564Q251.76932 439.9344 252.08182 439.0125Q252.39432 438.075 253.0037 437.575Q253.6287 437.075 254.5662 437.075Q255.2537 437.075 255.76932 437.35626Q256.30057 437.6375 256.64432 438.16876Q256.98807 438.6844 257.17557 439.4344Q257.36307 440.1844 257.36307 441.46564Q257.36307 442.98126 257.05057 443.90314Q256.7537 444.825 256.1287 445.34064Q255.51932 445.84064 254.5662 445.84064Q253.33182 445.84064 252.61307 444.95Q251.76932 443.8875 251.76932 441.46564ZM252.84744 441.46564Q252.84744 443.575 253.34744 444.27814Q253.84744 444.98126 254.5662 444.98126Q255.30057 444.98126 255.78494 444.27814Q256.28494 443.575 256.28494 441.46564Q256.28494 439.34064 255.78494 438.65314Q255.30057 437.95 254.55057 437.95Q253.83182 437.95 253.39432 438.5594Q252.84744 439.34064 252.84744 441.46564ZM259.36307 445.7L259.36307 444.4969L260.5662 444.4969L260.5662 445.7L259.36307 445.7ZM261.76932 441.46564Q261.76932 439.9344 262.08182 439.0125Q262.39432 438.075 263.0037 437.575Q263.6287 437.075 264.5662 437.075Q265.2537 437.075 265.76932 437.35626Q266.30057 437.6375 266.64432 438.16876Q266.98807 438.6844 267.17557 439.4344Q267.36307 440.1844 267.36307 441.46564Q267.36307 442.98126 267.05057 443.90314Q266.7537 444.825 266.1287 445.34064Q265.51932 445.84064 264.5662 445.84064Q263.33182 445.84064 262.61307 444.95Q261.76932 443.8875 261.76932 441.46564ZM262.84744 441.46564Q262.84744 443.575 263.34744 444.27814Q263.84744 444.98126 264.5662 444.98126Q265.30057 444.98126 265.78494 444.27814Q266.28494 443.575 266.28494 441.46564Q266.28494 439.34064 265.78494 438.65314Q265.30057 437.95 264.55057 437.95Q263.83182 437.95 263.39432 438.5594Q262.84744 439.34064 262.84744 441.46564ZM268.76932 441.46564Q268.76932 439.9344 269.08182 439.0125Q269.39432 438.075 270.0037 437.575Q270.6287 437.075 271.5662 437.075Q272.2537 437.075 272.76932 437.35626Q273.30057 437.6375 273.64432 438.16876Q273.98807 438.6844 274.17557 439.4344Q274.36307 440.1844 274.36307 441.46564Q274.36307 442.98126 274.05057 443.90314Q273.7537 444.825 273.1287 445.34064Q272.51932 445.84064 271.5662 445.84064Q270.33182 445.84064 269.61307 444.95Q268.76932 443.8875 268.76932 441.46564ZM269.84744 441.46564Q269.84744 443.575 270.34744 444.27814Q270.84744 444.98126 271.5662 444.98126Q272.30057 444.98126 272.78494 444.27814Q273.28494 443.575 273.28494 441.46564Q273.28494 439.34064 272.78494 438.65314Q272.30057 437.95 271.55057 437.95Q270.83182 437.95 270.39432 438.5594Q269.84744 439.34064 269.84744 441.46564ZM275.76932 441.46564Q275.76932 439.9344 276.08182 439.0125Q276.39432 438.075 277.0037 437.575Q277.6287 437.075 278.5662 437.075Q279.2537 437.075 279.76932 437.35626Q280.30057 437.6375 280.64432 438.16876Q280.98807 438.6844 281.17557 439.4344Q281.36307 440.1844 281.36307 441.46564Q281.36307 442.98126 281.05057 443.90314Q280.7537 444.825 280.1287 445.34064Q279.51932 445.84064 278.5662 445.84064Q277.33182 445.84064 276.61307 444.95Q275.76932 443.8875 275.76932 441.46564ZM276.84744 441.46564Q276.84744 443.575 277.34744 444.27814Q277.84744 444.98126 278.5662 444.98126Q279.30057 444.98126 279.78494 444.27814Q280.28494 443.575 280.28494 441.46564Q280.28494 439.34064 279.78494 438.65314Q279.30057 437.95 278.55057 437.95Q277.83182 437.95 277.39432 438.5594Q276.84744 439.34064 276.84744 441.46564Z" fill-rule="nonzero"/><path fill="#000000" d="M376.79886 444.6844L376.79886 445.7L371.11136 445.7Q371.11136 445.325 371.23636 444.96564Q371.4551 444.3875 371.92386 443.825Q372.40823 443.2625 373.31448 442.52814Q374.72073 441.3719 375.2051 440.7Q375.7051 440.02814 375.7051 439.4344Q375.7051 438.8094 375.25198 438.3875Q374.79886 437.95 374.0801 437.95Q373.31448 437.95 372.86136 438.40314Q372.40823 438.85626 372.3926 439.66876L371.31448 439.5594Q371.42386 438.34064 372.1426 437.71564Q372.87698 437.075 374.11136 437.075Q375.34573 437.075 376.06448 437.7625Q376.78323 438.45 376.78323 439.46564Q376.78323 439.98126 376.56448 440.48126Q376.36136 440.96564 375.86136 441.52814Q375.37698 442.075 374.25198 443.02814Q373.29886 443.825 373.0176 444.1219Q372.75198 444.40314 372.5801 444.6844L376.79886 444.6844ZM378.25198 441.46564Q378.25198 439.9344 378.56448 439.0125Q378.87698 438.075 379.48636 437.575Q380.11136 437.075 381.04886 437.075Q381.73636 437.075 382.25198 437.35626Q382.78323 437.6375 383.12698 438.16876Q383.47073 438.6844 383.65823 439.4344Q383.84573 440.1844 383.84573 441.46564Q383.84573 442.98126 383.53323 443.90314Q383.23636 444.825 382.61136 445.34064Q382.00198 445.84064 381.04886 445.84064Q379.81448 445.84064 379.09573 444.95Q378.25198 443.8875 378.25198 441.46564ZM379.3301 441.46564Q379.3301 443.575 379.8301 444.27814Q380.3301 444.98126 381.04886 444.98126Q381.78323 444.98126 382.2676 444.27814Q382.7676 443.575 382.7676 441.46564Q382.7676 439.34064 382.2676 438.65314Q381.78323 437.95 381.03323 437.95Q380.31448 437.95 379.87698 438.5594Q379.3301 439.34064 379.3301 441.46564ZM385.25198 441.46564Q385.25198 439.9344 385.56448 439.0125Q385.87698 438.075 386.48636 437.575Q387.11136 437.075 388.04886 437.075Q388.73636 437.075 389.25198 437.35626Q389.78323 437.6375 390.12698 438.16876Q390.47073 438.6844 390.65823 439.4344Q390.84573 440.1844 390.84573 441.46564Q390.84573 442.98126 390.53323 443.90314Q390.23636 444.825 389.61136 445.34064Q389.00198 445.84064 388.04886 445.84064Q386.81448 445.84064 386.09573 444.95Q385.25198 443.8875 385.25198 441.46564ZM386.3301 441.46564Q386.3301 443.575 386.8301 444.27814Q387.3301 444.98126 388.04886 444.98126Q388.78323 444.98126 389.2676 444.27814Q389.7676 443.575 389.7676 441.46564Q389.7676 439.34064 389.2676 438.65314Q388.78323 437.95 388.03323 437.95Q387.31448 437.95 386.87698 438.5594Q386.3301 439.34064 386.3301 441.46564ZM392.84573 445.7L392.84573 444.4969L394.04886 444.4969L394.04886 445.7L392.84573 445.7ZM395.25198 441.46564Q395.25198 439.9344 395.56448 439.0125Q395.87698 438.075 396.48636 437.575Q397.11136 437.075 398.04886 437.075Q398.73636 437.075 399.25198 437.35626Q399.78323 437.6375 400.12698 438.16876Q400.47073 438.6844 400.65823 439.4344Q400.84573 440.1844 400.84573 441.46564Q400.84573 442.98126 400.53323 443.90314Q400.23636 444.825 399.61136 445.34064Q399.00198 445.84064 398.04886 445.84064Q396.81448 445.84064 396.09573 444.95Q395.25198 443.8875 395.25198 441.46564ZM396.3301 441.46564Q396.3301 443.575 396.8301 444.27814Q397.3301 444.98126 398.04886 444.98126Q398.78323 444.98126 399.2676 444.27814Q399.7676 443.575 399.7676 441.46564Q399.7676 439.34064 399.2676 438.65314Q398.78323 437.95 398.03323 437.95Q397.31448 437.95 396.87698 438.5594Q396.3301 439.34064 396.3301 441.46564ZM402.25198 441.46564Q402.25198 439.9344 402.56448 439.0125Q402.87698 438.075 403.48636 437.575Q404.11136 437.075 405.04886 437.075Q405.73636 437.075 406.25198 437.35626Q406.78323 437.6375 407.12698 438.16876Q407.47073 438.6844 407.65823 439.4344Q407.84573 440.1844 407.84573 441.46564Q407.84573 442.98126 407.53323 443.90314Q407.23636 444.825 406.61136 445.34064Q406.00198 445.84064 405.04886 445.84064Q403.81448 445.84064 403.09573 444.95Q402.25198 443.8875 402.25198 441.46564ZM403.3301 441.46564Q403.3301 443.575 403.8301 444.27814Q404.3301 444.98126 405.04886 444.98126Q405.78323 444.98126 406.2676 444.27814Q406.7676 443.575 406.7676 441.46564Q406.7676 439.34064 406.2676 438.65314Q405.78323 437.95 405.03323 437.95Q404.31448 437.95 403.87698 438.5594Q403.3301 439.34064 403.3301 441.46564ZM409.25198 441.46564Q409.25198 439.9344 409.56448 439.0125Q409.87698 438.075 410.48636 437.575Q411.11136 437.075 412.04886 437.075Q412.73636 437.075 413.25198 437.35626Q413.78323 437.6375 414.12698 438.16876Q414.47073 438.6844 414.65823 439.4344Q414.84573 440.1844 414.84573 441.46564Q414.84573 442.98126 414.53323 443.90314Q414.23636 444.825 413.61136 445.34064Q413.00198 445.84064 412.04886 445.84064Q410.81448 445.84064 410.09573 444.95Q409.25198 443.8875 409.25198 441.46564ZM410.3301 441.46564Q410.3301 443.575 410.8301 444.27814Q411.3301 444.98126 412.04886 444.98126Q412.78323 444.98126 413.2676 444.27814Q413.7676 443.575 413.7676 441.46564Q413.7676 439.34064 413.2676 438.65314Q412.78323 437.95 412.03323 437.95Q411.31448 437.95 410.87698 438.5594Q410.3301 439.34064 410.3301 441.46564Z" fill-rule="nonzero"/><path fill="#000000" d="M504.73465 443.4344L505.79715 443.29376Q505.96902 444.1844 506.40652 444.59064Q506.84402 444.98126 507.46902 444.98126Q508.21902 444.98126 508.73465 444.46564Q509.25027 443.95 509.25027 443.1844Q509.25027 442.46564 508.7659 441.9969Q508.29715 441.5125 507.56277 441.5125Q507.2659 441.5125 506.81277 441.6375L506.93777 440.7Q507.04715 440.71564 507.10965 440.71564Q507.78152 440.71564 508.31277 440.3719Q508.85965 440.0125 508.85965 439.27814Q508.85965 438.7 508.46902 438.325Q508.0784 437.9344 507.4534 437.9344Q506.84402 437.9344 506.42215 438.325Q506.0159 438.71564 505.90652 439.48126L504.84402 439.29376Q505.03152 438.2469 505.71902 437.66876Q506.40652 437.075 507.42215 437.075Q508.12527 437.075 508.71902 437.3875Q509.31277 437.6844 509.62527 438.2Q509.93777 438.71564 509.93777 439.3094Q509.93777 439.85626 509.6409 440.325Q509.34402 440.77814 508.7659 441.04376Q509.5159 441.21564 509.93777 441.77814Q510.35965 442.325 510.35965 443.16876Q510.35965 444.29376 509.53152 445.075Q508.71902 445.85626 507.46902 445.85626Q506.34402 445.85626 505.59402 445.1844Q504.84402 444.4969 504.73465 443.4344ZM511.73465 441.46564Q511.73465 439.9344 512.0471 439.0125Q512.3596 438.075 512.969 437.575Q513.594 437.075 514.5315 437.075Q515.219 437.075 515.7346 437.35626Q516.26587 437.6375 516.6096 438.16876Q516.95337 438.6844 517.14087 439.4344Q517.32837 440.1844 517.32837 441.46564Q517.32837 442.98126 517.01587 443.90314Q516.719 444.825 516.094 445.34064Q515.4846 445.84064 514.5315 445.84064Q513.2971 445.84064 512.57837 444.95Q511.73465 443.8875 511.73465 441.46564ZM512.81274 441.46564Q512.81274 443.575 513.31274 444.27814Q513.81274 444.98126 514.5315 444.98126Q515.26587 444.98126 515.75024 444.27814Q516.25024 443.575 516.25024 441.46564Q516.25024 439.34064 515.75024 438.65314Q515.26587 437.95 514.51587 437.95Q513.7971 437.95 513.3596 438.5594Q512.81274 439.34064 512.81274 441.46564ZM518.7346 441.46564Q518.7346 439.9344 519.0471 439.0125Q519.3596 438.075 519.969 437.575Q520.594 437.075 521.5315 437.075Q522.219 437.075 522.7346 437.35626Q523.26587 437.6375 523.6096 438.16876Q523.95337 438.6844 524.14087 439.4344Q524.32837 440.1844 524.32837 441.46564Q524.32837 442.98126 524.01587 443.90314Q523.719 444.825 523.094 445.34064Q522.4846 445.84064 521.5315 445.84064Q520.2971 445.84064 519.57837 444.95Q518.7346 443.8875 518.7346 441.46564ZM519.81274 441.46564Q519.81274 443.575 520.31274 444.27814Q520.81274 444.98126 521.5315 444.98126Q522.26587 444.98126 522.75024 444.27814Q523.25024 443.575 523.25024 441.46564Q523.25024 439.34064 522.75024 438.65314Q522.26587 437.95 521.51587 437.95Q520.7971 437.95 520.3596 438.5594Q519.81274 439.34064 519.81274 441.46564ZM526.32837 445.7L526.32837 444.4969L527.5315 444.4969L527.5315 445.7L526.32837 445.7ZM528.7346 441.46564Q528.7346 439.9344 529.0471 439.0125Q529.3596 438.075 529.969 437.575Q530.594 437.075 531.5315 437.075Q532.219 437.075 532.7346 437.35626Q533.26587 437.6375 533.6096 438.16876Q533.95337 438.6844 534.14087 439.4344Q534.32837 440.1844 534.32837 441.46564Q534.32837 442.98126 534.01587 443.90314Q533.719 444.825 533.094 445.34064Q532.4846 445.84064 531.5315 445.84064Q530.2971 445.84064 529.57837 444.95Q528.7346 443.8875 528.7346 441.46564ZM529.81274 441.46564Q529.81274 443.575 530.31274 444.27814Q530.81274 444.98126 531.5315 444.98126Q532.26587 444.98126 532.75024 444.27814Q533.25024 443.575 533.25024 441.46564Q533.25024 439.34064 532.75024 438.65314Q532.26587 437.95 531.51587 437.95Q530.7971 437.95 530.3596 438.5594Q529.81274 439.34064 529.81274 441.46564ZM535.7346 441.46564Q535.7346 439.9344 536.0471 439.0125Q536.3596 438.075 536.969 437.575Q537.594 437.075 538.5315 437.075Q539.219 437.075 539.7346 437.35626Q540.26587 437.6375 540.6096 438.16876Q540.95337 438.6844 541.14087 439.4344Q541.32837 440.1844 541.32837 441.46564Q541.32837 442.98126 541.01587 443.90314Q540.719 444.825 540.094 445.34064Q539.4846 445.84064 538.5315 445.84064Q537.2971 445.84064 536.57837 444.95Q535.7346 443.8875 535.7346 441.46564ZM536.81274 441.46564Q536.81274 443.575 537.31274 444.27814Q537.81274 444.98126 538.5315 444.98126Q539.26587 444.98126 539.75024 444.27814Q540.25024 443.575 540.25024 441.46564Q540.25024 439.34064 539.75024 438.65314Q539.26587 437.95 538.51587 437.95Q537.7971 437.95 537.3596 438.5594Q536.81274 439.34064 536.81274 441.46564ZM542.7346 441.46564Q542.7346 439.9344 543.0471 439.0125Q543.3596 438.075 543.969 437.575Q544.594 437.075 545.5315 437.075Q546.219 437.075 546.7346 437.35626Q547.26587 437.6375 547.6096 438.16876Q547.95337 438.6844 548.14087 439.4344Q548.32837 440.1844 548.32837 441.46564Q548.32837 442.98126 548.01587 443.90314Q547.719 444.825 547.094 445.34064Q546.4846 445.84064 545.5315 445.84064Q544.2971 445.84064 543.57837 444.95Q542.7346 443.8875 542.7346 441.46564ZM543.81274 441.46564Q543.81274 443.575 544.31274 444.27814Q544.81274 444.98126 545.5315 444.98126Q546.26587 444.98126 546.75024 444.27814Q547.25024 443.575 547.25024 441.46564Q547.25024 439.34064 546.75024 438.65314Q546.26587 437.95 545.51587 437.95Q544.7971 437.95 544.3596 438.5594Q543.81274 439.34064 543.81274 441.46564Z" fill-rule="nonzero"/><path fill="#000000" d="M641.59235 445.7L641.59235 443.6375L637.8736 443.6375L637.8736 442.66876L641.7955 437.10626L642.65485 437.10626L642.65485 442.66876L643.8111 442.66876L643.8111 443.6375L642.65485 443.6375L642.65485 445.7L641.59235 445.7ZM641.59235 442.66876L641.59235 438.8094L638.90485 442.66876L641.59235 442.66876ZM645.21735 441.46564Q645.21735 439.9344 645.52985 439.0125Q645.84235 438.075 646.4517 437.575Q647.0767 437.075 648.0142 437.075Q648.7017 437.075 649.21735 437.35626Q649.7486 437.6375 650.09235 438.16876Q650.4361 438.6844 650.6236 439.4344Q650.8111 440.1844 650.8111 441.46564Q650.8111 442.98126 650.4986 443.90314Q650.2017 444.825 649.5767 445.34064Q648.96735 445.84064 648.0142 445.84064Q646.77985 445.84064 646.0611 444.95Q645.21735 443.8875 645.21735 441.46564ZM646.2955 441.46564Q646.2955 443.575 646.7955 444.27814Q647.2955 444.98126 648.0142 444.98126Q648.7486 444.98126 649.233 444.27814Q649.733 443.575 649.733 441.46564Q649.733 439.34064 649.233 438.65314Q648.7486 437.95 647.9986 437.95Q647.27985 437.95 646.84235 438.5594Q646.2955 439.34064 646.2955 441.46564ZM652.21735 441.46564Q652.21735 439.9344 652.52985 439.0125Q652.84235 438.075 653.4517 437.575Q654.0767 437.075 655.0142 437.075Q655.7017 437.075 656.21735 437.35626Q656.7486 437.6375 657.09235 438.16876Q657.4361 438.6844 657.6236 439.4344Q657.8111 440.1844 657.8111 441.46564Q657.8111 442.98126 657.4986 443.90314Q657.2017 444.825 656.5767 445.34064Q655.96735 445.84064 655.0142 445.84064Q653.77985 445.84064 653.0611 444.95Q652.21735 443.8875 652.21735 441.46564ZM653.2955 441.46564Q653.2955 443.575 653.7955 444.27814Q654.2955 444.98126 655.0142 444.98126Q655.7486 444.98126 656.233 444.27814Q656.733 443.575 656.733 441.46564Q656.733 439.34064 656.233 438.65314Q655.7486 437.95 654.9986 437.95Q654.27985 437.95 653.84235 438.5594Q653.2955 439.34064 653.2955 441.46564ZM659.8111 445.7L659.8111 444.4969L661.0142 444.4969L661.0142 445.7L659.8111 445.7ZM662.21735 441.46564Q662.21735 439.9344 662.52985 439.0125Q662.84235 438.075 663.4517 437.575Q664.0767 437.075 665.0142 437.075Q665.7017 437.075 666.21735 437.35626Q666.7486 437.6375 667.09235 438.16876Q667.4361 438.6844 667.6236 439.4344Q667.8111 440.1844 667.8111 441.46564Q667.8111 442.98126 667.4986 443.90314Q667.2017 444.825 666.5767 445.34064Q665.96735 445.84064 665.0142 445.84064Q663.77985 445.84064 663.0611 444.95Q662.21735 443.8875 662.21735 441.46564ZM663.2955 441.46564Q663.2955 443.575 663.7955 444.27814Q664.2955 444.98126 665.0142 444.98126Q665.7486 444.98126 666.233 444.27814Q666.733 443.575 666.733 441.46564Q666.733 439.34064 666.233 438.65314Q665.7486 437.95 664.9986 437.95Q664.27985 437.95 663.84235 438.5594Q663.2955 439.34064 663.2955 441.46564ZM669.21735 441.46564Q669.21735 439.9344 669.52985 439.0125Q669.84235 438.075 670.4517 437.575Q671.0767 437.075 672.0142 437.075Q672.7017 437.075 673.21735 437.35626Q673.7486 437.6375 674.09235 438.16876Q674.4361 438.6844 674.6236 439.4344Q674.8111 440.1844 674.8111 441.46564Q674.8111 442.98126 674.4986 443.90314Q674.2017 444.825 673.5767 445.34064Q672.96735 445.84064 672.0142 445.84064Q670.77985 445.84064 670.0611 444.95Q669.21735 443.8875 669.21735 441.46564ZM670.2955 441.46564Q670.2955 443.575 670.7955 444.27814Q671.2955 444.98126 672.0142 444.98126Q672.7486 444.98126 673.233 444.27814Q673.733 443.575 673.733 441.46564Q673.733 439.34064 673.233 438.65314Q672.7486 437.95 671.9986 437.95Q671.27985 437.95 670.84235 438.5594Q670.2955 439.34064 670.2955 441.46564ZM676.21735 441.46564Q676.21735 439.9344 676.52985 439.0125Q676.84235 438.075 677.4517 437.575Q678.0767 437.075 679.0142 437.075Q679.7017 437.075 680.21735 437.35626Q680.7486 437.6375 681.09235 438.16876Q681.4361 438.6844 681.6236 439.4344Q681.8111 440.1844 681.8111 441.46564Q681.8111 442.98126 681.4986 443.90314Q681.2017 444.825 680.5767 445.34064Q679.96735 445.84064 679.0142 445.84064Q677.77985 445.84064 677.0611 444.95Q676.21735 443.8875 676.21735 441.46564ZM677.2955 441.46564Q677.2955 443.575 677.7955 444.27814Q678.2955 444.98126 679.0142 444.98126Q679.7486 444.98126 680.233 444.27814Q680.733 443.575 680.733 441.46564Q680.733 439.34064 680.233 438.65314Q679.7486 437.95 678.9986 437.95Q678.27985 437.95 677.84235 438.5594Q677.2955 439.34064 677.2955 441.46564Z" fill-rule="nonzero"/><path fill="#000000" d="M771.7 443.45L772.8094 443.35626Q772.9344 444.16876 773.3719 444.575Q773.825 444.98126 774.46564 444.98126Q775.21564 444.98126 775.7469 444.40314Q776.27814 443.825 776.27814 442.8875Q776.27814 441.98126 775.7625 441.46564Q775.2625 440.9344 774.4344 440.9344Q773.9344 440.9344 773.5125 441.16876Q773.10626 441.40314 772.8719 441.7625L771.8875 441.6375L772.71564 437.23126L776.9969 437.23126L776.9969 438.23126L773.5594 438.23126L773.10626 440.54376Q773.8719 439.9969 774.71564 439.9969Q775.84064 439.9969 776.60626 440.77814Q777.3875 441.5594 777.3875 442.79376Q777.3875 443.95 776.71564 444.8094Q775.8875 445.84064 774.46564 445.84064Q773.29376 445.84064 772.54376 445.1844Q771.8094 444.52814 771.7 443.45ZM778.7 441.46564Q778.7 439.9344 779.0125 439.0125Q779.325 438.075 779.9344 437.575Q780.5594 437.075 781.4969 437.075Q782.1844 437.075 782.7 437.35626Q783.23126 437.6375 783.575 438.16876Q783.91876 438.6844 784.10626 439.4344Q784.29376 440.1844 784.29376 441.46564Q784.29376 442.98126 783.98126 443.90314Q783.6844 444.825 783.0594 445.34064Q782.45 445.84064 781.4969 445.84064Q780.2625 445.84064 779.54376 444.95Q778.7 443.8875 778.7 441.46564ZM779.77814 441.46564Q779.77814 443.575 780.27814 444.27814Q780.77814 444.98126 781.4969 444.98126Q782.23126 444.98126 782.71564 444.27814Q783.21564 443.575 783.21564 441.46564Q783.21564 439.34064 782.71564 438.65314Q782.23126 437.95 781.48126 437.95Q780.7625 437.95 780.325 438.5594Q779.77814 439.34064 779.77814 441.46564ZM785.7 441.46564Q785.7 439.9344 786.0125 439.0125Q786.325 438.075 786.9344 437.575Q787.5594 437.075 788.4969 437.075Q789.1844 437.075 789.7 437.35626Q790.23126 437.6375 790.575 438.16876Q790.91876 438.6844 791.10626 439.4344Q791.29376 440.1844 791.29376 441.46564Q791.29376 442.98126 790.98126 443.90314Q790.6844 444.825 790.0594 445.34064Q789.45 445.84064 788.4969 445.84064Q787.2625 445.84064 786.54376 444.95Q785.7 443.8875 785.7 441.46564ZM786.77814 441.46564Q786.77814 443.575 787.27814 444.27814Q787.77814 444.98126 788.4969 444.98126Q789.23126 444.98126 789.71564 444.27814Q790.21564 443.575 790.21564 441.46564Q790.21564 439.34064 789.71564 438.65314Q789.23126 437.95 788.48126 437.95Q787.7625 437.95 787.325 438.5594Q786.77814 439.34064 786.77814 441.46564ZM793.29376 445.7L793.29376 444.4969L794.4969 444.4969L794.4969 445.7L793.29376 445.7ZM795.7 441.46564Q795.7 439.9344 796.0125 439.0125Q796.325 438.075 796.9344 437.575Q797.5594 437.075 798.4969 437.075Q799.1844 437.075 799.7 437.35626Q800.23126 437.6375 800.575 438.16876Q800.91876 438.6844 801.10626 439.4344Q801.29376 440.1844 801.29376 441.46564Q801.29376 442.98126 800.98126 443.90314Q800.6844 444.825 800.0594 445.34064Q799.45 445.84064 798.4969 445.84064Q797.2625 445.84064 796.54376 444.95Q795.7 443.8875 795.7 441.46564ZM796.77814 441.46564Q796.77814 443.575 797.27814 444.27814Q797.77814 444.98126 798.4969 444.98126Q799.23126 444.98126 799.71564 444.27814Q800.21564 443.575 800.21564 441.46564Q800.21564 439.34064 799.71564 438.65314Q799.23126 437.95 798.48126 437.95Q797.7625 437.95 797.325 438.5594Q796.77814 439.34064 796.77814 441.46564ZM802.7 441.46564Q802.7 439.9344 803.0125 439.0125Q803.325 438.075 803.9344 437.575Q804.5594 437.075 805.4969 437.075Q806.1844 437.075 806.7 437.35626Q807.23126 437.6375 807.575 438.16876Q807.91876 438.6844 808.10626 439.4344Q808.29376 440.1844 808.29376 441.46564Q808.29376 442.98126 807.98126 443.90314Q807.6844 444.825 807.0594 445.34064Q806.45 445.84064 805.4969 445.84064Q804.2625 445.84064 803.54376 444.95Q802.7 443.8875 802.7 441.46564ZM803.77814 441.46564Q803.77814 443.575 804.27814 444.27814Q804.77814 444.98126 805.4969 444.98126Q806.23126 444.98126 806.71564 444.27814Q807.21564 443.575 807.21564 441.46564Q807.21564 439.34064 806.71564 438.65314Q806.23126 437.95 805.48126 437.95Q804.7625 437.95 804.325 438.5594Q803.77814 439.34064 803.77814 441.46564ZM809.7 441.46564Q809.7 439.9344 810.0125 439.0125Q810.325 438.075 810.9344 437.575Q811.5594 437.075 812.4969 437.075Q813.1844 437.075 813.7 437.35626Q814.23126 437.6375 814.575 438.16876Q814.91876 438.6844 815.10626 439.4344Q815.29376 440.1844 815.29376 441.46564Q815.29376 442.98126 814.98126 443.90314Q814.6844 444.825 814.0594 445.34064Q813.45 445.84064 812.4969 445.84064Q811.2625 445.84064 810.54376 444.95Q809.7 443.8875 809.7 441.46564ZM810.77814 441.46564Q810.77814 443.575 811.27814 444.27814Q811.77814 444.98126 812.4969 444.98126Q813.23126 444.98126 813.71564 444.27814Q814.21564 443.575 814.21564 441.46564Q814.21564 439.34064 813.71564 438.65314Q813.23126 437.95 812.48126 437.95Q811.7625 437.95 811.325 438.5594Q810.77814 439.34064 810.77814 441.46564Z" fill-rule="nonzero"/><path fill="#757575" d="M26.3 45.159374L28.003124 45.409374Q28.1125 46.20625 28.596874 46.565624Q29.253124 47.05 30.39375 47.05Q31.6125 47.05 32.26875 46.565624Q32.940624 46.08125 33.175 45.20625Q33.315624 44.659374 33.3 42.940624Q32.14375 44.3 30.425 44.3Q28.284374 44.3 27.1125 42.753124Q25.940624 41.20625 25.940624 39.05Q25.940624 37.565624 26.471874 36.315624Q27.01875 35.065624 28.034374 34.378124Q29.065624 33.690624 30.440624 33.690624Q32.26875 33.690624 33.471874 35.175L33.471874 33.925L35.08125 33.925L35.08125 42.89375Q35.08125 45.315624 34.58125 46.315624Q34.096874 47.33125 33.01875 47.909374Q31.95625 48.503124 30.39375 48.503124Q28.55 48.503124 27.39375 47.675Q26.253124 46.846874 26.3 45.159374ZM27.753124 38.925Q27.753124 40.971874 28.565624 41.909374Q29.378124 42.846874 30.596874 42.846874Q31.8 42.846874 32.6125 41.909374Q33.440624 40.971874 33.440624 38.9875Q33.440624 37.08125 32.596874 36.1125Q31.753124 35.14375 30.565624 35.14375Q29.39375 35.14375 28.565624 36.096874Q27.753124 37.05 27.753124 38.925ZM37.6125 44.3L37.6125 33.925L39.20625 33.925L39.20625 35.409374Q40.346874 33.690624 42.503124 33.690624Q43.440624 33.690624 44.221874 34.034374Q45.01875 34.3625 45.409374 34.909374Q45.8 35.45625 45.95625 36.20625Q46.05 36.70625 46.05 37.925L46.05 44.3L44.284374 44.3L44.284374 37.9875Q44.284374 36.909374 44.08125 36.378124Q43.878124 35.846874 43.346874 35.534374Q42.83125 35.221874 42.128124 35.221874Q41.003124 35.221874 40.190624 35.940624Q39.378124 36.64375 39.378124 38.628124L39.378124 44.3L37.6125 44.3ZM47.971874 39.1125Q47.971874 36.2375 49.565624 34.846874Q50.909374 33.690624 52.83125 33.690624Q54.971874 33.690624 56.315624 35.096874Q57.675 36.503124 57.675 38.971874Q57.675 40.971874 57.08125 42.128124Q56.4875 43.26875 55.33125 43.909374Q54.190624 44.534374 52.83125 44.534374Q50.64375 44.534374 49.3 43.14375Q47.971874 41.7375 47.971874 39.1125ZM49.76875 39.1125Q49.76875 41.1125 50.628124 42.096874Q51.503124 43.08125 52.83125 43.08125Q54.14375 43.08125 55.003124 42.096874Q55.878124 41.096874 55.878124 39.05Q55.878124 37.128124 55.003124 36.14375Q54.128124 35.14375 52.83125 35.14375Q51.503124 35.14375 50.628124 36.14375Q49.76875 37.128124 49.76875 39.1125ZM59.6125 44.3L59.6125 33.925L61.190624 33.925L61.190624 35.378124Q61.675 34.628124 62.4875 34.159374Q63.3 33.690624 64.33125 33.690624Q65.4875 33.690624 66.22188 34.175Q66.95625 34.64375 67.26875 35.503124Q68.50313 33.690624 70.47188 33.690624Q72.01875 33.690624 72.84688 34.55Q73.675 35.409374 73.675 37.175L73.675 44.3L71.925 44.3L71.925 37.76875Q71.925 36.70625 71.75313 36.253124Q71.58125 35.784374 71.12813 35.503124Q70.69063 35.221874 70.08125 35.221874Q68.9875 35.221874 68.25313 35.95625Q67.53438 36.675 67.53438 38.26875L67.53438 44.3L65.78438 44.3L65.78438 37.565624Q65.78438 36.39375 65.34688 35.815624Q64.925 35.221874 63.940624 35.221874Q63.20625 35.221874 62.565624 35.6125Q61.940624 36.003124 61.659374 36.753124Q61.378124 37.503124 61.378124 38.925L61.378124 44.3L59.6125 44.3ZM83.72188 40.95625L85.53438 41.190624Q85.1125 42.76875 83.94063 43.659374Q82.78438 44.534374 80.97188 44.534374Q78.70625 44.534374 77.3625 43.14375Q76.03438 41.7375 76.03438 39.20625Q76.03438 36.58125 77.37813 35.14375Q78.72188 33.690624 80.87813 33.690624Q82.95625 33.690624 84.26875 35.1125Q85.59688 36.51875 85.59688 39.096874Q85.59688 39.253124 85.58125 39.565624L77.84688 39.565624Q77.94063 41.26875 78.81563 42.175Q79.69063 43.08125 80.9875 43.08125Q81.95625 43.08125 82.62813 42.58125Q83.31563 42.065624 83.72188 40.95625ZM77.94063 38.1125L83.7375 38.1125Q83.62813 36.815624 83.08125 36.159374Q82.2375 35.14375 80.89375 35.14375Q79.69063 35.14375 78.8625 35.95625Q78.03438 36.753124 77.94063 38.1125ZM86.00313 48.26875L86.00313 47.003124L97.64375 47.003124L97.64375 48.26875L86.00313 48.26875ZM97.90938 41.20625L99.65938 40.925Q99.8 41.971874 100.47188 42.534374Q101.14375 43.08125 102.34688 43.08125Q103.55 43.08125 104.12813 42.596874Q104.72188 42.096874 104.72188 41.440624Q104.72188 40.846874 104.20625 40.503124Q103.84688 40.26875 102.40938 39.909374Q100.47188 39.409374 99.72188 39.065624Q98.9875 38.70625 98.59688 38.08125Q98.20625 37.440624 98.20625 36.675Q98.20625 35.9875 98.51875 35.39375Q98.84688 34.8 99.39375 34.409374Q99.8 34.1125 100.50313 33.909374Q101.22188 33.690624 102.03438 33.690624Q103.25313 33.690624 104.175 34.05Q105.09688 34.39375 105.53438 35.003124Q105.97188 35.596874 106.14375 36.596874L104.425 36.83125Q104.3 36.034374 103.7375 35.596874Q103.175 35.14375 102.15938 35.14375Q100.94063 35.14375 100.425 35.55Q99.90938 35.940624 99.90938 36.471874Q99.90938 36.815624 100.12813 37.096874Q100.33125 37.378124 100.8 37.565624Q101.06563 37.659374 102.34688 38.003124Q104.22188 38.503124 104.95625 38.83125Q105.69063 39.14375 106.1125 39.753124Q106.53438 40.346874 106.53438 41.253124Q106.53438 42.128124 106.01875 42.909374Q105.50313 43.690624 104.53438 44.1125Q103.56563 44.534374 102.34688 44.534374Q100.33125 44.534374 99.26875 43.690624Q98.20625 42.846874 97.90938 41.20625ZM107.97188 39.1125Q107.97188 36.2375 109.56563 34.846874Q110.90938 33.690624 112.83125 33.690624Q114.97188 33.690624 116.31563 35.096874Q117.675 36.503124 117.675 38.971874Q117.675 40.971874 117.08125 42.128124Q116.4875 43.26875 115.33125 43.909374Q114.19063 44.534374 112.83125 44.534374Q110.64375 44.534374 109.3 43.14375Q107.97188 41.7375 107.97188 39.1125ZM109.76875 39.1125Q109.76875 41.1125 110.62813 42.096874Q111.50313 43.08125 112.83125 43.08125Q114.14375 43.08125 115.00313 42.096874Q115.87813 41.096874 115.87813 39.05Q115.87813 37.128124 115.00313 36.14375Q114.12813 35.14375 112.83125 35.14375Q111.50313 35.14375 110.62813 36.14375Q109.76875 37.128124 109.76875 39.1125ZM119.59688 44.3L119.59688 33.925L121.175 33.925L121.175 35.503124Q121.78438 34.39375 122.3 34.05Q122.81563 33.690624 123.425 33.690624Q124.31563 33.690624 125.2375 34.253124L124.62813 35.89375Q123.9875 35.503124 123.34688 35.503124Q122.76875 35.503124 122.3 35.8625Q121.84688 36.20625 121.64375 36.815624Q121.3625 37.753124 121.3625 38.8625L121.3625 44.3L119.59688 44.3ZM130.45625 42.721874L130.70625 44.284374Q129.97188 44.440624 129.37813 44.440624Q128.425 44.440624 127.89375 44.14375Q127.37813 43.83125 127.15938 43.346874Q126.94063 42.846874 126.94063 41.26875L126.94063 35.3L125.65938 35.3L125.65938 33.925L126.94063 33.925L126.94063 31.3625L128.69063 30.3L128.69063 33.925L130.45625 33.925L130.45625 35.3L128.69063 35.3L128.69063 41.3625Q128.69063 42.1125 128.78438 42.33125Q128.87813 42.534374 129.08125 42.675Q129.3 42.8 129.69063 42.8Q129.97188 42.8 130.45625 42.721874Z" fill-rule="nonzero"/></svg>