<svg version="1.1" viewBox="0.0 0.0 819.0 506.0" fill="none" stroke="none" stroke-linecap="square" stroke-miterlimit="10" width="819" height="506" xmlns:xlink="http://www.w3.org/1999/xlink" xmlns="http://www.w3.org/2000/svg"><path fill="#ffffff" d="M0 0L819.0 0L819.0 506.0L0 506.0L0 0Z" fill-rule="nonzero"/><path stroke="#cccccc" stroke-width="1.0" stroke-linecap="butt" d="M242.5 73.5L242.5 428.5" fill-rule="nonzero"/><path stroke="#cccccc" stroke-width="1.0" stroke-linecap="butt" d="M380.5 73.5L380.5 428.5" fill-rule="nonzero"/><path stroke="#cccccc" stroke-width="1.0" stroke-linecap="butt" d="M518.5 73.5L518.5 428.5" fill-rule="nonzero"/><path stroke="#cccccc" stroke-width="1.0" stroke-linecap="butt" d="M656.5 73.5L656.5 428.5" fill-rule="nonzero"/><path stroke="#cccccc" stroke-width="1.0" stroke-linecap="butt" d="M793.5 73.5L793.5 428.5" fill-rule="nonzero"/><path stroke="#333333" stroke-width="1.0" stroke-linecap="butt" d="M105.5 428.5L793.5 428.5" fill-rule="nonzero"/><path stroke="#cccccc" stroke-width="1.0" stroke-linecap="butt" d="M105.5 339.5L793.5 339.5" fill-rule="nonzero"/><path stroke="#cccccc" stroke-width="1.0" stroke-linecap="butt" d="M105.5 250.5L793.5 250.5" fill-rule="nonzero"/><path stroke="#cccccc" stroke-width="1.0" stroke-linecap="butt" d="M105.5 162.5L793.5 162.5" fill-rule="nonzero"/><path stroke="#cccccc" stroke-width="1.0" stroke-linecap="butt" d="M105.5 73.5L793.5 73.5" fill-rule="nonzero"/><clipPath id="id_0"><path d="M105.3 73.166664L793.7 73.166664L793.7 428.7L105.3 428.7L105.3 73.166664Z" clip-rule="nonzero"/></clipPath><path stroke="#4285f4" stroke-width="2.0" stroke-linecap="butt" clip-path="url(#id_0)" d="M105.3 428.69467C105.3 428.69467 105.306885 428.69485 105.310326 428.69467C105.31377 428.6945 105.3218 428.6938 105.32754 428.6929C105.333275 428.692 105.33901 428.69083 105.34475 428.68933C105.35049 428.68787 105.35622 428.68564 105.36195 428.684C105.36769 428.68237 105.43079 428.66656 105.46522 428.65735C105.49964 428.6481 105.57995 428.62772 105.63732 428.60934C105.69469 428.59097 105.75205 428.564 105.80942 428.54712C105.86679 428.53024 105.92416 428.52417 105.98152 428.50803C106.03889 428.49185 106.66993 428.2803 107.01413 428.16138C107.35834 428.04245 108.161476 427.75754 108.73515 427.54984C109.30882 427.34216 109.88249 427.13327 110.45617 426.91522C111.02984 426.69717 111.603516 426.46884 112.177185 426.2415C112.750854 426.01413 119.06126 423.5473 122.50329 422.09952C125.94532 420.65173 133.97673 417.07968 139.71346 414.52487C145.45018 411.9701 151.1869 409.44196 156.92363 406.7707C162.66035 404.09946 168.39708 401.2634 174.1338 398.49744C179.87053 395.7315 242.97449 365.7044 277.39484 348.56277C311.8152 331.42117 392.1293 290.59055 449.49655 260.37097C506.8638 230.15137 793.7 74.1195 793.7 74.1195" fill-rule="nonzero"/><path fill="#000000" fill-opacity="0.0" clip-path="url(#id_0)" d="M108.3 428.69467C108.3 430.35153 106.956856 431.69467 105.3 431.69467C103.64314 431.69467 102.3 430.35153 102.3 428.69467C102.3 427.0378 103.64314 425.69467 105.3 425.69467C106.956856 425.69467 108.3 427.0378 108.3 428.69467Z" fill-rule="nonzero"/><path fill="#000000" fill-opacity="0.0" clip-path="url(#id_0)" d="M108.310326 428.69467C108.310326 430.35153 106.96718 431.69467 105.310326 431.69467C103.65347 431.69467 102.310326 430.35153 102.310326 428.69467C102.310326 427.0378 103.65347 425.69467 105.310326 425.69467C106.96718 425.69467 108.310326 427.0378 108.310326 428.69467Z" fill-rule="nonzero"/><path fill="#000000" fill-opacity="0.0" clip-path="url(#id_0)" d="M108.32754 428.6929C108.32754 430.34973 106.98439 431.6929 105.32754 431.6929C103.670685 431.6929 102.32754 430.34973 102.32754 428.6929C102.32754 427.03604 103.670685 425.6929 105.32754 425.6929C106.98439 425.6929 108.32754 427.03604 108.32754 428.6929Z" fill-rule="nonzero"/><path fill="#000000" fill-opacity="0.0" clip-path="url(#id_0)" d="M108.34475 428.68933C108.34475 430.3462 107.0016 431.68933 105.34475 431.68933C103.68789 431.68933 102.34475 430.3462 102.34475 428.68933C102.34475 427.03247 103.68789 425.68933 105.34475 425.68933C107.0016 425.68933 108.34475 427.03247 108.34475 428.68933Z" fill-rule="nonzero"/><path fill="#000000" fill-opacity="0.0" clip-path="url(#id_0)" d="M108.36195 428.684C108.36195 430.34085 107.018814 431.684 105.36195 431.684C103.7051 431.684 102.36195 430.34085 102.36195 428.684C102.36195 427.02716 103.7051 425.684 105.36195 425.684C107.018814 425.684 108.36195 427.02716 108.36195 428.684Z" fill-rule="nonzero"/><path fill="#000000" fill-opacity="0.0" clip-path="url(#id_0)" d="M108.46522 428.65735C108.46522 430.31418 107.12207 431.65735 105.46522 431.65735C103.808365 431.65735 102.46522 430.31418 102.46522 428.65735C102.46522 427.0005 103.808365 425.65735 105.46522 425.65735C107.12207 425.65735 108.46522 427.0005 108.46522 428.65735Z" fill-rule="nonzero"/><path fill="#000000" fill-opacity="0.0" clip-path="url(#id_0)" d="M108.63732 428.60934C108.63732 430.2662 107.294174 431.60934 105.63732 431.60934C103.98047 431.60934 102.63732 430.2662 102.63732 428.60934C102.63732 426.95248 103.98047 425.60934 105.63732 425.60934C107.294174 425.60934 108.63732 426.95248 108.63732 428.60934Z" fill-rule="nonzero"/><path fill="#000000" fill-opacity="0.0" clip-path="url(#id_0)" d="M108.80942 428.54712C108.80942 430.20398 107.46628 431.54712 105.80942 431.54712C104.152565 431.54712 102.80942 430.20398 102.80942 428.54712C102.80942 426.89026 104.152565 425.54712 105.80942 425.54712C107.46628 425.54712 108.80942 426.89026 108.80942 428.54712Z" fill-rule="nonzero"/><path fill="#000000" fill-opacity="0.0" clip-path="url(#id_0)" d="M108.98152 428.50803C108.98152 430.16486 107.638374 431.50803 105.98152 431.50803C104.32467 431.50803 102.98152 430.16486 102.98152 428.50803C102.98152 426.85117 104.32467 425.50803 105.98152 425.50803C107.638374 425.50803 108.98152 426.85117 108.98152 428.50803Z" fill-rule="nonzero"/><path fill="#000000" fill-opacity="0.0" clip-path="url(#id_0)" d="M110.01413 428.16138C110.01413 429.8182 108.67099 431.16138 107.01413 431.16138C105.35728 431.16138 104.01413 429.8182 104.01413 428.16138C104.01413 426.50452 105.35728 425.16138 107.01413 425.16138C108.67099 425.16138 110.01413 426.50452 110.01413 428.16138Z" fill-rule="nonzero"/><path fill="#000000" fill-opacity="0.0" clip-path="url(#id_0)" d="M111.73515 427.54984C111.73515 429.2067 110.392006 430.54984 108.73515 430.54984C107.07829 430.54984 105.73515 429.2067 105.73515 427.54984C105.73515 425.893 107.07829 424.54984 108.73515 424.54984C110.392006 424.54984 111.73515 425.893 111.73515 427.54984Z" fill-rule="nonzero"/><path fill="#000000" fill-opacity="0.0" clip-path="url(#id_0)" d="M113.45617 426.91522C113.45617 428.57208 112.11302 429.91522 110.45617 429.91522C108.79932 429.91522 107.45617 428.57208 107.45617 426.91522C107.45617 425.25836 108.79932 423.91522 110.45617 423.91522C112.11302 423.91522 113.45617 425.25836 113.45617 426.91522Z" fill-rule="nonzero"/><path fill="#000000" fill-opacity="0.0" clip-path="url(#id_0)" d="M115.177185 426.2415C115.177185 427.89835 113.83404 429.2415 112.177185 429.2415C110.52033 429.2415 109.177185 427.89835 109.177185 426.2415C109.177185 424.58463 110.52033 423.2415 112.177185 423.2415C113.83404 423.2415 115.177185 424.58463 115.177185 426.2415Z" fill-rule="nonzero"/><path fill="#000000" fill-opacity="0.0" clip-path="url(#id_0)" d="M125.50329 422.09952C125.50329 423.75638 124.16014 425.09952 122.50329 425.09952C120.846436 425.09952 119.50329 423.75638 119.50329 422.09952C119.50329 420.44266 120.846436 419.09952 122.50329 419.09952C124.16014 419.09952 125.50329 420.44266 125.50329 422.09952Z" fill-rule="nonzero"/><path fill="#000000" fill-opacity="0.0" clip-path="url(#id_0)" d="M142.71346 414.52487C142.71346 416.18173 141.37032 417.52487 139.71346 417.52487C138.05661 417.52487 136.71346 416.18173 136.71346 414.52487C136.71346 412.86804 138.05661 411.52487 139.71346 411.52487C141.37032 411.52487 142.71346 412.86804 142.71346 414.52487Z" fill-rule="nonzero"/><path fill="#000000" fill-opacity="0.0" clip-path="url(#id_0)" d="M159.92363 406.7707C159.92363 408.42755 158.58049 409.7707 156.92363 409.7707C155.26678 409.7707 153.92363 408.42755 153.92363 406.7707C153.92363 405.11386 155.26678 403.7707 156.92363 403.7707C158.58049 403.7707 159.92363 405.11386 159.92363 406.7707Z" fill-rule="nonzero"/><path fill="#000000" fill-opacity="0.0" clip-path="url(#id_0)" d="M177.1338 398.49744C177.1338 400.1543 175.79066 401.49744 174.1338 401.49744C172.47694 401.49744 171.1338 400.1543 171.1338 398.49744C171.1338 396.84058 172.47694 395.49744 174.1338 395.49744C175.79066 395.49744 177.1338 396.84058 177.1338 398.49744Z" fill-rule="nonzero"/><path fill="#000000" fill-opacity="0.0" clip-path="url(#id_0)" d="M280.39484 348.56277C280.39484 350.21964 279.0517 351.56277 277.39484 351.56277C275.73798 351.56277 274.39484 350.21964 274.39484 348.56277C274.39484 346.90594 275.73798 345.56277 277.39484 345.56277C279.0517 345.56277 280.39484 346.90594 280.39484 348.56277Z" fill-rule="nonzero"/><path fill="#000000" fill-opacity="0.0" clip-path="url(#id_0)" d="M452.49655 260.37097C452.49655 262.02783 451.1534 263.37097 449.49655 263.37097C447.8397 263.37097 446.49655 262.02783 446.49655 260.37097C446.49655 258.7141 447.8397 257.37097 449.49655 257.37097C451.1534 257.37097 452.49655 258.7141 452.49655 260.37097Z" fill-rule="nonzero"/><path fill="#000000" fill-opacity="0.0" clip-path="url(#id_0)" d="M796.7 74.1195C796.7 75.77635 795.3569 77.1195 793.7 77.1195C792.04315 77.1195 790.7 75.77635 790.7 74.1195C790.7 72.46264 792.04315 71.1195 793.7 71.1195C795.3569 71.1195 796.7 72.46264 796.7 74.1195Z" fill-rule="nonzero"/><path fill="#000000" d="M446.79688 477.7L446.79688 471.48126L447.73438 471.48126L447.73438 472.35626Q448.42188 471.34064 449.71875 471.34064Q450.28125 471.34064 450.75 471.54376Q451.23438 471.7469 451.46875 472.075Q451.70312 472.40314 451.79688 472.84064Q451.84375 473.1375 451.84375 473.8719L451.84375 477.7L450.79688 477.7L450.79688 473.91876Q450.79688 473.2625 450.67188 472.95Q450.54688 472.6375 450.23438 472.45Q449.92188 472.2469 449.5 472.2469Q448.82812 472.2469 448.32812 472.6844Q447.84375 473.10626 447.84375 474.29376L447.84375 477.7L446.79688 477.7Z" fill-rule="nonzero"/><path fill="#000000" d="M36.30001 274.63644L30.081263 274.63644L30.081263 273.69894L30.956263 273.69894Q30.487513 273.40207 30.221888 272.9177Q29.940638 272.43332 29.940638 271.80832Q29.940638 271.12082 30.221888 270.68332Q30.503138 270.2302 31.018763 270.05832Q29.940638 269.30832 29.940638 268.13644Q29.940638 267.19894 30.456263 266.71457Q30.956263 266.21457 32.034386 266.21457L36.30001 266.21457L36.30001 267.26144L32.378136 267.26144Q31.753138 267.26144 31.471888 267.37082Q31.190638 267.46457 31.018763 267.7302Q30.846888 267.99582 30.846888 268.37082Q30.846888 269.02707 31.284388 269.46457Q31.721888 269.88644 32.690636 269.88644L36.30001 269.88644L36.30001 270.94894L32.253136 270.94894Q31.550013 270.94894 31.206263 271.21457Q30.846888 271.46457 30.846888 272.0427Q30.846888 272.49582 31.081263 272.87082Q31.315638 273.24582 31.768763 273.4177Q32.221886 273.58957 33.065636 273.58957L36.30001 273.58957L36.30001 274.63644ZM28.925013 264.63644L27.706263 264.63644L27.706263 263.57394L28.925013 263.57394L28.925013 264.63644ZM36.30001 264.63644L30.081263 264.63644L30.081263 263.57394L36.30001 263.57394L36.30001 264.63644ZM34.01876 257.57394L34.159386 256.5427Q35.221886 256.71457 35.83126 257.4177Q36.440636 258.12082 36.440636 259.13644Q36.440636 260.4177 35.61251 261.19894Q34.76876 261.96457 33.20626 261.96457Q32.20626 261.96457 31.456263 261.63644Q30.690638 261.2927 30.315638 260.62082Q29.940638 259.93332 29.940638 259.12082Q29.940638 258.12082 30.456263 257.4802Q30.956263 256.82394 31.909388 256.63644L32.065636 257.6677Q31.440638 257.80832 31.128138 258.18332Q30.800013 258.55832 30.800013 259.08957Q30.800013 259.88644 31.378138 260.38644Q31.940638 260.88644 33.17501 260.88644Q34.440636 260.88644 35.003136 260.40207Q35.565636 259.9177 35.565636 259.15207Q35.565636 258.52707 35.190636 258.12082Q34.815636 257.69894 34.01876 257.57394ZM36.30001 255.65208L30.081263 255.65208L30.081263 254.69896L31.018763 254.69896Q30.362513 254.33958 30.159388 254.04271Q29.940638 253.73021 29.940638 253.35521Q29.940638 252.82396 30.268763 252.27708L31.253138 252.63646Q31.018763 253.02708 31.018763 253.40208Q31.018763 253.76146 31.237513 254.04271Q31.440638 254.30833 31.815638 254.41771Q32.378136 254.60521 33.034386 254.60521L36.30001 254.60521L36.30001 255.65208ZM33.190636 252.02708Q31.456263 252.02708 30.628138 251.07396Q29.940638 250.27708 29.940638 249.12083Q29.940638 247.83958 30.784388 247.02708Q31.612513 246.19896 33.096886 246.19896Q34.30001 246.19896 34.98751 246.55833Q35.67501 246.91771 36.065636 247.62083Q36.440636 248.30833 36.440636 249.12083Q36.440636 250.41771 35.61251 251.23021Q34.76876 252.02708 33.190636 252.02708ZM33.190636 250.94896Q34.378136 250.94896 34.971886 250.43333Q35.565636 249.90208 35.565636 249.12083Q35.565636 248.32396 34.971886 247.80833Q34.378136 247.29271 33.159386 247.29271Q32.003136 247.29271 31.409388 247.82396Q30.815638 248.33958 30.815638 249.12083Q30.815638 249.90208 31.409388 250.43333Q31.987513 250.94896 33.190636 250.94896ZM34.440636 245.05833L34.284386 244.02708Q34.909386 243.93333 35.23751 243.54271Q35.565636 243.13646 35.565636 242.40208Q35.565636 241.68333 35.284386 241.33958Q34.98751 240.98021 34.58126 240.98021Q34.221886 240.98021 34.01876 241.29271Q33.878136 241.51146 33.659386 242.37083Q33.36251 243.52708 33.159386 243.98021Q32.940636 244.41771 32.565636 244.65208Q32.190636 244.88646 31.721888 244.88646Q31.315638 244.88646 30.956263 244.69896Q30.596888 244.51146 30.362513 244.18333Q30.190638 243.93333 30.065638 243.51146Q29.940638 243.08958 29.940638 242.58958Q29.940638 241.87083 30.159388 241.32396Q30.362513 240.76146 30.721888 240.49583Q31.081263 240.23021 31.675013 240.13646L31.815638 241.16771Q31.346888 241.23021 31.081263 241.57396Q30.800013 241.90208 30.800013 242.52708Q30.800013 243.24583 31.050013 243.55833Q31.284388 243.87083 31.612513 243.87083Q31.815638 243.87083 31.971888 243.74583Q32.14376 243.60521 32.253136 243.33958Q32.315636 243.18333 32.51876 242.40208Q32.83126 241.27708 33.01876 240.83958Q33.20626 240.40208 33.565636 240.15208Q33.92501 239.90208 34.471886 239.90208Q35.003136 239.90208 35.471886 240.21458Q35.92501 240.51146 36.190636 241.08958Q36.440636 241.66771 36.440636 242.40208Q36.440636 243.62083 35.940636 244.26146Q35.42501 244.88646 34.440636 245.05833Z" fill-rule="nonzero"/><path fill="#000000" d="M92.8 428.46564Q92.8 426.9344 93.1125 426.0125Q93.425 425.075 94.03438 424.575Q94.65938 424.075 95.59688 424.075Q96.28438 424.075 96.8 424.35626Q97.33125 424.6375 97.675 425.16876Q98.01875 425.6844 98.20625 426.4344Q98.39375 427.1844 98.39375 428.46564Q98.39375 429.98126 98.08125 430.90314Q97.78438 431.825 97.15938 432.34064Q96.55 432.84064 95.59688 432.84064Q94.3625 432.84064 93.64375 431.95Q92.8 430.8875 92.8 428.46564ZM93.87813 428.46564Q93.87813 430.575 94.37813 431.27814Q94.87813 431.98126 95.59688 431.98126Q96.33125 431.98126 96.81563 431.27814Q97.31563 430.575 97.31563 428.46564Q97.31563 426.34064 96.81563 425.65314Q96.33125 424.95 95.58125 424.95Q94.8625 424.95 94.425 425.5594Q93.87813 426.34064 93.87813 428.46564Z" fill-rule="nonzero"/><path fill="#000000" d="M64.8 341.56668L65.90938 341.47293Q66.03438 342.28543 66.47188 342.69168Q66.925 343.09793 67.56563 343.09793Q68.31563 343.09793 68.84688 342.5198Q69.37813 341.94168 69.37813 341.00418Q69.37813 340.09793 68.8625 339.5823Q68.3625 339.05106 67.53438 339.05106Q67.03438 339.05106 66.6125 339.28543Q66.20625 339.5198 65.97188 339.87918L64.9875 339.75418L65.81563 335.34793L70.09688 335.34793L70.09688 336.34793L66.65938 336.34793L66.20625 338.66043Q66.97188 338.11356 67.81563 338.11356Q68.94063 338.11356 69.70625 338.8948Q70.4875 339.67606 70.4875 340.91043Q70.4875 342.06668 69.81563 342.92606Q68.9875 343.9573 67.56563 343.9573Q66.39375 343.9573 65.64375 343.30106Q64.90938 342.6448 64.8 341.56668ZM71.8 339.5823Q71.8 338.05106 72.1125 337.12918Q72.425 336.19168 73.03438 335.69168Q73.65938 335.19168 74.59688 335.19168Q75.28438 335.19168 75.8 335.47293Q76.33125 335.75418 76.675 336.28543Q77.01875 336.80106 77.20625 337.55106Q77.39375 338.30106 77.39375 339.5823Q77.39375 341.09793 77.08125 342.0198Q76.78438 342.94168 76.15938 343.4573Q75.55 343.9573 74.59688 343.9573Q73.3625 343.9573 72.64375 343.06668Q71.8 342.00418 71.8 339.5823ZM72.87813 339.5823Q72.87813 341.69168 73.37813 342.3948Q73.87813 343.09793 74.59688 343.09793Q75.33125 343.09793 75.81563 342.3948Q76.31563 341.69168 76.31563 339.5823Q76.31563 337.4573 75.81563 336.7698Q75.33125 336.06668 74.58125 336.06668Q73.8625 336.06668 73.425 336.67606Q72.87813 337.4573 72.87813 339.5823ZM78.8 339.5823Q78.8 338.05106 79.1125 337.12918Q79.425 336.19168 80.03438 335.69168Q80.65938 335.19168 81.59688 335.19168Q82.28438 335.19168 82.8 335.47293Q83.33125 335.75418 83.675 336.28543Q84.01875 336.80106 84.20625 337.55106Q84.39375 338.30106 84.39375 339.5823Q84.39375 341.09793 84.08125 342.0198Q83.78438 342.94168 83.15938 343.4573Q82.55 343.9573 81.59688 343.9573Q80.3625 343.9573 79.64375 343.06668Q78.8 342.00418 78.8 339.5823ZM79.87813 339.5823Q79.87813 341.69168 80.37813 342.3948Q80.87813 343.09793 81.59688 343.09793Q82.33125 343.09793 82.81563 342.3948Q83.31563 341.69168 83.31563 339.5823Q83.31563 337.4573 82.81563 336.7698Q82.33125 336.06668 81.58125 336.06668Q80.8625 336.06668 80.425 336.67606Q79.87813 337.4573 79.87813 339.5823ZM85.8 339.5823Q85.8 338.05106 86.1125 337.12918Q86.425 336.19168 87.03438 335.69168Q87.65938 335.19168 88.59688 335.19168Q89.28438 335.19168 89.8 335.47293Q90.33125 335.75418 90.675 336.28543Q91.01875 336.80106 91.20625 337.55106Q91.39375 338.30106 91.39375 339.5823Q91.39375 341.09793 91.08125 342.0198Q90.78438 342.94168 90.15938 343.4573Q89.55 343.9573 88.59688 343.9573Q87.3625 343.9573 86.64375 343.06668Q85.8 342.00418 85.8 339.5823ZM86.87813 339.5823Q86.87813 341.69168 87.37813 342.3948Q87.87813 343.09793 88.59688 343.09793Q89.33125 343.09793 89.81563 342.3948Q90.31563 341.69168 90.31563 339.5823Q90.31563 337.4573 89.81563 336.7698Q89.33125 336.06668 88.58125 336.06668Q87.8625 336.06668 87.425 336.67606Q86.87813 337.4573 86.87813 339.5823ZM92.8 339.5823Q92.8 338.05106 93.1125 337.12918Q93.425 336.19168 94.03438 335.69168Q94.65938 335.19168 95.59688 335.19168Q96.28438 335.19168 96.8 335.47293Q97.33125 335.75418 97.675 336.28543Q98.01875 336.80106 98.20625 337.55106Q98.39375 338.30106 98.39375 339.5823Q98.39375 341.09793 98.08125 342.0198Q97.78438 342.94168 97.15938 343.4573Q96.55 343.9573 95.59688 343.9573Q94.3625 343.9573 93.64375 343.06668Q92.8 342.00418 92.8 339.5823ZM93.87813 339.5823Q93.87813 341.69168 94.37813 342.3948Q94.87813 343.09793 95.59688 343.09793Q96.33125 343.09793 96.81563 342.3948Q97.31563 341.69168 97.31563 339.5823Q97.31563 337.4573 96.81563 336.7698Q96.33125 336.06668 95.58125 336.06668Q94.8625 336.06668 94.425 336.67606Q93.87813 337.4573 93.87813 339.5823Z" fill-rule="nonzero"/><path fill="#000000" d="M61.76875 254.93333L60.721874 254.93333L60.721874 248.21458Q60.33125 248.57396 59.70625 248.94896Q59.096874 249.30833 58.6125 249.48021L58.6125 248.46458Q59.4875 248.04271 60.14375 247.46458Q60.815624 246.87083 61.096874 246.30833L61.76875 246.30833L61.76875 254.93333ZM64.8 250.69896Q64.8 249.16771 65.1125 248.24583Q65.425 247.30833 66.03438 246.80833Q66.65938 246.30833 67.59688 246.30833Q68.28438 246.30833 68.8 246.58958Q69.33125 246.87083 69.675 247.40208Q70.01875 247.91771 70.20625 248.66771Q70.39375 249.41771 70.39375 250.69896Q70.39375 252.21458 70.08125 253.13646Q69.78438 254.05833 69.15938 254.57396Q68.55 255.07396 67.59688 255.07396Q66.3625 255.07396 65.64375 254.18333Q64.8 253.12083 64.8 250.69896ZM65.87813 250.69896Q65.87813 252.80833 66.37813 253.51146Q66.87813 254.21458 67.59688 254.21458Q68.33125 254.21458 68.81563 253.51146Q69.31563 252.80833 69.31563 250.69896Q69.31563 248.57396 68.81563 247.88646Q68.33125 247.18333 67.58125 247.18333Q66.8625 247.18333 66.425 247.79271Q65.87813 248.57396 65.87813 250.69896ZM71.8 250.69896Q71.8 249.16771 72.1125 248.24583Q72.425 247.30833 73.03438 246.80833Q73.65938 246.30833 74.59688 246.30833Q75.28438 246.30833 75.8 246.58958Q76.33125 246.87083 76.675 247.40208Q77.01875 247.91771 77.20625 248.66771Q77.39375 249.41771 77.39375 250.69896Q77.39375 252.21458 77.08125 253.13646Q76.78438 254.05833 76.15938 254.57396Q75.55 255.07396 74.59688 255.07396Q73.3625 255.07396 72.64375 254.18333Q71.8 253.12083 71.8 250.69896ZM72.87813 250.69896Q72.87813 252.80833 73.37813 253.51146Q73.87813 254.21458 74.59688 254.21458Q75.33125 254.21458 75.81563 253.51146Q76.31563 252.80833 76.31563 250.69896Q76.31563 248.57396 75.81563 247.88646Q75.33125 247.18333 74.58125 247.18333Q73.8625 247.18333 73.425 247.79271Q72.87813 248.57396 72.87813 250.69896ZM78.8 250.69896Q78.8 249.16771 79.1125 248.24583Q79.425 247.30833 80.03438 246.80833Q80.65938 246.30833 81.59688 246.30833Q82.28438 246.30833 82.8 246.58958Q83.33125 246.87083 83.675 247.40208Q84.01875 247.91771 84.20625 248.66771Q84.39375 249.41771 84.39375 250.69896Q84.39375 252.21458 84.08125 253.13646Q83.78438 254.05833 83.15938 254.57396Q82.55 255.07396 81.59688 255.07396Q80.3625 255.07396 79.64375 254.18333Q78.8 253.12083 78.8 250.69896ZM79.87813 250.69896Q79.87813 252.80833 80.37813 253.51146Q80.87813 254.21458 81.59688 254.21458Q82.33125 254.21458 82.81563 253.51146Q83.31563 252.80833 83.31563 250.69896Q83.31563 248.57396 82.81563 247.88646Q82.33125 247.18333 81.58125 247.18333Q80.8625 247.18333 80.425 247.79271Q79.87813 248.57396 79.87813 250.69896ZM85.8 250.69896Q85.8 249.16771 86.1125 248.24583Q86.425 247.30833 87.03438 246.80833Q87.65938 246.30833 88.59688 246.30833Q89.28438 246.30833 89.8 246.58958Q90.33125 246.87083 90.675 247.40208Q91.01875 247.91771 91.20625 248.66771Q91.39375 249.41771 91.39375 250.69896Q91.39375 252.21458 91.08125 253.13646Q90.78438 254.05833 90.15938 254.57396Q89.55 255.07396 88.59688 255.07396Q87.3625 255.07396 86.64375 254.18333Q85.8 253.12083 85.8 250.69896ZM86.87813 250.69896Q86.87813 252.80833 87.37813 253.51146Q87.87813 254.21458 88.59688 254.21458Q89.33125 254.21458 89.81563 253.51146Q90.31563 252.80833 90.31563 250.69896Q90.31563 248.57396 89.81563 247.88646Q89.33125 247.18333 88.58125 247.18333Q87.8625 247.18333 87.425 247.79271Q86.87813 248.57396 86.87813 250.69896ZM92.8 250.69896Q92.8 249.16771 93.1125 248.24583Q93.425 247.30833 94.03438 246.80833Q94.65938 246.30833 95.59688 246.30833Q96.28438 246.30833 96.8 246.58958Q97.33125 246.87083 97.675 247.40208Q98.01875 247.91771 98.20625 248.66771Q98.39375 249.41771 98.39375 250.69896Q98.39375 252.21458 98.08125 253.13646Q97.78438 254.05833 97.15938 254.57396Q96.55 255.07396 95.59688 255.07396Q94.3625 255.07396 93.64375 254.18333Q92.8 253.12083 92.8 250.69896ZM93.87813 250.69896Q93.87813 252.80833 94.37813 253.51146Q94.87813 254.21458 95.59688 254.21458Q96.33125 254.21458 96.81563 253.51146Q97.31563 252.80833 97.31563 250.69896Q97.31563 248.57396 96.81563 247.88646Q96.33125 247.18333 95.58125 247.18333Q94.8625 247.18333 94.425 247.79271Q93.87813 248.57396 93.87813 250.69896Z" fill-rule="nonzero"/><path fill="#000000" d="M61.76875 166.05L60.721874 166.05L60.721874 159.33125Q60.33125 159.69063 59.70625 160.06563Q59.096874 160.425 58.6125 160.59688L58.6125 159.58125Q59.4875 159.15938 60.14375 158.58125Q60.815624 157.9875 61.096874 157.425L61.76875 157.425L61.76875 166.05ZM64.8 163.8L65.90938 163.70625Q66.03438 164.51875 66.47188 164.925Q66.925 165.33125 67.56563 165.33125Q68.31563 165.33125 68.84688 164.75313Q69.37813 164.175 69.37813 163.2375Q69.37813 162.33125 68.8625 161.81563Q68.3625 161.28438 67.53438 161.28438Q67.03438 161.28438 66.6125 161.51875Q66.20625 161.75313 65.97188 162.1125L64.9875 161.9875L65.81563 157.58125L70.09688 157.58125L70.09688 158.58125L66.65938 158.58125L66.20625 160.89375Q66.97188 160.34688 67.81563 160.34688Q68.94063 160.34688 69.70625 161.12813Q70.4875 161.90938 70.4875 163.14375Q70.4875 164.3 69.81563 165.15938Q68.9875 166.19063 67.56563 166.19063Q66.39375 166.19063 65.64375 165.53438Q64.90938 164.87813 64.8 163.8ZM71.8 161.81563Q71.8 160.28438 72.1125 159.3625Q72.425 158.425 73.03438 157.925Q73.65938 157.425 74.59688 157.425Q75.28438 157.425 75.8 157.70625Q76.33125 157.9875 76.675 158.51875Q77.01875 159.03438 77.20625 159.78438Q77.39375 160.53438 77.39375 161.81563Q77.39375 163.33125 77.08125 164.25313Q76.78438 165.175 76.15938 165.69063Q75.55 166.19063 74.59688 166.19063Q73.3625 166.19063 72.64375 165.3Q71.8 164.2375 71.8 161.81563ZM72.87813 161.81563Q72.87813 163.925 73.37813 164.62813Q73.87813 165.33125 74.59688 165.33125Q75.33125 165.33125 75.81563 164.62813Q76.31563 163.925 76.31563 161.81563Q76.31563 159.69063 75.81563 159.00313Q75.33125 158.3 74.58125 158.3Q73.8625 158.3 73.425 158.90938Q72.87813 159.69063 72.87813 161.81563ZM78.8 161.81563Q78.8 160.28438 79.1125 159.3625Q79.425 158.425 80.03438 157.925Q80.65938 157.425 81.59688 157.425Q82.28438 157.425 82.8 157.70625Q83.33125 157.9875 83.675 158.51875Q84.01875 159.03438 84.20625 159.78438Q84.39375 160.53438 84.39375 161.81563Q84.39375 163.33125 84.08125 164.25313Q83.78438 165.175 83.15938 165.69063Q82.55 166.19063 81.59688 166.19063Q80.3625 166.19063 79.64375 165.3Q78.8 164.2375 78.8 161.81563ZM79.87813 161.81563Q79.87813 163.925 80.37813 164.62813Q80.87813 165.33125 81.59688 165.33125Q82.33125 165.33125 82.81563 164.62813Q83.31563 163.925 83.31563 161.81563Q83.31563 159.69063 82.81563 159.00313Q82.33125 158.3 81.58125 158.3Q80.8625 158.3 80.425 158.90938Q79.87813 159.69063 79.87813 161.81563ZM85.8 161.81563Q85.8 160.28438 86.1125 159.3625Q86.425 158.425 87.03438 157.925Q87.65938 157.425 88.59688 157.425Q89.28438 157.425 89.8 157.70625Q90.33125 157.9875 90.675 158.51875Q91.01875 159.03438 91.20625 159.78438Q91.39375 160.53438 91.39375 161.81563Q91.39375 163.33125 91.08125 164.25313Q90.78438 165.175 90.15938 165.69063Q89.55 166.19063 88.59688 166.19063Q87.3625 166.19063 86.64375 165.3Q85.8 164.2375 85.8 161.81563ZM86.87813 161.81563Q86.87813 163.925 87.37813 164.62813Q87.87813 165.33125 88.59688 165.33125Q89.33125 165.33125 89.81563 164.62813Q90.31563 163.925 90.31563 161.81563Q90.31563 159.69063 89.81563 159.00313Q89.33125 158.3 88.58125 158.3Q87.8625 158.3 87.425 158.90938Q86.87813 159.69063 86.87813 161.81563ZM92.8 161.81563Q92.8 160.28438 93.1125 159.3625Q93.425 158.425 94.03438 157.925Q94.65938 157.425 95.59688 157.425Q96.28438 157.425 96.8 157.70625Q97.33125 157.9875 97.675 158.51875Q98.01875 159.03438 98.20625 159.78438Q98.39375 160.53438 98.39375 161.81563Q98.39375 163.33125 98.08125 164.25313Q97.78438 165.175 97.15938 165.69063Q96.55 166.19063 95.59688 166.19063Q94.3625 166.19063 93.64375 165.3Q92.8 164.2375 92.8 161.81563ZM93.87813 161.81563Q93.87813 163.925 94.37813 164.62813Q94.87813 165.33125 95.59688 165.33125Q96.33125 165.33125 96.81563 164.62813Q97.31563 163.925 97.31563 161.81563Q97.31563 159.69063 96.81563 159.00313Q96.33125 158.3 95.58125 158.3Q94.8625 158.3 94.425 158.90938Q93.87813 159.69063 93.87813 161.81563Z" fill-rule="nonzero"/><path fill="#000000" d="M63.346874 76.15104L63.346874 77.166664L57.659374 77.166664Q57.659374 76.791664 57.784374 76.43229Q58.003124 75.854164 58.471874 75.291664Q58.95625 74.729164 59.8625 73.99479Q61.26875 72.83854 61.753124 72.166664Q62.253124 71.49479 62.253124 70.90104Q62.253124 70.27604 61.8 69.854164Q61.346874 69.416664 60.628124 69.416664Q59.8625 69.416664 59.409374 69.86979Q58.95625 70.322914 58.940624 71.135414L57.8625 71.02604Q57.971874 69.80729 58.690624 69.18229Q59.425 68.541664 60.659374 68.541664Q61.89375 68.541664 62.6125 69.229164Q63.33125 69.916664 63.33125 70.93229Q63.33125 71.447914 63.1125 71.947914Q62.909374 72.43229 62.409374 72.99479Q61.925 73.541664 60.8 74.49479Q59.846874 75.291664 59.565624 75.58854Q59.3 75.86979 59.128124 76.15104L63.346874 76.15104ZM64.8 72.93229Q64.8 71.40104 65.1125 70.479164Q65.425 69.541664 66.03438 69.041664Q66.65938 68.541664 67.59688 68.541664Q68.28438 68.541664 68.8 68.822914Q69.33125 69.104164 69.675 69.635414Q70.01875 70.15104 70.20625 70.90104Q70.39375 71.65104 70.39375 72.93229Q70.39375 74.447914 70.08125 75.36979Q69.78438 76.291664 69.15938 76.80729Q68.55 77.30729 67.59688 77.30729Q66.3625 77.30729 65.64375 76.416664Q64.8 75.354164 64.8 72.93229ZM65.87813 72.93229Q65.87813 75.041664 66.37813 75.74479Q66.87813 76.447914 67.59688 76.447914Q68.33125 76.447914 68.81563 75.74479Q69.31563 75.041664 69.31563 72.93229Q69.31563 70.80729 68.81563 70.11979Q68.33125 69.416664 67.58125 69.416664Q66.8625 69.416664 66.425 70.02604Q65.87813 70.80729 65.87813 72.93229ZM71.8 72.93229Q71.8 71.40104 72.1125 70.479164Q72.425 69.541664 73.03438 69.041664Q73.65938 68.541664 74.59688 68.541664Q75.28438 68.541664 75.8 68.822914Q76.33125 69.104164 76.675 69.635414Q77.01875 70.15104 77.20625 70.90104Q77.39375 71.65104 77.39375 72.93229Q77.39375 74.447914 77.08125 75.36979Q76.78438 76.291664 76.15938 76.80729Q75.55 77.30729 74.59688 77.30729Q73.3625 77.30729 72.64375 76.416664Q71.8 75.354164 71.8 72.93229ZM72.87813 72.93229Q72.87813 75.041664 73.37813 75.74479Q73.87813 76.447914 74.59688 76.447914Q75.33125 76.447914 75.81563 75.74479Q76.31563 75.041664 76.31563 72.93229Q76.31563 70.80729 75.81563 70.11979Q75.33125 69.416664 74.58125 69.416664Q73.8625 69.416664 73.425 70.02604Q72.87813 70.80729 72.87813 72.93229ZM78.8 72.93229Q78.8 71.40104 79.1125 70.479164Q79.425 69.541664 80.03438 69.041664Q80.65938 68.541664 81.59688 68.541664Q82.28438 68.541664 82.8 68.822914Q83.33125 69.104164 83.675 69.635414Q84.01875 70.15104 84.20625 70.90104Q84.39375 71.65104 84.39375 72.93229Q84.39375 74.447914 84.08125 75.36979Q83.78438 76.291664 83.15938 76.80729Q82.55 77.30729 81.59688 77.30729Q80.3625 77.30729 79.64375 76.416664Q78.8 75.354164 78.8 72.93229ZM79.87813 72.93229Q79.87813 75.041664 80.37813 75.74479Q80.87813 76.447914 81.59688 76.447914Q82.33125 76.447914 82.81563 75.74479Q83.31563 75.041664 83.31563 72.93229Q83.31563 70.80729 82.81563 70.11979Q82.33125 69.416664 81.58125 69.416664Q80.8625 69.416664 80.425 70.02604Q79.87813 70.80729 79.87813 72.93229ZM85.8 72.93229Q85.8 71.40104 86.1125 70.479164Q86.425 69.541664 87.03438 69.041664Q87.65938 68.541664 88.59688 68.541664Q89.28438 68.541664 89.8 68.822914Q90.33125 69.104164 90.675 69.635414Q91.01875 70.15104 91.20625 70.90104Q91.39375 71.65104 91.39375 72.93229Q91.39375 74.447914 91.08125 75.36979Q90.78438 76.291664 90.15938 76.80729Q89.55 77.30729 88.59688 77.30729Q87.3625 77.30729 86.64375 76.416664Q85.8 75.354164 85.8 72.93229ZM86.87813 72.93229Q86.87813 75.041664 87.37813 75.74479Q87.87813 76.447914 88.59688 76.447914Q89.33125 76.447914 89.81563 75.74479Q90.31563 75.041664 90.31563 72.93229Q90.31563 70.80729 89.81563 70.11979Q89.33125 69.416664 88.58125 69.416664Q87.8625 69.416664 87.425 70.02604Q86.87813 70.80729 86.87813 72.93229ZM92.8 72.93229Q92.8 71.40104 93.1125 70.479164Q93.425 69.541664 94.03438 69.041664Q94.65938 68.541664 95.59688 68.541664Q96.28438 68.541664 96.8 68.822914Q97.33125 69.104164 97.675 69.635414Q98.01875 70.15104 98.20625 70.90104Q98.39375 71.65104 98.39375 72.93229Q98.39375 74.447914 98.08125 75.36979Q97.78438 76.291664 97.15938 76.80729Q96.55 77.30729 95.59688 77.30729Q94.3625 77.30729 93.64375 76.416664Q92.8 75.354164 92.8 72.93229ZM93.87813 72.93229Q93.87813 75.041664 94.37813 75.74479Q94.87813 76.447914 95.59688 76.447914Q96.33125 76.447914 96.81563 75.74479Q97.31563 75.041664 97.31563 72.93229Q97.31563 70.80729 96.81563 70.11979Q96.33125 69.416664 95.58125 69.416664Q94.8625 69.416664 94.425 70.02604Q93.87813 70.80729 93.87813 72.93229Z" fill-rule="nonzero"/><path fill="#000000" d="M226.52136 444.6844L226.52136 445.7L220.83386 445.7Q220.83386 445.325 220.95886 444.96564Q221.17761 444.3875 221.64636 443.825Q222.13074 443.2625 223.03699 442.52814Q224.44324 441.3719 224.92761 440.7Q225.42761 440.02814 225.42761 439.4344Q225.42761 438.8094 224.97449 438.3875Q224.52136 437.95 223.80261 437.95Q223.03699 437.95 222.58386 438.40314Q222.13074 438.85626 222.11511 439.66876L221.03699 439.5594Q221.14636 438.34064 221.86511 437.71564Q222.59949 437.075 223.83386 437.075Q225.06824 437.075 225.78699 437.7625Q226.50574 438.45 226.50574 439.46564Q226.50574 439.98126 226.28699 440.48126Q226.08386 440.96564 225.58386 441.52814Q225.09949 442.075 223.97449 443.02814Q223.02136 443.825 222.74011 444.1219Q222.47449 444.40314 222.30261 444.6844L226.52136 444.6844ZM227.97449 441.46564Q227.97449 439.9344 228.28699 439.0125Q228.59949 438.075 229.20886 437.575Q229.83386 437.075 230.77136 437.075Q231.45886 437.075 231.97449 437.35626Q232.50574 437.6375 232.84949 438.16876Q233.19324 438.6844 233.38074 439.4344Q233.56824 440.1844 233.56824 441.46564Q233.56824 442.98126 233.25574 443.90314Q232.95886 444.825 232.33386 445.34064Q231.72449 445.84064 230.77136 445.84064Q229.53699 445.84064 228.81824 444.95Q227.97449 443.8875 227.97449 441.46564ZM229.05261 441.46564Q229.05261 443.575 229.55261 444.27814Q230.05261 444.98126 230.77136 444.98126Q231.50574 444.98126 231.99011 444.27814Q232.49011 443.575 232.49011 441.46564Q232.49011 439.34064 231.99011 438.65314Q231.50574 437.95 230.75574 437.95Q230.03699 437.95 229.59949 438.5594Q229.05261 439.34064 229.05261 441.46564ZM234.97449 441.46564Q234.97449 439.9344 235.28699 439.0125Q235.59949 438.075 236.20886 437.575Q236.83386 437.075 237.77136 437.075Q238.45886 437.075 238.97449 437.35626Q239.50574 437.6375 239.84949 438.16876Q240.19324 438.6844 240.38074 439.4344Q240.56824 440.1844 240.56824 441.46564Q240.56824 442.98126 240.25574 443.90314Q239.95886 444.825 239.33386 445.34064Q238.72449 445.84064 237.77136 445.84064Q236.53699 445.84064 235.81824 444.95Q234.97449 443.8875 234.97449 441.46564ZM236.05261 441.46564Q236.05261 443.575 236.55261 444.27814Q237.05261 444.98126 237.77136 444.98126Q238.50574 444.98126 238.99011 444.27814Q239.49011 443.575 239.49011 441.46564Q239.49011 439.34064 238.99011 438.65314Q238.50574 437.95 237.75574 437.95Q237.03699 437.95 236.59949 438.5594Q236.05261 439.34064 236.05261 441.46564ZM242.56824 445.7L242.56824 444.4969L243.77136 444.4969L243.77136 445.7L242.56824 445.7ZM244.97449 441.46564Q244.97449 439.9344 245.28699 439.0125Q245.59949 438.075 246.20886 437.575Q246.83386 437.075 247.77136 437.075Q248.45886 437.075 248.97449 437.35626Q249.50574 437.6375 249.84949 438.16876Q250.19324 438.6844 250.38074 439.4344Q250.56824 440.1844 250.56824 441.46564Q250.56824 442.98126 250.25574 443.90314Q249.95886 444.825 249.33386 445.34064Q248.72449 445.84064 247.77136 445.84064Q246.53699 445.84064 245.81824 444.95Q244.97449 443.8875 244.97449 441.46564ZM246.05261 441.46564Q246.05261 443.575 246.55261 444.27814Q247.05261 444.98126 247.77136 444.98126Q248.50574 444.98126 248.99011 444.27814Q249.49011 443.575 249.49011 441.46564Q249.49011 439.34064 248.99011 438.65314Q248.50574 437.95 247.75574 437.95Q247.03699 437.95 246.59949 438.5594Q246.05261 439.34064 246.05261 441.46564ZM251.97449 441.46564Q251.97449 439.9344 252.28699 439.0125Q252.59949 438.075 253.20886 437.575Q253.83386 437.075 254.77136 437.075Q255.45886 437.075 255.97449 437.35626Q256.50574 437.6375 256.8495 438.16876Q257.19324 438.6844 257.38074 439.4344Q257.56824 440.1844 257.56824 441.46564Q257.56824 442.98126 257.25574 443.90314Q256.95886 444.825 256.33386 445.34064Q255.72449 445.84064 254.77136 445.84064Q253.53699 445.84064 252.81824 444.95Q251.97449 443.8875 251.97449 441.46564ZM253.05261 441.46564Q253.05261 443.575 253.55261 444.27814Q254.05261 444.98126 254.77136 444.98126Q255.50574 444.98126 255.99011 444.27814Q256.4901 443.575 256.4901 441.46564Q256.4901 439.34064 255.99011 438.65314Q255.50574 437.95 254.75574 437.95Q254.03699 437.95 253.59949 438.5594Q253.05261 439.34064 253.05261 441.46564ZM258.9745 441.46564Q258.9745 439.9344 259.287 439.0125Q259.5995 438.075 260.20886 437.575Q260.83386 437.075 261.77136 437.075Q262.45886 437.075 262.9745 437.35626Q263.50574 437.6375 263.8495 438.16876Q264.19324 438.6844 264.38074 439.4344Q264.56824 440.1844 264.56824 441.46564Q264.56824 442.98126 264.25574 443.90314Q263.95886 444.825 263.33386 445.34064Q262.7245 445.84064 261.77136 445.84064Q260.537 445.84064 259.81824 444.95Q258.9745 443.8875 258.9745 441.46564ZM260.0526 441.46564Q260.0526 443.575 260.5526 444.27814Q261.0526 444.98126 261.77136 444.98126Q262.50574 444.98126 262.9901 444.27814Q263.4901 443.575 263.4901 441.46564Q263.4901 439.34064 262.9901 438.65314Q262.50574 437.95 261.75574 437.95Q261.037 437.95 260.5995 438.5594Q260.0526 439.34064 260.0526 441.46564Z" fill-rule="nonzero"/><path fill="#000000" d="M362.03088 445.7L362.03088 443.6375L358.31213 443.6375L358.31213 442.66876L362.234 437.10626L363.09338 437.10626L363.09338 442.66876L364.24963 442.66876L364.24963 443.6375L363.09338 443.6375L363.09338 445.7L362.03088 445.7ZM362.03088 442.66876L362.03088 438.8094L359.34338 442.66876L362.03088 442.66876ZM365.65588 441.46564Q365.65588 439.9344 365.96838 439.0125Q366.28088 438.075 366.89026 437.575Q367.51526 437.075 368.45276 437.075Q369.14026 437.075 369.65588 437.35626Q370.18713 437.6375 370.53088 438.16876Q370.87463 438.6844 371.06213 439.4344Q371.24963 440.1844 371.24963 441.46564Q371.24963 442.98126 370.93713 443.90314Q370.64026 444.825 370.01526 445.34064Q369.40588 445.84064 368.45276 445.84064Q367.21838 445.84064 366.49963 444.95Q365.65588 443.8875 365.65588 441.46564ZM366.734 441.46564Q366.734 443.575 367.234 444.27814Q367.734 444.98126 368.45276 444.98126Q369.18713 444.98126 369.6715 444.27814Q370.1715 443.575 370.1715 441.46564Q370.1715 439.34064 369.6715 438.65314Q369.18713 437.95 368.43713 437.95Q367.71838 437.95 367.28088 438.5594Q366.734 439.34064 366.734 441.46564ZM372.65588 441.46564Q372.65588 439.9344 372.96838 439.0125Q373.28088 438.075 373.89026 437.575Q374.51526 437.075 375.45276 437.075Q376.14026 437.075 376.65588 437.35626Q377.18713 437.6375 377.53088 438.16876Q377.87463 438.6844 378.06213 439.4344Q378.24963 440.1844 378.24963 441.46564Q378.24963 442.98126 377.93713 443.90314Q377.64026 444.825 377.01526 445.34064Q376.40588 445.84064 375.45276 445.84064Q374.21838 445.84064 373.49963 444.95Q372.65588 443.8875 372.65588 441.46564ZM373.734 441.46564Q373.734 443.575 374.234 444.27814Q374.734 444.98126 375.45276 444.98126Q376.18713 444.98126 376.6715 444.27814Q377.1715 443.575 377.1715 441.46564Q377.1715 439.34064 376.6715 438.65314Q376.18713 437.95 375.43713 437.95Q374.71838 437.95 374.28088 438.5594Q373.734 439.34064 373.734 441.46564ZM380.24963 445.7L380.24963 444.4969L381.45276 444.4969L381.45276 445.7L380.24963 445.7ZM382.65588 441.46564Q382.65588 439.9344 382.96838 439.0125Q383.28088 438.075 383.89026 437.575Q384.51526 437.075 385.45276 437.075Q386.14026 437.075 386.65588 437.35626Q387.18713 437.6375 387.53088 438.16876Q387.87463 438.6844 388.06213 439.4344Q388.24963 440.1844 388.24963 441.46564Q388.24963 442.98126 387.93713 443.90314Q387.64026 444.825 387.01526 445.34064Q386.40588 445.84064 385.45276 445.84064Q384.21838 445.84064 383.49963 444.95Q382.65588 443.8875 382.65588 441.46564ZM383.734 441.46564Q383.734 443.575 384.234 444.27814Q384.734 444.98126 385.45276 444.98126Q386.18713 444.98126 386.6715 444.27814Q387.1715 443.575 387.1715 441.46564Q387.1715 439.34064 386.6715 438.65314Q386.18713 437.95 385.43713 437.95Q384.71838 437.95 384.28088 438.5594Q383.734 439.34064 383.734 441.46564ZM389.65588 441.46564Q389.65588 439.9344 389.96838 439.0125Q390.28088 438.075 390.89026 437.575Q391.51526 437.075 392.45276 437.075Q393.14026 437.075 393.65588 437.35626Q394.18713 437.6375 394.53088 438.16876Q394.87463 438.6844 395.06213 439.4344Q395.24963 440.1844 395.24963 441.46564Q395.24963 442.98126 394.93713 443.90314Q394.64026 444.825 394.01526 445.34064Q393.40588 445.84064 392.45276 445.84064Q391.21838 445.84064 390.49963 444.95Q389.65588 443.8875 389.65588 441.46564ZM390.734 441.46564Q390.734 443.575 391.234 444.27814Q391.734 444.98126 392.45276 444.98126Q393.18713 444.98126 393.6715 444.27814Q394.1715 443.575 394.1715 441.46564Q394.1715 439.34064 393.6715 438.65314Q393.18713 437.95 392.43713 437.95Q391.71838 437.95 391.28088 438.5594Q390.734 439.34064 390.734 441.46564ZM396.65588 441.46564Q396.65588 439.9344 396.96838 439.0125Q397.28088 438.075 397.89026 437.575Q398.51526 437.075 399.45276 437.075Q400.14026 437.075 400.65588 437.35626Q401.18713 437.6375 401.53088 438.16876Q401.87463 438.6844 402.06213 439.4344Q402.24963 440.1844 402.24963 441.46564Q402.24963 442.98126 401.93713 443.90314Q401.64026 444.825 401.01526 445.34064Q400.40588 445.84064 399.45276 445.84064Q398.21838 445.84064 397.49963 444.95Q396.65588 443.8875 396.65588 441.46564ZM397.734 441.46564Q397.734 443.575 398.234 444.27814Q398.734 444.98126 399.45276 444.98126Q400.18713 444.98126 400.6715 444.27814Q401.1715 443.575 401.1715 441.46564Q401.1715 439.34064 400.6715 438.65314Q400.18713 437.95 399.43713 437.95Q398.71838 437.95 398.28088 438.5594Q397.734 439.34064 397.734 441.46564Z" fill-rule="nonzero"/><path fill="#000000" d="M501.806 439.21564L500.75912 439.29376Q500.6185 438.66876 500.3685 438.3875Q499.931 437.9344 499.306 437.9344Q498.806 437.9344 498.41537 438.21564Q497.931 438.59064 497.63412 439.29376Q497.35287 439.98126 497.33725 441.2625Q497.71225 440.6844 498.25912 440.40314Q498.82162 440.1219 499.431 440.1219Q500.47787 440.1219 501.21225 440.90314Q501.96225 441.6844 501.96225 442.90314Q501.96225 443.71564 501.60287 444.41876Q501.25912 445.10626 500.64975 445.48126Q500.04037 445.84064 499.27475 445.84064Q497.94662 445.84064 497.1185 444.8719Q496.29037 443.90314 496.29037 441.6844Q496.29037 439.1844 497.21225 438.0594Q498.00912 437.075 499.3685 437.075Q500.38412 437.075 501.02475 437.65314Q501.681 438.21564 501.806 439.21564ZM497.50912 442.91876Q497.50912 443.46564 497.72787 443.96564Q497.96225 444.45 498.3685 444.71564Q498.79037 444.98126 499.25912 444.98126Q499.91537 444.98126 500.39975 444.45Q500.88412 443.90314 500.88412 442.98126Q500.88412 442.09064 500.39975 441.575Q499.931 441.0594 499.21225 441.0594Q498.4935 441.0594 497.9935 441.575Q497.50912 442.09064 497.50912 442.91876ZM503.33725 441.46564Q503.33725 439.9344 503.64975 439.0125Q503.96225 438.075 504.57162 437.575Q505.19662 437.075 506.13412 437.075Q506.82162 437.075 507.33725 437.35626Q507.8685 437.6375 508.21225 438.16876Q508.556 438.6844 508.7435 439.4344Q508.931 440.1844 508.931 441.46564Q508.931 442.98126 508.6185 443.90314Q508.32162 444.825 507.69662 445.34064Q507.08725 445.84064 506.13412 445.84064Q504.89975 445.84064 504.181 444.95Q503.33725 443.8875 503.33725 441.46564ZM504.41537 441.46564Q504.41537 443.575 504.91537 444.27814Q505.41537 444.98126 506.13412 444.98126Q506.8685 444.98126 507.35287 444.27814Q507.85287 443.575 507.85287 441.46564Q507.85287 439.34064 507.35287 438.65314Q506.8685 437.95 506.1185 437.95Q505.39975 437.95 504.96225 438.5594Q504.41537 439.34064 504.41537 441.46564ZM510.33725 441.46564Q510.33725 439.9344 510.64975 439.0125Q510.96225 438.075 511.57162 437.575Q512.19666 437.075 513.13416 437.075Q513.82166 437.075 514.3373 437.35626Q514.8685 437.6375 515.2123 438.16876Q515.556 438.6844 515.7435 439.4344Q515.931 440.1844 515.931 441.46564Q515.931 442.98126 515.6185 443.90314Q515.32166 444.825 514.69666 445.34064Q514.0873 445.84064 513.13416 445.84064Q511.89975 445.84064 511.181 444.95Q510.33725 443.8875 510.33725 441.46564ZM511.41537 441.46564Q511.41537 443.575 511.91537 444.27814Q512.4154 444.98126 513.13416 444.98126Q513.8685 444.98126 514.3529 444.27814Q514.8529 443.575 514.8529 441.46564Q514.8529 439.34064 514.3529 438.65314Q513.8685 437.95 513.1185 437.95Q512.3998 437.95 511.96225 438.5594Q511.41537 439.34064 511.41537 441.46564ZM517.931 445.7L517.931 444.4969L519.13416 444.4969L519.13416 445.7L517.931 445.7ZM520.3373 441.46564Q520.3373 439.9344 520.6498 439.0125Q520.9623 438.075 521.57166 437.575Q522.19666 437.075 523.13416 437.075Q523.82166 437.075 524.3373 437.35626Q524.8685 437.6375 525.2123 438.16876Q525.556 438.6844 525.7435 439.4344Q525.931 440.1844 525.931 441.46564Q525.931 442.98126 525.6185 443.90314Q525.32166 444.825 524.69666 445.34064Q524.0873 445.84064 523.13416 445.84064Q521.8998 445.84064 521.181 444.95Q520.3373 443.8875 520.3373 441.46564ZM521.4154 441.46564Q521.4154 443.575 521.9154 444.27814Q522.4154 444.98126 523.13416 444.98126Q523.8685 444.98126 524.3529 444.27814Q524.8529 443.575 524.8529 441.46564Q524.8529 439.34064 524.3529 438.65314Q523.8685 437.95 523.1185 437.95Q522.3998 437.95 521.9623 438.5594Q521.4154 439.34064 521.4154 441.46564ZM527.3373 441.46564Q527.3373 439.9344 527.6498 439.0125Q527.9623 438.075 528.57166 437.575Q529.19666 437.075 530.13416 437.075Q530.82166 437.075 531.3373 437.35626Q531.8685 437.6375 532.2123 438.16876Q532.556 438.6844 532.7435 439.4344Q532.931 440.1844 532.931 441.46564Q532.931 442.98126 532.6185 443.90314Q532.32166 444.825 531.69666 445.34064Q531.0873 445.84064 530.13416 445.84064Q528.8998 445.84064 528.181 444.95Q527.3373 443.8875 527.3373 441.46564ZM528.4154 441.46564Q528.4154 443.575 528.9154 444.27814Q529.4154 444.98126 530.13416 444.98126Q530.8685 444.98126 531.3529 444.27814Q531.8529 443.575 531.8529 441.46564Q531.8529 439.34064 531.3529 438.65314Q530.8685 437.95 530.1185 437.95Q529.3998 437.95 528.9623 438.5594Q528.4154 439.34064 528.4154 441.46564ZM534.3373 441.46564Q534.3373 439.9344 534.6498 439.0125Q534.9623 438.075 535.57166 437.575Q536.19666 437.075 537.13416 437.075Q537.82166 437.075 538.3373 437.35626Q538.8685 437.6375 539.2123 438.16876Q539.556 438.6844 539.7435 439.4344Q539.931 440.1844 539.931 441.46564Q539.931 442.98126 539.6185 443.90314Q539.32166 444.825 538.69666 445.34064Q538.0873 445.84064 537.13416 445.84064Q535.8998 445.84064 535.181 444.95Q534.3373 443.8875 534.3373 441.46564ZM535.4154 441.46564Q535.4154 443.575 535.9154 444.27814Q536.4154 444.98126 537.13416 444.98126Q537.8685 444.98126 538.3529 444.27814Q538.8529 443.575 538.8529 441.46564Q538.8529 439.34064 538.3529 438.65314Q537.8685 437.95 537.1185 437.95Q536.3998 437.95 535.9623 438.5594Q535.4154 439.34064 535.4154 441.46564Z" fill-rule="nonzero"/><path fill="#000000" d="M635.6436 441.04376Q634.98737 440.79376 634.65924 440.35626Q634.34674 439.90314 634.34674 439.29376Q634.34674 438.35626 635.0186 437.71564Q635.7061 437.075 636.8155 437.075Q637.9405 437.075 638.628 437.73126Q639.3155 438.3875 639.3155 439.325Q639.3155 439.91876 639.003 440.35626Q638.6905 440.79376 638.04987 441.04376Q638.84674 441.29376 639.253 441.8719Q639.65924 442.45 639.65924 443.2469Q639.65924 444.34064 638.878 445.09064Q638.11237 445.84064 636.8311 445.84064Q635.5655 445.84064 634.78424 445.09064Q634.003 444.34064 634.003 443.21564Q634.003 442.3719 634.42487 441.8094Q634.86237 441.2469 635.6436 441.04376ZM635.42487 439.2469Q635.42487 439.85626 635.8155 440.2469Q636.22174 440.6375 636.84674 440.6375Q637.4561 440.6375 637.84674 440.2625Q638.23737 439.8719 638.23737 439.3094Q638.23737 438.73126 637.8311 438.34064Q637.42487 437.9344 636.8311 437.9344Q636.22174 437.9344 635.8155 438.325Q635.42487 438.71564 635.42487 439.2469ZM635.09674 443.21564Q635.09674 443.66876 635.29987 444.09064Q635.5186 444.5125 635.9405 444.7469Q636.36237 444.98126 636.84674 444.98126Q637.59674 444.98126 638.0811 444.4969Q638.5811 444.0125 638.5811 443.2625Q638.5811 442.4969 638.0811 441.9969Q637.5811 441.4969 636.8155 441.4969Q636.0655 441.4969 635.5811 441.9969Q635.09674 442.48126 635.09674 443.21564ZM641.0186 441.46564Q641.0186 439.9344 641.3311 439.0125Q641.6436 438.075 642.253 437.575Q642.878 437.075 643.8155 437.075Q644.503 437.075 645.0186 437.35626Q645.54987 437.6375 645.8936 438.16876Q646.23737 438.6844 646.42487 439.4344Q646.61237 440.1844 646.61237 441.46564Q646.61237 442.98126 646.29987 443.90314Q646.003 444.825 645.378 445.34064Q644.7686 445.84064 643.8155 445.84064Q642.5811 445.84064 641.86237 444.95Q641.0186 443.8875 641.0186 441.46564ZM642.09674 441.46564Q642.09674 443.575 642.59674 444.27814Q643.09674 444.98126 643.8155 444.98126Q644.54987 444.98126 645.03424 444.27814Q645.53424 443.575 645.53424 441.46564Q645.53424 439.34064 645.03424 438.65314Q644.54987 437.95 643.79987 437.95Q643.0811 437.95 642.6436 438.5594Q642.09674 439.34064 642.09674 441.46564ZM648.0186 441.46564Q648.0186 439.9344 648.3311 439.0125Q648.6436 438.075 649.253 437.575Q649.878 437.075 650.8155 437.075Q651.503 437.075 652.0186 437.35626Q652.54987 437.6375 652.8936 438.16876Q653.23737 438.6844 653.42487 439.4344Q653.61237 440.1844 653.61237 441.46564Q653.61237 442.98126 653.29987 443.90314Q653.003 444.825 652.378 445.34064Q651.7686 445.84064 650.8155 445.84064Q649.5811 445.84064 648.86237 444.95Q648.0186 443.8875 648.0186 441.46564ZM649.09674 441.46564Q649.09674 443.575 649.59674 444.27814Q650.09674 444.98126 650.8155 444.98126Q651.54987 444.98126 652.03424 444.27814Q652.53424 443.575 652.53424 441.46564Q652.53424 439.34064 652.03424 438.65314Q651.54987 437.95 650.79987 437.95Q650.0811 437.95 649.6436 438.5594Q649.09674 439.34064 649.09674 441.46564ZM655.61237 445.7L655.61237 444.4969L656.8155 444.4969L656.8155 445.7L655.61237 445.7ZM658.0186 441.46564Q658.0186 439.9344 658.3311 439.0125Q658.6436 438.075 659.253 437.575Q659.878 437.075 660.8155 437.075Q661.503 437.075 662.0186 437.35626Q662.54987 437.6375 662.8936 438.16876Q663.23737 438.6844 663.42487 439.4344Q663.61237 440.1844 663.61237 441.46564Q663.61237 442.98126 663.29987 443.90314Q663.003 444.825 662.378 445.34064Q661.7686 445.84064 660.8155 445.84064Q659.5811 445.84064 658.86237 444.95Q658.0186 443.8875 658.0186 441.46564ZM659.09674 441.46564Q659.09674 443.575 659.59674 444.27814Q660.09674 444.98126 660.8155 444.98126Q661.54987 444.98126 662.03424 444.27814Q662.53424 443.575 662.53424 441.46564Q662.53424 439.34064 662.03424 438.65314Q661.54987 437.95 660.79987 437.95Q660.0811 437.95 659.6436 438.5594Q659.09674 439.34064 659.09674 441.46564ZM665.0186 441.46564Q665.0186 439.9344 665.3311 439.0125Q665.6436 438.075 666.253 437.575Q666.878 437.075 667.8155 437.075Q668.503 437.075 669.0186 437.35626Q669.54987 437.6375 669.8936 438.16876Q670.23737 438.6844 670.42487 439.4344Q670.61237 440.1844 670.61237 441.46564Q670.61237 442.98126 670.29987 443.90314Q670.003 444.825 669.378 445.34064Q668.7686 445.84064 667.8155 445.84064Q666.5811 445.84064 665.86237 444.95Q665.0186 443.8875 665.0186 441.46564ZM666.09674 441.46564Q666.09674 443.575 666.59674 444.27814Q667.09674 444.98126 667.8155 444.98126Q668.54987 444.98126 669.03424 444.27814Q669.53424 443.575 669.53424 441.46564Q669.53424 439.34064 669.03424 438.65314Q668.54987 437.95 667.79987 437.95Q667.0811 437.95 666.6436 438.5594Q666.09674 439.34064 666.09674 441.46564ZM672.0186 441.46564Q672.0186 439.9344 672.3311 439.0125Q672.6436 438.075 673.253 437.575Q673.878 437.075 674.8155 437.075Q675.503 437.075 676.0186 437.35626Q676.54987 437.6375 676.8936 438.16876Q677.23737 438.6844 677.42487 439.4344Q677.61237 440.1844 677.61237 441.46564Q677.61237 442.98126 677.29987 443.90314Q677.003 444.825 676.378 445.34064Q675.7686 445.84064 674.8155 445.84064Q673.5811 445.84064 672.86237 444.95Q672.0186 443.8875 672.0186 441.46564ZM673.09674 441.46564Q673.09674 443.575 673.59674 444.27814Q674.09674 444.98126 674.8155 444.98126Q675.54987 444.98126 676.03424 444.27814Q676.53424 443.575 676.53424 441.46564Q676.53424 439.34064 676.03424 438.65314Q675.54987 437.95 674.79987 437.95Q674.0811 437.95 673.6436 438.5594Q673.09674 439.34064 673.09674 441.46564Z" fill-rule="nonzero"/><path fill="#757575" d="M26.6125 44.3L26.6125 33.925L28.190624 33.925L28.190624 35.378124Q28.675 34.628124 29.4875 34.159374Q30.3 33.690624 31.33125 33.690624Q32.4875 33.690624 33.221874 34.175Q33.95625 34.64375 34.26875 35.503124Q35.503124 33.690624 37.471874 33.690624Q39.01875 33.690624 39.846874 34.55Q40.675 35.409374 40.675 37.175L40.675 44.3L38.925 44.3L38.925 37.76875Q38.925 36.70625 38.753124 36.253124Q38.58125 35.784374 38.128124 35.503124Q37.690624 35.221874 37.08125 35.221874Q35.9875 35.221874 35.253124 35.95625Q34.534374 36.675 34.534374 38.26875L34.534374 44.3L32.784374 44.3L32.784374 37.565624Q32.784374 36.39375 32.346874 35.815624Q31.925 35.221874 30.940624 35.221874Q30.20625 35.221874 29.565624 35.6125Q28.940624 36.003124 28.659374 36.753124Q28.378124 37.503124 28.378124 38.925L28.378124 44.3L26.6125 44.3ZM50.721874 40.95625L52.534374 41.190624Q52.1125 42.76875 50.940624 43.659374Q49.784374 44.534374 47.971874 44.534374Q45.70625 44.534374 44.3625 43.14375Q43.034374 41.7375 43.034374 39.20625Q43.034374 36.58125 44.378124 35.14375Q45.721874 33.690624 47.878124 33.690624Q49.95625 33.690624 51.26875 35.1125Q52.596874 36.51875 52.596874 39.096874Q52.596874 39.253124 52.58125 39.565624L44.846874 39.565624Q44.940624 41.26875 45.815624 42.175Q46.690624 43.08125 47.9875 43.08125Q48.95625 43.08125 49.628124 42.58125Q50.315624 42.065624 50.721874 40.95625ZM44.940624 38.1125L50.7375 38.1125Q50.628124 36.815624 50.08125 36.159374Q49.2375 35.14375 47.89375 35.14375Q46.690624 35.14375 45.8625 35.95625Q45.034374 36.753124 44.940624 38.1125ZM54.596874 44.3L54.596874 33.925L56.175 33.925L56.175 35.503124Q56.784374 34.39375 57.3 34.05Q57.815624 33.690624 58.425 33.690624Q59.315624 33.690624 60.2375 34.253124L59.628124 35.89375Q58.9875 35.503124 58.346874 35.503124Q57.76875 35.503124 57.3 35.8625Q56.846874 36.20625 56.64375 36.815624Q56.3625 37.753124 56.3625 38.8625L56.3625 44.3L54.596874 44.3ZM61.3 45.159374L63.003124 45.409374Q63.1125 46.20625 63.596874 46.565624Q64.25313 47.05 65.39375 47.05Q66.6125 47.05 67.26875 46.565624Q67.94063 46.08125 68.175 45.20625Q68.31563 44.659374 68.3 42.940624Q67.14375 44.3 65.425 44.3Q63.284374 44.3 62.1125 42.753124Q60.940624 41.20625 60.940624 39.05Q60.940624 37.565624 61.471874 36.315624Q62.01875 35.065624 63.034374 34.378124Q64.06563 33.690624 65.44063 33.690624Q67.26875 33.690624 68.47188 35.175L68.47188 33.925L70.08125 33.925L70.08125 42.89375Q70.08125 45.315624 69.58125 46.315624Q69.09688 47.33125 68.01875 47.909374Q66.95625 48.503124 65.39375 48.503124Q63.55 48.503124 62.39375 47.675Q61.253124 46.846874 61.3 45.159374ZM62.753124 38.925Q62.753124 40.971874 63.565624 41.909374Q64.37813 42.846874 65.59688 42.846874Q66.8 42.846874 67.6125 41.909374Q68.44063 40.971874 68.44063 38.9875Q68.44063 37.08125 67.59688 36.1125Q66.75313 35.14375 65.56563 35.14375Q64.39375 35.14375 63.565624 36.096874Q62.753124 37.05 62.753124 38.925ZM79.72188 40.95625L81.53438 41.190624Q81.1125 42.76875 79.94063 43.659374Q78.78438 44.534374 76.97188 44.534374Q74.70625 44.534374 73.3625 43.14375Q72.03438 41.7375 72.03438 39.20625Q72.03438 36.58125 73.37813 35.14375Q74.72188 33.690624 76.87813 33.690624Q78.95625 33.690624 80.26875 35.1125Q81.59688 36.51875 81.59688 39.096874Q81.59688 39.253124 81.58125 39.565624L73.84688 39.565624Q73.94063 41.26875 74.81563 42.175Q75.69063 43.08125 76.9875 43.08125Q77.95625 43.08125 78.62813 42.58125Q79.31563 42.065624 79.72188 40.95625ZM73.94063 38.1125L79.7375 38.1125Q79.62813 36.815624 79.08125 36.159374Q78.2375 35.14375 76.89375 35.14375Q75.69063 35.14375 74.8625 35.95625Q74.03438 36.753124 73.94063 38.1125ZM82.00313 48.26875L82.00313 47.003124L93.64375 47.003124L93.64375 48.26875L82.00313 48.26875ZM93.90938 41.20625L95.65938 40.925Q95.8 41.971874 96.47188 42.534374Q97.14375 43.08125 98.34688 43.08125Q99.55 43.08125 100.12813 42.596874Q100.72188 42.096874 100.72188 41.440624Q100.72188 40.846874 100.20625 40.503124Q99.84688 40.26875 98.40938 39.909374Q96.47188 39.409374 95.72188 39.065624Q94.9875 38.70625 94.59688 38.08125Q94.20625 37.440624 94.20625 36.675Q94.20625 35.9875 94.51875 35.39375Q94.84688 34.8 95.39375 34.409374Q95.8 34.1125 96.50313 33.909374Q97.22188 33.690624 98.03438 33.690624Q99.25313 33.690624 100.175 34.05Q101.09688 34.39375 101.53438 35.003124Q101.97188 35.596874 102.14375 36.596874L100.425 36.83125Q100.3 36.034374 99.7375 35.596874Q99.175 35.14375 98.15938 35.14375Q96.94063 35.14375 96.425 35.55Q95.90938 35.940624 95.90938 36.471874Q95.90938 36.815624 96.12813 37.096874Q96.33125 37.378124 96.8 37.565624Q97.06563 37.659374 98.34688 38.003124Q100.22188 38.503124 100.95625 38.83125Q101.69063 39.14375 102.1125 39.753124Q102.53438 40.346874 102.53438 41.253124Q102.53438 42.128124 102.01875 42.909374Q101.50313 43.690624 100.53438 44.1125Q99.56563 44.534374 98.34688 44.534374Q96.33125 44.534374 95.26875 43.690624Q94.20625 42.846874 93.90938 41.20625ZM103.97188 39.1125Q103.97188 36.2375 105.56563 34.846874Q106.90938 33.690624 108.83125 33.690624Q110.97188 33.690624 112.31563 35.096874Q113.675 36.503124 113.675 38.971874Q113.675 40.971874 113.08125 42.128124Q112.4875 43.26875 111.33125 43.909374Q110.19063 44.534374 108.83125 44.534374Q106.64375 44.534374 105.3 43.14375Q103.97188 41.7375 103.97188 39.1125ZM105.76875 39.1125Q105.76875 41.1125 106.62813 42.096874Q107.50313 43.08125 108.83125 43.08125Q110.14375 43.08125 111.00313 42.096874Q111.87813 41.096874 111.87813 39.05Q111.87813 37.128124 111.00313 36.14375Q110.12813 35.14375 108.83125 35.14375Q107.50313 35.14375 106.62813 36.14375Q105.76875 37.128124 105.76875 39.1125ZM115.59688 44.3L115.59688 33.925L117.175 33.925L117.175 35.503124Q117.78438 34.39375 118.3 34.05Q118.81563 33.690624 119.425 33.690624Q120.31563 33.690624 121.2375 34.253124L120.62813 35.89375Q119.9875 35.503124 119.34688 35.503124Q118.76875 35.503124 118.3 35.8625Q117.84688 36.20625 117.64375 36.815624Q117.3625 37.753124 117.3625 38.8625L117.3625 44.3L115.59688 44.3ZM126.45625 42.721874L126.70625 44.284374Q125.97188 44.440624 125.37813 44.440624Q124.425 44.440624 123.89375 44.14375Q123.37813 43.83125 123.15938 43.346874Q122.94063 42.846874 122.94063 41.26875L122.94063 35.3L121.65938 35.3L121.65938 33.925L122.94063 33.925L122.94063 31.3625L124.69063 30.3L124.69063 33.925L126.45625 33.925L126.45625 35.3L124.69063 35.3L124.69063 41.3625Q124.69063 42.1125 124.78438 42.33125Q124.87813 42.534374 125.08125 42.675Q125.3 42.8 125.69063 42.8Q125.97188 42.8 126.45625 42.721874Z" fill-rule="nonzero"/></svg>