<svg version="1.1" viewBox="0.0 0.0 819.0 506.0" fill="none" stroke="none" stroke-linecap="square" stroke-miterlimit="10" width="819" height="506" xmlns:xlink="http://www.w3.org/1999/xlink" xmlns="http://www.w3.org/2000/svg"><path fill="#ffffff" d="M0 0L819.0 0L819.0 506.0L0 506.0L0 0Z" fill-rule="nonzero"/><path stroke="#cccccc" stroke-width="1.0" stroke-linecap="butt" d="M242.5 104.5L242.5 428.5" fill-rule="nonzero"/><path stroke="#cccccc" stroke-width="1.0" stroke-linecap="butt" d="M380.5 104.5L380.5 428.5" fill-rule="nonzero"/><path stroke="#cccccc" stroke-width="1.0" stroke-linecap="butt" d="M518.5 104.5L518.5 428.5" fill-rule="nonzero"/><path stroke="#cccccc" stroke-width="1.0" stroke-linecap="butt" d="M656.5 104.5L656.5 428.5" fill-rule="nonzero"/><path stroke="#cccccc" stroke-width="1.0" stroke-linecap="butt" d="M793.5 104.5L793.5 428.5" fill-rule="nonzero"/><path stroke="#333333" stroke-width="1.0" stroke-linecap="butt" d="M105.5 428.5L793.5 428.5" fill-rule="nonzero"/><path stroke="#cccccc" stroke-width="1.0" stroke-linecap="butt" d="M105.5 347.5L793.5 347.5" fill-rule="nonzero"/><path stroke="#cccccc" stroke-width="1.0" stroke-linecap="butt" d="M105.5 266.5L793.5 266.5" fill-rule="nonzero"/><path stroke="#cccccc" stroke-width="1.0" stroke-linecap="butt" d="M105.5 185.5L793.5 185.5" fill-rule="nonzero"/><path stroke="#cccccc" stroke-width="1.0" stroke-linecap="butt" d="M105.5 104.5L793.5 104.5" fill-rule="nonzero"/><clipPath id="id_0"><path d="M105.3 104.03333L793.7 104.03333L793.7 428.7L105.3 428.7L105.3 104.03333Z" clip-rule="nonzero"/></clipPath><path stroke="#4285f4" stroke-width="2.0" stroke-linecap="butt" clip-path="url(#id_0)" d="M105.3 423.5102C105.3 423.5102 105.306885 423.41205 105.310326 423.38034C105.31377 423.34863 105.3218 423.30295 105.32754 423.2797C105.333275 423.2564 105.33901 423.25183 105.34475 423.24072C105.35049 423.22964 105.35622 423.22 105.36195 423.21313C105.36769 423.20627 105.43079 423.14322 105.46522 423.13196C105.49964 423.1207 105.57995 423.15118 105.63732 423.1547C105.69469 423.1582 105.75205 423.16443 105.80942 423.15308C105.86679 423.1417 105.92416 423.09955 105.98152 423.08652C106.03889 423.0735 106.66993 423.04166 107.01413 423.01672C107.35834 422.99176 108.161476 422.90848 108.73515 422.8836C109.30882 422.8587 109.88249 422.93393 110.45617 422.86737C111.02984 422.8008 111.603516 422.5508 112.177185 422.48425C112.750854 422.4177 119.06126 422.51007 122.50329 422.38687C125.94532 422.26364 133.97673 421.65204 139.71346 421.31708C145.45018 420.98215 151.1869 420.68967 156.92363 420.37717C162.66035 420.06467 168.39708 419.68292 174.1338 419.44214C179.87053 419.20132 242.97449 417.4503 277.39484 416.38376C311.8152 415.31723 392.1293 412.6256 449.49655 410.81573C506.8638 409.00586 793.7 400.23322 793.7 400.23322" fill-rule="nonzero"/><path stroke="#ea4335" stroke-width="2.0" stroke-linecap="butt" clip-path="url(#id_0)" d="M105.3 428.69675C105.3 428.69675 105.306885 428.69455 105.310326 428.6935C105.31377 428.69247 105.3218 428.69025 105.32754 428.68863C105.333275 428.687 105.33901 428.6854 105.34475 428.68378C105.35049 428.68213 105.35622 428.68048 105.36195 428.6789C105.36769 428.6773 105.43079 428.6611 105.46522 428.6513C105.49964 428.6415 105.57995 428.62045 105.63732 428.59937C105.69469 428.57825 105.75205 428.54498 105.80942 428.5247C105.86679 428.5044 105.92416 428.4963 105.98152 428.4776C106.03889 428.4589 106.66993 428.2196 107.01413 428.08636C107.35834 427.95316 108.161476 427.637 108.73515 427.4062C109.30882 427.1754 109.88249 426.93246 110.45617 426.7017C111.02984 426.4709 111.603516 426.2449 112.177185 426.0215C112.750854 425.79813 119.06126 423.41666 122.50329 422.06058C125.94532 420.7045 133.97673 417.44138 139.71346 415.10135C145.45018 412.7613 151.1869 410.43045 156.92363 408.02036C162.66035 405.61026 168.39708 403.04132 174.1338 400.6407C179.87053 398.24005 242.97449 372.62357 277.39484 358.4957C311.8152 344.36783 392.1293 311.0289 449.49655 287.45865C506.8638 263.88837 793.7 146.68967 793.7 146.68967" fill-rule="nonzero"/><path fill="#000000" fill-opacity="0.0" clip-path="url(#id_0)" d="M108.3 423.5102C108.3 425.16705 106.956856 426.5102 105.3 426.5102C103.64314 426.5102 102.3 425.16705 102.3 423.5102C102.3 421.85336 103.64314 420.5102 105.3 420.5102C106.956856 420.5102 108.3 421.85336 108.3 423.5102Z" fill-rule="nonzero"/><path fill="#000000" fill-opacity="0.0" clip-path="url(#id_0)" d="M108.310326 423.38034C108.310326 425.0372 106.96718 426.38034 105.310326 426.38034C103.65347 426.38034 102.310326 425.0372 102.310326 423.38034C102.310326 421.72348 103.65347 420.38034 105.310326 420.38034C106.96718 420.38034 108.310326 421.72348 108.310326 423.38034Z" fill-rule="nonzero"/><path fill="#000000" fill-opacity="0.0" clip-path="url(#id_0)" d="M108.32754 423.2797C108.32754 424.93655 106.98439 426.2797 105.32754 426.2797C103.670685 426.2797 102.32754 424.93655 102.32754 423.2797C102.32754 421.62283 103.670685 420.2797 105.32754 420.2797C106.98439 420.2797 108.32754 421.62283 108.32754 423.2797Z" fill-rule="nonzero"/><path fill="#000000" fill-opacity="0.0" clip-path="url(#id_0)" d="M108.34475 423.24072C108.34475 424.89758 107.0016 426.24072 105.34475 426.24072C103.68789 426.24072 102.34475 424.89758 102.34475 423.24072C102.34475 421.58386 103.68789 420.24072 105.34475 420.24072C107.0016 420.24072 108.34475 421.58386 108.34475 423.24072Z" fill-rule="nonzero"/><path fill="#000000" fill-opacity="0.0" clip-path="url(#id_0)" d="M108.36195 423.21313C108.36195 424.87 107.018814 426.21313 105.36195 426.21313C103.7051 426.21313 102.36195 424.87 102.36195 423.21313C102.36195 421.55627 103.7051 420.21313 105.36195 420.21313C107.018814 420.21313 108.36195 421.55627 108.36195 423.21313Z" fill-rule="nonzero"/><path fill="#000000" fill-opacity="0.0" clip-path="url(#id_0)" d="M108.46522 423.13196C108.46522 424.78882 107.12207 426.13196 105.46522 426.13196C103.808365 426.13196 102.46522 424.78882 102.46522 423.13196C102.46522 421.4751 103.808365 420.13196 105.46522 420.13196C107.12207 420.13196 108.46522 421.4751 108.46522 423.13196Z" fill-rule="nonzero"/><path fill="#000000" fill-opacity="0.0" clip-path="url(#id_0)" d="M108.63732 423.1547C108.63732 424.81155 107.294174 426.1547 105.63732 426.1547C103.98047 426.1547 102.63732 424.81155 102.63732 423.1547C102.63732 421.49783 103.98047 420.1547 105.63732 420.1547C107.294174 420.1547 108.63732 421.49783 108.63732 423.1547Z" fill-rule="nonzero"/><path fill="#000000" fill-opacity="0.0" clip-path="url(#id_0)" d="M108.80942 423.15308C108.80942 424.80994 107.46628 426.15308 105.80942 426.15308C104.152565 426.15308 102.80942 424.80994 102.80942 423.15308C102.80942 421.49622 104.152565 420.15308 105.80942 420.15308C107.46628 420.15308 108.80942 421.49622 108.80942 423.15308Z" fill-rule="nonzero"/><path fill="#000000" fill-opacity="0.0" clip-path="url(#id_0)" d="M108.98152 423.08652C108.98152 424.74338 107.638374 426.08652 105.98152 426.08652C104.32467 426.08652 102.98152 424.74338 102.98152 423.08652C102.98152 421.42966 104.32467 420.08652 105.98152 420.08652C107.638374 420.08652 108.98152 421.42966 108.98152 423.08652Z" fill-rule="nonzero"/><path fill="#000000" fill-opacity="0.0" clip-path="url(#id_0)" d="M110.01413 423.01672C110.01413 424.67355 108.67099 426.01672 107.01413 426.01672C105.35728 426.01672 104.01413 424.67355 104.01413 423.01672C104.01413 421.35986 105.35728 420.01672 107.01413 420.01672C108.67099 420.01672 110.01413 421.35986 110.01413 423.01672Z" fill-rule="nonzero"/><path fill="#000000" fill-opacity="0.0" clip-path="url(#id_0)" d="M111.73515 422.8836C111.73515 424.54044 110.392006 425.8836 108.73515 425.8836C107.07829 425.8836 105.73515 424.54044 105.73515 422.8836C105.73515 421.22675 107.07829 419.8836 108.73515 419.8836C110.392006 419.8836 111.73515 421.22675 111.73515 422.8836Z" fill-rule="nonzero"/><path fill="#000000" fill-opacity="0.0" clip-path="url(#id_0)" d="M113.45617 422.86737C113.45617 424.52423 112.11302 425.86737 110.45617 425.86737C108.79932 425.86737 107.45617 424.52423 107.45617 422.86737C107.45617 421.2105 108.79932 419.86737 110.45617 419.86737C112.11302 419.86737 113.45617 421.2105 113.45617 422.86737Z" fill-rule="nonzero"/><path fill="#000000" fill-opacity="0.0" clip-path="url(#id_0)" d="M115.177185 422.48425C115.177185 424.1411 113.83404 425.48425 112.177185 425.48425C110.52033 425.48425 109.177185 424.1411 109.177185 422.48425C109.177185 420.8274 110.52033 419.48425 112.177185 419.48425C113.83404 419.48425 115.177185 420.8274 115.177185 422.48425Z" fill-rule="nonzero"/><path fill="#000000" fill-opacity="0.0" clip-path="url(#id_0)" d="M125.50329 422.38687C125.50329 424.0437 124.16014 425.38687 122.50329 425.38687C120.846436 425.38687 119.50329 424.0437 119.50329 422.38687C119.50329 420.73 120.846436 419.38687 122.50329 419.38687C124.16014 419.38687 125.50329 420.73 125.50329 422.38687Z" fill-rule="nonzero"/><path fill="#000000" fill-opacity="0.0" clip-path="url(#id_0)" d="M142.71346 421.31708C142.71346 422.97394 141.37032 424.31708 139.71346 424.31708C138.05661 424.31708 136.71346 422.97394 136.71346 421.31708C136.71346 419.66022 138.05661 418.31708 139.71346 418.31708C141.37032 418.31708 142.71346 419.66022 142.71346 421.31708Z" fill-rule="nonzero"/><path fill="#000000" fill-opacity="0.0" clip-path="url(#id_0)" d="M159.92363 420.37717C159.92363 422.03403 158.58049 423.37717 156.92363 423.37717C155.26678 423.37717 153.92363 422.03403 153.92363 420.37717C153.92363 418.7203 155.26678 417.37717 156.92363 417.37717C158.58049 417.37717 159.92363 418.7203 159.92363 420.37717Z" fill-rule="nonzero"/><path fill="#000000" fill-opacity="0.0" clip-path="url(#id_0)" d="M177.1338 419.44214C177.1338 421.099 175.79066 422.44214 174.1338 422.44214C172.47694 422.44214 171.1338 421.099 171.1338 419.44214C171.1338 417.78528 172.47694 416.44214 174.1338 416.44214C175.79066 416.44214 177.1338 417.78528 177.1338 419.44214Z" fill-rule="nonzero"/><path fill="#000000" fill-opacity="0.0" clip-path="url(#id_0)" d="M280.39484 416.38376C280.39484 418.04062 279.0517 419.38376 277.39484 419.38376C275.73798 419.38376 274.39484 418.04062 274.39484 416.38376C274.39484 414.72693 275.73798 413.38376 277.39484 413.38376C279.0517 413.38376 280.39484 414.72693 280.39484 416.38376Z" fill-rule="nonzero"/><path fill="#000000" fill-opacity="0.0" clip-path="url(#id_0)" d="M452.49655 410.81573C452.49655 412.4726 451.1534 413.81573 449.49655 413.81573C447.8397 413.81573 446.49655 412.4726 446.49655 410.81573C446.49655 409.15887 447.8397 407.81573 449.49655 407.81573C451.1534 407.81573 452.49655 409.15887 452.49655 410.81573Z" fill-rule="nonzero"/><path fill="#000000" fill-opacity="0.0" clip-path="url(#id_0)" d="M796.7 400.23322C796.7 401.89008 795.3569 403.23322 793.7 403.23322C792.04315 403.23322 790.7 401.89008 790.7 400.23322C790.7 398.5764 792.04315 397.23322 793.7 397.23322C795.3569 397.23322 796.7 398.5764 796.7 400.23322Z" fill-rule="nonzero"/><path fill="#000000" fill-opacity="0.0" clip-path="url(#id_0)" d="M108.3 428.69675C108.3 430.3536 106.956856 431.69675 105.3 431.69675C103.64314 431.69675 102.3 430.3536 102.3 428.69675C102.3 427.0399 103.64314 425.69675 105.3 425.69675C106.956856 425.69675 108.3 427.0399 108.3 428.69675Z" fill-rule="nonzero"/><path fill="#000000" fill-opacity="0.0" clip-path="url(#id_0)" d="M108.310326 428.6935C108.310326 430.35037 106.96718 431.6935 105.310326 431.6935C103.65347 431.6935 102.310326 430.35037 102.310326 428.6935C102.310326 427.03665 103.65347 425.6935 105.310326 425.6935C106.96718 425.6935 108.310326 427.03665 108.310326 428.6935Z" fill-rule="nonzero"/><path fill="#000000" fill-opacity="0.0" clip-path="url(#id_0)" d="M108.32754 428.68863C108.32754 430.3455 106.98439 431.68863 105.32754 431.68863C103.670685 431.68863 102.32754 430.3455 102.32754 428.68863C102.32754 427.03177 103.670685 425.68863 105.32754 425.68863C106.98439 425.68863 108.32754 427.03177 108.32754 428.68863Z" fill-rule="nonzero"/><path fill="#000000" fill-opacity="0.0" clip-path="url(#id_0)" d="M108.34475 428.68378C108.34475 430.3406 107.0016 431.68378 105.34475 431.68378C103.68789 431.68378 102.34475 430.3406 102.34475 428.68378C102.34475 427.02692 103.68789 425.68378 105.34475 425.68378C107.0016 425.68378 108.34475 427.02692 108.34475 428.68378Z" fill-rule="nonzero"/><path fill="#000000" fill-opacity="0.0" clip-path="url(#id_0)" d="M108.36195 428.6789C108.36195 430.33575 107.018814 431.6789 105.36195 431.6789C103.7051 431.6789 102.36195 430.33575 102.36195 428.6789C102.36195 427.02203 103.7051 425.6789 105.36195 425.6789C107.018814 425.6789 108.36195 427.02203 108.36195 428.6789Z" fill-rule="nonzero"/><path fill="#000000" fill-opacity="0.0" clip-path="url(#id_0)" d="M108.46522 428.6513C108.46522 430.30817 107.12207 431.6513 105.46522 431.6513C103.808365 431.6513 102.46522 430.30817 102.46522 428.6513C102.46522 426.99445 103.808365 425.6513 105.46522 425.6513C107.12207 425.6513 108.46522 426.99445 108.46522 428.6513Z" fill-rule="nonzero"/><path fill="#000000" fill-opacity="0.0" clip-path="url(#id_0)" d="M108.63732 428.59937C108.63732 430.2562 107.294174 431.59937 105.63732 431.59937C103.98047 431.59937 102.63732 430.2562 102.63732 428.59937C102.63732 426.9425 103.98047 425.59937 105.63732 425.59937C107.294174 425.59937 108.63732 426.9425 108.63732 428.59937Z" fill-rule="nonzero"/><path fill="#000000" fill-opacity="0.0" clip-path="url(#id_0)" d="M108.80942 428.5247C108.80942 430.18155 107.46628 431.5247 105.80942 431.5247C104.152565 431.5247 102.80942 430.18155 102.80942 428.5247C102.80942 426.86783 104.152565 425.5247 105.80942 425.5247C107.46628 425.5247 108.80942 426.86783 108.80942 428.5247Z" fill-rule="nonzero"/><path fill="#000000" fill-opacity="0.0" clip-path="url(#id_0)" d="M108.98152 428.4776C108.98152 430.13446 107.638374 431.4776 105.98152 431.4776C104.32467 431.4776 102.98152 430.13446 102.98152 428.4776C102.98152 426.82074 104.32467 425.4776 105.98152 425.4776C107.638374 425.4776 108.98152 426.82074 108.98152 428.4776Z" fill-rule="nonzero"/><path fill="#000000" fill-opacity="0.0" clip-path="url(#id_0)" d="M110.01413 428.08636C110.01413 429.74323 108.67099 431.08636 107.01413 431.08636C105.35728 431.08636 104.01413 429.74323 104.01413 428.08636C104.01413 426.42953 105.35728 425.08636 107.01413 425.08636C108.67099 425.08636 110.01413 426.42953 110.01413 428.08636Z" fill-rule="nonzero"/><path fill="#000000" fill-opacity="0.0" clip-path="url(#id_0)" d="M111.73515 427.4062C111.73515 429.06305 110.392006 430.4062 108.73515 430.4062C107.07829 430.4062 105.73515 429.06305 105.73515 427.4062C105.73515 425.74936 107.07829 424.4062 108.73515 424.4062C110.392006 424.4062 111.73515 425.74936 111.73515 427.4062Z" fill-rule="nonzero"/><path fill="#000000" fill-opacity="0.0" clip-path="url(#id_0)" d="M113.45617 426.7017C113.45617 428.35852 112.11302 429.7017 110.45617 429.7017C108.79932 429.7017 107.45617 428.35852 107.45617 426.7017C107.45617 425.04483 108.79932 423.7017 110.45617 423.7017C112.11302 423.7017 113.45617 425.04483 113.45617 426.7017Z" fill-rule="nonzero"/><path fill="#000000" fill-opacity="0.0" clip-path="url(#id_0)" d="M115.177185 426.0215C115.177185 427.67834 113.83404 429.0215 112.177185 429.0215C110.52033 429.0215 109.177185 427.67834 109.177185 426.0215C109.177185 424.36465 110.52033 423.0215 112.177185 423.0215C113.83404 423.0215 115.177185 424.36465 115.177185 426.0215Z" fill-rule="nonzero"/><path fill="#000000" fill-opacity="0.0" clip-path="url(#id_0)" d="M125.50329 422.06058C125.50329 423.7174 124.16014 425.06058 122.50329 425.06058C120.846436 425.06058 119.50329 423.7174 119.50329 422.06058C119.50329 420.40372 120.846436 419.06058 122.50329 419.06058C124.16014 419.06058 125.50329 420.40372 125.50329 422.06058Z" fill-rule="nonzero"/><path fill="#000000" fill-opacity="0.0" clip-path="url(#id_0)" d="M142.71346 415.10135C142.71346 416.75818 141.37032 418.10135 139.71346 418.10135C138.05661 418.10135 136.71346 416.75818 136.71346 415.10135C136.71346 413.4445 138.05661 412.10135 139.71346 412.10135C141.37032 412.10135 142.71346 413.4445 142.71346 415.10135Z" fill-rule="nonzero"/><path fill="#000000" fill-opacity="0.0" clip-path="url(#id_0)" d="M159.92363 408.02036C159.92363 409.67722 158.58049 411.02036 156.92363 411.02036C155.26678 411.02036 153.92363 409.67722 153.92363 408.02036C153.92363 406.3635 155.26678 405.02036 156.92363 405.02036C158.58049 405.02036 159.92363 406.3635 159.92363 408.02036Z" fill-rule="nonzero"/><path fill="#000000" fill-opacity="0.0" clip-path="url(#id_0)" d="M177.1338 400.6407C177.1338 402.29755 175.79066 403.6407 174.1338 403.6407C172.47694 403.6407 171.1338 402.29755 171.1338 400.6407C171.1338 398.98383 172.47694 397.6407 174.1338 397.6407C175.79066 397.6407 177.1338 398.98383 177.1338 400.6407Z" fill-rule="nonzero"/><path fill="#000000" fill-opacity="0.0" clip-path="url(#id_0)" d="M280.39484 358.4957C280.39484 360.15256 279.0517 361.4957 277.39484 361.4957C275.73798 361.4957 274.39484 360.15256 274.39484 358.4957C274.39484 356.83884 275.73798 355.4957 277.39484 355.4957C279.0517 355.4957 280.39484 356.83884 280.39484 358.4957Z" fill-rule="nonzero"/><path fill="#000000" fill-opacity="0.0" clip-path="url(#id_0)" d="M452.49655 287.45865C452.49655 289.11548 451.1534 290.45865 449.49655 290.45865C447.8397 290.45865 446.49655 289.11548 446.49655 287.45865C446.49655 285.8018 447.8397 284.45865 449.49655 284.45865C451.1534 284.45865 452.49655 285.8018 452.49655 287.45865Z" fill-rule="nonzero"/><path fill="#000000" fill-opacity="0.0" clip-path="url(#id_0)" d="M796.7 146.68967C796.7 148.34651 795.3569 149.68967 793.7 149.68967C792.04315 149.68967 790.7 148.34651 790.7 146.68967C790.7 145.0328 792.04315 143.68967 793.7 143.68967C795.3569 143.68967 796.7 145.0328 796.7 146.68967Z" fill-rule="nonzero"/><path fill="#000000" d="M446.79688 477.7L446.79688 471.48126L447.73438 471.48126L447.73438 472.35626Q448.42188 471.34064 449.71875 471.34064Q450.28125 471.34064 450.75 471.54376Q451.23438 471.7469 451.46875 472.075Q451.70312 472.40314 451.79688 472.84064Q451.84375 473.1375 451.84375 473.8719L451.84375 477.7L450.79688 477.7L450.79688 473.91876Q450.79688 473.2625 450.67188 472.95Q450.54688 472.6375 450.23438 472.45Q449.92188 472.2469 449.5 472.2469Q448.82812 472.2469 448.32812 472.6844Q447.84375 473.10626 447.84375 474.29376L447.84375 477.7L446.79688 477.7Z" fill-rule="nonzero"/><path fill="#000000" d="M36.30001 290.0698L30.081263 290.0698L30.081263 289.1323L30.956263 289.1323Q30.487513 288.83542 30.221888 288.35104Q29.940638 287.86667 29.940638 287.24167Q29.940638 286.55417 30.221888 286.11667Q30.503138 285.66354 31.018763 285.49167Q29.940638 284.74167 29.940638 283.5698Q29.940638 282.6323 30.456263 282.14792Q30.956263 281.64792 32.034386 281.64792L36.30001 281.64792L36.30001 282.6948L32.378136 282.6948Q31.753138 282.6948 31.471888 282.80417Q31.190638 282.89792 31.018763 283.16354Q30.846888 283.42917 30.846888 283.80417Q30.846888 284.46042 31.284388 284.89792Q31.721888 285.3198 32.690636 285.3198L36.30001 285.3198L36.30001 286.3823L32.253136 286.3823Q31.550013 286.3823 31.206263 286.64792Q30.846888 286.89792 30.846888 287.47604Q30.846888 287.92917 31.081263 288.30417Q31.315638 288.67917 31.768763 288.85104Q32.221886 289.02292 33.065636 289.02292L36.30001 289.02292L36.30001 290.0698ZM28.925013 280.0698L27.706263 280.0698L27.706263 279.0073L28.925013 279.0073L28.925013 280.0698ZM36.30001 280.0698L30.081263 280.0698L30.081263 279.0073L36.30001 279.0073L36.30001 280.0698ZM34.01876 273.0073L34.159386 271.97604Q35.221886 272.14792 35.83126 272.85104Q36.440636 273.55417 36.440636 274.5698Q36.440636 275.85104 35.61251 276.6323Q34.76876 277.39792 33.20626 277.39792Q32.20626 277.39792 31.456263 277.0698Q30.690638 276.72604 30.315638 276.05417Q29.940638 275.36667 29.940638 274.55417Q29.940638 273.55417 30.456263 272.91354Q30.956263 272.2573 31.909388 272.0698L32.065636 273.10104Q31.440638 273.24167 31.128138 273.61667Q30.800013 273.99167 30.800013 274.52292Q30.800013 275.3198 31.378138 275.8198Q31.940638 276.3198 33.17501 276.3198Q34.440636 276.3198 35.003136 275.83542Q35.565636 275.35104 35.565636 274.58542Q35.565636 273.96042 35.190636 273.55417Q34.815636 273.1323 34.01876 273.0073ZM36.30001 271.08542L30.081263 271.08542L30.081263 270.1323L31.018763 270.1323Q30.362513 269.77292 30.159388 269.47604Q29.940638 269.16354 29.940638 268.78854Q29.940638 268.2573 30.268763 267.71042L31.253138 268.0698Q31.018763 268.46042 31.018763 268.83542Q31.018763 269.1948 31.237513 269.47604Q31.440638 269.74167 31.815638 269.85104Q32.378136 270.03854 33.034386 270.03854L36.30001 270.03854L36.30001 271.08542ZM33.190636 267.46042Q31.456263 267.46042 30.628138 266.5073Q29.940638 265.71042 29.940638 264.55417Q29.940638 263.27292 30.784388 262.46042Q31.612513 261.6323 33.096886 261.6323Q34.30001 261.6323 34.98751 261.99167Q35.67501 262.35104 36.065636 263.05417Q36.440636 263.74167 36.440636 264.55417Q36.440636 265.85104 35.61251 266.66354Q34.76876 267.46042 33.190636 267.46042ZM33.190636 266.3823Q34.378136 266.3823 34.971886 265.86667Q35.565636 265.33542 35.565636 264.55417Q35.565636 263.7573 34.971886 263.24167Q34.378136 262.72604 33.159386 262.72604Q32.003136 262.72604 31.409388 263.2573Q30.815638 263.77292 30.815638 264.55417Q30.815638 265.33542 31.409388 265.86667Q31.987513 266.3823 33.190636 266.3823ZM34.440636 260.49167L34.284386 259.46042Q34.909386 259.36667 35.23751 258.97604Q35.565636 258.5698 35.565636 257.83542Q35.565636 257.11667 35.284386 256.77292Q34.98751 256.41354 34.58126 256.41354Q34.221886 256.41354 34.01876 256.72604Q33.878136 256.9448 33.659386 257.80417Q33.36251 258.96042 33.159386 259.41354Q32.940636 259.85104 32.565636 260.08542Q32.190636 260.3198 31.721888 260.3198Q31.315638 260.3198 30.956263 260.1323Q30.596888 259.9448 30.362513 259.61667Q30.190638 259.36667 30.065638 258.9448Q29.940638 258.52292 29.940638 258.02292Q29.940638 257.30417 30.159388 256.7573Q30.362513 256.1948 30.721888 255.92917Q31.081263 255.66354 31.675013 255.5698L31.815638 256.60104Q31.346888 256.66354 31.081263 257.0073Q30.800013 257.33542 30.800013 257.96042Q30.800013 258.67917 31.050013 258.99167Q31.284388 259.30417 31.612513 259.30417Q31.815638 259.30417 31.971888 259.17917Q32.14376 259.03854 32.253136 258.77292Q32.315636 258.61667 32.51876 257.83542Q32.83126 256.71042 33.01876 256.27292Q33.20626 255.83542 33.565636 255.58542Q33.92501 255.33542 34.471886 255.33542Q35.003136 255.33542 35.471886 255.64792Q35.92501 255.9448 36.190636 256.52292Q36.440636 257.10104 36.440636 257.83542Q36.440636 259.05417 35.940636 259.6948Q35.42501 260.3198 34.440636 260.49167Z" fill-rule="nonzero"/><path fill="#000000" d="M92.8 428.46564Q92.8 426.9344 93.1125 426.0125Q93.425 425.075 94.03438 424.575Q94.65938 424.075 95.59688 424.075Q96.28438 424.075 96.8 424.35626Q97.33125 424.6375 97.675 425.16876Q98.01875 425.6844 98.20625 426.4344Q98.39375 427.1844 98.39375 428.46564Q98.39375 429.98126 98.08125 430.90314Q97.78438 431.825 97.15938 432.34064Q96.55 432.84064 95.59688 432.84064Q94.3625 432.84064 93.64375 431.95Q92.8 430.8875 92.8 428.46564ZM93.87813 428.46564Q93.87813 430.575 94.37813 431.27814Q94.87813 431.98126 95.59688 431.98126Q96.33125 431.98126 96.81563 431.27814Q97.31563 430.575 97.31563 428.46564Q97.31563 426.34064 96.81563 425.65314Q96.33125 424.95 95.58125 424.95Q94.8625 424.95 94.425 425.5594Q93.87813 426.34064 93.87813 428.46564Z" fill-rule="nonzero"/><path fill="#000000" d="M64.8 349.28333L65.90938 349.18958Q66.03438 350.00208 66.47188 350.40833Q66.925 350.81458 67.56563 350.81458Q68.31563 350.81458 68.84688 350.23645Q69.37813 349.65833 69.37813 348.72083Q69.37813 347.81458 68.8625 347.29895Q68.3625 346.7677 67.53438 346.7677Q67.03438 346.7677 66.6125 347.00208Q66.20625 347.23645 65.97188 347.59583L64.9875 347.47083L65.81563 343.06458L70.09688 343.06458L70.09688 344.06458L66.65938 344.06458L66.20625 346.37708Q66.97188 345.8302 67.81563 345.8302Q68.94063 345.8302 69.70625 346.61145Q70.4875 347.3927 70.4875 348.62708Q70.4875 349.78333 69.81563 350.6427Q68.9875 351.67395 67.56563 351.67395Q66.39375 351.67395 65.64375 351.0177Q64.90938 350.36145 64.8 349.28333ZM71.8 347.29895Q71.8 345.7677 72.1125 344.84583Q72.425 343.90833 73.03438 343.40833Q73.65938 342.90833 74.59688 342.90833Q75.28438 342.90833 75.8 343.18958Q76.33125 343.47083 76.675 344.00208Q77.01875 344.5177 77.20625 345.2677Q77.39375 346.0177 77.39375 347.29895Q77.39375 348.81458 77.08125 349.73645Q76.78438 350.65833 76.15938 351.17395Q75.55 351.67395 74.59688 351.67395Q73.3625 351.67395 72.64375 350.78333Q71.8 349.72083 71.8 347.29895ZM72.87813 347.29895Q72.87813 349.40833 73.37813 350.11145Q73.87813 350.81458 74.59688 350.81458Q75.33125 350.81458 75.81563 350.11145Q76.31563 349.40833 76.31563 347.29895Q76.31563 345.17395 75.81563 344.48645Q75.33125 343.78333 74.58125 343.78333Q73.8625 343.78333 73.425 344.3927Q72.87813 345.17395 72.87813 347.29895ZM78.8 347.29895Q78.8 345.7677 79.1125 344.84583Q79.425 343.90833 80.03438 343.40833Q80.65938 342.90833 81.59688 342.90833Q82.28438 342.90833 82.8 343.18958Q83.33125 343.47083 83.675 344.00208Q84.01875 344.5177 84.20625 345.2677Q84.39375 346.0177 84.39375 347.29895Q84.39375 348.81458 84.08125 349.73645Q83.78438 350.65833 83.15938 351.17395Q82.55 351.67395 81.59688 351.67395Q80.3625 351.67395 79.64375 350.78333Q78.8 349.72083 78.8 347.29895ZM79.87813 347.29895Q79.87813 349.40833 80.37813 350.11145Q80.87813 350.81458 81.59688 350.81458Q82.33125 350.81458 82.81563 350.11145Q83.31563 349.40833 83.31563 347.29895Q83.31563 345.17395 82.81563 344.48645Q82.33125 343.78333 81.58125 343.78333Q80.8625 343.78333 80.425 344.3927Q79.87813 345.17395 79.87813 347.29895ZM85.8 347.29895Q85.8 345.7677 86.1125 344.84583Q86.425 343.90833 87.03438 343.40833Q87.65938 342.90833 88.59688 342.90833Q89.28438 342.90833 89.8 343.18958Q90.33125 343.47083 90.675 344.00208Q91.01875 344.5177 91.20625 345.2677Q91.39375 346.0177 91.39375 347.29895Q91.39375 348.81458 91.08125 349.73645Q90.78438 350.65833 90.15938 351.17395Q89.55 351.67395 88.59688 351.67395Q87.3625 351.67395 86.64375 350.78333Q85.8 349.72083 85.8 347.29895ZM86.87813 347.29895Q86.87813 349.40833 87.37813 350.11145Q87.87813 350.81458 88.59688 350.81458Q89.33125 350.81458 89.81563 350.11145Q90.31563 349.40833 90.31563 347.29895Q90.31563 345.17395 89.81563 344.48645Q89.33125 343.78333 88.58125 343.78333Q87.8625 343.78333 87.425 344.3927Q86.87813 345.17395 86.87813 347.29895ZM92.8 347.29895Q92.8 345.7677 93.1125 344.84583Q93.425 343.90833 94.03438 343.40833Q94.65938 342.90833 95.59688 342.90833Q96.28438 342.90833 96.8 343.18958Q97.33125 343.47083 97.675 344.00208Q98.01875 344.5177 98.20625 345.2677Q98.39375 346.0177 98.39375 347.29895Q98.39375 348.81458 98.08125 349.73645Q97.78438 350.65833 97.15938 351.17395Q96.55 351.67395 95.59688 351.67395Q94.3625 351.67395 93.64375 350.78333Q92.8 349.72083 92.8 347.29895ZM93.87813 347.29895Q93.87813 349.40833 94.37813 350.11145Q94.87813 350.81458 95.59688 350.81458Q96.33125 350.81458 96.81563 350.11145Q97.31563 349.40833 97.31563 347.29895Q97.31563 345.17395 96.81563 344.48645Q96.33125 343.78333 95.58125 343.78333Q94.8625 343.78333 94.425 344.3927Q93.87813 345.17395 93.87813 347.29895Z" fill-rule="nonzero"/><path fill="#000000" d="M61.76875 270.36667L60.721874 270.36667L60.721874 263.64792Q60.33125 264.0073 59.70625 264.3823Q59.096874 264.74167 58.6125 264.91354L58.6125 263.89792Q59.4875 263.47604 60.14375 262.89792Q60.815624 262.30417 61.096874 261.74167L61.76875 261.74167L61.76875 270.36667ZM64.8 266.1323Q64.8 264.60104 65.1125 263.67917Q65.425 262.74167 66.03438 262.24167Q66.65938 261.74167 67.59688 261.74167Q68.28438 261.74167 68.8 262.02292Q69.33125 262.30417 69.675 262.83542Q70.01875 263.35104 70.20625 264.10104Q70.39375 264.85104 70.39375 266.1323Q70.39375 267.64792 70.08125 268.5698Q69.78438 269.49167 69.15938 270.0073Q68.55 270.5073 67.59688 270.5073Q66.3625 270.5073 65.64375 269.61667Q64.8 268.55417 64.8 266.1323ZM65.87813 266.1323Q65.87813 268.24167 66.37813 268.9448Q66.87813 269.64792 67.59688 269.64792Q68.33125 269.64792 68.81563 268.9448Q69.31563 268.24167 69.31563 266.1323Q69.31563 264.0073 68.81563 263.3198Q68.33125 262.61667 67.58125 262.61667Q66.8625 262.61667 66.425 263.22604Q65.87813 264.0073 65.87813 266.1323ZM71.8 266.1323Q71.8 264.60104 72.1125 263.67917Q72.425 262.74167 73.03438 262.24167Q73.65938 261.74167 74.59688 261.74167Q75.28438 261.74167 75.8 262.02292Q76.33125 262.30417 76.675 262.83542Q77.01875 263.35104 77.20625 264.10104Q77.39375 264.85104 77.39375 266.1323Q77.39375 267.64792 77.08125 268.5698Q76.78438 269.49167 76.15938 270.0073Q75.55 270.5073 74.59688 270.5073Q73.3625 270.5073 72.64375 269.61667Q71.8 268.55417 71.8 266.1323ZM72.87813 266.1323Q72.87813 268.24167 73.37813 268.9448Q73.87813 269.64792 74.59688 269.64792Q75.33125 269.64792 75.81563 268.9448Q76.31563 268.24167 76.31563 266.1323Q76.31563 264.0073 75.81563 263.3198Q75.33125 262.61667 74.58125 262.61667Q73.8625 262.61667 73.425 263.22604Q72.87813 264.0073 72.87813 266.1323ZM78.8 266.1323Q78.8 264.60104 79.1125 263.67917Q79.425 262.74167 80.03438 262.24167Q80.65938 261.74167 81.59688 261.74167Q82.28438 261.74167 82.8 262.02292Q83.33125 262.30417 83.675 262.83542Q84.01875 263.35104 84.20625 264.10104Q84.39375 264.85104 84.39375 266.1323Q84.39375 267.64792 84.08125 268.5698Q83.78438 269.49167 83.15938 270.0073Q82.55 270.5073 81.59688 270.5073Q80.3625 270.5073 79.64375 269.61667Q78.8 268.55417 78.8 266.1323ZM79.87813 266.1323Q79.87813 268.24167 80.37813 268.9448Q80.87813 269.64792 81.59688 269.64792Q82.33125 269.64792 82.81563 268.9448Q83.31563 268.24167 83.31563 266.1323Q83.31563 264.0073 82.81563 263.3198Q82.33125 262.61667 81.58125 262.61667Q80.8625 262.61667 80.425 263.22604Q79.87813 264.0073 79.87813 266.1323ZM85.8 266.1323Q85.8 264.60104 86.1125 263.67917Q86.425 262.74167 87.03438 262.24167Q87.65938 261.74167 88.59688 261.74167Q89.28438 261.74167 89.8 262.02292Q90.33125 262.30417 90.675 262.83542Q91.01875 263.35104 91.20625 264.10104Q91.39375 264.85104 91.39375 266.1323Q91.39375 267.64792 91.08125 268.5698Q90.78438 269.49167 90.15938 270.0073Q89.55 270.5073 88.59688 270.5073Q87.3625 270.5073 86.64375 269.61667Q85.8 268.55417 85.8 266.1323ZM86.87813 266.1323Q86.87813 268.24167 87.37813 268.9448Q87.87813 269.64792 88.59688 269.64792Q89.33125 269.64792 89.81563 268.9448Q90.31563 268.24167 90.31563 266.1323Q90.31563 264.0073 89.81563 263.3198Q89.33125 262.61667 88.58125 262.61667Q87.8625 262.61667 87.425 263.22604Q86.87813 264.0073 86.87813 266.1323ZM92.8 266.1323Q92.8 264.60104 93.1125 263.67917Q93.425 262.74167 94.03438 262.24167Q94.65938 261.74167 95.59688 261.74167Q96.28438 261.74167 96.8 262.02292Q97.33125 262.30417 97.675 262.83542Q98.01875 263.35104 98.20625 264.10104Q98.39375 264.85104 98.39375 266.1323Q98.39375 267.64792 98.08125 268.5698Q97.78438 269.49167 97.15938 270.0073Q96.55 270.5073 95.59688 270.5073Q94.3625 270.5073 93.64375 269.61667Q92.8 268.55417 92.8 266.1323ZM93.87813 266.1323Q93.87813 268.24167 94.37813 268.9448Q94.87813 269.64792 95.59688 269.64792Q96.33125 269.64792 96.81563 268.9448Q97.31563 268.24167 97.31563 266.1323Q97.31563 264.0073 96.81563 263.3198Q96.33125 262.61667 95.58125 262.61667Q94.8625 262.61667 94.425 263.22604Q93.87813 264.0073 93.87813 266.1323Z" fill-rule="nonzero"/><path fill="#000000" d="M61.76875 189.2L60.721874 189.2L60.721874 182.48125Q60.33125 182.84062 59.70625 183.21562Q59.096874 183.575 58.6125 183.74687L58.6125 182.73125Q59.4875 182.30937 60.14375 181.73125Q60.815624 181.1375 61.096874 180.575L61.76875 180.575L61.76875 189.2ZM64.8 186.95L65.90938 186.85625Q66.03438 187.66875 66.47188 188.075Q66.925 188.48125 67.56563 188.48125Q68.31563 188.48125 68.84688 187.90312Q69.37813 187.325 69.37813 186.3875Q69.37813 185.48125 68.8625 184.96562Q68.3625 184.43437 67.53438 184.43437Q67.03438 184.43437 66.6125 184.66875Q66.20625 184.90312 65.97188 185.2625L64.9875 185.1375L65.81563 180.73125L70.09688 180.73125L70.09688 181.73125L66.65938 181.73125L66.20625 184.04375Q66.97188 183.49687 67.81563 183.49687Q68.94063 183.49687 69.70625 184.27812Q70.4875 185.05937 70.4875 186.29375Q70.4875 187.45 69.81563 188.30937Q68.9875 189.34062 67.56563 189.34062Q66.39375 189.34062 65.64375 188.68437Q64.90938 188.02812 64.8 186.95ZM71.8 184.96562Q71.8 183.43437 72.1125 182.5125Q72.425 181.575 73.03438 181.075Q73.65938 180.575 74.59688 180.575Q75.28438 180.575 75.8 180.85625Q76.33125 181.1375 76.675 181.66875Q77.01875 182.18437 77.20625 182.93437Q77.39375 183.68437 77.39375 184.96562Q77.39375 186.48125 77.08125 187.40312Q76.78438 188.325 76.15938 188.84062Q75.55 189.34062 74.59688 189.34062Q73.3625 189.34062 72.64375 188.45Q71.8 187.3875 71.8 184.96562ZM72.87813 184.96562Q72.87813 187.075 73.37813 187.77812Q73.87813 188.48125 74.59688 188.48125Q75.33125 188.48125 75.81563 187.77812Q76.31563 187.075 76.31563 184.96562Q76.31563 182.84062 75.81563 182.15312Q75.33125 181.45 74.58125 181.45Q73.8625 181.45 73.425 182.05937Q72.87813 182.84062 72.87813 184.96562ZM78.8 184.96562Q78.8 183.43437 79.1125 182.5125Q79.425 181.575 80.03438 181.075Q80.65938 180.575 81.59688 180.575Q82.28438 180.575 82.8 180.85625Q83.33125 181.1375 83.675 181.66875Q84.01875 182.18437 84.20625 182.93437Q84.39375 183.68437 84.39375 184.96562Q84.39375 186.48125 84.08125 187.40312Q83.78438 188.325 83.15938 188.84062Q82.55 189.34062 81.59688 189.34062Q80.3625 189.34062 79.64375 188.45Q78.8 187.3875 78.8 184.96562ZM79.87813 184.96562Q79.87813 187.075 80.37813 187.77812Q80.87813 188.48125 81.59688 188.48125Q82.33125 188.48125 82.81563 187.77812Q83.31563 187.075 83.31563 184.96562Q83.31563 182.84062 82.81563 182.15312Q82.33125 181.45 81.58125 181.45Q80.8625 181.45 80.425 182.05937Q79.87813 182.84062 79.87813 184.96562ZM85.8 184.96562Q85.8 183.43437 86.1125 182.5125Q86.425 181.575 87.03438 181.075Q87.65938 180.575 88.59688 180.575Q89.28438 180.575 89.8 180.85625Q90.33125 181.1375 90.675 181.66875Q91.01875 182.18437 91.20625 182.93437Q91.39375 183.68437 91.39375 184.96562Q91.39375 186.48125 91.08125 187.40312Q90.78438 188.325 90.15938 188.84062Q89.55 189.34062 88.59688 189.34062Q87.3625 189.34062 86.64375 188.45Q85.8 187.3875 85.8 184.96562ZM86.87813 184.96562Q86.87813 187.075 87.37813 187.77812Q87.87813 188.48125 88.59688 188.48125Q89.33125 188.48125 89.81563 187.77812Q90.31563 187.075 90.31563 184.96562Q90.31563 182.84062 89.81563 182.15312Q89.33125 181.45 88.58125 181.45Q87.8625 181.45 87.425 182.05937Q86.87813 182.84062 86.87813 184.96562ZM92.8 184.96562Q92.8 183.43437 93.1125 182.5125Q93.425 181.575 94.03438 181.075Q94.65938 180.575 95.59688 180.575Q96.28438 180.575 96.8 180.85625Q97.33125 181.1375 97.675 181.66875Q98.01875 182.18437 98.20625 182.93437Q98.39375 183.68437 98.39375 184.96562Q98.39375 186.48125 98.08125 187.40312Q97.78438 188.325 97.15938 188.84062Q96.55 189.34062 95.59688 189.34062Q94.3625 189.34062 93.64375 188.45Q92.8 187.3875 92.8 184.96562ZM93.87813 184.96562Q93.87813 187.075 94.37813 187.77812Q94.87813 188.48125 95.59688 188.48125Q96.33125 188.48125 96.81563 187.77812Q97.31563 187.075 97.31563 184.96562Q97.31563 182.84062 96.81563 182.15312Q96.33125 181.45 95.58125 181.45Q94.8625 181.45 94.425 182.05937Q93.87813 182.84062 93.87813 184.96562Z" fill-rule="nonzero"/><path fill="#000000" d="M63.346874 107.01771L63.346874 108.03333L57.659374 108.03333Q57.659374 107.65833 57.784374 107.29896Q58.003124 106.72083 58.471874 106.15833Q58.95625 105.59583 59.8625 104.86146Q61.26875 103.70521 61.753124 103.03333Q62.253124 102.36146 62.253124 101.76771Q62.253124 101.14271 61.8 100.72083Q61.346874 100.28333 60.628124 100.28333Q59.8625 100.28333 59.409374 100.73646Q58.95625 101.18958 58.940624 102.00208L57.8625 101.89271Q57.971874 100.67396 58.690624 100.04896Q59.425 99.40833 60.659374 99.40833Q61.89375 99.40833 62.6125 100.09583Q63.33125 100.78333 63.33125 101.79896Q63.33125 102.31458 63.1125 102.81458Q62.909374 103.29896 62.409374 103.86146Q61.925 104.40833 60.8 105.36146Q59.846874 106.15833 59.565624 106.45521Q59.3 106.73646 59.128124 107.01771L63.346874 107.01771ZM64.8 103.79896Q64.8 102.26771 65.1125 101.34583Q65.425 100.40833 66.03438 99.90833Q66.65938 99.40833 67.59688 99.40833Q68.28438 99.40833 68.8 99.68958Q69.33125 99.97083 69.675 100.50208Q70.01875 101.01771 70.20625 101.76771Q70.39375 102.51771 70.39375 103.79896Q70.39375 105.31458 70.08125 106.23646Q69.78438 107.15833 69.15938 107.67396Q68.55 108.17396 67.59688 108.17396Q66.3625 108.17396 65.64375 107.28333Q64.8 106.22083 64.8 103.79896ZM65.87813 103.79896Q65.87813 105.90833 66.37813 106.61146Q66.87813 107.31458 67.59688 107.31458Q68.33125 107.31458 68.81563 106.61146Q69.31563 105.90833 69.31563 103.79896Q69.31563 101.67396 68.81563 100.98646Q68.33125 100.28333 67.58125 100.28333Q66.8625 100.28333 66.425 100.89271Q65.87813 101.67396 65.87813 103.79896ZM71.8 103.79896Q71.8 102.26771 72.1125 101.34583Q72.425 100.40833 73.03438 99.90833Q73.65938 99.40833 74.59688 99.40833Q75.28438 99.40833 75.8 99.68958Q76.33125 99.97083 76.675 100.50208Q77.01875 101.01771 77.20625 101.76771Q77.39375 102.51771 77.39375 103.79896Q77.39375 105.31458 77.08125 106.23646Q76.78438 107.15833 76.15938 107.67396Q75.55 108.17396 74.59688 108.17396Q73.3625 108.17396 72.64375 107.28333Q71.8 106.22083 71.8 103.79896ZM72.87813 103.79896Q72.87813 105.90833 73.37813 106.61146Q73.87813 107.31458 74.59688 107.31458Q75.33125 107.31458 75.81563 106.61146Q76.31563 105.90833 76.31563 103.79896Q76.31563 101.67396 75.81563 100.98646Q75.33125 100.28333 74.58125 100.28333Q73.8625 100.28333 73.425 100.89271Q72.87813 101.67396 72.87813 103.79896ZM78.8 103.79896Q78.8 102.26771 79.1125 101.34583Q79.425 100.40833 80.03438 99.90833Q80.65938 99.40833 81.59688 99.40833Q82.28438 99.40833 82.8 99.68958Q83.33125 99.97083 83.675 100.50208Q84.01875 101.01771 84.20625 101.76771Q84.39375 102.51771 84.39375 103.79896Q84.39375 105.31458 84.08125 106.23646Q83.78438 107.15833 83.15938 107.67396Q82.55 108.17396 81.59688 108.17396Q80.3625 108.17396 79.64375 107.28333Q78.8 106.22083 78.8 103.79896ZM79.87813 103.79896Q79.87813 105.90833 80.37813 106.61146Q80.87813 107.31458 81.59688 107.31458Q82.33125 107.31458 82.81563 106.61146Q83.31563 105.90833 83.31563 103.79896Q83.31563 101.67396 82.81563 100.98646Q82.33125 100.28333 81.58125 100.28333Q80.8625 100.28333 80.425 100.89271Q79.87813 101.67396 79.87813 103.79896ZM85.8 103.79896Q85.8 102.26771 86.1125 101.34583Q86.425 100.40833 87.03438 99.90833Q87.65938 99.40833 88.59688 99.40833Q89.28438 99.40833 89.8 99.68958Q90.33125 99.97083 90.675 100.50208Q91.01875 101.01771 91.20625 101.76771Q91.39375 102.51771 91.39375 103.79896Q91.39375 105.31458 91.08125 106.23646Q90.78438 107.15833 90.15938 107.67396Q89.55 108.17396 88.59688 108.17396Q87.3625 108.17396 86.64375 107.28333Q85.8 106.22083 85.8 103.79896ZM86.87813 103.79896Q86.87813 105.90833 87.37813 106.61146Q87.87813 107.31458 88.59688 107.31458Q89.33125 107.31458 89.81563 106.61146Q90.31563 105.90833 90.31563 103.79896Q90.31563 101.67396 89.81563 100.98646Q89.33125 100.28333 88.58125 100.28333Q87.8625 100.28333 87.425 100.89271Q86.87813 101.67396 86.87813 103.79896ZM92.8 103.79896Q92.8 102.26771 93.1125 101.34583Q93.425 100.40833 94.03438 99.90833Q94.65938 99.40833 95.59688 99.40833Q96.28438 99.40833 96.8 99.68958Q97.33125 99.97083 97.675 100.50208Q98.01875 101.01771 98.20625 101.76771Q98.39375 102.51771 98.39375 103.79896Q98.39375 105.31458 98.08125 106.23646Q97.78438 107.15833 97.15938 107.67396Q96.55 108.17396 95.59688 108.17396Q94.3625 108.17396 93.64375 107.28333Q92.8 106.22083 92.8 103.79896ZM93.87813 103.79896Q93.87813 105.90833 94.37813 106.61146Q94.87813 107.31458 95.59688 107.31458Q96.33125 107.31458 96.81563 106.61146Q97.31563 105.90833 97.31563 103.79896Q97.31563 101.67396 96.81563 100.98646Q96.33125 100.28333 95.58125 100.28333Q94.8625 100.28333 94.425 100.89271Q93.87813 101.67396 93.87813 103.79896Z" fill-rule="nonzero"/><path fill="#000000" d="M226.52136 444.6844L226.52136 445.7L220.83386 445.7Q220.83386 445.325 220.95886 444.96564Q221.17761 444.3875 221.64636 443.825Q222.13074 443.2625 223.03699 442.52814Q224.44324 441.3719 224.92761 440.7Q225.42761 440.02814 225.42761 439.4344Q225.42761 438.8094 224.97449 438.3875Q224.52136 437.95 223.80261 437.95Q223.03699 437.95 222.58386 438.40314Q222.13074 438.85626 222.11511 439.66876L221.03699 439.5594Q221.14636 438.34064 221.86511 437.71564Q222.59949 437.075 223.83386 437.075Q225.06824 437.075 225.78699 437.7625Q226.50574 438.45 226.50574 439.46564Q226.50574 439.98126 226.28699 440.48126Q226.08386 440.96564 225.58386 441.52814Q225.09949 442.075 223.97449 443.02814Q223.02136 443.825 222.74011 444.1219Q222.47449 444.40314 222.30261 444.6844L226.52136 444.6844ZM227.97449 441.46564Q227.97449 439.9344 228.28699 439.0125Q228.59949 438.075 229.20886 437.575Q229.83386 437.075 230.77136 437.075Q231.45886 437.075 231.97449 437.35626Q232.50574 437.6375 232.84949 438.16876Q233.19324 438.6844 233.38074 439.4344Q233.56824 440.1844 233.56824 441.46564Q233.56824 442.98126 233.25574 443.90314Q232.95886 444.825 232.33386 445.34064Q231.72449 445.84064 230.77136 445.84064Q229.53699 445.84064 228.81824 444.95Q227.97449 443.8875 227.97449 441.46564ZM229.05261 441.46564Q229.05261 443.575 229.55261 444.27814Q230.05261 444.98126 230.77136 444.98126Q231.50574 444.98126 231.99011 444.27814Q232.49011 443.575 232.49011 441.46564Q232.49011 439.34064 231.99011 438.65314Q231.50574 437.95 230.75574 437.95Q230.03699 437.95 229.59949 438.5594Q229.05261 439.34064 229.05261 441.46564ZM234.97449 441.46564Q234.97449 439.9344 235.28699 439.0125Q235.59949 438.075 236.20886 437.575Q236.83386 437.075 237.77136 437.075Q238.45886 437.075 238.97449 437.35626Q239.50574 437.6375 239.84949 438.16876Q240.19324 438.6844 240.38074 439.4344Q240.56824 440.1844 240.56824 441.46564Q240.56824 442.98126 240.25574 443.90314Q239.95886 444.825 239.33386 445.34064Q238.72449 445.84064 237.77136 445.84064Q236.53699 445.84064 235.81824 444.95Q234.97449 443.8875 234.97449 441.46564ZM236.05261 441.46564Q236.05261 443.575 236.55261 444.27814Q237.05261 444.98126 237.77136 444.98126Q238.50574 444.98126 238.99011 444.27814Q239.49011 443.575 239.49011 441.46564Q239.49011 439.34064 238.99011 438.65314Q238.50574 437.95 237.75574 437.95Q237.03699 437.95 236.59949 438.5594Q236.05261 439.34064 236.05261 441.46564ZM242.56824 445.7L242.56824 444.4969L243.77136 444.4969L243.77136 445.7L242.56824 445.7ZM244.97449 441.46564Q244.97449 439.9344 245.28699 439.0125Q245.59949 438.075 246.20886 437.575Q246.83386 437.075 247.77136 437.075Q248.45886 437.075 248.97449 437.35626Q249.50574 437.6375 249.84949 438.16876Q250.19324 438.6844 250.38074 439.4344Q250.56824 440.1844 250.56824 441.46564Q250.56824 442.98126 250.25574 443.90314Q249.95886 444.825 249.33386 445.34064Q248.72449 445.84064 247.77136 445.84064Q246.53699 445.84064 245.81824 444.95Q244.97449 443.8875 244.97449 441.46564ZM246.05261 441.46564Q246.05261 443.575 246.55261 444.27814Q247.05261 444.98126 247.77136 444.98126Q248.50574 444.98126 248.99011 444.27814Q249.49011 443.575 249.49011 441.46564Q249.49011 439.34064 248.99011 438.65314Q248.50574 437.95 247.75574 437.95Q247.03699 437.95 246.59949 438.5594Q246.05261 439.34064 246.05261 441.46564ZM251.97449 441.46564Q251.97449 439.9344 252.28699 439.0125Q252.59949 438.075 253.20886 437.575Q253.83386 437.075 254.77136 437.075Q255.45886 437.075 255.97449 437.35626Q256.50574 437.6375 256.8495 438.16876Q257.19324 438.6844 257.38074 439.4344Q257.56824 440.1844 257.56824 441.46564Q257.56824 442.98126 257.25574 443.90314Q256.95886 444.825 256.33386 445.34064Q255.72449 445.84064 254.77136 445.84064Q253.53699 445.84064 252.81824 444.95Q251.97449 443.8875 251.97449 441.46564ZM253.05261 441.46564Q253.05261 443.575 253.55261 444.27814Q254.05261 444.98126 254.77136 444.98126Q255.50574 444.98126 255.99011 444.27814Q256.4901 443.575 256.4901 441.46564Q256.4901 439.34064 255.99011 438.65314Q255.50574 437.95 254.75574 437.95Q254.03699 437.95 253.59949 438.5594Q253.05261 439.34064 253.05261 441.46564ZM258.9745 441.46564Q258.9745 439.9344 259.287 439.0125Q259.5995 438.075 260.20886 437.575Q260.83386 437.075 261.77136 437.075Q262.45886 437.075 262.9745 437.35626Q263.50574 437.6375 263.8495 438.16876Q264.19324 438.6844 264.38074 439.4344Q264.56824 440.1844 264.56824 441.46564Q264.56824 442.98126 264.25574 443.90314Q263.95886 444.825 263.33386 445.34064Q262.7245 445.84064 261.77136 445.84064Q260.537 445.84064 259.81824 444.95Q258.9745 443.8875 258.9745 441.46564ZM260.0526 441.46564Q260.0526 443.575 260.5526 444.27814Q261.0526 444.98126 261.77136 444.98126Q262.50574 444.98126 262.9901 444.27814Q263.4901 443.575 263.4901 441.46564Q263.4901 439.34064 262.9901 438.65314Q262.50574 437.95 261.75574 437.95Q261.037 437.95 260.5995 438.5594Q260.0526 439.34064 260.0526 441.46564Z" fill-rule="nonzero"/><path fill="#000000" d="M362.03088 445.7L362.03088 443.6375L358.31213 443.6375L358.31213 442.66876L362.234 437.10626L363.09338 437.10626L363.09338 442.66876L364.24963 442.66876L364.24963 443.6375L363.09338 443.6375L363.09338 445.7L362.03088 445.7ZM362.03088 442.66876L362.03088 438.8094L359.34338 442.66876L362.03088 442.66876ZM365.65588 441.46564Q365.65588 439.9344 365.96838 439.0125Q366.28088 438.075 366.89026 437.575Q367.51526 437.075 368.45276 437.075Q369.14026 437.075 369.65588 437.35626Q370.18713 437.6375 370.53088 438.16876Q370.87463 438.6844 371.06213 439.4344Q371.24963 440.1844 371.24963 441.46564Q371.24963 442.98126 370.93713 443.90314Q370.64026 444.825 370.01526 445.34064Q369.40588 445.84064 368.45276 445.84064Q367.21838 445.84064 366.49963 444.95Q365.65588 443.8875 365.65588 441.46564ZM366.734 441.46564Q366.734 443.575 367.234 444.27814Q367.734 444.98126 368.45276 444.98126Q369.18713 444.98126 369.6715 444.27814Q370.1715 443.575 370.1715 441.46564Q370.1715 439.34064 369.6715 438.65314Q369.18713 437.95 368.43713 437.95Q367.71838 437.95 367.28088 438.5594Q366.734 439.34064 366.734 441.46564ZM372.65588 441.46564Q372.65588 439.9344 372.96838 439.0125Q373.28088 438.075 373.89026 437.575Q374.51526 437.075 375.45276 437.075Q376.14026 437.075 376.65588 437.35626Q377.18713 437.6375 377.53088 438.16876Q377.87463 438.6844 378.06213 439.4344Q378.24963 440.1844 378.24963 441.46564Q378.24963 442.98126 377.93713 443.90314Q377.64026 444.825 377.01526 445.34064Q376.40588 445.84064 375.45276 445.84064Q374.21838 445.84064 373.49963 444.95Q372.65588 443.8875 372.65588 441.46564ZM373.734 441.46564Q373.734 443.575 374.234 444.27814Q374.734 444.98126 375.45276 444.98126Q376.18713 444.98126 376.6715 444.27814Q377.1715 443.575 377.1715 441.46564Q377.1715 439.34064 376.6715 438.65314Q376.18713 437.95 375.43713 437.95Q374.71838 437.95 374.28088 438.5594Q373.734 439.34064 373.734 441.46564ZM380.24963 445.7L380.24963 444.4969L381.45276 444.4969L381.45276 445.7L380.24963 445.7ZM382.65588 441.46564Q382.65588 439.9344 382.96838 439.0125Q383.28088 438.075 383.89026 437.575Q384.51526 437.075 385.45276 437.075Q386.14026 437.075 386.65588 437.35626Q387.18713 437.6375 387.53088 438.16876Q387.87463 438.6844 388.06213 439.4344Q388.24963 440.1844 388.24963 441.46564Q388.24963 442.98126 387.93713 443.90314Q387.64026 444.825 387.01526 445.34064Q386.40588 445.84064 385.45276 445.84064Q384.21838 445.84064 383.49963 444.95Q382.65588 443.8875 382.65588 441.46564ZM383.734 441.46564Q383.734 443.575 384.234 444.27814Q384.734 444.98126 385.45276 444.98126Q386.18713 444.98126 386.6715 444.27814Q387.1715 443.575 387.1715 441.46564Q387.1715 439.34064 386.6715 438.65314Q386.18713 437.95 385.43713 437.95Q384.71838 437.95 384.28088 438.5594Q383.734 439.34064 383.734 441.46564ZM389.65588 441.46564Q389.65588 439.9344 389.96838 439.0125Q390.28088 438.075 390.89026 437.575Q391.51526 437.075 392.45276 437.075Q393.14026 437.075 393.65588 437.35626Q394.18713 437.6375 394.53088 438.16876Q394.87463 438.6844 395.06213 439.4344Q395.24963 440.1844 395.24963 441.46564Q395.24963 442.98126 394.93713 443.90314Q394.64026 444.825 394.01526 445.34064Q393.40588 445.84064 392.45276 445.84064Q391.21838 445.84064 390.49963 444.95Q389.65588 443.8875 389.65588 441.46564ZM390.734 441.46564Q390.734 443.575 391.234 444.27814Q391.734 444.98126 392.45276 444.98126Q393.18713 444.98126 393.6715 444.27814Q394.1715 443.575 394.1715 441.46564Q394.1715 439.34064 393.6715 438.65314Q393.18713 437.95 392.43713 437.95Q391.71838 437.95 391.28088 438.5594Q390.734 439.34064 390.734 441.46564ZM396.65588 441.46564Q396.65588 439.9344 396.96838 439.0125Q397.28088 438.075 397.89026 437.575Q398.51526 437.075 399.45276 437.075Q400.14026 437.075 400.65588 437.35626Q401.18713 437.6375 401.53088 438.16876Q401.87463 438.6844 402.06213 439.4344Q402.24963 440.1844 402.24963 441.46564Q402.24963 442.98126 401.93713 443.90314Q401.64026 444.825 401.01526 445.34064Q400.40588 445.84064 399.45276 445.84064Q398.21838 445.84064 397.49963 444.95Q396.65588 443.8875 396.65588 441.46564ZM397.734 441.46564Q397.734 443.575 398.234 444.27814Q398.734 444.98126 399.45276 444.98126Q400.18713 444.98126 400.6715 444.27814Q401.1715 443.575 401.1715 441.46564Q401.1715 439.34064 400.6715 438.65314Q400.18713 437.95 399.43713 437.95Q398.71838 437.95 398.28088 438.5594Q397.734 439.34064 397.734 441.46564Z" fill-rule="nonzero"/><path fill="#000000" d="M501.806 439.21564L500.75912 439.29376Q500.6185 438.66876 500.3685 438.3875Q499.931 437.9344 499.306 437.9344Q498.806 437.9344 498.41537 438.21564Q497.931 438.59064 497.63412 439.29376Q497.35287 439.98126 497.33725 441.2625Q497.71225 440.6844 498.25912 440.40314Q498.82162 440.1219 499.431 440.1219Q500.47787 440.1219 501.21225 440.90314Q501.96225 441.6844 501.96225 442.90314Q501.96225 443.71564 501.60287 444.41876Q501.25912 445.10626 500.64975 445.48126Q500.04037 445.84064 499.27475 445.84064Q497.94662 445.84064 497.1185 444.8719Q496.29037 443.90314 496.29037 441.6844Q496.29037 439.1844 497.21225 438.0594Q498.00912 437.075 499.3685 437.075Q500.38412 437.075 501.02475 437.65314Q501.681 438.21564 501.806 439.21564ZM497.50912 442.91876Q497.50912 443.46564 497.72787 443.96564Q497.96225 444.45 498.3685 444.71564Q498.79037 444.98126 499.25912 444.98126Q499.91537 444.98126 500.39975 444.45Q500.88412 443.90314 500.88412 442.98126Q500.88412 442.09064 500.39975 441.575Q499.931 441.0594 499.21225 441.0594Q498.4935 441.0594 497.9935 441.575Q497.50912 442.09064 497.50912 442.91876ZM503.33725 441.46564Q503.33725 439.9344 503.64975 439.0125Q503.96225 438.075 504.57162 437.575Q505.19662 437.075 506.13412 437.075Q506.82162 437.075 507.33725 437.35626Q507.8685 437.6375 508.21225 438.16876Q508.556 438.6844 508.7435 439.4344Q508.931 440.1844 508.931 441.46564Q508.931 442.98126 508.6185 443.90314Q508.32162 444.825 507.69662 445.34064Q507.08725 445.84064 506.13412 445.84064Q504.89975 445.84064 504.181 444.95Q503.33725 443.8875 503.33725 441.46564ZM504.41537 441.46564Q504.41537 443.575 504.91537 444.27814Q505.41537 444.98126 506.13412 444.98126Q506.8685 444.98126 507.35287 444.27814Q507.85287 443.575 507.85287 441.46564Q507.85287 439.34064 507.35287 438.65314Q506.8685 437.95 506.1185 437.95Q505.39975 437.95 504.96225 438.5594Q504.41537 439.34064 504.41537 441.46564ZM510.33725 441.46564Q510.33725 439.9344 510.64975 439.0125Q510.96225 438.075 511.57162 437.575Q512.19666 437.075 513.13416 437.075Q513.82166 437.075 514.3373 437.35626Q514.8685 437.6375 515.2123 438.16876Q515.556 438.6844 515.7435 439.4344Q515.931 440.1844 515.931 441.46564Q515.931 442.98126 515.6185 443.90314Q515.32166 444.825 514.69666 445.34064Q514.0873 445.84064 513.13416 445.84064Q511.89975 445.84064 511.181 444.95Q510.33725 443.8875 510.33725 441.46564ZM511.41537 441.46564Q511.41537 443.575 511.91537 444.27814Q512.4154 444.98126 513.13416 444.98126Q513.8685 444.98126 514.3529 444.27814Q514.8529 443.575 514.8529 441.46564Q514.8529 439.34064 514.3529 438.65314Q513.8685 437.95 513.1185 437.95Q512.3998 437.95 511.96225 438.5594Q511.41537 439.34064 511.41537 441.46564ZM517.931 445.7L517.931 444.4969L519.13416 444.4969L519.13416 445.7L517.931 445.7ZM520.3373 441.46564Q520.3373 439.9344 520.6498 439.0125Q520.9623 438.075 521.57166 437.575Q522.19666 437.075 523.13416 437.075Q523.82166 437.075 524.3373 437.35626Q524.8685 437.6375 525.2123 438.16876Q525.556 438.6844 525.7435 439.4344Q525.931 440.1844 525.931 441.46564Q525.931 442.98126 525.6185 443.90314Q525.32166 444.825 524.69666 445.34064Q524.0873 445.84064 523.13416 445.84064Q521.8998 445.84064 521.181 444.95Q520.3373 443.8875 520.3373 441.46564ZM521.4154 441.46564Q521.4154 443.575 521.9154 444.27814Q522.4154 444.98126 523.13416 444.98126Q523.8685 444.98126 524.3529 444.27814Q524.8529 443.575 524.8529 441.46564Q524.8529 439.34064 524.3529 438.65314Q523.8685 437.95 523.1185 437.95Q522.3998 437.95 521.9623 438.5594Q521.4154 439.34064 521.4154 441.46564ZM527.3373 441.46564Q527.3373 439.9344 527.6498 439.0125Q527.9623 438.075 528.57166 437.575Q529.19666 437.075 530.13416 437.075Q530.82166 437.075 531.3373 437.35626Q531.8685 437.6375 532.2123 438.16876Q532.556 438.6844 532.7435 439.4344Q532.931 440.1844 532.931 441.46564Q532.931 442.98126 532.6185 443.90314Q532.32166 444.825 531.69666 445.34064Q531.0873 445.84064 530.13416 445.84064Q528.8998 445.84064 528.181 444.95Q527.3373 443.8875 527.3373 441.46564ZM528.4154 441.46564Q528.4154 443.575 528.9154 444.27814Q529.4154 444.98126 530.13416 444.98126Q530.8685 444.98126 531.3529 444.27814Q531.8529 443.575 531.8529 441.46564Q531.8529 439.34064 531.3529 438.65314Q530.8685 437.95 530.1185 437.95Q529.3998 437.95 528.9623 438.5594Q528.4154 439.34064 528.4154 441.46564ZM534.3373 441.46564Q534.3373 439.9344 534.6498 439.0125Q534.9623 438.075 535.57166 437.575Q536.19666 437.075 537.13416 437.075Q537.82166 437.075 538.3373 437.35626Q538.8685 437.6375 539.2123 438.16876Q539.556 438.6844 539.7435 439.4344Q539.931 440.1844 539.931 441.46564Q539.931 442.98126 539.6185 443.90314Q539.32166 444.825 538.69666 445.34064Q538.0873 445.84064 537.13416 445.84064Q535.8998 445.84064 535.181 444.95Q534.3373 443.8875 534.3373 441.46564ZM535.4154 441.46564Q535.4154 443.575 535.9154 444.27814Q536.4154 444.98126 537.13416 444.98126Q537.8685 444.98126 538.3529 444.27814Q538.8529 443.575 538.8529 441.46564Q538.8529 439.34064 538.3529 438.65314Q537.8685 437.95 537.1185 437.95Q536.3998 437.95 535.9623 438.5594Q535.4154 439.34064 535.4154 441.46564Z" fill-rule="nonzero"/><path fill="#000000" d="M635.6436 441.04376Q634.98737 440.79376 634.65924 440.35626Q634.34674 439.90314 634.34674 439.29376Q634.34674 438.35626 635.0186 437.71564Q635.7061 437.075 636.8155 437.075Q637.9405 437.075 638.628 437.73126Q639.3155 438.3875 639.3155 439.325Q639.3155 439.91876 639.003 440.35626Q638.6905 440.79376 638.04987 441.04376Q638.84674 441.29376 639.253 441.8719Q639.65924 442.45 639.65924 443.2469Q639.65924 444.34064 638.878 445.09064Q638.11237 445.84064 636.8311 445.84064Q635.5655 445.84064 634.78424 445.09064Q634.003 444.34064 634.003 443.21564Q634.003 442.3719 634.42487 441.8094Q634.86237 441.2469 635.6436 441.04376ZM635.42487 439.2469Q635.42487 439.85626 635.8155 440.2469Q636.22174 440.6375 636.84674 440.6375Q637.4561 440.6375 637.84674 440.2625Q638.23737 439.8719 638.23737 439.3094Q638.23737 438.73126 637.8311 438.34064Q637.42487 437.9344 636.8311 437.9344Q636.22174 437.9344 635.8155 438.325Q635.42487 438.71564 635.42487 439.2469ZM635.09674 443.21564Q635.09674 443.66876 635.29987 444.09064Q635.5186 444.5125 635.9405 444.7469Q636.36237 444.98126 636.84674 444.98126Q637.59674 444.98126 638.0811 444.4969Q638.5811 444.0125 638.5811 443.2625Q638.5811 442.4969 638.0811 441.9969Q637.5811 441.4969 636.8155 441.4969Q636.0655 441.4969 635.5811 441.9969Q635.09674 442.48126 635.09674 443.21564ZM641.0186 441.46564Q641.0186 439.9344 641.3311 439.0125Q641.6436 438.075 642.253 437.575Q642.878 437.075 643.8155 437.075Q644.503 437.075 645.0186 437.35626Q645.54987 437.6375 645.8936 438.16876Q646.23737 438.6844 646.42487 439.4344Q646.61237 440.1844 646.61237 441.46564Q646.61237 442.98126 646.29987 443.90314Q646.003 444.825 645.378 445.34064Q644.7686 445.84064 643.8155 445.84064Q642.5811 445.84064 641.86237 444.95Q641.0186 443.8875 641.0186 441.46564ZM642.09674 441.46564Q642.09674 443.575 642.59674 444.27814Q643.09674 444.98126 643.8155 444.98126Q644.54987 444.98126 645.03424 444.27814Q645.53424 443.575 645.53424 441.46564Q645.53424 439.34064 645.03424 438.65314Q644.54987 437.95 643.79987 437.95Q643.0811 437.95 642.6436 438.5594Q642.09674 439.34064 642.09674 441.46564ZM648.0186 441.46564Q648.0186 439.9344 648.3311 439.0125Q648.6436 438.075 649.253 437.575Q649.878 437.075 650.8155 437.075Q651.503 437.075 652.0186 437.35626Q652.54987 437.6375 652.8936 438.16876Q653.23737 438.6844 653.42487 439.4344Q653.61237 440.1844 653.61237 441.46564Q653.61237 442.98126 653.29987 443.90314Q653.003 444.825 652.378 445.34064Q651.7686 445.84064 650.8155 445.84064Q649.5811 445.84064 648.86237 444.95Q648.0186 443.8875 648.0186 441.46564ZM649.09674 441.46564Q649.09674 443.575 649.59674 444.27814Q650.09674 444.98126 650.8155 444.98126Q651.54987 444.98126 652.03424 444.27814Q652.53424 443.575 652.53424 441.46564Q652.53424 439.34064 652.03424 438.65314Q651.54987 437.95 650.79987 437.95Q650.0811 437.95 649.6436 438.5594Q649.09674 439.34064 649.09674 441.46564ZM655.61237 445.7L655.61237 444.4969L656.8155 444.4969L656.8155 445.7L655.61237 445.7ZM658.0186 441.46564Q658.0186 439.9344 658.3311 439.0125Q658.6436 438.075 659.253 437.575Q659.878 437.075 660.8155 437.075Q661.503 437.075 662.0186 437.35626Q662.54987 437.6375 662.8936 438.16876Q663.23737 438.6844 663.42487 439.4344Q663.61237 440.1844 663.61237 441.46564Q663.61237 442.98126 663.29987 443.90314Q663.003 444.825 662.378 445.34064Q661.7686 445.84064 660.8155 445.84064Q659.5811 445.84064 658.86237 444.95Q658.0186 443.8875 658.0186 441.46564ZM659.09674 441.46564Q659.09674 443.575 659.59674 444.27814Q660.09674 444.98126 660.8155 444.98126Q661.54987 444.98126 662.03424 444.27814Q662.53424 443.575 662.53424 441.46564Q662.53424 439.34064 662.03424 438.65314Q661.54987 437.95 660.79987 437.95Q660.0811 437.95 659.6436 438.5594Q659.09674 439.34064 659.09674 441.46564ZM665.0186 441.46564Q665.0186 439.9344 665.3311 439.0125Q665.6436 438.075 666.253 437.575Q666.878 437.075 667.8155 437.075Q668.503 437.075 669.0186 437.35626Q669.54987 437.6375 669.8936 438.16876Q670.23737 438.6844 670.42487 439.4344Q670.61237 440.1844 670.61237 441.46564Q670.61237 442.98126 670.29987 443.90314Q670.003 444.825 669.378 445.34064Q668.7686 445.84064 667.8155 445.84064Q666.5811 445.84064 665.86237 444.95Q665.0186 443.8875 665.0186 441.46564ZM666.09674 441.46564Q666.09674 443.575 666.59674 444.27814Q667.09674 444.98126 667.8155 444.98126Q668.54987 444.98126 669.03424 444.27814Q669.53424 443.575 669.53424 441.46564Q669.53424 439.34064 669.03424 438.65314Q668.54987 437.95 667.79987 437.95Q667.0811 437.95 666.6436 438.5594Q666.09674 439.34064 666.09674 441.46564ZM672.0186 441.46564Q672.0186 439.9344 672.3311 439.0125Q672.6436 438.075 673.253 437.575Q673.878 437.075 674.8155 437.075Q675.503 437.075 676.0186 437.35626Q676.54987 437.6375 676.8936 438.16876Q677.23737 438.6844 677.42487 439.4344Q677.61237 440.1844 677.61237 441.46564Q677.61237 442.98126 677.29987 443.90314Q677.003 444.825 676.378 445.34064Q675.7686 445.84064 674.8155 445.84064Q673.5811 445.84064 672.86237 444.95Q672.0186 443.8875 672.0186 441.46564ZM673.09674 441.46564Q673.09674 443.575 673.59674 444.27814Q674.09674 444.98126 674.8155 444.98126Q675.54987 444.98126 676.03424 444.27814Q676.53424 443.575 676.53424 441.46564Q676.53424 439.34064 676.03424 438.65314Q675.54987 437.95 674.79987 437.95Q674.0811 437.95 673.6436 438.5594Q673.09674 439.34064 673.09674 441.46564Z" fill-rule="nonzero"/><path stroke="#4285f4" stroke-width="4.0" stroke-linecap="butt" d="M344.5 73.166664L356.5 73.166664" fill-rule="nonzero"/><path fill="#1a1a1a" d="M369.35938 74.885414L370.39062 75.02604Q370.21875 76.08854 369.51562 76.697914Q368.8125 77.30729 367.79688 77.30729Q366.51562 77.30729 365.73438 76.479164Q364.96875 75.635414 364.96875 74.072914Q364.96875 73.072914 365.29688 72.322914Q365.64062 71.55729 366.3125 71.18229Q367.0 70.80729 367.8125 70.80729Q368.8125 70.80729 369.45312 71.322914Q370.10938 71.822914 370.29688 72.77604L369.26562 72.93229Q369.125 72.30729 368.75 71.99479Q368.375 71.666664 367.84375 71.666664Q367.04688 71.666664 366.54688 72.24479Q366.04688 72.80729 366.04688 74.041664Q366.04688 75.30729 366.53125 75.86979Q367.01562 76.43229 367.78125 76.43229Q368.40625 76.43229 368.8125 76.05729Q369.23438 75.68229 369.35938 74.885414ZM370.90625 74.05729Q370.90625 72.322914 371.85938 71.49479Q372.65625 70.80729 373.8125 70.80729Q375.09375 70.80729 375.90625 71.65104Q376.73438 72.479164 376.73438 73.96354Q376.73438 75.166664 376.375 75.854164Q376.01562 76.541664 375.3125 76.93229Q374.625 77.30729 373.8125 77.30729Q372.51562 77.30729 371.70312 76.479164Q370.90625 75.635414 370.90625 74.05729ZM371.98438 74.05729Q371.98438 75.24479 372.5 75.83854Q373.03125 76.43229 373.8125 76.43229Q374.60938 76.43229 375.125 75.83854Q375.64062 75.24479 375.64062 74.02604Q375.64062 72.86979 375.10938 72.27604Q374.59375 71.68229 373.8125 71.68229Q373.03125 71.68229 372.5 72.27604Q371.98438 72.854164 371.98438 74.05729ZM382.375 77.166664L382.375 76.24479Q381.64062 77.30729 380.39062 77.30729Q379.84375 77.30729 379.35938 77.104164Q378.89062 76.885414 378.65625 76.572914Q378.42188 76.24479 378.32812 75.77604Q378.26562 75.479164 378.26562 74.791664L378.26562 70.947914L379.32812 70.947914L379.32812 74.40104Q379.32812 75.21354 379.39062 75.510414Q379.48438 75.916664 379.79688 76.166664Q380.125 76.40104 380.60938 76.40104Q381.07812 76.40104 381.48438 76.166664Q381.90625 75.916664 382.07812 75.49479Q382.26562 75.072914 382.26562 74.27604L382.26562 70.947914L383.3125 70.947914L383.3125 77.166664L382.375 77.166664ZM385.29688 77.166664L385.29688 70.947914L386.23438 70.947914L386.23438 71.822914Q386.92188 70.80729 388.21875 70.80729Q388.78125 70.80729 389.25 71.010414Q389.73438 71.21354 389.96875 71.541664Q390.20312 71.86979 390.29688 72.30729Q390.34375 72.604164 390.34375 73.33854L390.34375 77.166664L389.29688 77.166664L389.29688 73.385414Q389.29688 72.729164 389.17188 72.416664Q389.04688 72.104164 388.73438 71.916664Q388.42188 71.71354 388.0 71.71354Q387.32812 71.71354 386.82812 72.15104Q386.34375 72.572914 386.34375 73.760414L386.34375 77.166664L385.29688 77.166664ZM394.59375 76.229164L394.75 77.15104Q394.29688 77.24479 393.95312 77.24479Q393.375 77.24479 393.0625 77.072914Q392.75 76.885414 392.60938 76.58854Q392.48438 76.291664 392.48438 75.33854L392.48438 71.760414L391.71875 71.760414L391.71875 70.947914L392.48438 70.947914L392.48438 69.40104L393.53125 68.77604L393.53125 70.947914L394.59375 70.947914L394.59375 71.760414L393.53125 71.760414L393.53125 75.40104Q393.53125 75.854164 393.57812 75.979164Q393.64062 76.104164 393.76562 76.18229Q393.89062 76.260414 394.125 76.260414Q394.3125 76.260414 394.59375 76.229164ZM395.29688 69.791664L395.29688 68.572914L396.35938 68.572914L396.35938 69.791664L395.29688 69.791664ZM395.29688 77.166664L395.29688 70.947914L396.35938 70.947914L396.35938 77.166664L395.29688 77.166664ZM398.29688 77.166664L398.29688 70.947914L399.23438 70.947914L399.23438 71.822914Q399.92188 70.80729 401.21875 70.80729Q401.78125 70.80729 402.25 71.010414Q402.73438 71.21354 402.96875 71.541664Q403.20312 71.86979 403.29688 72.30729Q403.34375 72.604164 403.34375 73.33854L403.34375 77.166664L402.29688 77.166664L402.29688 73.385414Q402.29688 72.729164 402.17188 72.416664Q402.04688 72.104164 401.73438 71.916664Q401.42188 71.71354 401.0 71.71354Q400.32812 71.71354 399.82812 72.15104Q399.34375 72.572914 399.34375 73.760414L399.34375 77.166664L398.29688 77.166664ZM405.09375 77.68229L406.125 77.83854Q406.1875 78.30729 406.48438 78.52604Q406.875 78.822914 407.54688 78.822914Q408.28125 78.822914 408.67188 78.52604Q409.07812 78.229164 409.21875 77.71354Q409.3125 77.385414 409.29688 76.354164Q408.60938 77.166664 407.57812 77.166664Q406.29688 77.166664 405.59375 76.24479Q404.89062 75.30729 404.89062 74.02604Q404.89062 73.135414 405.20312 72.385414Q405.53125 71.61979 406.14062 71.21354Q406.75 70.80729 407.57812 70.80729Q408.6875 70.80729 409.40625 71.697914L409.40625 70.947914L410.375 70.947914L410.375 76.322914Q410.375 77.77604 410.07812 78.385414Q409.78125 78.99479 409.14062 79.33854Q408.5 79.697914 407.5625 79.697914Q406.45312 79.697914 405.76562 79.197914Q405.07812 78.697914 405.09375 77.68229ZM405.96875 73.947914Q405.96875 75.166664 406.45312 75.729164Q406.9375 76.291664 407.67188 76.291664Q408.40625 76.291664 408.89062 75.729164Q409.39062 75.166664 409.39062 73.979164Q409.39062 72.83854 408.875 72.260414Q408.375 71.68229 407.65625 71.68229Q406.95312 71.68229 406.45312 72.260414Q405.96875 72.822914 405.96875 73.947914Z" fill-rule="nonzero"/><path stroke="#ea4335" stroke-width="4.0" stroke-linecap="butt" d="M427.5 73.166664L439.5 73.166664" fill-rule="nonzero"/><path fill="#1a1a1a" d="M448.28125 77.166664L448.28125 70.947914L449.23438 70.947914L449.23438 71.885414Q449.59375 71.229164 449.89062 71.02604Q450.20312 70.80729 450.57812 70.80729Q451.10938 70.80729 451.65625 71.135414L451.29688 72.11979Q450.90625 71.885414 450.53125 71.885414Q450.17188 71.885414 449.89062 72.104164Q449.625 72.30729 449.51562 72.68229Q449.32812 73.24479 449.32812 73.90104L449.32812 77.166664L448.28125 77.166664ZM456.35938 76.40104Q455.76562 76.90104 455.21875 77.104164Q454.6875 77.30729 454.0625 77.30729Q453.03125 77.30729 452.48438 76.80729Q451.9375 76.30729 451.9375 75.52604Q451.9375 75.072914 452.14062 74.697914Q452.34375 74.30729 452.6875 74.08854Q453.03125 73.854164 453.45312 73.74479Q453.75 73.65104 454.39062 73.572914Q455.65625 73.43229 456.26562 73.21354Q456.26562 72.99479 456.26562 72.947914Q456.26562 72.291664 455.96875 72.02604Q455.5625 71.68229 454.76562 71.68229Q454.03125 71.68229 453.67188 71.947914Q453.3125 72.197914 453.14062 72.854164L452.10938 72.71354Q452.25 72.05729 452.57812 71.65104Q452.90625 71.24479 453.51562 71.02604Q454.125 70.80729 454.92188 70.80729Q455.71875 70.80729 456.21875 70.99479Q456.71875 71.18229 456.95312 71.46354Q457.1875 71.74479 457.28125 72.18229Q457.32812 72.447914 457.32812 73.15104L457.32812 74.55729Q457.32812 76.02604 457.39062 76.416664Q457.46875 76.80729 457.67188 77.166664L456.5625 77.166664Q456.40625 76.83854 456.35938 76.40104ZM456.26562 74.041664Q455.6875 74.27604 454.54688 74.447914Q453.89062 74.541664 453.625 74.666664Q453.35938 74.77604 453.20312 74.99479Q453.0625 75.21354 453.0625 75.49479Q453.0625 75.916664 453.375 76.197914Q453.70312 76.479164 454.3125 76.479164Q454.92188 76.479164 455.39062 76.21354Q455.875 75.947914 456.09375 75.479164Q456.26562 75.11979 456.26562 74.43229L456.26562 74.041664ZM463.32812 77.166664L463.32812 76.385414Q462.73438 77.30729 461.59375 77.30729Q460.84375 77.30729 460.21875 76.90104Q459.59375 76.479164 459.25 75.74479Q458.90625 75.010414 458.90625 74.05729Q458.90625 73.135414 459.21875 72.36979Q459.53125 71.604164 460.15625 71.21354Q460.78125 70.80729 461.54688 70.80729Q462.10938 70.80729 462.54688 71.041664Q462.98438 71.27604 463.26562 71.65104L463.26562 68.572914L464.3125 68.572914L464.3125 77.166664L463.32812 77.166664ZM460.0 74.05729Q460.0 75.260414 460.5 75.854164Q461.0 76.43229 461.6875 76.43229Q462.375 76.43229 462.85938 75.86979Q463.34375 75.30729 463.34375 74.15104Q463.34375 72.86979 462.84375 72.27604Q462.35938 71.68229 461.64062 71.68229Q460.9375 71.68229 460.46875 72.260414Q460.0 72.822914 460.0 74.05729ZM466.29688 69.791664L466.29688 68.572914L467.35938 68.572914L467.35938 69.791664L466.29688 69.791664ZM466.29688 77.166664L466.29688 70.947914L467.35938 70.947914L467.35938 77.166664L466.29688 77.166664ZM468.59375 77.166664L470.85938 73.93229L468.76562 70.947914L470.07812 70.947914L471.03125 72.40104Q471.29688 72.822914 471.46875 73.104164Q471.71875 72.71354 471.9375 72.416664L472.98438 70.947914L474.25 70.947914L472.09375 73.86979L474.40625 77.166664L473.125 77.166664L471.84375 75.229164L471.5 74.71354L469.85938 77.166664L468.59375 77.166664Z" fill-rule="nonzero"/><path fill="#757575" d="M26.26875 37.33125Q26.26875 33.76875 28.175 31.753124Q30.096874 29.721874 33.128124 29.721874Q35.1125 29.721874 36.690624 30.675Q38.284374 31.628124 39.1125 33.33125Q39.95625 35.01875 39.95625 37.159374Q39.95625 39.33125 39.08125 41.05Q38.20625 42.76875 36.58125 43.659374Q34.971874 44.55 33.1125 44.55Q31.096874 44.55 29.503124 43.58125Q27.909374 42.596874 27.08125 40.909374Q26.26875 39.20625 26.26875 37.33125ZM28.221874 37.3625Q28.221874 39.940624 29.6125 41.440624Q31.003124 42.925 33.096874 42.925Q35.2375 42.925 36.6125 41.425Q38.003124 39.909374 38.003124 37.14375Q38.003124 35.409374 37.409374 34.1125Q36.83125 32.8 35.690624 32.08125Q34.55 31.3625 33.128124 31.3625Q31.128124 31.3625 29.675 32.753124Q28.221874 34.128124 28.221874 37.3625ZM45.971874 48.503124Q44.51875 46.675 43.51875 44.221874Q42.51875 41.753124 42.51875 39.1125Q42.51875 36.784374 43.26875 34.659374Q44.14375 32.190624 45.971874 29.7375L47.2375 29.7375Q46.05 31.76875 45.675 32.64375Q45.08125 33.9875 44.7375 35.45625Q44.315624 37.284374 44.315624 39.128124Q44.315624 43.815624 47.2375 48.503124L45.971874 48.503124ZM49.628124 44.3L49.628124 29.9875L51.39375 29.9875L51.39375 38.14375L55.55 33.925L57.815624 33.925L53.8625 37.76875L58.221874 44.3L56.05 44.3L52.628124 39.003124L51.39375 40.190624L51.39375 44.3L49.628124 44.3ZM59.6125 44.3L59.6125 33.925L61.20625 33.925L61.20625 35.409374Q62.346874 33.690624 64.50313 33.690624Q65.44063 33.690624 66.22188 34.034374Q67.01875 34.3625 67.40938 34.909374Q67.8 35.45625 67.95625 36.20625Q68.05 36.70625 68.05 37.925L68.05 44.3L66.28438 44.3L66.28438 37.9875Q66.28438 36.909374 66.08125 36.378124Q65.87813 35.846874 65.34688 35.534374Q64.83125 35.221874 64.12813 35.221874Q63.003124 35.221874 62.190624 35.940624Q61.378124 36.64375 61.378124 38.628124L61.378124 44.3L59.6125 44.3ZM71.76875 48.503124L70.51875 48.503124Q73.425 43.815624 73.425 39.128124Q73.425 37.284374 73.01875 35.4875Q72.675 34.01875 72.08125 32.675Q71.70625 31.784374 70.51875 29.7375L71.76875 29.7375Q73.6125 32.190624 74.4875 34.659374Q75.2375 36.784374 75.2375 39.1125Q75.2375 41.753124 74.22188 44.221874Q73.22188 46.675 71.76875 48.503124Z" fill-rule="nonzero"/></svg>