<svg version="1.1" viewBox="0.0 0.0 819.0 506.0" fill="none" stroke="none" stroke-linecap="square" stroke-miterlimit="10" width="819" height="506" xmlns:xlink="http://www.w3.org/1999/xlink" xmlns="http://www.w3.org/2000/svg"><path fill="#ffffff" d="M0 0L819.0 0L819.0 506.0L0 506.0L0 0Z" fill-rule="nonzero"/><path stroke="#cccccc" stroke-width="1.0" stroke-linecap="butt" d="M242.5 104.5L242.5 428.5" fill-rule="nonzero"/><path stroke="#cccccc" stroke-width="1.0" stroke-linecap="butt" d="M380.5 104.5L380.5 428.5" fill-rule="nonzero"/><path stroke="#cccccc" stroke-width="1.0" stroke-linecap="butt" d="M518.5 104.5L518.5 428.5" fill-rule="nonzero"/><path stroke="#cccccc" stroke-width="1.0" stroke-linecap="butt" d="M656.5 104.5L656.5 428.5" fill-rule="nonzero"/><path stroke="#cccccc" stroke-width="1.0" stroke-linecap="butt" d="M793.5 104.5L793.5 428.5" fill-rule="nonzero"/><path stroke="#333333" stroke-width="1.0" stroke-linecap="butt" d="M105.5 428.5L793.5 428.5" fill-rule="nonzero"/><path stroke="#cccccc" stroke-width="1.0" stroke-linecap="butt" d="M105.5 363.5L793.5 363.5" fill-rule="nonzero"/><path stroke="#cccccc" stroke-width="1.0" stroke-linecap="butt" d="M105.5 298.5L793.5 298.5" fill-rule="nonzero"/><path stroke="#cccccc" stroke-width="1.0" stroke-linecap="butt" d="M105.5 233.5L793.5 233.5" fill-rule="nonzero"/><path stroke="#cccccc" stroke-width="1.0" stroke-linecap="butt" d="M105.5 168.5L793.5 168.5" fill-rule="nonzero"/><path stroke="#cccccc" stroke-width="1.0" stroke-linecap="butt" d="M105.5 104.5L793.5 104.5" fill-rule="nonzero"/><clipPath id="id_0"><path d="M105.3 104.03333L793.7 104.03333L793.7 428.7L105.3 428.7L105.3 104.03333Z" clip-rule="nonzero"/></clipPath><path stroke="#4285f4" stroke-width="2.0" stroke-linecap="butt" clip-path="url(#id_0)" d="M105.3 428.69025C105.3 428.69025 105.306885 428.68924 105.310326 428.68896C105.31377 428.6887 105.3218 428.68842 105.32754 428.68832C105.333275 428.6882 105.33901 428.68842 105.34475 428.68832C105.35049 428.6882 105.35622 428.68793 105.36195 428.68765C105.36769 428.6874 105.43079 428.6845 105.46522 428.68246C105.49964 428.68042 105.57995 428.67435 105.63732 428.67078C105.69469 428.6672 105.75205 428.66547 105.80942 428.66104C105.86679 428.65662 105.92416 428.6489 105.98152 428.64417C106.03889 428.6394 106.66993 428.5997 107.01413 428.57468C107.35834 428.54965 108.161476 428.48563 108.73515 428.44028C109.30882 428.39493 109.88249 428.35132 110.45617 428.3026C111.02984 428.2539 111.603516 428.1996 112.177185 428.14807C112.750854 428.09656 119.06126 427.5458 122.50329 427.22083C125.94532 426.8958 133.97673 426.0887 139.71346 425.51633C145.45018 424.94394 151.1869 424.38452 156.92363 423.7865C162.66035 423.18845 168.39708 422.55383 174.1338 421.9281C179.87053 421.30237 242.97449 414.63098 277.39484 410.55243C311.8152 406.47388 392.1293 395.7588 449.49655 388.72638C506.8638 381.694 793.7 347.9898 793.7 347.9898" fill-rule="nonzero"/><path stroke="#ea4335" stroke-width="2.0" stroke-linecap="butt" clip-path="url(#id_0)" d="M105.3 428.69806C105.3 428.69806 105.306885 428.69812 105.310326 428.69806C105.31377 428.698 105.3218 428.69772 105.32754 428.6974C105.333275 428.69708 105.33901 428.69666 105.34475 428.6961C105.35049 428.69556 105.35622 428.69476 105.36195 428.69415C105.36769 428.69357 105.43079 428.6878 105.46522 428.68442C105.49964 428.68103 105.57995 428.67358 105.63732 428.66687C105.69469 428.6602 105.75205 428.65033 105.80942 428.64417C105.86679 428.638 105.92416 428.63577 105.98152 428.62988C106.03889 428.62396 106.66993 428.5467 107.01413 428.50327C107.35834 428.4598 108.161476 428.35574 108.73515 428.27988C109.30882 428.204 109.88249 428.12772 110.45617 428.04807C111.02984 427.9684 111.603516 427.885 112.177185 427.80197C112.750854 427.71893 119.06126 426.81787 122.50329 426.28903C125.94532 425.7602 133.97673 424.4554 139.71346 423.52222C145.45018 422.58902 151.1869 421.66556 156.92363 420.68982C162.66035 419.71408 168.39708 418.67816 174.1338 417.66782C179.87053 416.6575 242.97449 405.68942 277.39484 399.42804C311.8152 393.1667 392.1293 378.25238 449.49655 367.214C506.8638 356.17557 793.7 299.18137 793.7 299.18137" fill-rule="nonzero"/><path stroke="#fbbc04" stroke-width="2.0" stroke-linecap="butt" clip-path="url(#id_0)" d="M105.3 428.69934C105.3 428.69934 105.306885 428.69827 105.310326 428.69806C105.31377 428.69785 105.3218 428.69827 105.32754 428.69806C105.333275 428.69785 105.33901 428.6973 105.34475 428.69675C105.35049 428.6962 105.35622 428.69537 105.36195 428.6948C105.36769 428.69424 105.43079 428.68933 105.46522 428.68637C105.49964 428.6834 105.57995 428.67673 105.63732 428.67078C105.69469 428.66483 105.75205 428.65854 105.80942 428.65067C105.86679 428.64276 105.92416 428.63196 105.98152 428.62338C106.03889 428.6148 106.66993 428.53146 107.01413 428.47858C107.35834 428.4257 108.161476 428.28476 108.73515 428.19092C109.30882 428.0971 109.88249 428.02783 110.45617 427.91562C111.02984 427.80338 111.603516 427.6477 112.177185 427.51758C112.750854 427.38742 119.06126 426.04785 122.50329 425.2202C125.94532 424.3926 133.97673 422.25235 139.71346 420.77295C145.45018 419.29355 151.1869 418.0279 156.92363 416.34384C162.66035 414.6598 168.39708 412.51166 174.1338 410.66867C179.87053 408.82568 242.97449 390.10022 277.39484 378.37213C311.8152 366.644 392.1293 339.11087 449.49655 314.9186C506.8638 290.72635 793.7 151.51843 793.7 151.51843" fill-rule="nonzero"/><path fill="#000000" fill-opacity="0.0" clip-path="url(#id_0)" d="M108.3 428.69025C108.3 430.3471 106.956856 431.69025 105.3 431.69025C103.64314 431.69025 102.3 430.3471 102.3 428.69025C102.3 427.03342 103.64314 425.69025 105.3 425.69025C106.956856 425.69025 108.3 427.03342 108.3 428.69025Z" fill-rule="nonzero"/><path fill="#000000" fill-opacity="0.0" clip-path="url(#id_0)" d="M108.310326 428.68896C108.310326 430.34583 106.96718 431.68896 105.310326 431.68896C103.65347 431.68896 102.310326 430.34583 102.310326 428.68896C102.310326 427.0321 103.65347 425.68896 105.310326 425.68896C106.96718 425.68896 108.310326 427.0321 108.310326 428.68896Z" fill-rule="nonzero"/><path fill="#000000" fill-opacity="0.0" clip-path="url(#id_0)" d="M108.32754 428.68832C108.32754 430.34515 106.98439 431.68832 105.32754 431.68832C103.670685 431.68832 102.32754 430.34515 102.32754 428.68832C102.32754 427.03146 103.670685 425.68832 105.32754 425.68832C106.98439 425.68832 108.32754 427.03146 108.32754 428.68832Z" fill-rule="nonzero"/><path fill="#000000" fill-opacity="0.0" clip-path="url(#id_0)" d="M108.34475 428.68832C108.34475 430.34515 107.0016 431.68832 105.34475 431.68832C103.68789 431.68832 102.34475 430.34515 102.34475 428.68832C102.34475 427.03146 103.68789 425.68832 105.34475 425.68832C107.0016 425.68832 108.34475 427.03146 108.34475 428.68832Z" fill-rule="nonzero"/><path fill="#000000" fill-opacity="0.0" clip-path="url(#id_0)" d="M108.36195 428.68765C108.36195 430.3445 107.018814 431.68765 105.36195 431.68765C103.7051 431.68765 102.36195 430.3445 102.36195 428.68765C102.36195 427.03082 103.7051 425.68765 105.36195 425.68765C107.018814 425.68765 108.36195 427.03082 108.36195 428.68765Z" fill-rule="nonzero"/><path fill="#000000" fill-opacity="0.0" clip-path="url(#id_0)" d="M108.46522 428.68246C108.46522 430.33932 107.12207 431.68246 105.46522 431.68246C103.808365 431.68246 102.46522 430.33932 102.46522 428.68246C102.46522 427.0256 103.808365 425.68246 105.46522 425.68246C107.12207 425.68246 108.46522 427.0256 108.46522 428.68246Z" fill-rule="nonzero"/><path fill="#000000" fill-opacity="0.0" clip-path="url(#id_0)" d="M108.63732 428.67078C108.63732 430.32764 107.294174 431.67078 105.63732 431.67078C103.98047 431.67078 102.63732 430.32764 102.63732 428.67078C102.63732 427.01392 103.98047 425.67078 105.63732 425.67078C107.294174 425.67078 108.63732 427.01392 108.63732 428.67078Z" fill-rule="nonzero"/><path fill="#000000" fill-opacity="0.0" clip-path="url(#id_0)" d="M108.80942 428.66104C108.80942 430.3179 107.46628 431.66104 105.80942 431.66104C104.152565 431.66104 102.80942 430.3179 102.80942 428.66104C102.80942 427.00418 104.152565 425.66104 105.80942 425.66104C107.46628 425.66104 108.80942 427.00418 108.80942 428.66104Z" fill-rule="nonzero"/><path fill="#000000" fill-opacity="0.0" clip-path="url(#id_0)" d="M108.98152 428.64417C108.98152 430.30103 107.638374 431.64417 105.98152 431.64417C104.32467 431.64417 102.98152 430.30103 102.98152 428.64417C102.98152 426.9873 104.32467 425.64417 105.98152 425.64417C107.638374 425.64417 108.98152 426.9873 108.98152 428.64417Z" fill-rule="nonzero"/><path fill="#000000" fill-opacity="0.0" clip-path="url(#id_0)" d="M110.01413 428.57468C110.01413 430.23154 108.67099 431.57468 107.01413 431.57468C105.35728 431.57468 104.01413 430.23154 104.01413 428.57468C104.01413 426.91782 105.35728 425.57468 107.01413 425.57468C108.67099 425.57468 110.01413 426.91782 110.01413 428.57468Z" fill-rule="nonzero"/><path fill="#000000" fill-opacity="0.0" clip-path="url(#id_0)" d="M111.73515 428.44028C111.73515 430.0971 110.392006 431.44028 108.73515 431.44028C107.07829 431.44028 105.73515 430.0971 105.73515 428.44028C105.73515 426.78342 107.07829 425.44028 108.73515 425.44028C110.392006 425.44028 111.73515 426.78342 111.73515 428.44028Z" fill-rule="nonzero"/><path fill="#000000" fill-opacity="0.0" clip-path="url(#id_0)" d="M113.45617 428.3026C113.45617 429.95947 112.11302 431.3026 110.45617 431.3026C108.79932 431.3026 107.45617 429.95947 107.45617 428.3026C107.45617 426.64575 108.79932 425.3026 110.45617 425.3026C112.11302 425.3026 113.45617 426.64575 113.45617 428.3026Z" fill-rule="nonzero"/><path fill="#000000" fill-opacity="0.0" clip-path="url(#id_0)" d="M115.177185 428.14807C115.177185 429.80493 113.83404 431.14807 112.177185 431.14807C110.52033 431.14807 109.177185 429.80493 109.177185 428.14807C109.177185 426.4912 110.52033 425.14807 112.177185 425.14807C113.83404 425.14807 115.177185 426.4912 115.177185 428.14807Z" fill-rule="nonzero"/><path fill="#000000" fill-opacity="0.0" clip-path="url(#id_0)" d="M125.50329 427.22083C125.50329 428.8777 124.16014 430.22083 122.50329 430.22083C120.846436 430.22083 119.50329 428.8777 119.50329 427.22083C119.50329 425.56396 120.846436 424.22083 122.50329 424.22083C124.16014 424.22083 125.50329 425.56396 125.50329 427.22083Z" fill-rule="nonzero"/><path fill="#000000" fill-opacity="0.0" clip-path="url(#id_0)" d="M142.71346 425.51633C142.71346 427.1732 141.37032 428.51633 139.71346 428.51633C138.05661 428.51633 136.71346 427.1732 136.71346 425.51633C136.71346 423.85947 138.05661 422.51633 139.71346 422.51633C141.37032 422.51633 142.71346 423.85947 142.71346 425.51633Z" fill-rule="nonzero"/><path fill="#000000" fill-opacity="0.0" clip-path="url(#id_0)" d="M159.92363 423.7865C159.92363 425.44336 158.58049 426.7865 156.92363 426.7865C155.26678 426.7865 153.92363 425.44336 153.92363 423.7865C153.92363 422.12964 155.26678 420.7865 156.92363 420.7865C158.58049 420.7865 159.92363 422.12964 159.92363 423.7865Z" fill-rule="nonzero"/><path fill="#000000" fill-opacity="0.0" clip-path="url(#id_0)" d="M177.1338 421.9281C177.1338 423.58496 175.79066 424.9281 174.1338 424.9281C172.47694 424.9281 171.1338 423.58496 171.1338 421.9281C171.1338 420.27124 172.47694 418.9281 174.1338 418.9281C175.79066 418.9281 177.1338 420.27124 177.1338 421.9281Z" fill-rule="nonzero"/><path fill="#000000" fill-opacity="0.0" clip-path="url(#id_0)" d="M280.39484 410.55243C280.39484 412.2093 279.0517 413.55243 277.39484 413.55243C275.73798 413.55243 274.39484 412.2093 274.39484 410.55243C274.39484 408.89557 275.73798 407.55243 277.39484 407.55243C279.0517 407.55243 280.39484 408.89557 280.39484 410.55243Z" fill-rule="nonzero"/><path fill="#000000" fill-opacity="0.0" clip-path="url(#id_0)" d="M452.49655 388.72638C452.49655 390.38324 451.1534 391.72638 449.49655 391.72638C447.8397 391.72638 446.49655 390.38324 446.49655 388.72638C446.49655 387.06955 447.8397 385.72638 449.49655 385.72638C451.1534 385.72638 452.49655 387.06955 452.49655 388.72638Z" fill-rule="nonzero"/><path fill="#000000" fill-opacity="0.0" clip-path="url(#id_0)" d="M796.7 347.9898C796.7 349.64667 795.3569 350.9898 793.7 350.9898C792.04315 350.9898 790.7 349.64667 790.7 347.9898C790.7 346.33295 792.04315 344.9898 793.7 344.9898C795.3569 344.9898 796.7 346.33295 796.7 347.9898Z" fill-rule="nonzero"/><path fill="#000000" fill-opacity="0.0" clip-path="url(#id_0)" d="M108.3 428.69806C108.3 430.35492 106.956856 431.69806 105.3 431.69806C103.64314 431.69806 102.3 430.35492 102.3 428.69806C102.3 427.0412 103.64314 425.69806 105.3 425.69806C106.956856 425.69806 108.3 427.0412 108.3 428.69806Z" fill-rule="nonzero"/><path fill="#000000" fill-opacity="0.0" clip-path="url(#id_0)" d="M108.310326 428.69806C108.310326 430.35492 106.96718 431.69806 105.310326 431.69806C103.65347 431.69806 102.310326 430.35492 102.310326 428.69806C102.310326 427.0412 103.65347 425.69806 105.310326 425.69806C106.96718 425.69806 108.310326 427.0412 108.310326 428.69806Z" fill-rule="nonzero"/><path fill="#000000" fill-opacity="0.0" clip-path="url(#id_0)" d="M108.32754 428.6974C108.32754 430.35425 106.98439 431.6974 105.32754 431.6974C103.670685 431.6974 102.32754 430.35425 102.32754 428.6974C102.32754 427.04056 103.670685 425.6974 105.32754 425.6974C106.98439 425.6974 108.32754 427.04056 108.32754 428.6974Z" fill-rule="nonzero"/><path fill="#000000" fill-opacity="0.0" clip-path="url(#id_0)" d="M108.34475 428.6961C108.34475 430.35297 107.0016 431.6961 105.34475 431.6961C103.68789 431.6961 102.34475 430.35297 102.34475 428.6961C102.34475 427.03925 103.68789 425.6961 105.34475 425.6961C107.0016 425.6961 108.34475 427.03925 108.34475 428.6961Z" fill-rule="nonzero"/><path fill="#000000" fill-opacity="0.0" clip-path="url(#id_0)" d="M108.36195 428.69415C108.36195 430.351 107.018814 431.69415 105.36195 431.69415C103.7051 431.69415 102.36195 430.351 102.36195 428.69415C102.36195 427.0373 103.7051 425.69415 105.36195 425.69415C107.018814 425.69415 108.36195 427.0373 108.36195 428.69415Z" fill-rule="nonzero"/><path fill="#000000" fill-opacity="0.0" clip-path="url(#id_0)" d="M108.46522 428.68442C108.46522 430.34128 107.12207 431.68442 105.46522 431.68442C103.808365 431.68442 102.46522 430.34128 102.46522 428.68442C102.46522 427.02756 103.808365 425.68442 105.46522 425.68442C107.12207 425.68442 108.46522 427.02756 108.46522 428.68442Z" fill-rule="nonzero"/><path fill="#000000" fill-opacity="0.0" clip-path="url(#id_0)" d="M108.63732 428.66687C108.63732 430.32373 107.294174 431.66687 105.63732 431.66687C103.98047 431.66687 102.63732 430.32373 102.63732 428.66687C102.63732 427.01004 103.98047 425.66687 105.63732 425.66687C107.294174 425.66687 108.63732 427.01004 108.63732 428.66687Z" fill-rule="nonzero"/><path fill="#000000" fill-opacity="0.0" clip-path="url(#id_0)" d="M108.80942 428.64417C108.80942 430.30103 107.46628 431.64417 105.80942 431.64417C104.152565 431.64417 102.80942 430.30103 102.80942 428.64417C102.80942 426.9873 104.152565 425.64417 105.80942 425.64417C107.46628 425.64417 108.80942 426.9873 108.80942 428.64417Z" fill-rule="nonzero"/><path fill="#000000" fill-opacity="0.0" clip-path="url(#id_0)" d="M108.98152 428.62988C108.98152 430.2867 107.638374 431.62988 105.98152 431.62988C104.32467 431.62988 102.98152 430.2867 102.98152 428.62988C102.98152 426.97302 104.32467 425.62988 105.98152 425.62988C107.638374 425.62988 108.98152 426.97302 108.98152 428.62988Z" fill-rule="nonzero"/><path fill="#000000" fill-opacity="0.0" clip-path="url(#id_0)" d="M110.01413 428.50327C110.01413 430.1601 108.67099 431.50327 107.01413 431.50327C105.35728 431.50327 104.01413 430.1601 104.01413 428.50327C104.01413 426.8464 105.35728 425.50327 107.01413 425.50327C108.67099 425.50327 110.01413 426.8464 110.01413 428.50327Z" fill-rule="nonzero"/><path fill="#000000" fill-opacity="0.0" clip-path="url(#id_0)" d="M111.73515 428.27988C111.73515 429.93674 110.392006 431.27988 108.73515 431.27988C107.07829 431.27988 105.73515 429.93674 105.73515 428.27988C105.73515 426.62302 107.07829 425.27988 108.73515 425.27988C110.392006 425.27988 111.73515 426.62302 111.73515 428.27988Z" fill-rule="nonzero"/><path fill="#000000" fill-opacity="0.0" clip-path="url(#id_0)" d="M113.45617 428.04807C113.45617 429.70493 112.11302 431.04807 110.45617 431.04807C108.79932 431.04807 107.45617 429.70493 107.45617 428.04807C107.45617 426.3912 108.79932 425.04807 110.45617 425.04807C112.11302 425.04807 113.45617 426.3912 113.45617 428.04807Z" fill-rule="nonzero"/><path fill="#000000" fill-opacity="0.0" clip-path="url(#id_0)" d="M115.177185 427.80197C115.177185 429.45883 113.83404 430.80197 112.177185 430.80197C110.52033 430.80197 109.177185 429.45883 109.177185 427.80197C109.177185 426.1451 110.52033 424.80197 112.177185 424.80197C113.83404 424.80197 115.177185 426.1451 115.177185 427.80197Z" fill-rule="nonzero"/><path fill="#000000" fill-opacity="0.0" clip-path="url(#id_0)" d="M125.50329 426.28903C125.50329 427.9459 124.16014 429.28903 122.50329 429.28903C120.846436 429.28903 119.50329 427.9459 119.50329 426.28903C119.50329 424.63217 120.846436 423.28903 122.50329 423.28903C124.16014 423.28903 125.50329 424.63217 125.50329 426.28903Z" fill-rule="nonzero"/><path fill="#000000" fill-opacity="0.0" clip-path="url(#id_0)" d="M142.71346 423.52222C142.71346 425.17908 141.37032 426.52222 139.71346 426.52222C138.05661 426.52222 136.71346 425.17908 136.71346 423.52222C136.71346 421.86536 138.05661 420.52222 139.71346 420.52222C141.37032 420.52222 142.71346 421.86536 142.71346 423.52222Z" fill-rule="nonzero"/><path fill="#000000" fill-opacity="0.0" clip-path="url(#id_0)" d="M159.92363 420.68982C159.92363 422.34668 158.58049 423.68982 156.92363 423.68982C155.26678 423.68982 153.92363 422.34668 153.92363 420.68982C153.92363 419.03296 155.26678 417.68982 156.92363 417.68982C158.58049 417.68982 159.92363 419.03296 159.92363 420.68982Z" fill-rule="nonzero"/><path fill="#000000" fill-opacity="0.0" clip-path="url(#id_0)" d="M177.1338 417.66782C177.1338 419.32468 175.79066 420.66782 174.1338 420.66782C172.47694 420.66782 171.1338 419.32468 171.1338 417.66782C171.1338 416.011 172.47694 414.66782 174.1338 414.66782C175.79066 414.66782 177.1338 416.011 177.1338 417.66782Z" fill-rule="nonzero"/><path fill="#000000" fill-opacity="0.0" clip-path="url(#id_0)" d="M280.39484 399.42804C280.39484 401.0849 279.0517 402.42804 277.39484 402.42804C275.73798 402.42804 274.39484 401.0849 274.39484 399.42804C274.39484 397.7712 275.73798 396.42804 277.39484 396.42804C279.0517 396.42804 280.39484 397.7712 280.39484 399.42804Z" fill-rule="nonzero"/><path fill="#000000" fill-opacity="0.0" clip-path="url(#id_0)" d="M452.49655 367.214C452.49655 368.87082 451.1534 370.214 449.49655 370.214C447.8397 370.214 446.49655 368.87082 446.49655 367.214C446.49655 365.55713 447.8397 364.214 449.49655 364.214C451.1534 364.214 452.49655 365.55713 452.49655 367.214Z" fill-rule="nonzero"/><path fill="#000000" fill-opacity="0.0" clip-path="url(#id_0)" d="M796.7 299.18137C796.7 300.83823 795.3569 302.18137 793.7 302.18137C792.04315 302.18137 790.7 300.83823 790.7 299.18137C790.7 297.52454 792.04315 296.18137 793.7 296.18137C795.3569 296.18137 796.7 297.52454 796.7 299.18137Z" fill-rule="nonzero"/><path fill="#000000" fill-opacity="0.0" clip-path="url(#id_0)" d="M108.3 428.69934C108.3 430.3562 106.956856 431.69934 105.3 431.69934C103.64314 431.69934 102.3 430.3562 102.3 428.69934C102.3 427.0425 103.64314 425.69934 105.3 425.69934C106.956856 425.69934 108.3 427.0425 108.3 428.69934Z" fill-rule="nonzero"/><path fill="#000000" fill-opacity="0.0" clip-path="url(#id_0)" d="M108.310326 428.69806C108.310326 430.35492 106.96718 431.69806 105.310326 431.69806C103.65347 431.69806 102.310326 430.35492 102.310326 428.69806C102.310326 427.0412 103.65347 425.69806 105.310326 425.69806C106.96718 425.69806 108.310326 427.0412 108.310326 428.69806Z" fill-rule="nonzero"/><path fill="#000000" fill-opacity="0.0" clip-path="url(#id_0)" d="M108.32754 428.69806C108.32754 430.35492 106.98439 431.69806 105.32754 431.69806C103.670685 431.69806 102.32754 430.35492 102.32754 428.69806C102.32754 427.0412 103.670685 425.69806 105.32754 425.69806C106.98439 425.69806 108.32754 427.0412 108.32754 428.69806Z" fill-rule="nonzero"/><path fill="#000000" fill-opacity="0.0" clip-path="url(#id_0)" d="M108.34475 428.69675C108.34475 430.3536 107.0016 431.69675 105.34475 431.69675C103.68789 431.69675 102.34475 430.3536 102.34475 428.69675C102.34475 427.0399 103.68789 425.69675 105.34475 425.69675C107.0016 425.69675 108.34475 427.0399 108.34475 428.69675Z" fill-rule="nonzero"/><path fill="#000000" fill-opacity="0.0" clip-path="url(#id_0)" d="M108.36195 428.6948C108.36195 430.35165 107.018814 431.6948 105.36195 431.6948C103.7051 431.6948 102.36195 430.35165 102.36195 428.6948C102.36195 427.03796 103.7051 425.6948 105.36195 425.6948C107.018814 425.6948 108.36195 427.03796 108.36195 428.6948Z" fill-rule="nonzero"/><path fill="#000000" fill-opacity="0.0" clip-path="url(#id_0)" d="M108.46522 428.68637C108.46522 430.34323 107.12207 431.68637 105.46522 431.68637C103.808365 431.68637 102.46522 430.34323 102.46522 428.68637C102.46522 427.0295 103.808365 425.68637 105.46522 425.68637C107.12207 425.68637 108.46522 427.0295 108.46522 428.68637Z" fill-rule="nonzero"/><path fill="#000000" fill-opacity="0.0" clip-path="url(#id_0)" d="M108.63732 428.67078C108.63732 430.32764 107.294174 431.67078 105.63732 431.67078C103.98047 431.67078 102.63732 430.32764 102.63732 428.67078C102.63732 427.01392 103.98047 425.67078 105.63732 425.67078C107.294174 425.67078 108.63732 427.01392 108.63732 428.67078Z" fill-rule="nonzero"/><path fill="#000000" fill-opacity="0.0" clip-path="url(#id_0)" d="M108.80942 428.65067C108.80942 430.3075 107.46628 431.65067 105.80942 431.65067C104.152565 431.65067 102.80942 430.3075 102.80942 428.65067C102.80942 426.9938 104.152565 425.65067 105.80942 425.65067C107.46628 425.65067 108.80942 426.9938 108.80942 428.65067Z" fill-rule="nonzero"/><path fill="#000000" fill-opacity="0.0" clip-path="url(#id_0)" d="M108.98152 428.62338C108.98152 430.28024 107.638374 431.62338 105.98152 431.62338C104.32467 431.62338 102.98152 430.28024 102.98152 428.62338C102.98152 426.96652 104.32467 425.62338 105.98152 425.62338C107.638374 425.62338 108.98152 426.96652 108.98152 428.62338Z" fill-rule="nonzero"/><path fill="#000000" fill-opacity="0.0" clip-path="url(#id_0)" d="M110.01413 428.47858C110.01413 430.13544 108.67099 431.47858 107.01413 431.47858C105.35728 431.47858 104.01413 430.13544 104.01413 428.47858C104.01413 426.82172 105.35728 425.47858 107.01413 425.47858C108.67099 425.47858 110.01413 426.82172 110.01413 428.47858Z" fill-rule="nonzero"/><path fill="#000000" fill-opacity="0.0" clip-path="url(#id_0)" d="M111.73515 428.19092C111.73515 429.84778 110.392006 431.19092 108.73515 431.19092C107.07829 431.19092 105.73515 429.84778 105.73515 428.19092C105.73515 426.53406 107.07829 425.19092 108.73515 425.19092C110.392006 425.19092 111.73515 426.53406 111.73515 428.19092Z" fill-rule="nonzero"/><path fill="#000000" fill-opacity="0.0" clip-path="url(#id_0)" d="M113.45617 427.91562C113.45617 429.57245 112.11302 430.91562 110.45617 430.91562C108.79932 430.91562 107.45617 429.57245 107.45617 427.91562C107.45617 426.25876 108.79932 424.91562 110.45617 424.91562C112.11302 424.91562 113.45617 426.25876 113.45617 427.91562Z" fill-rule="nonzero"/><path fill="#000000" fill-opacity="0.0" clip-path="url(#id_0)" d="M115.177185 427.51758C115.177185 429.1744 113.83404 430.51758 112.177185 430.51758C110.52033 430.51758 109.177185 429.1744 109.177185 427.51758C109.177185 425.86072 110.52033 424.51758 112.177185 424.51758C113.83404 424.51758 115.177185 425.86072 115.177185 427.51758Z" fill-rule="nonzero"/><path fill="#000000" fill-opacity="0.0" clip-path="url(#id_0)" d="M125.50329 425.2202C125.50329 426.87708 124.16014 428.2202 122.50329 428.2202C120.846436 428.2202 119.50329 426.87708 119.50329 425.2202C119.50329 423.56335 120.846436 422.2202 122.50329 422.2202C124.16014 422.2202 125.50329 423.56335 125.50329 425.2202Z" fill-rule="nonzero"/><path fill="#000000" fill-opacity="0.0" clip-path="url(#id_0)" d="M142.71346 420.77295C142.71346 422.42978 141.37032 423.77295 139.71346 423.77295C138.05661 423.77295 136.71346 422.42978 136.71346 420.77295C136.71346 419.1161 138.05661 417.77295 139.71346 417.77295C141.37032 417.77295 142.71346 419.1161 142.71346 420.77295Z" fill-rule="nonzero"/><path fill="#000000" fill-opacity="0.0" clip-path="url(#id_0)" d="M159.92363 416.34384C159.92363 418.0007 158.58049 419.34384 156.92363 419.34384C155.26678 419.34384 153.92363 418.0007 153.92363 416.34384C153.92363 414.68698 155.26678 413.34384 156.92363 413.34384C158.58049 413.34384 159.92363 414.68698 159.92363 416.34384Z" fill-rule="nonzero"/><path fill="#000000" fill-opacity="0.0" clip-path="url(#id_0)" d="M177.1338 410.66867C177.1338 412.32553 175.79066 413.66867 174.1338 413.66867C172.47694 413.66867 171.1338 412.32553 171.1338 410.66867C171.1338 409.0118 172.47694 407.66867 174.1338 407.66867C175.79066 407.66867 177.1338 409.0118 177.1338 410.66867Z" fill-rule="nonzero"/><path fill="#000000" fill-opacity="0.0" clip-path="url(#id_0)" d="M280.39484 378.37213C280.39484 380.02896 279.0517 381.37213 277.39484 381.37213C275.73798 381.37213 274.39484 380.02896 274.39484 378.37213C274.39484 376.71527 275.73798 375.37213 277.39484 375.37213C279.0517 375.37213 280.39484 376.71527 280.39484 378.37213Z" fill-rule="nonzero"/><path fill="#000000" fill-opacity="0.0" clip-path="url(#id_0)" d="M452.49655 314.9186C452.49655 316.57547 451.1534 317.9186 449.49655 317.9186C447.8397 317.9186 446.49655 316.57547 446.49655 314.9186C446.49655 313.26175 447.8397 311.9186 449.49655 311.9186C451.1534 311.9186 452.49655 313.26175 452.49655 314.9186Z" fill-rule="nonzero"/><path fill="#000000" fill-opacity="0.0" clip-path="url(#id_0)" d="M796.7 151.51843C796.7 153.17528 795.3569 154.51843 793.7 154.51843C792.04315 154.51843 790.7 153.17528 790.7 151.51843C790.7 149.86157 792.04315 148.51843 793.7 148.51843C795.3569 148.51843 796.7 149.86157 796.7 151.51843Z" fill-rule="nonzero"/><path fill="#000000" d="M446.79688 477.7L446.79688 471.48126L447.73438 471.48126L447.73438 472.35626Q448.42188 471.34064 449.71875 471.34064Q450.28125 471.34064 450.75 471.54376Q451.23438 471.7469 451.46875 472.075Q451.70312 472.40314 451.79688 472.84064Q451.84375 473.1375 451.84375 473.8719L451.84375 477.7L450.79688 477.7L450.79688 473.91876Q450.79688 473.2625 450.67188 472.95Q450.54688 472.6375 450.23438 472.45Q449.92188 472.2469 449.5 472.2469Q448.82812 472.2469 448.32812 472.6844Q447.84375 473.10626 447.84375 474.29376L447.84375 477.7L446.79688 477.7Z" fill-rule="nonzero"/><path fill="#000000" d="M36.30001 290.0698L30.081263 290.0698L30.081263 289.1323L30.956263 289.1323Q30.487513 288.83542 30.221888 288.35104Q29.940638 287.86667 29.940638 287.24167Q29.940638 286.55417 30.221888 286.11667Q30.503138 285.66354 31.018763 285.49167Q29.940638 284.74167 29.940638 283.5698Q29.940638 282.6323 30.456263 282.14792Q30.956263 281.64792 32.034386 281.64792L36.30001 281.64792L36.30001 282.6948L32.378136 282.6948Q31.753138 282.6948 31.471888 282.80417Q31.190638 282.89792 31.018763 283.16354Q30.846888 283.42917 30.846888 283.80417Q30.846888 284.46042 31.284388 284.89792Q31.721888 285.3198 32.690636 285.3198L36.30001 285.3198L36.30001 286.3823L32.253136 286.3823Q31.550013 286.3823 31.206263 286.64792Q30.846888 286.89792 30.846888 287.47604Q30.846888 287.92917 31.081263 288.30417Q31.315638 288.67917 31.768763 288.85104Q32.221886 289.02292 33.065636 289.02292L36.30001 289.02292L36.30001 290.0698ZM28.925013 280.0698L27.706263 280.0698L27.706263 279.0073L28.925013 279.0073L28.925013 280.0698ZM36.30001 280.0698L30.081263 280.0698L30.081263 279.0073L36.30001 279.0073L36.30001 280.0698ZM34.01876 273.0073L34.159386 271.97604Q35.221886 272.14792 35.83126 272.85104Q36.440636 273.55417 36.440636 274.5698Q36.440636 275.85104 35.61251 276.6323Q34.76876 277.39792 33.20626 277.39792Q32.20626 277.39792 31.456263 277.0698Q30.690638 276.72604 30.315638 276.05417Q29.940638 275.36667 29.940638 274.55417Q29.940638 273.55417 30.456263 272.91354Q30.956263 272.2573 31.909388 272.0698L32.065636 273.10104Q31.440638 273.24167 31.128138 273.61667Q30.800013 273.99167 30.800013 274.52292Q30.800013 275.3198 31.378138 275.8198Q31.940638 276.3198 33.17501 276.3198Q34.440636 276.3198 35.003136 275.83542Q35.565636 275.35104 35.565636 274.58542Q35.565636 273.96042 35.190636 273.55417Q34.815636 273.1323 34.01876 273.0073ZM36.30001 271.08542L30.081263 271.08542L30.081263 270.1323L31.018763 270.1323Q30.362513 269.77292 30.159388 269.47604Q29.940638 269.16354 29.940638 268.78854Q29.940638 268.2573 30.268763 267.71042L31.253138 268.0698Q31.018763 268.46042 31.018763 268.83542Q31.018763 269.1948 31.237513 269.47604Q31.440638 269.74167 31.815638 269.85104Q32.378136 270.03854 33.034386 270.03854L36.30001 270.03854L36.30001 271.08542ZM33.190636 267.46042Q31.456263 267.46042 30.628138 266.5073Q29.940638 265.71042 29.940638 264.55417Q29.940638 263.27292 30.784388 262.46042Q31.612513 261.6323 33.096886 261.6323Q34.30001 261.6323 34.98751 261.99167Q35.67501 262.35104 36.065636 263.05417Q36.440636 263.74167 36.440636 264.55417Q36.440636 265.85104 35.61251 266.66354Q34.76876 267.46042 33.190636 267.46042ZM33.190636 266.3823Q34.378136 266.3823 34.971886 265.86667Q35.565636 265.33542 35.565636 264.55417Q35.565636 263.7573 34.971886 263.24167Q34.378136 262.72604 33.159386 262.72604Q32.003136 262.72604 31.409388 263.2573Q30.815638 263.77292 30.815638 264.55417Q30.815638 265.33542 31.409388 265.86667Q31.987513 266.3823 33.190636 266.3823ZM34.440636 260.49167L34.284386 259.46042Q34.909386 259.36667 35.23751 258.97604Q35.565636 258.5698 35.565636 257.83542Q35.565636 257.11667 35.284386 256.77292Q34.98751 256.41354 34.58126 256.41354Q34.221886 256.41354 34.01876 256.72604Q33.878136 256.9448 33.659386 257.80417Q33.36251 258.96042 33.159386 259.41354Q32.940636 259.85104 32.565636 260.08542Q32.190636 260.3198 31.721888 260.3198Q31.315638 260.3198 30.956263 260.1323Q30.596888 259.9448 30.362513 259.61667Q30.190638 259.36667 30.065638 258.9448Q29.940638 258.52292 29.940638 258.02292Q29.940638 257.30417 30.159388 256.7573Q30.362513 256.1948 30.721888 255.92917Q31.081263 255.66354 31.675013 255.5698L31.815638 256.60104Q31.346888 256.66354 31.081263 257.0073Q30.800013 257.33542 30.800013 257.96042Q30.800013 258.67917 31.050013 258.99167Q31.284388 259.30417 31.612513 259.30417Q31.815638 259.30417 31.971888 259.17917Q32.14376 259.03854 32.253136 258.77292Q32.315636 258.61667 32.51876 257.83542Q32.83126 256.71042 33.01876 256.27292Q33.20626 255.83542 33.565636 255.58542Q33.92501 255.33542 34.471886 255.33542Q35.003136 255.33542 35.471886 255.64792Q35.92501 255.9448 36.190636 256.52292Q36.440636 257.10104 36.440636 257.83542Q36.440636 259.05417 35.940636 259.6948Q35.42501 260.3198 34.440636 260.49167Z" fill-rule="nonzero"/><path fill="#000000" d="M92.8 428.46564Q92.8 426.9344 93.1125 426.0125Q93.425 425.075 94.03438 424.575Q94.65938 424.075 95.59688 424.075Q96.28438 424.075 96.8 424.35626Q97.33125 424.6375 97.675 425.16876Q98.01875 425.6844 98.20625 426.4344Q98.39375 427.1844 98.39375 428.46564Q98.39375 429.98126 98.08125 430.90314Q97.78438 431.825 97.15938 432.34064Q96.55 432.84064 95.59688 432.84064Q94.3625 432.84064 93.64375 431.95Q92.8 430.8875 92.8 428.46564ZM93.87813 428.46564Q93.87813 430.575 94.37813 431.27814Q94.87813 431.98126 95.59688 431.98126Q96.33125 431.98126 96.81563 431.27814Q97.31563 430.575 97.31563 428.46564Q97.31563 426.34064 96.81563 425.65314Q96.33125 424.95 95.58125 424.95Q94.8625 424.95 94.425 425.5594Q93.87813 426.34064 93.87813 428.46564Z" fill-rule="nonzero"/><path fill="#000000" d="M61.76875 367.76666L60.721874 367.76666L60.721874 361.0479Q60.33125 361.4073 59.70625 361.7823Q59.096874 362.14166 58.6125 362.31354L58.6125 361.2979Q59.4875 360.87604 60.14375 360.2979Q60.815624 359.70416 61.096874 359.14166L61.76875 359.14166L61.76875 367.76666ZM64.8 363.5323Q64.8 362.00104 65.1125 361.07916Q65.425 360.14166 66.03438 359.64166Q66.65938 359.14166 67.59688 359.14166Q68.28438 359.14166 68.8 359.4229Q69.33125 359.70416 69.675 360.2354Q70.01875 360.75104 70.20625 361.50104Q70.39375 362.25104 70.39375 363.5323Q70.39375 365.0479 70.08125 365.9698Q69.78438 366.89166 69.15938 367.4073Q68.55 367.9073 67.59688 367.9073Q66.3625 367.9073 65.64375 367.01666Q64.8 365.95416 64.8 363.5323ZM65.87813 363.5323Q65.87813 365.64166 66.37813 366.3448Q66.87813 367.0479 67.59688 367.0479Q68.33125 367.0479 68.81563 366.3448Q69.31563 365.64166 69.31563 363.5323Q69.31563 361.4073 68.81563 360.7198Q68.33125 360.01666 67.58125 360.01666Q66.8625 360.01666 66.425 360.62604Q65.87813 361.4073 65.87813 363.5323ZM71.8 363.5323Q71.8 362.00104 72.1125 361.07916Q72.425 360.14166 73.03438 359.64166Q73.65938 359.14166 74.59688 359.14166Q75.28438 359.14166 75.8 359.4229Q76.33125 359.70416 76.675 360.2354Q77.01875 360.75104 77.20625 361.50104Q77.39375 362.25104 77.39375 363.5323Q77.39375 365.0479 77.08125 365.9698Q76.78438 366.89166 76.15938 367.4073Q75.55 367.9073 74.59688 367.9073Q73.3625 367.9073 72.64375 367.01666Q71.8 365.95416 71.8 363.5323ZM72.87813 363.5323Q72.87813 365.64166 73.37813 366.3448Q73.87813 367.0479 74.59688 367.0479Q75.33125 367.0479 75.81563 366.3448Q76.31563 365.64166 76.31563 363.5323Q76.31563 361.4073 75.81563 360.7198Q75.33125 360.01666 74.58125 360.01666Q73.8625 360.01666 73.425 360.62604Q72.87813 361.4073 72.87813 363.5323ZM78.8 363.5323Q78.8 362.00104 79.1125 361.07916Q79.425 360.14166 80.03438 359.64166Q80.65938 359.14166 81.59688 359.14166Q82.28438 359.14166 82.8 359.4229Q83.33125 359.70416 83.675 360.2354Q84.01875 360.75104 84.20625 361.50104Q84.39375 362.25104 84.39375 363.5323Q84.39375 365.0479 84.08125 365.9698Q83.78438 366.89166 83.15938 367.4073Q82.55 367.9073 81.59688 367.9073Q80.3625 367.9073 79.64375 367.01666Q78.8 365.95416 78.8 363.5323ZM79.87813 363.5323Q79.87813 365.64166 80.37813 366.3448Q80.87813 367.0479 81.59688 367.0479Q82.33125 367.0479 82.81563 366.3448Q83.31563 365.64166 83.31563 363.5323Q83.31563 361.4073 82.81563 360.7198Q82.33125 360.01666 81.58125 360.01666Q80.8625 360.01666 80.425 360.62604Q79.87813 361.4073 79.87813 363.5323ZM85.8 363.5323Q85.8 362.00104 86.1125 361.07916Q86.425 360.14166 87.03438 359.64166Q87.65938 359.14166 88.59688 359.14166Q89.28438 359.14166 89.8 359.4229Q90.33125 359.70416 90.675 360.2354Q91.01875 360.75104 91.20625 361.50104Q91.39375 362.25104 91.39375 363.5323Q91.39375 365.0479 91.08125 365.9698Q90.78438 366.89166 90.15938 367.4073Q89.55 367.9073 88.59688 367.9073Q87.3625 367.9073 86.64375 367.01666Q85.8 365.95416 85.8 363.5323ZM86.87813 363.5323Q86.87813 365.64166 87.37813 366.3448Q87.87813 367.0479 88.59688 367.0479Q89.33125 367.0479 89.81563 366.3448Q90.31563 365.64166 90.31563 363.5323Q90.31563 361.4073 89.81563 360.7198Q89.33125 360.01666 88.58125 360.01666Q87.8625 360.01666 87.425 360.62604Q86.87813 361.4073 86.87813 363.5323ZM92.8 363.5323Q92.8 362.00104 93.1125 361.07916Q93.425 360.14166 94.03438 359.64166Q94.65938 359.14166 95.59688 359.14166Q96.28438 359.14166 96.8 359.4229Q97.33125 359.70416 97.675 360.2354Q98.01875 360.75104 98.20625 361.50104Q98.39375 362.25104 98.39375 363.5323Q98.39375 365.0479 98.08125 365.9698Q97.78438 366.89166 97.15938 367.4073Q96.55 367.9073 95.59688 367.9073Q94.3625 367.9073 93.64375 367.01666Q92.8 365.95416 92.8 363.5323ZM93.87813 363.5323Q93.87813 365.64166 94.37813 366.3448Q94.87813 367.0479 95.59688 367.0479Q96.33125 367.0479 96.81563 366.3448Q97.31563 365.64166 97.31563 363.5323Q97.31563 361.4073 96.81563 360.7198Q96.33125 360.01666 95.58125 360.01666Q94.8625 360.01666 94.425 360.62604Q93.87813 361.4073 93.87813 363.5323Z" fill-rule="nonzero"/><path fill="#000000" d="M63.346874 301.81772L63.346874 302.83334L57.659374 302.83334Q57.659374 302.45834 57.784374 302.09897Q58.003124 301.52084 58.471874 300.95834Q58.95625 300.39584 59.8625 299.66147Q61.26875 298.50522 61.753124 297.83334Q62.253124 297.16147 62.253124 296.56772Q62.253124 295.94272 61.8 295.52084Q61.346874 295.08334 60.628124 295.08334Q59.8625 295.08334 59.409374 295.53647Q58.95625 295.9896 58.940624 296.8021L57.8625 296.69272Q57.971874 295.47397 58.690624 294.84897Q59.425 294.20834 60.659374 294.20834Q61.89375 294.20834 62.6125 294.89584Q63.33125 295.58334 63.33125 296.59897Q63.33125 297.1146 63.1125 297.6146Q62.909374 298.09897 62.409374 298.66147Q61.925 299.20834 60.8 300.16147Q59.846874 300.95834 59.565624 301.25522Q59.3 301.53647 59.128124 301.81772L63.346874 301.81772ZM64.8 298.59897Q64.8 297.06772 65.1125 296.14584Q65.425 295.20834 66.03438 294.70834Q66.65938 294.20834 67.59688 294.20834Q68.28438 294.20834 68.8 294.4896Q69.33125 294.77084 69.675 295.3021Q70.01875 295.81772 70.20625 296.56772Q70.39375 297.31772 70.39375 298.59897Q70.39375 300.1146 70.08125 301.03647Q69.78438 301.95834 69.15938 302.47397Q68.55 302.97397 67.59688 302.97397Q66.3625 302.97397 65.64375 302.08334Q64.8 301.02084 64.8 298.59897ZM65.87813 298.59897Q65.87813 300.70834 66.37813 301.41147Q66.87813 302.1146 67.59688 302.1146Q68.33125 302.1146 68.81563 301.41147Q69.31563 300.70834 69.31563 298.59897Q69.31563 296.47397 68.81563 295.78647Q68.33125 295.08334 67.58125 295.08334Q66.8625 295.08334 66.425 295.69272Q65.87813 296.47397 65.87813 298.59897ZM71.8 298.59897Q71.8 297.06772 72.1125 296.14584Q72.425 295.20834 73.03438 294.70834Q73.65938 294.20834 74.59688 294.20834Q75.28438 294.20834 75.8 294.4896Q76.33125 294.77084 76.675 295.3021Q77.01875 295.81772 77.20625 296.56772Q77.39375 297.31772 77.39375 298.59897Q77.39375 300.1146 77.08125 301.03647Q76.78438 301.95834 76.15938 302.47397Q75.55 302.97397 74.59688 302.97397Q73.3625 302.97397 72.64375 302.08334Q71.8 301.02084 71.8 298.59897ZM72.87813 298.59897Q72.87813 300.70834 73.37813 301.41147Q73.87813 302.1146 74.59688 302.1146Q75.33125 302.1146 75.81563 301.41147Q76.31563 300.70834 76.31563 298.59897Q76.31563 296.47397 75.81563 295.78647Q75.33125 295.08334 74.58125 295.08334Q73.8625 295.08334 73.425 295.69272Q72.87813 296.47397 72.87813 298.59897ZM78.8 298.59897Q78.8 297.06772 79.1125 296.14584Q79.425 295.20834 80.03438 294.70834Q80.65938 294.20834 81.59688 294.20834Q82.28438 294.20834 82.8 294.4896Q83.33125 294.77084 83.675 295.3021Q84.01875 295.81772 84.20625 296.56772Q84.39375 297.31772 84.39375 298.59897Q84.39375 300.1146 84.08125 301.03647Q83.78438 301.95834 83.15938 302.47397Q82.55 302.97397 81.59688 302.97397Q80.3625 302.97397 79.64375 302.08334Q78.8 301.02084 78.8 298.59897ZM79.87813 298.59897Q79.87813 300.70834 80.37813 301.41147Q80.87813 302.1146 81.59688 302.1146Q82.33125 302.1146 82.81563 301.41147Q83.31563 300.70834 83.31563 298.59897Q83.31563 296.47397 82.81563 295.78647Q82.33125 295.08334 81.58125 295.08334Q80.8625 295.08334 80.425 295.69272Q79.87813 296.47397 79.87813 298.59897ZM85.8 298.59897Q85.8 297.06772 86.1125 296.14584Q86.425 295.20834 87.03438 294.70834Q87.65938 294.20834 88.59688 294.20834Q89.28438 294.20834 89.8 294.4896Q90.33125 294.77084 90.675 295.3021Q91.01875 295.81772 91.20625 296.56772Q91.39375 297.31772 91.39375 298.59897Q91.39375 300.1146 91.08125 301.03647Q90.78438 301.95834 90.15938 302.47397Q89.55 302.97397 88.59688 302.97397Q87.3625 302.97397 86.64375 302.08334Q85.8 301.02084 85.8 298.59897ZM86.87813 298.59897Q86.87813 300.70834 87.37813 301.41147Q87.87813 302.1146 88.59688 302.1146Q89.33125 302.1146 89.81563 301.41147Q90.31563 300.70834 90.31563 298.59897Q90.31563 296.47397 89.81563 295.78647Q89.33125 295.08334 88.58125 295.08334Q87.8625 295.08334 87.425 295.69272Q86.87813 296.47397 86.87813 298.59897ZM92.8 298.59897Q92.8 297.06772 93.1125 296.14584Q93.425 295.20834 94.03438 294.70834Q94.65938 294.20834 95.59688 294.20834Q96.28438 294.20834 96.8 294.4896Q97.33125 294.77084 97.675 295.3021Q98.01875 295.81772 98.20625 296.56772Q98.39375 297.31772 98.39375 298.59897Q98.39375 300.1146 98.08125 301.03647Q97.78438 301.95834 97.15938 302.47397Q96.55 302.97397 95.59688 302.97397Q94.3625 302.97397 93.64375 302.08334Q92.8 301.02084 92.8 298.59897ZM93.87813 298.59897Q93.87813 300.70834 94.37813 301.41147Q94.87813 302.1146 95.59688 302.1146Q96.33125 302.1146 96.81563 301.41147Q97.31563 300.70834 97.31563 298.59897Q97.31563 296.47397 96.81563 295.78647Q96.33125 295.08334 95.58125 295.08334Q94.8625 295.08334 94.425 295.69272Q93.87813 296.47397 93.87813 298.59897Z" fill-rule="nonzero"/><path fill="#000000" d="M57.8 235.63437L58.8625 235.49374Q59.034374 236.38437 59.471874 236.79062Q59.909374 237.18124 60.534374 237.18124Q61.284374 237.18124 61.8 236.66562Q62.315624 236.15 62.315624 235.38437Q62.315624 234.66562 61.83125 234.19687Q61.3625 233.7125 60.628124 233.7125Q60.33125 233.7125 59.878124 233.8375L60.003124 232.9Q60.1125 232.91562 60.175 232.91562Q60.846874 232.91562 61.378124 232.57187Q61.925 232.2125 61.925 231.47812Q61.925 230.9 61.534374 230.525Q61.14375 230.13437 60.51875 230.13437Q59.909374 230.13437 59.4875 230.525Q59.08125 230.91562 58.971874 231.68124L57.909374 231.49374Q58.096874 230.44687 58.784374 229.86874Q59.471874 229.275 60.4875 229.275Q61.190624 229.275 61.784374 229.5875Q62.378124 229.88437 62.690624 230.4Q63.003124 230.91562 63.003124 231.50937Q63.003124 232.05624 62.70625 232.525Q62.409374 232.97812 61.83125 233.24374Q62.58125 233.41562 63.003124 233.97812Q63.425 234.525 63.425 235.36874Q63.425 236.49374 62.596874 237.275Q61.784374 238.05624 60.534374 238.05624Q59.409374 238.05624 58.659374 237.38437Q57.909374 236.69687 57.8 235.63437ZM64.8 233.66562Q64.8 232.13437 65.1125 231.2125Q65.425 230.275 66.03438 229.775Q66.65938 229.275 67.59688 229.275Q68.28438 229.275 68.8 229.55624Q69.33125 229.8375 69.675 230.36874Q70.01875 230.88437 70.20625 231.63437Q70.39375 232.38437 70.39375 233.66562Q70.39375 235.18124 70.08125 236.10312Q69.78438 237.025 69.15938 237.54062Q68.55 238.04062 67.59688 238.04062Q66.3625 238.04062 65.64375 237.15Q64.8 236.0875 64.8 233.66562ZM65.87813 233.66562Q65.87813 235.775 66.37813 236.47812Q66.87813 237.18124 67.59688 237.18124Q68.33125 237.18124 68.81563 236.47812Q69.31563 235.775 69.31563 233.66562Q69.31563 231.54062 68.81563 230.85312Q68.33125 230.15 67.58125 230.15Q66.8625 230.15 66.425 230.75937Q65.87813 231.54062 65.87813 233.66562ZM71.8 233.66562Q71.8 232.13437 72.1125 231.2125Q72.425 230.275 73.03438 229.775Q73.65938 229.275 74.59688 229.275Q75.28438 229.275 75.8 229.55624Q76.33125 229.8375 76.675 230.36874Q77.01875 230.88437 77.20625 231.63437Q77.39375 232.38437 77.39375 233.66562Q77.39375 235.18124 77.08125 236.10312Q76.78438 237.025 76.15938 237.54062Q75.55 238.04062 74.59688 238.04062Q73.3625 238.04062 72.64375 237.15Q71.8 236.0875 71.8 233.66562ZM72.87813 233.66562Q72.87813 235.775 73.37813 236.47812Q73.87813 237.18124 74.59688 237.18124Q75.33125 237.18124 75.81563 236.47812Q76.31563 235.775 76.31563 233.66562Q76.31563 231.54062 75.81563 230.85312Q75.33125 230.15 74.58125 230.15Q73.8625 230.15 73.425 230.75937Q72.87813 231.54062 72.87813 233.66562ZM78.8 233.66562Q78.8 232.13437 79.1125 231.2125Q79.425 230.275 80.03438 229.775Q80.65938 229.275 81.59688 229.275Q82.28438 229.275 82.8 229.55624Q83.33125 229.8375 83.675 230.36874Q84.01875 230.88437 84.20625 231.63437Q84.39375 232.38437 84.39375 233.66562Q84.39375 235.18124 84.08125 236.10312Q83.78438 237.025 83.15938 237.54062Q82.55 238.04062 81.59688 238.04062Q80.3625 238.04062 79.64375 237.15Q78.8 236.0875 78.8 233.66562ZM79.87813 233.66562Q79.87813 235.775 80.37813 236.47812Q80.87813 237.18124 81.59688 237.18124Q82.33125 237.18124 82.81563 236.47812Q83.31563 235.775 83.31563 233.66562Q83.31563 231.54062 82.81563 230.85312Q82.33125 230.15 81.58125 230.15Q80.8625 230.15 80.425 230.75937Q79.87813 231.54062 79.87813 233.66562ZM85.8 233.66562Q85.8 232.13437 86.1125 231.2125Q86.425 230.275 87.03438 229.775Q87.65938 229.275 88.59688 229.275Q89.28438 229.275 89.8 229.55624Q90.33125 229.8375 90.675 230.36874Q91.01875 230.88437 91.20625 231.63437Q91.39375 232.38437 91.39375 233.66562Q91.39375 235.18124 91.08125 236.10312Q90.78438 237.025 90.15938 237.54062Q89.55 238.04062 88.59688 238.04062Q87.3625 238.04062 86.64375 237.15Q85.8 236.0875 85.8 233.66562ZM86.87813 233.66562Q86.87813 235.775 87.37813 236.47812Q87.87813 237.18124 88.59688 237.18124Q89.33125 237.18124 89.81563 236.47812Q90.31563 235.775 90.31563 233.66562Q90.31563 231.54062 89.81563 230.85312Q89.33125 230.15 88.58125 230.15Q87.8625 230.15 87.425 230.75937Q86.87813 231.54062 86.87813 233.66562ZM92.8 233.66562Q92.8 232.13437 93.1125 231.2125Q93.425 230.275 94.03438 229.775Q94.65938 229.275 95.59688 229.275Q96.28438 229.275 96.8 229.55624Q97.33125 229.8375 97.675 230.36874Q98.01875 230.88437 98.20625 231.63437Q98.39375 232.38437 98.39375 233.66562Q98.39375 235.18124 98.08125 236.10312Q97.78438 237.025 97.15938 237.54062Q96.55 238.04062 95.59688 238.04062Q94.3625 238.04062 93.64375 237.15Q92.8 236.0875 92.8 233.66562ZM93.87813 233.66562Q93.87813 235.775 94.37813 236.47812Q94.87813 237.18124 95.59688 237.18124Q96.33125 237.18124 96.81563 236.47812Q97.31563 235.775 97.31563 233.66562Q97.31563 231.54062 96.81563 230.85312Q96.33125 230.15 95.58125 230.15Q94.8625 230.15 94.425 230.75937Q93.87813 231.54062 93.87813 233.66562Z" fill-rule="nonzero"/><path fill="#000000" d="M61.175 172.96666L61.175 170.90416L57.45625 170.90416L57.45625 169.93541L61.378124 164.37291L62.2375 164.37291L62.2375 169.93541L63.39375 169.93541L63.39375 170.90416L62.2375 170.90416L62.2375 172.96666L61.175 172.96666ZM61.175 169.93541L61.175 166.07603L58.4875 169.93541L61.175 169.93541ZM64.8 168.73228Q64.8 167.20103 65.1125 166.27916Q65.425 165.34166 66.03438 164.84166Q66.65938 164.34166 67.59688 164.34166Q68.28438 164.34166 68.8 164.62291Q69.33125 164.90416 69.675 165.43541Q70.01875 165.95103 70.20625 166.70103Q70.39375 167.45103 70.39375 168.73228Q70.39375 170.24791 70.08125 171.16978Q69.78438 172.09166 69.15938 172.60728Q68.55 173.10728 67.59688 173.10728Q66.3625 173.10728 65.64375 172.21666Q64.8 171.15416 64.8 168.73228ZM65.87813 168.73228Q65.87813 170.84166 66.37813 171.54478Q66.87813 172.24791 67.59688 172.24791Q68.33125 172.24791 68.81563 171.54478Q69.31563 170.84166 69.31563 168.73228Q69.31563 166.60728 68.81563 165.91978Q68.33125 165.21666 67.58125 165.21666Q66.8625 165.21666 66.425 165.82603Q65.87813 166.60728 65.87813 168.73228ZM71.8 168.73228Q71.8 167.20103 72.1125 166.27916Q72.425 165.34166 73.03438 164.84166Q73.65938 164.34166 74.59688 164.34166Q75.28438 164.34166 75.8 164.62291Q76.33125 164.90416 76.675 165.43541Q77.01875 165.95103 77.20625 166.70103Q77.39375 167.45103 77.39375 168.73228Q77.39375 170.24791 77.08125 171.16978Q76.78438 172.09166 76.15938 172.60728Q75.55 173.10728 74.59688 173.10728Q73.3625 173.10728 72.64375 172.21666Q71.8 171.15416 71.8 168.73228ZM72.87813 168.73228Q72.87813 170.84166 73.37813 171.54478Q73.87813 172.24791 74.59688 172.24791Q75.33125 172.24791 75.81563 171.54478Q76.31563 170.84166 76.31563 168.73228Q76.31563 166.60728 75.81563 165.91978Q75.33125 165.21666 74.58125 165.21666Q73.8625 165.21666 73.425 165.82603Q72.87813 166.60728 72.87813 168.73228ZM78.8 168.73228Q78.8 167.20103 79.1125 166.27916Q79.425 165.34166 80.03438 164.84166Q80.65938 164.34166 81.59688 164.34166Q82.28438 164.34166 82.8 164.62291Q83.33125 164.90416 83.675 165.43541Q84.01875 165.95103 84.20625 166.70103Q84.39375 167.45103 84.39375 168.73228Q84.39375 170.24791 84.08125 171.16978Q83.78438 172.09166 83.15938 172.60728Q82.55 173.10728 81.59688 173.10728Q80.3625 173.10728 79.64375 172.21666Q78.8 171.15416 78.8 168.73228ZM79.87813 168.73228Q79.87813 170.84166 80.37813 171.54478Q80.87813 172.24791 81.59688 172.24791Q82.33125 172.24791 82.81563 171.54478Q83.31563 170.84166 83.31563 168.73228Q83.31563 166.60728 82.81563 165.91978Q82.33125 165.21666 81.58125 165.21666Q80.8625 165.21666 80.425 165.82603Q79.87813 166.60728 79.87813 168.73228ZM85.8 168.73228Q85.8 167.20103 86.1125 166.27916Q86.425 165.34166 87.03438 164.84166Q87.65938 164.34166 88.59688 164.34166Q89.28438 164.34166 89.8 164.62291Q90.33125 164.90416 90.675 165.43541Q91.01875 165.95103 91.20625 166.70103Q91.39375 167.45103 91.39375 168.73228Q91.39375 170.24791 91.08125 171.16978Q90.78438 172.09166 90.15938 172.60728Q89.55 173.10728 88.59688 173.10728Q87.3625 173.10728 86.64375 172.21666Q85.8 171.15416 85.8 168.73228ZM86.87813 168.73228Q86.87813 170.84166 87.37813 171.54478Q87.87813 172.24791 88.59688 172.24791Q89.33125 172.24791 89.81563 171.54478Q90.31563 170.84166 90.31563 168.73228Q90.31563 166.60728 89.81563 165.91978Q89.33125 165.21666 88.58125 165.21666Q87.8625 165.21666 87.425 165.82603Q86.87813 166.60728 86.87813 168.73228ZM92.8 168.73228Q92.8 167.20103 93.1125 166.27916Q93.425 165.34166 94.03438 164.84166Q94.65938 164.34166 95.59688 164.34166Q96.28438 164.34166 96.8 164.62291Q97.33125 164.90416 97.675 165.43541Q98.01875 165.95103 98.20625 166.70103Q98.39375 167.45103 98.39375 168.73228Q98.39375 170.24791 98.08125 171.16978Q97.78438 172.09166 97.15938 172.60728Q96.55 173.10728 95.59688 173.10728Q94.3625 173.10728 93.64375 172.21666Q92.8 171.15416 92.8 168.73228ZM93.87813 168.73228Q93.87813 170.84166 94.37813 171.54478Q94.87813 172.24791 95.59688 172.24791Q96.33125 172.24791 96.81563 171.54478Q97.31563 170.84166 97.31563 168.73228Q97.31563 166.60728 96.81563 165.91978Q96.33125 165.21666 95.58125 165.21666Q94.8625 165.21666 94.425 165.82603Q93.87813 166.60728 93.87813 168.73228Z" fill-rule="nonzero"/><path fill="#000000" d="M57.8 105.78333L58.909374 105.68958Q59.034374 106.50208 59.471874 106.90833Q59.925 107.31458 60.565624 107.31458Q61.315624 107.31458 61.846874 106.73646Q62.378124 106.15833 62.378124 105.22083Q62.378124 104.31458 61.8625 103.79896Q61.3625 103.26771 60.534374 103.26771Q60.034374 103.26771 59.6125 103.50208Q59.20625 103.73646 58.971874 104.09583L57.9875 103.97083L58.815624 99.56458L63.096874 99.56458L63.096874 100.56458L59.659374 100.56458L59.20625 102.87708Q59.971874 102.33021 60.815624 102.33021Q61.940624 102.33021 62.70625 103.11146Q63.4875 103.89271 63.4875 105.12708Q63.4875 106.28333 62.815624 107.14271Q61.9875 108.17396 60.565624 108.17396Q59.39375 108.17396 58.64375 107.51771Q57.909374 106.86146 57.8 105.78333ZM64.8 103.79896Q64.8 102.26771 65.1125 101.34583Q65.425 100.40833 66.03438 99.90833Q66.65938 99.40833 67.59688 99.40833Q68.28438 99.40833 68.8 99.68958Q69.33125 99.97083 69.675 100.50208Q70.01875 101.01771 70.20625 101.76771Q70.39375 102.51771 70.39375 103.79896Q70.39375 105.31458 70.08125 106.23646Q69.78438 107.15833 69.15938 107.67396Q68.55 108.17396 67.59688 108.17396Q66.3625 108.17396 65.64375 107.28333Q64.8 106.22083 64.8 103.79896ZM65.87813 103.79896Q65.87813 105.90833 66.37813 106.61146Q66.87813 107.31458 67.59688 107.31458Q68.33125 107.31458 68.81563 106.61146Q69.31563 105.90833 69.31563 103.79896Q69.31563 101.67396 68.81563 100.98646Q68.33125 100.28333 67.58125 100.28333Q66.8625 100.28333 66.425 100.89271Q65.87813 101.67396 65.87813 103.79896ZM71.8 103.79896Q71.8 102.26771 72.1125 101.34583Q72.425 100.40833 73.03438 99.90833Q73.65938 99.40833 74.59688 99.40833Q75.28438 99.40833 75.8 99.68958Q76.33125 99.97083 76.675 100.50208Q77.01875 101.01771 77.20625 101.76771Q77.39375 102.51771 77.39375 103.79896Q77.39375 105.31458 77.08125 106.23646Q76.78438 107.15833 76.15938 107.67396Q75.55 108.17396 74.59688 108.17396Q73.3625 108.17396 72.64375 107.28333Q71.8 106.22083 71.8 103.79896ZM72.87813 103.79896Q72.87813 105.90833 73.37813 106.61146Q73.87813 107.31458 74.59688 107.31458Q75.33125 107.31458 75.81563 106.61146Q76.31563 105.90833 76.31563 103.79896Q76.31563 101.67396 75.81563 100.98646Q75.33125 100.28333 74.58125 100.28333Q73.8625 100.28333 73.425 100.89271Q72.87813 101.67396 72.87813 103.79896ZM78.8 103.79896Q78.8 102.26771 79.1125 101.34583Q79.425 100.40833 80.03438 99.90833Q80.65938 99.40833 81.59688 99.40833Q82.28438 99.40833 82.8 99.68958Q83.33125 99.97083 83.675 100.50208Q84.01875 101.01771 84.20625 101.76771Q84.39375 102.51771 84.39375 103.79896Q84.39375 105.31458 84.08125 106.23646Q83.78438 107.15833 83.15938 107.67396Q82.55 108.17396 81.59688 108.17396Q80.3625 108.17396 79.64375 107.28333Q78.8 106.22083 78.8 103.79896ZM79.87813 103.79896Q79.87813 105.90833 80.37813 106.61146Q80.87813 107.31458 81.59688 107.31458Q82.33125 107.31458 82.81563 106.61146Q83.31563 105.90833 83.31563 103.79896Q83.31563 101.67396 82.81563 100.98646Q82.33125 100.28333 81.58125 100.28333Q80.8625 100.28333 80.425 100.89271Q79.87813 101.67396 79.87813 103.79896ZM85.8 103.79896Q85.8 102.26771 86.1125 101.34583Q86.425 100.40833 87.03438 99.90833Q87.65938 99.40833 88.59688 99.40833Q89.28438 99.40833 89.8 99.68958Q90.33125 99.97083 90.675 100.50208Q91.01875 101.01771 91.20625 101.76771Q91.39375 102.51771 91.39375 103.79896Q91.39375 105.31458 91.08125 106.23646Q90.78438 107.15833 90.15938 107.67396Q89.55 108.17396 88.59688 108.17396Q87.3625 108.17396 86.64375 107.28333Q85.8 106.22083 85.8 103.79896ZM86.87813 103.79896Q86.87813 105.90833 87.37813 106.61146Q87.87813 107.31458 88.59688 107.31458Q89.33125 107.31458 89.81563 106.61146Q90.31563 105.90833 90.31563 103.79896Q90.31563 101.67396 89.81563 100.98646Q89.33125 100.28333 88.58125 100.28333Q87.8625 100.28333 87.425 100.89271Q86.87813 101.67396 86.87813 103.79896ZM92.8 103.79896Q92.8 102.26771 93.1125 101.34583Q93.425 100.40833 94.03438 99.90833Q94.65938 99.40833 95.59688 99.40833Q96.28438 99.40833 96.8 99.68958Q97.33125 99.97083 97.675 100.50208Q98.01875 101.01771 98.20625 101.76771Q98.39375 102.51771 98.39375 103.79896Q98.39375 105.31458 98.08125 106.23646Q97.78438 107.15833 97.15938 107.67396Q96.55 108.17396 95.59688 108.17396Q94.3625 108.17396 93.64375 107.28333Q92.8 106.22083 92.8 103.79896ZM93.87813 103.79896Q93.87813 105.90833 94.37813 106.61146Q94.87813 107.31458 95.59688 107.31458Q96.33125 107.31458 96.81563 106.61146Q97.31563 105.90833 97.31563 103.79896Q97.31563 101.67396 96.81563 100.98646Q96.33125 100.28333 95.58125 100.28333Q94.8625 100.28333 94.425 100.89271Q93.87813 101.67396 93.87813 103.79896Z" fill-rule="nonzero"/><path fill="#000000" d="M226.52136 444.6844L226.52136 445.7L220.83386 445.7Q220.83386 445.325 220.95886 444.96564Q221.17761 444.3875 221.64636 443.825Q222.13074 443.2625 223.03699 442.52814Q224.44324 441.3719 224.92761 440.7Q225.42761 440.02814 225.42761 439.4344Q225.42761 438.8094 224.97449 438.3875Q224.52136 437.95 223.80261 437.95Q223.03699 437.95 222.58386 438.40314Q222.13074 438.85626 222.11511 439.66876L221.03699 439.5594Q221.14636 438.34064 221.86511 437.71564Q222.59949 437.075 223.83386 437.075Q225.06824 437.075 225.78699 437.7625Q226.50574 438.45 226.50574 439.46564Q226.50574 439.98126 226.28699 440.48126Q226.08386 440.96564 225.58386 441.52814Q225.09949 442.075 223.97449 443.02814Q223.02136 443.825 222.74011 444.1219Q222.47449 444.40314 222.30261 444.6844L226.52136 444.6844ZM227.97449 441.46564Q227.97449 439.9344 228.28699 439.0125Q228.59949 438.075 229.20886 437.575Q229.83386 437.075 230.77136 437.075Q231.45886 437.075 231.97449 437.35626Q232.50574 437.6375 232.84949 438.16876Q233.19324 438.6844 233.38074 439.4344Q233.56824 440.1844 233.56824 441.46564Q233.56824 442.98126 233.25574 443.90314Q232.95886 444.825 232.33386 445.34064Q231.72449 445.84064 230.77136 445.84064Q229.53699 445.84064 228.81824 444.95Q227.97449 443.8875 227.97449 441.46564ZM229.05261 441.46564Q229.05261 443.575 229.55261 444.27814Q230.05261 444.98126 230.77136 444.98126Q231.50574 444.98126 231.99011 444.27814Q232.49011 443.575 232.49011 441.46564Q232.49011 439.34064 231.99011 438.65314Q231.50574 437.95 230.75574 437.95Q230.03699 437.95 229.59949 438.5594Q229.05261 439.34064 229.05261 441.46564ZM234.97449 441.46564Q234.97449 439.9344 235.28699 439.0125Q235.59949 438.075 236.20886 437.575Q236.83386 437.075 237.77136 437.075Q238.45886 437.075 238.97449 437.35626Q239.50574 437.6375 239.84949 438.16876Q240.19324 438.6844 240.38074 439.4344Q240.56824 440.1844 240.56824 441.46564Q240.56824 442.98126 240.25574 443.90314Q239.95886 444.825 239.33386 445.34064Q238.72449 445.84064 237.77136 445.84064Q236.53699 445.84064 235.81824 444.95Q234.97449 443.8875 234.97449 441.46564ZM236.05261 441.46564Q236.05261 443.575 236.55261 444.27814Q237.05261 444.98126 237.77136 444.98126Q238.50574 444.98126 238.99011 444.27814Q239.49011 443.575 239.49011 441.46564Q239.49011 439.34064 238.99011 438.65314Q238.50574 437.95 237.75574 437.95Q237.03699 437.95 236.59949 438.5594Q236.05261 439.34064 236.05261 441.46564ZM242.56824 445.7L242.56824 444.4969L243.77136 444.4969L243.77136 445.7L242.56824 445.7ZM244.97449 441.46564Q244.97449 439.9344 245.28699 439.0125Q245.59949 438.075 246.20886 437.575Q246.83386 437.075 247.77136 437.075Q248.45886 437.075 248.97449 437.35626Q249.50574 437.6375 249.84949 438.16876Q250.19324 438.6844 250.38074 439.4344Q250.56824 440.1844 250.56824 441.46564Q250.56824 442.98126 250.25574 443.90314Q249.95886 444.825 249.33386 445.34064Q248.72449 445.84064 247.77136 445.84064Q246.53699 445.84064 245.81824 444.95Q244.97449 443.8875 244.97449 441.46564ZM246.05261 441.46564Q246.05261 443.575 246.55261 444.27814Q247.05261 444.98126 247.77136 444.98126Q248.50574 444.98126 248.99011 444.27814Q249.49011 443.575 249.49011 441.46564Q249.49011 439.34064 248.99011 438.65314Q248.50574 437.95 247.75574 437.95Q247.03699 437.95 246.59949 438.5594Q246.05261 439.34064 246.05261 441.46564ZM251.97449 441.46564Q251.97449 439.9344 252.28699 439.0125Q252.59949 438.075 253.20886 437.575Q253.83386 437.075 254.77136 437.075Q255.45886 437.075 255.97449 437.35626Q256.50574 437.6375 256.8495 438.16876Q257.19324 438.6844 257.38074 439.4344Q257.56824 440.1844 257.56824 441.46564Q257.56824 442.98126 257.25574 443.90314Q256.95886 444.825 256.33386 445.34064Q255.72449 445.84064 254.77136 445.84064Q253.53699 445.84064 252.81824 444.95Q251.97449 443.8875 251.97449 441.46564ZM253.05261 441.46564Q253.05261 443.575 253.55261 444.27814Q254.05261 444.98126 254.77136 444.98126Q255.50574 444.98126 255.99011 444.27814Q256.4901 443.575 256.4901 441.46564Q256.4901 439.34064 255.99011 438.65314Q255.50574 437.95 254.75574 437.95Q254.03699 437.95 253.59949 438.5594Q253.05261 439.34064 253.05261 441.46564ZM258.9745 441.46564Q258.9745 439.9344 259.287 439.0125Q259.5995 438.075 260.20886 437.575Q260.83386 437.075 261.77136 437.075Q262.45886 437.075 262.9745 437.35626Q263.50574 437.6375 263.8495 438.16876Q264.19324 438.6844 264.38074 439.4344Q264.56824 440.1844 264.56824 441.46564Q264.56824 442.98126 264.25574 443.90314Q263.95886 444.825 263.33386 445.34064Q262.7245 445.84064 261.77136 445.84064Q260.537 445.84064 259.81824 444.95Q258.9745 443.8875 258.9745 441.46564ZM260.0526 441.46564Q260.0526 443.575 260.5526 444.27814Q261.0526 444.98126 261.77136 444.98126Q262.50574 444.98126 262.9901 444.27814Q263.4901 443.575 263.4901 441.46564Q263.4901 439.34064 262.9901 438.65314Q262.50574 437.95 261.75574 437.95Q261.037 437.95 260.5995 438.5594Q260.0526 439.34064 260.0526 441.46564Z" fill-rule="nonzero"/><path fill="#000000" d="M362.03088 445.7L362.03088 443.6375L358.31213 443.6375L358.31213 442.66876L362.234 437.10626L363.09338 437.10626L363.09338 442.66876L364.24963 442.66876L364.24963 443.6375L363.09338 443.6375L363.09338 445.7L362.03088 445.7ZM362.03088 442.66876L362.03088 438.8094L359.34338 442.66876L362.03088 442.66876ZM365.65588 441.46564Q365.65588 439.9344 365.96838 439.0125Q366.28088 438.075 366.89026 437.575Q367.51526 437.075 368.45276 437.075Q369.14026 437.075 369.65588 437.35626Q370.18713 437.6375 370.53088 438.16876Q370.87463 438.6844 371.06213 439.4344Q371.24963 440.1844 371.24963 441.46564Q371.24963 442.98126 370.93713 443.90314Q370.64026 444.825 370.01526 445.34064Q369.40588 445.84064 368.45276 445.84064Q367.21838 445.84064 366.49963 444.95Q365.65588 443.8875 365.65588 441.46564ZM366.734 441.46564Q366.734 443.575 367.234 444.27814Q367.734 444.98126 368.45276 444.98126Q369.18713 444.98126 369.6715 444.27814Q370.1715 443.575 370.1715 441.46564Q370.1715 439.34064 369.6715 438.65314Q369.18713 437.95 368.43713 437.95Q367.71838 437.95 367.28088 438.5594Q366.734 439.34064 366.734 441.46564ZM372.65588 441.46564Q372.65588 439.9344 372.96838 439.0125Q373.28088 438.075 373.89026 437.575Q374.51526 437.075 375.45276 437.075Q376.14026 437.075 376.65588 437.35626Q377.18713 437.6375 377.53088 438.16876Q377.87463 438.6844 378.06213 439.4344Q378.24963 440.1844 378.24963 441.46564Q378.24963 442.98126 377.93713 443.90314Q377.64026 444.825 377.01526 445.34064Q376.40588 445.84064 375.45276 445.84064Q374.21838 445.84064 373.49963 444.95Q372.65588 443.8875 372.65588 441.46564ZM373.734 441.46564Q373.734 443.575 374.234 444.27814Q374.734 444.98126 375.45276 444.98126Q376.18713 444.98126 376.6715 444.27814Q377.1715 443.575 377.1715 441.46564Q377.1715 439.34064 376.6715 438.65314Q376.18713 437.95 375.43713 437.95Q374.71838 437.95 374.28088 438.5594Q373.734 439.34064 373.734 441.46564ZM380.24963 445.7L380.24963 444.4969L381.45276 444.4969L381.45276 445.7L380.24963 445.7ZM382.65588 441.46564Q382.65588 439.9344 382.96838 439.0125Q383.28088 438.075 383.89026 437.575Q384.51526 437.075 385.45276 437.075Q386.14026 437.075 386.65588 437.35626Q387.18713 437.6375 387.53088 438.16876Q387.87463 438.6844 388.06213 439.4344Q388.24963 440.1844 388.24963 441.46564Q388.24963 442.98126 387.93713 443.90314Q387.64026 444.825 387.01526 445.34064Q386.40588 445.84064 385.45276 445.84064Q384.21838 445.84064 383.49963 444.95Q382.65588 443.8875 382.65588 441.46564ZM383.734 441.46564Q383.734 443.575 384.234 444.27814Q384.734 444.98126 385.45276 444.98126Q386.18713 444.98126 386.6715 444.27814Q387.1715 443.575 387.1715 441.46564Q387.1715 439.34064 386.6715 438.65314Q386.18713 437.95 385.43713 437.95Q384.71838 437.95 384.28088 438.5594Q383.734 439.34064 383.734 441.46564ZM389.65588 441.46564Q389.65588 439.9344 389.96838 439.0125Q390.28088 438.075 390.89026 437.575Q391.51526 437.075 392.45276 437.075Q393.14026 437.075 393.65588 437.35626Q394.18713 437.6375 394.53088 438.16876Q394.87463 438.6844 395.06213 439.4344Q395.24963 440.1844 395.24963 441.46564Q395.24963 442.98126 394.93713 443.90314Q394.64026 444.825 394.01526 445.34064Q393.40588 445.84064 392.45276 445.84064Q391.21838 445.84064 390.49963 444.95Q389.65588 443.8875 389.65588 441.46564ZM390.734 441.46564Q390.734 443.575 391.234 444.27814Q391.734 444.98126 392.45276 444.98126Q393.18713 444.98126 393.6715 444.27814Q394.1715 443.575 394.1715 441.46564Q394.1715 439.34064 393.6715 438.65314Q393.18713 437.95 392.43713 437.95Q391.71838 437.95 391.28088 438.5594Q390.734 439.34064 390.734 441.46564ZM396.65588 441.46564Q396.65588 439.9344 396.96838 439.0125Q397.28088 438.075 397.89026 437.575Q398.51526 437.075 399.45276 437.075Q400.14026 437.075 400.65588 437.35626Q401.18713 437.6375 401.53088 438.16876Q401.87463 438.6844 402.06213 439.4344Q402.24963 440.1844 402.24963 441.46564Q402.24963 442.98126 401.93713 443.90314Q401.64026 444.825 401.01526 445.34064Q400.40588 445.84064 399.45276 445.84064Q398.21838 445.84064 397.49963 444.95Q396.65588 443.8875 396.65588 441.46564ZM397.734 441.46564Q397.734 443.575 398.234 444.27814Q398.734 444.98126 399.45276 444.98126Q400.18713 444.98126 400.6715 444.27814Q401.1715 443.575 401.1715 441.46564Q401.1715 439.34064 400.6715 438.65314Q400.18713 437.95 399.43713 437.95Q398.71838 437.95 398.28088 438.5594Q397.734 439.34064 397.734 441.46564Z" fill-rule="nonzero"/><path fill="#000000" d="M501.806 439.21564L500.75912 439.29376Q500.6185 438.66876 500.3685 438.3875Q499.931 437.9344 499.306 437.9344Q498.806 437.9344 498.41537 438.21564Q497.931 438.59064 497.63412 439.29376Q497.35287 439.98126 497.33725 441.2625Q497.71225 440.6844 498.25912 440.40314Q498.82162 440.1219 499.431 440.1219Q500.47787 440.1219 501.21225 440.90314Q501.96225 441.6844 501.96225 442.90314Q501.96225 443.71564 501.60287 444.41876Q501.25912 445.10626 500.64975 445.48126Q500.04037 445.84064 499.27475 445.84064Q497.94662 445.84064 497.1185 444.8719Q496.29037 443.90314 496.29037 441.6844Q496.29037 439.1844 497.21225 438.0594Q498.00912 437.075 499.3685 437.075Q500.38412 437.075 501.02475 437.65314Q501.681 438.21564 501.806 439.21564ZM497.50912 442.91876Q497.50912 443.46564 497.72787 443.96564Q497.96225 444.45 498.3685 444.71564Q498.79037 444.98126 499.25912 444.98126Q499.91537 444.98126 500.39975 444.45Q500.88412 443.90314 500.88412 442.98126Q500.88412 442.09064 500.39975 441.575Q499.931 441.0594 499.21225 441.0594Q498.4935 441.0594 497.9935 441.575Q497.50912 442.09064 497.50912 442.91876ZM503.33725 441.46564Q503.33725 439.9344 503.64975 439.0125Q503.96225 438.075 504.57162 437.575Q505.19662 437.075 506.13412 437.075Q506.82162 437.075 507.33725 437.35626Q507.8685 437.6375 508.21225 438.16876Q508.556 438.6844 508.7435 439.4344Q508.931 440.1844 508.931 441.46564Q508.931 442.98126 508.6185 443.90314Q508.32162 444.825 507.69662 445.34064Q507.08725 445.84064 506.13412 445.84064Q504.89975 445.84064 504.181 444.95Q503.33725 443.8875 503.33725 441.46564ZM504.41537 441.46564Q504.41537 443.575 504.91537 444.27814Q505.41537 444.98126 506.13412 444.98126Q506.8685 444.98126 507.35287 444.27814Q507.85287 443.575 507.85287 441.46564Q507.85287 439.34064 507.35287 438.65314Q506.8685 437.95 506.1185 437.95Q505.39975 437.95 504.96225 438.5594Q504.41537 439.34064 504.41537 441.46564ZM510.33725 441.46564Q510.33725 439.9344 510.64975 439.0125Q510.96225 438.075 511.57162 437.575Q512.19666 437.075 513.13416 437.075Q513.82166 437.075 514.3373 437.35626Q514.8685 437.6375 515.2123 438.16876Q515.556 438.6844 515.7435 439.4344Q515.931 440.1844 515.931 441.46564Q515.931 442.98126 515.6185 443.90314Q515.32166 444.825 514.69666 445.34064Q514.0873 445.84064 513.13416 445.84064Q511.89975 445.84064 511.181 444.95Q510.33725 443.8875 510.33725 441.46564ZM511.41537 441.46564Q511.41537 443.575 511.91537 444.27814Q512.4154 444.98126 513.13416 444.98126Q513.8685 444.98126 514.3529 444.27814Q514.8529 443.575 514.8529 441.46564Q514.8529 439.34064 514.3529 438.65314Q513.8685 437.95 513.1185 437.95Q512.3998 437.95 511.96225 438.5594Q511.41537 439.34064 511.41537 441.46564ZM517.931 445.7L517.931 444.4969L519.13416 444.4969L519.13416 445.7L517.931 445.7ZM520.3373 441.46564Q520.3373 439.9344 520.6498 439.0125Q520.9623 438.075 521.57166 437.575Q522.19666 437.075 523.13416 437.075Q523.82166 437.075 524.3373 437.35626Q524.8685 437.6375 525.2123 438.16876Q525.556 438.6844 525.7435 439.4344Q525.931 440.1844 525.931 441.46564Q525.931 442.98126 525.6185 443.90314Q525.32166 444.825 524.69666 445.34064Q524.0873 445.84064 523.13416 445.84064Q521.8998 445.84064 521.181 444.95Q520.3373 443.8875 520.3373 441.46564ZM521.4154 441.46564Q521.4154 443.575 521.9154 444.27814Q522.4154 444.98126 523.13416 444.98126Q523.8685 444.98126 524.3529 444.27814Q524.8529 443.575 524.8529 441.46564Q524.8529 439.34064 524.3529 438.65314Q523.8685 437.95 523.1185 437.95Q522.3998 437.95 521.9623 438.5594Q521.4154 439.34064 521.4154 441.46564ZM527.3373 441.46564Q527.3373 439.9344 527.6498 439.0125Q527.9623 438.075 528.57166 437.575Q529.19666 437.075 530.13416 437.075Q530.82166 437.075 531.3373 437.35626Q531.8685 437.6375 532.2123 438.16876Q532.556 438.6844 532.7435 439.4344Q532.931 440.1844 532.931 441.46564Q532.931 442.98126 532.6185 443.90314Q532.32166 444.825 531.69666 445.34064Q531.0873 445.84064 530.13416 445.84064Q528.8998 445.84064 528.181 444.95Q527.3373 443.8875 527.3373 441.46564ZM528.4154 441.46564Q528.4154 443.575 528.9154 444.27814Q529.4154 444.98126 530.13416 444.98126Q530.8685 444.98126 531.3529 444.27814Q531.8529 443.575 531.8529 441.46564Q531.8529 439.34064 531.3529 438.65314Q530.8685 437.95 530.1185 437.95Q529.3998 437.95 528.9623 438.5594Q528.4154 439.34064 528.4154 441.46564ZM534.3373 441.46564Q534.3373 439.9344 534.6498 439.0125Q534.9623 438.075 535.57166 437.575Q536.19666 437.075 537.13416 437.075Q537.82166 437.075 538.3373 437.35626Q538.8685 437.6375 539.2123 438.16876Q539.556 438.6844 539.7435 439.4344Q539.931 440.1844 539.931 441.46564Q539.931 442.98126 539.6185 443.90314Q539.32166 444.825 538.69666 445.34064Q538.0873 445.84064 537.13416 445.84064Q535.8998 445.84064 535.181 444.95Q534.3373 443.8875 534.3373 441.46564ZM535.4154 441.46564Q535.4154 443.575 535.9154 444.27814Q536.4154 444.98126 537.13416 444.98126Q537.8685 444.98126 538.3529 444.27814Q538.8529 443.575 538.8529 441.46564Q538.8529 439.34064 538.3529 438.65314Q537.8685 437.95 537.1185 437.95Q536.3998 437.95 535.9623 438.5594Q535.4154 439.34064 535.4154 441.46564Z" fill-rule="nonzero"/><path fill="#000000" d="M635.6436 441.04376Q634.98737 440.79376 634.65924 440.35626Q634.34674 439.90314 634.34674 439.29376Q634.34674 438.35626 635.0186 437.71564Q635.7061 437.075 636.8155 437.075Q637.9405 437.075 638.628 437.73126Q639.3155 438.3875 639.3155 439.325Q639.3155 439.91876 639.003 440.35626Q638.6905 440.79376 638.04987 441.04376Q638.84674 441.29376 639.253 441.8719Q639.65924 442.45 639.65924 443.2469Q639.65924 444.34064 638.878 445.09064Q638.11237 445.84064 636.8311 445.84064Q635.5655 445.84064 634.78424 445.09064Q634.003 444.34064 634.003 443.21564Q634.003 442.3719 634.42487 441.8094Q634.86237 441.2469 635.6436 441.04376ZM635.42487 439.2469Q635.42487 439.85626 635.8155 440.2469Q636.22174 440.6375 636.84674 440.6375Q637.4561 440.6375 637.84674 440.2625Q638.23737 439.8719 638.23737 439.3094Q638.23737 438.73126 637.8311 438.34064Q637.42487 437.9344 636.8311 437.9344Q636.22174 437.9344 635.8155 438.325Q635.42487 438.71564 635.42487 439.2469ZM635.09674 443.21564Q635.09674 443.66876 635.29987 444.09064Q635.5186 444.5125 635.9405 444.7469Q636.36237 444.98126 636.84674 444.98126Q637.59674 444.98126 638.0811 444.4969Q638.5811 444.0125 638.5811 443.2625Q638.5811 442.4969 638.0811 441.9969Q637.5811 441.4969 636.8155 441.4969Q636.0655 441.4969 635.5811 441.9969Q635.09674 442.48126 635.09674 443.21564ZM641.0186 441.46564Q641.0186 439.9344 641.3311 439.0125Q641.6436 438.075 642.253 437.575Q642.878 437.075 643.8155 437.075Q644.503 437.075 645.0186 437.35626Q645.54987 437.6375 645.8936 438.16876Q646.23737 438.6844 646.42487 439.4344Q646.61237 440.1844 646.61237 441.46564Q646.61237 442.98126 646.29987 443.90314Q646.003 444.825 645.378 445.34064Q644.7686 445.84064 643.8155 445.84064Q642.5811 445.84064 641.86237 444.95Q641.0186 443.8875 641.0186 441.46564ZM642.09674 441.46564Q642.09674 443.575 642.59674 444.27814Q643.09674 444.98126 643.8155 444.98126Q644.54987 444.98126 645.03424 444.27814Q645.53424 443.575 645.53424 441.46564Q645.53424 439.34064 645.03424 438.65314Q644.54987 437.95 643.79987 437.95Q643.0811 437.95 642.6436 438.5594Q642.09674 439.34064 642.09674 441.46564ZM648.0186 441.46564Q648.0186 439.9344 648.3311 439.0125Q648.6436 438.075 649.253 437.575Q649.878 437.075 650.8155 437.075Q651.503 437.075 652.0186 437.35626Q652.54987 437.6375 652.8936 438.16876Q653.23737 438.6844 653.42487 439.4344Q653.61237 440.1844 653.61237 441.46564Q653.61237 442.98126 653.29987 443.90314Q653.003 444.825 652.378 445.34064Q651.7686 445.84064 650.8155 445.84064Q649.5811 445.84064 648.86237 444.95Q648.0186 443.8875 648.0186 441.46564ZM649.09674 441.46564Q649.09674 443.575 649.59674 444.27814Q650.09674 444.98126 650.8155 444.98126Q651.54987 444.98126 652.03424 444.27814Q652.53424 443.575 652.53424 441.46564Q652.53424 439.34064 652.03424 438.65314Q651.54987 437.95 650.79987 437.95Q650.0811 437.95 649.6436 438.5594Q649.09674 439.34064 649.09674 441.46564ZM655.61237 445.7L655.61237 444.4969L656.8155 444.4969L656.8155 445.7L655.61237 445.7ZM658.0186 441.46564Q658.0186 439.9344 658.3311 439.0125Q658.6436 438.075 659.253 437.575Q659.878 437.075 660.8155 437.075Q661.503 437.075 662.0186 437.35626Q662.54987 437.6375 662.8936 438.16876Q663.23737 438.6844 663.42487 439.4344Q663.61237 440.1844 663.61237 441.46564Q663.61237 442.98126 663.29987 443.90314Q663.003 444.825 662.378 445.34064Q661.7686 445.84064 660.8155 445.84064Q659.5811 445.84064 658.86237 444.95Q658.0186 443.8875 658.0186 441.46564ZM659.09674 441.46564Q659.09674 443.575 659.59674 444.27814Q660.09674 444.98126 660.8155 444.98126Q661.54987 444.98126 662.03424 444.27814Q662.53424 443.575 662.53424 441.46564Q662.53424 439.34064 662.03424 438.65314Q661.54987 437.95 660.79987 437.95Q660.0811 437.95 659.6436 438.5594Q659.09674 439.34064 659.09674 441.46564ZM665.0186 441.46564Q665.0186 439.9344 665.3311 439.0125Q665.6436 438.075 666.253 437.575Q666.878 437.075 667.8155 437.075Q668.503 437.075 669.0186 437.35626Q669.54987 437.6375 669.8936 438.16876Q670.23737 438.6844 670.42487 439.4344Q670.61237 440.1844 670.61237 441.46564Q670.61237 442.98126 670.29987 443.90314Q670.003 444.825 669.378 445.34064Q668.7686 445.84064 667.8155 445.84064Q666.5811 445.84064 665.86237 444.95Q665.0186 443.8875 665.0186 441.46564ZM666.09674 441.46564Q666.09674 443.575 666.59674 444.27814Q667.09674 444.98126 667.8155 444.98126Q668.54987 444.98126 669.03424 444.27814Q669.53424 443.575 669.53424 441.46564Q669.53424 439.34064 669.03424 438.65314Q668.54987 437.95 667.79987 437.95Q667.0811 437.95 666.6436 438.5594Q666.09674 439.34064 666.09674 441.46564ZM672.0186 441.46564Q672.0186 439.9344 672.3311 439.0125Q672.6436 438.075 673.253 437.575Q673.878 437.075 674.8155 437.075Q675.503 437.075 676.0186 437.35626Q676.54987 437.6375 676.8936 438.16876Q677.23737 438.6844 677.42487 439.4344Q677.61237 440.1844 677.61237 441.46564Q677.61237 442.98126 677.29987 443.90314Q677.003 444.825 676.378 445.34064Q675.7686 445.84064 674.8155 445.84064Q673.5811 445.84064 672.86237 444.95Q672.0186 443.8875 672.0186 441.46564ZM673.09674 441.46564Q673.09674 443.575 673.59674 444.27814Q674.09674 444.98126 674.8155 444.98126Q675.54987 444.98126 676.03424 444.27814Q676.53424 443.575 676.53424 441.46564Q676.53424 439.34064 676.03424 438.65314Q675.54987 437.95 674.79987 437.95Q674.0811 437.95 673.6436 438.5594Q673.09674 439.34064 673.09674 441.46564Z" fill-rule="nonzero"/><path stroke="#4285f4" stroke-width="4.0" stroke-linecap="butt" d="M325.0 73.166664L337.0 73.166664" fill-rule="nonzero"/><path fill="#1a1a1a" d="M345.375 75.30729L346.40625 75.15104Q346.5 75.77604 346.89062 76.104164Q347.29688 76.43229 348.03125 76.43229Q348.75 76.43229 349.09375 76.15104Q349.45312 75.854164 349.45312 75.447914Q349.45312 75.08854 349.14062 74.885414Q348.92188 74.74479 348.0625 74.52604Q346.90625 74.229164 346.45312 74.02604Q346.01562 73.80729 345.78125 73.43229Q345.54688 73.05729 345.54688 72.58854Q345.54688 72.18229 345.73438 71.822914Q345.92188 71.46354 346.25 71.229164Q346.5 71.05729 346.92188 70.93229Q347.34375 70.80729 347.84375 70.80729Q348.5625 70.80729 349.10938 71.02604Q349.67188 71.229164 349.9375 71.58854Q350.20312 71.947914 350.29688 72.541664L349.26562 72.68229Q349.20312 72.21354 348.85938 71.947914Q348.53125 71.666664 347.90625 71.666664Q347.1875 71.666664 346.875 71.916664Q346.5625 72.15104 346.5625 72.479164Q346.5625 72.68229 346.6875 72.83854Q346.82812 73.010414 347.09375 73.11979Q347.25 73.18229 348.03125 73.385414Q349.15625 73.697914 349.59375 73.885414Q350.03125 74.072914 350.28125 74.43229Q350.53125 74.791664 350.53125 75.33854Q350.53125 75.86979 350.21875 76.33854Q349.92188 76.791664 349.34375 77.05729Q348.76562 77.30729 348.03125 77.30729Q346.8125 77.30729 346.17188 76.80729Q345.54688 76.291664 345.375 75.30729ZM354.09375 76.229164L354.25 77.15104Q353.79688 77.24479 353.45312 77.24479Q352.875 77.24479 352.5625 77.072914Q352.25 76.885414 352.10938 76.58854Q351.98438 76.291664 351.98438 75.33854L351.98438 71.760414L351.21875 71.760414L351.21875 70.947914L351.98438 70.947914L351.98438 69.40104L353.03125 68.77604L353.03125 70.947914L354.09375 70.947914L354.09375 71.760414L353.03125 71.760414L353.03125 75.40104Q353.03125 75.854164 353.07812 75.979164Q353.14062 76.104164 353.26562 76.18229Q353.39062 76.260414 353.625 76.260414Q353.8125 76.260414 354.09375 76.229164ZM358.82812 77.166664L358.82812 76.385414Q358.23438 77.30729 357.09375 77.30729Q356.34375 77.30729 355.71875 76.90104Q355.09375 76.479164 354.75 75.74479Q354.40625 75.010414 354.40625 74.05729Q354.40625 73.135414 354.71875 72.36979Q355.03125 71.604164 355.65625 71.21354Q356.28125 70.80729 357.04688 70.80729Q357.60938 70.80729 358.04688 71.041664Q358.48438 71.27604 358.76562 71.65104L358.76562 68.572914L359.8125 68.572914L359.8125 77.166664L358.82812 77.166664ZM355.5 74.05729Q355.5 75.260414 356.0 75.854164Q356.5 76.43229 357.1875 76.43229Q357.875 76.43229 358.35938 75.86979Q358.84375 75.30729 358.84375 74.15104Q358.84375 72.86979 358.34375 72.27604Q357.85938 71.68229 357.14062 71.68229Q356.4375 71.68229 355.96875 72.260414Q355.5 72.822914 355.5 74.05729Z" fill-rule="nonzero"/><path stroke="#ea4335" stroke-width="4.0" stroke-linecap="butt" d="M377.0 73.166664L389.0 73.166664" fill-rule="nonzero"/><path fill="#1a1a1a" d="M397.79688 77.166664L397.79688 70.947914L398.73438 70.947914L398.73438 71.822914Q399.03125 71.354164 399.51562 71.08854Q400.0 70.80729 400.625 70.80729Q401.3125 70.80729 401.75 71.08854Q402.20312 71.36979 402.375 71.885414Q403.125 70.80729 404.29688 70.80729Q405.23438 70.80729 405.71875 71.322914Q406.21875 71.822914 406.21875 72.90104L406.21875 77.166664L405.17188 77.166664L405.17188 73.24479Q405.17188 72.61979 405.0625 72.33854Q404.96875 72.05729 404.70312 71.885414Q404.4375 71.71354 404.0625 71.71354Q403.40625 71.71354 402.96875 72.15104Q402.54688 72.58854 402.54688 73.55729L402.54688 77.166664L401.48438 77.166664L401.48438 73.11979Q401.48438 72.416664 401.21875 72.072914Q400.96875 71.71354 400.39062 71.71354Q399.9375 71.71354 399.5625 71.947914Q399.1875 72.18229 399.01562 72.635414Q398.84375 73.08854 398.84375 73.93229L398.84375 77.166664L397.79688 77.166664ZM412.04688 75.166664L413.14062 75.291664Q412.89062 76.24479 412.1875 76.77604Q411.48438 77.30729 410.40625 77.30729Q409.04688 77.30729 408.23438 76.46354Q407.4375 75.61979 407.4375 74.104164Q407.4375 72.541664 408.25 71.68229Q409.0625 70.80729 410.34375 70.80729Q411.59375 70.80729 412.375 71.65104Q413.17188 72.49479 413.17188 74.041664Q413.17188 74.135414 413.17188 74.322914L408.53125 74.322914Q408.59375 75.354164 409.10938 75.90104Q409.625 76.43229 410.40625 76.43229Q410.98438 76.43229 411.39062 76.135414Q411.8125 75.822914 412.04688 75.166664ZM408.59375 73.46354L412.0625 73.46354Q412.0 72.666664 411.67188 72.27604Q411.15625 71.666664 410.35938 71.666664Q409.625 71.666664 409.125 72.15104Q408.64062 72.635414 408.59375 73.46354ZM414.78125 77.166664L414.78125 70.947914L415.73438 70.947914L415.73438 71.885414Q416.09375 71.229164 416.39062 71.02604Q416.70312 70.80729 417.07812 70.80729Q417.60938 70.80729 418.15625 71.135414L417.79688 72.11979Q417.40625 71.885414 417.03125 71.885414Q416.67188 71.885414 416.39062 72.104164Q416.125 72.30729 416.01562 72.68229Q415.82812 73.24479 415.82812 73.90104L415.82812 77.166664L414.78125 77.166664ZM418.59375 77.68229L419.625 77.83854Q419.6875 78.30729 419.98438 78.52604Q420.375 78.822914 421.04688 78.822914Q421.78125 78.822914 422.17188 78.52604Q422.57812 78.229164 422.71875 77.71354Q422.8125 77.385414 422.79688 76.354164Q422.10938 77.166664 421.07812 77.166664Q419.79688 77.166664 419.09375 76.24479Q418.39062 75.30729 418.39062 74.02604Q418.39062 73.135414 418.70312 72.385414Q419.03125 71.61979 419.64062 71.21354Q420.25 70.80729 421.07812 70.80729Q422.1875 70.80729 422.90625 71.697914L422.90625 70.947914L423.875 70.947914L423.875 76.322914Q423.875 77.77604 423.57812 78.385414Q423.28125 78.99479 422.64062 79.33854Q422.0 79.697914 421.0625 79.697914Q419.95312 79.697914 419.26562 79.197914Q418.57812 78.697914 418.59375 77.68229ZM419.46875 73.947914Q419.46875 75.166664 419.95312 75.729164Q420.4375 76.291664 421.17188 76.291664Q421.90625 76.291664 422.39062 75.729164Q422.89062 75.166664 422.89062 73.979164Q422.89062 72.83854 422.375 72.260414Q421.875 71.68229 421.15625 71.68229Q420.45312 71.68229 419.95312 72.260414Q419.46875 72.822914 419.46875 73.947914ZM430.04688 75.166664L431.14062 75.291664Q430.89062 76.24479 430.1875 76.77604Q429.48438 77.30729 428.40625 77.30729Q427.04688 77.30729 426.23438 76.46354Q425.4375 75.61979 425.4375 74.104164Q425.4375 72.541664 426.25 71.68229Q427.0625 70.80729 428.34375 70.80729Q429.59375 70.80729 430.375 71.65104Q431.17188 72.49479 431.17188 74.041664Q431.17188 74.135414 431.17188 74.322914L426.53125 74.322914Q426.59375 75.354164 427.10938 75.90104Q427.625 76.43229 428.40625 76.43229Q428.98438 76.43229 429.39062 76.135414Q429.8125 75.822914 430.04688 75.166664ZM426.59375 73.46354L430.0625 73.46354Q430.0 72.666664 429.67188 72.27604Q429.15625 71.666664 428.35938 71.666664Q427.625 71.666664 427.125 72.15104Q426.64062 72.635414 426.59375 73.46354Z" fill-rule="nonzero"/><path stroke="#fbbc04" stroke-width="4.0" stroke-linecap="butt" d="M448.0 73.166664L460.0 73.166664" fill-rule="nonzero"/><path fill="#1a1a1a" d="M468.375 75.30729L469.40625 75.15104Q469.5 75.77604 469.89062 76.104164Q470.29688 76.43229 471.03125 76.43229Q471.75 76.43229 472.09375 76.15104Q472.45312 75.854164 472.45312 75.447914Q472.45312 75.08854 472.14062 74.885414Q471.92188 74.74479 471.0625 74.52604Q469.90625 74.229164 469.45312 74.02604Q469.01562 73.80729 468.78125 73.43229Q468.54688 73.05729 468.54688 72.58854Q468.54688 72.18229 468.73438 71.822914Q468.92188 71.46354 469.25 71.229164Q469.5 71.05729 469.92188 70.93229Q470.34375 70.80729 470.84375 70.80729Q471.5625 70.80729 472.10938 71.02604Q472.67188 71.229164 472.9375 71.58854Q473.20312 71.947914 473.29688 72.541664L472.26562 72.68229Q472.20312 72.21354 471.85938 71.947914Q471.53125 71.666664 470.90625 71.666664Q470.1875 71.666664 469.875 71.916664Q469.5625 72.15104 469.5625 72.479164Q469.5625 72.68229 469.6875 72.83854Q469.82812 73.010414 470.09375 73.11979Q470.25 73.18229 471.03125 73.385414Q472.15625 73.697914 472.59375 73.885414Q473.03125 74.072914 473.28125 74.43229Q473.53125 74.791664 473.53125 75.33854Q473.53125 75.86979 473.21875 76.33854Q472.92188 76.791664 472.34375 77.05729Q471.76562 77.30729 471.03125 77.30729Q469.8125 77.30729 469.17188 76.80729Q468.54688 76.291664 468.375 75.30729ZM474.79688 77.166664L474.79688 68.572914L475.84375 68.572914L475.84375 71.65104Q476.57812 70.80729 477.70312 70.80729Q478.40625 70.80729 478.90625 71.08854Q479.42188 71.354164 479.64062 71.83854Q479.85938 72.30729 479.85938 73.229164L479.85938 77.166664L478.8125 77.166664L478.8125 73.229164Q478.8125 72.43229 478.46875 72.072914Q478.125 71.71354 477.5 71.71354Q477.03125 71.71354 476.60938 71.96354Q476.20312 72.197914 476.01562 72.61979Q475.84375 73.02604 475.84375 73.760414L475.84375 77.166664L474.79688 77.166664ZM486.04688 75.166664L487.14062 75.291664Q486.89062 76.24479 486.1875 76.77604Q485.48438 77.30729 484.40625 77.30729Q483.04688 77.30729 482.23438 76.46354Q481.4375 75.61979 481.4375 74.104164Q481.4375 72.541664 482.25 71.68229Q483.0625 70.80729 484.34375 70.80729Q485.59375 70.80729 486.375 71.65104Q487.17188 72.49479 487.17188 74.041664Q487.17188 74.135414 487.17188 74.322914L482.53125 74.322914Q482.59375 75.354164 483.10938 75.90104Q483.625 76.43229 484.40625 76.43229Q484.98438 76.43229 485.39062 76.135414Q485.8125 75.822914 486.04688 75.166664ZM482.59375 73.46354L486.0625 73.46354Q486.0 72.666664 485.67188 72.27604Q485.15625 71.666664 484.35938 71.666664Q483.625 71.666664 483.125 72.15104Q482.64062 72.635414 482.59375 73.46354ZM488.76562 77.166664L488.76562 68.572914L489.82812 68.572914L489.82812 77.166664L488.76562 77.166664ZM491.76562 77.166664L491.76562 68.572914L492.82812 68.572914L492.82812 77.166664L491.76562 77.166664Z" fill-rule="nonzero"/><path fill="#757575" d="M26.26875 37.33125Q26.26875 33.76875 28.175 31.753124Q30.096874 29.721874 33.128124 29.721874Q35.1125 29.721874 36.690624 30.675Q38.284374 31.628124 39.1125 33.33125Q39.95625 35.01875 39.95625 37.159374Q39.95625 39.33125 39.08125 41.05Q38.20625 42.76875 36.58125 43.659374Q34.971874 44.55 33.1125 44.55Q31.096874 44.55 29.503124 43.58125Q27.909374 42.596874 27.08125 40.909374Q26.26875 39.20625 26.26875 37.33125ZM28.221874 37.3625Q28.221874 39.940624 29.6125 41.440624Q31.003124 42.925 33.096874 42.925Q35.2375 42.925 36.6125 41.425Q38.003124 39.909374 38.003124 37.14375Q38.003124 35.409374 37.409374 34.1125Q36.83125 32.8 35.690624 32.08125Q34.55 31.3625 33.128124 31.3625Q31.128124 31.3625 29.675 32.753124Q28.221874 34.128124 28.221874 37.3625ZM45.971874 48.503124Q44.51875 46.675 43.51875 44.221874Q42.51875 41.753124 42.51875 39.1125Q42.51875 36.784374 43.26875 34.659374Q44.14375 32.190624 45.971874 29.7375L47.2375 29.7375Q46.05 31.76875 45.675 32.64375Q45.08125 33.9875 44.7375 35.45625Q44.315624 37.284374 44.315624 39.128124Q44.315624 43.815624 47.2375 48.503124L45.971874 48.503124ZM49.6125 44.3L49.6125 33.925L51.20625 33.925L51.20625 35.409374Q52.346874 33.690624 54.503124 33.690624Q55.440624 33.690624 56.221874 34.034374Q57.01875 34.3625 57.409374 34.909374Q57.8 35.45625 57.95625 36.20625Q58.05 36.70625 58.05 37.925L58.05 44.3L56.284374 44.3L56.284374 37.9875Q56.284374 36.909374 56.08125 36.378124Q55.878124 35.846874 55.346874 35.534374Q54.83125 35.221874 54.128124 35.221874Q53.003124 35.221874 52.190624 35.940624Q51.378124 36.64375 51.378124 38.628124L51.378124 44.3L49.6125 44.3ZM66.58125 44.3L66.58125 29.9875L68.33125 29.9875L68.33125 44.3L66.58125 44.3ZM70.3 45.159374L72.00313 45.409374Q72.1125 46.20625 72.59688 46.565624Q73.25313 47.05 74.39375 47.05Q75.6125 47.05 76.26875 46.565624Q76.94063 46.08125 77.175 45.20625Q77.31563 44.659374 77.3 42.940624Q76.14375 44.3 74.425 44.3Q72.28438 44.3 71.1125 42.753124Q69.94063 41.20625 69.94063 39.05Q69.94063 37.565624 70.47188 36.315624Q71.01875 35.065624 72.03438 34.378124Q73.06563 33.690624 74.44063 33.690624Q76.26875 33.690624 77.47188 35.175L77.47188 33.925L79.08125 33.925L79.08125 42.89375Q79.08125 45.315624 78.58125 46.315624Q78.09688 47.33125 77.01875 47.909374Q75.95625 48.503124 74.39375 48.503124Q72.55 48.503124 71.39375 47.675Q70.25313 46.846874 70.3 45.159374ZM71.75313 38.925Q71.75313 40.971874 72.56563 41.909374Q73.37813 42.846874 74.59688 42.846874Q75.8 42.846874 76.6125 41.909374Q77.44063 40.971874 77.44063 38.9875Q77.44063 37.08125 76.59688 36.1125Q75.75313 35.14375 74.56563 35.14375Q73.39375 35.14375 72.56563 36.096874Q71.75313 37.05 71.75313 38.925ZM84.97188 48.503124Q83.51875 46.675 82.51875 44.221874Q81.51875 41.753124 81.51875 39.1125Q81.51875 36.784374 82.26875 34.659374Q83.14375 32.190624 84.97188 29.7375L86.2375 29.7375Q85.05 31.76875 84.675 32.64375Q84.08125 33.9875 83.7375 35.45625Q83.31563 37.284374 83.31563 39.128124Q83.31563 43.815624 86.2375 48.503124L84.97188 48.503124ZM88.6125 44.3L88.6125 33.925L90.20625 33.925L90.20625 35.409374Q91.34688 33.690624 93.50313 33.690624Q94.44063 33.690624 95.22188 34.034374Q96.01875 34.3625 96.40938 34.909374Q96.8 35.45625 96.95625 36.20625Q97.05 36.70625 97.05 37.925L97.05 44.3L95.28438 44.3L95.28438 37.9875Q95.28438 36.909374 95.08125 36.378124Q94.87813 35.846874 94.34688 35.534374Q93.83125 35.221874 93.12813 35.221874Q92.00313 35.221874 91.19063 35.940624Q90.37813 36.64375 90.37813 38.628124L90.37813 44.3L88.6125 44.3ZM100.76875 48.503124L99.51875 48.503124Q102.425 43.815624 102.425 39.128124Q102.425 37.284374 102.01875 35.4875Q101.675 34.01875 101.08125 32.675Q100.70625 31.784374 99.51875 29.7375L100.76875 29.7375Q102.6125 32.190624 103.4875 34.659374Q104.2375 36.784374 104.2375 39.1125Q104.2375 41.753124 103.22188 44.221874Q102.22188 46.675 100.76875 48.503124ZM107.76875 48.503124L106.51875 48.503124Q109.425 43.815624 109.425 39.128124Q109.425 37.284374 109.01875 35.4875Q108.675 34.01875 108.08125 32.675Q107.70625 31.784374 106.51875 29.7375L107.76875 29.7375Q109.6125 32.190624 110.4875 34.659374Q111.2375 36.784374 111.2375 39.1125Q111.2375 41.753124 110.22188 44.221874Q109.22188 46.675 107.76875 48.503124Z" fill-rule="nonzero"/></svg>