<svg version="1.1" viewBox="0.0 0.0 749.0 463.0" fill="none" stroke="none" stroke-linecap="square" stroke-miterlimit="10" width="749" height="463" xmlns:xlink="http://www.w3.org/1999/xlink" xmlns="http://www.w3.org/2000/svg"><path fill="#ffffff" d="M0 0L749.0 0L749.0 463.0L0 463.0L0 0Z" fill-rule="nonzero"/><path stroke="#cccccc" stroke-width="1.0" stroke-linecap="butt" d="M227.5 69.5L227.5 387.5" fill-rule="nonzero"/><path stroke="#cccccc" stroke-width="1.0" stroke-linecap="butt" d="M352.5 69.5L352.5 387.5" fill-rule="nonzero"/><path stroke="#cccccc" stroke-width="1.0" stroke-linecap="butt" d="M476.5 69.5L476.5 387.5" fill-rule="nonzero"/><path stroke="#cccccc" stroke-width="1.0" stroke-linecap="butt" d="M601.5 69.5L601.5 387.5" fill-rule="nonzero"/><path stroke="#cccccc" stroke-width="1.0" stroke-linecap="butt" d="M725.5 69.5L725.5 387.5" fill-rule="nonzero"/><path stroke="#333333" stroke-width="1.0" stroke-linecap="butt" d="M103.5 387.5L725.5 387.5" fill-rule="nonzero"/><path stroke="#cccccc" stroke-width="1.0" stroke-linecap="butt" d="M103.5 308.5L725.5 308.5" fill-rule="nonzero"/><path stroke="#cccccc" stroke-width="1.0" stroke-linecap="butt" d="M103.5 228.5L725.5 228.5" fill-rule="nonzero"/><path stroke="#cccccc" stroke-width="1.0" stroke-linecap="butt" d="M103.5 149.5L725.5 149.5" fill-rule="nonzero"/><path stroke="#cccccc" stroke-width="1.0" stroke-linecap="butt" d="M103.5 69.5L725.5 69.5" fill-rule="nonzero"/><clipPath id="id_0"><path d="M103.15 69.583336L725.85 69.583336L725.85 387.85L103.15 387.85L103.15 69.583336Z" clip-rule="nonzero"/></clipPath><path stroke="#4285f4" stroke-width="2.0" stroke-linecap="butt" clip-path="url(#id_0)" d="M103.15 387.84683L103.15934 387.84363L103.17491 387.83887L103.190475 387.83408L103.20605 387.8293L103.299446 387.80225L103.455124 387.75134L103.6108 387.67813L103.76648 387.632L104.70054 387.24847L106.2573 386.5817L107.81407 385.89108L109.370834 385.2243L118.711426 381.34146L134.27908 374.5194L149.84674 367.578L165.4144 360.3438L258.82034 319.0296L414.4969 249.39287L725.85 111.398796" fill-rule="nonzero"/><path fill="#000000" fill-opacity="0.0" clip-path="url(#id_0)" d="M106.15 387.84683C106.15 389.50366 104.806854 390.84683 103.15 390.84683C101.49315 390.84683 100.15 389.50366 100.15 387.84683C100.15 386.18997 101.49315 384.84683 103.15 384.84683C104.806854 384.84683 106.15 386.18997 106.15 387.84683Z" fill-rule="nonzero"/><path fill="#000000" fill-opacity="0.0" clip-path="url(#id_0)" d="M106.15934 387.84363C106.15934 389.5005 104.81619 390.84363 103.15934 390.84363C101.50249 390.84363 100.15934 389.5005 100.15934 387.84363C100.15934 386.18677 101.50249 384.84363 103.15934 384.84363C104.81619 384.84363 106.15934 386.18677 106.15934 387.84363Z" fill-rule="nonzero"/><path fill="#000000" fill-opacity="0.0" clip-path="url(#id_0)" d="M106.17491 387.83887C106.17491 389.49573 104.831764 390.83887 103.17491 390.83887C101.51805 390.83887 100.17491 389.49573 100.17491 387.83887C100.17491 386.182 101.51805 384.83887 103.17491 384.83887C104.831764 384.83887 106.17491 386.182 106.17491 387.83887Z" fill-rule="nonzero"/><path fill="#000000" fill-opacity="0.0" clip-path="url(#id_0)" d="M106.190475 387.83408C106.190475 389.49094 104.84733 390.83408 103.190475 390.83408C101.53362 390.83408 100.190475 389.49094 100.190475 387.83408C100.190475 386.17725 101.53362 384.83408 103.190475 384.83408C104.84733 384.83408 106.190475 386.17725 106.190475 387.83408Z" fill-rule="nonzero"/><path fill="#000000" fill-opacity="0.0" clip-path="url(#id_0)" d="M106.20605 387.8293C106.20605 389.48618 104.8629 390.8293 103.20605 390.8293C101.54919 390.8293 100.20605 389.48618 100.20605 387.8293C100.20605 386.17245 101.54919 384.8293 103.20605 384.8293C104.8629 384.8293 106.20605 386.17245 106.20605 387.8293Z" fill-rule="nonzero"/><path fill="#000000" fill-opacity="0.0" clip-path="url(#id_0)" d="M106.299446 387.80225C106.299446 389.4591 104.95631 390.80225 103.299446 390.80225C101.64259 390.80225 100.299446 389.4591 100.299446 387.80225C100.299446 386.14542 101.64259 384.80225 103.299446 384.80225C104.95631 384.80225 106.299446 386.14542 106.299446 387.80225Z" fill-rule="nonzero"/><path fill="#000000" fill-opacity="0.0" clip-path="url(#id_0)" d="M106.455124 387.75134C106.455124 389.4082 105.11198 390.75134 103.455124 390.75134C101.79827 390.75134 100.455124 389.4082 100.455124 387.75134C100.455124 386.09448 101.79827 384.75134 103.455124 384.75134C105.11198 384.75134 106.455124 386.09448 106.455124 387.75134Z" fill-rule="nonzero"/><path fill="#000000" fill-opacity="0.0" clip-path="url(#id_0)" d="M106.6108 387.67813C106.6108 389.335 105.267654 390.67813 103.6108 390.67813C101.95395 390.67813 100.6108 389.335 100.6108 387.67813C100.6108 386.02127 101.95395 384.67813 103.6108 384.67813C105.267654 384.67813 106.6108 386.02127 106.6108 387.67813Z" fill-rule="nonzero"/><path fill="#000000" fill-opacity="0.0" clip-path="url(#id_0)" d="M106.76648 387.632C106.76648 389.28885 105.42333 390.632 103.76648 390.632C102.10963 390.632 100.76648 389.28885 100.76648 387.632C100.76648 385.97513 102.10963 384.632 103.76648 384.632C105.42333 384.632 106.76648 385.97513 106.76648 387.632Z" fill-rule="nonzero"/><path fill="#000000" fill-opacity="0.0" clip-path="url(#id_0)" d="M107.70054 387.24847C107.70054 388.90533 106.35739 390.24847 104.70054 390.24847C103.043686 390.24847 101.70054 388.90533 101.70054 387.24847C101.70054 385.5916 103.043686 384.24847 104.70054 384.24847C106.35739 384.24847 107.70054 385.5916 107.70054 387.24847Z" fill-rule="nonzero"/><path fill="#000000" fill-opacity="0.0" clip-path="url(#id_0)" d="M109.2573 386.5817C109.2573 388.23856 107.91416 389.5817 106.2573 389.5817C104.60045 389.5817 103.2573 388.23856 103.2573 386.5817C103.2573 384.92487 104.60045 383.5817 106.2573 383.5817C107.91416 383.5817 109.2573 384.92487 109.2573 386.5817Z" fill-rule="nonzero"/><path fill="#000000" fill-opacity="0.0" clip-path="url(#id_0)" d="M110.81407 385.89108C110.81407 387.5479 109.470924 388.89108 107.81407 388.89108C106.15722 388.89108 104.81407 387.5479 104.81407 385.89108C104.81407 384.23422 106.15722 382.89108 107.81407 382.89108C109.470924 382.89108 110.81407 384.23422 110.81407 385.89108Z" fill-rule="nonzero"/><path fill="#000000" fill-opacity="0.0" clip-path="url(#id_0)" d="M112.370834 385.2243C112.370834 386.88116 111.02769 388.2243 109.370834 388.2243C107.71398 388.2243 106.370834 386.88116 106.370834 385.2243C106.370834 383.56744 107.71398 382.2243 109.370834 382.2243C111.02769 382.2243 112.370834 383.56744 112.370834 385.2243Z" fill-rule="nonzero"/><path fill="#000000" fill-opacity="0.0" clip-path="url(#id_0)" d="M121.711426 381.34146C121.711426 382.9983 120.368286 384.34146 118.711426 384.34146C117.05457 384.34146 115.711426 382.9983 115.711426 381.34146C115.711426 379.6846 117.05457 378.34146 118.711426 378.34146C120.368286 378.34146 121.711426 379.6846 121.711426 381.34146Z" fill-rule="nonzero"/><path fill="#000000" fill-opacity="0.0" clip-path="url(#id_0)" d="M137.27908 374.5194C137.27908 376.17627 135.93594 377.5194 134.27908 377.5194C132.62222 377.5194 131.27908 376.17627 131.27908 374.5194C131.27908 372.86255 132.62222 371.5194 134.27908 371.5194C135.93594 371.5194 137.27908 372.86255 137.27908 374.5194Z" fill-rule="nonzero"/><path fill="#000000" fill-opacity="0.0" clip-path="url(#id_0)" d="M152.84674 367.578C152.84674 369.23486 151.5036 370.578 149.84674 370.578C148.18988 370.578 146.84674 369.23486 146.84674 367.578C146.84674 365.92114 148.18988 364.578 149.84674 364.578C151.5036 364.578 152.84674 365.92114 152.84674 367.578Z" fill-rule="nonzero"/><path fill="#000000" fill-opacity="0.0" clip-path="url(#id_0)" d="M168.4144 360.3438C168.4144 362.00067 167.07124 363.3438 165.4144 363.3438C163.75754 363.3438 162.4144 362.00067 162.4144 360.3438C162.4144 358.68695 163.75754 357.3438 165.4144 357.3438C167.07124 357.3438 168.4144 358.68695 168.4144 360.3438Z" fill-rule="nonzero"/><path fill="#000000" fill-opacity="0.0" clip-path="url(#id_0)" d="M261.82034 319.0296C261.82034 320.68646 260.47717 322.0296 258.82034 322.0296C257.16348 322.0296 255.82033 320.68646 255.82033 319.0296C255.82033 317.37274 257.16348 316.0296 258.82034 316.0296C260.47717 316.0296 261.82034 317.37274 261.82034 319.0296Z" fill-rule="nonzero"/><path fill="#000000" fill-opacity="0.0" clip-path="url(#id_0)" d="M417.4969 249.39287C417.4969 251.04971 416.15375 252.39287 414.4969 252.39287C412.84003 252.39287 411.4969 251.04971 411.4969 249.39287C411.4969 247.73601 412.84003 246.39287 414.4969 246.39287C416.15375 246.39287 417.4969 247.73601 417.4969 249.39287Z" fill-rule="nonzero"/><path fill="#000000" fill-opacity="0.0" clip-path="url(#id_0)" d="M728.85 111.398796C728.85 113.05566 727.50684 114.398796 725.85 114.398796C724.1931 114.398796 722.85 113.05566 722.85 111.398796C722.85 109.74194 724.1931 108.398796 725.85 108.398796C727.50684 108.398796 728.85 109.74194 728.85 111.398796Z" fill-rule="nonzero"/><path fill="#000000" d="M411.79688 436.85L411.79688 430.63126L412.73438 430.63126L412.73438 431.50626Q413.42188 430.49063 414.71875 430.49063Q415.28125 430.49063 415.75 430.69376Q416.23438 430.89688 416.46875 431.225Q416.70312 431.55313 416.79688 431.99063Q416.84375 432.2875 416.84375 433.02188L416.84375 436.85L415.79688 436.85L415.79688 433.06876Q415.79688 432.4125 415.67188 432.1Q415.54688 431.7875 415.23438 431.6Q414.92188 431.39688 414.5 431.39688Q413.82812 431.39688 413.32812 431.83438Q412.84375 432.25626 412.84375 433.44376L412.84375 436.85L411.79688 436.85Z" fill-rule="nonzero"/><path fill="#000000" d="M34.150005 252.41978L27.931255 252.41978L27.931255 251.48228L28.806255 251.48228Q28.337505 251.18541 28.07188 250.70103Q27.79063 250.21666 27.79063 249.59166Q27.79063 248.90416 28.07188 248.46666Q28.35313 248.01353 28.868755 247.84166Q27.79063 247.09166 27.79063 245.91978Q27.79063 244.98228 28.306255 244.49791Q28.806255 243.99791 29.88438 243.99791L34.150005 243.99791L34.150005 245.04478L30.22813 245.04478Q29.60313 245.04478 29.32188 245.15416Q29.04063 245.24791 28.868755 245.51353Q28.69688 245.77916 28.69688 246.15416Q28.69688 246.81041 29.13438 247.24791Q29.57188 247.66978 30.54063 247.66978L34.150005 247.66978L34.150005 248.73228L30.10313 248.73228Q29.400005 248.73228 29.056255 248.99791Q28.69688 249.24791 28.69688 249.82603Q28.69688 250.27916 28.931255 250.65416Q29.16563 251.02916 29.618755 251.20103Q30.07188 251.37291 30.91563 251.37291L34.150005 251.37291L34.150005 252.41978ZM26.775005 242.41978L25.556255 242.41978L25.556255 241.35728L26.775005 241.35728L26.775005 242.41978ZM34.150005 242.41978L27.931255 242.41978L27.931255 241.35728L34.150005 241.35728L34.150005 242.41978ZM31.868755 235.35728L32.00938 234.32603Q33.07188 234.49791 33.681255 235.20103Q34.29063 235.90416 34.29063 236.91978Q34.29063 238.20103 33.462505 238.98228Q32.618755 239.74791 31.056255 239.74791Q30.056255 239.74791 29.306255 239.41978Q28.54063 239.07603 28.16563 238.40416Q27.79063 237.71666 27.79063 236.90416Q27.79063 235.90416 28.306255 235.26353Q28.806255 234.60728 29.75938 234.41978L29.91563 235.45103Q29.29063 235.59166 28.97813 235.96666Q28.650005 236.34166 28.650005 236.87291Q28.650005 237.66978 29.22813 238.16978Q29.79063 238.66978 31.025005 238.66978Q32.29063 238.66978 32.85313 238.18541Q33.41563 237.70103 33.41563 236.93541Q33.41563 236.31041 33.04063 235.90416Q32.66563 235.48228 31.868755 235.35728ZM34.150005 233.43541L27.931255 233.43541L27.931255 232.48228L28.868755 232.48228Q28.212505 232.12291 28.00938 231.82603Q27.79063 231.51353 27.79063 231.13853Q27.79063 230.60728 28.118755 230.06041L29.10313 230.41978Q28.868755 230.81041 28.868755 231.18541Q28.868755 231.54478 29.087505 231.82603Q29.29063 232.09166 29.66563 232.20103Q30.22813 232.38853 30.88438 232.38853L34.150005 232.38853L34.150005 233.43541ZM31.04063 229.81041Q29.306255 229.81041 28.47813 228.85728Q27.79063 228.06041 27.79063 226.90416Q27.79063 225.62291 28.63438 224.81041Q29.462505 223.98228 30.94688 223.98228Q32.150005 223.98228 32.837505 224.34166Q33.525005 224.70103 33.91563 225.40416Q34.29063 226.09166 34.29063 226.90416Q34.29063 228.20103 33.462505 229.01353Q32.618755 229.81041 31.04063 229.81041ZM31.04063 228.73228Q32.22813 228.73228 32.82188 228.21666Q33.41563 227.68541 33.41563 226.90416Q33.41563 226.10728 32.82188 225.59166Q32.22813 225.07603 31.00938 225.07603Q29.85313 225.07603 29.25938 225.60728Q28.66563 226.12291 28.66563 226.90416Q28.66563 227.68541 29.25938 228.21666Q29.837505 228.73228 31.04063 228.73228ZM32.29063 222.84166L32.13438 221.81041Q32.75938 221.71666 33.087505 221.32603Q33.41563 220.91978 33.41563 220.18541Q33.41563 219.46666 33.13438 219.12291Q32.837505 218.76353 32.431255 218.76353Q32.07188 218.76353 31.868755 219.07603Q31.72813 219.29478 31.50938 220.15416Q31.212505 221.31041 31.00938 221.76353Q30.79063 222.20103 30.41563 222.43541Q30.04063 222.66978 29.57188 222.66978Q29.16563 222.66978 28.806255 222.48228Q28.44688 222.29478 28.212505 221.96666Q28.04063 221.71666 27.91563 221.29478Q27.79063 220.87291 27.79063 220.37291Q27.79063 219.65416 28.00938 219.10728Q28.212505 218.54478 28.57188 218.27916Q28.931255 218.01353 29.525005 217.91978L29.66563 218.95103Q29.19688 219.01353 28.931255 219.35728Q28.650005 219.68541 28.650005 220.31041Q28.650005 221.02916 28.900005 221.34166Q29.13438 221.65416 29.462505 221.65416Q29.66563 221.65416 29.82188 221.52916Q29.993755 221.38853 30.10313 221.12291Q30.16563 220.96666 30.368755 220.18541Q30.681255 219.06041 30.868755 218.62291Q31.056255 218.18541 31.41563 217.93541Q31.775005 217.68541 32.32188 217.68541Q32.85313 217.68541 33.32188 217.99791Q33.775005 218.29478 34.04063 218.87291Q34.29063 219.45103 34.29063 220.18541Q34.29063 221.40416 33.79063 222.04478Q33.275005 222.66978 32.29063 222.84166Z" fill-rule="nonzero"/><path fill="#000000" d="M90.65 387.61563Q90.65 386.08438 90.9625 385.1625Q91.275 384.225 91.88438 383.725Q92.50938 383.225 93.44688 383.225Q94.13438 383.225 94.65 383.50626Q95.18125 383.7875 95.525 384.31876Q95.86875 384.83438 96.05625 385.58438Q96.24375 386.33438 96.24375 387.61563Q96.24375 389.13126 95.93125 390.05313Q95.63438 390.975 95.00938 391.49063Q94.4 391.99063 93.44688 391.99063Q92.2125 391.99063 91.49375 391.1Q90.65 390.0375 90.65 387.61563ZM91.72813 387.61563Q91.72813 389.725 92.22813 390.42813Q92.72813 391.13126 93.44688 391.13126Q94.18125 391.13126 94.66563 390.42813Q95.16563 389.725 95.16563 387.61563Q95.16563 385.49063 94.66563 384.80313Q94.18125 384.1 93.43125 384.1Q92.7125 384.1 92.275 384.70938Q91.72813 385.49063 91.72813 387.61563Z" fill-rule="nonzero"/><path fill="#000000" d="M62.65 310.03333L63.759377 309.93958Q63.884377 310.75208 64.32188 311.15833Q64.775 311.56458 65.41563 311.56458Q66.16563 311.56458 66.69688 310.98645Q67.22813 310.40833 67.22813 309.47083Q67.22813 308.56458 66.7125 308.04895Q66.2125 307.5177 65.38438 307.5177Q64.88438 307.5177 64.4625 307.75208Q64.05625 307.98645 63.821877 308.34583L62.8375 308.22083L63.665627 303.81458L67.94688 303.81458L67.94688 304.81458L64.50938 304.81458L64.05625 307.12708Q64.82188 306.5802 65.66563 306.5802Q66.79063 306.5802 67.55625 307.36145Q68.3375 308.1427 68.3375 309.37708Q68.3375 310.53333 67.66563 311.3927Q66.8375 312.42395 65.41563 312.42395Q64.24375 312.42395 63.49375 311.7677Q62.759377 311.11145 62.65 310.03333ZM69.65 308.04895Q69.65 306.5177 69.9625 305.59583Q70.275 304.65833 70.88438 304.15833Q71.50938 303.65833 72.44688 303.65833Q73.13438 303.65833 73.65 303.93958Q74.18125 304.22083 74.525 304.75208Q74.86875 305.2677 75.05625 306.0177Q75.24375 306.7677 75.24375 308.04895Q75.24375 309.56458 74.93125 310.48645Q74.63438 311.40833 74.00938 311.92395Q73.4 312.42395 72.44688 312.42395Q71.2125 312.42395 70.49375 311.53333Q69.65 310.47083 69.65 308.04895ZM70.72813 308.04895Q70.72813 310.15833 71.22813 310.86145Q71.72813 311.56458 72.44688 311.56458Q73.18125 311.56458 73.66563 310.86145Q74.16563 310.15833 74.16563 308.04895Q74.16563 305.92395 73.66563 305.23645Q73.18125 304.53333 72.43125 304.53333Q71.7125 304.53333 71.275 305.1427Q70.72813 305.92395 70.72813 308.04895ZM76.65 308.04895Q76.65 306.5177 76.9625 305.59583Q77.275 304.65833 77.88438 304.15833Q78.50938 303.65833 79.44688 303.65833Q80.13438 303.65833 80.65 303.93958Q81.18125 304.22083 81.525 304.75208Q81.86875 305.2677 82.05625 306.0177Q82.24375 306.7677 82.24375 308.04895Q82.24375 309.56458 81.93125 310.48645Q81.63438 311.40833 81.00938 311.92395Q80.4 312.42395 79.44688 312.42395Q78.2125 312.42395 77.49375 311.53333Q76.65 310.47083 76.65 308.04895ZM77.72813 308.04895Q77.72813 310.15833 78.22813 310.86145Q78.72813 311.56458 79.44688 311.56458Q80.18125 311.56458 80.66563 310.86145Q81.16563 310.15833 81.16563 308.04895Q81.16563 305.92395 80.66563 305.23645Q80.18125 304.53333 79.43125 304.53333Q78.7125 304.53333 78.275 305.1427Q77.72813 305.92395 77.72813 308.04895ZM83.65 308.04895Q83.65 306.5177 83.9625 305.59583Q84.275 304.65833 84.88438 304.15833Q85.50938 303.65833 86.44688 303.65833Q87.13438 303.65833 87.65 303.93958Q88.18125 304.22083 88.525 304.75208Q88.86875 305.2677 89.05625 306.0177Q89.24375 306.7677 89.24375 308.04895Q89.24375 309.56458 88.93125 310.48645Q88.63438 311.40833 88.00938 311.92395Q87.4 312.42395 86.44688 312.42395Q85.2125 312.42395 84.49375 311.53333Q83.65 310.47083 83.65 308.04895ZM84.72813 308.04895Q84.72813 310.15833 85.22813 310.86145Q85.72813 311.56458 86.44688 311.56458Q87.18125 311.56458 87.66563 310.86145Q88.16563 310.15833 88.16563 308.04895Q88.16563 305.92395 87.66563 305.23645Q87.18125 304.53333 86.43125 304.53333Q85.7125 304.53333 85.275 305.1427Q84.72813 305.92395 84.72813 308.04895ZM90.65 308.04895Q90.65 306.5177 90.9625 305.59583Q91.275 304.65833 91.88438 304.15833Q92.50938 303.65833 93.44688 303.65833Q94.13438 303.65833 94.65 303.93958Q95.18125 304.22083 95.525 304.75208Q95.86875 305.2677 96.05625 306.0177Q96.24375 306.7677 96.24375 308.04895Q96.24375 309.56458 95.93125 310.48645Q95.63438 311.40833 95.00938 311.92395Q94.4 312.42395 93.44688 312.42395Q92.2125 312.42395 91.49375 311.53333Q90.65 310.47083 90.65 308.04895ZM91.72813 308.04895Q91.72813 310.15833 92.22813 310.86145Q92.72813 311.56458 93.44688 311.56458Q94.18125 311.56458 94.66563 310.86145Q95.16563 310.15833 95.16563 308.04895Q95.16563 305.92395 94.66563 305.23645Q94.18125 304.53333 93.43125 304.53333Q92.7125 304.53333 92.275 305.1427Q91.72813 305.92395 91.72813 308.04895Z" fill-rule="nonzero"/><path fill="#000000" d="M59.61875 232.71666L58.571877 232.71666L58.571877 225.99791Q58.18125 226.35728 57.55625 226.73228Q56.946877 227.09166 56.4625 227.26353L56.4625 226.24791Q57.3375 225.82603 57.99375 225.24791Q58.665627 224.65416 58.946877 224.09166L59.61875 224.09166L59.61875 232.71666ZM62.65 228.48228Q62.65 226.95103 62.9625 226.02916Q63.275 225.09166 63.884377 224.59166Q64.50938 224.09166 65.44688 224.09166Q66.13438 224.09166 66.65 224.37291Q67.18125 224.65416 67.525 225.18541Q67.86875 225.70103 68.05625 226.45103Q68.24375 227.20103 68.24375 228.48228Q68.24375 229.99791 67.93125 230.91978Q67.63438 231.84166 67.00938 232.35728Q66.4 232.85728 65.44688 232.85728Q64.2125 232.85728 63.49375 231.96666Q62.65 230.90416 62.65 228.48228ZM63.728127 228.48228Q63.728127 230.59166 64.22813 231.29478Q64.72813 231.99791 65.44688 231.99791Q66.18125 231.99791 66.66563 231.29478Q67.16563 230.59166 67.16563 228.48228Q67.16563 226.35728 66.66563 225.66978Q66.18125 224.96666 65.43125 224.96666Q64.7125 224.96666 64.275 225.57603Q63.728127 226.35728 63.728127 228.48228ZM69.65 228.48228Q69.65 226.95103 69.9625 226.02916Q70.275 225.09166 70.88438 224.59166Q71.50938 224.09166 72.44688 224.09166Q73.13438 224.09166 73.65 224.37291Q74.18125 224.65416 74.525 225.18541Q74.86875 225.70103 75.05625 226.45103Q75.24375 227.20103 75.24375 228.48228Q75.24375 229.99791 74.93125 230.91978Q74.63438 231.84166 74.00938 232.35728Q73.4 232.85728 72.44688 232.85728Q71.2125 232.85728 70.49375 231.96666Q69.65 230.90416 69.65 228.48228ZM70.72813 228.48228Q70.72813 230.59166 71.22813 231.29478Q71.72813 231.99791 72.44688 231.99791Q73.18125 231.99791 73.66563 231.29478Q74.16563 230.59166 74.16563 228.48228Q74.16563 226.35728 73.66563 225.66978Q73.18125 224.96666 72.43125 224.96666Q71.7125 224.96666 71.275 225.57603Q70.72813 226.35728 70.72813 228.48228ZM76.65 228.48228Q76.65 226.95103 76.9625 226.02916Q77.275 225.09166 77.88438 224.59166Q78.50938 224.09166 79.44688 224.09166Q80.13438 224.09166 80.65 224.37291Q81.18125 224.65416 81.525 225.18541Q81.86875 225.70103 82.05625 226.45103Q82.24375 227.20103 82.24375 228.48228Q82.24375 229.99791 81.93125 230.91978Q81.63438 231.84166 81.00938 232.35728Q80.4 232.85728 79.44688 232.85728Q78.2125 232.85728 77.49375 231.96666Q76.65 230.90416 76.65 228.48228ZM77.72813 228.48228Q77.72813 230.59166 78.22813 231.29478Q78.72813 231.99791 79.44688 231.99791Q80.18125 231.99791 80.66563 231.29478Q81.16563 230.59166 81.16563 228.48228Q81.16563 226.35728 80.66563 225.66978Q80.18125 224.96666 79.43125 224.96666Q78.7125 224.96666 78.275 225.57603Q77.72813 226.35728 77.72813 228.48228ZM83.65 228.48228Q83.65 226.95103 83.9625 226.02916Q84.275 225.09166 84.88438 224.59166Q85.50938 224.09166 86.44688 224.09166Q87.13438 224.09166 87.65 224.37291Q88.18125 224.65416 88.525 225.18541Q88.86875 225.70103 89.05625 226.45103Q89.24375 227.20103 89.24375 228.48228Q89.24375 229.99791 88.93125 230.91978Q88.63438 231.84166 88.00938 232.35728Q87.4 232.85728 86.44688 232.85728Q85.2125 232.85728 84.49375 231.96666Q83.65 230.90416 83.65 228.48228ZM84.72813 228.48228Q84.72813 230.59166 85.22813 231.29478Q85.72813 231.99791 86.44688 231.99791Q87.18125 231.99791 87.66563 231.29478Q88.16563 230.59166 88.16563 228.48228Q88.16563 226.35728 87.66563 225.66978Q87.18125 224.96666 86.43125 224.96666Q85.7125 224.96666 85.275 225.57603Q84.72813 226.35728 84.72813 228.48228ZM90.65 228.48228Q90.65 226.95103 90.9625 226.02916Q91.275 225.09166 91.88438 224.59166Q92.50938 224.09166 93.44688 224.09166Q94.13438 224.09166 94.65 224.37291Q95.18125 224.65416 95.525 225.18541Q95.86875 225.70103 96.05625 226.45103Q96.24375 227.20103 96.24375 228.48228Q96.24375 229.99791 95.93125 230.91978Q95.63438 231.84166 95.00938 232.35728Q94.4 232.85728 93.44688 232.85728Q92.2125 232.85728 91.49375 231.96666Q90.65 230.90416 90.65 228.48228ZM91.72813 228.48228Q91.72813 230.59166 92.22813 231.29478Q92.72813 231.99791 93.44688 231.99791Q94.18125 231.99791 94.66563 231.29478Q95.16563 230.59166 95.16563 228.48228Q95.16563 226.35728 94.66563 225.66978Q94.18125 224.96666 93.43125 224.96666Q92.7125 224.96666 92.275 225.57603Q91.72813 226.35728 91.72813 228.48228Z" fill-rule="nonzero"/><path fill="#000000" d="M59.61875 153.15L58.571877 153.15L58.571877 146.43124Q58.18125 146.79062 57.55625 147.16562Q56.946877 147.525 56.4625 147.69687L56.4625 146.68124Q57.3375 146.25937 57.99375 145.68124Q58.665627 145.0875 58.946877 144.525L59.61875 144.525L59.61875 153.15ZM62.65 150.9L63.759377 150.80624Q63.884377 151.61874 64.32188 152.025Q64.775 152.43124 65.41563 152.43124Q66.16563 152.43124 66.69688 151.85312Q67.22813 151.275 67.22813 150.3375Q67.22813 149.43124 66.7125 148.91562Q66.2125 148.38437 65.38438 148.38437Q64.88438 148.38437 64.4625 148.61874Q64.05625 148.85312 63.821877 149.2125L62.8375 149.0875L63.665627 144.68124L67.94688 144.68124L67.94688 145.68124L64.50938 145.68124L64.05625 147.99374Q64.82188 147.44687 65.66563 147.44687Q66.79063 147.44687 67.55625 148.22812Q68.3375 149.00937 68.3375 150.24374Q68.3375 151.4 67.66563 152.25937Q66.8375 153.29062 65.41563 153.29062Q64.24375 153.29062 63.49375 152.63437Q62.759377 151.97812 62.65 150.9ZM69.65 148.91562Q69.65 147.38437 69.9625 146.4625Q70.275 145.525 70.88438 145.025Q71.50938 144.525 72.44688 144.525Q73.13438 144.525 73.65 144.80624Q74.18125 145.0875 74.525 145.61874Q74.86875 146.13437 75.05625 146.88437Q75.24375 147.63437 75.24375 148.91562Q75.24375 150.43124 74.93125 151.35312Q74.63438 152.275 74.00938 152.79062Q73.4 153.29062 72.44688 153.29062Q71.2125 153.29062 70.49375 152.4Q69.65 151.3375 69.65 148.91562ZM70.72813 148.91562Q70.72813 151.025 71.22813 151.72812Q71.72813 152.43124 72.44688 152.43124Q73.18125 152.43124 73.66563 151.72812Q74.16563 151.025 74.16563 148.91562Q74.16563 146.79062 73.66563 146.10312Q73.18125 145.4 72.43125 145.4Q71.7125 145.4 71.275 146.00937Q70.72813 146.79062 70.72813 148.91562ZM76.65 148.91562Q76.65 147.38437 76.9625 146.4625Q77.275 145.525 77.88438 145.025Q78.50938 144.525 79.44688 144.525Q80.13438 144.525 80.65 144.80624Q81.18125 145.0875 81.525 145.61874Q81.86875 146.13437 82.05625 146.88437Q82.24375 147.63437 82.24375 148.91562Q82.24375 150.43124 81.93125 151.35312Q81.63438 152.275 81.00938 152.79062Q80.4 153.29062 79.44688 153.29062Q78.2125 153.29062 77.49375 152.4Q76.65 151.3375 76.65 148.91562ZM77.72813 148.91562Q77.72813 151.025 78.22813 151.72812Q78.72813 152.43124 79.44688 152.43124Q80.18125 152.43124 80.66563 151.72812Q81.16563 151.025 81.16563 148.91562Q81.16563 146.79062 80.66563 146.10312Q80.18125 145.4 79.43125 145.4Q78.7125 145.4 78.275 146.00937Q77.72813 146.79062 77.72813 148.91562ZM83.65 148.91562Q83.65 147.38437 83.9625 146.4625Q84.275 145.525 84.88438 145.025Q85.50938 144.525 86.44688 144.525Q87.13438 144.525 87.65 144.80624Q88.18125 145.0875 88.525 145.61874Q88.86875 146.13437 89.05625 146.88437Q89.24375 147.63437 89.24375 148.91562Q89.24375 150.43124 88.93125 151.35312Q88.63438 152.275 88.00938 152.79062Q87.4 153.29062 86.44688 153.29062Q85.2125 153.29062 84.49375 152.4Q83.65 151.3375 83.65 148.91562ZM84.72813 148.91562Q84.72813 151.025 85.22813 151.72812Q85.72813 152.43124 86.44688 152.43124Q87.18125 152.43124 87.66563 151.72812Q88.16563 151.025 88.16563 148.91562Q88.16563 146.79062 87.66563 146.10312Q87.18125 145.4 86.43125 145.4Q85.7125 145.4 85.275 146.00937Q84.72813 146.79062 84.72813 148.91562ZM90.65 148.91562Q90.65 147.38437 90.9625 146.4625Q91.275 145.525 91.88438 145.025Q92.50938 144.525 93.44688 144.525Q94.13438 144.525 94.65 144.80624Q95.18125 145.0875 95.525 145.61874Q95.86875 146.13437 96.05625 146.88437Q96.24375 147.63437 96.24375 148.91562Q96.24375 150.43124 95.93125 151.35312Q95.63438 152.275 95.00938 152.79062Q94.4 153.29062 93.44688 153.29062Q92.2125 153.29062 91.49375 152.4Q90.65 151.3375 90.65 148.91562ZM91.72813 148.91562Q91.72813 151.025 92.22813 151.72812Q92.72813 152.43124 93.44688 152.43124Q94.18125 152.43124 94.66563 151.72812Q95.16563 151.025 95.16563 148.91562Q95.16563 146.79062 94.66563 146.10312Q94.18125 145.4 93.43125 145.4Q92.7125 145.4 92.275 146.00937Q91.72813 146.79062 91.72813 148.91562Z" fill-rule="nonzero"/><path fill="#000000" d="M61.196877 72.56771L61.196877 73.583336L55.509377 73.583336Q55.509377 73.208336 55.634377 72.84896Q55.853127 72.270836 56.321877 71.708336Q56.80625 71.145836 57.7125 70.41146Q59.11875 69.25521 59.603127 68.583336Q60.103127 67.91146 60.103127 67.31771Q60.103127 66.69271 59.65 66.270836Q59.196877 65.833336 58.478127 65.833336Q57.7125 65.833336 57.259377 66.28646Q56.80625 66.739586 56.790627 67.552086L55.7125 67.44271Q55.821877 66.22396 56.540627 65.59896Q57.275 64.958336 58.509377 64.958336Q59.74375 64.958336 60.4625 65.645836Q61.18125 66.333336 61.18125 67.34896Q61.18125 67.864586 60.9625 68.364586Q60.759377 68.84896 60.259377 69.41146Q59.775 69.958336 58.65 70.91146Q57.696877 71.708336 57.415627 72.00521Q57.15 72.28646 56.978127 72.56771L61.196877 72.56771ZM62.65 69.34896Q62.65 67.81771 62.9625 66.895836Q63.275 65.958336 63.884377 65.458336Q64.50938 64.958336 65.44688 64.958336Q66.13438 64.958336 66.65 65.239586Q67.18125 65.520836 67.525 66.052086Q67.86875 66.56771 68.05625 67.31771Q68.24375 68.06771 68.24375 69.34896Q68.24375 70.864586 67.93125 71.78646Q67.63438 72.708336 67.00938 73.22396Q66.4 73.72396 65.44688 73.72396Q64.2125 73.72396 63.49375 72.833336Q62.65 71.770836 62.65 69.34896ZM63.728127 69.34896Q63.728127 71.458336 64.22813 72.16146Q64.72813 72.864586 65.44688 72.864586Q66.18125 72.864586 66.66563 72.16146Q67.16563 71.458336 67.16563 69.34896Q67.16563 67.22396 66.66563 66.53646Q66.18125 65.833336 65.43125 65.833336Q64.7125 65.833336 64.275 66.44271Q63.728127 67.22396 63.728127 69.34896ZM69.65 69.34896Q69.65 67.81771 69.9625 66.895836Q70.275 65.958336 70.88438 65.458336Q71.50938 64.958336 72.44688 64.958336Q73.13438 64.958336 73.65 65.239586Q74.18125 65.520836 74.525 66.052086Q74.86875 66.56771 75.05625 67.31771Q75.24375 68.06771 75.24375 69.34896Q75.24375 70.864586 74.93125 71.78646Q74.63438 72.708336 74.00938 73.22396Q73.4 73.72396 72.44688 73.72396Q71.2125 73.72396 70.49375 72.833336Q69.65 71.770836 69.65 69.34896ZM70.72813 69.34896Q70.72813 71.458336 71.22813 72.16146Q71.72813 72.864586 72.44688 72.864586Q73.18125 72.864586 73.66563 72.16146Q74.16563 71.458336 74.16563 69.34896Q74.16563 67.22396 73.66563 66.53646Q73.18125 65.833336 72.43125 65.833336Q71.7125 65.833336 71.275 66.44271Q70.72813 67.22396 70.72813 69.34896ZM76.65 69.34896Q76.65 67.81771 76.9625 66.895836Q77.275 65.958336 77.88438 65.458336Q78.50938 64.958336 79.44688 64.958336Q80.13438 64.958336 80.65 65.239586Q81.18125 65.520836 81.525 66.052086Q81.86875 66.56771 82.05625 67.31771Q82.24375 68.06771 82.24375 69.34896Q82.24375 70.864586 81.93125 71.78646Q81.63438 72.708336 81.00938 73.22396Q80.4 73.72396 79.44688 73.72396Q78.2125 73.72396 77.49375 72.833336Q76.65 71.770836 76.65 69.34896ZM77.72813 69.34896Q77.72813 71.458336 78.22813 72.16146Q78.72813 72.864586 79.44688 72.864586Q80.18125 72.864586 80.66563 72.16146Q81.16563 71.458336 81.16563 69.34896Q81.16563 67.22396 80.66563 66.53646Q80.18125 65.833336 79.43125 65.833336Q78.7125 65.833336 78.275 66.44271Q77.72813 67.22396 77.72813 69.34896ZM83.65 69.34896Q83.65 67.81771 83.9625 66.895836Q84.275 65.958336 84.88438 65.458336Q85.50938 64.958336 86.44688 64.958336Q87.13438 64.958336 87.65 65.239586Q88.18125 65.520836 88.525 66.052086Q88.86875 66.56771 89.05625 67.31771Q89.24375 68.06771 89.24375 69.34896Q89.24375 70.864586 88.93125 71.78646Q88.63438 72.708336 88.00938 73.22396Q87.4 73.72396 86.44688 73.72396Q85.2125 73.72396 84.49375 72.833336Q83.65 71.770836 83.65 69.34896ZM84.72813 69.34896Q84.72813 71.458336 85.22813 72.16146Q85.72813 72.864586 86.44688 72.864586Q87.18125 72.864586 87.66563 72.16146Q88.16563 71.458336 88.16563 69.34896Q88.16563 67.22396 87.66563 66.53646Q87.18125 65.833336 86.43125 65.833336Q85.7125 65.833336 85.275 66.44271Q84.72813 67.22396 84.72813 69.34896ZM90.65 69.34896Q90.65 67.81771 90.9625 66.895836Q91.275 65.958336 91.88438 65.458336Q92.50938 64.958336 93.44688 64.958336Q94.13438 64.958336 94.65 65.239586Q95.18125 65.520836 95.525 66.052086Q95.86875 66.56771 96.05625 67.31771Q96.24375 68.06771 96.24375 69.34896Q96.24375 70.864586 95.93125 71.78646Q95.63438 72.708336 95.00938 73.22396Q94.4 73.72396 93.44688 73.72396Q92.2125 73.72396 91.49375 72.833336Q90.65 71.770836 90.65 69.34896ZM91.72813 69.34896Q91.72813 71.458336 92.22813 72.16146Q92.72813 72.864586 93.44688 72.864586Q94.18125 72.864586 94.66563 72.16146Q95.16563 71.458336 95.16563 69.34896Q95.16563 67.22396 94.66563 66.53646Q94.18125 65.833336 93.43125 65.833336Q92.7125 65.833336 92.275 66.44271Q91.72813 67.22396 91.72813 69.34896Z" fill-rule="nonzero"/><path fill="#000000" d="M211.23189 403.83438L211.23189 404.85L205.54439 404.85Q205.54439 404.475 205.66939 404.11563Q205.88814 403.5375 206.35689 402.975Q206.84126 402.4125 207.74751 401.67813Q209.15376 400.52188 209.63814 399.85Q210.13814 399.17813 210.13814 398.58438Q210.13814 397.95938 209.68501 397.5375Q209.23189 397.1 208.51314 397.1Q207.74751 397.1 207.29439 397.55313Q206.84126 398.00626 206.82564 398.81876L205.74751 398.70938Q205.85689 397.49063 206.57564 396.86563Q207.31001 396.225 208.54439 396.225Q209.77876 396.225 210.49751 396.9125Q211.21626 397.6 211.21626 398.61563Q211.21626 399.13126 210.99751 399.63126Q210.79439 400.11563 210.29439 400.67813Q209.81001 401.225 208.68501 402.17813Q207.73189 402.975 207.45064 403.27188Q207.18501 403.55313 207.01314 403.83438L211.23189 403.83438ZM212.68501 400.61563Q212.68501 399.08438 212.99751 398.1625Q213.31001 397.225 213.91939 396.725Q214.54439 396.225 215.48189 396.225Q216.16939 396.225 216.68501 396.50626Q217.21626 396.7875 217.56001 397.31876Q217.90376 397.83438 218.09126 398.58438Q218.27876 399.33438 218.27876 400.61563Q218.27876 402.13126 217.96626 403.05313Q217.66939 403.975 217.04439 404.49063Q216.43501 404.99063 215.48189 404.99063Q214.24751 404.99063 213.52876 404.1Q212.68501 403.0375 212.68501 400.61563ZM213.76314 400.61563Q213.76314 402.725 214.26314 403.42813Q214.76314 404.13126 215.48189 404.13126Q216.21626 404.13126 216.70064 403.42813Q217.20064 402.725 217.20064 400.61563Q217.20064 398.49063 216.70064 397.80313Q216.21626 397.1 215.46626 397.1Q214.74751 397.1 214.31001 397.70938Q213.76314 398.49063 213.76314 400.61563ZM219.68501 400.61563Q219.68501 399.08438 219.99751 398.1625Q220.31001 397.225 220.91939 396.725Q221.54439 396.225 222.48189 396.225Q223.16939 396.225 223.68501 396.50626Q224.21626 396.7875 224.56001 397.31876Q224.90376 397.83438 225.09126 398.58438Q225.27876 399.33438 225.27876 400.61563Q225.27876 402.13126 224.96626 403.05313Q224.66939 403.975 224.04439 404.49063Q223.43501 404.99063 222.48189 404.99063Q221.24751 404.99063 220.52876 404.1Q219.68501 403.0375 219.68501 400.61563ZM220.76314 400.61563Q220.76314 402.725 221.26314 403.42813Q221.76314 404.13126 222.48189 404.13126Q223.21626 404.13126 223.70064 403.42813Q224.20064 402.725 224.20064 400.61563Q224.20064 398.49063 223.70064 397.80313Q223.21626 397.1 222.46626 397.1Q221.74751 397.1 221.31001 397.70938Q220.76314 398.49063 220.76314 400.61563ZM227.27876 404.85L227.27876 403.64688L228.48189 403.64688L228.48189 404.85L227.27876 404.85ZM229.68501 400.61563Q229.68501 399.08438 229.99751 398.1625Q230.31001 397.225 230.91939 396.725Q231.54439 396.225 232.48189 396.225Q233.16939 396.225 233.68501 396.50626Q234.21626 396.7875 234.56001 397.31876Q234.90376 397.83438 235.09126 398.58438Q235.27876 399.33438 235.27876 400.61563Q235.27876 402.13126 234.96626 403.05313Q234.66939 403.975 234.04439 404.49063Q233.43501 404.99063 232.48189 404.99063Q231.24751 404.99063 230.52876 404.1Q229.68501 403.0375 229.68501 400.61563ZM230.76314 400.61563Q230.76314 402.725 231.26314 403.42813Q231.76314 404.13126 232.48189 404.13126Q233.21626 404.13126 233.70064 403.42813Q234.20064 402.725 234.20064 400.61563Q234.20064 398.49063 233.70064 397.80313Q233.21626 397.1 232.46626 397.1Q231.74751 397.1 231.31001 397.70938Q230.76314 398.49063 230.76314 400.61563ZM236.68501 400.61563Q236.68501 399.08438 236.99751 398.1625Q237.31001 397.225 237.91939 396.725Q238.54439 396.225 239.48189 396.225Q240.16939 396.225 240.68501 396.50626Q241.21626 396.7875 241.56001 397.31876Q241.90376 397.83438 242.09126 398.58438Q242.27876 399.33438 242.27876 400.61563Q242.27876 402.13126 241.96626 403.05313Q241.66939 403.975 241.04439 404.49063Q240.43501 404.99063 239.48189 404.99063Q238.24751 404.99063 237.52876 404.1Q236.68501 403.0375 236.68501 400.61563ZM237.76314 400.61563Q237.76314 402.725 238.26314 403.42813Q238.76314 404.13126 239.48189 404.13126Q240.21626 404.13126 240.70064 403.42813Q241.20064 402.725 241.20064 400.61563Q241.20064 398.49063 240.70064 397.80313Q240.21626 397.1 239.46626 397.1Q238.74751 397.1 238.31001 397.70938Q237.76314 398.49063 237.76314 400.61563ZM243.68501 400.61563Q243.68501 399.08438 243.99751 398.1625Q244.31001 397.225 244.91939 396.725Q245.54439 396.225 246.48189 396.225Q247.16939 396.225 247.68501 396.50626Q248.21626 396.7875 248.56001 397.31876Q248.90376 397.83438 249.09126 398.58438Q249.27876 399.33438 249.27876 400.61563Q249.27876 402.13126 248.96626 403.05313Q248.66939 403.975 248.04439 404.49063Q247.43501 404.99063 246.48189 404.99063Q245.24751 404.99063 244.52876 404.1Q243.68501 403.0375 243.68501 400.61563ZM244.76314 400.61563Q244.76314 402.725 245.26314 403.42813Q245.76314 404.13126 246.48189 404.13126Q247.21626 404.13126 247.70064 403.42813Q248.20064 402.725 248.20064 400.61563Q248.20064 398.49063 247.70064 397.80313Q247.21626 397.1 246.46626 397.1Q245.74751 397.1 245.31001 397.70938Q244.76314 398.49063 244.76314 400.61563Z" fill-rule="nonzero"/><path fill="#000000" d="M333.60126 404.85L333.60126 402.7875L329.8825 402.7875L329.8825 401.81876L333.80438 396.25626L334.66376 396.25626L334.66376 401.81876L335.82 401.81876L335.82 402.7875L334.66376 402.7875L334.66376 404.85L333.60126 404.85ZM333.60126 401.81876L333.60126 397.95938L330.91376 401.81876L333.60126 401.81876ZM337.22626 400.61563Q337.22626 399.08438 337.53876 398.1625Q337.85126 397.225 338.46063 396.725Q339.08563 396.225 340.02313 396.225Q340.71063 396.225 341.22626 396.50626Q341.7575 396.7875 342.10126 397.31876Q342.445 397.83438 342.6325 398.58438Q342.82 399.33438 342.82 400.61563Q342.82 402.13126 342.5075 403.05313Q342.21063 403.975 341.58563 404.49063Q340.97626 404.99063 340.02313 404.99063Q338.78876 404.99063 338.07 404.1Q337.22626 403.0375 337.22626 400.61563ZM338.30438 400.61563Q338.30438 402.725 338.80438 403.42813Q339.30438 404.13126 340.02313 404.13126Q340.7575 404.13126 341.24188 403.42813Q341.74188 402.725 341.74188 400.61563Q341.74188 398.49063 341.24188 397.80313Q340.7575 397.1 340.0075 397.1Q339.28876 397.1 338.85126 397.70938Q338.30438 398.49063 338.30438 400.61563ZM344.22626 400.61563Q344.22626 399.08438 344.53876 398.1625Q344.85126 397.225 345.46063 396.725Q346.08563 396.225 347.02313 396.225Q347.71063 396.225 348.22626 396.50626Q348.7575 396.7875 349.10126 397.31876Q349.445 397.83438 349.6325 398.58438Q349.82 399.33438 349.82 400.61563Q349.82 402.13126 349.5075 403.05313Q349.21063 403.975 348.58563 404.49063Q347.97626 404.99063 347.02313 404.99063Q345.78876 404.99063 345.07 404.1Q344.22626 403.0375 344.22626 400.61563ZM345.30438 400.61563Q345.30438 402.725 345.80438 403.42813Q346.30438 404.13126 347.02313 404.13126Q347.7575 404.13126 348.24188 403.42813Q348.74188 402.725 348.74188 400.61563Q348.74188 398.49063 348.24188 397.80313Q347.7575 397.1 347.0075 397.1Q346.28876 397.1 345.85126 397.70938Q345.30438 398.49063 345.30438 400.61563ZM351.82 404.85L351.82 403.64688L353.02313 403.64688L353.02313 404.85L351.82 404.85ZM354.22626 400.61563Q354.22626 399.08438 354.53876 398.1625Q354.85126 397.225 355.46063 396.725Q356.08563 396.225 357.02313 396.225Q357.71063 396.225 358.22626 396.50626Q358.7575 396.7875 359.10126 397.31876Q359.445 397.83438 359.6325 398.58438Q359.82 399.33438 359.82 400.61563Q359.82 402.13126 359.5075 403.05313Q359.21063 403.975 358.58563 404.49063Q357.97626 404.99063 357.02313 404.99063Q355.78876 404.99063 355.07 404.1Q354.22626 403.0375 354.22626 400.61563ZM355.30438 400.61563Q355.30438 402.725 355.80438 403.42813Q356.30438 404.13126 357.02313 404.13126Q357.7575 404.13126 358.24188 403.42813Q358.74188 402.725 358.74188 400.61563Q358.74188 398.49063 358.24188 397.80313Q357.7575 397.1 357.0075 397.1Q356.28876 397.1 355.85126 397.70938Q355.30438 398.49063 355.30438 400.61563ZM361.22626 400.61563Q361.22626 399.08438 361.53876 398.1625Q361.85126 397.225 362.46063 396.725Q363.08563 396.225 364.02313 396.225Q364.71063 396.225 365.22626 396.50626Q365.7575 396.7875 366.10126 397.31876Q366.445 397.83438 366.6325 398.58438Q366.82 399.33438 366.82 400.61563Q366.82 402.13126 366.5075 403.05313Q366.21063 403.975 365.58563 404.49063Q364.97626 404.99063 364.02313 404.99063Q362.78876 404.99063 362.07 404.1Q361.22626 403.0375 361.22626 400.61563ZM362.30438 400.61563Q362.30438 402.725 362.80438 403.42813Q363.30438 404.13126 364.02313 404.13126Q364.7575 404.13126 365.24188 403.42813Q365.74188 402.725 365.74188 400.61563Q365.74188 398.49063 365.24188 397.80313Q364.7575 397.1 364.0075 397.1Q363.28876 397.1 362.85126 397.70938Q362.30438 398.49063 362.30438 400.61563ZM368.22626 400.61563Q368.22626 399.08438 368.53876 398.1625Q368.85126 397.225 369.46063 396.725Q370.08563 396.225 371.02313 396.225Q371.71063 396.225 372.22626 396.50626Q372.7575 396.7875 373.10126 397.31876Q373.445 397.83438 373.6325 398.58438Q373.82 399.33438 373.82 400.61563Q373.82 402.13126 373.5075 403.05313Q373.21063 403.975 372.58563 404.49063Q371.97626 404.99063 371.02313 404.99063Q369.78876 404.99063 369.07 404.1Q368.22626 403.0375 368.22626 400.61563ZM369.30438 400.61563Q369.30438 402.725 369.80438 403.42813Q370.30438 404.13126 371.02313 404.13126Q371.7575 404.13126 372.24188 403.42813Q372.74188 402.725 372.74188 400.61563Q372.74188 398.49063 372.24188 397.80313Q371.7575 397.1 371.0075 397.1Q370.28876 397.1 369.85126 397.70938Q369.30438 398.49063 369.30438 400.61563Z" fill-rule="nonzero"/><path fill="#000000" d="M460.23627 398.36563L459.1894 398.44376Q459.04877 397.81876 458.79877 397.5375Q458.36127 397.08438 457.73627 397.08438Q457.23627 397.08438 456.84564 397.36563Q456.36127 397.74063 456.0644 398.44376Q455.78314 399.13126 455.76752 400.4125Q456.14252 399.83438 456.6894 399.55313Q457.2519 399.27188 457.86127 399.27188Q458.90814 399.27188 459.64252 400.05313Q460.39252 400.83438 460.39252 402.05313Q460.39252 402.86563 460.03314 403.56876Q459.6894 404.25626 459.08002 404.63126Q458.47064 404.99063 457.70502 404.99063Q456.3769 404.99063 455.54877 404.02188Q454.72064 403.05313 454.72064 400.83438Q454.72064 398.33438 455.64252 397.20938Q456.4394 396.225 457.79877 396.225Q458.8144 396.225 459.45502 396.80313Q460.11127 397.36563 460.23627 398.36563ZM455.9394 402.06876Q455.9394 402.61563 456.15814 403.11563Q456.39252 403.6 456.79877 403.86563Q457.22064 404.13126 457.6894 404.13126Q458.34564 404.13126 458.83002 403.6Q459.3144 403.05313 459.3144 402.13126Q459.3144 401.24063 458.83002 400.725Q458.36127 400.20938 457.64252 400.20938Q456.92377 400.20938 456.42377 400.725Q455.9394 401.24063 455.9394 402.06876ZM461.76752 400.61563Q461.76752 399.08438 462.08002 398.1625Q462.39252 397.225 463.0019 396.725Q463.6269 396.225 464.5644 396.225Q465.2519 396.225 465.76752 396.50626Q466.29877 396.7875 466.64252 397.31876Q466.98627 397.83438 467.17377 398.58438Q467.36127 399.33438 467.36127 400.61563Q467.36127 402.13126 467.04877 403.05313Q466.7519 403.975 466.1269 404.49063Q465.51752 404.99063 464.5644 404.99063Q463.33002 404.99063 462.61127 404.1Q461.76752 403.0375 461.76752 400.61563ZM462.84564 400.61563Q462.84564 402.725 463.34564 403.42813Q463.84564 404.13126 464.5644 404.13126Q465.29877 404.13126 465.78314 403.42813Q466.28314 402.725 466.28314 400.61563Q466.28314 398.49063 465.78314 397.80313Q465.29877 397.1 464.54877 397.1Q463.83002 397.1 463.39252 397.70938Q462.84564 398.49063 462.84564 400.61563ZM468.76752 400.61563Q468.76752 399.08438 469.08002 398.1625Q469.39252 397.225 470.0019 396.725Q470.6269 396.225 471.5644 396.225Q472.2519 396.225 472.76752 396.50626Q473.29877 396.7875 473.64252 397.31876Q473.98627 397.83438 474.17377 398.58438Q474.36127 399.33438 474.36127 400.61563Q474.36127 402.13126 474.04877 403.05313Q473.7519 403.975 473.1269 404.49063Q472.51752 404.99063 471.5644 404.99063Q470.33002 404.99063 469.61127 404.1Q468.76752 403.0375 468.76752 400.61563ZM469.84564 400.61563Q469.84564 402.725 470.34564 403.42813Q470.84564 404.13126 471.5644 404.13126Q472.29877 404.13126 472.78314 403.42813Q473.28314 402.725 473.28314 400.61563Q473.28314 398.49063 472.78314 397.80313Q472.29877 397.1 471.54877 397.1Q470.83002 397.1 470.39252 397.70938Q469.84564 398.49063 469.84564 400.61563ZM476.36127 404.85L476.36127 403.64688L477.5644 403.64688L477.5644 404.85L476.36127 404.85ZM478.76752 400.61563Q478.76752 399.08438 479.08002 398.1625Q479.39252 397.225 480.0019 396.725Q480.6269 396.225 481.5644 396.225Q482.2519 396.225 482.76752 396.50626Q483.29877 396.7875 483.64252 397.31876Q483.98627 397.83438 484.17377 398.58438Q484.36127 399.33438 484.36127 400.61563Q484.36127 402.13126 484.04877 403.05313Q483.7519 403.975 483.1269 404.49063Q482.51752 404.99063 481.5644 404.99063Q480.33002 404.99063 479.61127 404.1Q478.76752 403.0375 478.76752 400.61563ZM479.84564 400.61563Q479.84564 402.725 480.34564 403.42813Q480.84564 404.13126 481.5644 404.13126Q482.29877 404.13126 482.78314 403.42813Q483.28314 402.725 483.28314 400.61563Q483.28314 398.49063 482.78314 397.80313Q482.29877 397.1 481.54877 397.1Q480.83002 397.1 480.39252 397.70938Q479.84564 398.49063 479.84564 400.61563ZM485.76752 400.61563Q485.76752 399.08438 486.08002 398.1625Q486.39252 397.225 487.0019 396.725Q487.6269 396.225 488.5644 396.225Q489.2519 396.225 489.76752 396.50626Q490.29877 396.7875 490.64252 397.31876Q490.98627 397.83438 491.17377 398.58438Q491.36127 399.33438 491.36127 400.61563Q491.36127 402.13126 491.04877 403.05313Q490.7519 403.975 490.1269 404.49063Q489.51752 404.99063 488.5644 404.99063Q487.33002 404.99063 486.61127 404.1Q485.76752 403.0375 485.76752 400.61563ZM486.84564 400.61563Q486.84564 402.725 487.34564 403.42813Q487.84564 404.13126 488.5644 404.13126Q489.29877 404.13126 489.78314 403.42813Q490.28314 402.725 490.28314 400.61563Q490.28314 398.49063 489.78314 397.80313Q489.29877 397.1 488.54877 397.1Q487.83002 397.1 487.39252 397.70938Q486.84564 398.49063 486.84564 400.61563ZM492.76752 400.61563Q492.76752 399.08438 493.08002 398.1625Q493.39252 397.225 494.0019 396.725Q494.6269 396.225 495.5644 396.225Q496.2519 396.225 496.76752 396.50626Q497.29877 396.7875 497.64252 397.31876Q497.98627 397.83438 498.17377 398.58438Q498.36127 399.33438 498.36127 400.61563Q498.36127 402.13126 498.04877 403.05313Q497.7519 403.975 497.1269 404.49063Q496.51752 404.99063 495.5644 404.99063Q494.33002 404.99063 493.61127 404.1Q492.76752 403.0375 492.76752 400.61563ZM493.84564 400.61563Q493.84564 402.725 494.34564 403.42813Q494.84564 404.13126 495.5644 404.13126Q496.29877 404.13126 496.78314 403.42813Q497.28314 402.725 497.28314 400.61563Q497.28314 398.49063 496.78314 397.80313Q496.29877 397.1 495.54877 397.1Q494.83002 397.1 494.39252 397.70938Q493.84564 398.49063 493.84564 400.61563Z" fill-rule="nonzero"/><path fill="#000000" d="M580.9338 400.19376Q580.2775 399.94376 579.9494 399.50626Q579.6369 399.05313 579.6369 398.44376Q579.6369 397.50626 580.3088 396.86563Q580.9963 396.225 582.10565 396.225Q583.23065 396.225 583.91815 396.88126Q584.60565 397.5375 584.60565 398.475Q584.60565 399.06876 584.29315 399.50626Q583.98065 399.94376 583.34 400.19376Q584.1369 400.44376 584.54315 401.02188Q584.9494 401.6 584.9494 402.39688Q584.9494 403.49063 584.16815 404.24063Q583.4025 404.99063 582.1213 404.99063Q580.85565 404.99063 580.0744 404.24063Q579.29315 403.49063 579.29315 402.36563Q579.29315 401.52188 579.715 400.95938Q580.1525 400.39688 580.9338 400.19376ZM580.715 398.39688Q580.715 399.00626 581.10565 399.39688Q581.5119 399.7875 582.1369 399.7875Q582.7463 399.7875 583.1369 399.4125Q583.5275 399.02188 583.5275 398.45938Q583.5275 397.88126 583.1213 397.49063Q582.715 397.08438 582.1213 397.08438Q581.5119 397.08438 581.10565 397.475Q580.715 397.86563 580.715 398.39688ZM580.3869 402.36563Q580.3869 402.81876 580.59 403.24063Q580.8088 403.6625 581.23065 403.89688Q581.6525 404.13126 582.1369 404.13126Q582.8869 404.13126 583.3713 403.64688Q583.8713 403.1625 583.8713 402.4125Q583.8713 401.64688 583.3713 401.14688Q582.8713 400.64688 582.10565 400.64688Q581.35565 400.64688 580.8713 401.14688Q580.3869 401.63126 580.3869 402.36563ZM586.3088 400.61563Q586.3088 399.08438 586.6213 398.1625Q586.9338 397.225 587.54315 396.725Q588.16815 396.225 589.10565 396.225Q589.79315 396.225 590.3088 396.50626Q590.84 396.7875 591.1838 397.31876Q591.5275 397.83438 591.715 398.58438Q591.9025 399.33438 591.9025 400.61563Q591.9025 402.13126 591.59 403.05313Q591.29315 403.975 590.66815 404.49063Q590.0588 404.99063 589.10565 404.99063Q587.8713 404.99063 587.1525 404.1Q586.3088 403.0375 586.3088 400.61563ZM587.3869 400.61563Q587.3869 402.725 587.8869 403.42813Q588.3869 404.13126 589.10565 404.13126Q589.84 404.13126 590.3244 403.42813Q590.8244 402.725 590.8244 400.61563Q590.8244 398.49063 590.3244 397.80313Q589.84 397.1 589.09 397.1Q588.3713 397.1 587.9338 397.70938Q587.3869 398.49063 587.3869 400.61563ZM593.3088 400.61563Q593.3088 399.08438 593.6213 398.1625Q593.9338 397.225 594.54315 396.725Q595.16815 396.225 596.10565 396.225Q596.79315 396.225 597.3088 396.50626Q597.84 396.7875 598.1838 397.31876Q598.5275 397.83438 598.715 398.58438Q598.9025 399.33438 598.9025 400.61563Q598.9025 402.13126 598.59 403.05313Q598.29315 403.975 597.66815 404.49063Q597.0588 404.99063 596.10565 404.99063Q594.8713 404.99063 594.1525 404.1Q593.3088 403.0375 593.3088 400.61563ZM594.3869 400.61563Q594.3869 402.725 594.8869 403.42813Q595.3869 404.13126 596.10565 404.13126Q596.84 404.13126 597.3244 403.42813Q597.8244 402.725 597.8244 400.61563Q597.8244 398.49063 597.3244 397.80313Q596.84 397.1 596.09 397.1Q595.3713 397.1 594.9338 397.70938Q594.3869 398.49063 594.3869 400.61563ZM600.9025 404.85L600.9025 403.64688L602.10565 403.64688L602.10565 404.85L600.9025 404.85ZM603.3088 400.61563Q603.3088 399.08438 603.6213 398.1625Q603.9338 397.225 604.54315 396.725Q605.16815 396.225 606.10565 396.225Q606.79315 396.225 607.3088 396.50626Q607.84 396.7875 608.1838 397.31876Q608.5275 397.83438 608.715 398.58438Q608.9025 399.33438 608.9025 400.61563Q608.9025 402.13126 608.59 403.05313Q608.29315 403.975 607.66815 404.49063Q607.0588 404.99063 606.10565 404.99063Q604.8713 404.99063 604.1525 404.1Q603.3088 403.0375 603.3088 400.61563ZM604.3869 400.61563Q604.3869 402.725 604.8869 403.42813Q605.3869 404.13126 606.10565 404.13126Q606.84 404.13126 607.3244 403.42813Q607.8244 402.725 607.8244 400.61563Q607.8244 398.49063 607.3244 397.80313Q606.84 397.1 606.09 397.1Q605.3713 397.1 604.9338 397.70938Q604.3869 398.49063 604.3869 400.61563ZM610.3088 400.61563Q610.3088 399.08438 610.6213 398.1625Q610.9338 397.225 611.54315 396.725Q612.16815 396.225 613.10565 396.225Q613.79315 396.225 614.3088 396.50626Q614.84 396.7875 615.1838 397.31876Q615.5275 397.83438 615.715 398.58438Q615.9025 399.33438 615.9025 400.61563Q615.9025 402.13126 615.59 403.05313Q615.29315 403.975 614.66815 404.49063Q614.0588 404.99063 613.10565 404.99063Q611.8713 404.99063 611.1525 404.1Q610.3088 403.0375 610.3088 400.61563ZM611.3869 400.61563Q611.3869 402.725 611.8869 403.42813Q612.3869 404.13126 613.10565 404.13126Q613.84 404.13126 614.3244 403.42813Q614.8244 402.725 614.8244 400.61563Q614.8244 398.49063 614.3244 397.80313Q613.84 397.1 613.09 397.1Q612.3713 397.1 611.9338 397.70938Q611.3869 398.49063 611.3869 400.61563ZM617.3088 400.61563Q617.3088 399.08438 617.6213 398.1625Q617.9338 397.225 618.54315 396.725Q619.16815 396.225 620.10565 396.225Q620.79315 396.225 621.3088 396.50626Q621.84 396.7875 622.1838 397.31876Q622.5275 397.83438 622.715 398.58438Q622.9025 399.33438 622.9025 400.61563Q622.9025 402.13126 622.59 403.05313Q622.29315 403.975 621.66815 404.49063Q621.0588 404.99063 620.10565 404.99063Q618.8713 404.99063 618.1525 404.1Q617.3088 403.0375 617.3088 400.61563ZM618.3869 400.61563Q618.3869 402.725 618.8869 403.42813Q619.3869 404.13126 620.10565 404.13126Q620.84 404.13126 621.3244 403.42813Q621.8244 402.725 621.8244 400.61563Q621.8244 398.49063 621.3244 397.80313Q620.84 397.1 620.09 397.1Q619.3713 397.1 618.9338 397.70938Q618.3869 398.49063 618.3869 400.61563Z" fill-rule="nonzero"/><path fill="#757575" d="M24.446875 42.15L24.446875 31.775002L26.025 31.775002L26.025 33.353127Q26.634375 32.24375 27.15 31.900002Q27.665625 31.540627 28.275 31.540627Q29.165625 31.540627 30.0875 32.103127L29.478125 33.74375Q28.8375 33.353127 28.196875 33.353127Q27.61875 33.353127 27.15 33.7125Q26.696875 34.05625 26.49375 34.665627Q26.2125 35.603127 26.2125 36.7125L26.2125 42.15L24.446875 42.15ZM38.24375 40.86875Q37.259377 41.696877 36.353127 42.040627Q35.446877 42.384377 34.415627 42.384377Q32.7125 42.384377 31.790625 41.55625Q30.86875 40.7125 30.86875 39.415627Q30.86875 38.65 31.2125 38.025Q31.571875 37.4 32.134377 37.025Q32.696877 36.634377 33.4 36.43125Q33.915627 36.30625 34.9625 36.165627Q37.0875 35.915627 38.0875 35.571877Q38.103127 35.2125 38.103127 35.103127Q38.103127 34.040627 37.603127 33.5875Q36.93125 32.99375 35.603127 32.99375Q34.353127 32.99375 33.759377 33.43125Q33.18125 33.86875 32.9 34.978127L31.18125 34.74375Q31.415625 33.634377 31.946875 32.9625Q32.478127 32.275 33.49375 31.915627Q34.509377 31.540627 35.853127 31.540627Q37.18125 31.540627 38.009377 31.853127Q38.8375 32.165627 39.228127 32.65Q39.61875 33.11875 39.775 33.8375Q39.86875 34.290627 39.86875 35.4625L39.86875 37.80625Q39.86875 40.259377 39.978127 40.915627Q40.0875 41.55625 40.43125 42.15L38.5875 42.15Q38.321877 41.603127 38.24375 40.86875ZM38.0875 36.946877Q37.134377 37.3375 35.2125 37.603127Q34.134377 37.759377 33.68125 37.9625Q33.24375 38.15 32.99375 38.525Q32.74375 38.9 32.74375 39.36875Q32.74375 40.071877 33.275 40.540627Q33.80625 41.009377 34.8375 41.009377Q35.853127 41.009377 36.634377 40.571877Q37.43125 40.11875 37.80625 39.353127Q38.0875 38.74375 38.0875 37.5875L38.0875 36.946877ZM49.196877 42.15L49.196877 40.8375Q48.2125 42.384377 46.290627 42.384377Q45.05625 42.384377 44.009377 41.696877Q42.978127 41.009377 42.4 39.790627Q41.8375 38.571877 41.8375 36.978127Q41.8375 35.415627 42.353127 34.15Q42.86875 32.884377 43.9 32.2125Q44.946877 31.540627 46.2125 31.540627Q47.15 31.540627 47.884377 31.946877Q48.61875 32.3375 49.0875 32.9625L49.0875 27.837502L50.821877 27.837502L50.821877 42.15L49.196877 42.15ZM43.634377 36.978127Q43.634377 38.9625 44.478127 39.946877Q45.321877 40.93125 46.4625 40.93125Q47.61875 40.93125 48.415627 39.99375Q49.228127 39.05625 49.228127 37.11875Q49.228127 34.99375 48.4 33.99375Q47.5875 32.99375 46.384377 32.99375Q45.2125 32.99375 44.415627 33.9625Q43.634377 34.915627 43.634377 36.978127ZM53.478127 29.853127L53.478127 27.837502L55.24375 27.837502L55.24375 29.853127L53.478127 29.853127ZM53.478127 42.15L53.478127 31.775002L55.24375 31.775002L55.24375 42.15L53.478127 42.15ZM56.290627 42.15L60.0875 36.759377L56.5875 31.775002L58.775 31.775002L60.36875 34.2125Q60.821877 34.9 61.0875 35.36875Q61.525 34.728127 61.884377 34.228127L63.634377 31.775002L65.72813 31.775002L62.15 36.665627L66.00938 42.15L63.853127 42.15L61.7125 38.93125L61.15 38.05625L58.43125 42.15L56.290627 42.15ZM65.85313 46.11875L65.85313 44.853127L77.49375 44.853127L77.49375 46.11875L65.85313 46.11875ZM77.75938 39.05625L79.50938 38.775Q79.65 39.821877 80.32188 40.384377Q80.99375 40.93125 82.19688 40.93125Q83.4 40.93125 83.97813 40.446877Q84.57188 39.946877 84.57188 39.290627Q84.57188 38.696877 84.05625 38.353127Q83.69688 38.11875 82.25938 37.759377Q80.32188 37.259377 79.57188 36.915627Q78.8375 36.55625 78.44688 35.93125Q78.05625 35.290627 78.05625 34.525Q78.05625 33.8375 78.36875 33.24375Q78.69688 32.65 79.24375 32.259377Q79.65 31.962502 80.35313 31.759377Q81.07188 31.540627 81.88438 31.540627Q83.10313 31.540627 84.025 31.900002Q84.94688 32.24375 85.38438 32.853127Q85.82188 33.446877 85.99375 34.446877L84.275 34.68125Q84.15 33.884377 83.5875 33.446877Q83.025 32.99375 82.00938 32.99375Q80.79063 32.99375 80.275 33.4Q79.75938 33.790627 79.75938 34.321877Q79.75938 34.665627 79.97813 34.946877Q80.18125 35.228127 80.65 35.415627Q80.91563 35.509377 82.19688 35.853127Q84.07188 36.353127 84.80625 36.68125Q85.54063 36.99375 85.9625 37.603127Q86.38438 38.196877 86.38438 39.103127Q86.38438 39.978127 85.86875 40.759377Q85.35313 41.540627 84.38438 41.9625Q83.41563 42.384377 82.19688 42.384377Q80.18125 42.384377 79.11875 41.540627Q78.05625 40.696877 77.75938 39.05625ZM87.82188 36.9625Q87.82188 34.0875 89.41563 32.696877Q90.75938 31.540627 92.68125 31.540627Q94.82188 31.540627 96.16563 32.946877Q97.525 34.353127 97.525 36.821877Q97.525 38.821877 96.93125 39.978127Q96.3375 41.11875 95.18125 41.759377Q94.04063 42.384377 92.68125 42.384377Q90.49375 42.384377 89.15 40.99375Q87.82188 39.5875 87.82188 36.9625ZM89.61875 36.9625Q89.61875 38.9625 90.47813 39.946877Q91.35313 40.93125 92.68125 40.93125Q93.99375 40.93125 94.85313 39.946877Q95.72813 38.946877 95.72813 36.9Q95.72813 34.978127 94.85313 33.99375Q93.97813 32.99375 92.68125 32.99375Q91.35313 32.99375 90.47813 33.99375Q89.61875 34.978127 89.61875 36.9625ZM99.44688 42.15L99.44688 31.775002L101.025 31.775002L101.025 33.353127Q101.63438 32.24375 102.15 31.900002Q102.66563 31.540627 103.275 31.540627Q104.16563 31.540627 105.0875 32.103127L104.47813 33.74375Q103.8375 33.353127 103.19688 33.353127Q102.61875 33.353127 102.15 33.7125Q101.69688 34.05625 101.49375 34.665627Q101.2125 35.603127 101.2125 36.7125L101.2125 42.15L99.44688 42.15ZM110.30625 40.571877L110.55625 42.134377Q109.82188 42.290627 109.22813 42.290627Q108.275 42.290627 107.74375 41.99375Q107.22813 41.68125 107.00938 41.196877Q106.79063 40.696877 106.79063 39.11875L106.79063 33.15L105.50938 33.15L105.50938 31.775002L106.79063 31.775002L106.79063 29.212502L108.54063 28.150002L108.54063 31.775002L110.30625 31.775002L110.30625 33.15L108.54063 33.15L108.54063 39.2125Q108.54063 39.9625 108.63438 40.18125Q108.72813 40.384377 108.93125 40.525Q109.15 40.65 109.54063 40.65Q109.82188 40.65 110.30625 40.571877Z" fill-rule="nonzero"/></svg>