<svg version="1.1" viewBox="0.0 0.0 819.0 506.0" fill="none" stroke="none" stroke-linecap="square" stroke-miterlimit="10" width="819" height="506" xmlns:xlink="http://www.w3.org/1999/xlink" xmlns="http://www.w3.org/2000/svg"><path fill="#ffffff" d="M0 0L819.0 0L819.0 506.0L0 506.0L0 0Z" fill-rule="nonzero"/><path stroke="#cccccc" stroke-width="1.0" stroke-linecap="butt" d="M259.5 73.5L259.5 428.5" fill-rule="nonzero"/><path stroke="#cccccc" stroke-width="1.0" stroke-linecap="butt" d="M393.5 73.5L393.5 428.5" fill-rule="nonzero"/><path stroke="#cccccc" stroke-width="1.0" stroke-linecap="butt" d="M526.5 73.5L526.5 428.5" fill-rule="nonzero"/><path stroke="#cccccc" stroke-width="1.0" stroke-linecap="butt" d="M660.5 73.5L660.5 428.5" fill-rule="nonzero"/><path stroke="#cccccc" stroke-width="1.0" stroke-linecap="butt" d="M793.5 73.5L793.5 428.5" fill-rule="nonzero"/><path stroke="#333333" stroke-width="1.0" stroke-linecap="butt" d="M126.5 428.5L793.5 428.5" fill-rule="nonzero"/><path stroke="#cccccc" stroke-width="1.0" stroke-linecap="butt" d="M126.5 310.5L793.5 310.5" fill-rule="nonzero"/><path stroke="#cccccc" stroke-width="1.0" stroke-linecap="butt" d="M126.5 191.5L793.5 191.5" fill-rule="nonzero"/><path stroke="#cccccc" stroke-width="1.0" stroke-linecap="butt" d="M126.5 73.5L793.5 73.5" fill-rule="nonzero"/><clipPath id="id_0"><path d="M126.3 73.166664L793.7 73.166664L793.7 428.7L126.3 428.7L126.3 73.166664Z" clip-rule="nonzero"/></clipPath><path stroke="#4285f4" stroke-width="2.0" stroke-linecap="butt" clip-path="url(#id_0)" d="M126.3 428.7C126.3 428.7 126.31335 428.7 126.32002 428.7C126.3267 428.7 126.34227 428.69998 126.35339 428.69998C126.36452 428.69998 126.37564 428.69998 126.386765 428.69998C126.39789 428.69998 126.40901 428.69998 126.420135 428.69998C126.43126 428.69998 126.55362 428.69998 126.62036 428.69992C126.6871 428.69983 126.84283 428.69937 126.95406 428.69925C127.0653 428.69913 127.17654 428.69925 127.28777 428.69916C127.39901 428.69904 127.51025 428.69894 127.621475 428.69864C127.73271 428.69836 128.9563 428.6946 129.62372 428.6911C130.29114 428.6876 131.84843 428.67883 132.96078 428.6686C134.07314 428.65836 135.1855 428.6453 136.29785 428.62973C137.4102 428.61417 138.52257 428.6024 139.63492 428.57523C140.74727 428.54807 152.98318 428.26663 159.65732 427.9245C166.33145 427.5824 181.90443 426.62863 193.02798 425.5878C204.15154 424.54697 215.2751 423.23993 226.39865 421.6795C237.52222 420.11908 248.64577 418.94815 259.76932 416.22528C270.89288 413.50244 393.25198 385.33542 459.99332 350.92804C526.7347 316.52066 793.7 115.68307 793.7 115.68307" fill-rule="nonzero"/><path fill="#000000" fill-opacity="0.0" clip-path="url(#id_0)" d="M129.3 428.7C129.3 430.35684 127.956856 431.7 126.3 431.7C124.64314 431.7 123.3 430.35684 123.3 428.7C123.3 427.04315 124.64314 425.7 126.3 425.7C127.956856 425.7 129.3 427.04315 129.3 428.7Z" fill-rule="nonzero"/><path fill="#000000" fill-opacity="0.0" clip-path="url(#id_0)" d="M129.32002 428.7C129.32002 430.35684 127.976875 431.7 126.32002 431.7C124.66317 431.7 123.32002 430.35684 123.32002 428.7C123.32002 427.04315 124.66317 425.7 126.32002 425.7C127.976875 425.7 129.32002 427.04315 129.32002 428.7Z" fill-rule="nonzero"/><path fill="#000000" fill-opacity="0.0" clip-path="url(#id_0)" d="M129.3534 428.69998C129.3534 430.35684 128.01025 431.69998 126.35339 431.69998C124.69654 431.69998 123.35339 430.35684 123.35339 428.69998C123.35339 427.04315 124.69654 425.69998 126.35339 425.69998C128.01025 425.69998 129.3534 427.04315 129.3534 428.69998Z" fill-rule="nonzero"/><path fill="#000000" fill-opacity="0.0" clip-path="url(#id_0)" d="M129.38676 428.69998C129.38676 430.35684 128.04362 431.69998 126.386765 431.69998C124.72991 431.69998 123.386765 430.35684 123.386765 428.69998C123.386765 427.04312 124.72991 425.69998 126.386765 425.69998C128.04362 425.69998 129.38676 427.04312 129.38676 428.69998Z" fill-rule="nonzero"/><path fill="#000000" fill-opacity="0.0" clip-path="url(#id_0)" d="M129.42014 428.69998C129.42014 430.35684 128.077 431.69998 126.420135 431.69998C124.76328 431.69998 123.420135 430.35684 123.420135 428.69998C123.420135 427.04312 124.76328 425.69998 126.420135 425.69998C128.077 425.69998 129.42014 427.04312 129.42014 428.69998Z" fill-rule="nonzero"/><path fill="#000000" fill-opacity="0.0" clip-path="url(#id_0)" d="M129.62036 428.69992C129.62036 430.35675 128.2772 431.69992 126.62036 431.69992C124.9635 431.69992 123.62036 430.35675 123.62036 428.69992C123.62036 427.04306 124.9635 425.69992 126.62036 425.69992C128.2772 425.69992 129.62036 427.04306 129.62036 428.69992Z" fill-rule="nonzero"/><path fill="#000000" fill-opacity="0.0" clip-path="url(#id_0)" d="M129.95407 428.69925C129.95407 430.3561 128.61092 431.69925 126.95406 431.69925C125.29721 431.69925 123.95406 430.3561 123.95406 428.69925C123.95406 427.0424 125.29721 425.69925 126.95406 425.69925C128.61092 425.69925 129.95407 427.0424 129.95407 428.69925Z" fill-rule="nonzero"/><path fill="#000000" fill-opacity="0.0" clip-path="url(#id_0)" d="M130.28777 428.69916C130.28777 430.356 128.94463 431.69916 127.28777 431.69916C125.63092 431.69916 124.28777 430.356 124.28777 428.69916C124.28777 427.0423 125.63092 425.69916 127.28777 425.69916C128.94463 425.69916 130.28777 427.0423 130.28777 428.69916Z" fill-rule="nonzero"/><path fill="#000000" fill-opacity="0.0" clip-path="url(#id_0)" d="M130.62148 428.69864C130.62148 430.3555 129.27834 431.69864 127.621475 431.69864C125.96462 431.69864 124.621475 430.3555 124.621475 428.69864C124.621475 427.0418 125.96462 425.69864 127.621475 425.69864C129.27834 425.69864 130.62148 427.0418 130.62148 428.69864Z" fill-rule="nonzero"/><path fill="#000000" fill-opacity="0.0" clip-path="url(#id_0)" d="M132.62372 428.6911C132.62372 430.34796 131.28058 431.6911 129.62372 431.6911C127.966866 431.6911 126.62372 430.34796 126.62372 428.6911C126.62372 427.03424 127.966866 425.6911 129.62372 425.6911C131.28058 425.6911 132.62372 427.03424 132.62372 428.6911Z" fill-rule="nonzero"/><path fill="#000000" fill-opacity="0.0" clip-path="url(#id_0)" d="M135.96078 428.6686C135.96078 430.32544 134.61765 431.6686 132.96078 431.6686C131.30392 431.6686 129.96078 430.32544 129.96078 428.6686C129.96078 427.01175 131.30392 425.6686 132.96078 425.6686C134.61765 425.6686 135.96078 427.01175 135.96078 428.6686Z" fill-rule="nonzero"/><path fill="#000000" fill-opacity="0.0" clip-path="url(#id_0)" d="M139.29785 428.62973C139.29785 430.2866 137.95471 431.62973 136.29785 431.62973C134.64099 431.62973 133.29785 430.2866 133.29785 428.62973C133.29785 426.97287 134.64099 425.62973 136.29785 425.62973C137.95471 425.62973 139.29785 426.97287 139.29785 428.62973Z" fill-rule="nonzero"/><path fill="#000000" fill-opacity="0.0" clip-path="url(#id_0)" d="M142.63492 428.57523C142.63492 430.2321 141.29178 431.57523 139.63492 431.57523C137.97806 431.57523 136.63492 430.2321 136.63492 428.57523C136.63492 426.91837 137.97806 425.57523 139.63492 425.57523C141.29178 425.57523 142.63492 426.91837 142.63492 428.57523Z" fill-rule="nonzero"/><path fill="#000000" fill-opacity="0.0" clip-path="url(#id_0)" d="M162.65732 427.9245C162.65732 429.58136 161.31418 430.9245 159.65732 430.9245C158.00046 430.9245 156.65732 429.58136 156.65732 427.9245C156.65732 426.26767 158.00046 424.9245 159.65732 424.9245C161.31418 424.9245 162.65732 426.26767 162.65732 427.9245Z" fill-rule="nonzero"/><path fill="#000000" fill-opacity="0.0" clip-path="url(#id_0)" d="M196.02798 425.5878C196.02798 427.24466 194.68484 428.5878 193.02798 428.5878C191.37114 428.5878 190.02798 427.24466 190.02798 425.5878C190.02798 423.93097 191.37114 422.5878 193.02798 422.5878C194.68484 422.5878 196.02798 423.93097 196.02798 425.5878Z" fill-rule="nonzero"/><path fill="#000000" fill-opacity="0.0" clip-path="url(#id_0)" d="M229.39865 421.6795C229.39865 423.33636 228.05551 424.6795 226.39865 424.6795C224.7418 424.6795 223.39865 423.33636 223.39865 421.6795C223.39865 420.02264 224.7418 418.6795 226.39865 418.6795C228.05551 418.6795 229.39865 420.02264 229.39865 421.6795Z" fill-rule="nonzero"/><path fill="#000000" fill-opacity="0.0" clip-path="url(#id_0)" d="M262.76932 416.22528C262.76932 417.88214 261.42618 419.22528 259.76932 419.22528C258.11246 419.22528 256.76932 417.88214 256.76932 416.22528C256.76932 414.56845 258.11246 413.22528 259.76932 413.22528C261.42618 413.22528 262.76932 414.56845 262.76932 416.22528Z" fill-rule="nonzero"/><path fill="#000000" fill-opacity="0.0" clip-path="url(#id_0)" d="M462.99332 350.92804C462.99332 352.5849 461.65018 353.92804 459.99332 353.92804C458.3365 353.92804 456.99332 352.5849 456.99332 350.92804C456.99332 349.27118 458.3365 347.92804 459.99332 347.92804C461.65018 347.92804 462.99332 349.27118 462.99332 350.92804Z" fill-rule="nonzero"/><path fill="#000000" fill-opacity="0.0" clip-path="url(#id_0)" d="M796.7 115.68307C796.7 117.33992 795.3569 118.68307 793.7 118.68307C792.04315 118.68307 790.7 117.33992 790.7 115.68307C790.7 114.026215 792.04315 112.68307 793.7 112.68307C795.3569 112.68307 796.7 114.026215 796.7 115.68307Z" fill-rule="nonzero"/><path fill="#000000" d="M457.29688 477.7L457.29688 471.48126L458.23438 471.48126L458.23438 472.35626Q458.92188 471.34064 460.21875 471.34064Q460.78125 471.34064 461.25 471.54376Q461.73438 471.7469 461.96875 472.075Q462.20312 472.40314 462.29688 472.84064Q462.34375 473.1375 462.34375 473.8719L462.34375 477.7L461.29688 477.7L461.29688 473.91876Q461.29688 473.2625 461.17188 472.95Q461.04688 472.6375 460.73438 472.45Q460.42188 472.2469 460.0 472.2469Q459.32812 472.2469 458.82812 472.6844Q458.34375 473.10626 458.34375 474.29376L458.34375 477.7L457.29688 477.7Z" fill-rule="nonzero"/><path fill="#000000" d="M36.30001 274.63644L30.081263 274.63644L30.081263 273.69894L30.956263 273.69894Q30.487513 273.40207 30.221888 272.9177Q29.940638 272.43332 29.940638 271.80832Q29.940638 271.12082 30.221888 270.68332Q30.503138 270.2302 31.018763 270.05832Q29.940638 269.30832 29.940638 268.13644Q29.940638 267.19894 30.456263 266.71457Q30.956263 266.21457 32.034386 266.21457L36.30001 266.21457L36.30001 267.26144L32.378136 267.26144Q31.753138 267.26144 31.471888 267.37082Q31.190638 267.46457 31.018763 267.7302Q30.846888 267.99582 30.846888 268.37082Q30.846888 269.02707 31.284388 269.46457Q31.721888 269.88644 32.690636 269.88644L36.30001 269.88644L36.30001 270.94894L32.253136 270.94894Q31.550013 270.94894 31.206263 271.21457Q30.846888 271.46457 30.846888 272.0427Q30.846888 272.49582 31.081263 272.87082Q31.315638 273.24582 31.768763 273.4177Q32.221886 273.58957 33.065636 273.58957L36.30001 273.58957L36.30001 274.63644ZM28.925013 264.63644L27.706263 264.63644L27.706263 263.57394L28.925013 263.57394L28.925013 264.63644ZM36.30001 264.63644L30.081263 264.63644L30.081263 263.57394L36.30001 263.57394L36.30001 264.63644ZM34.01876 257.57394L34.159386 256.5427Q35.221886 256.71457 35.83126 257.4177Q36.440636 258.12082 36.440636 259.13644Q36.440636 260.4177 35.61251 261.19894Q34.76876 261.96457 33.20626 261.96457Q32.20626 261.96457 31.456263 261.63644Q30.690638 261.2927 30.315638 260.62082Q29.940638 259.93332 29.940638 259.12082Q29.940638 258.12082 30.456263 257.4802Q30.956263 256.82394 31.909388 256.63644L32.065636 257.6677Q31.440638 257.80832 31.128138 258.18332Q30.800013 258.55832 30.800013 259.08957Q30.800013 259.88644 31.378138 260.38644Q31.940638 260.88644 33.17501 260.88644Q34.440636 260.88644 35.003136 260.40207Q35.565636 259.9177 35.565636 259.15207Q35.565636 258.52707 35.190636 258.12082Q34.815636 257.69894 34.01876 257.57394ZM36.30001 255.65208L30.081263 255.65208L30.081263 254.69896L31.018763 254.69896Q30.362513 254.33958 30.159388 254.04271Q29.940638 253.73021 29.940638 253.35521Q29.940638 252.82396 30.268763 252.27708L31.253138 252.63646Q31.018763 253.02708 31.018763 253.40208Q31.018763 253.76146 31.237513 254.04271Q31.440638 254.30833 31.815638 254.41771Q32.378136 254.60521 33.034386 254.60521L36.30001 254.60521L36.30001 255.65208ZM33.190636 252.02708Q31.456263 252.02708 30.628138 251.07396Q29.940638 250.27708 29.940638 249.12083Q29.940638 247.83958 30.784388 247.02708Q31.612513 246.19896 33.096886 246.19896Q34.30001 246.19896 34.98751 246.55833Q35.67501 246.91771 36.065636 247.62083Q36.440636 248.30833 36.440636 249.12083Q36.440636 250.41771 35.61251 251.23021Q34.76876 252.02708 33.190636 252.02708ZM33.190636 250.94896Q34.378136 250.94896 34.971886 250.43333Q35.565636 249.90208 35.565636 249.12083Q35.565636 248.32396 34.971886 247.80833Q34.378136 247.29271 33.159386 247.29271Q32.003136 247.29271 31.409388 247.82396Q30.815638 248.33958 30.815638 249.12083Q30.815638 249.90208 31.409388 250.43333Q31.987513 250.94896 33.190636 250.94896ZM34.440636 245.05833L34.284386 244.02708Q34.909386 243.93333 35.23751 243.54271Q35.565636 243.13646 35.565636 242.40208Q35.565636 241.68333 35.284386 241.33958Q34.98751 240.98021 34.58126 240.98021Q34.221886 240.98021 34.01876 241.29271Q33.878136 241.51146 33.659386 242.37083Q33.36251 243.52708 33.159386 243.98021Q32.940636 244.41771 32.565636 244.65208Q32.190636 244.88646 31.721888 244.88646Q31.315638 244.88646 30.956263 244.69896Q30.596888 244.51146 30.362513 244.18333Q30.190638 243.93333 30.065638 243.51146Q29.940638 243.08958 29.940638 242.58958Q29.940638 241.87083 30.159388 241.32396Q30.362513 240.76146 30.721888 240.49583Q31.081263 240.23021 31.675013 240.13646L31.815638 241.16771Q31.346888 241.23021 31.081263 241.57396Q30.800013 241.90208 30.800013 242.52708Q30.800013 243.24583 31.050013 243.55833Q31.284388 243.87083 31.612513 243.87083Q31.815638 243.87083 31.971888 243.74583Q32.14376 243.60521 32.253136 243.33958Q32.315636 243.18333 32.51876 242.40208Q32.83126 241.27708 33.01876 240.83958Q33.20626 240.40208 33.565636 240.15208Q33.92501 239.90208 34.471886 239.90208Q35.003136 239.90208 35.471886 240.21458Q35.92501 240.51146 36.190636 241.08958Q36.440636 241.66771 36.440636 242.40208Q36.440636 243.62083 35.940636 244.26146Q35.42501 244.88646 34.440636 245.05833Z" fill-rule="nonzero"/><path fill="#000000" d="M113.8 428.46564Q113.8 426.9344 114.1125 426.0125Q114.425 425.075 115.03438 424.575Q115.65938 424.075 116.59688 424.075Q117.28438 424.075 117.8 424.35626Q118.33125 424.6375 118.675 425.16876Q119.01875 425.6844 119.20625 426.4344Q119.39375 427.1844 119.39375 428.46564Q119.39375 429.98126 119.08125 430.90314Q118.78438 431.825 118.15938 432.34064Q117.55 432.84064 116.59688 432.84064Q115.3625 432.84064 114.64375 431.95Q113.8 430.8875 113.8 428.46564ZM114.87813 428.46564Q114.87813 430.575 115.37813 431.27814Q115.87813 431.98126 116.59688 431.98126Q117.33125 431.98126 117.81563 431.27814Q118.31563 430.575 118.31563 428.46564Q118.31563 426.34064 117.81563 425.65314Q117.33125 424.95 116.58125 424.95Q115.8625 424.95 115.425 425.5594Q114.87813 426.34064 114.87813 428.46564Z" fill-rule="nonzero"/><path fill="#000000" d="M61.76875 314.1889L60.721874 314.1889L60.721874 307.47015Q60.33125 307.82953 59.70625 308.20453Q59.096874 308.5639 58.6125 308.73578L58.6125 307.72015Q59.4875 307.29828 60.14375 306.72015Q60.815624 306.1264 61.096874 305.5639L61.76875 305.5639L61.76875 314.1889ZM64.8 309.95453Q64.8 308.42328 65.1125 307.5014Q65.425 306.5639 66.03438 306.0639Q66.65938 305.5639 67.59688 305.5639Q68.28438 305.5639 68.8 305.84515Q69.33125 306.1264 69.675 306.65765Q70.01875 307.17328 70.20625 307.92328Q70.39375 308.67328 70.39375 309.95453Q70.39375 311.47015 70.08125 312.39203Q69.78438 313.3139 69.15938 313.82953Q68.55 314.32953 67.59688 314.32953Q66.3625 314.32953 65.64375 313.4389Q64.8 312.3764 64.8 309.95453ZM65.87813 309.95453Q65.87813 312.0639 66.37813 312.76703Q66.87813 313.47015 67.59688 313.47015Q68.33125 313.47015 68.81563 312.76703Q69.31563 312.0639 69.31563 309.95453Q69.31563 307.82953 68.81563 307.14203Q68.33125 306.4389 67.58125 306.4389Q66.8625 306.4389 66.425 307.04828Q65.87813 307.82953 65.87813 309.95453ZM71.8 309.95453Q71.8 308.42328 72.1125 307.5014Q72.425 306.5639 73.03438 306.0639Q73.65938 305.5639 74.59688 305.5639Q75.28438 305.5639 75.8 305.84515Q76.33125 306.1264 76.675 306.65765Q77.01875 307.17328 77.20625 307.92328Q77.39375 308.67328 77.39375 309.95453Q77.39375 311.47015 77.08125 312.39203Q76.78438 313.3139 76.15938 313.82953Q75.55 314.32953 74.59688 314.32953Q73.3625 314.32953 72.64375 313.4389Q71.8 312.3764 71.8 309.95453ZM72.87813 309.95453Q72.87813 312.0639 73.37813 312.76703Q73.87813 313.47015 74.59688 313.47015Q75.33125 313.47015 75.81563 312.76703Q76.31563 312.0639 76.31563 309.95453Q76.31563 307.82953 75.81563 307.14203Q75.33125 306.4389 74.58125 306.4389Q73.8625 306.4389 73.425 307.04828Q72.87813 307.82953 72.87813 309.95453ZM78.8 309.95453Q78.8 308.42328 79.1125 307.5014Q79.425 306.5639 80.03438 306.0639Q80.65938 305.5639 81.59688 305.5639Q82.28438 305.5639 82.8 305.84515Q83.33125 306.1264 83.675 306.65765Q84.01875 307.17328 84.20625 307.92328Q84.39375 308.67328 84.39375 309.95453Q84.39375 311.47015 84.08125 312.39203Q83.78438 313.3139 83.15938 313.82953Q82.55 314.32953 81.59688 314.32953Q80.3625 314.32953 79.64375 313.4389Q78.8 312.3764 78.8 309.95453ZM79.87813 309.95453Q79.87813 312.0639 80.37813 312.76703Q80.87813 313.47015 81.59688 313.47015Q82.33125 313.47015 82.81563 312.76703Q83.31563 312.0639 83.31563 309.95453Q83.31563 307.82953 82.81563 307.14203Q82.33125 306.4389 81.58125 306.4389Q80.8625 306.4389 80.425 307.04828Q79.87813 307.82953 79.87813 309.95453ZM85.8 309.95453Q85.8 308.42328 86.1125 307.5014Q86.425 306.5639 87.03438 306.0639Q87.65938 305.5639 88.59688 305.5639Q89.28438 305.5639 89.8 305.84515Q90.33125 306.1264 90.675 306.65765Q91.01875 307.17328 91.20625 307.92328Q91.39375 308.67328 91.39375 309.95453Q91.39375 311.47015 91.08125 312.39203Q90.78438 313.3139 90.15938 313.82953Q89.55 314.32953 88.59688 314.32953Q87.3625 314.32953 86.64375 313.4389Q85.8 312.3764 85.8 309.95453ZM86.87813 309.95453Q86.87813 312.0639 87.37813 312.76703Q87.87813 313.47015 88.59688 313.47015Q89.33125 313.47015 89.81563 312.76703Q90.31563 312.0639 90.31563 309.95453Q90.31563 307.82953 89.81563 307.14203Q89.33125 306.4389 88.58125 306.4389Q87.8625 306.4389 87.425 307.04828Q86.87813 307.82953 86.87813 309.95453ZM92.8 309.95453Q92.8 308.42328 93.1125 307.5014Q93.425 306.5639 94.03438 306.0639Q94.65938 305.5639 95.59688 305.5639Q96.28438 305.5639 96.8 305.84515Q97.33125 306.1264 97.675 306.65765Q98.01875 307.17328 98.20625 307.92328Q98.39375 308.67328 98.39375 309.95453Q98.39375 311.47015 98.08125 312.39203Q97.78438 313.3139 97.15938 313.82953Q96.55 314.32953 95.59688 314.32953Q94.3625 314.32953 93.64375 313.4389Q92.8 312.3764 92.8 309.95453ZM93.87813 309.95453Q93.87813 312.0639 94.37813 312.76703Q94.87813 313.47015 95.59688 313.47015Q96.33125 313.47015 96.81563 312.76703Q97.31563 312.0639 97.31563 309.95453Q97.31563 307.82953 96.81563 307.14203Q96.33125 306.4389 95.58125 306.4389Q94.8625 306.4389 94.425 307.04828Q93.87813 307.82953 93.87813 309.95453ZM99.8 309.95453Q99.8 308.42328 100.1125 307.5014Q100.425 306.5639 101.03438 306.0639Q101.65938 305.5639 102.59688 305.5639Q103.28438 305.5639 103.8 305.84515Q104.33125 306.1264 104.675 306.65765Q105.01875 307.17328 105.20625 307.92328Q105.39375 308.67328 105.39375 309.95453Q105.39375 311.47015 105.08125 312.39203Q104.78438 313.3139 104.15938 313.82953Q103.55 314.32953 102.59688 314.32953Q101.3625 314.32953 100.64375 313.4389Q99.8 312.3764 99.8 309.95453ZM100.87813 309.95453Q100.87813 312.0639 101.37813 312.76703Q101.87813 313.47015 102.59688 313.47015Q103.33125 313.47015 103.81563 312.76703Q104.31563 312.0639 104.31563 309.95453Q104.31563 307.82953 103.81563 307.14203Q103.33125 306.4389 102.58125 306.4389Q101.8625 306.4389 101.425 307.04828Q100.87813 307.82953 100.87813 309.95453ZM106.8 309.95453Q106.8 308.42328 107.1125 307.5014Q107.425 306.5639 108.03438 306.0639Q108.65938 305.5639 109.59688 305.5639Q110.28438 305.5639 110.8 305.84515Q111.33125 306.1264 111.675 306.65765Q112.01875 307.17328 112.20625 307.92328Q112.39375 308.67328 112.39375 309.95453Q112.39375 311.47015 112.08125 312.39203Q111.78438 313.3139 111.15938 313.82953Q110.55 314.32953 109.59688 314.32953Q108.3625 314.32953 107.64375 313.4389Q106.8 312.3764 106.8 309.95453ZM107.87813 309.95453Q107.87813 312.0639 108.37813 312.76703Q108.87813 313.47015 109.59688 313.47015Q110.33125 313.47015 110.81563 312.76703Q111.31563 312.0639 111.31563 309.95453Q111.31563 307.82953 110.81563 307.14203Q110.33125 306.4389 109.58125 306.4389Q108.8625 306.4389 108.425 307.04828Q107.87813 307.82953 107.87813 309.95453ZM113.8 309.95453Q113.8 308.42328 114.1125 307.5014Q114.425 306.5639 115.03438 306.0639Q115.65938 305.5639 116.59688 305.5639Q117.28438 305.5639 117.8 305.84515Q118.33125 306.1264 118.675 306.65765Q119.01875 307.17328 119.20625 307.92328Q119.39375 308.67328 119.39375 309.95453Q119.39375 311.47015 119.08125 312.39203Q118.78438 313.3139 118.15938 313.82953Q117.55 314.32953 116.59688 314.32953Q115.3625 314.32953 114.64375 313.4389Q113.8 312.3764 113.8 309.95453ZM114.87813 309.95453Q114.87813 312.0639 115.37813 312.76703Q115.87813 313.47015 116.59688 313.47015Q117.33125 313.47015 117.81563 312.76703Q118.31563 312.0639 118.31563 309.95453Q118.31563 307.82953 117.81563 307.14203Q117.33125 306.4389 116.58125 306.4389Q115.8625 306.4389 115.425 307.04828Q114.87813 307.82953 114.87813 309.95453Z" fill-rule="nonzero"/><path fill="#000000" d="M63.346874 194.66216L63.346874 195.67778L57.659374 195.67778Q57.659374 195.30278 57.784374 194.9434Q58.003124 194.36528 58.471874 193.80278Q58.95625 193.24028 59.8625 192.5059Q61.26875 191.34966 61.753124 190.67778Q62.253124 190.0059 62.253124 189.41216Q62.253124 188.78716 61.8 188.36528Q61.346874 187.92778 60.628124 187.92778Q59.8625 187.92778 59.409374 188.3809Q58.95625 188.83403 58.940624 189.64653L57.8625 189.53716Q57.971874 188.3184 58.690624 187.6934Q59.425 187.05278 60.659374 187.05278Q61.89375 187.05278 62.6125 187.74028Q63.33125 188.42778 63.33125 189.4434Q63.33125 189.95903 63.1125 190.45903Q62.909374 190.9434 62.409374 191.5059Q61.925 192.05278 60.8 193.0059Q59.846874 193.80278 59.565624 194.09966Q59.3 194.3809 59.128124 194.66216L63.346874 194.66216ZM64.8 191.4434Q64.8 189.91216 65.1125 188.99028Q65.425 188.05278 66.03438 187.55278Q66.65938 187.05278 67.59688 187.05278Q68.28438 187.05278 68.8 187.33403Q69.33125 187.61528 69.675 188.14653Q70.01875 188.66216 70.20625 189.41216Q70.39375 190.16216 70.39375 191.4434Q70.39375 192.95903 70.08125 193.8809Q69.78438 194.80278 69.15938 195.3184Q68.55 195.8184 67.59688 195.8184Q66.3625 195.8184 65.64375 194.92778Q64.8 193.86528 64.8 191.4434ZM65.87813 191.4434Q65.87813 193.55278 66.37813 194.2559Q66.87813 194.95903 67.59688 194.95903Q68.33125 194.95903 68.81563 194.2559Q69.31563 193.55278 69.31563 191.4434Q69.31563 189.3184 68.81563 188.6309Q68.33125 187.92778 67.58125 187.92778Q66.8625 187.92778 66.425 188.53716Q65.87813 189.3184 65.87813 191.4434ZM71.8 191.4434Q71.8 189.91216 72.1125 188.99028Q72.425 188.05278 73.03438 187.55278Q73.65938 187.05278 74.59688 187.05278Q75.28438 187.05278 75.8 187.33403Q76.33125 187.61528 76.675 188.14653Q77.01875 188.66216 77.20625 189.41216Q77.39375 190.16216 77.39375 191.4434Q77.39375 192.95903 77.08125 193.8809Q76.78438 194.80278 76.15938 195.3184Q75.55 195.8184 74.59688 195.8184Q73.3625 195.8184 72.64375 194.92778Q71.8 193.86528 71.8 191.4434ZM72.87813 191.4434Q72.87813 193.55278 73.37813 194.2559Q73.87813 194.95903 74.59688 194.95903Q75.33125 194.95903 75.81563 194.2559Q76.31563 193.55278 76.31563 191.4434Q76.31563 189.3184 75.81563 188.6309Q75.33125 187.92778 74.58125 187.92778Q73.8625 187.92778 73.425 188.53716Q72.87813 189.3184 72.87813 191.4434ZM78.8 191.4434Q78.8 189.91216 79.1125 188.99028Q79.425 188.05278 80.03438 187.55278Q80.65938 187.05278 81.59688 187.05278Q82.28438 187.05278 82.8 187.33403Q83.33125 187.61528 83.675 188.14653Q84.01875 188.66216 84.20625 189.41216Q84.39375 190.16216 84.39375 191.4434Q84.39375 192.95903 84.08125 193.8809Q83.78438 194.80278 83.15938 195.3184Q82.55 195.8184 81.59688 195.8184Q80.3625 195.8184 79.64375 194.92778Q78.8 193.86528 78.8 191.4434ZM79.87813 191.4434Q79.87813 193.55278 80.37813 194.2559Q80.87813 194.95903 81.59688 194.95903Q82.33125 194.95903 82.81563 194.2559Q83.31563 193.55278 83.31563 191.4434Q83.31563 189.3184 82.81563 188.6309Q82.33125 187.92778 81.58125 187.92778Q80.8625 187.92778 80.425 188.53716Q79.87813 189.3184 79.87813 191.4434ZM85.8 191.4434Q85.8 189.91216 86.1125 188.99028Q86.425 188.05278 87.03438 187.55278Q87.65938 187.05278 88.59688 187.05278Q89.28438 187.05278 89.8 187.33403Q90.33125 187.61528 90.675 188.14653Q91.01875 188.66216 91.20625 189.41216Q91.39375 190.16216 91.39375 191.4434Q91.39375 192.95903 91.08125 193.8809Q90.78438 194.80278 90.15938 195.3184Q89.55 195.8184 88.59688 195.8184Q87.3625 195.8184 86.64375 194.92778Q85.8 193.86528 85.8 191.4434ZM86.87813 191.4434Q86.87813 193.55278 87.37813 194.2559Q87.87813 194.95903 88.59688 194.95903Q89.33125 194.95903 89.81563 194.2559Q90.31563 193.55278 90.31563 191.4434Q90.31563 189.3184 89.81563 188.6309Q89.33125 187.92778 88.58125 187.92778Q87.8625 187.92778 87.425 188.53716Q86.87813 189.3184 86.87813 191.4434ZM92.8 191.4434Q92.8 189.91216 93.1125 188.99028Q93.425 188.05278 94.03438 187.55278Q94.65938 187.05278 95.59688 187.05278Q96.28438 187.05278 96.8 187.33403Q97.33125 187.61528 97.675 188.14653Q98.01875 188.66216 98.20625 189.41216Q98.39375 190.16216 98.39375 191.4434Q98.39375 192.95903 98.08125 193.8809Q97.78438 194.80278 97.15938 195.3184Q96.55 195.8184 95.59688 195.8184Q94.3625 195.8184 93.64375 194.92778Q92.8 193.86528 92.8 191.4434ZM93.87813 191.4434Q93.87813 193.55278 94.37813 194.2559Q94.87813 194.95903 95.59688 194.95903Q96.33125 194.95903 96.81563 194.2559Q97.31563 193.55278 97.31563 191.4434Q97.31563 189.3184 96.81563 188.6309Q96.33125 187.92778 95.58125 187.92778Q94.8625 187.92778 94.425 188.53716Q93.87813 189.3184 93.87813 191.4434ZM99.8 191.4434Q99.8 189.91216 100.1125 188.99028Q100.425 188.05278 101.03438 187.55278Q101.65938 187.05278 102.59688 187.05278Q103.28438 187.05278 103.8 187.33403Q104.33125 187.61528 104.675 188.14653Q105.01875 188.66216 105.20625 189.41216Q105.39375 190.16216 105.39375 191.4434Q105.39375 192.95903 105.08125 193.8809Q104.78438 194.80278 104.15938 195.3184Q103.55 195.8184 102.59688 195.8184Q101.3625 195.8184 100.64375 194.92778Q99.8 193.86528 99.8 191.4434ZM100.87813 191.4434Q100.87813 193.55278 101.37813 194.2559Q101.87813 194.95903 102.59688 194.95903Q103.33125 194.95903 103.81563 194.2559Q104.31563 193.55278 104.31563 191.4434Q104.31563 189.3184 103.81563 188.6309Q103.33125 187.92778 102.58125 187.92778Q101.8625 187.92778 101.425 188.53716Q100.87813 189.3184 100.87813 191.4434ZM106.8 191.4434Q106.8 189.91216 107.1125 188.99028Q107.425 188.05278 108.03438 187.55278Q108.65938 187.05278 109.59688 187.05278Q110.28438 187.05278 110.8 187.33403Q111.33125 187.61528 111.675 188.14653Q112.01875 188.66216 112.20625 189.41216Q112.39375 190.16216 112.39375 191.4434Q112.39375 192.95903 112.08125 193.8809Q111.78438 194.80278 111.15938 195.3184Q110.55 195.8184 109.59688 195.8184Q108.3625 195.8184 107.64375 194.92778Q106.8 193.86528 106.8 191.4434ZM107.87813 191.4434Q107.87813 193.55278 108.37813 194.2559Q108.87813 194.95903 109.59688 194.95903Q110.33125 194.95903 110.81563 194.2559Q111.31563 193.55278 111.31563 191.4434Q111.31563 189.3184 110.81563 188.6309Q110.33125 187.92778 109.58125 187.92778Q108.8625 187.92778 108.425 188.53716Q107.87813 189.3184 107.87813 191.4434ZM113.8 191.4434Q113.8 189.91216 114.1125 188.99028Q114.425 188.05278 115.03438 187.55278Q115.65938 187.05278 116.59688 187.05278Q117.28438 187.05278 117.8 187.33403Q118.33125 187.61528 118.675 188.14653Q119.01875 188.66216 119.20625 189.41216Q119.39375 190.16216 119.39375 191.4434Q119.39375 192.95903 119.08125 193.8809Q118.78438 194.80278 118.15938 195.3184Q117.55 195.8184 116.59688 195.8184Q115.3625 195.8184 114.64375 194.92778Q113.8 193.86528 113.8 191.4434ZM114.87813 191.4434Q114.87813 193.55278 115.37813 194.2559Q115.87813 194.95903 116.59688 194.95903Q117.33125 194.95903 117.81563 194.2559Q118.31563 193.55278 118.31563 191.4434Q118.31563 189.3184 117.81563 188.6309Q117.33125 187.92778 116.58125 187.92778Q115.8625 187.92778 115.425 188.53716Q114.87813 189.3184 114.87813 191.4434Z" fill-rule="nonzero"/><path fill="#000000" d="M57.8 74.90104L58.8625 74.760414Q59.034374 75.65104 59.471874 76.05729Q59.909374 76.447914 60.534374 76.447914Q61.284374 76.447914 61.8 75.93229Q62.315624 75.416664 62.315624 74.65104Q62.315624 73.93229 61.83125 73.46354Q61.3625 72.979164 60.628124 72.979164Q60.33125 72.979164 59.878124 73.104164L60.003124 72.166664Q60.1125 72.18229 60.175 72.18229Q60.846874 72.18229 61.378124 71.83854Q61.925 71.479164 61.925 70.74479Q61.925 70.166664 61.534374 69.791664Q61.14375 69.40104 60.51875 69.40104Q59.909374 69.40104 59.4875 69.791664Q59.08125 70.18229 58.971874 70.947914L57.909374 70.760414Q58.096874 69.71354 58.784374 69.135414Q59.471874 68.541664 60.4875 68.541664Q61.190624 68.541664 61.784374 68.854164Q62.378124 69.15104 62.690624 69.666664Q63.003124 70.18229 63.003124 70.77604Q63.003124 71.322914 62.70625 71.791664Q62.409374 72.24479 61.83125 72.510414Q62.58125 72.68229 63.003124 73.24479Q63.425 73.791664 63.425 74.635414Q63.425 75.760414 62.596874 76.541664Q61.784374 77.322914 60.534374 77.322914Q59.409374 77.322914 58.659374 76.65104Q57.909374 75.96354 57.8 74.90104ZM64.8 72.93229Q64.8 71.40104 65.1125 70.479164Q65.425 69.541664 66.03438 69.041664Q66.65938 68.541664 67.59688 68.541664Q68.28438 68.541664 68.8 68.822914Q69.33125 69.104164 69.675 69.635414Q70.01875 70.15104 70.20625 70.90104Q70.39375 71.65104 70.39375 72.93229Q70.39375 74.447914 70.08125 75.36979Q69.78438 76.291664 69.15938 76.80729Q68.55 77.30729 67.59688 77.30729Q66.3625 77.30729 65.64375 76.416664Q64.8 75.354164 64.8 72.93229ZM65.87813 72.93229Q65.87813 75.041664 66.37813 75.74479Q66.87813 76.447914 67.59688 76.447914Q68.33125 76.447914 68.81563 75.74479Q69.31563 75.041664 69.31563 72.93229Q69.31563 70.80729 68.81563 70.11979Q68.33125 69.416664 67.58125 69.416664Q66.8625 69.416664 66.425 70.02604Q65.87813 70.80729 65.87813 72.93229ZM71.8 72.93229Q71.8 71.40104 72.1125 70.479164Q72.425 69.541664 73.03438 69.041664Q73.65938 68.541664 74.59688 68.541664Q75.28438 68.541664 75.8 68.822914Q76.33125 69.104164 76.675 69.635414Q77.01875 70.15104 77.20625 70.90104Q77.39375 71.65104 77.39375 72.93229Q77.39375 74.447914 77.08125 75.36979Q76.78438 76.291664 76.15938 76.80729Q75.55 77.30729 74.59688 77.30729Q73.3625 77.30729 72.64375 76.416664Q71.8 75.354164 71.8 72.93229ZM72.87813 72.93229Q72.87813 75.041664 73.37813 75.74479Q73.87813 76.447914 74.59688 76.447914Q75.33125 76.447914 75.81563 75.74479Q76.31563 75.041664 76.31563 72.93229Q76.31563 70.80729 75.81563 70.11979Q75.33125 69.416664 74.58125 69.416664Q73.8625 69.416664 73.425 70.02604Q72.87813 70.80729 72.87813 72.93229ZM78.8 72.93229Q78.8 71.40104 79.1125 70.479164Q79.425 69.541664 80.03438 69.041664Q80.65938 68.541664 81.59688 68.541664Q82.28438 68.541664 82.8 68.822914Q83.33125 69.104164 83.675 69.635414Q84.01875 70.15104 84.20625 70.90104Q84.39375 71.65104 84.39375 72.93229Q84.39375 74.447914 84.08125 75.36979Q83.78438 76.291664 83.15938 76.80729Q82.55 77.30729 81.59688 77.30729Q80.3625 77.30729 79.64375 76.416664Q78.8 75.354164 78.8 72.93229ZM79.87813 72.93229Q79.87813 75.041664 80.37813 75.74479Q80.87813 76.447914 81.59688 76.447914Q82.33125 76.447914 82.81563 75.74479Q83.31563 75.041664 83.31563 72.93229Q83.31563 70.80729 82.81563 70.11979Q82.33125 69.416664 81.58125 69.416664Q80.8625 69.416664 80.425 70.02604Q79.87813 70.80729 79.87813 72.93229ZM85.8 72.93229Q85.8 71.40104 86.1125 70.479164Q86.425 69.541664 87.03438 69.041664Q87.65938 68.541664 88.59688 68.541664Q89.28438 68.541664 89.8 68.822914Q90.33125 69.104164 90.675 69.635414Q91.01875 70.15104 91.20625 70.90104Q91.39375 71.65104 91.39375 72.93229Q91.39375 74.447914 91.08125 75.36979Q90.78438 76.291664 90.15938 76.80729Q89.55 77.30729 88.59688 77.30729Q87.3625 77.30729 86.64375 76.416664Q85.8 75.354164 85.8 72.93229ZM86.87813 72.93229Q86.87813 75.041664 87.37813 75.74479Q87.87813 76.447914 88.59688 76.447914Q89.33125 76.447914 89.81563 75.74479Q90.31563 75.041664 90.31563 72.93229Q90.31563 70.80729 89.81563 70.11979Q89.33125 69.416664 88.58125 69.416664Q87.8625 69.416664 87.425 70.02604Q86.87813 70.80729 86.87813 72.93229ZM92.8 72.93229Q92.8 71.40104 93.1125 70.479164Q93.425 69.541664 94.03438 69.041664Q94.65938 68.541664 95.59688 68.541664Q96.28438 68.541664 96.8 68.822914Q97.33125 69.104164 97.675 69.635414Q98.01875 70.15104 98.20625 70.90104Q98.39375 71.65104 98.39375 72.93229Q98.39375 74.447914 98.08125 75.36979Q97.78438 76.291664 97.15938 76.80729Q96.55 77.30729 95.59688 77.30729Q94.3625 77.30729 93.64375 76.416664Q92.8 75.354164 92.8 72.93229ZM93.87813 72.93229Q93.87813 75.041664 94.37813 75.74479Q94.87813 76.447914 95.59688 76.447914Q96.33125 76.447914 96.81563 75.74479Q97.31563 75.041664 97.31563 72.93229Q97.31563 70.80729 96.81563 70.11979Q96.33125 69.416664 95.58125 69.416664Q94.8625 69.416664 94.425 70.02604Q93.87813 70.80729 93.87813 72.93229ZM99.8 72.93229Q99.8 71.40104 100.1125 70.479164Q100.425 69.541664 101.03438 69.041664Q101.65938 68.541664 102.59688 68.541664Q103.28438 68.541664 103.8 68.822914Q104.33125 69.104164 104.675 69.635414Q105.01875 70.15104 105.20625 70.90104Q105.39375 71.65104 105.39375 72.93229Q105.39375 74.447914 105.08125 75.36979Q104.78438 76.291664 104.15938 76.80729Q103.55 77.30729 102.59688 77.30729Q101.3625 77.30729 100.64375 76.416664Q99.8 75.354164 99.8 72.93229ZM100.87813 72.93229Q100.87813 75.041664 101.37813 75.74479Q101.87813 76.447914 102.59688 76.447914Q103.33125 76.447914 103.81563 75.74479Q104.31563 75.041664 104.31563 72.93229Q104.31563 70.80729 103.81563 70.11979Q103.33125 69.416664 102.58125 69.416664Q101.8625 69.416664 101.425 70.02604Q100.87813 70.80729 100.87813 72.93229ZM106.8 72.93229Q106.8 71.40104 107.1125 70.479164Q107.425 69.541664 108.03438 69.041664Q108.65938 68.541664 109.59688 68.541664Q110.28438 68.541664 110.8 68.822914Q111.33125 69.104164 111.675 69.635414Q112.01875 70.15104 112.20625 70.90104Q112.39375 71.65104 112.39375 72.93229Q112.39375 74.447914 112.08125 75.36979Q111.78438 76.291664 111.15938 76.80729Q110.55 77.30729 109.59688 77.30729Q108.3625 77.30729 107.64375 76.416664Q106.8 75.354164 106.8 72.93229ZM107.87813 72.93229Q107.87813 75.041664 108.37813 75.74479Q108.87813 76.447914 109.59688 76.447914Q110.33125 76.447914 110.81563 75.74479Q111.31563 75.041664 111.31563 72.93229Q111.31563 70.80729 110.81563 70.11979Q110.33125 69.416664 109.58125 69.416664Q108.8625 69.416664 108.425 70.02604Q107.87813 70.80729 107.87813 72.93229ZM113.8 72.93229Q113.8 71.40104 114.1125 70.479164Q114.425 69.541664 115.03438 69.041664Q115.65938 68.541664 116.59688 68.541664Q117.28438 68.541664 117.8 68.822914Q118.33125 69.104164 118.675 69.635414Q119.01875 70.15104 119.20625 70.90104Q119.39375 71.65104 119.39375 72.93229Q119.39375 74.447914 119.08125 75.36979Q118.78438 76.291664 118.15938 76.80729Q117.55 77.30729 116.59688 77.30729Q115.3625 77.30729 114.64375 76.416664Q113.8 75.354164 113.8 72.93229ZM114.87813 72.93229Q114.87813 75.041664 115.37813 75.74479Q115.87813 76.447914 116.59688 76.447914Q117.33125 76.447914 117.81563 75.74479Q118.31563 75.041664 118.31563 72.93229Q118.31563 70.80729 117.81563 70.11979Q117.33125 69.416664 116.58125 69.416664Q115.8625 69.416664 115.425 70.02604Q114.87813 70.80729 114.87813 72.93229Z" fill-rule="nonzero"/><path fill="#000000" d="M241.73807 445.7L240.6912 445.7L240.6912 438.98126Q240.30057 439.34064 239.67557 439.71564Q239.0662 440.075 238.58182 440.2469L238.58182 439.23126Q239.45682 438.8094 240.11307 438.23126Q240.78494 437.6375 241.0662 437.075L241.73807 437.075L241.73807 445.7ZM244.76932 441.46564Q244.76932 439.9344 245.08182 439.0125Q245.39432 438.075 246.0037 437.575Q246.6287 437.075 247.5662 437.075Q248.2537 437.075 248.76932 437.35626Q249.30057 437.6375 249.64432 438.16876Q249.98807 438.6844 250.17557 439.4344Q250.36307 440.1844 250.36307 441.46564Q250.36307 442.98126 250.05057 443.90314Q249.7537 444.825 249.1287 445.34064Q248.51932 445.84064 247.5662 445.84064Q246.33182 445.84064 245.61307 444.95Q244.76932 443.8875 244.76932 441.46564ZM245.84744 441.46564Q245.84744 443.575 246.34744 444.27814Q246.84744 444.98126 247.5662 444.98126Q248.30057 444.98126 248.78494 444.27814Q249.28494 443.575 249.28494 441.46564Q249.28494 439.34064 248.78494 438.65314Q248.30057 437.95 247.55057 437.95Q246.83182 437.95 246.39432 438.5594Q245.84744 439.34064 245.84744 441.46564ZM251.76932 441.46564Q251.76932 439.9344 252.08182 439.0125Q252.39432 438.075 253.0037 437.575Q253.6287 437.075 254.5662 437.075Q255.2537 437.075 255.76932 437.35626Q256.30057 437.6375 256.64432 438.16876Q256.98807 438.6844 257.17557 439.4344Q257.36307 440.1844 257.36307 441.46564Q257.36307 442.98126 257.05057 443.90314Q256.7537 444.825 256.1287 445.34064Q255.51932 445.84064 254.5662 445.84064Q253.33182 445.84064 252.61307 444.95Q251.76932 443.8875 251.76932 441.46564ZM252.84744 441.46564Q252.84744 443.575 253.34744 444.27814Q253.84744 444.98126 254.5662 444.98126Q255.30057 444.98126 255.78494 444.27814Q256.28494 443.575 256.28494 441.46564Q256.28494 439.34064 255.78494 438.65314Q255.30057 437.95 254.55057 437.95Q253.83182 437.95 253.39432 438.5594Q252.84744 439.34064 252.84744 441.46564ZM259.36307 445.7L259.36307 444.4969L260.5662 444.4969L260.5662 445.7L259.36307 445.7ZM261.76932 441.46564Q261.76932 439.9344 262.08182 439.0125Q262.39432 438.075 263.0037 437.575Q263.6287 437.075 264.5662 437.075Q265.2537 437.075 265.76932 437.35626Q266.30057 437.6375 266.64432 438.16876Q266.98807 438.6844 267.17557 439.4344Q267.36307 440.1844 267.36307 441.46564Q267.36307 442.98126 267.05057 443.90314Q266.7537 444.825 266.1287 445.34064Q265.51932 445.84064 264.5662 445.84064Q263.33182 445.84064 262.61307 444.95Q261.76932 443.8875 261.76932 441.46564ZM262.84744 441.46564Q262.84744 443.575 263.34744 444.27814Q263.84744 444.98126 264.5662 444.98126Q265.30057 444.98126 265.78494 444.27814Q266.28494 443.575 266.28494 441.46564Q266.28494 439.34064 265.78494 438.65314Q265.30057 437.95 264.55057 437.95Q263.83182 437.95 263.39432 438.5594Q262.84744 439.34064 262.84744 441.46564ZM268.76932 441.46564Q268.76932 439.9344 269.08182 439.0125Q269.39432 438.075 270.0037 437.575Q270.6287 437.075 271.5662 437.075Q272.2537 437.075 272.76932 437.35626Q273.30057 437.6375 273.64432 438.16876Q273.98807 438.6844 274.17557 439.4344Q274.36307 440.1844 274.36307 441.46564Q274.36307 442.98126 274.05057 443.90314Q273.7537 444.825 273.1287 445.34064Q272.51932 445.84064 271.5662 445.84064Q270.33182 445.84064 269.61307 444.95Q268.76932 443.8875 268.76932 441.46564ZM269.84744 441.46564Q269.84744 443.575 270.34744 444.27814Q270.84744 444.98126 271.5662 444.98126Q272.30057 444.98126 272.78494 444.27814Q273.28494 443.575 273.28494 441.46564Q273.28494 439.34064 272.78494 438.65314Q272.30057 437.95 271.55057 437.95Q270.83182 437.95 270.39432 438.5594Q269.84744 439.34064 269.84744 441.46564ZM275.76932 441.46564Q275.76932 439.9344 276.08182 439.0125Q276.39432 438.075 277.0037 437.575Q277.6287 437.075 278.5662 437.075Q279.2537 437.075 279.76932 437.35626Q280.30057 437.6375 280.64432 438.16876Q280.98807 438.6844 281.17557 439.4344Q281.36307 440.1844 281.36307 441.46564Q281.36307 442.98126 281.05057 443.90314Q280.7537 444.825 280.1287 445.34064Q279.51932 445.84064 278.5662 445.84064Q277.33182 445.84064 276.61307 444.95Q275.76932 443.8875 275.76932 441.46564ZM276.84744 441.46564Q276.84744 443.575 277.34744 444.27814Q277.84744 444.98126 278.5662 444.98126Q279.30057 444.98126 279.78494 444.27814Q280.28494 443.575 280.28494 441.46564Q280.28494 439.34064 279.78494 438.65314Q279.30057 437.95 278.55057 437.95Q277.83182 437.95 277.39432 438.5594Q276.84744 439.34064 276.84744 441.46564Z" fill-rule="nonzero"/><path fill="#000000" d="M376.79886 444.6844L376.79886 445.7L371.11136 445.7Q371.11136 445.325 371.23636 444.96564Q371.4551 444.3875 371.92386 443.825Q372.40823 443.2625 373.31448 442.52814Q374.72073 441.3719 375.2051 440.7Q375.7051 440.02814 375.7051 439.4344Q375.7051 438.8094 375.25198 438.3875Q374.79886 437.95 374.0801 437.95Q373.31448 437.95 372.86136 438.40314Q372.40823 438.85626 372.3926 439.66876L371.31448 439.5594Q371.42386 438.34064 372.1426 437.71564Q372.87698 437.075 374.11136 437.075Q375.34573 437.075 376.06448 437.7625Q376.78323 438.45 376.78323 439.46564Q376.78323 439.98126 376.56448 440.48126Q376.36136 440.96564 375.86136 441.52814Q375.37698 442.075 374.25198 443.02814Q373.29886 443.825 373.0176 444.1219Q372.75198 444.40314 372.5801 444.6844L376.79886 444.6844ZM378.25198 441.46564Q378.25198 439.9344 378.56448 439.0125Q378.87698 438.075 379.48636 437.575Q380.11136 437.075 381.04886 437.075Q381.73636 437.075 382.25198 437.35626Q382.78323 437.6375 383.12698 438.16876Q383.47073 438.6844 383.65823 439.4344Q383.84573 440.1844 383.84573 441.46564Q383.84573 442.98126 383.53323 443.90314Q383.23636 444.825 382.61136 445.34064Q382.00198 445.84064 381.04886 445.84064Q379.81448 445.84064 379.09573 444.95Q378.25198 443.8875 378.25198 441.46564ZM379.3301 441.46564Q379.3301 443.575 379.8301 444.27814Q380.3301 444.98126 381.04886 444.98126Q381.78323 444.98126 382.2676 444.27814Q382.7676 443.575 382.7676 441.46564Q382.7676 439.34064 382.2676 438.65314Q381.78323 437.95 381.03323 437.95Q380.31448 437.95 379.87698 438.5594Q379.3301 439.34064 379.3301 441.46564ZM385.25198 441.46564Q385.25198 439.9344 385.56448 439.0125Q385.87698 438.075 386.48636 437.575Q387.11136 437.075 388.04886 437.075Q388.73636 437.075 389.25198 437.35626Q389.78323 437.6375 390.12698 438.16876Q390.47073 438.6844 390.65823 439.4344Q390.84573 440.1844 390.84573 441.46564Q390.84573 442.98126 390.53323 443.90314Q390.23636 444.825 389.61136 445.34064Q389.00198 445.84064 388.04886 445.84064Q386.81448 445.84064 386.09573 444.95Q385.25198 443.8875 385.25198 441.46564ZM386.3301 441.46564Q386.3301 443.575 386.8301 444.27814Q387.3301 444.98126 388.04886 444.98126Q388.78323 444.98126 389.2676 444.27814Q389.7676 443.575 389.7676 441.46564Q389.7676 439.34064 389.2676 438.65314Q388.78323 437.95 388.03323 437.95Q387.31448 437.95 386.87698 438.5594Q386.3301 439.34064 386.3301 441.46564ZM392.84573 445.7L392.84573 444.4969L394.04886 444.4969L394.04886 445.7L392.84573 445.7ZM395.25198 441.46564Q395.25198 439.9344 395.56448 439.0125Q395.87698 438.075 396.48636 437.575Q397.11136 437.075 398.04886 437.075Q398.73636 437.075 399.25198 437.35626Q399.78323 437.6375 400.12698 438.16876Q400.47073 438.6844 400.65823 439.4344Q400.84573 440.1844 400.84573 441.46564Q400.84573 442.98126 400.53323 443.90314Q400.23636 444.825 399.61136 445.34064Q399.00198 445.84064 398.04886 445.84064Q396.81448 445.84064 396.09573 444.95Q395.25198 443.8875 395.25198 441.46564ZM396.3301 441.46564Q396.3301 443.575 396.8301 444.27814Q397.3301 444.98126 398.04886 444.98126Q398.78323 444.98126 399.2676 444.27814Q399.7676 443.575 399.7676 441.46564Q399.7676 439.34064 399.2676 438.65314Q398.78323 437.95 398.03323 437.95Q397.31448 437.95 396.87698 438.5594Q396.3301 439.34064 396.3301 441.46564ZM402.25198 441.46564Q402.25198 439.9344 402.56448 439.0125Q402.87698 438.075 403.48636 437.575Q404.11136 437.075 405.04886 437.075Q405.73636 437.075 406.25198 437.35626Q406.78323 437.6375 407.12698 438.16876Q407.47073 438.6844 407.65823 439.4344Q407.84573 440.1844 407.84573 441.46564Q407.84573 442.98126 407.53323 443.90314Q407.23636 444.825 406.61136 445.34064Q406.00198 445.84064 405.04886 445.84064Q403.81448 445.84064 403.09573 444.95Q402.25198 443.8875 402.25198 441.46564ZM403.3301 441.46564Q403.3301 443.575 403.8301 444.27814Q404.3301 444.98126 405.04886 444.98126Q405.78323 444.98126 406.2676 444.27814Q406.7676 443.575 406.7676 441.46564Q406.7676 439.34064 406.2676 438.65314Q405.78323 437.95 405.03323 437.95Q404.31448 437.95 403.87698 438.5594Q403.3301 439.34064 403.3301 441.46564ZM409.25198 441.46564Q409.25198 439.9344 409.56448 439.0125Q409.87698 438.075 410.48636 437.575Q411.11136 437.075 412.04886 437.075Q412.73636 437.075 413.25198 437.35626Q413.78323 437.6375 414.12698 438.16876Q414.47073 438.6844 414.65823 439.4344Q414.84573 440.1844 414.84573 441.46564Q414.84573 442.98126 414.53323 443.90314Q414.23636 444.825 413.61136 445.34064Q413.00198 445.84064 412.04886 445.84064Q410.81448 445.84064 410.09573 444.95Q409.25198 443.8875 409.25198 441.46564ZM410.3301 441.46564Q410.3301 443.575 410.8301 444.27814Q411.3301 444.98126 412.04886 444.98126Q412.78323 444.98126 413.2676 444.27814Q413.7676 443.575 413.7676 441.46564Q413.7676 439.34064 413.2676 438.65314Q412.78323 437.95 412.03323 437.95Q411.31448 437.95 410.87698 438.5594Q410.3301 439.34064 410.3301 441.46564Z" fill-rule="nonzero"/><path fill="#000000" d="M504.73465 443.4344L505.79715 443.29376Q505.96902 444.1844 506.40652 444.59064Q506.84402 444.98126 507.46902 444.98126Q508.21902 444.98126 508.73465 444.46564Q509.25027 443.95 509.25027 443.1844Q509.25027 442.46564 508.7659 441.9969Q508.29715 441.5125 507.56277 441.5125Q507.2659 441.5125 506.81277 441.6375L506.93777 440.7Q507.04715 440.71564 507.10965 440.71564Q507.78152 440.71564 508.31277 440.3719Q508.85965 440.0125 508.85965 439.27814Q508.85965 438.7 508.46902 438.325Q508.0784 437.9344 507.4534 437.9344Q506.84402 437.9344 506.42215 438.325Q506.0159 438.71564 505.90652 439.48126L504.84402 439.29376Q505.03152 438.2469 505.71902 437.66876Q506.40652 437.075 507.42215 437.075Q508.12527 437.075 508.71902 437.3875Q509.31277 437.6844 509.62527 438.2Q509.93777 438.71564 509.93777 439.3094Q509.93777 439.85626 509.6409 440.325Q509.34402 440.77814 508.7659 441.04376Q509.5159 441.21564 509.93777 441.77814Q510.35965 442.325 510.35965 443.16876Q510.35965 444.29376 509.53152 445.075Q508.71902 445.85626 507.46902 445.85626Q506.34402 445.85626 505.59402 445.1844Q504.84402 444.4969 504.73465 443.4344ZM511.73465 441.46564Q511.73465 439.9344 512.0471 439.0125Q512.3596 438.075 512.969 437.575Q513.594 437.075 514.5315 437.075Q515.219 437.075 515.7346 437.35626Q516.26587 437.6375 516.6096 438.16876Q516.95337 438.6844 517.14087 439.4344Q517.32837 440.1844 517.32837 441.46564Q517.32837 442.98126 517.01587 443.90314Q516.719 444.825 516.094 445.34064Q515.4846 445.84064 514.5315 445.84064Q513.2971 445.84064 512.57837 444.95Q511.73465 443.8875 511.73465 441.46564ZM512.81274 441.46564Q512.81274 443.575 513.31274 444.27814Q513.81274 444.98126 514.5315 444.98126Q515.26587 444.98126 515.75024 444.27814Q516.25024 443.575 516.25024 441.46564Q516.25024 439.34064 515.75024 438.65314Q515.26587 437.95 514.51587 437.95Q513.7971 437.95 513.3596 438.5594Q512.81274 439.34064 512.81274 441.46564ZM518.7346 441.46564Q518.7346 439.9344 519.0471 439.0125Q519.3596 438.075 519.969 437.575Q520.594 437.075 521.5315 437.075Q522.219 437.075 522.7346 437.35626Q523.26587 437.6375 523.6096 438.16876Q523.95337 438.6844 524.14087 439.4344Q524.32837 440.1844 524.32837 441.46564Q524.32837 442.98126 524.01587 443.90314Q523.719 444.825 523.094 445.34064Q522.4846 445.84064 521.5315 445.84064Q520.2971 445.84064 519.57837 444.95Q518.7346 443.8875 518.7346 441.46564ZM519.81274 441.46564Q519.81274 443.575 520.31274 444.27814Q520.81274 444.98126 521.5315 444.98126Q522.26587 444.98126 522.75024 444.27814Q523.25024 443.575 523.25024 441.46564Q523.25024 439.34064 522.75024 438.65314Q522.26587 437.95 521.51587 437.95Q520.7971 437.95 520.3596 438.5594Q519.81274 439.34064 519.81274 441.46564ZM526.32837 445.7L526.32837 444.4969L527.5315 444.4969L527.5315 445.7L526.32837 445.7ZM528.7346 441.46564Q528.7346 439.9344 529.0471 439.0125Q529.3596 438.075 529.969 437.575Q530.594 437.075 531.5315 437.075Q532.219 437.075 532.7346 437.35626Q533.26587 437.6375 533.6096 438.16876Q533.95337 438.6844 534.14087 439.4344Q534.32837 440.1844 534.32837 441.46564Q534.32837 442.98126 534.01587 443.90314Q533.719 444.825 533.094 445.34064Q532.4846 445.84064 531.5315 445.84064Q530.2971 445.84064 529.57837 444.95Q528.7346 443.8875 528.7346 441.46564ZM529.81274 441.46564Q529.81274 443.575 530.31274 444.27814Q530.81274 444.98126 531.5315 444.98126Q532.26587 444.98126 532.75024 444.27814Q533.25024 443.575 533.25024 441.46564Q533.25024 439.34064 532.75024 438.65314Q532.26587 437.95 531.51587 437.95Q530.7971 437.95 530.3596 438.5594Q529.81274 439.34064 529.81274 441.46564ZM535.7346 441.46564Q535.7346 439.9344 536.0471 439.0125Q536.3596 438.075 536.969 437.575Q537.594 437.075 538.5315 437.075Q539.219 437.075 539.7346 437.35626Q540.26587 437.6375 540.6096 438.16876Q540.95337 438.6844 541.14087 439.4344Q541.32837 440.1844 541.32837 441.46564Q541.32837 442.98126 541.01587 443.90314Q540.719 444.825 540.094 445.34064Q539.4846 445.84064 538.5315 445.84064Q537.2971 445.84064 536.57837 444.95Q535.7346 443.8875 535.7346 441.46564ZM536.81274 441.46564Q536.81274 443.575 537.31274 444.27814Q537.81274 444.98126 538.5315 444.98126Q539.26587 444.98126 539.75024 444.27814Q540.25024 443.575 540.25024 441.46564Q540.25024 439.34064 539.75024 438.65314Q539.26587 437.95 538.51587 437.95Q537.7971 437.95 537.3596 438.5594Q536.81274 439.34064 536.81274 441.46564ZM542.7346 441.46564Q542.7346 439.9344 543.0471 439.0125Q543.3596 438.075 543.969 437.575Q544.594 437.075 545.5315 437.075Q546.219 437.075 546.7346 437.35626Q547.26587 437.6375 547.6096 438.16876Q547.95337 438.6844 548.14087 439.4344Q548.32837 440.1844 548.32837 441.46564Q548.32837 442.98126 548.01587 443.90314Q547.719 444.825 547.094 445.34064Q546.4846 445.84064 545.5315 445.84064Q544.2971 445.84064 543.57837 444.95Q542.7346 443.8875 542.7346 441.46564ZM543.81274 441.46564Q543.81274 443.575 544.31274 444.27814Q544.81274 444.98126 545.5315 444.98126Q546.26587 444.98126 546.75024 444.27814Q547.25024 443.575 547.25024 441.46564Q547.25024 439.34064 546.75024 438.65314Q546.26587 437.95 545.51587 437.95Q544.7971 437.95 544.3596 438.5594Q543.81274 439.34064 543.81274 441.46564Z" fill-rule="nonzero"/><path fill="#000000" d="M641.59235 445.7L641.59235 443.6375L637.8736 443.6375L637.8736 442.66876L641.7955 437.10626L642.65485 437.10626L642.65485 442.66876L643.8111 442.66876L643.8111 443.6375L642.65485 443.6375L642.65485 445.7L641.59235 445.7ZM641.59235 442.66876L641.59235 438.8094L638.90485 442.66876L641.59235 442.66876ZM645.21735 441.46564Q645.21735 439.9344 645.52985 439.0125Q645.84235 438.075 646.4517 437.575Q647.0767 437.075 648.0142 437.075Q648.7017 437.075 649.21735 437.35626Q649.7486 437.6375 650.09235 438.16876Q650.4361 438.6844 650.6236 439.4344Q650.8111 440.1844 650.8111 441.46564Q650.8111 442.98126 650.4986 443.90314Q650.2017 444.825 649.5767 445.34064Q648.96735 445.84064 648.0142 445.84064Q646.77985 445.84064 646.0611 444.95Q645.21735 443.8875 645.21735 441.46564ZM646.2955 441.46564Q646.2955 443.575 646.7955 444.27814Q647.2955 444.98126 648.0142 444.98126Q648.7486 444.98126 649.233 444.27814Q649.733 443.575 649.733 441.46564Q649.733 439.34064 649.233 438.65314Q648.7486 437.95 647.9986 437.95Q647.27985 437.95 646.84235 438.5594Q646.2955 439.34064 646.2955 441.46564ZM652.21735 441.46564Q652.21735 439.9344 652.52985 439.0125Q652.84235 438.075 653.4517 437.575Q654.0767 437.075 655.0142 437.075Q655.7017 437.075 656.21735 437.35626Q656.7486 437.6375 657.09235 438.16876Q657.4361 438.6844 657.6236 439.4344Q657.8111 440.1844 657.8111 441.46564Q657.8111 442.98126 657.4986 443.90314Q657.2017 444.825 656.5767 445.34064Q655.96735 445.84064 655.0142 445.84064Q653.77985 445.84064 653.0611 444.95Q652.21735 443.8875 652.21735 441.46564ZM653.2955 441.46564Q653.2955 443.575 653.7955 444.27814Q654.2955 444.98126 655.0142 444.98126Q655.7486 444.98126 656.233 444.27814Q656.733 443.575 656.733 441.46564Q656.733 439.34064 656.233 438.65314Q655.7486 437.95 654.9986 437.95Q654.27985 437.95 653.84235 438.5594Q653.2955 439.34064 653.2955 441.46564ZM659.8111 445.7L659.8111 444.4969L661.0142 444.4969L661.0142 445.7L659.8111 445.7ZM662.21735 441.46564Q662.21735 439.9344 662.52985 439.0125Q662.84235 438.075 663.4517 437.575Q664.0767 437.075 665.0142 437.075Q665.7017 437.075 666.21735 437.35626Q666.7486 437.6375 667.09235 438.16876Q667.4361 438.6844 667.6236 439.4344Q667.8111 440.1844 667.8111 441.46564Q667.8111 442.98126 667.4986 443.90314Q667.2017 444.825 666.5767 445.34064Q665.96735 445.84064 665.0142 445.84064Q663.77985 445.84064 663.0611 444.95Q662.21735 443.8875 662.21735 441.46564ZM663.2955 441.46564Q663.2955 443.575 663.7955 444.27814Q664.2955 444.98126 665.0142 444.98126Q665.7486 444.98126 666.233 444.27814Q666.733 443.575 666.733 441.46564Q666.733 439.34064 666.233 438.65314Q665.7486 437.95 664.9986 437.95Q664.27985 437.95 663.84235 438.5594Q663.2955 439.34064 663.2955 441.46564ZM669.21735 441.46564Q669.21735 439.9344 669.52985 439.0125Q669.84235 438.075 670.4517 437.575Q671.0767 437.075 672.0142 437.075Q672.7017 437.075 673.21735 437.35626Q673.7486 437.6375 674.09235 438.16876Q674.4361 438.6844 674.6236 439.4344Q674.8111 440.1844 674.8111 441.46564Q674.8111 442.98126 674.4986 443.90314Q674.2017 444.825 673.5767 445.34064Q672.96735 445.84064 672.0142 445.84064Q670.77985 445.84064 670.0611 444.95Q669.21735 443.8875 669.21735 441.46564ZM670.2955 441.46564Q670.2955 443.575 670.7955 444.27814Q671.2955 444.98126 672.0142 444.98126Q672.7486 444.98126 673.233 444.27814Q673.733 443.575 673.733 441.46564Q673.733 439.34064 673.233 438.65314Q672.7486 437.95 671.9986 437.95Q671.27985 437.95 670.84235 438.5594Q670.2955 439.34064 670.2955 441.46564ZM676.21735 441.46564Q676.21735 439.9344 676.52985 439.0125Q676.84235 438.075 677.4517 437.575Q678.0767 437.075 679.0142 437.075Q679.7017 437.075 680.21735 437.35626Q680.7486 437.6375 681.09235 438.16876Q681.4361 438.6844 681.6236 439.4344Q681.8111 440.1844 681.8111 441.46564Q681.8111 442.98126 681.4986 443.90314Q681.2017 444.825 680.5767 445.34064Q679.96735 445.84064 679.0142 445.84064Q677.77985 445.84064 677.0611 444.95Q676.21735 443.8875 676.21735 441.46564ZM677.2955 441.46564Q677.2955 443.575 677.7955 444.27814Q678.2955 444.98126 679.0142 444.98126Q679.7486 444.98126 680.233 444.27814Q680.733 443.575 680.733 441.46564Q680.733 439.34064 680.233 438.65314Q679.7486 437.95 678.9986 437.95Q678.27985 437.95 677.84235 438.5594Q677.2955 439.34064 677.2955 441.46564Z" fill-rule="nonzero"/><path fill="#000000" d="M771.7 443.45L772.8094 443.35626Q772.9344 444.16876 773.3719 444.575Q773.825 444.98126 774.46564 444.98126Q775.21564 444.98126 775.7469 444.40314Q776.27814 443.825 776.27814 442.8875Q776.27814 441.98126 775.7625 441.46564Q775.2625 440.9344 774.4344 440.9344Q773.9344 440.9344 773.5125 441.16876Q773.10626 441.40314 772.8719 441.7625L771.8875 441.6375L772.71564 437.23126L776.9969 437.23126L776.9969 438.23126L773.5594 438.23126L773.10626 440.54376Q773.8719 439.9969 774.71564 439.9969Q775.84064 439.9969 776.60626 440.77814Q777.3875 441.5594 777.3875 442.79376Q777.3875 443.95 776.71564 444.8094Q775.8875 445.84064 774.46564 445.84064Q773.29376 445.84064 772.54376 445.1844Q771.8094 444.52814 771.7 443.45ZM778.7 441.46564Q778.7 439.9344 779.0125 439.0125Q779.325 438.075 779.9344 437.575Q780.5594 437.075 781.4969 437.075Q782.1844 437.075 782.7 437.35626Q783.23126 437.6375 783.575 438.16876Q783.91876 438.6844 784.10626 439.4344Q784.29376 440.1844 784.29376 441.46564Q784.29376 442.98126 783.98126 443.90314Q783.6844 444.825 783.0594 445.34064Q782.45 445.84064 781.4969 445.84064Q780.2625 445.84064 779.54376 444.95Q778.7 443.8875 778.7 441.46564ZM779.77814 441.46564Q779.77814 443.575 780.27814 444.27814Q780.77814 444.98126 781.4969 444.98126Q782.23126 444.98126 782.71564 444.27814Q783.21564 443.575 783.21564 441.46564Q783.21564 439.34064 782.71564 438.65314Q782.23126 437.95 781.48126 437.95Q780.7625 437.95 780.325 438.5594Q779.77814 439.34064 779.77814 441.46564ZM785.7 441.46564Q785.7 439.9344 786.0125 439.0125Q786.325 438.075 786.9344 437.575Q787.5594 437.075 788.4969 437.075Q789.1844 437.075 789.7 437.35626Q790.23126 437.6375 790.575 438.16876Q790.91876 438.6844 791.10626 439.4344Q791.29376 440.1844 791.29376 441.46564Q791.29376 442.98126 790.98126 443.90314Q790.6844 444.825 790.0594 445.34064Q789.45 445.84064 788.4969 445.84064Q787.2625 445.84064 786.54376 444.95Q785.7 443.8875 785.7 441.46564ZM786.77814 441.46564Q786.77814 443.575 787.27814 444.27814Q787.77814 444.98126 788.4969 444.98126Q789.23126 444.98126 789.71564 444.27814Q790.21564 443.575 790.21564 441.46564Q790.21564 439.34064 789.71564 438.65314Q789.23126 437.95 788.48126 437.95Q787.7625 437.95 787.325 438.5594Q786.77814 439.34064 786.77814 441.46564ZM793.29376 445.7L793.29376 444.4969L794.4969 444.4969L794.4969 445.7L793.29376 445.7ZM795.7 441.46564Q795.7 439.9344 796.0125 439.0125Q796.325 438.075 796.9344 437.575Q797.5594 437.075 798.4969 437.075Q799.1844 437.075 799.7 437.35626Q800.23126 437.6375 800.575 438.16876Q800.91876 438.6844 801.10626 439.4344Q801.29376 440.1844 801.29376 441.46564Q801.29376 442.98126 800.98126 443.90314Q800.6844 444.825 800.0594 445.34064Q799.45 445.84064 798.4969 445.84064Q797.2625 445.84064 796.54376 444.95Q795.7 443.8875 795.7 441.46564ZM796.77814 441.46564Q796.77814 443.575 797.27814 444.27814Q797.77814 444.98126 798.4969 444.98126Q799.23126 444.98126 799.71564 444.27814Q800.21564 443.575 800.21564 441.46564Q800.21564 439.34064 799.71564 438.65314Q799.23126 437.95 798.48126 437.95Q797.7625 437.95 797.325 438.5594Q796.77814 439.34064 796.77814 441.46564ZM802.7 441.46564Q802.7 439.9344 803.0125 439.0125Q803.325 438.075 803.9344 437.575Q804.5594 437.075 805.4969 437.075Q806.1844 437.075 806.7 437.35626Q807.23126 437.6375 807.575 438.16876Q807.91876 438.6844 808.10626 439.4344Q808.29376 440.1844 808.29376 441.46564Q808.29376 442.98126 807.98126 443.90314Q807.6844 444.825 807.0594 445.34064Q806.45 445.84064 805.4969 445.84064Q804.2625 445.84064 803.54376 444.95Q802.7 443.8875 802.7 441.46564ZM803.77814 441.46564Q803.77814 443.575 804.27814 444.27814Q804.77814 444.98126 805.4969 444.98126Q806.23126 444.98126 806.71564 444.27814Q807.21564 443.575 807.21564 441.46564Q807.21564 439.34064 806.71564 438.65314Q806.23126 437.95 805.48126 437.95Q804.7625 437.95 804.325 438.5594Q803.77814 439.34064 803.77814 441.46564ZM809.7 441.46564Q809.7 439.9344 810.0125 439.0125Q810.325 438.075 810.9344 437.575Q811.5594 437.075 812.4969 437.075Q813.1844 437.075 813.7 437.35626Q814.23126 437.6375 814.575 438.16876Q814.91876 438.6844 815.10626 439.4344Q815.29376 440.1844 815.29376 441.46564Q815.29376 442.98126 814.98126 443.90314Q814.6844 444.825 814.0594 445.34064Q813.45 445.84064 812.4969 445.84064Q811.2625 445.84064 810.54376 444.95Q809.7 443.8875 809.7 441.46564ZM810.77814 441.46564Q810.77814 443.575 811.27814 444.27814Q811.77814 444.98126 812.4969 444.98126Q813.23126 444.98126 813.71564 444.27814Q814.21564 443.575 814.21564 441.46564Q814.21564 439.34064 813.71564 438.65314Q813.23126 437.95 812.48126 437.95Q811.7625 437.95 811.325 438.5594Q810.77814 439.34064 810.77814 441.46564Z" fill-rule="nonzero"/><path fill="#757575" d="M25.909374 41.20625L27.659374 40.925Q27.8 41.971874 28.471874 42.534374Q29.14375 43.08125 30.346874 43.08125Q31.55 43.08125 32.128124 42.596874Q32.721874 42.096874 32.721874 41.440624Q32.721874 40.846874 32.20625 40.503124Q31.846874 40.26875 30.409374 39.909374Q28.471874 39.409374 27.721874 39.065624Q26.9875 38.70625 26.596874 38.08125Q26.20625 37.440624 26.20625 36.675Q26.20625 35.9875 26.51875 35.39375Q26.846874 34.8 27.39375 34.409374Q27.8 34.1125 28.503124 33.909374Q29.221874 33.690624 30.034374 33.690624Q31.253124 33.690624 32.175 34.05Q33.096874 34.39375 33.534374 35.003124Q33.971874 35.596874 34.14375 36.596874L32.425 36.83125Q32.3 36.034374 31.7375 35.596874Q31.175 35.14375 30.159374 35.14375Q28.940624 35.14375 28.425 35.55Q27.909374 35.940624 27.909374 36.471874Q27.909374 36.815624 28.128124 37.096874Q28.33125 37.378124 28.8 37.565624Q29.065624 37.659374 30.346874 38.003124Q32.221874 38.503124 32.95625 38.83125Q33.690624 39.14375 34.1125 39.753124Q34.534374 40.346874 34.534374 41.253124Q34.534374 42.128124 34.01875 42.909374Q33.503124 43.690624 32.534374 44.1125Q31.565624 44.534374 30.346874 44.534374Q28.33125 44.534374 27.26875 43.690624Q26.20625 42.846874 25.909374 41.20625ZM43.721874 40.95625L45.534374 41.190624Q45.1125 42.76875 43.940624 43.659374Q42.784374 44.534374 40.971874 44.534374Q38.70625 44.534374 37.3625 43.14375Q36.034374 41.7375 36.034374 39.20625Q36.034374 36.58125 37.378124 35.14375Q38.721874 33.690624 40.878124 33.690624Q42.95625 33.690624 44.26875 35.1125Q45.596874 36.51875 45.596874 39.096874Q45.596874 39.253124 45.58125 39.565624L37.846874 39.565624Q37.940624 41.26875 38.815624 42.175Q39.690624 43.08125 40.9875 43.08125Q41.95625 43.08125 42.628124 42.58125Q43.315624 42.065624 43.721874 40.95625ZM37.940624 38.1125L43.7375 38.1125Q43.628124 36.815624 43.08125 36.159374Q42.2375 35.14375 40.89375 35.14375Q39.690624 35.14375 38.8625 35.95625Q38.034374 36.753124 37.940624 38.1125ZM47.58125 44.3L47.58125 29.9875L49.33125 29.9875L49.33125 44.3L47.58125 44.3ZM58.721874 40.95625L60.534374 41.190624Q60.1125 42.76875 58.940624 43.659374Q57.784374 44.534374 55.971874 44.534374Q53.70625 44.534374 52.3625 43.14375Q51.034374 41.7375 51.034374 39.20625Q51.034374 36.58125 52.378124 35.14375Q53.721874 33.690624 55.878124 33.690624Q57.95625 33.690624 59.26875 35.1125Q60.596874 36.51875 60.596874 39.096874Q60.596874 39.253124 60.58125 39.565624L52.846874 39.565624Q52.940624 41.26875 53.815624 42.175Q54.690624 43.08125 55.9875 43.08125Q56.95625 43.08125 57.628124 42.58125Q58.315624 42.065624 58.721874 40.95625ZM52.940624 38.1125L58.7375 38.1125Q58.628124 36.815624 58.08125 36.159374Q57.2375 35.14375 55.89375 35.14375Q54.690624 35.14375 53.8625 35.95625Q53.034374 36.753124 52.940624 38.1125ZM69.39375 40.503124L71.1125 40.721874Q70.83125 42.51875 69.65938 43.534374Q68.50313 44.534374 66.8 44.534374Q64.675 44.534374 63.378124 43.14375Q62.08125 41.753124 62.08125 39.159374Q62.08125 37.471874 62.628124 36.221874Q63.190624 34.95625 64.33125 34.33125Q65.47188 33.690624 66.81563 33.690624Q68.50313 33.690624 69.56563 34.55Q70.64375 35.409374 70.95625 36.971874L69.2375 37.2375Q69.00313 36.190624 68.37813 35.675Q67.75313 35.14375 66.87813 35.14375Q65.55 35.14375 64.72188 36.096874Q63.89375 37.05 63.89375 39.096874Q63.89375 41.190624 64.69063 42.14375Q65.4875 43.08125 66.78438 43.08125Q67.81563 43.08125 68.50313 42.45625Q69.20625 41.815624 69.39375 40.503124ZM76.45625 42.721874L76.70625 44.284374Q75.97188 44.440624 75.37813 44.440624Q74.425 44.440624 73.89375 44.14375Q73.37813 43.83125 73.15938 43.346874Q72.94063 42.846874 72.94063 41.26875L72.94063 35.3L71.65938 35.3L71.65938 33.925L72.94063 33.925L72.94063 31.3625L74.69063 30.3L74.69063 33.925L76.45625 33.925L76.45625 35.3L74.69063 35.3L74.69063 41.3625Q74.69063 42.1125 74.78438 42.33125Q74.87813 42.534374 75.08125 42.675Q75.3 42.8 75.69063 42.8Q75.97188 42.8 76.45625 42.721874ZM78.62813 32.003124L78.62813 29.9875L80.39375 29.9875L80.39375 32.003124L78.62813 32.003124ZM78.62813 44.3L78.62813 33.925L80.39375 33.925L80.39375 44.3L78.62813 44.3ZM81.97188 39.1125Q81.97188 36.2375 83.56563 34.846874Q84.90938 33.690624 86.83125 33.690624Q88.97188 33.690624 90.31563 35.096874Q91.675 36.503124 91.675 38.971874Q91.675 40.971874 91.08125 42.128124Q90.4875 43.26875 89.33125 43.909374Q88.19063 44.534374 86.83125 44.534374Q84.64375 44.534374 83.3 43.14375Q81.97188 41.7375 81.97188 39.1125ZM83.76875 39.1125Q83.76875 41.1125 84.62813 42.096874Q85.50313 43.08125 86.83125 43.08125Q88.14375 43.08125 89.00313 42.096874Q89.87813 41.096874 89.87813 39.05Q89.87813 37.128124 89.00313 36.14375Q88.12813 35.14375 86.83125 35.14375Q85.50313 35.14375 84.62813 36.14375Q83.76875 37.128124 83.76875 39.1125ZM93.6125 44.3L93.6125 33.925L95.20625 33.925L95.20625 35.409374Q96.34688 33.690624 98.50313 33.690624Q99.44063 33.690624 100.22188 34.034374Q101.01875 34.3625 101.40938 34.909374Q101.8 35.45625 101.95625 36.20625Q102.05 36.70625 102.05 37.925L102.05 44.3L100.28438 44.3L100.28438 37.9875Q100.28438 36.909374 100.08125 36.378124Q99.87813 35.846874 99.34688 35.534374Q98.83125 35.221874 98.12813 35.221874Q97.00313 35.221874 96.19063 35.940624Q95.37813 36.64375 95.37813 38.628124L95.37813 44.3L93.6125 44.3ZM103.00313 48.26875L103.00313 47.003124L114.64375 47.003124L114.64375 48.26875L103.00313 48.26875ZM114.90938 41.20625L116.65938 40.925Q116.8 41.971874 117.47188 42.534374Q118.14375 43.08125 119.34688 43.08125Q120.55 43.08125 121.12813 42.596874Q121.72188 42.096874 121.72188 41.440624Q121.72188 40.846874 121.20625 40.503124Q120.84688 40.26875 119.40938 39.909374Q117.47188 39.409374 116.72188 39.065624Q115.9875 38.70625 115.59688 38.08125Q115.20625 37.440624 115.20625 36.675Q115.20625 35.9875 115.51875 35.39375Q115.84688 34.8 116.39375 34.409374Q116.8 34.1125 117.50313 33.909374Q118.22188 33.690624 119.03438 33.690624Q120.25313 33.690624 121.175 34.05Q122.09688 34.39375 122.53438 35.003124Q122.97188 35.596874 123.14375 36.596874L121.425 36.83125Q121.3 36.034374 120.7375 35.596874Q120.175 35.14375 119.15938 35.14375Q117.94063 35.14375 117.425 35.55Q116.90938 35.940624 116.90938 36.471874Q116.90938 36.815624 117.12813 37.096874Q117.33125 37.378124 117.8 37.565624Q118.06563 37.659374 119.34688 38.003124Q121.22188 38.503124 121.95625 38.83125Q122.69063 39.14375 123.1125 39.753124Q123.53438 40.346874 123.53438 41.253124Q123.53438 42.128124 123.01875 42.909374Q122.50313 43.690624 121.53438 44.1125Q120.56563 44.534374 119.34688 44.534374Q117.33125 44.534374 116.26875 43.690624Q115.20625 42.846874 114.90938 41.20625ZM124.97188 39.1125Q124.97188 36.2375 126.56563 34.846874Q127.90938 33.690624 129.83125 33.690624Q131.97188 33.690624 133.31563 35.096874Q134.675 36.503124 134.675 38.971874Q134.675 40.971874 134.08125 42.128124Q133.4875 43.26875 132.33125 43.909374Q131.19063 44.534374 129.83125 44.534374Q127.64375 44.534374 126.3 43.14375Q124.97188 41.7375 124.97188 39.1125ZM126.76875 39.1125Q126.76875 41.1125 127.62813 42.096874Q128.50313 43.08125 129.83125 43.08125Q131.14375 43.08125 132.00313 42.096874Q132.87813 41.096874 132.87813 39.05Q132.87813 37.128124 132.00313 36.14375Q131.12813 35.14375 129.83125 35.14375Q128.50313 35.14375 127.62813 36.14375Q126.76875 37.128124 126.76875 39.1125ZM136.59688 44.3L136.59688 33.925L138.175 33.925L138.175 35.503124Q138.78438 34.39375 139.3 34.05Q139.81563 33.690624 140.425 33.690624Q141.31563 33.690624 142.2375 34.253124L141.62813 35.89375Q140.9875 35.503124 140.34688 35.503124Q139.76875 35.503124 139.3 35.8625Q138.84688 36.20625 138.64375 36.815624Q138.3625 37.753124 138.3625 38.8625L138.3625 44.3L136.59688 44.3ZM147.45625 42.721874L147.70625 44.284374Q146.97188 44.440624 146.37813 44.440624Q145.425 44.440624 144.89375 44.14375Q144.37813 43.83125 144.15938 43.346874Q143.94063 42.846874 143.94063 41.26875L143.94063 35.3L142.65938 35.3L142.65938 33.925L143.94063 33.925L143.94063 31.3625L145.69063 30.3L145.69063 33.925L147.45625 33.925L147.45625 35.3L145.69063 35.3L145.69063 41.3625Q145.69063 42.1125 145.78438 42.33125Q145.87813 42.534374 146.08125 42.675Q146.3 42.8 146.69063 42.8Q146.97188 42.8 147.45625 42.721874Z" fill-rule="nonzero"/></svg>