<svg version="1.1" viewBox="0.0 0.0 819.0 506.0" fill="none" stroke="none" stroke-linecap="square" stroke-miterlimit="10" width="819" height="506" xmlns:xlink="http://www.w3.org/1999/xlink" xmlns="http://www.w3.org/2000/svg"><path fill="#ffffff" d="M0 0L819.0 0L819.0 506.0L0 506.0L0 0Z" fill-rule="nonzero"/><path stroke="#cccccc" stroke-width="1.0" stroke-linecap="butt" d="M242.5 73.5L242.5 428.5" fill-rule="nonzero"/><path stroke="#cccccc" stroke-width="1.0" stroke-linecap="butt" d="M380.5 73.5L380.5 428.5" fill-rule="nonzero"/><path stroke="#cccccc" stroke-width="1.0" stroke-linecap="butt" d="M518.5 73.5L518.5 428.5" fill-rule="nonzero"/><path stroke="#cccccc" stroke-width="1.0" stroke-linecap="butt" d="M656.5 73.5L656.5 428.5" fill-rule="nonzero"/><path stroke="#cccccc" stroke-width="1.0" stroke-linecap="butt" d="M793.5 73.5L793.5 428.5" fill-rule="nonzero"/><path stroke="#333333" stroke-width="1.0" stroke-linecap="butt" d="M105.5 428.5L793.5 428.5" fill-rule="nonzero"/><path stroke="#cccccc" stroke-width="1.0" stroke-linecap="butt" d="M105.5 357.5L793.5 357.5" fill-rule="nonzero"/><path stroke="#cccccc" stroke-width="1.0" stroke-linecap="butt" d="M105.5 286.5L793.5 286.5" fill-rule="nonzero"/><path stroke="#cccccc" stroke-width="1.0" stroke-linecap="butt" d="M105.5 215.5L793.5 215.5" fill-rule="nonzero"/><path stroke="#cccccc" stroke-width="1.0" stroke-linecap="butt" d="M105.5 144.5L793.5 144.5" fill-rule="nonzero"/><path stroke="#cccccc" stroke-width="1.0" stroke-linecap="butt" d="M105.5 73.5L793.5 73.5" fill-rule="nonzero"/><clipPath id="id_0"><path d="M105.3 73.166664L793.7 73.166664L793.7 428.7L105.3 428.7L105.3 73.166664Z" clip-rule="nonzero"/></clipPath><path stroke="#4285f4" stroke-width="2.0" stroke-linecap="butt" clip-path="url(#id_0)" d="M105.3 428.69928C105.3 428.69928 105.306885 428.6981 105.310326 428.69788C105.31377 428.69763 105.3218 428.6981 105.32754 428.69788C105.333275 428.69763 105.33901 428.69705 105.34475 428.69644C105.35049 428.69586 105.35622 428.69492 105.36195 428.6943C105.36769 428.6937 105.43079 428.68832 105.46522 428.68506C105.49964 428.68182 105.57995 428.67453 105.63732 428.668C105.69469 428.6615 105.75205 428.6546 105.80942 428.64597C105.86679 428.6373 105.92416 428.6255 105.98152 428.6161C106.03889 428.60672 106.66993 428.51544 107.01413 428.45752C107.35834 428.3996 108.161476 428.24527 108.73515 428.14252C109.30882 428.03976 109.88249 427.96393 110.45617 427.84103C111.02984 427.71814 111.603516 427.54767 112.177185 427.40515C112.750854 427.2626 119.06126 425.7957 122.50329 424.8894C125.94532 423.9831 133.97673 421.63934 139.71346 420.0193C145.45018 418.39926 151.1869 417.01328 156.92363 415.1691C162.66035 413.32495 168.39708 410.9726 174.1338 408.95438C179.87053 406.9362 242.97449 386.43048 277.39484 373.58734C311.8152 360.74423 392.1293 330.59348 449.49655 304.1012C506.8638 277.60895 793.7 125.16626 793.7 125.16626" fill-rule="nonzero"/><path fill="#000000" fill-opacity="0.0" clip-path="url(#id_0)" d="M108.3 428.69928C108.3 430.35614 106.956856 431.69928 105.3 431.69928C103.64314 431.69928 102.3 430.35614 102.3 428.69928C102.3 427.04242 103.64314 425.69928 105.3 425.69928C106.956856 425.69928 108.3 427.04242 108.3 428.69928Z" fill-rule="nonzero"/><path fill="#000000" fill-opacity="0.0" clip-path="url(#id_0)" d="M108.310326 428.69788C108.310326 430.3547 106.96718 431.69788 105.310326 431.69788C103.65347 431.69788 102.310326 430.3547 102.310326 428.69788C102.310326 427.04102 103.65347 425.69788 105.310326 425.69788C106.96718 425.69788 108.310326 427.04102 108.310326 428.69788Z" fill-rule="nonzero"/><path fill="#000000" fill-opacity="0.0" clip-path="url(#id_0)" d="M108.32754 428.69788C108.32754 430.3547 106.98439 431.69788 105.32754 431.69788C103.670685 431.69788 102.32754 430.3547 102.32754 428.69788C102.32754 427.04102 103.670685 425.69788 105.32754 425.69788C106.98439 425.69788 108.32754 427.04102 108.32754 428.69788Z" fill-rule="nonzero"/><path fill="#000000" fill-opacity="0.0" clip-path="url(#id_0)" d="M108.34475 428.69644C108.34475 430.3533 107.0016 431.69644 105.34475 431.69644C103.68789 431.69644 102.34475 430.3533 102.34475 428.69644C102.34475 427.03958 103.68789 425.69644 105.34475 425.69644C107.0016 425.69644 108.34475 427.03958 108.34475 428.69644Z" fill-rule="nonzero"/><path fill="#000000" fill-opacity="0.0" clip-path="url(#id_0)" d="M108.36195 428.6943C108.36195 430.35117 107.018814 431.6943 105.36195 431.6943C103.7051 431.6943 102.36195 430.35117 102.36195 428.6943C102.36195 427.03745 103.7051 425.6943 105.36195 425.6943C107.018814 425.6943 108.36195 427.03745 108.36195 428.6943Z" fill-rule="nonzero"/><path fill="#000000" fill-opacity="0.0" clip-path="url(#id_0)" d="M108.46522 428.68506C108.46522 430.34192 107.12207 431.68506 105.46522 431.68506C103.808365 431.68506 102.46522 430.34192 102.46522 428.68506C102.46522 427.0282 103.808365 425.68506 105.46522 425.68506C107.12207 425.68506 108.46522 427.0282 108.46522 428.68506Z" fill-rule="nonzero"/><path fill="#000000" fill-opacity="0.0" clip-path="url(#id_0)" d="M108.63732 428.668C108.63732 430.32486 107.294174 431.668 105.63732 431.668C103.98047 431.668 102.63732 430.32486 102.63732 428.668C102.63732 427.01114 103.98047 425.668 105.63732 425.668C107.294174 425.668 108.63732 427.01114 108.63732 428.668Z" fill-rule="nonzero"/><path fill="#000000" fill-opacity="0.0" clip-path="url(#id_0)" d="M108.80942 428.64597C108.80942 430.30283 107.46628 431.64597 105.80942 431.64597C104.152565 431.64597 102.80942 430.30283 102.80942 428.64597C102.80942 426.9891 104.152565 425.64597 105.80942 425.64597C107.46628 425.64597 108.80942 426.9891 108.80942 428.64597Z" fill-rule="nonzero"/><path fill="#000000" fill-opacity="0.0" clip-path="url(#id_0)" d="M108.98152 428.6161C108.98152 430.27295 107.638374 431.6161 105.98152 431.6161C104.32467 431.6161 102.98152 430.27295 102.98152 428.6161C102.98152 426.95923 104.32467 425.6161 105.98152 425.6161C107.638374 425.6161 108.98152 426.95923 108.98152 428.6161Z" fill-rule="nonzero"/><path fill="#000000" fill-opacity="0.0" clip-path="url(#id_0)" d="M110.01413 428.45752C110.01413 430.11438 108.67099 431.45752 107.01413 431.45752C105.35728 431.45752 104.01413 430.11438 104.01413 428.45752C104.01413 426.80066 105.35728 425.45752 107.01413 425.45752C108.67099 425.45752 110.01413 426.80066 110.01413 428.45752Z" fill-rule="nonzero"/><path fill="#000000" fill-opacity="0.0" clip-path="url(#id_0)" d="M111.73515 428.14252C111.73515 429.79938 110.392006 431.14252 108.73515 431.14252C107.07829 431.14252 105.73515 429.79938 105.73515 428.14252C105.73515 426.48566 107.07829 425.14252 108.73515 425.14252C110.392006 425.14252 111.73515 426.48566 111.73515 428.14252Z" fill-rule="nonzero"/><path fill="#000000" fill-opacity="0.0" clip-path="url(#id_0)" d="M113.45617 427.84103C113.45617 429.4979 112.11302 430.84103 110.45617 430.84103C108.79932 430.84103 107.45617 429.4979 107.45617 427.84103C107.45617 426.18417 108.79932 424.84103 110.45617 424.84103C112.11302 424.84103 113.45617 426.18417 113.45617 427.84103Z" fill-rule="nonzero"/><path fill="#000000" fill-opacity="0.0" clip-path="url(#id_0)" d="M115.177185 427.40515C115.177185 429.062 113.83404 430.40515 112.177185 430.40515C110.52033 430.40515 109.177185 429.062 109.177185 427.40515C109.177185 425.7483 110.52033 424.40515 112.177185 424.40515C113.83404 424.40515 115.177185 425.7483 115.177185 427.40515Z" fill-rule="nonzero"/><path fill="#000000" fill-opacity="0.0" clip-path="url(#id_0)" d="M125.50329 424.8894C125.50329 426.54623 124.16014 427.8894 122.50329 427.8894C120.846436 427.8894 119.50329 426.54623 119.50329 424.8894C119.50329 423.23254 120.846436 421.8894 122.50329 421.8894C124.16014 421.8894 125.50329 423.23254 125.50329 424.8894Z" fill-rule="nonzero"/><path fill="#000000" fill-opacity="0.0" clip-path="url(#id_0)" d="M142.71346 420.0193C142.71346 421.67615 141.37032 423.0193 139.71346 423.0193C138.05661 423.0193 136.71346 421.67615 136.71346 420.0193C136.71346 418.36246 138.05661 417.0193 139.71346 417.0193C141.37032 417.0193 142.71346 418.36246 142.71346 420.0193Z" fill-rule="nonzero"/><path fill="#000000" fill-opacity="0.0" clip-path="url(#id_0)" d="M159.92363 415.1691C159.92363 416.82596 158.58049 418.1691 156.92363 418.1691C155.26678 418.1691 153.92363 416.82596 153.92363 415.1691C153.92363 413.51227 155.26678 412.1691 156.92363 412.1691C158.58049 412.1691 159.92363 413.51227 159.92363 415.1691Z" fill-rule="nonzero"/><path fill="#000000" fill-opacity="0.0" clip-path="url(#id_0)" d="M177.1338 408.95438C177.1338 410.61124 175.79066 411.95438 174.1338 411.95438C172.47694 411.95438 171.1338 410.61124 171.1338 408.95438C171.1338 407.29755 172.47694 405.95438 174.1338 405.95438C175.79066 405.95438 177.1338 407.29755 177.1338 408.95438Z" fill-rule="nonzero"/><path fill="#000000" fill-opacity="0.0" clip-path="url(#id_0)" d="M280.39484 373.58734C280.39484 375.2442 279.0517 376.58734 277.39484 376.58734C275.73798 376.58734 274.39484 375.2442 274.39484 373.58734C274.39484 371.9305 275.73798 370.58734 277.39484 370.58734C279.0517 370.58734 280.39484 371.9305 280.39484 373.58734Z" fill-rule="nonzero"/><path fill="#000000" fill-opacity="0.0" clip-path="url(#id_0)" d="M452.49655 304.1012C452.49655 305.75806 451.1534 307.1012 449.49655 307.1012C447.8397 307.1012 446.49655 305.75806 446.49655 304.1012C446.49655 302.44437 447.8397 301.1012 449.49655 301.1012C451.1534 301.1012 452.49655 302.44437 452.49655 304.1012Z" fill-rule="nonzero"/><path fill="#000000" fill-opacity="0.0" clip-path="url(#id_0)" d="M796.7 125.16626C796.7 126.82311 795.3569 128.16626 793.7 128.16626C792.04315 128.16626 790.7 126.82311 790.7 125.16626C790.7 123.50941 792.04315 122.16626 793.7 122.16626C795.3569 122.16626 796.7 123.50941 796.7 125.16626Z" fill-rule="nonzero"/><path fill="#000000" d="M446.79688 477.7L446.79688 471.48126L447.73438 471.48126L447.73438 472.35626Q448.42188 471.34064 449.71875 471.34064Q450.28125 471.34064 450.75 471.54376Q451.23438 471.7469 451.46875 472.075Q451.70312 472.40314 451.79688 472.84064Q451.84375 473.1375 451.84375 473.8719L451.84375 477.7L450.79688 477.7L450.79688 473.91876Q450.79688 473.2625 450.67188 472.95Q450.54688 472.6375 450.23438 472.45Q449.92188 472.2469 449.5 472.2469Q448.82812 472.2469 448.32812 472.6844Q447.84375 473.10626 447.84375 474.29376L447.84375 477.7L446.79688 477.7Z" fill-rule="nonzero"/><path fill="#000000" d="M36.30001 274.63644L30.081263 274.63644L30.081263 273.69894L30.956263 273.69894Q30.487513 273.40207 30.221888 272.9177Q29.940638 272.43332 29.940638 271.80832Q29.940638 271.12082 30.221888 270.68332Q30.503138 270.2302 31.018763 270.05832Q29.940638 269.30832 29.940638 268.13644Q29.940638 267.19894 30.456263 266.71457Q30.956263 266.21457 32.034386 266.21457L36.30001 266.21457L36.30001 267.26144L32.378136 267.26144Q31.753138 267.26144 31.471888 267.37082Q31.190638 267.46457 31.018763 267.7302Q30.846888 267.99582 30.846888 268.37082Q30.846888 269.02707 31.284388 269.46457Q31.721888 269.88644 32.690636 269.88644L36.30001 269.88644L36.30001 270.94894L32.253136 270.94894Q31.550013 270.94894 31.206263 271.21457Q30.846888 271.46457 30.846888 272.0427Q30.846888 272.49582 31.081263 272.87082Q31.315638 273.24582 31.768763 273.4177Q32.221886 273.58957 33.065636 273.58957L36.30001 273.58957L36.30001 274.63644ZM28.925013 264.63644L27.706263 264.63644L27.706263 263.57394L28.925013 263.57394L28.925013 264.63644ZM36.30001 264.63644L30.081263 264.63644L30.081263 263.57394L36.30001 263.57394L36.30001 264.63644ZM34.01876 257.57394L34.159386 256.5427Q35.221886 256.71457 35.83126 257.4177Q36.440636 258.12082 36.440636 259.13644Q36.440636 260.4177 35.61251 261.19894Q34.76876 261.96457 33.20626 261.96457Q32.20626 261.96457 31.456263 261.63644Q30.690638 261.2927 30.315638 260.62082Q29.940638 259.93332 29.940638 259.12082Q29.940638 258.12082 30.456263 257.4802Q30.956263 256.82394 31.909388 256.63644L32.065636 257.6677Q31.440638 257.80832 31.128138 258.18332Q30.800013 258.55832 30.800013 259.08957Q30.800013 259.88644 31.378138 260.38644Q31.940638 260.88644 33.17501 260.88644Q34.440636 260.88644 35.003136 260.40207Q35.565636 259.9177 35.565636 259.15207Q35.565636 258.52707 35.190636 258.12082Q34.815636 257.69894 34.01876 257.57394ZM36.30001 255.65208L30.081263 255.65208L30.081263 254.69896L31.018763 254.69896Q30.362513 254.33958 30.159388 254.04271Q29.940638 253.73021 29.940638 253.35521Q29.940638 252.82396 30.268763 252.27708L31.253138 252.63646Q31.018763 253.02708 31.018763 253.40208Q31.018763 253.76146 31.237513 254.04271Q31.440638 254.30833 31.815638 254.41771Q32.378136 254.60521 33.034386 254.60521L36.30001 254.60521L36.30001 255.65208ZM33.190636 252.02708Q31.456263 252.02708 30.628138 251.07396Q29.940638 250.27708 29.940638 249.12083Q29.940638 247.83958 30.784388 247.02708Q31.612513 246.19896 33.096886 246.19896Q34.30001 246.19896 34.98751 246.55833Q35.67501 246.91771 36.065636 247.62083Q36.440636 248.30833 36.440636 249.12083Q36.440636 250.41771 35.61251 251.23021Q34.76876 252.02708 33.190636 252.02708ZM33.190636 250.94896Q34.378136 250.94896 34.971886 250.43333Q35.565636 249.90208 35.565636 249.12083Q35.565636 248.32396 34.971886 247.80833Q34.378136 247.29271 33.159386 247.29271Q32.003136 247.29271 31.409388 247.82396Q30.815638 248.33958 30.815638 249.12083Q30.815638 249.90208 31.409388 250.43333Q31.987513 250.94896 33.190636 250.94896ZM34.440636 245.05833L34.284386 244.02708Q34.909386 243.93333 35.23751 243.54271Q35.565636 243.13646 35.565636 242.40208Q35.565636 241.68333 35.284386 241.33958Q34.98751 240.98021 34.58126 240.98021Q34.221886 240.98021 34.01876 241.29271Q33.878136 241.51146 33.659386 242.37083Q33.36251 243.52708 33.159386 243.98021Q32.940636 244.41771 32.565636 244.65208Q32.190636 244.88646 31.721888 244.88646Q31.315638 244.88646 30.956263 244.69896Q30.596888 244.51146 30.362513 244.18333Q30.190638 243.93333 30.065638 243.51146Q29.940638 243.08958 29.940638 242.58958Q29.940638 241.87083 30.159388 241.32396Q30.362513 240.76146 30.721888 240.49583Q31.081263 240.23021 31.675013 240.13646L31.815638 241.16771Q31.346888 241.23021 31.081263 241.57396Q30.800013 241.90208 30.800013 242.52708Q30.800013 243.24583 31.050013 243.55833Q31.284388 243.87083 31.612513 243.87083Q31.815638 243.87083 31.971888 243.74583Q32.14376 243.60521 32.253136 243.33958Q32.315636 243.18333 32.51876 242.40208Q32.83126 241.27708 33.01876 240.83958Q33.20626 240.40208 33.565636 240.15208Q33.92501 239.90208 34.471886 239.90208Q35.003136 239.90208 35.471886 240.21458Q35.92501 240.51146 36.190636 241.08958Q36.440636 241.66771 36.440636 242.40208Q36.440636 243.62083 35.940636 244.26146Q35.42501 244.88646 34.440636 245.05833Z" fill-rule="nonzero"/><path fill="#000000" d="M92.8 428.46564Q92.8 426.9344 93.1125 426.0125Q93.425 425.075 94.03438 424.575Q94.65938 424.075 95.59688 424.075Q96.28438 424.075 96.8 424.35626Q97.33125 424.6375 97.675 425.16876Q98.01875 425.6844 98.20625 426.4344Q98.39375 427.1844 98.39375 428.46564Q98.39375 429.98126 98.08125 430.90314Q97.78438 431.825 97.15938 432.34064Q96.55 432.84064 95.59688 432.84064Q94.3625 432.84064 93.64375 431.95Q92.8 430.8875 92.8 428.46564ZM93.87813 428.46564Q93.87813 430.575 94.37813 431.27814Q94.87813 431.98126 95.59688 431.98126Q96.33125 431.98126 96.81563 431.27814Q97.31563 430.575 97.31563 428.46564Q97.31563 426.34064 96.81563 425.65314Q96.33125 424.95 95.58125 424.95Q94.8625 424.95 94.425 425.5594Q93.87813 426.34064 93.87813 428.46564Z" fill-rule="nonzero"/><path fill="#000000" d="M61.76875 361.59332L60.721874 361.59332L60.721874 354.87457Q60.33125 355.23395 59.70625 355.60895Q59.096874 355.96832 58.6125 356.1402L58.6125 355.12457Q59.4875 354.7027 60.14375 354.12457Q60.815624 353.53082 61.096874 352.96832L61.76875 352.96832L61.76875 361.59332ZM64.8 357.35895Q64.8 355.8277 65.1125 354.90582Q65.425 353.96832 66.03438 353.46832Q66.65938 352.96832 67.59688 352.96832Q68.28438 352.96832 68.8 353.24957Q69.33125 353.53082 69.675 354.06207Q70.01875 354.5777 70.20625 355.3277Q70.39375 356.0777 70.39375 357.35895Q70.39375 358.87457 70.08125 359.79645Q69.78438 360.71832 69.15938 361.23395Q68.55 361.73395 67.59688 361.73395Q66.3625 361.73395 65.64375 360.84332Q64.8 359.78082 64.8 357.35895ZM65.87813 357.35895Q65.87813 359.46832 66.37813 360.17145Q66.87813 360.87457 67.59688 360.87457Q68.33125 360.87457 68.81563 360.17145Q69.31563 359.46832 69.31563 357.35895Q69.31563 355.23395 68.81563 354.54645Q68.33125 353.84332 67.58125 353.84332Q66.8625 353.84332 66.425 354.4527Q65.87813 355.23395 65.87813 357.35895ZM71.8 357.35895Q71.8 355.8277 72.1125 354.90582Q72.425 353.96832 73.03438 353.46832Q73.65938 352.96832 74.59688 352.96832Q75.28438 352.96832 75.8 353.24957Q76.33125 353.53082 76.675 354.06207Q77.01875 354.5777 77.20625 355.3277Q77.39375 356.0777 77.39375 357.35895Q77.39375 358.87457 77.08125 359.79645Q76.78438 360.71832 76.15938 361.23395Q75.55 361.73395 74.59688 361.73395Q73.3625 361.73395 72.64375 360.84332Q71.8 359.78082 71.8 357.35895ZM72.87813 357.35895Q72.87813 359.46832 73.37813 360.17145Q73.87813 360.87457 74.59688 360.87457Q75.33125 360.87457 75.81563 360.17145Q76.31563 359.46832 76.31563 357.35895Q76.31563 355.23395 75.81563 354.54645Q75.33125 353.84332 74.58125 353.84332Q73.8625 353.84332 73.425 354.4527Q72.87813 355.23395 72.87813 357.35895ZM78.8 357.35895Q78.8 355.8277 79.1125 354.90582Q79.425 353.96832 80.03438 353.46832Q80.65938 352.96832 81.59688 352.96832Q82.28438 352.96832 82.8 353.24957Q83.33125 353.53082 83.675 354.06207Q84.01875 354.5777 84.20625 355.3277Q84.39375 356.0777 84.39375 357.35895Q84.39375 358.87457 84.08125 359.79645Q83.78438 360.71832 83.15938 361.23395Q82.55 361.73395 81.59688 361.73395Q80.3625 361.73395 79.64375 360.84332Q78.8 359.78082 78.8 357.35895ZM79.87813 357.35895Q79.87813 359.46832 80.37813 360.17145Q80.87813 360.87457 81.59688 360.87457Q82.33125 360.87457 82.81563 360.17145Q83.31563 359.46832 83.31563 357.35895Q83.31563 355.23395 82.81563 354.54645Q82.33125 353.84332 81.58125 353.84332Q80.8625 353.84332 80.425 354.4527Q79.87813 355.23395 79.87813 357.35895ZM85.8 357.35895Q85.8 355.8277 86.1125 354.90582Q86.425 353.96832 87.03438 353.46832Q87.65938 352.96832 88.59688 352.96832Q89.28438 352.96832 89.8 353.24957Q90.33125 353.53082 90.675 354.06207Q91.01875 354.5777 91.20625 355.3277Q91.39375 356.0777 91.39375 357.35895Q91.39375 358.87457 91.08125 359.79645Q90.78438 360.71832 90.15938 361.23395Q89.55 361.73395 88.59688 361.73395Q87.3625 361.73395 86.64375 360.84332Q85.8 359.78082 85.8 357.35895ZM86.87813 357.35895Q86.87813 359.46832 87.37813 360.17145Q87.87813 360.87457 88.59688 360.87457Q89.33125 360.87457 89.81563 360.17145Q90.31563 359.46832 90.31563 357.35895Q90.31563 355.23395 89.81563 354.54645Q89.33125 353.84332 88.58125 353.84332Q87.8625 353.84332 87.425 354.4527Q86.87813 355.23395 86.87813 357.35895ZM92.8 357.35895Q92.8 355.8277 93.1125 354.90582Q93.425 353.96832 94.03438 353.46832Q94.65938 352.96832 95.59688 352.96832Q96.28438 352.96832 96.8 353.24957Q97.33125 353.53082 97.675 354.06207Q98.01875 354.5777 98.20625 355.3277Q98.39375 356.0777 98.39375 357.35895Q98.39375 358.87457 98.08125 359.79645Q97.78438 360.71832 97.15938 361.23395Q96.55 361.73395 95.59688 361.73395Q94.3625 361.73395 93.64375 360.84332Q92.8 359.78082 92.8 357.35895ZM93.87813 357.35895Q93.87813 359.46832 94.37813 360.17145Q94.87813 360.87457 95.59688 360.87457Q96.33125 360.87457 96.81563 360.17145Q97.31563 359.46832 97.31563 357.35895Q97.31563 355.23395 96.81563 354.54645Q96.33125 353.84332 95.58125 353.84332Q94.8625 353.84332 94.425 354.4527Q93.87813 355.23395 93.87813 357.35895Z" fill-rule="nonzero"/><path fill="#000000" d="M63.346874 289.47104L63.346874 290.48666L57.659374 290.48666Q57.659374 290.11166 57.784374 289.7523Q58.003124 289.17416 58.471874 288.61166Q58.95625 288.04916 59.8625 287.3148Q61.26875 286.15854 61.753124 285.48666Q62.253124 284.8148 62.253124 284.22104Q62.253124 283.59604 61.8 283.17416Q61.346874 282.73666 60.628124 282.73666Q59.8625 282.73666 59.409374 283.1898Q58.95625 283.6429 58.940624 284.4554L57.8625 284.34604Q57.971874 283.1273 58.690624 282.5023Q59.425 281.86166 60.659374 281.86166Q61.89375 281.86166 62.6125 282.54916Q63.33125 283.23666 63.33125 284.2523Q63.33125 284.7679 63.1125 285.2679Q62.909374 285.7523 62.409374 286.3148Q61.925 286.86166 60.8 287.8148Q59.846874 288.61166 59.565624 288.90854Q59.3 289.1898 59.128124 289.47104L63.346874 289.47104ZM64.8 286.2523Q64.8 284.72104 65.1125 283.79916Q65.425 282.86166 66.03438 282.36166Q66.65938 281.86166 67.59688 281.86166Q68.28438 281.86166 68.8 282.1429Q69.33125 282.42416 69.675 282.9554Q70.01875 283.47104 70.20625 284.22104Q70.39375 284.97104 70.39375 286.2523Q70.39375 287.7679 70.08125 288.6898Q69.78438 289.61166 69.15938 290.1273Q68.55 290.6273 67.59688 290.6273Q66.3625 290.6273 65.64375 289.73666Q64.8 288.67416 64.8 286.2523ZM65.87813 286.2523Q65.87813 288.36166 66.37813 289.0648Q66.87813 289.7679 67.59688 289.7679Q68.33125 289.7679 68.81563 289.0648Q69.31563 288.36166 69.31563 286.2523Q69.31563 284.1273 68.81563 283.4398Q68.33125 282.73666 67.58125 282.73666Q66.8625 282.73666 66.425 283.34604Q65.87813 284.1273 65.87813 286.2523ZM71.8 286.2523Q71.8 284.72104 72.1125 283.79916Q72.425 282.86166 73.03438 282.36166Q73.65938 281.86166 74.59688 281.86166Q75.28438 281.86166 75.8 282.1429Q76.33125 282.42416 76.675 282.9554Q77.01875 283.47104 77.20625 284.22104Q77.39375 284.97104 77.39375 286.2523Q77.39375 287.7679 77.08125 288.6898Q76.78438 289.61166 76.15938 290.1273Q75.55 290.6273 74.59688 290.6273Q73.3625 290.6273 72.64375 289.73666Q71.8 288.67416 71.8 286.2523ZM72.87813 286.2523Q72.87813 288.36166 73.37813 289.0648Q73.87813 289.7679 74.59688 289.7679Q75.33125 289.7679 75.81563 289.0648Q76.31563 288.36166 76.31563 286.2523Q76.31563 284.1273 75.81563 283.4398Q75.33125 282.73666 74.58125 282.73666Q73.8625 282.73666 73.425 283.34604Q72.87813 284.1273 72.87813 286.2523ZM78.8 286.2523Q78.8 284.72104 79.1125 283.79916Q79.425 282.86166 80.03438 282.36166Q80.65938 281.86166 81.59688 281.86166Q82.28438 281.86166 82.8 282.1429Q83.33125 282.42416 83.675 282.9554Q84.01875 283.47104 84.20625 284.22104Q84.39375 284.97104 84.39375 286.2523Q84.39375 287.7679 84.08125 288.6898Q83.78438 289.61166 83.15938 290.1273Q82.55 290.6273 81.59688 290.6273Q80.3625 290.6273 79.64375 289.73666Q78.8 288.67416 78.8 286.2523ZM79.87813 286.2523Q79.87813 288.36166 80.37813 289.0648Q80.87813 289.7679 81.59688 289.7679Q82.33125 289.7679 82.81563 289.0648Q83.31563 288.36166 83.31563 286.2523Q83.31563 284.1273 82.81563 283.4398Q82.33125 282.73666 81.58125 282.73666Q80.8625 282.73666 80.425 283.34604Q79.87813 284.1273 79.87813 286.2523ZM85.8 286.2523Q85.8 284.72104 86.1125 283.79916Q86.425 282.86166 87.03438 282.36166Q87.65938 281.86166 88.59688 281.86166Q89.28438 281.86166 89.8 282.1429Q90.33125 282.42416 90.675 282.9554Q91.01875 283.47104 91.20625 284.22104Q91.39375 284.97104 91.39375 286.2523Q91.39375 287.7679 91.08125 288.6898Q90.78438 289.61166 90.15938 290.1273Q89.55 290.6273 88.59688 290.6273Q87.3625 290.6273 86.64375 289.73666Q85.8 288.67416 85.8 286.2523ZM86.87813 286.2523Q86.87813 288.36166 87.37813 289.0648Q87.87813 289.7679 88.59688 289.7679Q89.33125 289.7679 89.81563 289.0648Q90.31563 288.36166 90.31563 286.2523Q90.31563 284.1273 89.81563 283.4398Q89.33125 282.73666 88.58125 282.73666Q87.8625 282.73666 87.425 283.34604Q86.87813 284.1273 86.87813 286.2523ZM92.8 286.2523Q92.8 284.72104 93.1125 283.79916Q93.425 282.86166 94.03438 282.36166Q94.65938 281.86166 95.59688 281.86166Q96.28438 281.86166 96.8 282.1429Q97.33125 282.42416 97.675 282.9554Q98.01875 283.47104 98.20625 284.22104Q98.39375 284.97104 98.39375 286.2523Q98.39375 287.7679 98.08125 288.6898Q97.78438 289.61166 97.15938 290.1273Q96.55 290.6273 95.59688 290.6273Q94.3625 290.6273 93.64375 289.73666Q92.8 288.67416 92.8 286.2523ZM93.87813 286.2523Q93.87813 288.36166 94.37813 289.0648Q94.87813 289.7679 95.59688 289.7679Q96.33125 289.7679 96.81563 289.0648Q97.31563 288.36166 97.31563 286.2523Q97.31563 284.1273 96.81563 283.4398Q96.33125 282.73666 95.58125 282.73666Q94.8625 282.73666 94.425 283.34604Q93.87813 284.1273 93.87813 286.2523Z" fill-rule="nonzero"/><path fill="#000000" d="M57.8 217.11438L58.8625 216.97375Q59.034374 217.86438 59.471874 218.27063Q59.909374 218.66125 60.534374 218.66125Q61.284374 218.66125 61.8 218.14563Q62.315624 217.63 62.315624 216.86438Q62.315624 216.14563 61.83125 215.67688Q61.3625 215.1925 60.628124 215.1925Q60.33125 215.1925 59.878124 215.3175L60.003124 214.38Q60.1125 214.39563 60.175 214.39563Q60.846874 214.39563 61.378124 214.05188Q61.925 213.6925 61.925 212.95813Q61.925 212.38 61.534374 212.005Q61.14375 211.61438 60.51875 211.61438Q59.909374 211.61438 59.4875 212.005Q59.08125 212.39563 58.971874 213.16125L57.909374 212.97375Q58.096874 211.92688 58.784374 211.34875Q59.471874 210.755 60.4875 210.755Q61.190624 210.755 61.784374 211.0675Q62.378124 211.36438 62.690624 211.88Q63.003124 212.39563 63.003124 212.98938Q63.003124 213.53625 62.70625 214.005Q62.409374 214.45813 61.83125 214.72375Q62.58125 214.89563 63.003124 215.45813Q63.425 216.005 63.425 216.84875Q63.425 217.97375 62.596874 218.755Q61.784374 219.53625 60.534374 219.53625Q59.409374 219.53625 58.659374 218.86438Q57.909374 218.17688 57.8 217.11438ZM64.8 215.14563Q64.8 213.61438 65.1125 212.6925Q65.425 211.755 66.03438 211.255Q66.65938 210.755 67.59688 210.755Q68.28438 210.755 68.8 211.03625Q69.33125 211.3175 69.675 211.84875Q70.01875 212.36438 70.20625 213.11438Q70.39375 213.86438 70.39375 215.14563Q70.39375 216.66125 70.08125 217.58313Q69.78438 218.505 69.15938 219.02063Q68.55 219.52063 67.59688 219.52063Q66.3625 219.52063 65.64375 218.63Q64.8 217.5675 64.8 215.14563ZM65.87813 215.14563Q65.87813 217.255 66.37813 217.95813Q66.87813 218.66125 67.59688 218.66125Q68.33125 218.66125 68.81563 217.95813Q69.31563 217.255 69.31563 215.14563Q69.31563 213.02063 68.81563 212.33313Q68.33125 211.63 67.58125 211.63Q66.8625 211.63 66.425 212.23938Q65.87813 213.02063 65.87813 215.14563ZM71.8 215.14563Q71.8 213.61438 72.1125 212.6925Q72.425 211.755 73.03438 211.255Q73.65938 210.755 74.59688 210.755Q75.28438 210.755 75.8 211.03625Q76.33125 211.3175 76.675 211.84875Q77.01875 212.36438 77.20625 213.11438Q77.39375 213.86438 77.39375 215.14563Q77.39375 216.66125 77.08125 217.58313Q76.78438 218.505 76.15938 219.02063Q75.55 219.52063 74.59688 219.52063Q73.3625 219.52063 72.64375 218.63Q71.8 217.5675 71.8 215.14563ZM72.87813 215.14563Q72.87813 217.255 73.37813 217.95813Q73.87813 218.66125 74.59688 218.66125Q75.33125 218.66125 75.81563 217.95813Q76.31563 217.255 76.31563 215.14563Q76.31563 213.02063 75.81563 212.33313Q75.33125 211.63 74.58125 211.63Q73.8625 211.63 73.425 212.23938Q72.87813 213.02063 72.87813 215.14563ZM78.8 215.14563Q78.8 213.61438 79.1125 212.6925Q79.425 211.755 80.03438 211.255Q80.65938 210.755 81.59688 210.755Q82.28438 210.755 82.8 211.03625Q83.33125 211.3175 83.675 211.84875Q84.01875 212.36438 84.20625 213.11438Q84.39375 213.86438 84.39375 215.14563Q84.39375 216.66125 84.08125 217.58313Q83.78438 218.505 83.15938 219.02063Q82.55 219.52063 81.59688 219.52063Q80.3625 219.52063 79.64375 218.63Q78.8 217.5675 78.8 215.14563ZM79.87813 215.14563Q79.87813 217.255 80.37813 217.95813Q80.87813 218.66125 81.59688 218.66125Q82.33125 218.66125 82.81563 217.95813Q83.31563 217.255 83.31563 215.14563Q83.31563 213.02063 82.81563 212.33313Q82.33125 211.63 81.58125 211.63Q80.8625 211.63 80.425 212.23938Q79.87813 213.02063 79.87813 215.14563ZM85.8 215.14563Q85.8 213.61438 86.1125 212.6925Q86.425 211.755 87.03438 211.255Q87.65938 210.755 88.59688 210.755Q89.28438 210.755 89.8 211.03625Q90.33125 211.3175 90.675 211.84875Q91.01875 212.36438 91.20625 213.11438Q91.39375 213.86438 91.39375 215.14563Q91.39375 216.66125 91.08125 217.58313Q90.78438 218.505 90.15938 219.02063Q89.55 219.52063 88.59688 219.52063Q87.3625 219.52063 86.64375 218.63Q85.8 217.5675 85.8 215.14563ZM86.87813 215.14563Q86.87813 217.255 87.37813 217.95813Q87.87813 218.66125 88.59688 218.66125Q89.33125 218.66125 89.81563 217.95813Q90.31563 217.255 90.31563 215.14563Q90.31563 213.02063 89.81563 212.33313Q89.33125 211.63 88.58125 211.63Q87.8625 211.63 87.425 212.23938Q86.87813 213.02063 86.87813 215.14563ZM92.8 215.14563Q92.8 213.61438 93.1125 212.6925Q93.425 211.755 94.03438 211.255Q94.65938 210.755 95.59688 210.755Q96.28438 210.755 96.8 211.03625Q97.33125 211.3175 97.675 211.84875Q98.01875 212.36438 98.20625 213.11438Q98.39375 213.86438 98.39375 215.14563Q98.39375 216.66125 98.08125 217.58313Q97.78438 218.505 97.15938 219.02063Q96.55 219.52063 95.59688 219.52063Q94.3625 219.52063 93.64375 218.63Q92.8 217.5675 92.8 215.14563ZM93.87813 215.14563Q93.87813 217.255 94.37813 217.95813Q94.87813 218.66125 95.59688 218.66125Q96.33125 218.66125 96.81563 217.95813Q97.31563 217.255 97.31563 215.14563Q97.31563 213.02063 96.81563 212.33313Q96.33125 211.63 95.58125 211.63Q94.8625 211.63 94.425 212.23938Q93.87813 213.02063 93.87813 215.14563Z" fill-rule="nonzero"/><path fill="#000000" d="M61.175 148.27333L61.175 146.21083L57.45625 146.21083L57.45625 145.24208L61.378124 139.67958L62.2375 139.67958L62.2375 145.24208L63.39375 145.24208L63.39375 146.21083L62.2375 146.21083L62.2375 148.27333L61.175 148.27333ZM61.175 145.24208L61.175 141.3827L58.4875 145.24208L61.175 145.24208ZM64.8 144.03896Q64.8 142.5077 65.1125 141.58583Q65.425 140.64833 66.03438 140.14833Q66.65938 139.64833 67.59688 139.64833Q68.28438 139.64833 68.8 139.92958Q69.33125 140.21083 69.675 140.74208Q70.01875 141.2577 70.20625 142.0077Q70.39375 142.7577 70.39375 144.03896Q70.39375 145.55458 70.08125 146.47646Q69.78438 147.39833 69.15938 147.91396Q68.55 148.41396 67.59688 148.41396Q66.3625 148.41396 65.64375 147.52333Q64.8 146.46083 64.8 144.03896ZM65.87813 144.03896Q65.87813 146.14833 66.37813 146.85146Q66.87813 147.55458 67.59688 147.55458Q68.33125 147.55458 68.81563 146.85146Q69.31563 146.14833 69.31563 144.03896Q69.31563 141.91396 68.81563 141.22646Q68.33125 140.52333 67.58125 140.52333Q66.8625 140.52333 66.425 141.1327Q65.87813 141.91396 65.87813 144.03896ZM71.8 144.03896Q71.8 142.5077 72.1125 141.58583Q72.425 140.64833 73.03438 140.14833Q73.65938 139.64833 74.59688 139.64833Q75.28438 139.64833 75.8 139.92958Q76.33125 140.21083 76.675 140.74208Q77.01875 141.2577 77.20625 142.0077Q77.39375 142.7577 77.39375 144.03896Q77.39375 145.55458 77.08125 146.47646Q76.78438 147.39833 76.15938 147.91396Q75.55 148.41396 74.59688 148.41396Q73.3625 148.41396 72.64375 147.52333Q71.8 146.46083 71.8 144.03896ZM72.87813 144.03896Q72.87813 146.14833 73.37813 146.85146Q73.87813 147.55458 74.59688 147.55458Q75.33125 147.55458 75.81563 146.85146Q76.31563 146.14833 76.31563 144.03896Q76.31563 141.91396 75.81563 141.22646Q75.33125 140.52333 74.58125 140.52333Q73.8625 140.52333 73.425 141.1327Q72.87813 141.91396 72.87813 144.03896ZM78.8 144.03896Q78.8 142.5077 79.1125 141.58583Q79.425 140.64833 80.03438 140.14833Q80.65938 139.64833 81.59688 139.64833Q82.28438 139.64833 82.8 139.92958Q83.33125 140.21083 83.675 140.74208Q84.01875 141.2577 84.20625 142.0077Q84.39375 142.7577 84.39375 144.03896Q84.39375 145.55458 84.08125 146.47646Q83.78438 147.39833 83.15938 147.91396Q82.55 148.41396 81.59688 148.41396Q80.3625 148.41396 79.64375 147.52333Q78.8 146.46083 78.8 144.03896ZM79.87813 144.03896Q79.87813 146.14833 80.37813 146.85146Q80.87813 147.55458 81.59688 147.55458Q82.33125 147.55458 82.81563 146.85146Q83.31563 146.14833 83.31563 144.03896Q83.31563 141.91396 82.81563 141.22646Q82.33125 140.52333 81.58125 140.52333Q80.8625 140.52333 80.425 141.1327Q79.87813 141.91396 79.87813 144.03896ZM85.8 144.03896Q85.8 142.5077 86.1125 141.58583Q86.425 140.64833 87.03438 140.14833Q87.65938 139.64833 88.59688 139.64833Q89.28438 139.64833 89.8 139.92958Q90.33125 140.21083 90.675 140.74208Q91.01875 141.2577 91.20625 142.0077Q91.39375 142.7577 91.39375 144.03896Q91.39375 145.55458 91.08125 146.47646Q90.78438 147.39833 90.15938 147.91396Q89.55 148.41396 88.59688 148.41396Q87.3625 148.41396 86.64375 147.52333Q85.8 146.46083 85.8 144.03896ZM86.87813 144.03896Q86.87813 146.14833 87.37813 146.85146Q87.87813 147.55458 88.59688 147.55458Q89.33125 147.55458 89.81563 146.85146Q90.31563 146.14833 90.31563 144.03896Q90.31563 141.91396 89.81563 141.22646Q89.33125 140.52333 88.58125 140.52333Q87.8625 140.52333 87.425 141.1327Q86.87813 141.91396 86.87813 144.03896ZM92.8 144.03896Q92.8 142.5077 93.1125 141.58583Q93.425 140.64833 94.03438 140.14833Q94.65938 139.64833 95.59688 139.64833Q96.28438 139.64833 96.8 139.92958Q97.33125 140.21083 97.675 140.74208Q98.01875 141.2577 98.20625 142.0077Q98.39375 142.7577 98.39375 144.03896Q98.39375 145.55458 98.08125 146.47646Q97.78438 147.39833 97.15938 147.91396Q96.55 148.41396 95.59688 148.41396Q94.3625 148.41396 93.64375 147.52333Q92.8 146.46083 92.8 144.03896ZM93.87813 144.03896Q93.87813 146.14833 94.37813 146.85146Q94.87813 147.55458 95.59688 147.55458Q96.33125 147.55458 96.81563 146.85146Q97.31563 146.14833 97.31563 144.03896Q97.31563 141.91396 96.81563 141.22646Q96.33125 140.52333 95.58125 140.52333Q94.8625 140.52333 94.425 141.1327Q93.87813 141.91396 93.87813 144.03896Z" fill-rule="nonzero"/><path fill="#000000" d="M57.8 74.916664L58.909374 74.822914Q59.034374 75.635414 59.471874 76.041664Q59.925 76.447914 60.565624 76.447914Q61.315624 76.447914 61.846874 75.86979Q62.378124 75.291664 62.378124 74.354164Q62.378124 73.447914 61.8625 72.93229Q61.3625 72.40104 60.534374 72.40104Q60.034374 72.40104 59.6125 72.635414Q59.20625 72.86979 58.971874 73.229164L57.9875 73.104164L58.815624 68.697914L63.096874 68.697914L63.096874 69.697914L59.659374 69.697914L59.20625 72.010414Q59.971874 71.46354 60.815624 71.46354Q61.940624 71.46354 62.70625 72.24479Q63.4875 73.02604 63.4875 74.260414Q63.4875 75.416664 62.815624 76.27604Q61.9875 77.30729 60.565624 77.30729Q59.39375 77.30729 58.64375 76.65104Q57.909374 75.99479 57.8 74.916664ZM64.8 72.93229Q64.8 71.40104 65.1125 70.479164Q65.425 69.541664 66.03438 69.041664Q66.65938 68.541664 67.59688 68.541664Q68.28438 68.541664 68.8 68.822914Q69.33125 69.104164 69.675 69.635414Q70.01875 70.15104 70.20625 70.90104Q70.39375 71.65104 70.39375 72.93229Q70.39375 74.447914 70.08125 75.36979Q69.78438 76.291664 69.15938 76.80729Q68.55 77.30729 67.59688 77.30729Q66.3625 77.30729 65.64375 76.416664Q64.8 75.354164 64.8 72.93229ZM65.87813 72.93229Q65.87813 75.041664 66.37813 75.74479Q66.87813 76.447914 67.59688 76.447914Q68.33125 76.447914 68.81563 75.74479Q69.31563 75.041664 69.31563 72.93229Q69.31563 70.80729 68.81563 70.11979Q68.33125 69.416664 67.58125 69.416664Q66.8625 69.416664 66.425 70.02604Q65.87813 70.80729 65.87813 72.93229ZM71.8 72.93229Q71.8 71.40104 72.1125 70.479164Q72.425 69.541664 73.03438 69.041664Q73.65938 68.541664 74.59688 68.541664Q75.28438 68.541664 75.8 68.822914Q76.33125 69.104164 76.675 69.635414Q77.01875 70.15104 77.20625 70.90104Q77.39375 71.65104 77.39375 72.93229Q77.39375 74.447914 77.08125 75.36979Q76.78438 76.291664 76.15938 76.80729Q75.55 77.30729 74.59688 77.30729Q73.3625 77.30729 72.64375 76.416664Q71.8 75.354164 71.8 72.93229ZM72.87813 72.93229Q72.87813 75.041664 73.37813 75.74479Q73.87813 76.447914 74.59688 76.447914Q75.33125 76.447914 75.81563 75.74479Q76.31563 75.041664 76.31563 72.93229Q76.31563 70.80729 75.81563 70.11979Q75.33125 69.416664 74.58125 69.416664Q73.8625 69.416664 73.425 70.02604Q72.87813 70.80729 72.87813 72.93229ZM78.8 72.93229Q78.8 71.40104 79.1125 70.479164Q79.425 69.541664 80.03438 69.041664Q80.65938 68.541664 81.59688 68.541664Q82.28438 68.541664 82.8 68.822914Q83.33125 69.104164 83.675 69.635414Q84.01875 70.15104 84.20625 70.90104Q84.39375 71.65104 84.39375 72.93229Q84.39375 74.447914 84.08125 75.36979Q83.78438 76.291664 83.15938 76.80729Q82.55 77.30729 81.59688 77.30729Q80.3625 77.30729 79.64375 76.416664Q78.8 75.354164 78.8 72.93229ZM79.87813 72.93229Q79.87813 75.041664 80.37813 75.74479Q80.87813 76.447914 81.59688 76.447914Q82.33125 76.447914 82.81563 75.74479Q83.31563 75.041664 83.31563 72.93229Q83.31563 70.80729 82.81563 70.11979Q82.33125 69.416664 81.58125 69.416664Q80.8625 69.416664 80.425 70.02604Q79.87813 70.80729 79.87813 72.93229ZM85.8 72.93229Q85.8 71.40104 86.1125 70.479164Q86.425 69.541664 87.03438 69.041664Q87.65938 68.541664 88.59688 68.541664Q89.28438 68.541664 89.8 68.822914Q90.33125 69.104164 90.675 69.635414Q91.01875 70.15104 91.20625 70.90104Q91.39375 71.65104 91.39375 72.93229Q91.39375 74.447914 91.08125 75.36979Q90.78438 76.291664 90.15938 76.80729Q89.55 77.30729 88.59688 77.30729Q87.3625 77.30729 86.64375 76.416664Q85.8 75.354164 85.8 72.93229ZM86.87813 72.93229Q86.87813 75.041664 87.37813 75.74479Q87.87813 76.447914 88.59688 76.447914Q89.33125 76.447914 89.81563 75.74479Q90.31563 75.041664 90.31563 72.93229Q90.31563 70.80729 89.81563 70.11979Q89.33125 69.416664 88.58125 69.416664Q87.8625 69.416664 87.425 70.02604Q86.87813 70.80729 86.87813 72.93229ZM92.8 72.93229Q92.8 71.40104 93.1125 70.479164Q93.425 69.541664 94.03438 69.041664Q94.65938 68.541664 95.59688 68.541664Q96.28438 68.541664 96.8 68.822914Q97.33125 69.104164 97.675 69.635414Q98.01875 70.15104 98.20625 70.90104Q98.39375 71.65104 98.39375 72.93229Q98.39375 74.447914 98.08125 75.36979Q97.78438 76.291664 97.15938 76.80729Q96.55 77.30729 95.59688 77.30729Q94.3625 77.30729 93.64375 76.416664Q92.8 75.354164 92.8 72.93229ZM93.87813 72.93229Q93.87813 75.041664 94.37813 75.74479Q94.87813 76.447914 95.59688 76.447914Q96.33125 76.447914 96.81563 75.74479Q97.31563 75.041664 97.31563 72.93229Q97.31563 70.80729 96.81563 70.11979Q96.33125 69.416664 95.58125 69.416664Q94.8625 69.416664 94.425 70.02604Q93.87813 70.80729 93.87813 72.93229Z" fill-rule="nonzero"/><path fill="#000000" d="M226.52136 444.6844L226.52136 445.7L220.83386 445.7Q220.83386 445.325 220.95886 444.96564Q221.17761 444.3875 221.64636 443.825Q222.13074 443.2625 223.03699 442.52814Q224.44324 441.3719 224.92761 440.7Q225.42761 440.02814 225.42761 439.4344Q225.42761 438.8094 224.97449 438.3875Q224.52136 437.95 223.80261 437.95Q223.03699 437.95 222.58386 438.40314Q222.13074 438.85626 222.11511 439.66876L221.03699 439.5594Q221.14636 438.34064 221.86511 437.71564Q222.59949 437.075 223.83386 437.075Q225.06824 437.075 225.78699 437.7625Q226.50574 438.45 226.50574 439.46564Q226.50574 439.98126 226.28699 440.48126Q226.08386 440.96564 225.58386 441.52814Q225.09949 442.075 223.97449 443.02814Q223.02136 443.825 222.74011 444.1219Q222.47449 444.40314 222.30261 444.6844L226.52136 444.6844ZM227.97449 441.46564Q227.97449 439.9344 228.28699 439.0125Q228.59949 438.075 229.20886 437.575Q229.83386 437.075 230.77136 437.075Q231.45886 437.075 231.97449 437.35626Q232.50574 437.6375 232.84949 438.16876Q233.19324 438.6844 233.38074 439.4344Q233.56824 440.1844 233.56824 441.46564Q233.56824 442.98126 233.25574 443.90314Q232.95886 444.825 232.33386 445.34064Q231.72449 445.84064 230.77136 445.84064Q229.53699 445.84064 228.81824 444.95Q227.97449 443.8875 227.97449 441.46564ZM229.05261 441.46564Q229.05261 443.575 229.55261 444.27814Q230.05261 444.98126 230.77136 444.98126Q231.50574 444.98126 231.99011 444.27814Q232.49011 443.575 232.49011 441.46564Q232.49011 439.34064 231.99011 438.65314Q231.50574 437.95 230.75574 437.95Q230.03699 437.95 229.59949 438.5594Q229.05261 439.34064 229.05261 441.46564ZM234.97449 441.46564Q234.97449 439.9344 235.28699 439.0125Q235.59949 438.075 236.20886 437.575Q236.83386 437.075 237.77136 437.075Q238.45886 437.075 238.97449 437.35626Q239.50574 437.6375 239.84949 438.16876Q240.19324 438.6844 240.38074 439.4344Q240.56824 440.1844 240.56824 441.46564Q240.56824 442.98126 240.25574 443.90314Q239.95886 444.825 239.33386 445.34064Q238.72449 445.84064 237.77136 445.84064Q236.53699 445.84064 235.81824 444.95Q234.97449 443.8875 234.97449 441.46564ZM236.05261 441.46564Q236.05261 443.575 236.55261 444.27814Q237.05261 444.98126 237.77136 444.98126Q238.50574 444.98126 238.99011 444.27814Q239.49011 443.575 239.49011 441.46564Q239.49011 439.34064 238.99011 438.65314Q238.50574 437.95 237.75574 437.95Q237.03699 437.95 236.59949 438.5594Q236.05261 439.34064 236.05261 441.46564ZM242.56824 445.7L242.56824 444.4969L243.77136 444.4969L243.77136 445.7L242.56824 445.7ZM244.97449 441.46564Q244.97449 439.9344 245.28699 439.0125Q245.59949 438.075 246.20886 437.575Q246.83386 437.075 247.77136 437.075Q248.45886 437.075 248.97449 437.35626Q249.50574 437.6375 249.84949 438.16876Q250.19324 438.6844 250.38074 439.4344Q250.56824 440.1844 250.56824 441.46564Q250.56824 442.98126 250.25574 443.90314Q249.95886 444.825 249.33386 445.34064Q248.72449 445.84064 247.77136 445.84064Q246.53699 445.84064 245.81824 444.95Q244.97449 443.8875 244.97449 441.46564ZM246.05261 441.46564Q246.05261 443.575 246.55261 444.27814Q247.05261 444.98126 247.77136 444.98126Q248.50574 444.98126 248.99011 444.27814Q249.49011 443.575 249.49011 441.46564Q249.49011 439.34064 248.99011 438.65314Q248.50574 437.95 247.75574 437.95Q247.03699 437.95 246.59949 438.5594Q246.05261 439.34064 246.05261 441.46564ZM251.97449 441.46564Q251.97449 439.9344 252.28699 439.0125Q252.59949 438.075 253.20886 437.575Q253.83386 437.075 254.77136 437.075Q255.45886 437.075 255.97449 437.35626Q256.50574 437.6375 256.8495 438.16876Q257.19324 438.6844 257.38074 439.4344Q257.56824 440.1844 257.56824 441.46564Q257.56824 442.98126 257.25574 443.90314Q256.95886 444.825 256.33386 445.34064Q255.72449 445.84064 254.77136 445.84064Q253.53699 445.84064 252.81824 444.95Q251.97449 443.8875 251.97449 441.46564ZM253.05261 441.46564Q253.05261 443.575 253.55261 444.27814Q254.05261 444.98126 254.77136 444.98126Q255.50574 444.98126 255.99011 444.27814Q256.4901 443.575 256.4901 441.46564Q256.4901 439.34064 255.99011 438.65314Q255.50574 437.95 254.75574 437.95Q254.03699 437.95 253.59949 438.5594Q253.05261 439.34064 253.05261 441.46564ZM258.9745 441.46564Q258.9745 439.9344 259.287 439.0125Q259.5995 438.075 260.20886 437.575Q260.83386 437.075 261.77136 437.075Q262.45886 437.075 262.9745 437.35626Q263.50574 437.6375 263.8495 438.16876Q264.19324 438.6844 264.38074 439.4344Q264.56824 440.1844 264.56824 441.46564Q264.56824 442.98126 264.25574 443.90314Q263.95886 444.825 263.33386 445.34064Q262.7245 445.84064 261.77136 445.84064Q260.537 445.84064 259.81824 444.95Q258.9745 443.8875 258.9745 441.46564ZM260.0526 441.46564Q260.0526 443.575 260.5526 444.27814Q261.0526 444.98126 261.77136 444.98126Q262.50574 444.98126 262.9901 444.27814Q263.4901 443.575 263.4901 441.46564Q263.4901 439.34064 262.9901 438.65314Q262.50574 437.95 261.75574 437.95Q261.037 437.95 260.5995 438.5594Q260.0526 439.34064 260.0526 441.46564Z" fill-rule="nonzero"/><path fill="#000000" d="M362.03088 445.7L362.03088 443.6375L358.31213 443.6375L358.31213 442.66876L362.234 437.10626L363.09338 437.10626L363.09338 442.66876L364.24963 442.66876L364.24963 443.6375L363.09338 443.6375L363.09338 445.7L362.03088 445.7ZM362.03088 442.66876L362.03088 438.8094L359.34338 442.66876L362.03088 442.66876ZM365.65588 441.46564Q365.65588 439.9344 365.96838 439.0125Q366.28088 438.075 366.89026 437.575Q367.51526 437.075 368.45276 437.075Q369.14026 437.075 369.65588 437.35626Q370.18713 437.6375 370.53088 438.16876Q370.87463 438.6844 371.06213 439.4344Q371.24963 440.1844 371.24963 441.46564Q371.24963 442.98126 370.93713 443.90314Q370.64026 444.825 370.01526 445.34064Q369.40588 445.84064 368.45276 445.84064Q367.21838 445.84064 366.49963 444.95Q365.65588 443.8875 365.65588 441.46564ZM366.734 441.46564Q366.734 443.575 367.234 444.27814Q367.734 444.98126 368.45276 444.98126Q369.18713 444.98126 369.6715 444.27814Q370.1715 443.575 370.1715 441.46564Q370.1715 439.34064 369.6715 438.65314Q369.18713 437.95 368.43713 437.95Q367.71838 437.95 367.28088 438.5594Q366.734 439.34064 366.734 441.46564ZM372.65588 441.46564Q372.65588 439.9344 372.96838 439.0125Q373.28088 438.075 373.89026 437.575Q374.51526 437.075 375.45276 437.075Q376.14026 437.075 376.65588 437.35626Q377.18713 437.6375 377.53088 438.16876Q377.87463 438.6844 378.06213 439.4344Q378.24963 440.1844 378.24963 441.46564Q378.24963 442.98126 377.93713 443.90314Q377.64026 444.825 377.01526 445.34064Q376.40588 445.84064 375.45276 445.84064Q374.21838 445.84064 373.49963 444.95Q372.65588 443.8875 372.65588 441.46564ZM373.734 441.46564Q373.734 443.575 374.234 444.27814Q374.734 444.98126 375.45276 444.98126Q376.18713 444.98126 376.6715 444.27814Q377.1715 443.575 377.1715 441.46564Q377.1715 439.34064 376.6715 438.65314Q376.18713 437.95 375.43713 437.95Q374.71838 437.95 374.28088 438.5594Q373.734 439.34064 373.734 441.46564ZM380.24963 445.7L380.24963 444.4969L381.45276 444.4969L381.45276 445.7L380.24963 445.7ZM382.65588 441.46564Q382.65588 439.9344 382.96838 439.0125Q383.28088 438.075 383.89026 437.575Q384.51526 437.075 385.45276 437.075Q386.14026 437.075 386.65588 437.35626Q387.18713 437.6375 387.53088 438.16876Q387.87463 438.6844 388.06213 439.4344Q388.24963 440.1844 388.24963 441.46564Q388.24963 442.98126 387.93713 443.90314Q387.64026 444.825 387.01526 445.34064Q386.40588 445.84064 385.45276 445.84064Q384.21838 445.84064 383.49963 444.95Q382.65588 443.8875 382.65588 441.46564ZM383.734 441.46564Q383.734 443.575 384.234 444.27814Q384.734 444.98126 385.45276 444.98126Q386.18713 444.98126 386.6715 444.27814Q387.1715 443.575 387.1715 441.46564Q387.1715 439.34064 386.6715 438.65314Q386.18713 437.95 385.43713 437.95Q384.71838 437.95 384.28088 438.5594Q383.734 439.34064 383.734 441.46564ZM389.65588 441.46564Q389.65588 439.9344 389.96838 439.0125Q390.28088 438.075 390.89026 437.575Q391.51526 437.075 392.45276 437.075Q393.14026 437.075 393.65588 437.35626Q394.18713 437.6375 394.53088 438.16876Q394.87463 438.6844 395.06213 439.4344Q395.24963 440.1844 395.24963 441.46564Q395.24963 442.98126 394.93713 443.90314Q394.64026 444.825 394.01526 445.34064Q393.40588 445.84064 392.45276 445.84064Q391.21838 445.84064 390.49963 444.95Q389.65588 443.8875 389.65588 441.46564ZM390.734 441.46564Q390.734 443.575 391.234 444.27814Q391.734 444.98126 392.45276 444.98126Q393.18713 444.98126 393.6715 444.27814Q394.1715 443.575 394.1715 441.46564Q394.1715 439.34064 393.6715 438.65314Q393.18713 437.95 392.43713 437.95Q391.71838 437.95 391.28088 438.5594Q390.734 439.34064 390.734 441.46564ZM396.65588 441.46564Q396.65588 439.9344 396.96838 439.0125Q397.28088 438.075 397.89026 437.575Q398.51526 437.075 399.45276 437.075Q400.14026 437.075 400.65588 437.35626Q401.18713 437.6375 401.53088 438.16876Q401.87463 438.6844 402.06213 439.4344Q402.24963 440.1844 402.24963 441.46564Q402.24963 442.98126 401.93713 443.90314Q401.64026 444.825 401.01526 445.34064Q400.40588 445.84064 399.45276 445.84064Q398.21838 445.84064 397.49963 444.95Q396.65588 443.8875 396.65588 441.46564ZM397.734 441.46564Q397.734 443.575 398.234 444.27814Q398.734 444.98126 399.45276 444.98126Q400.18713 444.98126 400.6715 444.27814Q401.1715 443.575 401.1715 441.46564Q401.1715 439.34064 400.6715 438.65314Q400.18713 437.95 399.43713 437.95Q398.71838 437.95 398.28088 438.5594Q397.734 439.34064 397.734 441.46564Z" fill-rule="nonzero"/><path fill="#000000" d="M501.806 439.21564L500.75912 439.29376Q500.6185 438.66876 500.3685 438.3875Q499.931 437.9344 499.306 437.9344Q498.806 437.9344 498.41537 438.21564Q497.931 438.59064 497.63412 439.29376Q497.35287 439.98126 497.33725 441.2625Q497.71225 440.6844 498.25912 440.40314Q498.82162 440.1219 499.431 440.1219Q500.47787 440.1219 501.21225 440.90314Q501.96225 441.6844 501.96225 442.90314Q501.96225 443.71564 501.60287 444.41876Q501.25912 445.10626 500.64975 445.48126Q500.04037 445.84064 499.27475 445.84064Q497.94662 445.84064 497.1185 444.8719Q496.29037 443.90314 496.29037 441.6844Q496.29037 439.1844 497.21225 438.0594Q498.00912 437.075 499.3685 437.075Q500.38412 437.075 501.02475 437.65314Q501.681 438.21564 501.806 439.21564ZM497.50912 442.91876Q497.50912 443.46564 497.72787 443.96564Q497.96225 444.45 498.3685 444.71564Q498.79037 444.98126 499.25912 444.98126Q499.91537 444.98126 500.39975 444.45Q500.88412 443.90314 500.88412 442.98126Q500.88412 442.09064 500.39975 441.575Q499.931 441.0594 499.21225 441.0594Q498.4935 441.0594 497.9935 441.575Q497.50912 442.09064 497.50912 442.91876ZM503.33725 441.46564Q503.33725 439.9344 503.64975 439.0125Q503.96225 438.075 504.57162 437.575Q505.19662 437.075 506.13412 437.075Q506.82162 437.075 507.33725 437.35626Q507.8685 437.6375 508.21225 438.16876Q508.556 438.6844 508.7435 439.4344Q508.931 440.1844 508.931 441.46564Q508.931 442.98126 508.6185 443.90314Q508.32162 444.825 507.69662 445.34064Q507.08725 445.84064 506.13412 445.84064Q504.89975 445.84064 504.181 444.95Q503.33725 443.8875 503.33725 441.46564ZM504.41537 441.46564Q504.41537 443.575 504.91537 444.27814Q505.41537 444.98126 506.13412 444.98126Q506.8685 444.98126 507.35287 444.27814Q507.85287 443.575 507.85287 441.46564Q507.85287 439.34064 507.35287 438.65314Q506.8685 437.95 506.1185 437.95Q505.39975 437.95 504.96225 438.5594Q504.41537 439.34064 504.41537 441.46564ZM510.33725 441.46564Q510.33725 439.9344 510.64975 439.0125Q510.96225 438.075 511.57162 437.575Q512.19666 437.075 513.13416 437.075Q513.82166 437.075 514.3373 437.35626Q514.8685 437.6375 515.2123 438.16876Q515.556 438.6844 515.7435 439.4344Q515.931 440.1844 515.931 441.46564Q515.931 442.98126 515.6185 443.90314Q515.32166 444.825 514.69666 445.34064Q514.0873 445.84064 513.13416 445.84064Q511.89975 445.84064 511.181 444.95Q510.33725 443.8875 510.33725 441.46564ZM511.41537 441.46564Q511.41537 443.575 511.91537 444.27814Q512.4154 444.98126 513.13416 444.98126Q513.8685 444.98126 514.3529 444.27814Q514.8529 443.575 514.8529 441.46564Q514.8529 439.34064 514.3529 438.65314Q513.8685 437.95 513.1185 437.95Q512.3998 437.95 511.96225 438.5594Q511.41537 439.34064 511.41537 441.46564ZM517.931 445.7L517.931 444.4969L519.13416 444.4969L519.13416 445.7L517.931 445.7ZM520.3373 441.46564Q520.3373 439.9344 520.6498 439.0125Q520.9623 438.075 521.57166 437.575Q522.19666 437.075 523.13416 437.075Q523.82166 437.075 524.3373 437.35626Q524.8685 437.6375 525.2123 438.16876Q525.556 438.6844 525.7435 439.4344Q525.931 440.1844 525.931 441.46564Q525.931 442.98126 525.6185 443.90314Q525.32166 444.825 524.69666 445.34064Q524.0873 445.84064 523.13416 445.84064Q521.8998 445.84064 521.181 444.95Q520.3373 443.8875 520.3373 441.46564ZM521.4154 441.46564Q521.4154 443.575 521.9154 444.27814Q522.4154 444.98126 523.13416 444.98126Q523.8685 444.98126 524.3529 444.27814Q524.8529 443.575 524.8529 441.46564Q524.8529 439.34064 524.3529 438.65314Q523.8685 437.95 523.1185 437.95Q522.3998 437.95 521.9623 438.5594Q521.4154 439.34064 521.4154 441.46564ZM527.3373 441.46564Q527.3373 439.9344 527.6498 439.0125Q527.9623 438.075 528.57166 437.575Q529.19666 437.075 530.13416 437.075Q530.82166 437.075 531.3373 437.35626Q531.8685 437.6375 532.2123 438.16876Q532.556 438.6844 532.7435 439.4344Q532.931 440.1844 532.931 441.46564Q532.931 442.98126 532.6185 443.90314Q532.32166 444.825 531.69666 445.34064Q531.0873 445.84064 530.13416 445.84064Q528.8998 445.84064 528.181 444.95Q527.3373 443.8875 527.3373 441.46564ZM528.4154 441.46564Q528.4154 443.575 528.9154 444.27814Q529.4154 444.98126 530.13416 444.98126Q530.8685 444.98126 531.3529 444.27814Q531.8529 443.575 531.8529 441.46564Q531.8529 439.34064 531.3529 438.65314Q530.8685 437.95 530.1185 437.95Q529.3998 437.95 528.9623 438.5594Q528.4154 439.34064 528.4154 441.46564ZM534.3373 441.46564Q534.3373 439.9344 534.6498 439.0125Q534.9623 438.075 535.57166 437.575Q536.19666 437.075 537.13416 437.075Q537.82166 437.075 538.3373 437.35626Q538.8685 437.6375 539.2123 438.16876Q539.556 438.6844 539.7435 439.4344Q539.931 440.1844 539.931 441.46564Q539.931 442.98126 539.6185 443.90314Q539.32166 444.825 538.69666 445.34064Q538.0873 445.84064 537.13416 445.84064Q535.8998 445.84064 535.181 444.95Q534.3373 443.8875 534.3373 441.46564ZM535.4154 441.46564Q535.4154 443.575 535.9154 444.27814Q536.4154 444.98126 537.13416 444.98126Q537.8685 444.98126 538.3529 444.27814Q538.8529 443.575 538.8529 441.46564Q538.8529 439.34064 538.3529 438.65314Q537.8685 437.95 537.1185 437.95Q536.3998 437.95 535.9623 438.5594Q535.4154 439.34064 535.4154 441.46564Z" fill-rule="nonzero"/><path fill="#000000" d="M635.6436 441.04376Q634.98737 440.79376 634.65924 440.35626Q634.34674 439.90314 634.34674 439.29376Q634.34674 438.35626 635.0186 437.71564Q635.7061 437.075 636.8155 437.075Q637.9405 437.075 638.628 437.73126Q639.3155 438.3875 639.3155 439.325Q639.3155 439.91876 639.003 440.35626Q638.6905 440.79376 638.04987 441.04376Q638.84674 441.29376 639.253 441.8719Q639.65924 442.45 639.65924 443.2469Q639.65924 444.34064 638.878 445.09064Q638.11237 445.84064 636.8311 445.84064Q635.5655 445.84064 634.78424 445.09064Q634.003 444.34064 634.003 443.21564Q634.003 442.3719 634.42487 441.8094Q634.86237 441.2469 635.6436 441.04376ZM635.42487 439.2469Q635.42487 439.85626 635.8155 440.2469Q636.22174 440.6375 636.84674 440.6375Q637.4561 440.6375 637.84674 440.2625Q638.23737 439.8719 638.23737 439.3094Q638.23737 438.73126 637.8311 438.34064Q637.42487 437.9344 636.8311 437.9344Q636.22174 437.9344 635.8155 438.325Q635.42487 438.71564 635.42487 439.2469ZM635.09674 443.21564Q635.09674 443.66876 635.29987 444.09064Q635.5186 444.5125 635.9405 444.7469Q636.36237 444.98126 636.84674 444.98126Q637.59674 444.98126 638.0811 444.4969Q638.5811 444.0125 638.5811 443.2625Q638.5811 442.4969 638.0811 441.9969Q637.5811 441.4969 636.8155 441.4969Q636.0655 441.4969 635.5811 441.9969Q635.09674 442.48126 635.09674 443.21564ZM641.0186 441.46564Q641.0186 439.9344 641.3311 439.0125Q641.6436 438.075 642.253 437.575Q642.878 437.075 643.8155 437.075Q644.503 437.075 645.0186 437.35626Q645.54987 437.6375 645.8936 438.16876Q646.23737 438.6844 646.42487 439.4344Q646.61237 440.1844 646.61237 441.46564Q646.61237 442.98126 646.29987 443.90314Q646.003 444.825 645.378 445.34064Q644.7686 445.84064 643.8155 445.84064Q642.5811 445.84064 641.86237 444.95Q641.0186 443.8875 641.0186 441.46564ZM642.09674 441.46564Q642.09674 443.575 642.59674 444.27814Q643.09674 444.98126 643.8155 444.98126Q644.54987 444.98126 645.03424 444.27814Q645.53424 443.575 645.53424 441.46564Q645.53424 439.34064 645.03424 438.65314Q644.54987 437.95 643.79987 437.95Q643.0811 437.95 642.6436 438.5594Q642.09674 439.34064 642.09674 441.46564ZM648.0186 441.46564Q648.0186 439.9344 648.3311 439.0125Q648.6436 438.075 649.253 437.575Q649.878 437.075 650.8155 437.075Q651.503 437.075 652.0186 437.35626Q652.54987 437.6375 652.8936 438.16876Q653.23737 438.6844 653.42487 439.4344Q653.61237 440.1844 653.61237 441.46564Q653.61237 442.98126 653.29987 443.90314Q653.003 444.825 652.378 445.34064Q651.7686 445.84064 650.8155 445.84064Q649.5811 445.84064 648.86237 444.95Q648.0186 443.8875 648.0186 441.46564ZM649.09674 441.46564Q649.09674 443.575 649.59674 444.27814Q650.09674 444.98126 650.8155 444.98126Q651.54987 444.98126 652.03424 444.27814Q652.53424 443.575 652.53424 441.46564Q652.53424 439.34064 652.03424 438.65314Q651.54987 437.95 650.79987 437.95Q650.0811 437.95 649.6436 438.5594Q649.09674 439.34064 649.09674 441.46564ZM655.61237 445.7L655.61237 444.4969L656.8155 444.4969L656.8155 445.7L655.61237 445.7ZM658.0186 441.46564Q658.0186 439.9344 658.3311 439.0125Q658.6436 438.075 659.253 437.575Q659.878 437.075 660.8155 437.075Q661.503 437.075 662.0186 437.35626Q662.54987 437.6375 662.8936 438.16876Q663.23737 438.6844 663.42487 439.4344Q663.61237 440.1844 663.61237 441.46564Q663.61237 442.98126 663.29987 443.90314Q663.003 444.825 662.378 445.34064Q661.7686 445.84064 660.8155 445.84064Q659.5811 445.84064 658.86237 444.95Q658.0186 443.8875 658.0186 441.46564ZM659.09674 441.46564Q659.09674 443.575 659.59674 444.27814Q660.09674 444.98126 660.8155 444.98126Q661.54987 444.98126 662.03424 444.27814Q662.53424 443.575 662.53424 441.46564Q662.53424 439.34064 662.03424 438.65314Q661.54987 437.95 660.79987 437.95Q660.0811 437.95 659.6436 438.5594Q659.09674 439.34064 659.09674 441.46564ZM665.0186 441.46564Q665.0186 439.9344 665.3311 439.0125Q665.6436 438.075 666.253 437.575Q666.878 437.075 667.8155 437.075Q668.503 437.075 669.0186 437.35626Q669.54987 437.6375 669.8936 438.16876Q670.23737 438.6844 670.42487 439.4344Q670.61237 440.1844 670.61237 441.46564Q670.61237 442.98126 670.29987 443.90314Q670.003 444.825 669.378 445.34064Q668.7686 445.84064 667.8155 445.84064Q666.5811 445.84064 665.86237 444.95Q665.0186 443.8875 665.0186 441.46564ZM666.09674 441.46564Q666.09674 443.575 666.59674 444.27814Q667.09674 444.98126 667.8155 444.98126Q668.54987 444.98126 669.03424 444.27814Q669.53424 443.575 669.53424 441.46564Q669.53424 439.34064 669.03424 438.65314Q668.54987 437.95 667.79987 437.95Q667.0811 437.95 666.6436 438.5594Q666.09674 439.34064 666.09674 441.46564ZM672.0186 441.46564Q672.0186 439.9344 672.3311 439.0125Q672.6436 438.075 673.253 437.575Q673.878 437.075 674.8155 437.075Q675.503 437.075 676.0186 437.35626Q676.54987 437.6375 676.8936 438.16876Q677.23737 438.6844 677.42487 439.4344Q677.61237 440.1844 677.61237 441.46564Q677.61237 442.98126 677.29987 443.90314Q677.003 444.825 676.378 445.34064Q675.7686 445.84064 674.8155 445.84064Q673.5811 445.84064 672.86237 444.95Q672.0186 443.8875 672.0186 441.46564ZM673.09674 441.46564Q673.09674 443.575 673.59674 444.27814Q674.09674 444.98126 674.8155 444.98126Q675.54987 444.98126 676.03424 444.27814Q676.53424 443.575 676.53424 441.46564Q676.53424 439.34064 676.03424 438.65314Q675.54987 437.95 674.79987 437.95Q674.0811 437.95 673.6436 438.5594Q673.09674 439.34064 673.09674 441.46564Z" fill-rule="nonzero"/><path fill="#757575" d="M25.909374 41.20625L27.659374 40.925Q27.8 41.971874 28.471874 42.534374Q29.14375 43.08125 30.346874 43.08125Q31.55 43.08125 32.128124 42.596874Q32.721874 42.096874 32.721874 41.440624Q32.721874 40.846874 32.20625 40.503124Q31.846874 40.26875 30.409374 39.909374Q28.471874 39.409374 27.721874 39.065624Q26.9875 38.70625 26.596874 38.08125Q26.20625 37.440624 26.20625 36.675Q26.20625 35.9875 26.51875 35.39375Q26.846874 34.8 27.39375 34.409374Q27.8 34.1125 28.503124 33.909374Q29.221874 33.690624 30.034374 33.690624Q31.253124 33.690624 32.175 34.05Q33.096874 34.39375 33.534374 35.003124Q33.971874 35.596874 34.14375 36.596874L32.425 36.83125Q32.3 36.034374 31.7375 35.596874Q31.175 35.14375 30.159374 35.14375Q28.940624 35.14375 28.425 35.55Q27.909374 35.940624 27.909374 36.471874Q27.909374 36.815624 28.128124 37.096874Q28.33125 37.378124 28.8 37.565624Q29.065624 37.659374 30.346874 38.003124Q32.221874 38.503124 32.95625 38.83125Q33.690624 39.14375 34.1125 39.753124Q34.534374 40.346874 34.534374 41.253124Q34.534374 42.128124 34.01875 42.909374Q33.503124 43.690624 32.534374 44.1125Q31.565624 44.534374 30.346874 44.534374Q28.33125 44.534374 27.26875 43.690624Q26.20625 42.846874 25.909374 41.20625ZM36.6125 44.3L36.6125 29.9875L38.378124 29.9875L38.378124 35.1125Q39.6125 33.690624 41.4875 33.690624Q42.628124 33.690624 43.471874 34.14375Q44.33125 34.596874 44.690624 35.409374Q45.065624 36.20625 45.065624 37.721874L45.065624 44.3L43.315624 44.3L43.315624 37.721874Q43.315624 36.409374 42.7375 35.815624Q42.159374 35.20625 41.128124 35.20625Q40.346874 35.20625 39.64375 35.6125Q38.95625 36.01875 38.659374 36.721874Q38.378124 37.409374 38.378124 38.628124L38.378124 44.3L36.6125 44.3ZM54.721874 40.95625L56.534374 41.190624Q56.1125 42.76875 54.940624 43.659374Q53.784374 44.534374 51.971874 44.534374Q49.70625 44.534374 48.3625 43.14375Q47.034374 41.7375 47.034374 39.20625Q47.034374 36.58125 48.378124 35.14375Q49.721874 33.690624 51.878124 33.690624Q53.95625 33.690624 55.26875 35.1125Q56.596874 36.51875 56.596874 39.096874Q56.596874 39.253124 56.58125 39.565624L48.846874 39.565624Q48.940624 41.26875 49.815624 42.175Q50.690624 43.08125 51.9875 43.08125Q52.95625 43.08125 53.628124 42.58125Q54.315624 42.065624 54.721874 40.95625ZM48.940624 38.1125L54.7375 38.1125Q54.628124 36.815624 54.08125 36.159374Q53.2375 35.14375 51.89375 35.14375Q50.690624 35.14375 49.8625 35.95625Q49.034374 36.753124 48.940624 38.1125ZM58.58125 44.3L58.58125 29.9875L60.33125 29.9875L60.33125 44.3L58.58125 44.3ZM62.58125 44.3L62.58125 29.9875L64.33125 29.9875L64.33125 44.3L62.58125 44.3ZM65.00313 48.26875L65.00313 47.003124L76.64375 47.003124L76.64375 48.26875L65.00313 48.26875ZM76.90938 41.20625L78.65938 40.925Q78.8 41.971874 79.47188 42.534374Q80.14375 43.08125 81.34688 43.08125Q82.55 43.08125 83.12813 42.596874Q83.72188 42.096874 83.72188 41.440624Q83.72188 40.846874 83.20625 40.503124Q82.84688 40.26875 81.40938 39.909374Q79.47188 39.409374 78.72188 39.065624Q77.9875 38.70625 77.59688 38.08125Q77.20625 37.440624 77.20625 36.675Q77.20625 35.9875 77.51875 35.39375Q77.84688 34.8 78.39375 34.409374Q78.8 34.1125 79.50313 33.909374Q80.22188 33.690624 81.03438 33.690624Q82.25313 33.690624 83.175 34.05Q84.09688 34.39375 84.53438 35.003124Q84.97188 35.596874 85.14375 36.596874L83.425 36.83125Q83.3 36.034374 82.7375 35.596874Q82.175 35.14375 81.15938 35.14375Q79.94063 35.14375 79.425 35.55Q78.90938 35.940624 78.90938 36.471874Q78.90938 36.815624 79.12813 37.096874Q79.33125 37.378124 79.8 37.565624Q80.06563 37.659374 81.34688 38.003124Q83.22188 38.503124 83.95625 38.83125Q84.69063 39.14375 85.1125 39.753124Q85.53438 40.346874 85.53438 41.253124Q85.53438 42.128124 85.01875 42.909374Q84.50313 43.690624 83.53438 44.1125Q82.56563 44.534374 81.34688 44.534374Q79.33125 44.534374 78.26875 43.690624Q77.20625 42.846874 76.90938 41.20625ZM86.97188 39.1125Q86.97188 36.2375 88.56563 34.846874Q89.90938 33.690624 91.83125 33.690624Q93.97188 33.690624 95.31563 35.096874Q96.675 36.503124 96.675 38.971874Q96.675 40.971874 96.08125 42.128124Q95.4875 43.26875 94.33125 43.909374Q93.19063 44.534374 91.83125 44.534374Q89.64375 44.534374 88.3 43.14375Q86.97188 41.7375 86.97188 39.1125ZM88.76875 39.1125Q88.76875 41.1125 89.62813 42.096874Q90.50313 43.08125 91.83125 43.08125Q93.14375 43.08125 94.00313 42.096874Q94.87813 41.096874 94.87813 39.05Q94.87813 37.128124 94.00313 36.14375Q93.12813 35.14375 91.83125 35.14375Q90.50313 35.14375 89.62813 36.14375Q88.76875 37.128124 88.76875 39.1125ZM98.59688 44.3L98.59688 33.925L100.175 33.925L100.175 35.503124Q100.78438 34.39375 101.3 34.05Q101.81563 33.690624 102.425 33.690624Q103.31563 33.690624 104.2375 34.253124L103.62813 35.89375Q102.9875 35.503124 102.34688 35.503124Q101.76875 35.503124 101.3 35.8625Q100.84688 36.20625 100.64375 36.815624Q100.3625 37.753124 100.3625 38.8625L100.3625 44.3L98.59688 44.3ZM109.45625 42.721874L109.70625 44.284374Q108.97188 44.440624 108.37813 44.440624Q107.425 44.440624 106.89375 44.14375Q106.37813 43.83125 106.15938 43.346874Q105.94063 42.846874 105.94063 41.26875L105.94063 35.3L104.65938 35.3L104.65938 33.925L105.94063 33.925L105.94063 31.3625L107.69063 30.3L107.69063 33.925L109.45625 33.925L109.45625 35.3L107.69063 35.3L107.69063 41.3625Q107.69063 42.1125 107.78438 42.33125Q107.87813 42.534374 108.08125 42.675Q108.3 42.8 108.69063 42.8Q108.97188 42.8 109.45625 42.721874Z" fill-rule="nonzero"/></svg>